<?xml version="1.0" encoding="UTF-8" standalone="no"?><svg xmlns="http://www.w3.org/2000/svg" version="1.1" viewBox="-10 -10 220 220"><title>Inequality puzzle solution</title><style type="text/css">rect,path{stroke:#000}rect{fill:#cff}path{fill:none}text{stroke:#000;font-family:Merriweather;font-size:18px;dominant-baseline:middle;text-anchor:middle}</style><defs><path id="gt" d="M18,-15 l5,15 l-5,15"/></defs><rect style="fill:#fff;stroke:none" x="-10" y="-10" height="220" width="220"/><rect x="5" y="5" width="30" height="30"/><text x="20" y="20">1</text><rect x="45" y="5" width="30" height="30"/><text x="60" y="20">3</text><rect x="85" y="5" width="30" height="30"/><text x="100" y="20">2</text><rect x="125" y="5" width="30" height="30"/><text x="140" y="20">5</text><rect x="165" y="5" width="30" height="30"/><text x="180" y="20">4</text><rect x="5" y="45" width="30" height="30"/><text x="20" y="60">2</text><rect x="45" y="45" width="30" height="30"/><text x="60" y="60">5</text><rect x="85" y="45" width="30" height="30"/><text x="100" y="60">4</text><rect x="125" y="45" width="30" height="30"/><text x="140" y="60">1</text><rect x="165" y="45" width="30" height="30"/><text x="180" y="60">3</text><rect x="5" y="85" width="30" height="30"/><text x="20" y="100">3</text><rect x="45" y="85" width="30" height="30"/><text x="60" y="100">1</text><rect x="85" y="85" width="30" height="30"/><text x="100" y="100">5</text><rect x="125" y="85" width="30" height="30"/><text x="140" y="100">4</text><rect x="165" y="85" width="30" height="30"/><text x="180" y="100">2</text><rect x="5" y="125" width="30" height="30"/><text x="20" y="140">5</text><rect x="45" y="125" width="30" height="30"/><text x="60" y="140">4</text><rect x="85" y="125" width="30" height="30"/><text x="100" y="140">3</text><rect x="125" y="125" width="30" height="30"/><text x="140" y="140">2</text><rect x="165" y="125" width="30" height="30"/><text x="180" y="140">1</text><rect x="5" y="165" width="30" height="30"/><text x="20" y="180">4</text><rect x="45" y="165" width="30" height="30"/><text x="60" y="180">2</text><rect x="85" y="165" width="30" height="30"/><text x="100" y="180">1</text><rect x="125" y="165" width="30" height="30"/><text x="140" y="180">3</text><rect x="165" y="165" width="30" height="30"/><text x="180" y="180">5</text><use href="#gt" transform="translate(60 20)"/><use href="#gt" transform="translate(140 20)"/><use href="#gt" transform="translate(20 60) rotate(-90)"/><use href="#gt" transform="translate(20 100) rotate(-90)"/><use href="#gt" transform="translate(100 100)"/><use href="#gt" transform="translate(140 100) rotate(-90)"/><use href="#gt" transform="translate(140 100) rotate(90)"/><use href="#gt" transform="translate(140 100) rotate(90)"/><use href="#gt" transform="translate(60 140)"/><use href="#gt" transform="translate(140 140)"/><use href="#gt" transform="translate(60 180)"/></svg>
