<?xml version="1.0" encoding="UTF-8" standalone="no"?><svg xmlns="http://www.w3.org/2000/svg" version="1.1" viewBox="-10 -10 220 220"><title>Inequality puzzle</title><style type="text/css">rect,path{stroke:#000}rect{fill:#cff}path{fill:none}text{stroke:#000;font-family:Merriweather;font-size:18px;dominant-baseline:middle;text-anchor:middle}</style><defs><path id="gt" d="M18,-15 l5,15 l-5,15"/></defs><rect style="fill:#fff;stroke:none" x="-10" y="-10" height="220" width="220"/><rect x="5" y="5" width="30" height="30"/><rect x="45" y="5" width="30" height="30"/><rect x="85" y="5" width="30" height="30"/><rect x="125" y="5" width="30" height="30"/><rect x="165" y="5" width="30" height="30"/><rect x="5" y="45" width="30" height="30"/><rect x="45" y="45" width="30" height="30"/><rect x="85" y="45" width="30" height="30"/><rect x="125" y="45" width="30" height="30"/><rect x="165" y="45" width="30" height="30"/><rect x="5" y="85" width="30" height="30"/><rect x="45" y="85" width="30" height="30"/><rect x="85" y="85" width="30" height="30"/><rect x="125" y="85" width="30" height="30"/><rect x="165" y="85" width="30" height="30"/><rect x="5" y="125" width="30" height="30"/><rect x="45" y="125" width="30" height="30"/><rect x="85" y="125" width="30" height="30"/><rect x="125" y="125" width="30" height="30"/><rect x="165" y="125" width="30" height="30"/><rect x="5" y="165" width="30" height="30"/><text x="20" y="180">4</text><rect x="45" y="165" width="30" height="30"/><rect x="85" y="165" width="30" height="30"/><rect x="125" y="165" width="30" height="30"/><rect x="165" y="165" width="30" height="30"/><use href="#gt" transform="translate(60 20)"/><use href="#gt" transform="translate(140 20)"/><use href="#gt" transform="translate(20 60) rotate(-90)"/><use href="#gt" transform="translate(20 100) rotate(-90)"/><use href="#gt" transform="translate(100 100)"/><use href="#gt" transform="translate(140 100) rotate(-90)"/><use href="#gt" transform="translate(140 100) rotate(90)"/><use href="#gt" transform="translate(140 100) rotate(90)"/><use href="#gt" transform="translate(60 140)"/><use href="#gt" transform="translate(140 140)"/><use href="#gt" transform="translate(60 180)"/></svg>
