<?xml version="1.0" encoding="UTF-8" standalone="no"?>
<!DOCTYPE svg PUBLIC "-//W3C//DTD SVG 1.1//EN"
 "http://www.w3.org/Graphics/SVG/1.1/DTD/svg11.dtd">
<!-- Generated by graphviz version 2.42.3 (20191010.1750)
 -->
<!-- Title: vocalmedia Pages: 1 -->
<svg width="747pt" height="761pt"
 viewBox="0.00 0.00 268.85 274.00" xmlns="http://www.w3.org/2000/svg" xmlns:xlink="http://www.w3.org/1999/xlink">
<g id="graph0" class="graph" transform="scale(0.57 0.57) rotate(0) translate(4 433)">
<title>vocalmedia</title>
<polygon fill="white" stroke="transparent" points="-4,4 -4,-433 424.79,-433 424.79,4 -4,4"/>
<g id="clust1" class="cluster">
<title>cluster_AWS</title>
<polygon fill="none" stroke="black" points="172.6,-8 172.6,-421 412.79,-421 412.79,-8 172.6,-8"/>
<text text-anchor="middle" x="292.69" y="-405.8" font-family="Times,serif" font-size="14.00">AWS</text>
</g>
<g id="clust3" class="cluster">
<title>cluster_Website</title>
<polygon fill="none" stroke="black" points="252.79,-16 252.79,-199 322.79,-199 322.79,-16 252.79,-16"/>
<text text-anchor="middle" x="287.79" y="-183.8" font-family="Times,serif" font-size="14.00">Website</text>
</g>
<g id="clust4" class="cluster">
<title>cluster_Platform</title>
<polygon fill="none" stroke="black" points="252.79,-207 252.79,-390 322.79,-390 322.79,-207 252.79,-207"/>
<text text-anchor="middle" x="287.79" y="-374.8" font-family="Times,serif" font-size="14.00">Platform</text>
</g>
<!-- User -->
<!-- CDN -->
<g id="node2" class="node">
<title>CDN</title>
<polygon fill="none" stroke="black" points="144.6,-299 90.6,-299 90.6,-83 144.6,-83 144.6,-299"/>
<text text-anchor="middle" x="117.6" y="-187.3" font-family="Times,serif" font-size="14.00">CDN</text>
</g>
<!-- User&#45;&gt;CDN -->
<g id="edge1" class="edge">
<title>User&#45;&gt;CDN</title>
<path fill="none" stroke="black" d="M54.79,-191C62.81,-191 71.75,-191 80.3,-191"/>
<polygon fill="black" stroke="black" points="80.43,-194.5 90.43,-191 80.43,-187.5 80.43,-194.5"/>
</g>
<!-- LB -->
<g id="node3" class="node">
<title>LB</title>
<ellipse fill="none" stroke="black" cx="202.69" cy="-191" rx="22.2" ry="22.2"/>
<text text-anchor="middle" x="202.69" y="-187.3" font-family="Times,serif" font-size="14.00">LB</text>
</g>
<!-- CDN&#45;&gt;LB -->
<g id="edge2" class="edge">
<title>CDN&#45;&gt;LB</title>
<path fill="none" stroke="black" d="M144.89,-191C152.98,-191 161.97,-191 170.36,-191"/>
<polygon fill="black" stroke="black" points="170.56,-194.5 180.56,-191 170.56,-187.5 170.56,-194.5"/>
</g>
<!-- Website1 -->
<g id="node4" class="node">
<title>Website1</title>
<polygon fill="none" stroke="black" points="314.79,-150 301.29,-168 274.29,-168 260.79,-150 274.29,-132 301.29,-132 314.79,-150"/>
</g>
<!-- LB&#45;&gt;Website1 -->
<g id="edge3" class="edge">
<title>LB&#45;&gt;Website1</title>
<path fill="none" stroke="black" d="M222.97,-181.49C233.56,-176.26 246.89,-169.68 258.63,-163.89"/>
<polygon fill="black" stroke="black" points="260.2,-167.02 267.62,-159.46 257.11,-160.74 260.2,-167.02"/>
</g>
<!-- Website2 -->
<g id="node5" class="node">
<title>Website2</title>
<polygon fill="none" stroke="black" points="314.79,-96 301.29,-114 274.29,-114 260.79,-96 274.29,-78 301.29,-78 314.79,-96"/>
</g>
<!-- LB&#45;&gt;Website2 -->
<g id="edge4" class="edge">
<title>LB&#45;&gt;Website2</title>
<path fill="none" stroke="black" d="M215.15,-172.34C224.39,-158.06 238.21,-138.27 252.79,-123 255.58,-120.08 258.69,-117.2 261.87,-114.47"/>
<polygon fill="black" stroke="black" points="264.21,-117.08 269.75,-108.06 259.79,-111.65 264.21,-117.08"/>
</g>
<!-- Website3 -->
<g id="node6" class="node">
<title>Website3</title>
<polygon fill="none" stroke="black" points="314.79,-42 301.29,-60 274.29,-60 260.79,-42 274.29,-24 301.29,-24 314.79,-42"/>
</g>
<!-- LB&#45;&gt;Website3 -->
<g id="edge5" class="edge">
<title>LB&#45;&gt;Website3</title>
<path fill="none" stroke="black" d="M208.73,-169.48C215.54,-143.7 229.58,-100.11 252.79,-69 255.21,-65.76 258.1,-62.7 261.17,-59.87"/>
<polygon fill="black" stroke="black" points="263.52,-62.48 268.97,-53.39 259.04,-57.09 263.52,-62.48"/>
</g>
<!-- Platform1 -->
<g id="node7" class="node">
<title>Platform1</title>
<polygon fill="none" stroke="black" points="314.79,-287 301.29,-305 274.29,-305 260.79,-287 274.29,-269 301.29,-269 314.79,-287"/>
</g>
<!-- LB&#45;&gt;Platform1 -->
<g id="edge6" class="edge">
<title>LB&#45;&gt;Platform1</title>
<path fill="none" stroke="black" d="M214.92,-209.64C224.13,-224.17 238.02,-244.43 252.79,-260 255.57,-262.93 258.68,-265.82 261.85,-268.55"/>
<polygon fill="black" stroke="black" points="259.77,-271.37 269.73,-274.96 264.19,-265.94 259.77,-271.37"/>
</g>
<!-- Platform2 -->
<g id="node8" class="node">
<title>Platform2</title>
<polygon fill="none" stroke="black" points="314.79,-233 301.29,-251 274.29,-251 260.79,-233 274.29,-215 301.29,-215 314.79,-233"/>
</g>
<!-- LB&#45;&gt;Platform2 -->
<g id="edge7" class="edge">
<title>LB&#45;&gt;Platform2</title>
<path fill="none" stroke="black" d="M222.97,-200.74C233.64,-206.13 247.09,-212.93 258.88,-218.9"/>
<polygon fill="black" stroke="black" points="257.41,-222.07 267.91,-223.46 260.56,-215.82 257.41,-222.07"/>
</g>
<!-- Platform3 -->
<g id="node9" class="node">
<title>Platform3</title>
<polygon fill="none" stroke="black" points="314.79,-341 301.29,-359 274.29,-359 260.79,-341 274.29,-323 301.29,-323 314.79,-341"/>
</g>
<!-- LB&#45;&gt;Platform3 -->
<g id="edge8" class="edge">
<title>LB&#45;&gt;Platform3</title>
<path fill="none" stroke="black" d="M208.69,-212.7C215.46,-238.69 229.46,-282.64 252.79,-314 255.2,-317.24 258.09,-320.31 261.16,-323.13"/>
<polygon fill="black" stroke="black" points="259.03,-325.92 268.96,-329.61 263.51,-320.53 259.03,-325.92"/>
</g>
<!-- PG -->
<g id="node10" class="node">
<title>PG</title>
<path fill="none" stroke="black" d="M404.79,-274.73C404.79,-276.53 392.69,-278 377.79,-278 362.89,-278 350.79,-276.53 350.79,-274.73 350.79,-274.73 350.79,-245.27 350.79,-245.27 350.79,-243.47 362.89,-242 377.79,-242 392.69,-242 404.79,-243.47 404.79,-245.27 404.79,-245.27 404.79,-274.73 404.79,-274.73"/>
<path fill="none" stroke="black" d="M404.79,-274.73C404.79,-272.92 392.69,-271.45 377.79,-271.45 362.89,-271.45 350.79,-272.92 350.79,-274.73"/>
<text text-anchor="middle" x="377.79" y="-256.3" font-family="Times,serif" font-size="14.00">PG</text>
</g>
<!-- Platform1&#45;&gt;PG -->
<g id="edge9" class="edge">
<title>Platform1&#45;&gt;PG</title>
<path fill="none" stroke="black" d="M310.09,-280.46C319.34,-277.63 330.44,-274.22 340.9,-271.01"/>
<polygon fill="black" stroke="black" points="342.12,-274.3 350.66,-268.02 340.07,-267.61 342.12,-274.3"/>
</g>
<!-- Redis -->
<g id="node11" class="node">
<title>Redis</title>
<path fill="none" stroke="black" d="M404.79,-328.73C404.79,-330.53 392.69,-332 377.79,-332 362.89,-332 350.79,-330.53 350.79,-328.73 350.79,-328.73 350.79,-299.27 350.79,-299.27 350.79,-297.47 362.89,-296 377.79,-296 392.69,-296 404.79,-297.47 404.79,-299.27 404.79,-299.27 404.79,-328.73 404.79,-328.73"/>
<path fill="none" stroke="black" d="M404.79,-328.73C404.79,-326.92 392.69,-325.45 377.79,-325.45 362.89,-325.45 350.79,-326.92 350.79,-328.73"/>
<text text-anchor="middle" x="377.79" y="-310.3" font-family="Times,serif" font-size="14.00">Redis</text>
</g>
<!-- Platform1&#45;&gt;Redis -->
<g id="edge12" class="edge">
<title>Platform1&#45;&gt;Redis</title>
<path fill="none" stroke="black" d="M310.09,-293.54C319.34,-296.37 330.44,-299.78 340.9,-302.99"/>
<polygon fill="black" stroke="black" points="340.07,-306.39 350.66,-305.98 342.12,-299.7 340.07,-306.39"/>
</g>
<!-- Platform2&#45;&gt;PG -->
<g id="edge10" class="edge">
<title>Platform2&#45;&gt;PG</title>
<path fill="none" stroke="black" d="M310.09,-239.54C319.34,-242.37 330.44,-245.78 340.9,-248.99"/>
<polygon fill="black" stroke="black" points="340.07,-252.39 350.66,-251.98 342.12,-245.7 340.07,-252.39"/>
</g>
<!-- Platform2&#45;&gt;Redis -->
<g id="edge13" class="edge">
<title>Platform2&#45;&gt;Redis</title>
<path fill="none" stroke="black" d="M305.7,-245.81C311.26,-250.18 317.39,-255.18 322.79,-260 328.72,-265.28 340.92,-277.44 352.22,-288.89"/>
<polygon fill="black" stroke="black" points="349.94,-291.56 359.45,-296.23 354.93,-286.64 349.94,-291.56"/>
</g>
<!-- Platform3&#45;&gt;PG -->
<g id="edge11" class="edge">
<title>Platform3&#45;&gt;PG</title>
<path fill="none" stroke="black" d="M305.7,-328.19C311.26,-323.82 317.39,-318.82 322.79,-314 328.72,-308.72 340.92,-296.56 352.22,-285.11"/>
<polygon fill="black" stroke="black" points="354.93,-287.36 359.45,-277.77 349.94,-282.44 354.93,-287.36"/>
</g>
<!-- Platform3&#45;&gt;Redis -->
<g id="edge14" class="edge">
<title>Platform3&#45;&gt;Redis</title>
<path fill="none" stroke="black" d="M310.09,-334.46C319.34,-331.63 330.44,-328.22 340.9,-325.01"/>
<polygon fill="black" stroke="black" points="342.12,-328.3 350.66,-322.02 340.07,-321.61 342.12,-328.3"/>
</g>
</g>
</svg>
