<svg xmlns="http://www.w3.org/2000/svg" xmlns:xlink="http://www.w3.org/1999/xlink" width="1240" height="385.65"><rect width="1240" height="385.65" rx="5" ry="5" class="a"></rect><svg y="0%" x="0%"><circle cx="20" cy="20" r="6" class="b"></circle><circle cx="40" cy="20" r="6" class="c"></circle><circle cx="60" cy="20" r="6" class="d"></circle></svg><svg height="325.65" viewBox="0 0 120 32.565" width="1200" x="15" xmlns="http://www.w3.org/2000/svg" xmlns:xlink="http://www.w3.org/1999/xlink" y="50"><style>.a{fill:rgb(40,45,53)}.b{fill:#ff5f58}.c{fill:#ffbd2e}.d{fill:#18c132}.e{font-family:Monaco,Consolas,Menlo,'Bitstream Vera Sans Mono','Powerline Symbols',monospace}.f{fill:rgb(168,204,140);font-weight:bold;white-space:pre}.g{fill:rgb(185,192,203);white-space:pre}.h{fill:rgb(113,190,242);font-weight:bold;white-space:pre}.i{fill:rgb(185,192,203);font-weight:bold;white-space:pre}.j{fill:transparent}.k{fill:rgb(111,118,131)}.m{animation-duration:5.166648s;animation-iteration-count:infinite;animation-name:l;animation-timing-function:steps(1,end)}@keyframes l{0%{transform:translateX(-0px)}0.2%{transform:translateX(-120px)}9.3%{transform:translateX(-240px)}11.4%{transform:translateX(-360px)}14.5%{transform:translateX(-480px)}17.8%{transform:translateX(-600px)}19.1%{transform:translateX(-720px)}22.6%{transform:translateX(-840px)}25.2%{transform:translateX(-960px)}28.9%{transform:translateX(-1080px)}33.4%{transform:translateX(-1200px)}37.4%{transform:translateX(-1320px)}39.5%{transform:translateX(-1440px)}43.9%{transform:translateX(-1560px)}54.5%{transform:translateX(-1680px)}55%{transform:translateX(-1800px)}55.3%{transform:translateX(-1920px)}100%{transform:translateX(-2040px)}}</style><g font-family="Monaco, Consolas, Menlo, &#x27;Bitstream Vera Sans Mono&#x27;, &#x27;Powerline Symbols&#x27;, monospace" font-size="1.67" class="e"><defs><symbol id="1"><text x="0" y="1.67" class="f">team@itsfoss</text><text x="12.024" y="1.67" class="g">:</text><text x="13.026" y="1.67" class="h">~</text><text x="14.027999999999999" y="1.67" class="g">$</text></symbol><symbol id="2"><text x="0" y="1.67" class="f">team@itsfoss</text><text x="12.024" y="1.67" class="g">:</text><text x="13.026" y="1.67" class="h">~</text><text x="14.027999999999999" y="1.67" class="g">$</text><text x="16.032" y="1.67" class="g">flatpak</text></symbol><symbol id="3"><text x="0" y="1.67" class="f">team@itsfoss</text><text x="12.024" y="1.67" class="g">:</text><text x="13.026" y="1.67" class="h">~</text><text x="14.027999999999999" y="1.67" class="g">$</text><text x="16.032" y="1.67" class="g">flatpak</text><text x="24.048" y="1.67" class="g">list</text></symbol><symbol id="4"><text x="0" y="1.67" class="i">Name</text><text x="41.082" y="1.67" class="i">Application</text><text x="53.105999999999995" y="1.67" class="i">ID</text><text x="80.16" y="1.67" class="i">Version</text><text x="90.17999999999999" y="1.67" class="i">Branch</text><text x="104.208" y="1.67" class="i">Installation</text></symbol><symbol id="5"><text x="0" y="1.67" class="g">NewsFlash</text><text x="41.082" y="1.67" class="g">com.gitlab.newsflash</text><text x="80.16" y="1.67" class="g">2.3.0</text><text x="90.17999999999999" y="1.67" class="g">stable</text><text x="104.208" y="1.67" class="g">system</text></symbol><symbol id="6"><text x="0" y="1.67" class="g">Black</text><text x="6.012" y="1.67" class="g">Box</text><text x="41.082" y="1.67" class="g">com.raggesilver.BlackBox</text><text x="80.16" y="1.67" class="g">0.13.2</text><text x="90.17999999999999" y="1.67" class="g">stable</text><text x="104.208" y="1.67" class="g">system</text></symbol><symbol id="7"><text x="0" y="1.67" class="g">Mesa</text><text x="41.082" y="1.67" class="g">org.freedesktop.Platform.GL.default</text><text x="80.16" y="1.67" class="g">23.1.1</text><text x="90.17999999999999" y="1.67" class="g">22.08</text><text x="104.208" y="1.67" class="g">system</text></symbol><symbol id="8"><text x="0" y="1.67" class="g">Mesa</text><text x="5.01" y="1.67" class="g">(Extra)</text><text x="41.082" y="1.67" class="g">org.freedesktop.Platform.GL.default</text><text x="80.16" y="1.67" class="g">23.1.1</text><text x="90.17999999999999" y="1.67" class="g">22.08-extra</text><text x="104.208" y="1.67" class="g">system</text></symbol><symbol id="9"><text x="0" y="1.67" class="g">openh264</text><text x="41.082" y="1.67" class="g">org.freedesktop.Platform.openh264</text><text x="80.16" y="1.67" class="g">2.1.0</text><text x="90.17999999999999" y="1.67" class="g">2.2.0</text><text x="104.208" y="1.67" class="g">system</text></symbol><symbol id="10"><text x="0" y="1.67" class="g">GNOME</text><text x="6.012" y="1.67" class="g">Application</text><text x="18.035999999999998" y="1.67" class="g">Platform</text><text x="27.054" y="1.67" class="g">version</text><text x="35.06999999999999" y="1.67" class="g">43</text><text x="41.082" y="1.67" class="g">org.gnome.Platform</text><text x="90.17999999999999" y="1.67" class="g">43</text><text x="104.208" y="1.67" class="g">system</text></symbol><symbol id="11"><text x="0" y="1.67" class="g">GNOME</text><text x="6.012" y="1.67" class="g">Application</text><text x="18.035999999999998" y="1.67" class="g">Platform</text><text x="27.054" y="1.67" class="g">version</text><text x="35.06999999999999" y="1.67" class="g">44</text><text x="41.082" y="1.67" class="g">org.gnome.Platform</text><text x="90.17999999999999" y="1.67" class="g">44</text><text x="104.208" y="1.67" class="g">system</text></symbol><symbol id="12"><text x="0" y="1.67" class="g">Yaru</text><text x="5.01" y="1.67" class="g">Gtk</text><text x="9.017999999999999" y="1.67" class="g">Theme</text><text x="41.082" y="1.67" class="g">org.gtk.Gtk3theme.Yaru</text><text x="90.17999999999999" y="1.67" class="g">3.22</text><text x="104.208" y="1.67" class="g">system</text></symbol><symbol id="a"><rect height="16" width="120" x="0" y="0" class="j"></rect></symbol><symbol id="b"><rect height="2.171" width="1.1022" class="k"></rect></symbol></defs><rect height="32.565" width="120" class="a"></rect><g class="m"><svg x="0" y="0" width="2160"><svg x="0"><use xlink:href="#a"></use><use xlink:href="#b" x="-0.0040000000000000036" y="0"></use></svg><svg x="120"><use xlink:href="#a"></use><use xlink:href="#b" x="15.996" y="0"></use><use xlink:href="#1" y="0"></use></svg><svg x="240"><use xlink:href="#a"></use><use xlink:href="#b" x="16.996" y="0"></use><text x="0" y="1.67" class="f">team@itsfoss</text><text x="12.024" y="1.67" class="g">:</text><text x="13.026" y="1.67" class="h">~</text><text x="14.027999999999999" y="1.67" class="g">$</text><text x="16.032" y="1.67" class="g">f</text></svg><svg x="360"><use xlink:href="#a"></use><use xlink:href="#b" x="17.996" y="0"></use><text x="0" y="1.67" class="f">team@itsfoss</text><text x="12.024" y="1.67" class="g">:</text><text x="13.026" y="1.67" class="h">~</text><text x="14.027999999999999" y="1.67" class="g">$</text><text x="16.032" y="1.67" class="g">fl</text></svg><svg x="480"><use xlink:href="#a"></use><use xlink:href="#b" x="18.996" y="0"></use><text x="0" y="1.67" class="f">team@itsfoss</text><text x="12.024" y="1.67" class="g">:</text><text x="13.026" y="1.67" class="h">~</text><text x="14.027999999999999" y="1.67" class="g">$</text><text x="16.032" y="1.67" class="g">fla</text></svg><svg x="600"><use xlink:href="#a"></use><use xlink:href="#b" x="19.996" y="0"></use><text x="0" y="1.67" class="f">team@itsfoss</text><text x="12.024" y="1.67" class="g">:</text><text x="13.026" y="1.67" class="h">~</text><text x="14.027999999999999" y="1.67" class="g">$</text><text x="16.032" y="1.67" class="g">flat</text></svg><svg x="720"><use xlink:href="#a"></use><use xlink:href="#b" x="20.996" y="0"></use><text x="0" y="1.67" class="f">team@itsfoss</text><text x="12.024" y="1.67" class="g">:</text><text x="13.026" y="1.67" class="h">~</text><text x="14.027999999999999" y="1.67" class="g">$</text><text x="16.032" y="1.67" class="g">flatp</text></svg><svg x="840"><use xlink:href="#a"></use><use xlink:href="#b" x="21.996" y="0"></use><text x="0" y="1.67" class="f">team@itsfoss</text><text x="12.024" y="1.67" class="g">:</text><text x="13.026" y="1.67" class="h">~</text><text x="14.027999999999999" y="1.67" class="g">$</text><text x="16.032" y="1.67" class="g">flatpa</text></svg><svg x="960"><use xlink:href="#a"></use><use xlink:href="#b" x="22.996" y="0"></use><use xlink:href="#2" y="0"></use></svg><svg x="1080"><use xlink:href="#a"></use><use xlink:href="#b" x="23.996" y="0"></use><use xlink:href="#2" y="0"></use></svg><svg x="1200"><use xlink:href="#a"></use><use xlink:href="#b" x="24.996" y="0"></use><text x="0" y="1.67" class="f">team@itsfoss</text><text x="12.024" y="1.67" class="g">:</text><text x="13.026" y="1.67" class="h">~</text><text x="14.027999999999999" y="1.67" class="g">$</text><text x="16.032" y="1.67" class="g">flatpak</text><text x="24.048" y="1.67" class="g">l</text></svg><svg x="1320"><use xlink:href="#a"></use><use xlink:href="#b" x="25.996" y="0"></use><text x="0" y="1.67" class="f">team@itsfoss</text><text x="12.024" y="1.67" class="g">:</text><text x="13.026" y="1.67" class="h">~</text><text x="14.027999999999999" y="1.67" class="g">$</text><text x="16.032" y="1.67" class="g">flatpak</text><text x="24.048" y="1.67" class="g">li</text></svg><svg x="1440"><use xlink:href="#a"></use><use xlink:href="#b" x="26.996" y="0"></use><text x="0" y="1.67" class="f">team@itsfoss</text><text x="12.024" y="1.67" class="g">:</text><text x="13.026" y="1.67" class="h">~</text><text x="14.027999999999999" y="1.67" class="g">$</text><text x="16.032" y="1.67" class="g">flatpak</text><text x="24.048" y="1.67" class="g">lis</text></svg><svg x="1560"><use xlink:href="#a"></use><use xlink:href="#b" x="27.996" y="0"></use><use xlink:href="#3" y="0"></use></svg><svg x="1680"><use xlink:href="#a"></use><use xlink:href="#b" x="-0.0040000000000000036" y="2.146"></use><use xlink:href="#3" y="0"></use></svg><svg x="1800"><use xlink:href="#a"></use><use xlink:href="#b" x="-0.0040000000000000036" y="21.685000000000002"></use><use xlink:href="#3" y="0"></use><use xlink:href="#4" y="2.171"></use><use xlink:href="#5" y="4.342"></use><use xlink:href="#6" y="6.513"></use><use xlink:href="#7" y="8.684"></use><use xlink:href="#8" y="10.855"></use><use xlink:href="#9" y="13.026"></use><use xlink:href="#10" y="15.197"></use><use xlink:href="#11" y="17.368"></use><use xlink:href="#12" y="19.539"></use></svg><svg x="1920"><use xlink:href="#a"></use><use xlink:href="#b" x="15.996" y="21.685000000000002"></use><use xlink:href="#3" y="0"></use><use xlink:href="#4" y="2.171"></use><use xlink:href="#5" y="4.342"></use><use xlink:href="#6" y="6.513"></use><use xlink:href="#7" y="8.684"></use><use xlink:href="#8" y="10.855"></use><use xlink:href="#9" y="13.026"></use><use xlink:href="#10" y="15.197"></use><use xlink:href="#11" y="17.368"></use><use xlink:href="#12" y="19.539"></use><use xlink:href="#1" y="21.71"></use></svg><svg x="2040"><use xlink:href="#a"></use><use xlink:href="#b" x="-0.0040000000000000036" y="26.027"></use><use xlink:href="#3" y="0"></use><use xlink:href="#4" y="2.171"></use><use xlink:href="#5" y="4.342"></use><use xlink:href="#6" y="6.513"></use><use xlink:href="#7" y="8.684"></use><use xlink:href="#8" y="10.855"></use><use xlink:href="#9" y="13.026"></use><use xlink:href="#10" y="15.197"></use><use xlink:href="#11" y="17.368"></use><use xlink:href="#12" y="19.539"></use><use xlink:href="#1" y="21.71"></use><text x="0" y="25.550999999999995" class="g">exit</text></svg></svg></g></g></svg></svg>