<svg xmlns="http://www.w3.org/2000/svg" xmlns:xlink="http://www.w3.org/1999/xlink" width="1240" height="385.65"><rect width="1240" height="385.65" rx="5" ry="5" class="a"></rect><svg y="0%" x="0%"><circle cx="20" cy="20" r="6" class="b"></circle><circle cx="40" cy="20" r="6" class="c"></circle><circle cx="60" cy="20" r="6" class="d"></circle></svg><svg height="325.65" viewBox="0 0 120 32.565" width="1200" x="15" xmlns="http://www.w3.org/2000/svg" xmlns:xlink="http://www.w3.org/1999/xlink" y="50"><style>.a{fill:rgb(40,45,53)}.b{fill:#ff5f58}.c{fill:#ffbd2e}.d{fill:#18c132}.e{font-family:Monaco,Consolas,Menlo,'Bitstream Vera Sans Mono','Powerline Symbols',monospace}.f{fill:rgb(168,204,140);font-weight:bold;white-space:pre}.g{fill:rgb(185,192,203);white-space:pre}.h{fill:rgb(113,190,242);font-weight:bold;white-space:pre}.i{fill:rgb(185,192,203);font-weight:bold;white-space:pre}.j{fill:transparent}.k{fill:rgb(111,118,131)}.m{animation-duration:18.129595s;animation-iteration-count:infinite;animation-name:l;animation-timing-function:steps(1,end)}@keyframes l{0%{transform:translateX(-0px)}0.05%{transform:translateX(-120px)}4.33%{transform:translateX(-240px)}4.87%{transform:translateX(-360px)}5.74%{transform:translateX(-480px)}7.15%{transform:translateX(-600px)}8%{transform:translateX(-720px)}9.01%{transform:translateX(-840px)}9.63%{transform:translateX(-960px)}11.35%{transform:translateX(-1080px)}14.22%{transform:translateX(-1200px)}15.77%{transform:translateX(-1320px)}16.6%{transform:translateX(-1440px)}18.46%{transform:translateX(-1560px)}21.33%{transform:translateX(-1680px)}21.99%{transform:translateX(-1800px)}23.18%{transform:translateX(-1920px)}27.33%{transform:translateX(-2040px)}28.08%{transform:translateX(-2160px)}28.92%{transform:translateX(-2280px)}31.16%{transform:translateX(-2400px)}31.87%{transform:translateX(-2520px)}33.81%{transform:translateX(-2640px)}34.52%{transform:translateX(-2760px)}38.09%{transform:translateX(-2880px)}38.71%{transform:translateX(-3000px)}42.36%{transform:translateX(-3120px)}42.77%{transform:translateX(-3240px)}52.16%{transform:translateX(-3360px)}52.92%{transform:translateX(-3480px)}53.89%{transform:translateX(-3600px)}54.64%{transform:translateX(-3720px)}54.83%{transform:translateX(-3840px)}55.92%{transform:translateX(-3960px)}56.29%{transform:translateX(-4080px)}57.55%{transform:translateX(-4200px)}58.75%{transform:translateX(-4320px)}60.2%{transform:translateX(-4440px)}60.86%{transform:translateX(-4560px)}61.83%{transform:translateX(-4680px)}63.37%{transform:translateX(-4800px)}64.39%{transform:translateX(-4920px)}65.23%{transform:translateX(-5040px)}69.2%{transform:translateX(-5160px)}70.18%{transform:translateX(-5280px)}71.18%{transform:translateX(-5400px)}74.99%{transform:translateX(-5520px)}75.74%{transform:translateX(-5640px)}82%{transform:translateX(-5760px)}82.62%{transform:translateX(-5880px)}86.18%{transform:translateX(-6000px)}89.93%{transform:translateX(-6120px)}90.32%{transform:translateX(-6240px)}100%{transform:translateX(-6360px)}}</style><g font-family="Monaco, Consolas, Menlo, &#x27;Bitstream Vera Sans Mono&#x27;, &#x27;Powerline Symbols&#x27;, monospace" font-size="1.67" class="e"><defs><symbol id="1"><text x="0" y="1.67" class="f">team@itsfoss</text><text x="12.024" y="1.67" class="g">:</text><text x="13.026" y="1.67" class="h">~</text><text x="14.027999999999999" y="1.67" class="g">$</text></symbol><symbol id="2"><text x="0" y="1.67" class="f">team@itsfoss</text><text x="12.024" y="1.67" class="g">:</text><text x="13.026" y="1.67" class="h">~</text><text x="14.027999999999999" y="1.67" class="g">$</text><text x="16.032" y="1.67" class="g">f</text></symbol><symbol id="3"><text x="0" y="1.67" class="f">team@itsfoss</text><text x="12.024" y="1.67" class="g">:</text><text x="13.026" y="1.67" class="h">~</text><text x="14.027999999999999" y="1.67" class="g">$</text><text x="16.032" y="1.67" class="g">fl</text></symbol><symbol id="4"><text x="0" y="1.67" class="f">team@itsfoss</text><text x="12.024" y="1.67" class="g">:</text><text x="13.026" y="1.67" class="h">~</text><text x="14.027999999999999" y="1.67" class="g">$</text><text x="16.032" y="1.67" class="g">fla</text></symbol><symbol id="5"><text x="0" y="1.67" class="f">team@itsfoss</text><text x="12.024" y="1.67" class="g">:</text><text x="13.026" y="1.67" class="h">~</text><text x="14.027999999999999" y="1.67" class="g">$</text><text x="16.032" y="1.67" class="g">flat</text></symbol><symbol id="6"><text x="0" y="1.67" class="f">team@itsfoss</text><text x="12.024" y="1.67" class="g">:</text><text x="13.026" y="1.67" class="h">~</text><text x="14.027999999999999" y="1.67" class="g">$</text><text x="16.032" y="1.67" class="g">flatp</text></symbol><symbol id="7"><text x="0" y="1.67" class="f">team@itsfoss</text><text x="12.024" y="1.67" class="g">:</text><text x="13.026" y="1.67" class="h">~</text><text x="14.027999999999999" y="1.67" class="g">$</text><text x="16.032" y="1.67" class="g">flatpa</text></symbol><symbol id="8"><text x="0" y="1.67" class="f">team@itsfoss</text><text x="12.024" y="1.67" class="g">:</text><text x="13.026" y="1.67" class="h">~</text><text x="14.027999999999999" y="1.67" class="g">$</text><text x="16.032" y="1.67" class="g">flatpak</text></symbol><symbol id="9"><text x="0" y="1.67" class="f">team@itsfoss</text><text x="12.024" y="1.67" class="g">:</text><text x="13.026" y="1.67" class="h">~</text><text x="14.027999999999999" y="1.67" class="g">$</text><text x="16.032" y="1.67" class="g">flatpak</text><text x="24.048" y="1.67" class="g">s</text></symbol><symbol id="10"><text x="0" y="1.67" class="f">team@itsfoss</text><text x="12.024" y="1.67" class="g">:</text><text x="13.026" y="1.67" class="h">~</text><text x="14.027999999999999" y="1.67" class="g">$</text><text x="16.032" y="1.67" class="g">flatpak</text><text x="24.048" y="1.67" class="g">se</text></symbol><symbol id="11"><text x="0" y="1.67" class="f">team@itsfoss</text><text x="12.024" y="1.67" class="g">:</text><text x="13.026" y="1.67" class="h">~</text><text x="14.027999999999999" y="1.67" class="g">$</text><text x="16.032" y="1.67" class="g">flatpak</text><text x="24.048" y="1.67" class="g">sea</text></symbol><symbol id="12"><text x="0" y="1.67" class="f">team@itsfoss</text><text x="12.024" y="1.67" class="g">:</text><text x="13.026" y="1.67" class="h">~</text><text x="14.027999999999999" y="1.67" class="g">$</text><text x="16.032" y="1.67" class="g">flatpak</text><text x="24.048" y="1.67" class="g">sear</text></symbol><symbol id="13"><text x="0" y="1.67" class="f">team@itsfoss</text><text x="12.024" y="1.67" class="g">:</text><text x="13.026" y="1.67" class="h">~</text><text x="14.027999999999999" y="1.67" class="g">$</text><text x="16.032" y="1.67" class="g">flatpak</text><text x="24.048" y="1.67" class="g">searc</text></symbol><symbol id="14"><text x="0" y="1.67" class="f">team@itsfoss</text><text x="12.024" y="1.67" class="g">:</text><text x="13.026" y="1.67" class="h">~</text><text x="14.027999999999999" y="1.67" class="g">$</text><text x="16.032" y="1.67" class="g">flatpak</text><text x="24.048" y="1.67" class="g">search</text></symbol><symbol id="15"><text x="0" y="1.67" class="f">team@itsfoss</text><text x="12.024" y="1.67" class="g">:</text><text x="13.026" y="1.67" class="h">~</text><text x="14.027999999999999" y="1.67" class="g">$</text><text x="16.032" y="1.67" class="g">flatpak</text><text x="24.048" y="1.67" class="g">search</text><text x="31.061999999999998" y="1.67" class="g">blackbox</text></symbol><symbol id="16"><text x="0" y="1.67" class="i">Name</text><text x="16.032" y="1.67" class="i">Description</text><text x="50.1" y="1.67" class="i">Application</text><text x="62.123999999999995" y="1.67" class="i">ID</text><text x="81.16199999999999" y="1.67" class="i">Version</text><text x="95.19" y="1.67" class="i">Branch</text><text x="108.216" y="1.67" class="i">Remotes</text></symbol><symbol id="17"><text x="0" y="1.67" class="g">KBlackbox</text><text x="16.032" y="1.67" class="g">Blackbox</text><text x="25.05" y="1.67" class="g">Logic</text><text x="31.061999999999998" y="1.67" class="g">Game</text><text x="50.1" y="1.67" class="g">org.kde.kblackbox</text><text x="81.16199999999999" y="1.67" class="g">23.04.2</text><text x="95.19" y="1.67" class="g">stable</text><text x="108.216" y="1.67" class="g">flathub</text></symbol><symbol id="18"><text x="0" y="1.67" class="g">Black</text><text x="6.012" y="1.67" class="g">Box</text><text x="16.032" y="1.67" class="g">A</text><text x="18.035999999999998" y="1.67" class="g">beautiful</text><text x="28.055999999999997" y="1.67" class="g">GTK</text><text x="32.064" y="1.67" class="g">4</text><text x="34.068" y="1.67" class="g">terminal.</text><text x="50.1" y="1.67" class="g">com.raggesilver.BlackBox</text><text x="81.16199999999999" y="1.67" class="g">0.13.2</text><text x="95.19" y="1.67" class="g">stable</text><text x="108.216" y="1.67" class="g">flathub</text></symbol><symbol id="19"><text x="0" y="1.67" class="f">team@itsfoss</text><text x="12.024" y="1.67" class="g">:</text><text x="13.026" y="1.67" class="h">~</text><text x="14.027999999999999" y="1.67" class="g">$</text><text x="16.032" y="1.67" class="g">flatpak</text><text x="24.048" y="1.67" class="g">search</text><text x="31.061999999999998" y="1.67" class="g">spotify</text></symbol><symbol id="20"><text x="0" y="1.67" class="i">Name</text><text x="13.026" y="1.67" class="i">Description</text><text x="49.098" y="1.67" class="i">Application</text><text x="61.12199999999999" y="1.67" class="i">ID</text><text x="73.146" y="1.67" class="i">Version</text><text x="98.196" y="1.67" class="i">Branch</text><text x="109.218" y="1.67" class="i">Remotes</text></symbol><symbol id="21"><text x="0" y="1.67" class="g">Spotify</text><text x="13.026" y="1.67" class="g">Online</text><text x="20.04" y="1.67" class="g">music</text><text x="26.052" y="1.67" class="g">streaming</text><text x="36.071999999999996" y="1.67" class="g">service</text><text x="49.098" y="1.67" class="g">com.spotify.Client</text><text x="73.146" y="1.67" class="g">1.2.11.916.geb595a67</text><text x="98.196" y="1.67" class="g">stable</text><text x="109.218" y="1.67" class="g">flathub</text></symbol><symbol id="a"><rect height="16" width="120" x="0" y="0" class="j"></rect></symbol><symbol id="b"><rect height="2.171" width="1.1022" class="k"></rect></symbol></defs><rect height="32.565" width="120" class="a"></rect><g class="m"><svg x="0" y="0" width="6480"><svg x="0"><use xlink:href="#a"></use><use xlink:href="#b" x="-0.0040000000000000036" y="0"></use></svg><svg x="120"><use xlink:href="#a"></use><use xlink:href="#b" x="15.996" y="0"></use><use xlink:href="#1" y="0"></use></svg><svg x="240"><use xlink:href="#a"></use><use xlink:href="#b" x="16.996" y="0"></use><use xlink:href="#2" y="0"></use></svg><svg x="360"><use xlink:href="#a"></use><use xlink:href="#b" x="17.996" y="0"></use><use xlink:href="#3" y="0"></use></svg><svg x="480"><use xlink:href="#a"></use><use xlink:href="#b" x="18.996" y="0"></use><use xlink:href="#4" y="0"></use></svg><svg x="600"><use xlink:href="#a"></use><use xlink:href="#b" x="19.996" y="0"></use><use xlink:href="#5" y="0"></use></svg><svg x="720"><use xlink:href="#a"></use><use xlink:href="#b" x="20.996" y="0"></use><use xlink:href="#6" y="0"></use></svg><svg x="840"><use xlink:href="#a"></use><use xlink:href="#b" x="21.996" y="0"></use><use xlink:href="#7" y="0"></use></svg><svg x="960"><use xlink:href="#a"></use><use xlink:href="#b" x="22.996" y="0"></use><use xlink:href="#8" y="0"></use></svg><svg x="1080"><use xlink:href="#a"></use><use xlink:href="#b" x="23.996" y="0"></use><use xlink:href="#8" y="0"></use></svg><svg x="1200"><use xlink:href="#a"></use><use xlink:href="#b" x="24.996" y="0"></use><use xlink:href="#9" y="0"></use></svg><svg x="1320"><use xlink:href="#a"></use><use xlink:href="#b" x="25.996" y="0"></use><use xlink:href="#10" y="0"></use></svg><svg x="1440"><use xlink:href="#a"></use><use xlink:href="#b" x="26.996" y="0"></use><use xlink:href="#11" y="0"></use></svg><svg x="1560"><use xlink:href="#a"></use><use xlink:href="#b" x="27.996" y="0"></use><use xlink:href="#12" y="0"></use></svg><svg x="1680"><use xlink:href="#a"></use><use xlink:href="#b" x="28.996" y="0"></use><use xlink:href="#13" y="0"></use></svg><svg x="1800"><use xlink:href="#a"></use><use xlink:href="#b" x="29.996" y="0"></use><use xlink:href="#14" y="0"></use></svg><svg x="1920"><use xlink:href="#a"></use><use xlink:href="#b" x="30.996" y="0"></use><use xlink:href="#14" y="0"></use></svg><svg x="2040"><use xlink:href="#a"></use><use xlink:href="#b" x="31.996" y="0"></use><text x="0" y="1.67" class="f">team@itsfoss</text><text x="12.024" y="1.67" class="g">:</text><text x="13.026" y="1.67" class="h">~</text><text x="14.027999999999999" y="1.67" class="g">$</text><text x="16.032" y="1.67" class="g">flatpak</text><text x="24.048" y="1.67" class="g">search</text><text x="31.061999999999998" y="1.67" class="g">b</text></svg><svg x="2160"><use xlink:href="#a"></use><use xlink:href="#b" x="32.996" y="0"></use><text x="0" y="1.67" class="f">team@itsfoss</text><text x="12.024" y="1.67" class="g">:</text><text x="13.026" y="1.67" class="h">~</text><text x="14.027999999999999" y="1.67" class="g">$</text><text x="16.032" y="1.67" class="g">flatpak</text><text x="24.048" y="1.67" class="g">search</text><text x="31.061999999999998" y="1.67" class="g">bl</text></svg><svg x="2280"><use xlink:href="#a"></use><use xlink:href="#b" x="33.996" y="0"></use><text x="0" y="1.67" class="f">team@itsfoss</text><text x="12.024" y="1.67" class="g">:</text><text x="13.026" y="1.67" class="h">~</text><text x="14.027999999999999" y="1.67" class="g">$</text><text x="16.032" y="1.67" class="g">flatpak</text><text x="24.048" y="1.67" class="g">search</text><text x="31.061999999999998" y="1.67" class="g">bla</text></svg><svg x="2400"><use xlink:href="#a"></use><use xlink:href="#b" x="34.996" y="0"></use><text x="0" y="1.67" class="f">team@itsfoss</text><text x="12.024" y="1.67" class="g">:</text><text x="13.026" y="1.67" class="h">~</text><text x="14.027999999999999" y="1.67" class="g">$</text><text x="16.032" y="1.67" class="g">flatpak</text><text x="24.048" y="1.67" class="g">search</text><text x="31.061999999999998" y="1.67" class="g">blac</text></svg><svg x="2520"><use xlink:href="#a"></use><use xlink:href="#b" x="35.996" y="0"></use><text x="0" y="1.67" class="f">team@itsfoss</text><text x="12.024" y="1.67" class="g">:</text><text x="13.026" y="1.67" class="h">~</text><text x="14.027999999999999" y="1.67" class="g">$</text><text x="16.032" y="1.67" class="g">flatpak</text><text x="24.048" y="1.67" class="g">search</text><text x="31.061999999999998" y="1.67" class="g">black</text></svg><svg x="2640"><use xlink:href="#a"></use><use xlink:href="#b" x="36.996" y="0"></use><text x="0" y="1.67" class="f">team@itsfoss</text><text x="12.024" y="1.67" class="g">:</text><text x="13.026" y="1.67" class="h">~</text><text x="14.027999999999999" y="1.67" class="g">$</text><text x="16.032" y="1.67" class="g">flatpak</text><text x="24.048" y="1.67" class="g">search</text><text x="31.061999999999998" y="1.67" class="g">blackb</text></svg><svg x="2760"><use xlink:href="#a"></use><use xlink:href="#b" x="37.996" y="0"></use><text x="0" y="1.67" class="f">team@itsfoss</text><text x="12.024" y="1.67" class="g">:</text><text x="13.026" y="1.67" class="h">~</text><text x="14.027999999999999" y="1.67" class="g">$</text><text x="16.032" y="1.67" class="g">flatpak</text><text x="24.048" y="1.67" class="g">search</text><text x="31.061999999999998" y="1.67" class="g">blackbo</text></svg><svg x="2880"><use xlink:href="#a"></use><use xlink:href="#b" x="38.996" y="0"></use><use xlink:href="#15" y="0"></use></svg><svg x="3000"><use xlink:href="#a"></use><use xlink:href="#b" x="-0.0040000000000000036" y="2.146"></use><use xlink:href="#15" y="0"></use></svg><svg x="3120"><use xlink:href="#a"></use><use xlink:href="#b" x="-0.0040000000000000036" y="8.658999999999999"></use><use xlink:href="#15" y="0"></use><use xlink:href="#16" y="2.171"></use><use xlink:href="#17" y="4.342"></use><use xlink:href="#18" y="6.513"></use></svg><svg x="3240"><use xlink:href="#a"></use><use xlink:href="#b" x="15.996" y="8.658999999999999"></use><use xlink:href="#15" y="0"></use><use xlink:href="#16" y="2.171"></use><use xlink:href="#17" y="4.342"></use><use xlink:href="#18" y="6.513"></use><use xlink:href="#1" y="8.684"></use></svg><svg x="3360"><use xlink:href="#a"></use><use xlink:href="#b" x="16.996" y="8.658999999999999"></use><use xlink:href="#15" y="0"></use><use xlink:href="#16" y="2.171"></use><use xlink:href="#17" y="4.342"></use><use xlink:href="#18" y="6.513"></use><use xlink:href="#2" y="8.684"></use></svg><svg x="3480"><use xlink:href="#a"></use><use xlink:href="#b" x="17.996" y="8.658999999999999"></use><use xlink:href="#15" y="0"></use><use xlink:href="#16" y="2.171"></use><use xlink:href="#17" y="4.342"></use><use xlink:href="#18" y="6.513"></use><use xlink:href="#3" y="8.684"></use></svg><svg x="3600"><use xlink:href="#a"></use><use xlink:href="#b" x="18.996" y="8.658999999999999"></use><use xlink:href="#15" y="0"></use><use xlink:href="#16" y="2.171"></use><use xlink:href="#17" y="4.342"></use><use xlink:href="#18" y="6.513"></use><use xlink:href="#4" y="8.684"></use></svg><svg x="3720"><use xlink:href="#a"></use><use xlink:href="#b" x="19.996" y="8.658999999999999"></use><use xlink:href="#15" y="0"></use><use xlink:href="#16" y="2.171"></use><use xlink:href="#17" y="4.342"></use><use xlink:href="#18" y="6.513"></use><use xlink:href="#5" y="8.684"></use></svg><svg x="3840"><use xlink:href="#a"></use><use xlink:href="#b" x="20.996" y="8.658999999999999"></use><use xlink:href="#15" y="0"></use><use xlink:href="#16" y="2.171"></use><use xlink:href="#17" y="4.342"></use><use xlink:href="#18" y="6.513"></use><use xlink:href="#6" y="8.684"></use></svg><svg x="3960"><use xlink:href="#a"></use><use xlink:href="#b" x="21.996" y="8.658999999999999"></use><use xlink:href="#15" y="0"></use><use xlink:href="#16" y="2.171"></use><use xlink:href="#17" y="4.342"></use><use xlink:href="#18" y="6.513"></use><use xlink:href="#7" y="8.684"></use></svg><svg x="4080"><use xlink:href="#a"></use><use xlink:href="#b" x="22.996" y="8.658999999999999"></use><use xlink:href="#15" y="0"></use><use xlink:href="#16" y="2.171"></use><use xlink:href="#17" y="4.342"></use><use xlink:href="#18" y="6.513"></use><use xlink:href="#8" y="8.684"></use></svg><svg x="4200"><use xlink:href="#a"></use><use xlink:href="#b" x="23.996" y="8.658999999999999"></use><use xlink:href="#15" y="0"></use><use xlink:href="#16" y="2.171"></use><use xlink:href="#17" y="4.342"></use><use xlink:href="#18" y="6.513"></use><use xlink:href="#8" y="8.684"></use></svg><svg x="4320"><use xlink:href="#a"></use><use xlink:href="#b" x="24.996" y="8.658999999999999"></use><use xlink:href="#15" y="0"></use><use xlink:href="#16" y="2.171"></use><use xlink:href="#17" y="4.342"></use><use xlink:href="#18" y="6.513"></use><use xlink:href="#9" y="8.684"></use></svg><svg x="4440"><use xlink:href="#a"></use><use xlink:href="#b" x="25.996" y="8.658999999999999"></use><use xlink:href="#15" y="0"></use><use xlink:href="#16" y="2.171"></use><use xlink:href="#17" y="4.342"></use><use xlink:href="#18" y="6.513"></use><use xlink:href="#10" y="8.684"></use></svg><svg x="4560"><use xlink:href="#a"></use><use xlink:href="#b" x="26.996" y="8.658999999999999"></use><use xlink:href="#15" y="0"></use><use xlink:href="#16" y="2.171"></use><use xlink:href="#17" y="4.342"></use><use xlink:href="#18" y="6.513"></use><use xlink:href="#11" y="8.684"></use></svg><svg x="4680"><use xlink:href="#a"></use><use xlink:href="#b" x="27.996" y="8.658999999999999"></use><use xlink:href="#15" y="0"></use><use xlink:href="#16" y="2.171"></use><use xlink:href="#17" y="4.342"></use><use xlink:href="#18" y="6.513"></use><use xlink:href="#12" y="8.684"></use></svg><svg x="4800"><use xlink:href="#a"></use><use xlink:href="#b" x="28.996" y="8.658999999999999"></use><use xlink:href="#15" y="0"></use><use xlink:href="#16" y="2.171"></use><use xlink:href="#17" y="4.342"></use><use xlink:href="#18" y="6.513"></use><use xlink:href="#13" y="8.684"></use></svg><svg x="4920"><use xlink:href="#a"></use><use xlink:href="#b" x="29.996" y="8.658999999999999"></use><use xlink:href="#15" y="0"></use><use xlink:href="#16" y="2.171"></use><use xlink:href="#17" y="4.342"></use><use xlink:href="#18" y="6.513"></use><use xlink:href="#14" y="8.684"></use></svg><svg x="5040"><use xlink:href="#a"></use><use xlink:href="#b" x="30.996" y="8.658999999999999"></use><use xlink:href="#15" y="0"></use><use xlink:href="#16" y="2.171"></use><use xlink:href="#17" y="4.342"></use><use xlink:href="#18" y="6.513"></use><use xlink:href="#14" y="8.684"></use></svg><svg x="5160"><use xlink:href="#a"></use><use xlink:href="#b" x="31.996" y="8.658999999999999"></use><use xlink:href="#15" y="0"></use><use xlink:href="#16" y="2.171"></use><use xlink:href="#17" y="4.342"></use><use xlink:href="#18" y="6.513"></use><text x="0" y="10.354" class="f">team@itsfoss</text><text x="12.024" y="10.354" class="g">:</text><text x="13.026" y="10.354" class="h">~</text><text x="14.027999999999999" y="10.354" class="g">$</text><text x="16.032" y="10.354" class="g">flatpak</text><text x="24.048" y="10.354" class="g">search</text><text x="31.061999999999998" y="10.354" class="g">s</text></svg><svg x="5280"><use xlink:href="#a"></use><use xlink:href="#b" x="32.996" y="8.658999999999999"></use><use xlink:href="#15" y="0"></use><use xlink:href="#16" y="2.171"></use><use xlink:href="#17" y="4.342"></use><use xlink:href="#18" y="6.513"></use><text x="0" y="10.354" class="f">team@itsfoss</text><text x="12.024" y="10.354" class="g">:</text><text x="13.026" y="10.354" class="h">~</text><text x="14.027999999999999" y="10.354" class="g">$</text><text x="16.032" y="10.354" class="g">flatpak</text><text x="24.048" y="10.354" class="g">search</text><text x="31.061999999999998" y="10.354" class="g">sp</text></svg><svg x="5400"><use xlink:href="#a"></use><use xlink:href="#b" x="33.996" y="8.658999999999999"></use><use xlink:href="#15" y="0"></use><use xlink:href="#16" y="2.171"></use><use xlink:href="#17" y="4.342"></use><use xlink:href="#18" y="6.513"></use><text x="0" y="10.354" class="f">team@itsfoss</text><text x="12.024" y="10.354" class="g">:</text><text x="13.026" y="10.354" class="h">~</text><text x="14.027999999999999" y="10.354" class="g">$</text><text x="16.032" y="10.354" class="g">flatpak</text><text x="24.048" y="10.354" class="g">search</text><text x="31.061999999999998" y="10.354" class="g">spo</text></svg><svg x="5520"><use xlink:href="#a"></use><use xlink:href="#b" x="34.996" y="8.658999999999999"></use><use xlink:href="#15" y="0"></use><use xlink:href="#16" y="2.171"></use><use xlink:href="#17" y="4.342"></use><use xlink:href="#18" y="6.513"></use><text x="0" y="10.354" class="f">team@itsfoss</text><text x="12.024" y="10.354" class="g">:</text><text x="13.026" y="10.354" class="h">~</text><text x="14.027999999999999" y="10.354" class="g">$</text><text x="16.032" y="10.354" class="g">flatpak</text><text x="24.048" y="10.354" class="g">search</text><text x="31.061999999999998" y="10.354" class="g">spot</text></svg><svg x="5640"><use xlink:href="#a"></use><use xlink:href="#b" x="35.996" y="8.658999999999999"></use><use xlink:href="#15" y="0"></use><use xlink:href="#16" y="2.171"></use><use xlink:href="#17" y="4.342"></use><use xlink:href="#18" y="6.513"></use><text x="0" y="10.354" class="f">team@itsfoss</text><text x="12.024" y="10.354" class="g">:</text><text x="13.026" y="10.354" class="h">~</text><text x="14.027999999999999" y="10.354" class="g">$</text><text x="16.032" y="10.354" class="g">flatpak</text><text x="24.048" y="10.354" class="g">search</text><text x="31.061999999999998" y="10.354" class="g">spoti</text></svg><svg x="5760"><use xlink:href="#a"></use><use xlink:href="#b" x="36.996" y="8.658999999999999"></use><use xlink:href="#15" y="0"></use><use xlink:href="#16" y="2.171"></use><use xlink:href="#17" y="4.342"></use><use xlink:href="#18" y="6.513"></use><text x="0" y="10.354" class="f">team@itsfoss</text><text x="12.024" y="10.354" class="g">:</text><text x="13.026" y="10.354" class="h">~</text><text x="14.027999999999999" y="10.354" class="g">$</text><text x="16.032" y="10.354" class="g">flatpak</text><text x="24.048" y="10.354" class="g">search</text><text x="31.061999999999998" y="10.354" class="g">spotif</text></svg><svg x="5880"><use xlink:href="#a"></use><use xlink:href="#b" x="37.996" y="8.658999999999999"></use><use xlink:href="#15" y="0"></use><use xlink:href="#16" y="2.171"></use><use xlink:href="#17" y="4.342"></use><use xlink:href="#18" y="6.513"></use><use xlink:href="#19" y="8.684"></use></svg><svg x="6000"><use xlink:href="#a"></use><use xlink:href="#b" x="-0.0040000000000000036" y="10.83"></use><use xlink:href="#15" y="0"></use><use xlink:href="#16" y="2.171"></use><use xlink:href="#17" y="4.342"></use><use xlink:href="#18" y="6.513"></use><use xlink:href="#19" y="8.684"></use></svg><svg x="6120"><use xlink:href="#a"></use><use xlink:href="#b" x="-0.0040000000000000036" y="15.171999999999999"></use><use xlink:href="#15" y="0"></use><use xlink:href="#16" y="2.171"></use><use xlink:href="#17" y="4.342"></use><use xlink:href="#18" y="6.513"></use><use xlink:href="#19" y="8.684"></use><use xlink:href="#20" y="10.855"></use><use xlink:href="#21" y="13.026"></use></svg><svg x="6240"><use xlink:href="#a"></use><use xlink:href="#b" x="15.996" y="15.171999999999999"></use><use xlink:href="#15" y="0"></use><use xlink:href="#16" y="2.171"></use><use xlink:href="#17" y="4.342"></use><use xlink:href="#18" y="6.513"></use><use xlink:href="#19" y="8.684"></use><use xlink:href="#20" y="10.855"></use><use xlink:href="#21" y="13.026"></use><use xlink:href="#1" y="15.197"></use></svg><svg x="6360"><use xlink:href="#a"></use><use xlink:href="#b" x="-0.0040000000000000036" y="19.514000000000003"></use><use xlink:href="#15" y="0"></use><use xlink:href="#16" y="2.171"></use><use xlink:href="#17" y="4.342"></use><use xlink:href="#18" y="6.513"></use><use xlink:href="#19" y="8.684"></use><use xlink:href="#20" y="10.855"></use><use xlink:href="#21" y="13.026"></use><use xlink:href="#1" y="15.197"></use><text x="0" y="19.037999999999997" class="g">exit</text></svg></svg></g></g></svg></svg>