<svg xmlns="http://www.w3.org/2000/svg" xmlns:xlink="http://www.w3.org/1999/xlink" width="1240" height="385.65"><rect width="1240" height="385.65" rx="5" ry="5" class="a"></rect><svg y="0%" x="0%"><circle cx="20" cy="20" r="6" class="b"></circle><circle cx="40" cy="20" r="6" class="c"></circle><circle cx="60" cy="20" r="6" class="d"></circle></svg><svg height="325.65" viewBox="0 0 120 32.565" width="1200" x="15" xmlns="http://www.w3.org/2000/svg" xmlns:xlink="http://www.w3.org/1999/xlink" y="50"><style>.a{fill:rgb(40,45,53)}.b{fill:#ff5f58}.c{fill:#ffbd2e}.d{fill:#18c132}.e{font-family:Monaco,Consolas,Menlo,'Bitstream Vera Sans Mono','Powerline Symbols',monospace}.f{fill:rgb(168,204,140);font-weight:bold;white-space:pre}.g{fill:rgb(185,192,203);white-space:pre}.h{fill:rgb(113,190,242);font-weight:bold;white-space:pre}.i{fill:rgb(185,192,203)}.j{fill:rgb(40,45,53);white-space:pre}.k{fill:rgb(185,192,203);font-weight:bold;white-space:pre}.l{fill:rgb(168,204,140);white-space:pre}.m{fill:transparent}.n{fill:rgb(111,118,131)}.p{animation-duration:16.621349s;animation-iteration-count:infinite;animation-name:o;animation-timing-function:steps(1,end)}@keyframes o{0%{transform:translateX(-0px)}0.1%{transform:translateX(-120px)}6.8%{transform:translateX(-240px)}7.2%{transform:translateX(-360px)}11.2%{transform:translateX(-480px)}11.2%{transform:translateX(-600px)}11.2%{transform:translateX(-720px)}39%{transform:translateX(-840px)}39.9%{transform:translateX(-960px)}40.5%{transform:translateX(-1080px)}42%{transform:translateX(-1200px)}42.8%{transform:translateX(-1320px)}43.6%{transform:translateX(-1440px)}44.5%{transform:translateX(-1560px)}45.9%{transform:translateX(-1680px)}47.4%{transform:translateX(-1800px)}48.9%{transform:translateX(-1920px)}49.5%{transform:translateX(-2040px)}51.8%{transform:translateX(-2160px)}58.5%{transform:translateX(-2280px)}61.2%{transform:translateX(-2400px)}61.2%{transform:translateX(-2520px)}66.1%{transform:translateX(-2640px)}68.4%{transform:translateX(-2760px)}74.5%{transform:translateX(-2880px)}74.5%{transform:translateX(-3000px)}74.5%{transform:translateX(-3120px)}74.6%{transform:translateX(-3240px)}75%{transform:translateX(-3360px)}75%{transform:translateX(-3480px)}76.7%{transform:translateX(-3600px)}76.8%{transform:translateX(-3720px)}76.8%{transform:translateX(-3840px)}77.5%{transform:translateX(-3960px)}77.5%{transform:translateX(-4080px)}77.5%{transform:translateX(-4200px)}77.5%{transform:translateX(-4320px)}77.5%{transform:translateX(-4440px)}77.5%{transform:translateX(-4560px)}77.6%{transform:translateX(-4680px)}77.6%{transform:translateX(-4800px)}78.4%{transform:translateX(-4920px)}78.5%{transform:translateX(-5040px)}78.5%{transform:translateX(-5160px)}80.2%{transform:translateX(-5280px)}80.3%{transform:translateX(-5400px)}80.3%{transform:translateX(-5520px)}82%{transform:translateX(-5640px)}82.1%{transform:translateX(-5760px)}82.1%{transform:translateX(-5880px)}83.9%{transform:translateX(-6000px)}83.9%{transform:translateX(-6120px)}83.9%{transform:translateX(-6240px)}83.9%{transform:translateX(-6360px)}86.9%{transform:translateX(-6480px)}87%{transform:translateX(-6600px)}87%{transform:translateX(-6720px)}88.4%{transform:translateX(-6840px)}88.4%{transform:translateX(-6960px)}88.4%{transform:translateX(-7080px)}88.4%{transform:translateX(-7200px)}88.8%{transform:translateX(-7320px)}88.9%{transform:translateX(-7440px)}88.9%{transform:translateX(-7560px)}89%{transform:translateX(-7680px)}100%{transform:translateX(-7800px)}}</style><g font-family="Monaco, Consolas, Menlo, &#x27;Bitstream Vera Sans Mono&#x27;, &#x27;Powerline Symbols&#x27;, monospace" font-size="1.67" class="e"><defs><symbol id="1"><text x="0" y="1.67" class="f">team@itsfoss</text><text x="12.024" y="1.67" class="g">:</text><text x="13.026" y="1.67" class="h">~/Downloads</text><text x="24.048" y="1.67" class="g">$</text></symbol><symbol id="2"><text x="0" y="1.67" class="f">team@itsfoss</text><text x="12.024" y="1.67" class="g">:</text><text x="13.026" y="1.67" class="h">~/Downloads</text><text x="24.048" y="1.67" class="g">$</text><text x="26.052" y="1.67" class="g">ls</text></symbol><symbol id="3"><text x="0" y="1.67" class="g">com.gitlab.newsflash.flatpakref</text></symbol><symbol id="4"><text x="0" y="1.67" class="f">team@itsfoss</text><text x="12.024" y="1.67" class="g">:</text><text x="13.026" y="1.67" class="h">~/Downloads</text><text x="24.048" y="1.67" class="g">$</text><text x="26.052" y="1.67" class="g">flatpak</text></symbol><symbol id="5"><text x="0" y="1.67" class="f">team@itsfoss</text><text x="12.024" y="1.67" class="g">:</text><text x="13.026" y="1.67" class="h">~/Downloads</text><text x="24.048" y="1.67" class="g">$</text><text x="26.052" y="1.67" class="g">flatpak</text><text x="34.068" y="1.67" class="g">install</text><rect height="2.171" width="31" x="42.083999999999996" y="0" class="i"></rect><text x="42.083999999999996" y="1.67" class="j">com.gitlab.newsflash.flatpakref</text></symbol><symbol id="6"><text x="0" y="1.67" class="f">team@itsfoss</text><text x="12.024" y="1.67" class="g">:</text><text x="13.026" y="1.67" class="h">~/Downloads</text><text x="24.048" y="1.67" class="g">$</text><text x="26.052" y="1.67" class="g">flatpak</text><text x="34.068" y="1.67" class="g">install</text><text x="42.083999999999996" y="1.67" class="g">com.gitlab.newsflash.flatpakref</text></symbol><symbol id="7"><text x="0" y="1.67" class="k">com.gitlab.newsflash</text><text x="21.041999999999998" y="1.67" class="g">permissions:</text></symbol><symbol id="8"><text x="4.008" y="1.67" class="g">ipc</text><text x="13.026" y="1.67" class="g">network</text><text x="34.068" y="1.67" class="g">fallback-x11</text><text x="52.104" y="1.67" class="g">pulseaudio</text><text x="68.136" y="1.67" class="g">wayland</text><text x="81.16199999999999" y="1.67" class="g">x11</text></symbol><symbol id="9"><text x="4.008" y="1.67" class="g">dri</text><text x="13.026" y="1.67" class="g">dbus</text><text x="18.035999999999998" y="1.67" class="g">access</text><text x="25.05" y="1.67" class="g">[1]</text></symbol><symbol id="10"><text x="4.008" y="1.67" class="g">[1]</text><text x="8.016" y="1.67" class="g">org.freedesktop.Notifications</text></symbol><symbol id="11"><text x="8.016" y="1.67" class="k">ID</text><text x="46.09199999999999" y="1.67" class="k">Branch</text><text x="63.12599999999999" y="1.67" class="k">Op</text><text x="75.14999999999999" y="1.67" class="k">Remote</text><text x="92.18399999999998" y="1.67" class="k">Download</text></symbol><symbol id="12"><text x="1.002" y="1.67" class="g">1.</text><text x="8.016" y="1.67" class="g">com.gitlab.newsflash.Locale</text><text x="46.09199999999999" y="1.67" class="g">stable</text><text x="63.12599999999999" y="1.67" class="g">i</text><text x="75.14999999999999" y="1.67" class="g">flathub</text><text x="92.18399999999998" y="1.67" class="g">&lt;</text><text x="94.18799999999999" y="1.67" class="g">152.9 kB</text><text x="103.20599999999999" y="1.67" class="g">(partial)</text></symbol><symbol id="13"><text x="1.002" y="1.67" class="g">2.</text><text x="8.016" y="1.67" class="g">com.gitlab.newsflash</text><text x="46.09199999999999" y="1.67" class="g">stable</text><text x="63.12599999999999" y="1.67" class="g">i</text><text x="75.14999999999999" y="1.67" class="g">flathub</text><text x="93.18599999999999" y="1.67" class="g">&lt;</text><text x="95.19" y="1.67" class="g">11.0 MB</text></symbol><symbol id="14"><text x="0" y="1.67" class="g">Proceed</text><text x="8.016" y="1.67" class="g">with</text><text x="13.026" y="1.67" class="g">these</text><text x="19.037999999999997" y="1.67" class="g">changes</text><text x="27.054" y="1.67" class="g">to</text><text x="30.059999999999995" y="1.67" class="g">the</text><text x="34.068" y="1.67" class="g">system</text><text x="41.082" y="1.67" class="g">installation?</text><text x="55.10999999999999" y="1.67" class="g">[Y/n]:</text></symbol><symbol id="15"><text x="1.002" y="1.67" class="g">2.</text><text x="4.008" y="1.67" class="g">[</text><text x="6.012" y="1.67" class="g">]</text><text x="8.016" y="1.67" class="g">com.gitlab.newsflash</text><text x="46.09199999999999" y="1.67" class="g">stable</text><text x="63.12599999999999" y="1.67" class="g">i</text><text x="75.14999999999999" y="1.67" class="g">flathub</text><text x="93.18599999999999" y="1.67" class="g">&lt;</text><text x="95.19" y="1.67" class="g">11.0 MB</text></symbol><symbol id="16"><text x="1.002" y="1.67" class="g">1.</text><text x="4.008" y="1.67" class="g">[|]</text><text x="8.016" y="1.67" class="g">com.gitlab.newsflash.Locale</text><text x="46.09199999999999" y="1.67" class="g">stable</text><text x="63.12599999999999" y="1.67" class="g">i</text><text x="75.14999999999999" y="1.67" class="g">flathub</text><text x="92.18399999999998" y="1.67" class="g">&lt;</text><text x="94.18799999999999" y="1.67" class="g">152.9 kB</text><text x="103.20599999999999" y="1.67" class="g">(partial)</text></symbol><symbol id="17"><text x="0" y="1.67" class="g">Installing</text><text x="11.021999999999998" y="1.67" class="g">1/2…</text></symbol><symbol id="18"><text x="1.002" y="1.67" class="g">1.</text><text x="4.008" y="1.67" class="g">[/]</text><text x="8.016" y="1.67" class="g">com.gitlab.newsflash.Locale</text><text x="46.09199999999999" y="1.67" class="g">stable</text><text x="63.12599999999999" y="1.67" class="g">i</text><text x="75.14999999999999" y="1.67" class="g">flathub</text><text x="95.19" y="1.67" class="g">1.0 kB</text><text x="102.204" y="1.67" class="g">/</text><text x="104.208" y="1.67" class="g">152.9 kB</text></symbol><symbol id="19"><text x="1.002" y="1.67" class="g">2.</text><text x="4.008" y="1.67" class="g">[</text><text x="6.012" y="1.67" class="g">]</text><text x="8.016" y="1.67" class="g">com.gitlab.newsflash</text><text x="46.09199999999999" y="1.67" class="g">stable</text><text x="63.12599999999999" y="1.67" class="g">i</text><text x="75.14999999999999" y="1.67" class="g">flathub</text><text x="92.18399999999998" y="1.67" class="g">&lt;</text><text x="94.18799999999999" y="1.67" class="g">11.0 MB</text></symbol><symbol id="20"><text x="0" y="1.67" class="g">Installing</text><text x="11.021999999999998" y="1.67" class="g">1/2…</text><text x="39.077999999999996" y="1.67" class="g">0%</text><text x="43.086" y="1.67" class="g">0</text><text x="45.089999999999996" y="1.67" class="g">bytes/s</text></symbol><symbol id="21"><text x="1.002" y="1.67" class="g">1.</text><text x="4.008" y="1.67" class="g">[—]</text><text x="8.016" y="1.67" class="g">com.gitlab.newsflash.Locale</text><text x="46.09199999999999" y="1.67" class="g">stable</text><text x="63.12599999999999" y="1.67" class="g">i</text><text x="75.14999999999999" y="1.67" class="g">flathub</text><text x="95.19" y="1.67" class="g">3.3 kB</text><text x="102.204" y="1.67" class="g">/</text><text x="104.208" y="1.67" class="g">152.9 kB</text></symbol><symbol id="22"><text x="0" y="1.67" class="g">Installing</text><text x="11.021999999999998" y="1.67" class="g">1/2…</text><text x="16.032" y="1.67" class="g">████████████████████</text><text x="37.074" y="1.67" class="g">100%</text></symbol><symbol id="23"><text x="1.002" y="1.67" class="g">1.</text><text x="4.008" y="1.67" class="g">[</text><text x="5.01" y="1.67" class="l">✓</text><text x="6.012" y="1.67" class="g">]</text><text x="8.016" y="1.67" class="g">com.gitlab.newsflash.Locale</text><text x="46.09199999999999" y="1.67" class="g">stable</text><text x="63.12599999999999" y="1.67" class="g">i</text><text x="75.14999999999999" y="1.67" class="g">flathub</text><text x="95.19" y="1.67" class="g">3.3 kB</text><text x="102.204" y="1.67" class="g">/</text><text x="104.208" y="1.67" class="g">152.9 kB</text></symbol><symbol id="24"><text x="1.002" y="1.67" class="g">2.</text><text x="4.008" y="1.67" class="g">[|]</text><text x="8.016" y="1.67" class="g">com.gitlab.newsflash</text><text x="46.09199999999999" y="1.67" class="g">stable</text><text x="63.12599999999999" y="1.67" class="g">i</text><text x="75.14999999999999" y="1.67" class="g">flathub</text><text x="92.18399999999998" y="1.67" class="g">&lt;</text><text x="94.18799999999999" y="1.67" class="g">11.0 MB</text></symbol><symbol id="25"><text x="0" y="1.67" class="g">Installing</text><text x="11.021999999999998" y="1.67" class="g">2/2…</text></symbol><symbol id="26"><text x="1.002" y="1.67" class="g">1.</text><text x="4.008" y="1.67" class="g">[</text><text x="5.01" y="1.67" class="l">✓</text><text x="6.012" y="1.67" class="g">]</text><text x="8.016" y="1.67" class="g">com.gitlab.newsflash.Locale</text><text x="46.09199999999999" y="1.67" class="g">stable</text><text x="63.12599999999999" y="1.67" class="g">i</text><text x="75.14999999999999" y="1.67" class="g">flathub</text><text x="92.18399999999998" y="1.67" class="g">3.3 kB</text><text x="99.198" y="1.67" class="g">/</text><text x="101.20199999999998" y="1.67" class="g">152.9 kB</text></symbol><symbol id="27"><text x="1.002" y="1.67" class="g">2.</text><text x="4.008" y="1.67" class="g">[/]</text><text x="8.016" y="1.67" class="g">com.gitlab.newsflash</text><text x="46.09199999999999" y="1.67" class="g">stable</text><text x="63.12599999999999" y="1.67" class="g">i</text><text x="75.14999999999999" y="1.67" class="g">flathub</text><text x="92.18399999999998" y="1.67" class="g">1.0 kB</text><text x="99.198" y="1.67" class="g">/</text><text x="101.20199999999998" y="1.67" class="g">11.0 MB</text></symbol><symbol id="28"><text x="0" y="1.67" class="g">Installing</text><text x="11.021999999999998" y="1.67" class="g">2/2…</text><text x="39.077999999999996" y="1.67" class="g">0%</text><text x="43.086" y="1.67" class="g">0</text><text x="45.089999999999996" y="1.67" class="g">bytes/s</text></symbol><symbol id="29"><text x="1.002" y="1.67" class="g">2.</text><text x="4.008" y="1.67" class="g">[—]</text><text x="8.016" y="1.67" class="g">com.gitlab.newsflash</text><text x="46.09199999999999" y="1.67" class="g">stable</text><text x="63.12599999999999" y="1.67" class="g">i</text><text x="75.14999999999999" y="1.67" class="g">flathub</text><text x="92.18399999999998" y="1.67" class="g">3.6 MB</text><text x="99.198" y="1.67" class="g">/</text><text x="101.20199999999998" y="1.67" class="g">11.0 MB</text></symbol><symbol id="30"><text x="0" y="1.67" class="g">Installing</text><text x="11.021999999999998" y="1.67" class="g">2/2…</text><text x="16.032" y="1.67" class="g">███▊</text><text x="38.07599999999999" y="1.67" class="g">19%</text></symbol><symbol id="31"><text x="1.002" y="1.67" class="g">1.</text><text x="4.008" y="1.67" class="g">[</text><text x="5.01" y="1.67" class="l">✓</text><text x="6.012" y="1.67" class="g">]</text><text x="8.016" y="1.67" class="g">com.gitlab.newsflash.Locale</text><text x="46.09199999999999" y="1.67" class="g">stable</text><text x="63.12599999999999" y="1.67" class="g">i</text><text x="75.14999999999999" y="1.67" class="g">flathub</text><text x="93.18599999999999" y="1.67" class="g">3.3 kB</text><text x="100.2" y="1.67" class="g">/</text><text x="102.204" y="1.67" class="g">152.9 kB</text></symbol><symbol id="32"><text x="1.002" y="1.67" class="g">2.</text><text x="4.008" y="1.67" class="g">[\]</text><text x="8.016" y="1.67" class="g">com.gitlab.newsflash</text><text x="46.09199999999999" y="1.67" class="g">stable</text><text x="63.12599999999999" y="1.67" class="g">i</text><text x="75.14999999999999" y="1.67" class="g">flathub</text><text x="92.18399999999998" y="1.67" class="g">10.9 MB</text><text x="100.2" y="1.67" class="g">/</text><text x="102.204" y="1.67" class="g">11.0 MB</text></symbol><symbol id="33"><text x="0" y="1.67" class="g">Installing</text><text x="11.021999999999998" y="1.67" class="g">2/2…</text><text x="16.032" y="1.67" class="g">████████▍</text><text x="38.07599999999999" y="1.67" class="g">42%</text></symbol><symbol id="34"><text x="1.002" y="1.67" class="g">2.</text><text x="4.008" y="1.67" class="g">[|]</text><text x="8.016" y="1.67" class="g">com.gitlab.newsflash</text><text x="46.09199999999999" y="1.67" class="g">stable</text><text x="63.12599999999999" y="1.67" class="g">i</text><text x="75.14999999999999" y="1.67" class="g">flathub</text><text x="92.18399999999998" y="1.67" class="g">10.9 MB</text><text x="100.2" y="1.67" class="g">/</text><text x="102.204" y="1.67" class="g">11.0 MB</text></symbol><symbol id="35"><text x="0" y="1.67" class="g">Installing</text><text x="11.021999999999998" y="1.67" class="g">2/2…</text><text x="16.032" y="1.67" class="g">████████▍</text><text x="38.07599999999999" y="1.67" class="g">42%</text><text x="43.086" y="1.67" class="g">10.9 MB/s</text></symbol><symbol id="36"><text x="1.002" y="1.67" class="g">2.</text><text x="4.008" y="1.67" class="g">[/]</text><text x="8.016" y="1.67" class="g">com.gitlab.newsflash</text><text x="46.09199999999999" y="1.67" class="g">stable</text><text x="63.12599999999999" y="1.67" class="g">i</text><text x="75.14999999999999" y="1.67" class="g">flathub</text><text x="92.18399999999998" y="1.67" class="g">11.0 MB</text><text x="100.2" y="1.67" class="g">/</text><text x="102.204" y="1.67" class="g">11.0 MB</text></symbol><symbol id="37"><text x="0" y="1.67" class="g">Installing</text><text x="11.021999999999998" y="1.67" class="g">2/2…</text><text x="16.032" y="1.67" class="g">████████████████████</text><text x="37.074" y="1.67" class="g">100%</text><text x="43.086" y="1.67" class="g">11.0 MB/s</text></symbol><symbol id="38"><text x="1.002" y="1.67" class="g">2.</text><text x="4.008" y="1.67" class="g">[</text><text x="5.01" y="1.67" class="l">✓</text><text x="6.012" y="1.67" class="g">]</text><text x="8.016" y="1.67" class="g">com.gitlab.newsflash</text><text x="46.09199999999999" y="1.67" class="g">stable</text><text x="63.12599999999999" y="1.67" class="g">i</text><text x="75.14999999999999" y="1.67" class="g">flathub</text><text x="92.18399999999998" y="1.67" class="g">11.0 MB</text><text x="100.2" y="1.67" class="g">/</text><text x="102.204" y="1.67" class="g">11.0 MB</text></symbol><symbol id="39"><text x="0" y="1.67" class="g">Installation</text><text x="13.026" y="1.67" class="g">complete.</text></symbol><symbol id="a"><rect height="16" width="120" x="0" y="0" class="m"></rect></symbol><symbol id="b"><rect height="2.171" width="1.1022" class="n"></rect></symbol></defs><rect height="32.565" width="120" class="a"></rect><g class="p"><svg x="0" y="0" width="7920"><svg x="0"><use xlink:href="#a"></use><use xlink:href="#b" x="-0.0040000000000000036" y="0"></use></svg><svg x="120"><use xlink:href="#a"></use><use xlink:href="#b" x="25.996" y="0"></use><use xlink:href="#1" y="0"></use></svg><svg x="240"><use xlink:href="#a"></use><use xlink:href="#b" x="26.996" y="0"></use><text x="0" y="1.67" class="f">team@itsfoss</text><text x="12.024" y="1.67" class="g">:</text><text x="13.026" y="1.67" class="h">~/Downloads</text><text x="24.048" y="1.67" class="g">$</text><text x="26.052" y="1.67" class="g">l</text></svg><svg x="360"><use xlink:href="#a"></use><use xlink:href="#b" x="27.996" y="0"></use><use xlink:href="#2" y="0"></use></svg><svg x="480"><use xlink:href="#a"></use><use xlink:href="#b" x="-0.0040000000000000036" y="2.146"></use><use xlink:href="#2" y="0"></use></svg><svg x="600"><use xlink:href="#a"></use><use xlink:href="#b" x="-0.0040000000000000036" y="4.317"></use><use xlink:href="#2" y="0"></use><use xlink:href="#3" y="2.171"></use></svg><svg x="720"><use xlink:href="#a"></use><use xlink:href="#b" x="25.996" y="4.317"></use><use xlink:href="#2" y="0"></use><use xlink:href="#3" y="2.171"></use><use xlink:href="#1" y="4.342"></use></svg><svg x="840"><use xlink:href="#a"></use><use xlink:href="#b" x="26.996" y="4.317"></use><use xlink:href="#2" y="0"></use><use xlink:href="#3" y="2.171"></use><text x="0" y="6.012" class="f">team@itsfoss</text><text x="12.024" y="6.012" class="g">:</text><text x="13.026" y="6.012" class="h">~/Downloads</text><text x="24.048" y="6.012" class="g">$</text><text x="26.052" y="6.012" class="g">f</text></svg><svg x="960"><use xlink:href="#a"></use><use xlink:href="#b" x="27.996" y="4.317"></use><use xlink:href="#2" y="0"></use><use xlink:href="#3" y="2.171"></use><text x="0" y="6.012" class="f">team@itsfoss</text><text x="12.024" y="6.012" class="g">:</text><text x="13.026" y="6.012" class="h">~/Downloads</text><text x="24.048" y="6.012" class="g">$</text><text x="26.052" y="6.012" class="g">fl</text></svg><svg x="1080"><use xlink:href="#a"></use><use xlink:href="#b" x="28.996" y="4.317"></use><use xlink:href="#2" y="0"></use><use xlink:href="#3" y="2.171"></use><text x="0" y="6.012" class="f">team@itsfoss</text><text x="12.024" y="6.012" class="g">:</text><text x="13.026" y="6.012" class="h">~/Downloads</text><text x="24.048" y="6.012" class="g">$</text><text x="26.052" y="6.012" class="g">fla</text></svg><svg x="1200"><use xlink:href="#a"></use><use xlink:href="#b" x="29.996" y="4.317"></use><use xlink:href="#2" y="0"></use><use xlink:href="#3" y="2.171"></use><text x="0" y="6.012" class="f">team@itsfoss</text><text x="12.024" y="6.012" class="g">:</text><text x="13.026" y="6.012" class="h">~/Downloads</text><text x="24.048" y="6.012" class="g">$</text><text x="26.052" y="6.012" class="g">flat</text></svg><svg x="1320"><use xlink:href="#a"></use><use xlink:href="#b" x="30.996" y="4.317"></use><use xlink:href="#2" y="0"></use><use xlink:href="#3" y="2.171"></use><text x="0" y="6.012" class="f">team@itsfoss</text><text x="12.024" y="6.012" class="g">:</text><text x="13.026" y="6.012" class="h">~/Downloads</text><text x="24.048" y="6.012" class="g">$</text><text x="26.052" y="6.012" class="g">flatp</text></svg><svg x="1440"><use xlink:href="#a"></use><use xlink:href="#b" x="31.996" y="4.317"></use><use xlink:href="#2" y="0"></use><use xlink:href="#3" y="2.171"></use><text x="0" y="6.012" class="f">team@itsfoss</text><text x="12.024" y="6.012" class="g">:</text><text x="13.026" y="6.012" class="h">~/Downloads</text><text x="24.048" y="6.012" class="g">$</text><text x="26.052" y="6.012" class="g">flatpa</text></svg><svg x="1560"><use xlink:href="#a"></use><use xlink:href="#b" x="32.996" y="4.317"></use><use xlink:href="#2" y="0"></use><use xlink:href="#3" y="2.171"></use><use xlink:href="#4" y="4.342"></use></svg><svg x="1680"><use xlink:href="#a"></use><use xlink:href="#b" x="33.996" y="4.317"></use><use xlink:href="#2" y="0"></use><use xlink:href="#3" y="2.171"></use><use xlink:href="#4" y="4.342"></use></svg><svg x="1800"><use xlink:href="#a"></use><use xlink:href="#b" x="34.996" y="4.317"></use><use xlink:href="#2" y="0"></use><use xlink:href="#3" y="2.171"></use><text x="0" y="6.012" class="f">team@itsfoss</text><text x="12.024" y="6.012" class="g">:</text><text x="13.026" y="6.012" class="h">~/Downloads</text><text x="24.048" y="6.012" class="g">$</text><text x="26.052" y="6.012" class="g">flatpak</text><text x="34.068" y="6.012" class="g">i</text></svg><svg x="1920"><use xlink:href="#a"></use><use xlink:href="#b" x="35.996" y="4.317"></use><use xlink:href="#2" y="0"></use><use xlink:href="#3" y="2.171"></use><text x="0" y="6.012" class="f">team@itsfoss</text><text x="12.024" y="6.012" class="g">:</text><text x="13.026" y="6.012" class="h">~/Downloads</text><text x="24.048" y="6.012" class="g">$</text><text x="26.052" y="6.012" class="g">flatpak</text><text x="34.068" y="6.012" class="g">in</text></svg><svg x="2040"><use xlink:href="#a"></use><use xlink:href="#b" x="36.996" y="4.317"></use><use xlink:href="#2" y="0"></use><use xlink:href="#3" y="2.171"></use><text x="0" y="6.012" class="f">team@itsfoss</text><text x="12.024" y="6.012" class="g">:</text><text x="13.026" y="6.012" class="h">~/Downloads</text><text x="24.048" y="6.012" class="g">$</text><text x="26.052" y="6.012" class="g">flatpak</text><text x="34.068" y="6.012" class="g">ins</text></svg><svg x="2160"><use xlink:href="#a"></use><use xlink:href="#b" x="41.996" y="4.317"></use><use xlink:href="#2" y="0"></use><use xlink:href="#3" y="2.171"></use><text x="0" y="6.012" class="f">team@itsfoss</text><text x="12.024" y="6.012" class="g">:</text><text x="13.026" y="6.012" class="h">~/Downloads</text><text x="24.048" y="6.012" class="g">$</text><text x="26.052" y="6.012" class="g">flatpak</text><text x="34.068" y="6.012" class="g">install</text></svg><svg x="2280"><use xlink:href="#a"></use><use xlink:href="#b" x="72.996" y="4.317"></use><use xlink:href="#2" y="0"></use><use xlink:href="#3" y="2.171"></use><use xlink:href="#5" y="4.342"></use></svg><svg x="2400"><use xlink:href="#a"></use><use xlink:href="#b" x="72.996" y="4.317"></use><use xlink:href="#2" y="0"></use><use xlink:href="#3" y="2.171"></use><use xlink:href="#5" y="4.342"></use></svg><svg x="2520"><use xlink:href="#a"></use><use xlink:href="#b" x="72.996" y="4.317"></use><use xlink:href="#2" y="0"></use><use xlink:href="#3" y="2.171"></use><use xlink:href="#6" y="4.342"></use></svg><svg x="2640"><use xlink:href="#a"></use><use xlink:href="#b" x="-0.0040000000000000036" y="6.4879999999999995"></use><use xlink:href="#2" y="0"></use><use xlink:href="#3" y="2.171"></use><use xlink:href="#6" y="4.342"></use></svg><svg x="2760"><use xlink:href="#a"></use><use xlink:href="#b" x="61.996" y="32.54"></use><use xlink:href="#2" y="0"></use><use xlink:href="#3" y="2.171"></use><use xlink:href="#6" y="4.342"></use><use xlink:href="#7" y="8.684"></use><use xlink:href="#8" y="10.855"></use><use xlink:href="#9" y="13.026"></use><use xlink:href="#10" y="17.368"></use><use xlink:href="#11" y="23.880999999999997"></use><use xlink:href="#12" y="26.052"></use><use xlink:href="#13" y="28.223000000000003"></use><use xlink:href="#14" y="32.565"></use></svg><svg x="2880"><use xlink:href="#a"></use><use xlink:href="#b" x="-0.0040000000000000036" y="32.54"></use><use xlink:href="#3" y="0"></use><use xlink:href="#6" y="2.171"></use><use xlink:href="#7" y="6.513"></use><use xlink:href="#8" y="8.684"></use><use xlink:href="#9" y="10.855"></use><use xlink:href="#10" y="15.197"></use><use xlink:href="#11" y="21.71"></use><use xlink:href="#12" y="23.880999999999997"></use><use xlink:href="#13" y="26.052"></use><use xlink:href="#14" y="30.394"></use></svg><svg x="3000"><use xlink:href="#a"></use><use xlink:href="#3" y="0"></use><use xlink:href="#6" y="2.171"></use><use xlink:href="#7" y="6.513"></use><use xlink:href="#8" y="8.684"></use><use xlink:href="#9" y="10.855"></use><use xlink:href="#10" y="15.197"></use><use xlink:href="#11" y="21.71"></use><use xlink:href="#12" y="23.880999999999997"></use><use xlink:href="#13" y="26.052"></use><use xlink:href="#14" y="30.394"></use></svg><svg x="3120"><use xlink:href="#a"></use><use xlink:href="#3" y="0"></use><use xlink:href="#6" y="2.171"></use><use xlink:href="#7" y="6.513"></use><use xlink:href="#8" y="8.684"></use><use xlink:href="#9" y="10.855"></use><use xlink:href="#10" y="15.197"></use><use xlink:href="#11" y="19.539"></use><text x="1.002" y="23.380000000000003" class="g">1.</text><text x="4.008" y="23.380000000000003" class="g">[</text><text x="6.012" y="23.380000000000003" class="g">]</text><text x="8.016" y="23.380000000000003" class="g">com.gitlab.newsflash.Locale</text><text x="46.09199999999999" y="23.380000000000003" class="g">stable</text><text x="63.12599999999999" y="23.380000000000003" class="g">i</text><text x="75.14999999999999" y="23.380000000000003" class="g">flathub</text><text x="92.18399999999998" y="23.380000000000003" class="g">&lt;</text><text x="94.18799999999999" y="23.380000000000003" class="g">152.9 kB</text><text x="103.20599999999999" y="23.380000000000003" class="g">(partial)</text><use xlink:href="#15" y="23.880999999999997"></use></svg><svg x="3240"><use xlink:href="#a"></use><use xlink:href="#3" y="0"></use><use xlink:href="#6" y="2.171"></use><use xlink:href="#7" y="6.513"></use><use xlink:href="#8" y="8.684"></use><use xlink:href="#9" y="10.855"></use><use xlink:href="#10" y="15.197"></use><use xlink:href="#11" y="19.539"></use><use xlink:href="#16" y="21.71"></use><use xlink:href="#15" y="23.880999999999997"></use><use xlink:href="#17" y="28.223000000000003"></use></svg><svg x="3360"><use xlink:href="#a"></use><use xlink:href="#3" y="0"></use><use xlink:href="#6" y="2.171"></use><use xlink:href="#7" y="6.513"></use><use xlink:href="#8" y="8.684"></use><use xlink:href="#9" y="10.855"></use><use xlink:href="#10" y="15.197"></use><use xlink:href="#11" y="19.539"></use><use xlink:href="#16" y="21.71"></use><use xlink:href="#15" y="23.880999999999997"></use><use xlink:href="#17" y="28.223000000000003"></use></svg><svg x="3480"><use xlink:href="#a"></use><use xlink:href="#3" y="0"></use><use xlink:href="#6" y="2.171"></use><use xlink:href="#7" y="6.513"></use><use xlink:href="#8" y="8.684"></use><use xlink:href="#9" y="10.855"></use><use xlink:href="#10" y="15.197"></use><use xlink:href="#11" y="19.539"></use><use xlink:href="#18" y="21.71"></use><use xlink:href="#19" y="23.880999999999997"></use><use xlink:href="#20" y="28.223000000000003"></use></svg><svg x="3600"><use xlink:href="#a"></use><use xlink:href="#3" y="0"></use><use xlink:href="#6" y="2.171"></use><use xlink:href="#7" y="6.513"></use><use xlink:href="#8" y="8.684"></use><use xlink:href="#9" y="10.855"></use><use xlink:href="#10" y="15.197"></use><use xlink:href="#11" y="19.539"></use><use xlink:href="#18" y="21.71"></use><use xlink:href="#19" y="23.880999999999997"></use><use xlink:href="#20" y="28.223000000000003"></use></svg><svg x="3720"><use xlink:href="#a"></use><use xlink:href="#3" y="0"></use><use xlink:href="#6" y="2.171"></use><use xlink:href="#7" y="6.513"></use><use xlink:href="#8" y="8.684"></use><use xlink:href="#9" y="10.855"></use><use xlink:href="#10" y="15.197"></use></svg><svg x="3840"><use xlink:href="#a"></use><use xlink:href="#3" y="0"></use><use xlink:href="#6" y="2.171"></use><use xlink:href="#7" y="6.513"></use><use xlink:href="#8" y="8.684"></use><use xlink:href="#9" y="10.855"></use><use xlink:href="#10" y="15.197"></use><use xlink:href="#11" y="19.539"></use><use xlink:href="#21" y="21.71"></use><use xlink:href="#19" y="23.880999999999997"></use><use xlink:href="#22" y="28.223000000000003"></use></svg><svg x="3960"><use xlink:href="#a"></use><use xlink:href="#3" y="0"></use><use xlink:href="#6" y="2.171"></use><use xlink:href="#7" y="6.513"></use><use xlink:href="#8" y="8.684"></use><use xlink:href="#9" y="10.855"></use><use xlink:href="#10" y="15.197"></use><use xlink:href="#11" y="19.539"></use><use xlink:href="#21" y="21.71"></use><use xlink:href="#19" y="23.880999999999997"></use><use xlink:href="#22" y="28.223000000000003"></use></svg><svg x="4080"><use xlink:href="#a"></use><use xlink:href="#3" y="0"></use><use xlink:href="#6" y="2.171"></use><use xlink:href="#7" y="6.513"></use><use xlink:href="#8" y="8.684"></use><use xlink:href="#9" y="10.855"></use><use xlink:href="#10" y="15.197"></use></svg><svg x="4200"><use xlink:href="#a"></use><use xlink:href="#3" y="0"></use><use xlink:href="#6" y="2.171"></use><use xlink:href="#7" y="6.513"></use><use xlink:href="#8" y="8.684"></use><use xlink:href="#9" y="10.855"></use><use xlink:href="#10" y="15.197"></use><use xlink:href="#11" y="19.539"></use><use xlink:href="#23" y="21.71"></use></svg><svg x="4320"><use xlink:href="#a"></use><use xlink:href="#3" y="0"></use><use xlink:href="#6" y="2.171"></use><use xlink:href="#7" y="6.513"></use><use xlink:href="#8" y="8.684"></use><use xlink:href="#9" y="10.855"></use><use xlink:href="#10" y="15.197"></use><use xlink:href="#11" y="19.539"></use><use xlink:href="#23" y="21.71"></use><use xlink:href="#19" y="23.880999999999997"></use></svg><svg x="4440"><use xlink:href="#a"></use><use xlink:href="#3" y="0"></use><use xlink:href="#6" y="2.171"></use><use xlink:href="#7" y="6.513"></use><use xlink:href="#8" y="8.684"></use><use xlink:href="#9" y="10.855"></use><use xlink:href="#10" y="15.197"></use><use xlink:href="#11" y="19.539"></use><use xlink:href="#23" y="21.71"></use><use xlink:href="#19" y="23.880999999999997"></use><use xlink:href="#22" y="28.223000000000003"></use></svg><svg x="4560"><use xlink:href="#a"></use><use xlink:href="#3" y="0"></use><use xlink:href="#6" y="2.171"></use><use xlink:href="#7" y="6.513"></use><use xlink:href="#8" y="8.684"></use><use xlink:href="#9" y="10.855"></use><use xlink:href="#10" y="15.197"></use><use xlink:href="#11" y="19.539"></use><use xlink:href="#23" y="21.71"></use><use xlink:href="#19" y="23.880999999999997"></use><use xlink:href="#22" y="28.223000000000003"></use></svg><svg x="4680"><use xlink:href="#a"></use><use xlink:href="#3" y="0"></use><use xlink:href="#6" y="2.171"></use><use xlink:href="#7" y="6.513"></use><use xlink:href="#8" y="8.684"></use><use xlink:href="#9" y="10.855"></use><use xlink:href="#10" y="15.197"></use></svg><svg x="4800"><use xlink:href="#a"></use><use xlink:href="#3" y="0"></use><use xlink:href="#6" y="2.171"></use><use xlink:href="#7" y="6.513"></use><use xlink:href="#8" y="8.684"></use><use xlink:href="#9" y="10.855"></use><use xlink:href="#10" y="15.197"></use><use xlink:href="#11" y="19.539"></use><use xlink:href="#23" y="21.71"></use><use xlink:href="#24" y="23.880999999999997"></use><use xlink:href="#25" y="28.223000000000003"></use></svg><svg x="4920"><use xlink:href="#a"></use><use xlink:href="#3" y="0"></use><use xlink:href="#6" y="2.171"></use><use xlink:href="#7" y="6.513"></use><use xlink:href="#8" y="8.684"></use><use xlink:href="#9" y="10.855"></use><use xlink:href="#10" y="15.197"></use><use xlink:href="#11" y="19.539"></use><use xlink:href="#23" y="21.71"></use><use xlink:href="#24" y="23.880999999999997"></use><use xlink:href="#25" y="28.223000000000003"></use></svg><svg x="5040"><use xlink:href="#a"></use><use xlink:href="#3" y="0"></use><use xlink:href="#6" y="2.171"></use><use xlink:href="#7" y="6.513"></use><use xlink:href="#8" y="8.684"></use><use xlink:href="#9" y="10.855"></use><use xlink:href="#10" y="15.197"></use><use xlink:href="#11" y="19.539"></use><use xlink:href="#26" y="21.71"></use></svg><svg x="5160"><use xlink:href="#a"></use><use xlink:href="#3" y="0"></use><use xlink:href="#6" y="2.171"></use><use xlink:href="#7" y="6.513"></use><use xlink:href="#8" y="8.684"></use><use xlink:href="#9" y="10.855"></use><use xlink:href="#10" y="15.197"></use><use xlink:href="#11" y="19.539"></use><use xlink:href="#26" y="21.71"></use><use xlink:href="#27" y="23.880999999999997"></use><use xlink:href="#28" y="28.223000000000003"></use></svg><svg x="5280"><use xlink:href="#a"></use><use xlink:href="#3" y="0"></use><use xlink:href="#6" y="2.171"></use><use xlink:href="#7" y="6.513"></use><use xlink:href="#8" y="8.684"></use><use xlink:href="#9" y="10.855"></use><use xlink:href="#10" y="15.197"></use><use xlink:href="#11" y="19.539"></use><use xlink:href="#26" y="21.71"></use><use xlink:href="#27" y="23.880999999999997"></use><use xlink:href="#28" y="28.223000000000003"></use></svg><svg x="5400"><use xlink:href="#a"></use><use xlink:href="#3" y="0"></use><use xlink:href="#6" y="2.171"></use><use xlink:href="#7" y="6.513"></use><use xlink:href="#8" y="8.684"></use><use xlink:href="#9" y="10.855"></use><use xlink:href="#10" y="15.197"></use></svg><svg x="5520"><use xlink:href="#a"></use><use xlink:href="#3" y="0"></use><use xlink:href="#6" y="2.171"></use><use xlink:href="#7" y="6.513"></use><use xlink:href="#8" y="8.684"></use><use xlink:href="#9" y="10.855"></use><use xlink:href="#10" y="15.197"></use><use xlink:href="#11" y="19.539"></use><use xlink:href="#26" y="21.71"></use><use xlink:href="#29" y="23.880999999999997"></use><use xlink:href="#30" y="28.223000000000003"></use></svg><svg x="5640"><use xlink:href="#a"></use><use xlink:href="#3" y="0"></use><use xlink:href="#6" y="2.171"></use><use xlink:href="#7" y="6.513"></use><use xlink:href="#8" y="8.684"></use><use xlink:href="#9" y="10.855"></use><use xlink:href="#10" y="15.197"></use><use xlink:href="#11" y="19.539"></use><use xlink:href="#26" y="21.71"></use><use xlink:href="#29" y="23.880999999999997"></use><use xlink:href="#30" y="28.223000000000003"></use></svg><svg x="5760"><use xlink:href="#a"></use><use xlink:href="#3" y="0"></use><use xlink:href="#6" y="2.171"></use><use xlink:href="#7" y="6.513"></use><use xlink:href="#8" y="8.684"></use><use xlink:href="#9" y="10.855"></use><use xlink:href="#10" y="15.197"></use></svg><svg x="5880"><use xlink:href="#a"></use><use xlink:href="#3" y="0"></use><use xlink:href="#6" y="2.171"></use><use xlink:href="#7" y="6.513"></use><use xlink:href="#8" y="8.684"></use><use xlink:href="#9" y="10.855"></use><use xlink:href="#10" y="15.197"></use><use xlink:href="#11" y="19.539"></use><use xlink:href="#31" y="21.71"></use><use xlink:href="#32" y="23.880999999999997"></use><use xlink:href="#33" y="28.223000000000003"></use></svg><svg x="6000"><use xlink:href="#a"></use><use xlink:href="#3" y="0"></use><use xlink:href="#6" y="2.171"></use><use xlink:href="#7" y="6.513"></use><use xlink:href="#8" y="8.684"></use><use xlink:href="#9" y="10.855"></use><use xlink:href="#10" y="15.197"></use><use xlink:href="#11" y="19.539"></use><use xlink:href="#31" y="21.71"></use><use xlink:href="#32" y="23.880999999999997"></use><use xlink:href="#33" y="28.223000000000003"></use></svg><svg x="6120"><use xlink:href="#a"></use><use xlink:href="#3" y="0"></use><use xlink:href="#6" y="2.171"></use><use xlink:href="#7" y="6.513"></use><use xlink:href="#8" y="8.684"></use><use xlink:href="#9" y="10.855"></use><use xlink:href="#10" y="15.197"></use></svg><svg x="6240"><use xlink:href="#a"></use><use xlink:href="#3" y="0"></use><use xlink:href="#6" y="2.171"></use><use xlink:href="#7" y="6.513"></use><use xlink:href="#8" y="8.684"></use><use xlink:href="#9" y="10.855"></use><use xlink:href="#10" y="15.197"></use><use xlink:href="#11" y="19.539"></use><use xlink:href="#31" y="21.71"></use></svg><svg x="6360"><use xlink:href="#a"></use><use xlink:href="#3" y="0"></use><use xlink:href="#6" y="2.171"></use><use xlink:href="#7" y="6.513"></use><use xlink:href="#8" y="8.684"></use><use xlink:href="#9" y="10.855"></use><use xlink:href="#10" y="15.197"></use><use xlink:href="#11" y="19.539"></use><use xlink:href="#31" y="21.71"></use><use xlink:href="#34" y="23.880999999999997"></use><use xlink:href="#35" y="28.223000000000003"></use></svg><svg x="6480"><use xlink:href="#a"></use><use xlink:href="#3" y="0"></use><use xlink:href="#6" y="2.171"></use><use xlink:href="#7" y="6.513"></use><use xlink:href="#8" y="8.684"></use><use xlink:href="#9" y="10.855"></use><use xlink:href="#10" y="15.197"></use><use xlink:href="#11" y="19.539"></use><use xlink:href="#31" y="21.71"></use><use xlink:href="#34" y="23.880999999999997"></use><use xlink:href="#35" y="28.223000000000003"></use></svg><svg x="6600"><use xlink:href="#a"></use><use xlink:href="#3" y="0"></use><use xlink:href="#6" y="2.171"></use><use xlink:href="#7" y="6.513"></use><use xlink:href="#8" y="8.684"></use><use xlink:href="#9" y="10.855"></use><use xlink:href="#10" y="15.197"></use></svg><svg x="6720"><use xlink:href="#a"></use><use xlink:href="#3" y="0"></use><use xlink:href="#6" y="2.171"></use><use xlink:href="#7" y="6.513"></use><use xlink:href="#8" y="8.684"></use><use xlink:href="#9" y="10.855"></use><use xlink:href="#10" y="15.197"></use><use xlink:href="#11" y="19.539"></use><use xlink:href="#31" y="21.71"></use><use xlink:href="#36" y="23.880999999999997"></use><use xlink:href="#37" y="28.223000000000003"></use></svg><svg x="6840"><use xlink:href="#a"></use><use xlink:href="#3" y="0"></use><use xlink:href="#6" y="2.171"></use><use xlink:href="#7" y="6.513"></use><use xlink:href="#8" y="8.684"></use><use xlink:href="#9" y="10.855"></use><use xlink:href="#10" y="15.197"></use><use xlink:href="#11" y="19.539"></use><use xlink:href="#31" y="21.71"></use><use xlink:href="#36" y="23.880999999999997"></use><use xlink:href="#37" y="28.223000000000003"></use></svg><svg x="6960"><use xlink:href="#a"></use><use xlink:href="#3" y="0"></use><use xlink:href="#6" y="2.171"></use><use xlink:href="#7" y="6.513"></use><use xlink:href="#8" y="8.684"></use><use xlink:href="#9" y="10.855"></use><use xlink:href="#10" y="15.197"></use></svg><svg x="7080"><use xlink:href="#a"></use><use xlink:href="#3" y="0"></use><use xlink:href="#6" y="2.171"></use><use xlink:href="#7" y="6.513"></use><use xlink:href="#8" y="8.684"></use><use xlink:href="#9" y="10.855"></use><use xlink:href="#10" y="15.197"></use><use xlink:href="#11" y="19.539"></use></svg><svg x="7200"><use xlink:href="#a"></use><use xlink:href="#3" y="0"></use><use xlink:href="#6" y="2.171"></use><use xlink:href="#7" y="6.513"></use><use xlink:href="#8" y="8.684"></use><use xlink:href="#9" y="10.855"></use><use xlink:href="#10" y="15.197"></use><use xlink:href="#11" y="19.539"></use><use xlink:href="#31" y="21.71"></use><use xlink:href="#38" y="23.880999999999997"></use><use xlink:href="#37" y="28.223000000000003"></use></svg><svg x="7320"><use xlink:href="#a"></use><use xlink:href="#b" x="51.996" y="28.198000000000004"></use><use xlink:href="#3" y="0"></use><use xlink:href="#6" y="2.171"></use><use xlink:href="#7" y="6.513"></use><use xlink:href="#8" y="8.684"></use><use xlink:href="#9" y="10.855"></use><use xlink:href="#10" y="15.197"></use><use xlink:href="#11" y="19.539"></use><use xlink:href="#31" y="21.71"></use><use xlink:href="#38" y="23.880999999999997"></use><use xlink:href="#37" y="28.223000000000003"></use></svg><svg x="7440"><use xlink:href="#a"></use><use xlink:href="#b" x="-0.0040000000000000036" y="19.514000000000003"></use><use xlink:href="#3" y="0"></use><use xlink:href="#6" y="2.171"></use><use xlink:href="#7" y="6.513"></use><use xlink:href="#8" y="8.684"></use><use xlink:href="#9" y="10.855"></use><use xlink:href="#10" y="15.197"></use></svg><svg x="7560"><use xlink:href="#a"></use><use xlink:href="#b" x="-0.0040000000000000036" y="30.369"></use><use xlink:href="#3" y="0"></use><use xlink:href="#6" y="2.171"></use><use xlink:href="#7" y="6.513"></use><use xlink:href="#8" y="8.684"></use><use xlink:href="#9" y="10.855"></use><use xlink:href="#10" y="15.197"></use><use xlink:href="#11" y="19.539"></use><use xlink:href="#31" y="21.71"></use><use xlink:href="#38" y="23.880999999999997"></use><use xlink:href="#39" y="28.223000000000003"></use></svg><svg x="7680"><use xlink:href="#a"></use><use xlink:href="#b" x="25.996" y="30.369"></use><use xlink:href="#3" y="0"></use><use xlink:href="#6" y="2.171"></use><use xlink:href="#7" y="6.513"></use><use xlink:href="#8" y="8.684"></use><use xlink:href="#9" y="10.855"></use><use xlink:href="#10" y="15.197"></use><use xlink:href="#11" y="19.539"></use><use xlink:href="#31" y="21.71"></use><use xlink:href="#38" y="23.880999999999997"></use><use xlink:href="#39" y="28.223000000000003"></use><use xlink:href="#1" y="30.394"></use></svg><svg x="7800"><use xlink:href="#a"></use><use xlink:href="#b" x="-0.0040000000000000036" y="32.54"></use><use xlink:href="#6" y="0"></use><use xlink:href="#7" y="4.342"></use><use xlink:href="#8" y="6.513"></use><use xlink:href="#9" y="8.684"></use><use xlink:href="#10" y="13.026"></use><use xlink:href="#11" y="17.368"></use><use xlink:href="#31" y="19.539"></use><use xlink:href="#38" y="21.71"></use><use xlink:href="#39" y="26.052"></use><use xlink:href="#1" y="28.223000000000003"></use><text x="0" y="32.064" class="g">exit</text></svg></svg></g></g></svg></svg>