<svg class="rich-terminal" viewBox="0 0 2324 855.1999999999999" xmlns="http://www.w3.org/2000/svg">
    <!-- Generated with Rich https://www.textualize.io -->
    <style>

    @font-face {
        font-family: "Fira Code";
        src: local("FiraCode-Regular"),
                url("https://cdnjs.cloudflare.com/ajax/libs/firacode/6.2.0/woff2/FiraCode-Regular.woff2") format("woff2"),
                url("https://cdnjs.cloudflare.com/ajax/libs/firacode/6.2.0/woff/FiraCode-Regular.woff") format("woff");
        font-style: normal;
        font-weight: 400;
    }
    @font-face {
        font-family: "Fira Code";
        src: local("FiraCode-Bold"),
                url("https://cdnjs.cloudflare.com/ajax/libs/firacode/6.2.0/woff2/FiraCode-Bold.woff2") format("woff2"),
                url("https://cdnjs.cloudflare.com/ajax/libs/firacode/6.2.0/woff/FiraCode-Bold.woff") format("woff");
        font-style: bold;
        font-weight: 700;
    }

    .terminal-157066792-matrix {
        font-family: Fira Code, monospace;
        font-size: 20px;
        line-height: 24.4px;
        font-variant-east-asian: full-width;
    }

    .terminal-157066792-title {
        font-size: 18px;
        font-weight: bold;
        font-family: arial;
    }

    .terminal-157066792-r1 { fill: #c5c8c6 }
.terminal-157066792-r2 { fill: #e3e3e3 }
.terminal-157066792-r3 { fill: #989898 }
.terminal-157066792-r4 { fill: #c9c9c9 }
.terminal-157066792-r5 { fill: #008000 }
.terminal-157066792-r6 { fill: #dde6ed;font-weight: bold }
.terminal-157066792-r7 { fill: #dde6ed }
.terminal-157066792-r8 { fill: #211505 }
.terminal-157066792-r9 { fill: #e1e2e3 }
.terminal-157066792-r10 { fill: #e1e1e1 }
.terminal-157066792-r11 { fill: #e7e5e2 }
.terminal-157066792-r12 { fill: #e2e3e3 }
.terminal-157066792-r13 { fill: #dde8f3;font-weight: bold }
.terminal-157066792-r14 { fill: #ddedf9 }
    </style>

    <defs>
    <clipPath id="terminal-157066792-clip-terminal">
      <rect x="0" y="0" width="2304.7999999999997" height="804.1999999999999" />
    </clipPath>
    <clipPath id="terminal-157066792-line-0">
    <rect x="0" y="1.5" width="2305.8" height="24.65"/>
            </clipPath>
<clipPath id="terminal-157066792-line-1">
    <rect x="0" y="25.9" width="2305.8" height="24.65"/>
            </clipPath>
<clipPath id="terminal-157066792-line-2">
    <rect x="0" y="50.3" width="2305.8" height="24.65"/>
            </clipPath>
<clipPath id="terminal-157066792-line-3">
    <rect x="0" y="74.7" width="2305.8" height="24.65"/>
            </clipPath>
<clipPath id="terminal-157066792-line-4">
    <rect x="0" y="99.1" width="2305.8" height="24.65"/>
            </clipPath>
<clipPath id="terminal-157066792-line-5">
    <rect x="0" y="123.5" width="2305.8" height="24.65"/>
            </clipPath>
<clipPath id="terminal-157066792-line-6">
    <rect x="0" y="147.9" width="2305.8" height="24.65"/>
            </clipPath>
<clipPath id="terminal-157066792-line-7">
    <rect x="0" y="172.3" width="2305.8" height="24.65"/>
            </clipPath>
<clipPath id="terminal-157066792-line-8">
    <rect x="0" y="196.7" width="2305.8" height="24.65"/>
            </clipPath>
<clipPath id="terminal-157066792-line-9">
    <rect x="0" y="221.1" width="2305.8" height="24.65"/>
            </clipPath>
<clipPath id="terminal-157066792-line-10">
    <rect x="0" y="245.5" width="2305.8" height="24.65"/>
            </clipPath>
<clipPath id="terminal-157066792-line-11">
    <rect x="0" y="269.9" width="2305.8" height="24.65"/>
            </clipPath>
<clipPath id="terminal-157066792-line-12">
    <rect x="0" y="294.3" width="2305.8" height="24.65"/>
            </clipPath>
<clipPath id="terminal-157066792-line-13">
    <rect x="0" y="318.7" width="2305.8" height="24.65"/>
            </clipPath>
<clipPath id="terminal-157066792-line-14">
    <rect x="0" y="343.1" width="2305.8" height="24.65"/>
            </clipPath>
<clipPath id="terminal-157066792-line-15">
    <rect x="0" y="367.5" width="2305.8" height="24.65"/>
            </clipPath>
<clipPath id="terminal-157066792-line-16">
    <rect x="0" y="391.9" width="2305.8" height="24.65"/>
            </clipPath>
<clipPath id="terminal-157066792-line-17">
    <rect x="0" y="416.3" width="2305.8" height="24.65"/>
            </clipPath>
<clipPath id="terminal-157066792-line-18">
    <rect x="0" y="440.7" width="2305.8" height="24.65"/>
            </clipPath>
<clipPath id="terminal-157066792-line-19">
    <rect x="0" y="465.1" width="2305.8" height="24.65"/>
            </clipPath>
<clipPath id="terminal-157066792-line-20">
    <rect x="0" y="489.5" width="2305.8" height="24.65"/>
            </clipPath>
<clipPath id="terminal-157066792-line-21">
    <rect x="0" y="513.9" width="2305.8" height="24.65"/>
            </clipPath>
<clipPath id="terminal-157066792-line-22">
    <rect x="0" y="538.3" width="2305.8" height="24.65"/>
            </clipPath>
<clipPath id="terminal-157066792-line-23">
    <rect x="0" y="562.7" width="2305.8" height="24.65"/>
            </clipPath>
<clipPath id="terminal-157066792-line-24">
    <rect x="0" y="587.1" width="2305.8" height="24.65"/>
            </clipPath>
<clipPath id="terminal-157066792-line-25">
    <rect x="0" y="611.5" width="2305.8" height="24.65"/>
            </clipPath>
<clipPath id="terminal-157066792-line-26">
    <rect x="0" y="635.9" width="2305.8" height="24.65"/>
            </clipPath>
<clipPath id="terminal-157066792-line-27">
    <rect x="0" y="660.3" width="2305.8" height="24.65"/>
            </clipPath>
<clipPath id="terminal-157066792-line-28">
    <rect x="0" y="684.7" width="2305.8" height="24.65"/>
            </clipPath>
<clipPath id="terminal-157066792-line-29">
    <rect x="0" y="709.1" width="2305.8" height="24.65"/>
            </clipPath>
<clipPath id="terminal-157066792-line-30">
    <rect x="0" y="733.5" width="2305.8" height="24.65"/>
            </clipPath>
<clipPath id="terminal-157066792-line-31">
    <rect x="0" y="757.9" width="2305.8" height="24.65"/>
            </clipPath>
    </defs>

    <rect fill="#292929" stroke="rgba(255,255,255,0.35)" stroke-width="1" x="1" y="1" width="2322" height="853.2" rx="8"/><text class="terminal-157066792-title" fill="#c5c8c6" text-anchor="middle" x="1161" y="27">Summary</text>
            <g transform="translate(26,22)">
            <circle cx="0" cy="0" r="7" fill="#ff5f57"/>
            <circle cx="22" cy="0" r="7" fill="#febc2e"/>
            <circle cx="44" cy="0" r="7" fill="#28c840"/>
            </g>
        
    <g transform="translate(9, 41)" clip-path="url(#terminal-157066792-clip-terminal)">
    <rect fill="#282828" x="0" y="1.5" width="12.2" height="24.65" shape-rendering="crispEdges"/><rect fill="#282828" x="12.2" y="1.5" width="73.2" height="24.65" shape-rendering="crispEdges"/><rect fill="#282828" x="85.4" y="1.5" width="12.2" height="24.65" shape-rendering="crispEdges"/><rect fill="#282828" x="97.6" y="1.5" width="2086.2" height="24.65" shape-rendering="crispEdges"/><rect fill="#303030" x="2183.8" y="1.5" width="12.2" height="24.65" shape-rendering="crispEdges"/><rect fill="#303030" x="2196" y="1.5" width="97.6" height="24.65" shape-rendering="crispEdges"/><rect fill="#303030" x="2293.6" y="1.5" width="12.2" height="24.65" shape-rendering="crispEdges"/><rect fill="#282828" x="0" y="25.9" width="12.2" height="24.65" shape-rendering="crispEdges"/><rect fill="#282828" x="12.2" y="25.9" width="12.2" height="24.65" shape-rendering="crispEdges"/><rect fill="#282828" x="24.4" y="25.9" width="61" height="24.65" shape-rendering="crispEdges"/><rect fill="#282828" x="85.4" y="25.9" width="12.2" height="24.65" shape-rendering="crispEdges"/><rect fill="#282828" x="97.6" y="25.9" width="939.4" height="24.65" shape-rendering="crispEdges"/><rect fill="#282828" x="1037" y="25.9" width="122" height="24.65" shape-rendering="crispEdges"/><rect fill="#282828" x="1159" y="25.9" width="85.4" height="24.65" shape-rendering="crispEdges"/><rect fill="#282828" x="1244.4" y="25.9" width="939.4" height="24.65" shape-rendering="crispEdges"/><rect fill="#303030" x="2183.8" y="25.9" width="12.2" height="24.65" shape-rendering="crispEdges"/><rect fill="#303030" x="2196" y="25.9" width="97.6" height="24.65" shape-rendering="crispEdges"/><rect fill="#303030" x="2293.6" y="25.9" width="12.2" height="24.65" shape-rendering="crispEdges"/><rect fill="#282828" x="0" y="50.3" width="12.2" height="24.65" shape-rendering="crispEdges"/><rect fill="#282828" x="12.2" y="50.3" width="73.2" height="24.65" shape-rendering="crispEdges"/><rect fill="#282828" x="85.4" y="50.3" width="12.2" height="24.65" shape-rendering="crispEdges"/><rect fill="#282828" x="97.6" y="50.3" width="2086.2" height="24.65" shape-rendering="crispEdges"/><rect fill="#303030" x="2183.8" y="50.3" width="12.2" height="24.65" shape-rendering="crispEdges"/><rect fill="#303030" x="2196" y="50.3" width="97.6" height="24.65" shape-rendering="crispEdges"/><rect fill="#303030" x="2293.6" y="50.3" width="12.2" height="24.65" shape-rendering="crispEdges"/><rect fill="#1e1e1e" x="0" y="74.7" width="12.2" height="24.65" shape-rendering="crispEdges"/><rect fill="#1e1e1e" x="12.2" y="74.7" width="2281.4" height="24.65" shape-rendering="crispEdges"/><rect fill="#1e1e1e" x="2293.6" y="74.7" width="12.2" height="24.65" shape-rendering="crispEdges"/><rect fill="#1e1e1e" x="0" y="99.1" width="12.2" height="24.65" shape-rendering="crispEdges"/><rect fill="#004578" x="12.2" y="99.1" width="97.6" height="24.65" shape-rendering="crispEdges"/><rect fill="#004578" x="109.8" y="99.1" width="109.8" height="24.65" shape-rendering="crispEdges"/><rect fill="#004578" x="219.6" y="99.1" width="97.6" height="24.65" shape-rendering="crispEdges"/><rect fill="#004578" x="317.2" y="99.1" width="109.8" height="24.65" shape-rendering="crispEdges"/><rect fill="#004578" x="427" y="99.1" width="61" height="24.65" shape-rendering="crispEdges"/><rect fill="#073b61" x="488" y="99.1" width="1805.6" height="24.65" shape-rendering="crispEdges"/><rect fill="#1e1e1e" x="2293.6" y="99.1" width="12.2" height="24.65" shape-rendering="crispEdges"/><rect fill="#1e1e1e" x="0" y="123.5" width="12.2" height="24.65" shape-rendering="crispEdges"/><rect fill="#fea62b" x="12.2" y="123.5" width="97.6" height="24.65" shape-rendering="crispEdges"/><rect fill="#fea62b" x="109.8" y="123.5" width="109.8" height="24.65" shape-rendering="crispEdges"/><rect fill="#fea62b" x="219.6" y="123.5" width="97.6" height="24.65" shape-rendering="crispEdges"/><rect fill="#fea62b" x="317.2" y="123.5" width="109.8" height="24.65" shape-rendering="crispEdges"/><rect fill="#fea62b" x="427" y="123.5" width="61" height="24.65" shape-rendering="crispEdges"/><rect fill="#1a2127" x="488" y="123.5" width="1805.6" height="24.65" shape-rendering="crispEdges"/><rect fill="#1e1e1e" x="2293.6" y="123.5" width="12.2" height="24.65" shape-rendering="crispEdges"/><rect fill="#1e1e1e" x="0" y="147.9" width="12.2" height="24.65" shape-rendering="crispEdges"/><rect fill="#1e1e1e" x="12.2" y="147.9" width="97.6" height="24.65" shape-rendering="crispEdges"/><rect fill="#1e1e1e" x="109.8" y="147.9" width="109.8" height="24.65" shape-rendering="crispEdges"/><rect fill="#1e1e1e" x="219.6" y="147.9" width="97.6" height="24.65" shape-rendering="crispEdges"/><rect fill="#1e1e1e" x="317.2" y="147.9" width="109.8" height="24.65" shape-rendering="crispEdges"/><rect fill="#1e1e1e" x="427" y="147.9" width="61" height="24.65" shape-rendering="crispEdges"/><rect fill="#1e1e1e" x="488" y="147.9" width="1805.6" height="24.65" shape-rendering="crispEdges"/><rect fill="#1e1e1e" x="2293.6" y="147.9" width="12.2" height="24.65" shape-rendering="crispEdges"/><rect fill="#1e1e1e" x="0" y="172.3" width="12.2" height="24.65" shape-rendering="crispEdges"/><rect fill="#19232b" x="12.2" y="172.3" width="97.6" height="24.65" shape-rendering="crispEdges"/><rect fill="#19232b" x="109.8" y="172.3" width="109.8" height="24.65" shape-rendering="crispEdges"/><rect fill="#19232b" x="219.6" y="172.3" width="97.6" height="24.65" shape-rendering="crispEdges"/><rect fill="#19232b" x="317.2" y="172.3" width="109.8" height="24.65" shape-rendering="crispEdges"/><rect fill="#19232b" x="427" y="172.3" width="61" height="24.65" shape-rendering="crispEdges"/><rect fill="#1a2127" x="488" y="172.3" width="1805.6" height="24.65" shape-rendering="crispEdges"/><rect fill="#1e1e1e" x="2293.6" y="172.3" width="12.2" height="24.65" shape-rendering="crispEdges"/><rect fill="#1e1e1e" x="0" y="196.7" width="12.2" height="24.65" shape-rendering="crispEdges"/><rect fill="#4a3920" x="12.2" y="196.7" width="97.6" height="24.65" shape-rendering="crispEdges"/><rect fill="#4a3920" x="109.8" y="196.7" width="109.8" height="24.65" shape-rendering="crispEdges"/><rect fill="#4a3920" x="219.6" y="196.7" width="97.6" height="24.65" shape-rendering="crispEdges"/><rect fill="#4a3920" x="317.2" y="196.7" width="109.8" height="24.65" shape-rendering="crispEdges"/><rect fill="#4a3920" x="427" y="196.7" width="61" height="24.65" shape-rendering="crispEdges"/><rect fill="#1e1e1e" x="488" y="196.7" width="1805.6" height="24.65" shape-rendering="crispEdges"/><rect fill="#1e1e1e" x="2293.6" y="196.7" width="12.2" height="24.65" shape-rendering="crispEdges"/><rect fill="#1e1e1e" x="0" y="221.1" width="12.2" height="24.65" shape-rendering="crispEdges"/><rect fill="#1e1e1e" x="12.2" y="221.1" width="451.4" height="24.65" shape-rendering="crispEdges"/><rect fill="#24292f" x="463.6" y="221.1" width="439.2" height="24.65" shape-rendering="crispEdges"/><rect fill="#1e1e1e" x="902.8" y="221.1" width="1390.8" height="24.65" shape-rendering="crispEdges"/><rect fill="#1e1e1e" x="2293.6" y="221.1" width="12.2" height="24.65" shape-rendering="crispEdges"/><rect fill="#1e1e1e" x="0" y="245.5" width="12.2" height="24.65" shape-rendering="crispEdges"/><rect fill="#1e1e1e" x="12.2" y="245.5" width="451.4" height="24.65" shape-rendering="crispEdges"/><rect fill="#24292f" x="463.6" y="245.5" width="24.4" height="24.65" shape-rendering="crispEdges"/><rect fill="#24292f" x="488" y="245.5" width="390.4" height="24.65" shape-rendering="crispEdges"/><rect fill="#24292f" x="878.4" y="245.5" width="24.4" height="24.65" shape-rendering="crispEdges"/><rect fill="#1e1e1e" x="902.8" y="245.5" width="1390.8" height="24.65" shape-rendering="crispEdges"/><rect fill="#1e1e1e" x="2293.6" y="245.5" width="12.2" height="24.65" shape-rendering="crispEdges"/><rect fill="#1e1e1e" x="0" y="269.9" width="12.2" height="24.65" shape-rendering="crispEdges"/><rect fill="#1e1e1e" x="12.2" y="269.9" width="451.4" height="24.65" shape-rendering="crispEdges"/><rect fill="#24292f" x="463.6" y="269.9" width="439.2" height="24.65" shape-rendering="crispEdges"/><rect fill="#1e1e1e" x="902.8" y="269.9" width="1390.8" height="24.65" shape-rendering="crispEdges"/><rect fill="#1e1e1e" x="2293.6" y="269.9" width="12.2" height="24.65" shape-rendering="crispEdges"/><rect fill="#1e1e1e" x="0" y="294.3" width="12.2" height="24.65" shape-rendering="crispEdges"/><rect fill="#1e1e1e" x="12.2" y="294.3" width="2281.4" height="24.65" shape-rendering="crispEdges"/><rect fill="#1e1e1e" x="2293.6" y="294.3" width="12.2" height="24.65" shape-rendering="crispEdges"/><rect fill="#1e1e1e" x="0" y="318.7" width="12.2" height="24.65" shape-rendering="crispEdges"/><rect fill="#1e1e1e" x="12.2" y="318.7" width="2281.4" height="24.65" shape-rendering="crispEdges"/><rect fill="#1e1e1e" x="2293.6" y="318.7" width="12.2" height="24.65" shape-rendering="crispEdges"/><rect fill="#1e1e1e" x="0" y="343.1" width="12.2" height="24.65" shape-rendering="crispEdges"/><rect fill="#1e1e1e" x="12.2" y="343.1" width="2281.4" height="24.65" shape-rendering="crispEdges"/><rect fill="#1e1e1e" x="2293.6" y="343.1" width="12.2" height="24.65" shape-rendering="crispEdges"/><rect fill="#1e1e1e" x="0" y="367.5" width="12.2" height="24.65" shape-rendering="crispEdges"/><rect fill="#1e1e1e" x="12.2" y="367.5" width="2281.4" height="24.65" shape-rendering="crispEdges"/><rect fill="#1e1e1e" x="2293.6" y="367.5" width="12.2" height="24.65" shape-rendering="crispEdges"/><rect fill="#1e1e1e" x="0" y="391.9" width="12.2" height="24.65" shape-rendering="crispEdges"/><rect fill="#1e1e1e" x="12.2" y="391.9" width="2281.4" height="24.65" shape-rendering="crispEdges"/><rect fill="#1e1e1e" x="2293.6" y="391.9" width="12.2" height="24.65" shape-rendering="crispEdges"/><rect fill="#1e1e1e" x="0" y="416.3" width="12.2" height="24.65" shape-rendering="crispEdges"/><rect fill="#1e1e1e" x="12.2" y="416.3" width="2281.4" height="24.65" shape-rendering="crispEdges"/><rect fill="#1e1e1e" x="2293.6" y="416.3" width="12.2" height="24.65" shape-rendering="crispEdges"/><rect fill="#1e1e1e" x="0" y="440.7" width="12.2" height="24.65" shape-rendering="crispEdges"/><rect fill="#1e1e1e" x="12.2" y="440.7" width="2281.4" height="24.65" shape-rendering="crispEdges"/><rect fill="#1e1e1e" x="2293.6" y="440.7" width="12.2" height="24.65" shape-rendering="crispEdges"/><rect fill="#1e1e1e" x="0" y="465.1" width="12.2" height="24.65" shape-rendering="crispEdges"/><rect fill="#1e1e1e" x="12.2" y="465.1" width="2281.4" height="24.65" shape-rendering="crispEdges"/><rect fill="#1e1e1e" x="2293.6" y="465.1" width="12.2" height="24.65" shape-rendering="crispEdges"/><rect fill="#1e1e1e" x="0" y="489.5" width="12.2" height="24.65" shape-rendering="crispEdges"/><rect fill="#1e1e1e" x="12.2" y="489.5" width="2281.4" height="24.65" shape-rendering="crispEdges"/><rect fill="#1e1e1e" x="2293.6" y="489.5" width="12.2" height="24.65" shape-rendering="crispEdges"/><rect fill="#1e1e1e" x="0" y="513.9" width="12.2" height="24.65" shape-rendering="crispEdges"/><rect fill="#1e1e1e" x="12.2" y="513.9" width="2281.4" height="24.65" shape-rendering="crispEdges"/><rect fill="#1e1e1e" x="2293.6" y="513.9" width="12.2" height="24.65" shape-rendering="crispEdges"/><rect fill="#1e1e1e" x="0" y="538.3" width="12.2" height="24.65" shape-rendering="crispEdges"/><rect fill="#1e1e1e" x="12.2" y="538.3" width="2281.4" height="24.65" shape-rendering="crispEdges"/><rect fill="#1e1e1e" x="2293.6" y="538.3" width="12.2" height="24.65" shape-rendering="crispEdges"/><rect fill="#1e1e1e" x="0" y="562.7" width="12.2" height="24.65" shape-rendering="crispEdges"/><rect fill="#1e1e1e" x="12.2" y="562.7" width="2281.4" height="24.65" shape-rendering="crispEdges"/><rect fill="#1e1e1e" x="2293.6" y="562.7" width="12.2" height="24.65" shape-rendering="crispEdges"/><rect fill="#1e1e1e" x="0" y="587.1" width="12.2" height="24.65" shape-rendering="crispEdges"/><rect fill="#1e1e1e" x="12.2" y="587.1" width="2281.4" height="24.65" shape-rendering="crispEdges"/><rect fill="#1e1e1e" x="2293.6" y="587.1" width="12.2" height="24.65" shape-rendering="crispEdges"/><rect fill="#1e1e1e" x="0" y="611.5" width="12.2" height="24.65" shape-rendering="crispEdges"/><rect fill="#1e1e1e" x="12.2" y="611.5" width="2281.4" height="24.65" shape-rendering="crispEdges"/><rect fill="#1e1e1e" x="2293.6" y="611.5" width="12.2" height="24.65" shape-rendering="crispEdges"/><rect fill="#1e1e1e" x="0" y="635.9" width="12.2" height="24.65" shape-rendering="crispEdges"/><rect fill="#1e1e1e" x="12.2" y="635.9" width="2281.4" height="24.65" shape-rendering="crispEdges"/><rect fill="#1e1e1e" x="2293.6" y="635.9" width="12.2" height="24.65" shape-rendering="crispEdges"/><rect fill="#1e1e1e" x="0" y="660.3" width="12.2" height="24.65" shape-rendering="crispEdges"/><rect fill="#1e1e1e" x="12.2" y="660.3" width="2281.4" height="24.65" shape-rendering="crispEdges"/><rect fill="#1e1e1e" x="2293.6" y="660.3" width="12.2" height="24.65" shape-rendering="crispEdges"/><rect fill="#1e1e1e" x="0" y="684.7" width="12.2" height="24.65" shape-rendering="crispEdges"/><rect fill="#1e1e1e" x="12.2" y="684.7" width="2281.4" height="24.65" shape-rendering="crispEdges"/><rect fill="#1e1e1e" x="2293.6" y="684.7" width="12.2" height="24.65" shape-rendering="crispEdges"/><rect fill="#1e1e1e" x="0" y="709.1" width="12.2" height="24.65" shape-rendering="crispEdges"/><rect fill="#1e1e1e" x="12.2" y="709.1" width="2281.4" height="24.65" shape-rendering="crispEdges"/><rect fill="#1e1e1e" x="2293.6" y="709.1" width="12.2" height="24.65" shape-rendering="crispEdges"/><rect fill="#1e1e1e" x="0" y="733.5" width="12.2" height="24.65" shape-rendering="crispEdges"/><rect fill="#1e1e1e" x="12.2" y="733.5" width="2281.4" height="24.65" shape-rendering="crispEdges"/><rect fill="#1e1e1e" x="2293.6" y="733.5" width="12.2" height="24.65" shape-rendering="crispEdges"/><rect fill="#1e1e1e" x="0" y="757.9" width="12.2" height="24.65" shape-rendering="crispEdges"/><rect fill="#1e1e1e" x="12.2" y="757.9" width="2281.4" height="24.65" shape-rendering="crispEdges"/><rect fill="#1e1e1e" x="2293.6" y="757.9" width="12.2" height="24.65" shape-rendering="crispEdges"/><rect fill="#0053aa" x="0" y="782.3" width="36.6" height="24.65" shape-rendering="crispEdges"/><rect fill="#0178d4" x="36.6" y="782.3" width="73.2" height="24.65" shape-rendering="crispEdges"/><rect fill="#0178d4" x="109.8" y="782.3" width="2196" height="24.65" shape-rendering="crispEdges"/>
    <g class="terminal-157066792-matrix">
    <text class="terminal-157066792-r1" x="2305.8" y="20" textLength="12.2" clip-path="url(#terminal-157066792-line-0)">
</text><text class="terminal-157066792-r2" x="12.2" y="44.4" textLength="12.2" clip-path="url(#terminal-157066792-line-1)">⭘</text><text class="terminal-157066792-r2" x="1037" y="44.4" textLength="122" clip-path="url(#terminal-157066792-line-1)">Summary&#160;—&#160;</text><text class="terminal-157066792-r3" x="1159" y="44.4" textLength="85.4" clip-path="url(#terminal-157066792-line-1)">5&#160;users</text><text class="terminal-157066792-r4" x="2196" y="44.4" textLength="97.6" clip-path="url(#terminal-157066792-line-1)">19:05:20</text><text class="terminal-157066792-r1" x="2305.8" y="44.4" textLength="12.2" clip-path="url(#terminal-157066792-line-1)">
</text><text class="terminal-157066792-r1" x="2305.8" y="68.8" textLength="12.2" clip-path="url(#terminal-157066792-line-2)">
</text><text class="terminal-157066792-r5" x="0" y="93.2" textLength="12.2" clip-path="url(#terminal-157066792-line-3)">┌</text><text class="terminal-157066792-r5" x="12.2" y="93.2" textLength="2281.4" clip-path="url(#terminal-157066792-line-3)">───────────────────────────────────────────────────────────────────────────────────────────────────────────────────────────────────────────────────────────────────────────────────────────</text><text class="terminal-157066792-r5" x="2293.6" y="93.2" textLength="12.2" clip-path="url(#terminal-157066792-line-3)">┐</text><text class="terminal-157066792-r1" x="2305.8" y="93.2" textLength="12.2" clip-path="url(#terminal-157066792-line-3)">
</text><text class="terminal-157066792-r5" x="0" y="117.6" textLength="12.2" clip-path="url(#terminal-157066792-line-4)">│</text><text class="terminal-157066792-r6" x="12.2" y="117.6" textLength="97.6" clip-path="url(#terminal-157066792-line-4)">&#160;Level&#160;&#160;</text><text class="terminal-157066792-r6" x="109.8" y="117.6" textLength="109.8" clip-path="url(#terminal-157066792-line-4)">&#160;Name&#160;&#160;&#160;&#160;</text><text class="terminal-157066792-r6" x="219.6" y="117.6" textLength="97.6" clip-path="url(#terminal-157066792-line-4)">&#160;Gender&#160;</text><text class="terminal-157066792-r6" x="317.2" y="117.6" textLength="109.8" clip-path="url(#terminal-157066792-line-4)">&#160;Country&#160;</text><text class="terminal-157066792-r6" x="427" y="117.6" textLength="61" clip-path="url(#terminal-157066792-line-4)">&#160;Age&#160;</text><text class="terminal-157066792-r5" x="2293.6" y="117.6" textLength="12.2" clip-path="url(#terminal-157066792-line-4)">│</text><text class="terminal-157066792-r1" x="2305.8" y="117.6" textLength="12.2" clip-path="url(#terminal-157066792-line-4)">
</text><text class="terminal-157066792-r5" x="0" y="142" textLength="12.2" clip-path="url(#terminal-157066792-line-5)">│</text><text class="terminal-157066792-r8" x="12.2" y="142" textLength="97.6" clip-path="url(#terminal-157066792-line-5)">&#160;Green&#160;&#160;</text><text class="terminal-157066792-r8" x="109.8" y="142" textLength="109.8" clip-path="url(#terminal-157066792-line-5)">&#160;Wai&#160;&#160;&#160;&#160;&#160;</text><text class="terminal-157066792-r8" x="219.6" y="142" textLength="97.6" clip-path="url(#terminal-157066792-line-5)">&#160;M&#160;&#160;&#160;&#160;&#160;&#160;</text><text class="terminal-157066792-r8" x="317.2" y="142" textLength="109.8" clip-path="url(#terminal-157066792-line-5)">&#160;MYS&#160;&#160;&#160;&#160;&#160;</text><text class="terminal-157066792-r8" x="427" y="142" textLength="61" clip-path="url(#terminal-157066792-line-5)">&#160;22&#160;&#160;</text><text class="terminal-157066792-r5" x="2293.6" y="142" textLength="12.2" clip-path="url(#terminal-157066792-line-5)">│</text><text class="terminal-157066792-r1" x="2305.8" y="142" textLength="12.2" clip-path="url(#terminal-157066792-line-5)">
</text><text class="terminal-157066792-r5" x="0" y="166.4" textLength="12.2" clip-path="url(#terminal-157066792-line-6)">│</text><text class="terminal-157066792-r10" x="12.2" y="166.4" textLength="97.6" clip-path="url(#terminal-157066792-line-6)">&#160;Red&#160;&#160;&#160;&#160;</text><text class="terminal-157066792-r10" x="109.8" y="166.4" textLength="109.8" clip-path="url(#terminal-157066792-line-6)">&#160;Ryoji&#160;&#160;&#160;</text><text class="terminal-157066792-r10" x="219.6" y="166.4" textLength="97.6" clip-path="url(#terminal-157066792-line-6)">&#160;M&#160;&#160;&#160;&#160;&#160;&#160;</text><text class="terminal-157066792-r10" x="317.2" y="166.4" textLength="109.8" clip-path="url(#terminal-157066792-line-6)">&#160;JPN&#160;&#160;&#160;&#160;&#160;</text><text class="terminal-157066792-r10" x="427" y="166.4" textLength="61" clip-path="url(#terminal-157066792-line-6)">&#160;30&#160;&#160;</text><text class="terminal-157066792-r5" x="2293.6" y="166.4" textLength="12.2" clip-path="url(#terminal-157066792-line-6)">│</text><text class="terminal-157066792-r1" x="2305.8" y="166.4" textLength="12.2" clip-path="url(#terminal-157066792-line-6)">
</text><text class="terminal-157066792-r5" x="0" y="190.8" textLength="12.2" clip-path="url(#terminal-157066792-line-7)">│</text><text class="terminal-157066792-r9" x="12.2" y="190.8" textLength="97.6" clip-path="url(#terminal-157066792-line-7)">&#160;Purple&#160;</text><text class="terminal-157066792-r9" x="109.8" y="190.8" textLength="109.8" clip-path="url(#terminal-157066792-line-7)">&#160;Fabio&#160;&#160;&#160;</text><text class="terminal-157066792-r9" x="219.6" y="190.8" textLength="97.6" clip-path="url(#terminal-157066792-line-7)">&#160;M&#160;&#160;&#160;&#160;&#160;&#160;</text><text class="terminal-157066792-r9" x="317.2" y="190.8" textLength="109.8" clip-path="url(#terminal-157066792-line-7)">&#160;ITA&#160;&#160;&#160;&#160;&#160;</text><text class="terminal-157066792-r9" x="427" y="190.8" textLength="61" clip-path="url(#terminal-157066792-line-7)">&#160;99&#160;&#160;</text><text class="terminal-157066792-r5" x="2293.6" y="190.8" textLength="12.2" clip-path="url(#terminal-157066792-line-7)">│</text><text class="terminal-157066792-r1" x="2305.8" y="190.8" textLength="12.2" clip-path="url(#terminal-157066792-line-7)">
</text><text class="terminal-157066792-r5" x="0" y="215.2" textLength="12.2" clip-path="url(#terminal-157066792-line-8)">│</text><text class="terminal-157066792-r11" x="12.2" y="215.2" textLength="97.6" clip-path="url(#terminal-157066792-line-8)">&#160;Blue&#160;&#160;&#160;</text><text class="terminal-157066792-r11" x="109.8" y="215.2" textLength="109.8" clip-path="url(#terminal-157066792-line-8)">&#160;Manuela&#160;</text><text class="terminal-157066792-r11" x="219.6" y="215.2" textLength="97.6" clip-path="url(#terminal-157066792-line-8)">&#160;F&#160;&#160;&#160;&#160;&#160;&#160;</text><text class="terminal-157066792-r11" x="317.2" y="215.2" textLength="109.8" clip-path="url(#terminal-157066792-line-8)">&#160;VEN&#160;&#160;&#160;&#160;&#160;</text><text class="terminal-157066792-r11" x="427" y="215.2" textLength="61" clip-path="url(#terminal-157066792-line-8)">&#160;25&#160;&#160;</text><text class="terminal-157066792-r5" x="2293.6" y="215.2" textLength="12.2" clip-path="url(#terminal-157066792-line-8)">│</text><text class="terminal-157066792-r1" x="2305.8" y="215.2" textLength="12.2" clip-path="url(#terminal-157066792-line-8)">
</text><text class="terminal-157066792-r5" x="0" y="239.6" textLength="12.2" clip-path="url(#terminal-157066792-line-9)">│</text><text class="terminal-157066792-r5" x="2293.6" y="239.6" textLength="12.2" clip-path="url(#terminal-157066792-line-9)">│</text><text class="terminal-157066792-r1" x="2305.8" y="239.6" textLength="12.2" clip-path="url(#terminal-157066792-line-9)">
</text><text class="terminal-157066792-r5" x="0" y="264" textLength="12.2" clip-path="url(#terminal-157066792-line-10)">│</text><text class="terminal-157066792-r12" x="488" y="264" textLength="390.4" clip-path="url(#terminal-157066792-line-10)">Select&#160;a&#160;row&#160;to&#160;get&#160;more&#160;details</text><text class="terminal-157066792-r5" x="2293.6" y="264" textLength="12.2" clip-path="url(#terminal-157066792-line-10)">│</text><text class="terminal-157066792-r1" x="2305.8" y="264" textLength="12.2" clip-path="url(#terminal-157066792-line-10)">
</text><text class="terminal-157066792-r5" x="0" y="288.4" textLength="12.2" clip-path="url(#terminal-157066792-line-11)">│</text><text class="terminal-157066792-r5" x="2293.6" y="288.4" textLength="12.2" clip-path="url(#terminal-157066792-line-11)">│</text><text class="terminal-157066792-r1" x="2305.8" y="288.4" textLength="12.2" clip-path="url(#terminal-157066792-line-11)">
</text><text class="terminal-157066792-r5" x="0" y="312.8" textLength="12.2" clip-path="url(#terminal-157066792-line-12)">│</text><text class="terminal-157066792-r5" x="2293.6" y="312.8" textLength="12.2" clip-path="url(#terminal-157066792-line-12)">│</text><text class="terminal-157066792-r1" x="2305.8" y="312.8" textLength="12.2" clip-path="url(#terminal-157066792-line-12)">
</text><text class="terminal-157066792-r5" x="0" y="337.2" textLength="12.2" clip-path="url(#terminal-157066792-line-13)">│</text><text class="terminal-157066792-r5" x="2293.6" y="337.2" textLength="12.2" clip-path="url(#terminal-157066792-line-13)">│</text><text class="terminal-157066792-r1" x="2305.8" y="337.2" textLength="12.2" clip-path="url(#terminal-157066792-line-13)">
</text><text class="terminal-157066792-r5" x="0" y="361.6" textLength="12.2" clip-path="url(#terminal-157066792-line-14)">│</text><text class="terminal-157066792-r5" x="2293.6" y="361.6" textLength="12.2" clip-path="url(#terminal-157066792-line-14)">│</text><text class="terminal-157066792-r1" x="2305.8" y="361.6" textLength="12.2" clip-path="url(#terminal-157066792-line-14)">
</text><text class="terminal-157066792-r5" x="0" y="386" textLength="12.2" clip-path="url(#terminal-157066792-line-15)">│</text><text class="terminal-157066792-r5" x="2293.6" y="386" textLength="12.2" clip-path="url(#terminal-157066792-line-15)">│</text><text class="terminal-157066792-r1" x="2305.8" y="386" textLength="12.2" clip-path="url(#terminal-157066792-line-15)">
</text><text class="terminal-157066792-r5" x="0" y="410.4" textLength="12.2" clip-path="url(#terminal-157066792-line-16)">│</text><text class="terminal-157066792-r5" x="2293.6" y="410.4" textLength="12.2" clip-path="url(#terminal-157066792-line-16)">│</text><text class="terminal-157066792-r1" x="2305.8" y="410.4" textLength="12.2" clip-path="url(#terminal-157066792-line-16)">
</text><text class="terminal-157066792-r5" x="0" y="434.8" textLength="12.2" clip-path="url(#terminal-157066792-line-17)">│</text><text class="terminal-157066792-r5" x="2293.6" y="434.8" textLength="12.2" clip-path="url(#terminal-157066792-line-17)">│</text><text class="terminal-157066792-r1" x="2305.8" y="434.8" textLength="12.2" clip-path="url(#terminal-157066792-line-17)">
</text><text class="terminal-157066792-r5" x="0" y="459.2" textLength="12.2" clip-path="url(#terminal-157066792-line-18)">│</text><text class="terminal-157066792-r5" x="2293.6" y="459.2" textLength="12.2" clip-path="url(#terminal-157066792-line-18)">│</text><text class="terminal-157066792-r1" x="2305.8" y="459.2" textLength="12.2" clip-path="url(#terminal-157066792-line-18)">
</text><text class="terminal-157066792-r5" x="0" y="483.6" textLength="12.2" clip-path="url(#terminal-157066792-line-19)">│</text><text class="terminal-157066792-r5" x="2293.6" y="483.6" textLength="12.2" clip-path="url(#terminal-157066792-line-19)">│</text><text class="terminal-157066792-r1" x="2305.8" y="483.6" textLength="12.2" clip-path="url(#terminal-157066792-line-19)">
</text><text class="terminal-157066792-r5" x="0" y="508" textLength="12.2" clip-path="url(#terminal-157066792-line-20)">│</text><text class="terminal-157066792-r5" x="2293.6" y="508" textLength="12.2" clip-path="url(#terminal-157066792-line-20)">│</text><text class="terminal-157066792-r1" x="2305.8" y="508" textLength="12.2" clip-path="url(#terminal-157066792-line-20)">
</text><text class="terminal-157066792-r5" x="0" y="532.4" textLength="12.2" clip-path="url(#terminal-157066792-line-21)">│</text><text class="terminal-157066792-r5" x="2293.6" y="532.4" textLength="12.2" clip-path="url(#terminal-157066792-line-21)">│</text><text class="terminal-157066792-r1" x="2305.8" y="532.4" textLength="12.2" clip-path="url(#terminal-157066792-line-21)">
</text><text class="terminal-157066792-r5" x="0" y="556.8" textLength="12.2" clip-path="url(#terminal-157066792-line-22)">│</text><text class="terminal-157066792-r5" x="2293.6" y="556.8" textLength="12.2" clip-path="url(#terminal-157066792-line-22)">│</text><text class="terminal-157066792-r1" x="2305.8" y="556.8" textLength="12.2" clip-path="url(#terminal-157066792-line-22)">
</text><text class="terminal-157066792-r5" x="0" y="581.2" textLength="12.2" clip-path="url(#terminal-157066792-line-23)">│</text><text class="terminal-157066792-r5" x="2293.6" y="581.2" textLength="12.2" clip-path="url(#terminal-157066792-line-23)">│</text><text class="terminal-157066792-r1" x="2305.8" y="581.2" textLength="12.2" clip-path="url(#terminal-157066792-line-23)">
</text><text class="terminal-157066792-r5" x="0" y="605.6" textLength="12.2" clip-path="url(#terminal-157066792-line-24)">│</text><text class="terminal-157066792-r5" x="2293.6" y="605.6" textLength="12.2" clip-path="url(#terminal-157066792-line-24)">│</text><text class="terminal-157066792-r1" x="2305.8" y="605.6" textLength="12.2" clip-path="url(#terminal-157066792-line-24)">
</text><text class="terminal-157066792-r5" x="0" y="630" textLength="12.2" clip-path="url(#terminal-157066792-line-25)">│</text><text class="terminal-157066792-r5" x="2293.6" y="630" textLength="12.2" clip-path="url(#terminal-157066792-line-25)">│</text><text class="terminal-157066792-r1" x="2305.8" y="630" textLength="12.2" clip-path="url(#terminal-157066792-line-25)">
</text><text class="terminal-157066792-r5" x="0" y="654.4" textLength="12.2" clip-path="url(#terminal-157066792-line-26)">│</text><text class="terminal-157066792-r5" x="2293.6" y="654.4" textLength="12.2" clip-path="url(#terminal-157066792-line-26)">│</text><text class="terminal-157066792-r1" x="2305.8" y="654.4" textLength="12.2" clip-path="url(#terminal-157066792-line-26)">
</text><text class="terminal-157066792-r5" x="0" y="678.8" textLength="12.2" clip-path="url(#terminal-157066792-line-27)">│</text><text class="terminal-157066792-r5" x="2293.6" y="678.8" textLength="12.2" clip-path="url(#terminal-157066792-line-27)">│</text><text class="terminal-157066792-r1" x="2305.8" y="678.8" textLength="12.2" clip-path="url(#terminal-157066792-line-27)">
</text><text class="terminal-157066792-r5" x="0" y="703.2" textLength="12.2" clip-path="url(#terminal-157066792-line-28)">│</text><text class="terminal-157066792-r5" x="2293.6" y="703.2" textLength="12.2" clip-path="url(#terminal-157066792-line-28)">│</text><text class="terminal-157066792-r1" x="2305.8" y="703.2" textLength="12.2" clip-path="url(#terminal-157066792-line-28)">
</text><text class="terminal-157066792-r5" x="0" y="727.6" textLength="12.2" clip-path="url(#terminal-157066792-line-29)">│</text><text class="terminal-157066792-r5" x="2293.6" y="727.6" textLength="12.2" clip-path="url(#terminal-157066792-line-29)">│</text><text class="terminal-157066792-r1" x="2305.8" y="727.6" textLength="12.2" clip-path="url(#terminal-157066792-line-29)">
</text><text class="terminal-157066792-r5" x="0" y="752" textLength="12.2" clip-path="url(#terminal-157066792-line-30)">│</text><text class="terminal-157066792-r5" x="2293.6" y="752" textLength="12.2" clip-path="url(#terminal-157066792-line-30)">│</text><text class="terminal-157066792-r1" x="2305.8" y="752" textLength="12.2" clip-path="url(#terminal-157066792-line-30)">
</text><text class="terminal-157066792-r5" x="0" y="776.4" textLength="12.2" clip-path="url(#terminal-157066792-line-31)">└</text><text class="terminal-157066792-r5" x="12.2" y="776.4" textLength="2281.4" clip-path="url(#terminal-157066792-line-31)">───────────────────────────────────────────────────────────────────────────────────────────────────────────────────────────────────────────────────────────────────────────────────────────</text><text class="terminal-157066792-r5" x="2293.6" y="776.4" textLength="12.2" clip-path="url(#terminal-157066792-line-31)">┘</text><text class="terminal-157066792-r1" x="2305.8" y="776.4" textLength="12.2" clip-path="url(#terminal-157066792-line-31)">
</text><text class="terminal-157066792-r13" x="0" y="800.8" textLength="36.6" clip-path="url(#terminal-157066792-line-32)">&#160;Q&#160;</text><text class="terminal-157066792-r14" x="36.6" y="800.8" textLength="73.2" clip-path="url(#terminal-157066792-line-32)">&#160;Quit&#160;</text>
    </g>
    </g>
</svg>
