<svg class="rich-terminal" viewBox="0 0 2324 855.1999999999999" xmlns="http://www.w3.org/2000/svg">
    <!-- Generated with Rich https://www.textualize.io -->
    <style>

    @font-face {
        font-family: "Fira Code";
        src: local("FiraCode-Regular"),
                url("https://cdnjs.cloudflare.com/ajax/libs/firacode/6.2.0/woff2/FiraCode-Regular.woff2") format("woff2"),
                url("https://cdnjs.cloudflare.com/ajax/libs/firacode/6.2.0/woff/FiraCode-Regular.woff") format("woff");
        font-style: normal;
        font-weight: 400;
    }
    @font-face {
        font-family: "Fira Code";
        src: local("FiraCode-Bold"),
                url("https://cdnjs.cloudflare.com/ajax/libs/firacode/6.2.0/woff2/FiraCode-Bold.woff2") format("woff2"),
                url("https://cdnjs.cloudflare.com/ajax/libs/firacode/6.2.0/woff/FiraCode-Bold.woff") format("woff");
        font-style: bold;
        font-weight: 700;
    }

    .terminal-1826578972-matrix {
        font-family: Fira Code, monospace;
        font-size: 20px;
        line-height: 24.4px;
        font-variant-east-asian: full-width;
    }

    .terminal-1826578972-title {
        font-size: 18px;
        font-weight: bold;
        font-family: arial;
    }

    .terminal-1826578972-r1 { fill: #c5c8c6 }
.terminal-1826578972-r2 { fill: #e3e3e3 }
.terminal-1826578972-r3 { fill: #989898 }
.terminal-1826578972-r4 { fill: #0178d4 }
.terminal-1826578972-r5 { fill: #575757 }
.terminal-1826578972-r6 { fill: #4ebf71;font-weight: bold }
.terminal-1826578972-r7 { fill: #ddedf9;font-weight: bold }
.terminal-1826578972-r8 { fill: #e2e2e2 }
.terminal-1826578972-r9 { fill: #507bb3 }
.terminal-1826578972-r10 { fill: #dde6ed;font-weight: bold }
.terminal-1826578972-r11 { fill: #001541 }
.terminal-1826578972-r12 { fill: #e1e1e1 }
.terminal-1826578972-r13 { fill: #dde8f3;font-weight: bold }
.terminal-1826578972-r14 { fill: #ddedf9 }
    </style>

    <defs>
    <clipPath id="terminal-1826578972-clip-terminal">
      <rect x="0" y="0" width="2304.7999999999997" height="804.1999999999999" />
    </clipPath>
    <clipPath id="terminal-1826578972-line-0">
    <rect x="0" y="1.5" width="2305.8" height="24.65"/>
            </clipPath>
<clipPath id="terminal-1826578972-line-1">
    <rect x="0" y="25.9" width="2305.8" height="24.65"/>
            </clipPath>
<clipPath id="terminal-1826578972-line-2">
    <rect x="0" y="50.3" width="2305.8" height="24.65"/>
            </clipPath>
<clipPath id="terminal-1826578972-line-3">
    <rect x="0" y="74.7" width="2305.8" height="24.65"/>
            </clipPath>
<clipPath id="terminal-1826578972-line-4">
    <rect x="0" y="99.1" width="2305.8" height="24.65"/>
            </clipPath>
<clipPath id="terminal-1826578972-line-5">
    <rect x="0" y="123.5" width="2305.8" height="24.65"/>
            </clipPath>
<clipPath id="terminal-1826578972-line-6">
    <rect x="0" y="147.9" width="2305.8" height="24.65"/>
            </clipPath>
<clipPath id="terminal-1826578972-line-7">
    <rect x="0" y="172.3" width="2305.8" height="24.65"/>
            </clipPath>
<clipPath id="terminal-1826578972-line-8">
    <rect x="0" y="196.7" width="2305.8" height="24.65"/>
            </clipPath>
<clipPath id="terminal-1826578972-line-9">
    <rect x="0" y="221.1" width="2305.8" height="24.65"/>
            </clipPath>
<clipPath id="terminal-1826578972-line-10">
    <rect x="0" y="245.5" width="2305.8" height="24.65"/>
            </clipPath>
<clipPath id="terminal-1826578972-line-11">
    <rect x="0" y="269.9" width="2305.8" height="24.65"/>
            </clipPath>
<clipPath id="terminal-1826578972-line-12">
    <rect x="0" y="294.3" width="2305.8" height="24.65"/>
            </clipPath>
<clipPath id="terminal-1826578972-line-13">
    <rect x="0" y="318.7" width="2305.8" height="24.65"/>
            </clipPath>
<clipPath id="terminal-1826578972-line-14">
    <rect x="0" y="343.1" width="2305.8" height="24.65"/>
            </clipPath>
<clipPath id="terminal-1826578972-line-15">
    <rect x="0" y="367.5" width="2305.8" height="24.65"/>
            </clipPath>
<clipPath id="terminal-1826578972-line-16">
    <rect x="0" y="391.9" width="2305.8" height="24.65"/>
            </clipPath>
<clipPath id="terminal-1826578972-line-17">
    <rect x="0" y="416.3" width="2305.8" height="24.65"/>
            </clipPath>
<clipPath id="terminal-1826578972-line-18">
    <rect x="0" y="440.7" width="2305.8" height="24.65"/>
            </clipPath>
<clipPath id="terminal-1826578972-line-19">
    <rect x="0" y="465.1" width="2305.8" height="24.65"/>
            </clipPath>
<clipPath id="terminal-1826578972-line-20">
    <rect x="0" y="489.5" width="2305.8" height="24.65"/>
            </clipPath>
<clipPath id="terminal-1826578972-line-21">
    <rect x="0" y="513.9" width="2305.8" height="24.65"/>
            </clipPath>
<clipPath id="terminal-1826578972-line-22">
    <rect x="0" y="538.3" width="2305.8" height="24.65"/>
            </clipPath>
<clipPath id="terminal-1826578972-line-23">
    <rect x="0" y="562.7" width="2305.8" height="24.65"/>
            </clipPath>
<clipPath id="terminal-1826578972-line-24">
    <rect x="0" y="587.1" width="2305.8" height="24.65"/>
            </clipPath>
<clipPath id="terminal-1826578972-line-25">
    <rect x="0" y="611.5" width="2305.8" height="24.65"/>
            </clipPath>
<clipPath id="terminal-1826578972-line-26">
    <rect x="0" y="635.9" width="2305.8" height="24.65"/>
            </clipPath>
<clipPath id="terminal-1826578972-line-27">
    <rect x="0" y="660.3" width="2305.8" height="24.65"/>
            </clipPath>
<clipPath id="terminal-1826578972-line-28">
    <rect x="0" y="684.7" width="2305.8" height="24.65"/>
            </clipPath>
<clipPath id="terminal-1826578972-line-29">
    <rect x="0" y="709.1" width="2305.8" height="24.65"/>
            </clipPath>
<clipPath id="terminal-1826578972-line-30">
    <rect x="0" y="733.5" width="2305.8" height="24.65"/>
            </clipPath>
<clipPath id="terminal-1826578972-line-31">
    <rect x="0" y="757.9" width="2305.8" height="24.65"/>
            </clipPath>
    </defs>

    <rect fill="#292929" stroke="rgba(255,255,255,0.35)" stroke-width="1" x="1" y="1" width="2322" height="853.2" rx="8"/><text class="terminal-1826578972-title" fill="#c5c8c6" text-anchor="middle" x="1161" y="27">Output&#160;Of&#160;Multiple&#160;Well&#160;Known&#160;Unix&#160;Commands</text>
            <g transform="translate(26,22)">
            <circle cx="0" cy="0" r="7" fill="#ff5f57"/>
            <circle cx="22" cy="0" r="7" fill="#febc2e"/>
            <circle cx="44" cy="0" r="7" fill="#28c840"/>
            </g>
        
    <g transform="translate(9, 41)" clip-path="url(#terminal-1826578972-clip-terminal)">
    <rect fill="#282828" x="0" y="1.5" width="12.2" height="24.65" shape-rendering="crispEdges"/><rect fill="#282828" x="12.2" y="1.5" width="12.2" height="24.65" shape-rendering="crispEdges"/><rect fill="#282828" x="24.4" y="1.5" width="61" height="24.65" shape-rendering="crispEdges"/><rect fill="#282828" x="85.4" y="1.5" width="12.2" height="24.65" shape-rendering="crispEdges"/><rect fill="#282828" x="97.6" y="1.5" width="634.4" height="24.65" shape-rendering="crispEdges"/><rect fill="#282828" x="732" y="1.5" width="561.2" height="24.65" shape-rendering="crispEdges"/><rect fill="#282828" x="1293.2" y="1.5" width="244" height="24.65" shape-rendering="crispEdges"/><rect fill="#282828" x="1537.2" y="1.5" width="646.6" height="24.65" shape-rendering="crispEdges"/><rect fill="#282828" x="2183.8" y="1.5" width="12.2" height="24.65" shape-rendering="crispEdges"/><rect fill="#282828" x="2196" y="1.5" width="0" height="24.65" shape-rendering="crispEdges"/><rect fill="#282828" x="2196" y="1.5" width="97.6" height="24.65" shape-rendering="crispEdges"/><rect fill="#282828" x="2293.6" y="1.5" width="12.2" height="24.65" shape-rendering="crispEdges"/><rect fill="#262626" x="0" y="25.9" width="12.2" height="24.65" shape-rendering="crispEdges"/><rect fill="#262626" x="12.2" y="25.9" width="2281.4" height="24.65" shape-rendering="crispEdges"/><rect fill="#262626" x="2293.6" y="25.9" width="12.2" height="24.65" shape-rendering="crispEdges"/><rect fill="#262626" x="0" y="50.3" width="12.2" height="24.65" shape-rendering="crispEdges"/><rect fill="#262626" x="12.2" y="50.3" width="2281.4" height="24.65" shape-rendering="crispEdges"/><rect fill="#262626" x="2293.6" y="50.3" width="12.2" height="24.65" shape-rendering="crispEdges"/><rect fill="#262626" x="0" y="74.7" width="12.2" height="24.65" shape-rendering="crispEdges"/><rect fill="#262626" x="12.2" y="74.7" width="12.2" height="24.65" shape-rendering="crispEdges"/><rect fill="#0178d4" x="24.4" y="74.7" width="12.2" height="24.65" shape-rendering="crispEdges"/><rect fill="#575757" x="36.6" y="74.7" width="12.2" height="24.65" shape-rendering="crispEdges"/><rect fill="#0178d4" x="48.8" y="74.7" width="12.2" height="24.65" shape-rendering="crispEdges"/><rect fill="#0178d4" x="61" y="74.7" width="12.2" height="24.65" shape-rendering="crispEdges"/><rect fill="#0178d4" x="73.2" y="74.7" width="48.8" height="24.65" shape-rendering="crispEdges"/><rect fill="#0178d4" x="122" y="74.7" width="2159.4" height="24.65" shape-rendering="crispEdges"/><rect fill="#262626" x="2281.4" y="74.7" width="12.2" height="24.65" shape-rendering="crispEdges"/><rect fill="#262626" x="2293.6" y="74.7" width="12.2" height="24.65" shape-rendering="crispEdges"/><rect fill="#262626" x="0" y="99.1" width="12.2" height="24.65" shape-rendering="crispEdges"/><rect fill="#262626" x="12.2" y="99.1" width="12.2" height="24.65" shape-rendering="crispEdges"/><rect fill="#262626" x="24.4" y="99.1" width="12.2" height="24.65" shape-rendering="crispEdges"/><rect fill="#575757" x="36.6" y="99.1" width="12.2" height="24.65" shape-rendering="crispEdges"/><rect fill="#262626" x="48.8" y="99.1" width="12.2" height="24.65" shape-rendering="crispEdges"/><rect fill="#262626" x="61" y="99.1" width="12.2" height="24.65" shape-rendering="crispEdges"/><rect fill="#262626" x="73.2" y="99.1" width="61" height="24.65" shape-rendering="crispEdges"/><rect fill="#262626" x="134.2" y="99.1" width="2147.2" height="24.65" shape-rendering="crispEdges"/><rect fill="#262626" x="2281.4" y="99.1" width="12.2" height="24.65" shape-rendering="crispEdges"/><rect fill="#262626" x="2293.6" y="99.1" width="12.2" height="24.65" shape-rendering="crispEdges"/><rect fill="#262626" x="0" y="123.5" width="12.2" height="24.65" shape-rendering="crispEdges"/><rect fill="#262626" x="12.2" y="123.5" width="12.2" height="24.65" shape-rendering="crispEdges"/><rect fill="#262626" x="24.4" y="123.5" width="12.2" height="24.65" shape-rendering="crispEdges"/><rect fill="#575757" x="36.6" y="123.5" width="12.2" height="24.65" shape-rendering="crispEdges"/><rect fill="#262626" x="48.8" y="123.5" width="12.2" height="24.65" shape-rendering="crispEdges"/><rect fill="#262626" x="61" y="123.5" width="12.2" height="24.65" shape-rendering="crispEdges"/><rect fill="#262626" x="73.2" y="123.5" width="61" height="24.65" shape-rendering="crispEdges"/><rect fill="#262626" x="134.2" y="123.5" width="2147.2" height="24.65" shape-rendering="crispEdges"/><rect fill="#262626" x="2281.4" y="123.5" width="12.2" height="24.65" shape-rendering="crispEdges"/><rect fill="#262626" x="2293.6" y="123.5" width="12.2" height="24.65" shape-rendering="crispEdges"/><rect fill="#262626" x="0" y="147.9" width="12.2" height="24.65" shape-rendering="crispEdges"/><rect fill="#262626" x="12.2" y="147.9" width="12.2" height="24.65" shape-rendering="crispEdges"/><rect fill="#262626" x="24.4" y="147.9" width="12.2" height="24.65" shape-rendering="crispEdges"/><rect fill="#575757" x="36.6" y="147.9" width="12.2" height="24.65" shape-rendering="crispEdges"/><rect fill="#262626" x="48.8" y="147.9" width="12.2" height="24.65" shape-rendering="crispEdges"/><rect fill="#262626" x="61" y="147.9" width="12.2" height="24.65" shape-rendering="crispEdges"/><rect fill="#262626" x="73.2" y="147.9" width="97.6" height="24.65" shape-rendering="crispEdges"/><rect fill="#262626" x="170.8" y="147.9" width="2110.6" height="24.65" shape-rendering="crispEdges"/><rect fill="#262626" x="2281.4" y="147.9" width="12.2" height="24.65" shape-rendering="crispEdges"/><rect fill="#262626" x="2293.6" y="147.9" width="12.2" height="24.65" shape-rendering="crispEdges"/><rect fill="#262626" x="0" y="172.3" width="12.2" height="24.65" shape-rendering="crispEdges"/><rect fill="#262626" x="12.2" y="172.3" width="12.2" height="24.65" shape-rendering="crispEdges"/><rect fill="#262626" x="24.4" y="172.3" width="2257" height="24.65" shape-rendering="crispEdges"/><rect fill="#262626" x="2281.4" y="172.3" width="12.2" height="24.65" shape-rendering="crispEdges"/><rect fill="#262626" x="2293.6" y="172.3" width="12.2" height="24.65" shape-rendering="crispEdges"/><rect fill="#262626" x="0" y="196.7" width="12.2" height="24.65" shape-rendering="crispEdges"/><rect fill="#262626" x="12.2" y="196.7" width="12.2" height="24.65" shape-rendering="crispEdges"/><rect fill="#262626" x="24.4" y="196.7" width="2257" height="24.65" shape-rendering="crispEdges"/><rect fill="#262626" x="2281.4" y="196.7" width="12.2" height="24.65" shape-rendering="crispEdges"/><rect fill="#262626" x="2293.6" y="196.7" width="12.2" height="24.65" shape-rendering="crispEdges"/><rect fill="#262626" x="0" y="221.1" width="12.2" height="24.65" shape-rendering="crispEdges"/><rect fill="#262626" x="12.2" y="221.1" width="12.2" height="24.65" shape-rendering="crispEdges"/><rect fill="#262626" x="24.4" y="221.1" width="2257" height="24.65" shape-rendering="crispEdges"/><rect fill="#262626" x="2281.4" y="221.1" width="12.2" height="24.65" shape-rendering="crispEdges"/><rect fill="#262626" x="2293.6" y="221.1" width="12.2" height="24.65" shape-rendering="crispEdges"/><rect fill="#262626" x="0" y="245.5" width="12.2" height="24.65" shape-rendering="crispEdges"/><rect fill="#262626" x="12.2" y="245.5" width="12.2" height="24.65" shape-rendering="crispEdges"/><rect fill="#262626" x="24.4" y="245.5" width="2257" height="24.65" shape-rendering="crispEdges"/><rect fill="#262626" x="2281.4" y="245.5" width="12.2" height="24.65" shape-rendering="crispEdges"/><rect fill="#262626" x="2293.6" y="245.5" width="12.2" height="24.65" shape-rendering="crispEdges"/><rect fill="#262626" x="0" y="269.9" width="12.2" height="24.65" shape-rendering="crispEdges"/><rect fill="#262626" x="12.2" y="269.9" width="12.2" height="24.65" shape-rendering="crispEdges"/><rect fill="#262626" x="24.4" y="269.9" width="2257" height="24.65" shape-rendering="crispEdges"/><rect fill="#262626" x="2281.4" y="269.9" width="12.2" height="24.65" shape-rendering="crispEdges"/><rect fill="#262626" x="2293.6" y="269.9" width="12.2" height="24.65" shape-rendering="crispEdges"/><rect fill="#262626" x="0" y="294.3" width="12.2" height="24.65" shape-rendering="crispEdges"/><rect fill="#262626" x="12.2" y="294.3" width="12.2" height="24.65" shape-rendering="crispEdges"/><rect fill="#262626" x="24.4" y="294.3" width="2257" height="24.65" shape-rendering="crispEdges"/><rect fill="#262626" x="2281.4" y="294.3" width="12.2" height="24.65" shape-rendering="crispEdges"/><rect fill="#262626" x="2293.6" y="294.3" width="12.2" height="24.65" shape-rendering="crispEdges"/><rect fill="#262626" x="0" y="318.7" width="12.2" height="24.65" shape-rendering="crispEdges"/><rect fill="#262626" x="12.2" y="318.7" width="12.2" height="24.65" shape-rendering="crispEdges"/><rect fill="#262626" x="24.4" y="318.7" width="2257" height="24.65" shape-rendering="crispEdges"/><rect fill="#262626" x="2281.4" y="318.7" width="12.2" height="24.65" shape-rendering="crispEdges"/><rect fill="#262626" x="2293.6" y="318.7" width="12.2" height="24.65" shape-rendering="crispEdges"/><rect fill="#262626" x="0" y="343.1" width="12.2" height="24.65" shape-rendering="crispEdges"/><rect fill="#262626" x="12.2" y="343.1" width="12.2" height="24.65" shape-rendering="crispEdges"/><rect fill="#262626" x="24.4" y="343.1" width="2257" height="24.65" shape-rendering="crispEdges"/><rect fill="#262626" x="2281.4" y="343.1" width="12.2" height="24.65" shape-rendering="crispEdges"/><rect fill="#262626" x="2293.6" y="343.1" width="12.2" height="24.65" shape-rendering="crispEdges"/><rect fill="#262626" x="0" y="367.5" width="12.2" height="24.65" shape-rendering="crispEdges"/><rect fill="#262626" x="12.2" y="367.5" width="12.2" height="24.65" shape-rendering="crispEdges"/><rect fill="#262626" x="24.4" y="367.5" width="2257" height="24.65" shape-rendering="crispEdges"/><rect fill="#262626" x="2281.4" y="367.5" width="12.2" height="24.65" shape-rendering="crispEdges"/><rect fill="#262626" x="2293.6" y="367.5" width="12.2" height="24.65" shape-rendering="crispEdges"/><rect fill="#262626" x="0" y="391.9" width="12.2" height="24.65" shape-rendering="crispEdges"/><rect fill="#262626" x="12.2" y="391.9" width="12.2" height="24.65" shape-rendering="crispEdges"/><rect fill="#262626" x="24.4" y="391.9" width="2257" height="24.65" shape-rendering="crispEdges"/><rect fill="#262626" x="2281.4" y="391.9" width="12.2" height="24.65" shape-rendering="crispEdges"/><rect fill="#262626" x="2293.6" y="391.9" width="12.2" height="24.65" shape-rendering="crispEdges"/><rect fill="#262626" x="0" y="416.3" width="12.2" height="24.65" shape-rendering="crispEdges"/><rect fill="#262626" x="12.2" y="416.3" width="12.2" height="24.65" shape-rendering="crispEdges"/><rect fill="#262626" x="24.4" y="416.3" width="2257" height="24.65" shape-rendering="crispEdges"/><rect fill="#262626" x="2281.4" y="416.3" width="12.2" height="24.65" shape-rendering="crispEdges"/><rect fill="#262626" x="2293.6" y="416.3" width="12.2" height="24.65" shape-rendering="crispEdges"/><rect fill="#262626" x="0" y="440.7" width="12.2" height="24.65" shape-rendering="crispEdges"/><rect fill="#262626" x="12.2" y="440.7" width="12.2" height="24.65" shape-rendering="crispEdges"/><rect fill="#262626" x="24.4" y="440.7" width="2257" height="24.65" shape-rendering="crispEdges"/><rect fill="#262626" x="2281.4" y="440.7" width="12.2" height="24.65" shape-rendering="crispEdges"/><rect fill="#262626" x="2293.6" y="440.7" width="12.2" height="24.65" shape-rendering="crispEdges"/><rect fill="#262626" x="0" y="465.1" width="12.2" height="24.65" shape-rendering="crispEdges"/><rect fill="#262626" x="12.2" y="465.1" width="12.2" height="24.65" shape-rendering="crispEdges"/><rect fill="#262626" x="24.4" y="465.1" width="2257" height="24.65" shape-rendering="crispEdges"/><rect fill="#262626" x="2281.4" y="465.1" width="12.2" height="24.65" shape-rendering="crispEdges"/><rect fill="#262626" x="2293.6" y="465.1" width="12.2" height="24.65" shape-rendering="crispEdges"/><rect fill="#262626" x="0" y="489.5" width="12.2" height="24.65" shape-rendering="crispEdges"/><rect fill="#262626" x="12.2" y="489.5" width="12.2" height="24.65" shape-rendering="crispEdges"/><rect fill="#262626" x="24.4" y="489.5" width="2257" height="24.65" shape-rendering="crispEdges"/><rect fill="#262626" x="2281.4" y="489.5" width="12.2" height="24.65" shape-rendering="crispEdges"/><rect fill="#262626" x="2293.6" y="489.5" width="12.2" height="24.65" shape-rendering="crispEdges"/><rect fill="#262626" x="0" y="513.9" width="12.2" height="24.65" shape-rendering="crispEdges"/><rect fill="#262626" x="12.2" y="513.9" width="12.2" height="24.65" shape-rendering="crispEdges"/><rect fill="#262626" x="24.4" y="513.9" width="2257" height="24.65" shape-rendering="crispEdges"/><rect fill="#262626" x="2281.4" y="513.9" width="12.2" height="24.65" shape-rendering="crispEdges"/><rect fill="#262626" x="2293.6" y="513.9" width="12.2" height="24.65" shape-rendering="crispEdges"/><rect fill="#262626" x="0" y="538.3" width="12.2" height="24.65" shape-rendering="crispEdges"/><rect fill="#262626" x="12.2" y="538.3" width="12.2" height="24.65" shape-rendering="crispEdges"/><rect fill="#262626" x="24.4" y="538.3" width="2257" height="24.65" shape-rendering="crispEdges"/><rect fill="#262626" x="2281.4" y="538.3" width="12.2" height="24.65" shape-rendering="crispEdges"/><rect fill="#262626" x="2293.6" y="538.3" width="12.2" height="24.65" shape-rendering="crispEdges"/><rect fill="#262626" x="0" y="562.7" width="12.2" height="24.65" shape-rendering="crispEdges"/><rect fill="#262626" x="12.2" y="562.7" width="12.2" height="24.65" shape-rendering="crispEdges"/><rect fill="#262626" x="24.4" y="562.7" width="2257" height="24.65" shape-rendering="crispEdges"/><rect fill="#262626" x="2281.4" y="562.7" width="12.2" height="24.65" shape-rendering="crispEdges"/><rect fill="#262626" x="2293.6" y="562.7" width="12.2" height="24.65" shape-rendering="crispEdges"/><rect fill="#262626" x="0" y="587.1" width="12.2" height="24.65" shape-rendering="crispEdges"/><rect fill="#262626" x="12.2" y="587.1" width="2281.4" height="24.65" shape-rendering="crispEdges"/><rect fill="#262626" x="2293.6" y="587.1" width="12.2" height="24.65" shape-rendering="crispEdges"/><rect fill="#262626" x="0" y="611.5" width="12.2" height="24.65" shape-rendering="crispEdges"/><rect fill="#262626" x="12.2" y="611.5" width="2281.4" height="24.65" shape-rendering="crispEdges"/><rect fill="#262626" x="2293.6" y="611.5" width="12.2" height="24.65" shape-rendering="crispEdges"/><rect fill="#004578" x="0" y="635.9" width="2305.8" height="24.65" shape-rendering="crispEdges"/><rect fill="#004578" x="0" y="660.3" width="1024.8" height="24.65" shape-rendering="crispEdges"/><rect fill="#004578" x="1024.8" y="660.3" width="12.2" height="24.65" shape-rendering="crispEdges"/><rect fill="#004578" x="1037" y="660.3" width="219.6" height="24.65" shape-rendering="crispEdges"/><rect fill="#004578" x="1256.6" y="660.3" width="12.2" height="24.65" shape-rendering="crispEdges"/><rect fill="#004578" x="1268.8" y="660.3" width="1037" height="24.65" shape-rendering="crispEdges"/><rect fill="#004578" x="0" y="684.7" width="2305.8" height="24.65" shape-rendering="crispEdges"/><rect fill="#1e1e1e" x="0" y="709.1" width="2305.8" height="24.65" shape-rendering="crispEdges"/><rect fill="#1e1e1e" x="0" y="733.5" width="2305.8" height="24.65" shape-rendering="crispEdges"/><rect fill="#1e1e1e" x="0" y="757.9" width="2305.8" height="24.65" shape-rendering="crispEdges"/><rect fill="#0053aa" x="0" y="782.3" width="36.6" height="24.65" shape-rendering="crispEdges"/><rect fill="#0178d4" x="36.6" y="782.3" width="73.2" height="24.65" shape-rendering="crispEdges"/><rect fill="#0178d4" x="109.8" y="782.3" width="2196" height="24.65" shape-rendering="crispEdges"/>
    <g class="terminal-1826578972-matrix">
    <text class="terminal-1826578972-r2" x="12.2" y="20" textLength="12.2" clip-path="url(#terminal-1826578972-line-0)">⭘</text><text class="terminal-1826578972-r2" x="732" y="20" textLength="561.2" clip-path="url(#terminal-1826578972-line-0)">Output&#160;Of&#160;Multiple&#160;Well&#160;Known&#160;Unix&#160;Commands&#160;—&#160;</text><text class="terminal-1826578972-r3" x="1293.2" y="20" textLength="244" clip-path="url(#terminal-1826578972-line-0)">4&#160;commands&#160;available</text><text class="terminal-1826578972-r1" x="2305.8" y="20" textLength="12.2" clip-path="url(#terminal-1826578972-line-0)">
</text><text class="terminal-1826578972-r4" x="0" y="44.4" textLength="12.2" clip-path="url(#terminal-1826578972-line-1)">┌</text><text class="terminal-1826578972-r4" x="12.2" y="44.4" textLength="2281.4" clip-path="url(#terminal-1826578972-line-1)">───────────────────────────────────────────────────────────────────────────────────────────────────────────────────────────────────────────────────────────────────────────────────────────</text><text class="terminal-1826578972-r4" x="2293.6" y="44.4" textLength="12.2" clip-path="url(#terminal-1826578972-line-1)">┐</text><text class="terminal-1826578972-r1" x="2305.8" y="44.4" textLength="12.2" clip-path="url(#terminal-1826578972-line-1)">
</text><text class="terminal-1826578972-r4" x="0" y="68.8" textLength="12.2" clip-path="url(#terminal-1826578972-line-2)">│</text><text class="terminal-1826578972-r4" x="2293.6" y="68.8" textLength="12.2" clip-path="url(#terminal-1826578972-line-2)">│</text><text class="terminal-1826578972-r1" x="2305.8" y="68.8" textLength="12.2" clip-path="url(#terminal-1826578972-line-2)">
</text><text class="terminal-1826578972-r4" x="0" y="93.2" textLength="12.2" clip-path="url(#terminal-1826578972-line-3)">│</text><text class="terminal-1826578972-r5" x="24.4" y="93.2" textLength="12.2" clip-path="url(#terminal-1826578972-line-3)">▐</text><text class="terminal-1826578972-r6" x="36.6" y="93.2" textLength="12.2" clip-path="url(#terminal-1826578972-line-3)">X</text><text class="terminal-1826578972-r5" x="48.8" y="93.2" textLength="12.2" clip-path="url(#terminal-1826578972-line-3)">▌</text><text class="terminal-1826578972-r7" x="73.2" y="93.2" textLength="48.8" clip-path="url(#terminal-1826578972-line-3)">Lshw</text><text class="terminal-1826578972-r4" x="2293.6" y="93.2" textLength="12.2" clip-path="url(#terminal-1826578972-line-3)">│</text><text class="terminal-1826578972-r1" x="2305.8" y="93.2" textLength="12.2" clip-path="url(#terminal-1826578972-line-3)">
</text><text class="terminal-1826578972-r4" x="0" y="117.6" textLength="12.2" clip-path="url(#terminal-1826578972-line-4)">│</text><text class="terminal-1826578972-r5" x="24.4" y="117.6" textLength="12.2" clip-path="url(#terminal-1826578972-line-4)">▐</text><text class="terminal-1826578972-r6" x="36.6" y="117.6" textLength="12.2" clip-path="url(#terminal-1826578972-line-4)">X</text><text class="terminal-1826578972-r5" x="48.8" y="117.6" textLength="12.2" clip-path="url(#terminal-1826578972-line-4)">▌</text><text class="terminal-1826578972-r8" x="73.2" y="117.6" textLength="61" clip-path="url(#terminal-1826578972-line-4)">Lscpu</text><text class="terminal-1826578972-r4" x="2293.6" y="117.6" textLength="12.2" clip-path="url(#terminal-1826578972-line-4)">│</text><text class="terminal-1826578972-r1" x="2305.8" y="117.6" textLength="12.2" clip-path="url(#terminal-1826578972-line-4)">
</text><text class="terminal-1826578972-r4" x="0" y="142" textLength="12.2" clip-path="url(#terminal-1826578972-line-5)">│</text><text class="terminal-1826578972-r5" x="24.4" y="142" textLength="12.2" clip-path="url(#terminal-1826578972-line-5)">▐</text><text class="terminal-1826578972-r6" x="36.6" y="142" textLength="12.2" clip-path="url(#terminal-1826578972-line-5)">X</text><text class="terminal-1826578972-r5" x="48.8" y="142" textLength="12.2" clip-path="url(#terminal-1826578972-line-5)">▌</text><text class="terminal-1826578972-r8" x="73.2" y="142" textLength="61" clip-path="url(#terminal-1826578972-line-5)">Lsmem</text><text class="terminal-1826578972-r4" x="2293.6" y="142" textLength="12.2" clip-path="url(#terminal-1826578972-line-5)">│</text><text class="terminal-1826578972-r1" x="2305.8" y="142" textLength="12.2" clip-path="url(#terminal-1826578972-line-5)">
</text><text class="terminal-1826578972-r4" x="0" y="166.4" textLength="12.2" clip-path="url(#terminal-1826578972-line-6)">│</text><text class="terminal-1826578972-r5" x="24.4" y="166.4" textLength="12.2" clip-path="url(#terminal-1826578972-line-6)">▐</text><text class="terminal-1826578972-r6" x="36.6" y="166.4" textLength="12.2" clip-path="url(#terminal-1826578972-line-6)">X</text><text class="terminal-1826578972-r5" x="48.8" y="166.4" textLength="12.2" clip-path="url(#terminal-1826578972-line-6)">▌</text><text class="terminal-1826578972-r8" x="73.2" y="166.4" textLength="97.6" clip-path="url(#terminal-1826578972-line-6)">Numastat</text><text class="terminal-1826578972-r4" x="2293.6" y="166.4" textLength="12.2" clip-path="url(#terminal-1826578972-line-6)">│</text><text class="terminal-1826578972-r1" x="2305.8" y="166.4" textLength="12.2" clip-path="url(#terminal-1826578972-line-6)">
</text><text class="terminal-1826578972-r4" x="0" y="190.8" textLength="12.2" clip-path="url(#terminal-1826578972-line-7)">│</text><text class="terminal-1826578972-r4" x="2293.6" y="190.8" textLength="12.2" clip-path="url(#terminal-1826578972-line-7)">│</text><text class="terminal-1826578972-r1" x="2305.8" y="190.8" textLength="12.2" clip-path="url(#terminal-1826578972-line-7)">
</text><text class="terminal-1826578972-r4" x="0" y="215.2" textLength="12.2" clip-path="url(#terminal-1826578972-line-8)">│</text><text class="terminal-1826578972-r4" x="2293.6" y="215.2" textLength="12.2" clip-path="url(#terminal-1826578972-line-8)">│</text><text class="terminal-1826578972-r1" x="2305.8" y="215.2" textLength="12.2" clip-path="url(#terminal-1826578972-line-8)">
</text><text class="terminal-1826578972-r4" x="0" y="239.6" textLength="12.2" clip-path="url(#terminal-1826578972-line-9)">│</text><text class="terminal-1826578972-r4" x="2293.6" y="239.6" textLength="12.2" clip-path="url(#terminal-1826578972-line-9)">│</text><text class="terminal-1826578972-r1" x="2305.8" y="239.6" textLength="12.2" clip-path="url(#terminal-1826578972-line-9)">
</text><text class="terminal-1826578972-r4" x="0" y="264" textLength="12.2" clip-path="url(#terminal-1826578972-line-10)">│</text><text class="terminal-1826578972-r4" x="2293.6" y="264" textLength="12.2" clip-path="url(#terminal-1826578972-line-10)">│</text><text class="terminal-1826578972-r1" x="2305.8" y="264" textLength="12.2" clip-path="url(#terminal-1826578972-line-10)">
</text><text class="terminal-1826578972-r4" x="0" y="288.4" textLength="12.2" clip-path="url(#terminal-1826578972-line-11)">│</text><text class="terminal-1826578972-r4" x="2293.6" y="288.4" textLength="12.2" clip-path="url(#terminal-1826578972-line-11)">│</text><text class="terminal-1826578972-r1" x="2305.8" y="288.4" textLength="12.2" clip-path="url(#terminal-1826578972-line-11)">
</text><text class="terminal-1826578972-r4" x="0" y="312.8" textLength="12.2" clip-path="url(#terminal-1826578972-line-12)">│</text><text class="terminal-1826578972-r4" x="2293.6" y="312.8" textLength="12.2" clip-path="url(#terminal-1826578972-line-12)">│</text><text class="terminal-1826578972-r1" x="2305.8" y="312.8" textLength="12.2" clip-path="url(#terminal-1826578972-line-12)">
</text><text class="terminal-1826578972-r4" x="0" y="337.2" textLength="12.2" clip-path="url(#terminal-1826578972-line-13)">│</text><text class="terminal-1826578972-r4" x="2293.6" y="337.2" textLength="12.2" clip-path="url(#terminal-1826578972-line-13)">│</text><text class="terminal-1826578972-r1" x="2305.8" y="337.2" textLength="12.2" clip-path="url(#terminal-1826578972-line-13)">
</text><text class="terminal-1826578972-r4" x="0" y="361.6" textLength="12.2" clip-path="url(#terminal-1826578972-line-14)">│</text><text class="terminal-1826578972-r4" x="2293.6" y="361.6" textLength="12.2" clip-path="url(#terminal-1826578972-line-14)">│</text><text class="terminal-1826578972-r1" x="2305.8" y="361.6" textLength="12.2" clip-path="url(#terminal-1826578972-line-14)">
</text><text class="terminal-1826578972-r4" x="0" y="386" textLength="12.2" clip-path="url(#terminal-1826578972-line-15)">│</text><text class="terminal-1826578972-r4" x="2293.6" y="386" textLength="12.2" clip-path="url(#terminal-1826578972-line-15)">│</text><text class="terminal-1826578972-r1" x="2305.8" y="386" textLength="12.2" clip-path="url(#terminal-1826578972-line-15)">
</text><text class="terminal-1826578972-r4" x="0" y="410.4" textLength="12.2" clip-path="url(#terminal-1826578972-line-16)">│</text><text class="terminal-1826578972-r4" x="2293.6" y="410.4" textLength="12.2" clip-path="url(#terminal-1826578972-line-16)">│</text><text class="terminal-1826578972-r1" x="2305.8" y="410.4" textLength="12.2" clip-path="url(#terminal-1826578972-line-16)">
</text><text class="terminal-1826578972-r4" x="0" y="434.8" textLength="12.2" clip-path="url(#terminal-1826578972-line-17)">│</text><text class="terminal-1826578972-r4" x="2293.6" y="434.8" textLength="12.2" clip-path="url(#terminal-1826578972-line-17)">│</text><text class="terminal-1826578972-r1" x="2305.8" y="434.8" textLength="12.2" clip-path="url(#terminal-1826578972-line-17)">
</text><text class="terminal-1826578972-r4" x="0" y="459.2" textLength="12.2" clip-path="url(#terminal-1826578972-line-18)">│</text><text class="terminal-1826578972-r4" x="2293.6" y="459.2" textLength="12.2" clip-path="url(#terminal-1826578972-line-18)">│</text><text class="terminal-1826578972-r1" x="2305.8" y="459.2" textLength="12.2" clip-path="url(#terminal-1826578972-line-18)">
</text><text class="terminal-1826578972-r4" x="0" y="483.6" textLength="12.2" clip-path="url(#terminal-1826578972-line-19)">│</text><text class="terminal-1826578972-r4" x="2293.6" y="483.6" textLength="12.2" clip-path="url(#terminal-1826578972-line-19)">│</text><text class="terminal-1826578972-r1" x="2305.8" y="483.6" textLength="12.2" clip-path="url(#terminal-1826578972-line-19)">
</text><text class="terminal-1826578972-r4" x="0" y="508" textLength="12.2" clip-path="url(#terminal-1826578972-line-20)">│</text><text class="terminal-1826578972-r4" x="2293.6" y="508" textLength="12.2" clip-path="url(#terminal-1826578972-line-20)">│</text><text class="terminal-1826578972-r1" x="2305.8" y="508" textLength="12.2" clip-path="url(#terminal-1826578972-line-20)">
</text><text class="terminal-1826578972-r4" x="0" y="532.4" textLength="12.2" clip-path="url(#terminal-1826578972-line-21)">│</text><text class="terminal-1826578972-r4" x="2293.6" y="532.4" textLength="12.2" clip-path="url(#terminal-1826578972-line-21)">│</text><text class="terminal-1826578972-r1" x="2305.8" y="532.4" textLength="12.2" clip-path="url(#terminal-1826578972-line-21)">
</text><text class="terminal-1826578972-r4" x="0" y="556.8" textLength="12.2" clip-path="url(#terminal-1826578972-line-22)">│</text><text class="terminal-1826578972-r4" x="2293.6" y="556.8" textLength="12.2" clip-path="url(#terminal-1826578972-line-22)">│</text><text class="terminal-1826578972-r1" x="2305.8" y="556.8" textLength="12.2" clip-path="url(#terminal-1826578972-line-22)">
</text><text class="terminal-1826578972-r4" x="0" y="581.2" textLength="12.2" clip-path="url(#terminal-1826578972-line-23)">│</text><text class="terminal-1826578972-r4" x="2293.6" y="581.2" textLength="12.2" clip-path="url(#terminal-1826578972-line-23)">│</text><text class="terminal-1826578972-r1" x="2305.8" y="581.2" textLength="12.2" clip-path="url(#terminal-1826578972-line-23)">
</text><text class="terminal-1826578972-r4" x="0" y="605.6" textLength="12.2" clip-path="url(#terminal-1826578972-line-24)">│</text><text class="terminal-1826578972-r4" x="2293.6" y="605.6" textLength="12.2" clip-path="url(#terminal-1826578972-line-24)">│</text><text class="terminal-1826578972-r1" x="2305.8" y="605.6" textLength="12.2" clip-path="url(#terminal-1826578972-line-24)">
</text><text class="terminal-1826578972-r4" x="0" y="630" textLength="12.2" clip-path="url(#terminal-1826578972-line-25)">└</text><text class="terminal-1826578972-r4" x="12.2" y="630" textLength="2281.4" clip-path="url(#terminal-1826578972-line-25)">───────────────────────────────────────────────────────────────────────────────────────────────────────────────────────────────────────────────────────────────────────────────────────────</text><text class="terminal-1826578972-r4" x="2293.6" y="630" textLength="12.2" clip-path="url(#terminal-1826578972-line-25)">┘</text><text class="terminal-1826578972-r1" x="2305.8" y="630" textLength="12.2" clip-path="url(#terminal-1826578972-line-25)">
</text><text class="terminal-1826578972-r9" x="0" y="654.4" textLength="2305.8" clip-path="url(#terminal-1826578972-line-26)">▔▔▔▔▔▔▔▔▔▔▔▔▔▔▔▔▔▔▔▔▔▔▔▔▔▔▔▔▔▔▔▔▔▔▔▔▔▔▔▔▔▔▔▔▔▔▔▔▔▔▔▔▔▔▔▔▔▔▔▔▔▔▔▔▔▔▔▔▔▔▔▔▔▔▔▔▔▔▔▔▔▔▔▔▔▔▔▔▔▔▔▔▔▔▔▔▔▔▔▔▔▔▔▔▔▔▔▔▔▔▔▔▔▔▔▔▔▔▔▔▔▔▔▔▔▔▔▔▔▔▔▔▔▔▔▔▔▔▔▔▔▔▔▔▔▔▔▔▔▔▔▔▔▔▔▔▔▔▔▔▔▔▔▔▔▔▔▔▔▔▔▔▔▔▔▔▔▔▔▔▔▔▔▔▔▔▔▔▔</text><text class="terminal-1826578972-r1" x="2305.8" y="654.4" textLength="12.2" clip-path="url(#terminal-1826578972-line-26)">
</text><text class="terminal-1826578972-r10" x="1037" y="678.8" textLength="219.6" clip-path="url(#terminal-1826578972-line-27)">Execute&#160;4&#160;commands</text><text class="terminal-1826578972-r1" x="2305.8" y="678.8" textLength="12.2" clip-path="url(#terminal-1826578972-line-27)">
</text><text class="terminal-1826578972-r11" x="0" y="703.2" textLength="2305.8" clip-path="url(#terminal-1826578972-line-28)">▁▁▁▁▁▁▁▁▁▁▁▁▁▁▁▁▁▁▁▁▁▁▁▁▁▁▁▁▁▁▁▁▁▁▁▁▁▁▁▁▁▁▁▁▁▁▁▁▁▁▁▁▁▁▁▁▁▁▁▁▁▁▁▁▁▁▁▁▁▁▁▁▁▁▁▁▁▁▁▁▁▁▁▁▁▁▁▁▁▁▁▁▁▁▁▁▁▁▁▁▁▁▁▁▁▁▁▁▁▁▁▁▁▁▁▁▁▁▁▁▁▁▁▁▁▁▁▁▁▁▁▁▁▁▁▁▁▁▁▁▁▁▁▁▁▁▁▁▁▁▁▁▁▁▁▁▁▁▁▁▁▁▁▁▁▁▁▁▁▁▁▁▁▁▁▁▁▁▁▁▁▁▁▁▁▁▁▁▁</text><text class="terminal-1826578972-r1" x="2305.8" y="703.2" textLength="12.2" clip-path="url(#terminal-1826578972-line-28)">
</text><text class="terminal-1826578972-r1" x="2305.8" y="727.6" textLength="12.2" clip-path="url(#terminal-1826578972-line-29)">
</text><text class="terminal-1826578972-r1" x="2305.8" y="752" textLength="12.2" clip-path="url(#terminal-1826578972-line-30)">
</text><text class="terminal-1826578972-r1" x="2305.8" y="776.4" textLength="12.2" clip-path="url(#terminal-1826578972-line-31)">
</text><text class="terminal-1826578972-r13" x="0" y="800.8" textLength="36.6" clip-path="url(#terminal-1826578972-line-32)">&#160;Q&#160;</text><text class="terminal-1826578972-r14" x="36.6" y="800.8" textLength="73.2" clip-path="url(#terminal-1826578972-line-32)">&#160;Quit&#160;</text>
    </g>
    </g>
</svg>
