<svg xmlns="http://www.w3.org/2000/svg" xmlns:xlink="http://www.w3.org/1999/xlink" width="840" height="385.65"><rect width="840" height="385.65" rx="5" ry="5" class="a"/><svg y="0%" x="0%"><circle cx="20" cy="20" r="6" fill="#ff5f58"/><circle cx="40" cy="20" r="6" fill="#ffbd2e"/><circle cx="60" cy="20" r="6" fill="#18c132"/></svg><svg height="325.65" viewBox="0 0 80 32.565" width="800" x="15" xmlns="http://www.w3.org/2000/svg" xmlns:xlink="http://www.w3.org/1999/xlink" y="50"><style>@keyframes l{0%{transform:translateX(0)}.1%{transform:translateX(-80px)}7.1%{transform:translateX(-160px)}17.3%{transform:translateX(-240px)}20.1%{transform:translateX(-320px)}22.1%{transform:translateX(-400px)}23.5%{transform:translateX(-480px)}25.5%{transform:translateX(-560px)}28.3%{transform:translateX(-640px)}37.6%{transform:translateX(-720px)}38.1%{transform:translateX(-800px)}64.7%{transform:translateX(-880px)}65.9%{transform:translateX(-960px)}71.3%{transform:translateX(-1040px)}73%{transform:translateX(-1120px)}74%{transform:translateX(-1200px)}74.3%{transform:translateX(-1280px)}76.7%{transform:translateX(-1360px)}77%{transform:translateX(-1440px)}80%{transform:translateX(-1520px)}82.5%{transform:translateX(-1600px)}82.9%{transform:translateX(-1680px)}84.7%{transform:translateX(-1760px)}86%{transform:translateX(-1840px)}88.4%{transform:translateX(-1920px)}88.7%{transform:translateX(-2000px)}89.9%{transform:translateX(-2080px)}90%{transform:translateX(-2320px)}to{transform:translateX(-2400px)}}.a{fill:#282d35}.f{fill:#a8cc8c;font-weight:700;white-space:pre}.g{fill:#b9c0cb}.g,.h,.i{white-space:pre}.h{fill:#71bef2;font-weight:700}.i{fill:#dbab79}.n{fill:#b9c0cb}.o{fill:#282d35;white-space:pre}</style><g font-family="Monaco,Consolas,Menlo,'Bitstream Vera Sans Mono','Powerline Symbols',monospace" font-size="1.67"><defs><symbol id="1"><text y="1.67" class="f">sagar@itsFOSS</text><text x="13.026" y="1.67" class="g">:</text><text x="14.028" y="1.67" class="h">~</text><text x="15.03" y="1.67" class="g">$</text></symbol><symbol id="2"><text y="1.67" class="f">sagar@itsFOSS</text><text x="13.026" y="1.67" class="g">:</text><text x="14.028" y="1.67" class="h">~</text><text x="15.03" y="1.67" class="g">$</text><text x="17.034" y="1.67" class="g">sudo</text><text x="22.044" y="1.67" class="g">apt</text><text x="26.052" y="1.67" class="g">update</text></symbol><symbol id="3"><text y="1.67" class="g">[sudo]</text><text x="7.014" y="1.67" class="g">password</text><text x="16.032" y="1.67" class="g">for</text><text x="20.04" y="1.67" class="g">sagar:</text></symbol><symbol id="4"><text y="1.67" class="i">0%</text><text x="3.006" y="1.67" class="i">[Working]</text></symbol><symbol id="5"><text y="1.67" class="g">Hit:1</text><text x="6.012" y="1.67" class="g">http://repository.spotify.com</text><text x="36.072" y="1.67" class="g">stable</text><text x="43.086" y="1.67" class="g">InRelease</text></symbol><symbol id="6"><text y="1.67" class="g">Hit:2</text><text x="6.012" y="1.67" class="g">https://dl.google.com/linux/chrome/deb</text><text x="45.09" y="1.67" class="g">stable</text><text x="52.104" y="1.67" class="g">InRelease</text></symbol><symbol id="7"><text y="1.67" class="i">0%</text><text x="3.006" y="1.67" class="i">[Waiting</text><text x="12.024" y="1.67" class="i">for</text><text x="16.032" y="1.67" class="i">headers]</text><text x="25.05" y="1.67" class="i">[Waiting</text><text x="34.068" y="1.67" class="i">for</text><text x="38.076" y="1.67" class="i">headers]</text></symbol><symbol id="8"><text y="1.67" class="g">Hit:3</text><text x="6.012" y="1.67" class="g">https://ppa.launchpadcontent.net/mkusb/ppa/ubuntu</text><text x="56.112" y="1.67" class="g">jammy</text><text x="62.124" y="1.67" class="g">InRelease</text></symbol><symbol id="9"><text y="1.67" class="i">0%</text><text x="3.006" y="1.67" class="i">[Waiting</text><text x="12.024" y="1.67" class="i">for</text><text x="16.032" y="1.67" class="i">headers]</text></symbol><symbol id="10"><text y="1.67" class="g">Hit:4</text><text x="6.012" y="1.67" class="g">http://apt.pop-os.org/proprietary</text><text x="40.08" y="1.67" class="g">jammy</text><text x="46.092" y="1.67" class="g">InRelease</text></symbol><symbol id="11"><text y="1.67" class="i">0%</text><text x="3.006" y="1.67" class="i">[Connected</text><text x="14.028" y="1.67" class="i">to</text><text x="17.034" y="1.67" class="i">ppa.launchpadcontent.net</text><text x="42.084" y="1.67" class="i">(185.125.190.52)]</text><text x="60.12" y="1.67" class="i">[Waiting</text><text x="69.138" y="1.67" class="i">for</text><text x="73.146" y="1.67" class="i">header</text></symbol><symbol id="12"><text y="1.67" class="g">Hit:5</text><text x="6.012" y="1.67" class="g">https://ppa.launchpadcontent.net/obsproject/obs-studio/ubuntu</text><text x="68.136" y="1.67" class="g">jammy</text><text x="74.148" y="1.67" class="g">InRele</text></symbol><symbol id="13"><text y="1.67" class="g">ase</text></symbol><symbol id="14"><text y="1.67" class="g">Hit:6</text><text x="6.012" y="1.67" class="g">http://apt.pop-os.org/release</text><text x="36.072" y="1.67" class="g">jammy</text><text x="42.084" y="1.67" class="g">InRelease</text></symbol><symbol id="15"><text y="1.67" class="g">Hit:7</text><text x="6.012" y="1.67" class="g">http://apt.pop-os.org/ubuntu</text><text x="35.07" y="1.67" class="g">jammy</text><text x="41.082" y="1.67" class="g">InRelease</text></symbol><symbol id="16"><text y="1.67" class="i">0%</text><text x="3.006" y="1.67" class="i">[Waiting</text><text x="12.024" y="1.67" class="i">for</text><text x="16.032" y="1.67" class="i">headers]</text><text x="24.048" y="1.67" class="g">^C</text></symbol><symbol id="a"><path fill="transparent" d="M0 0h80v15H0z"/></symbol><symbol id="b"><path fill="#6f7683" d="M0 0h1.102v2.171H0z"/></symbol></defs><path class="a" d="M0 0h80v32.565H0z"/><g style="animation-duration:7.320585s;animation-iteration-count:infinite;animation-name:l;animation-timing-function:steps(1,end)"><svg width="2480"><svg><use xlink:href="#a"/><use xlink:href="#b" x="-.004"/></svg><svg x="80"><use xlink:href="#a"/><use xlink:href="#b" x="16.996"/><use xlink:href="#1"/></svg><svg x="160"><use xlink:href="#a"/><use xlink:href="#b" x="21.996"/><text y="1.67" class="g">(reverse-i-search)`&apos;:</text></svg><svg x="240"><use xlink:href="#a"/><use xlink:href="#b" x="53.996"/><text y="1.67" class="g">(reverse-i-search)`u&apos;:</text><text x="23.046" y="1.67" class="g">systemctl</text><text x="33.066" y="1.67" class="g">reboot</text><text x="40.08" y="1.67" class="g">--firmware-set</text><path class="n" d="M54.108 0h1v2.171h-1z"/><text x="54.108" y="1.67" class="o">u</text><text x="55.11" y="1.67" class="g">p</text></svg><svg x="320"><use xlink:href="#a"/><use xlink:href="#b" x="54.996"/><text y="1.67" class="g">(reverse-i-search)`up&apos;:</text><text x="24.048" y="1.67" class="g">systemctl</text><text x="34.068" y="1.67" class="g">reboot</text><text x="41.082" y="1.67" class="g">--firmware-set</text><path class="n" d="M55.11 0h2v2.171h-2z"/><text x="55.11" y="1.67" class="o">up</text></svg><svg x="400"><use xlink:href="#a"/><use xlink:href="#b" x="33.996"/><text y="1.67" class="g">(reverse-i-search)`upd&apos;:</text><text x="25.05" y="1.67" class="g">sudo</text><text x="30.06" y="1.67" class="g">apt</text><path class="n" d="M34.068 0h3v2.171h-3z"/><text x="34.068" y="1.67" class="o">upd</text><text x="37.074" y="1.67" class="g">ate</text></svg><svg x="480"><use xlink:href="#a"/><use xlink:href="#b" x="34.996"/><text y="1.67" class="g">(reverse-i-search)`upda&apos;:</text><text x="26.052" y="1.67" class="g">sudo</text><text x="31.062" y="1.67" class="g">apt</text><path class="n" d="M35.07 0h4v2.171h-4z"/><text x="35.07" y="1.67" class="o">upda</text><text x="39.078" y="1.67" class="g">te</text></svg><svg x="560"><use xlink:href="#a"/><use xlink:href="#b" x="35.996"/><text y="1.67" class="g">(reverse-i-search)`updat&apos;:</text><text x="27.054" y="1.67" class="g">sudo</text><text x="32.064" y="1.67" class="g">apt</text><path class="n" d="M36.072 0h5v2.171h-5z"/><text x="36.072" y="1.67" class="o">updat</text><text x="41.082" y="1.67" class="g">e</text></svg><svg x="640"><use xlink:href="#a"/><use xlink:href="#b" x="36.996"/><text y="1.67" class="g">(reverse-i-search)`update&apos;:</text><text x="28.056" y="1.67" class="g">sudo</text><text x="33.066" y="1.67" class="g">apt</text><path class="n" d="M37.074 0h6v2.171h-6z"/><text x="37.074" y="1.67" class="o">update</text></svg><svg x="720"><use xlink:href="#a"/><use xlink:href="#b" x="-.004" y="2.146"/><use xlink:href="#2"/></svg><svg x="800"><use xlink:href="#a"/><use xlink:href="#b" x="26.996" y="2.146"/><use xlink:href="#2"/><use xlink:href="#3" y="2.171"/></svg><svg x="880"><use xlink:href="#a"/><use xlink:href="#b" x="-.004" y="4.317"/><use xlink:href="#2"/><use xlink:href="#3" y="2.171"/></svg><svg x="960"><use xlink:href="#a"/><use xlink:href="#b" x="11.996" y="4.317"/><use xlink:href="#2"/><use xlink:href="#3" y="2.171"/><use xlink:href="#4" y="4.342"/></svg><svg x="1040"><use xlink:href="#a"/><use xlink:href="#b" x="78.996" y="6.488"/><use xlink:href="#2"/><use xlink:href="#3" y="2.171"/><use xlink:href="#5" y="4.342"/><text y="8.183" class="i">0%</text><text x="3.006" y="8.183" class="i">[Waiting</text><text x="12.024" y="8.183" class="i">for</text><text x="16.032" y="8.183" class="i">headers]</text><text x="25.05" y="8.183" class="i">[Connected</text><text x="36.072" y="8.183" class="i">to</text><text x="39.078" y="8.183" class="i">ppa.launchpadcontent.net</text><text x="64.128" y="8.183" class="i">(185.125.190.52</text></svg><svg x="1120"><use xlink:href="#a"/><use xlink:href="#b" x="45.996" y="8.659"/><use xlink:href="#2"/><use xlink:href="#3" y="2.171"/><use xlink:href="#5" y="4.342"/><use xlink:href="#6" y="6.513"/><use xlink:href="#7" y="8.684"/></svg><svg x="1200"><use xlink:href="#a"/><use xlink:href="#b" x="45.996" y="8.659"/><use xlink:href="#2"/><use xlink:href="#3" y="2.171"/><use xlink:href="#5" y="4.342"/><use xlink:href="#6" y="6.513"/><use xlink:href="#7" y="8.684"/></svg><svg x="1280"><use xlink:href="#a"/><use xlink:href="#b" x="23.996" y="10.83"/><use xlink:href="#2"/><use xlink:href="#3" y="2.171"/><use xlink:href="#5" y="4.342"/><use xlink:href="#6" y="6.513"/><use xlink:href="#8" y="8.684"/><use xlink:href="#9" y="10.855"/></svg><svg x="1360"><use xlink:href="#a"/><use xlink:href="#b" x="58.996" y="13.001"/><use xlink:href="#2"/><use xlink:href="#3" y="2.171"/><use xlink:href="#5" y="4.342"/><use xlink:href="#6" y="6.513"/><use xlink:href="#8" y="8.684"/><use xlink:href="#10" y="10.855"/><text y="14.696" class="i">0%</text><text x="3.006" y="14.696" class="i">[Connected</text><text x="14.028" y="14.696" class="i">to</text><text x="17.034" y="14.696" class="i">ppa.launchpadcontent.net</text><text x="42.084" y="14.696" class="i">(185.125.190.52)]</text></svg><svg x="1440"><use xlink:href="#a"/><use xlink:href="#b" x="78.996" y="13.001"/><use xlink:href="#2"/><use xlink:href="#3" y="2.171"/><use xlink:href="#5" y="4.342"/><use xlink:href="#6" y="6.513"/><use xlink:href="#8" y="8.684"/><use xlink:href="#10" y="10.855"/><use xlink:href="#11" y="13.026"/></svg><svg x="1520"><use xlink:href="#a"/><use xlink:href="#b" x="78.996" y="13.001"/><use xlink:href="#2"/><use xlink:href="#3" y="2.171"/><use xlink:href="#5" y="4.342"/><use xlink:href="#6" y="6.513"/><use xlink:href="#8" y="8.684"/><use xlink:href="#10" y="10.855"/><use xlink:href="#11" y="13.026"/></svg><svg x="1600"><use xlink:href="#a"/><use xlink:href="#b" x="45.996" y="13.001"/><use xlink:href="#2"/><use xlink:href="#3" y="2.171"/><use xlink:href="#5" y="4.342"/><use xlink:href="#6" y="6.513"/><use xlink:href="#8" y="8.684"/><use xlink:href="#10" y="10.855"/><use xlink:href="#7" y="13.026"/></svg><svg x="1680"><use xlink:href="#a"/><use xlink:href="#b" x="23.996" y="17.343"/><use xlink:href="#2"/><use xlink:href="#3" y="2.171"/><use xlink:href="#5" y="4.342"/><use xlink:href="#6" y="6.513"/><use xlink:href="#8" y="8.684"/><use xlink:href="#10" y="10.855"/><use xlink:href="#12" y="13.026"/><use xlink:href="#13" y="15.197"/><use xlink:href="#9" y="17.368"/></svg><svg x="1760"><use xlink:href="#a"/><use xlink:href="#b" x="11.996" y="19.514"/><use xlink:href="#2"/><use xlink:href="#3" y="2.171"/><use xlink:href="#5" y="4.342"/><use xlink:href="#6" y="6.513"/><use xlink:href="#8" y="8.684"/><use xlink:href="#10" y="10.855"/><use xlink:href="#12" y="13.026"/><use xlink:href="#13" y="15.197"/><use xlink:href="#14" y="17.368"/><use xlink:href="#4" y="19.539"/></svg><svg x="1840"><use xlink:href="#a"/><use xlink:href="#b" x="23.996" y="19.514"/><use xlink:href="#2"/><use xlink:href="#3" y="2.171"/><use xlink:href="#5" y="4.342"/><use xlink:href="#6" y="6.513"/><use xlink:href="#8" y="8.684"/><use xlink:href="#10" y="10.855"/><use xlink:href="#12" y="13.026"/><use xlink:href="#13" y="15.197"/><use xlink:href="#14" y="17.368"/><use xlink:href="#9" y="19.539"/></svg><svg x="1920"><use xlink:href="#a"/><use xlink:href="#b" x="11.996" y="21.685"/><use xlink:href="#2"/><use xlink:href="#3" y="2.171"/><use xlink:href="#5" y="4.342"/><use xlink:href="#6" y="6.513"/><use xlink:href="#8" y="8.684"/><use xlink:href="#10" y="10.855"/><use xlink:href="#12" y="13.026"/><use xlink:href="#13" y="15.197"/><use xlink:href="#14" y="17.368"/><use xlink:href="#15" y="19.539"/><use xlink:href="#4" y="21.71"/></svg><svg x="2000"><use xlink:href="#a"/><use xlink:href="#b" x="23.996" y="21.685"/><use xlink:href="#2"/><use xlink:href="#3" y="2.171"/><use xlink:href="#5" y="4.342"/><use xlink:href="#6" y="6.513"/><use xlink:href="#8" y="8.684"/><use xlink:href="#10" y="10.855"/><use xlink:href="#12" y="13.026"/><use xlink:href="#13" y="15.197"/><use xlink:href="#14" y="17.368"/><use xlink:href="#15" y="19.539"/><use xlink:href="#9" y="21.71"/></svg><svg x="2080"><use xlink:href="#a"/><use xlink:href="#b" x="25.996" y="21.685"/><use xlink:href="#2"/><use xlink:href="#3" y="2.171"/><use xlink:href="#5" y="4.342"/><use xlink:href="#6" y="6.513"/><use xlink:href="#8" y="8.684"/><use xlink:href="#10" y="10.855"/><use xlink:href="#12" y="13.026"/><use xlink:href="#13" y="15.197"/><use xlink:href="#14" y="17.368"/><use xlink:href="#15" y="19.539"/><use xlink:href="#16" y="21.71"/></svg><svg x="2160"><use xlink:href="#a"/><use xlink:href="#b" x="-.004" y="23.856"/><use xlink:href="#2"/><use xlink:href="#3" y="2.171"/><use xlink:href="#5" y="4.342"/><use xlink:href="#6" y="6.513"/><use xlink:href="#8" y="8.684"/><use xlink:href="#10" y="10.855"/><use xlink:href="#12" y="13.026"/><use xlink:href="#13" y="15.197"/><use xlink:href="#14" y="17.368"/><use xlink:href="#15" y="19.539"/><use xlink:href="#16" y="21.71"/></svg><svg x="2240"><use xlink:href="#a"/><use xlink:href="#b" x="-.004" y="23.856"/><use xlink:href="#2"/><use xlink:href="#3" y="2.171"/><use xlink:href="#5" y="4.342"/><use xlink:href="#6" y="6.513"/><use xlink:href="#8" y="8.684"/><use xlink:href="#10" y="10.855"/><use xlink:href="#12" y="13.026"/><use xlink:href="#13" y="15.197"/><use xlink:href="#14" y="17.368"/><use xlink:href="#15" y="19.539"/><use xlink:href="#16" y="21.71"/></svg><svg x="2320"><use xlink:href="#a"/><use xlink:href="#b" x="16.996" y="23.856"/><use xlink:href="#2"/><use xlink:href="#3" y="2.171"/><use xlink:href="#5" y="4.342"/><use xlink:href="#6" y="6.513"/><use xlink:href="#8" y="8.684"/><use xlink:href="#10" y="10.855"/><use xlink:href="#12" y="13.026"/><use xlink:href="#13" y="15.197"/><use xlink:href="#14" y="17.368"/><use xlink:href="#15" y="19.539"/><use xlink:href="#16" y="21.71"/><use xlink:href="#1" y="23.881"/></svg><svg x="2400"><use xlink:href="#a"/><use xlink:href="#b" x="-.004" y="28.198"/><use xlink:href="#2"/><use xlink:href="#3" y="2.171"/><use xlink:href="#5" y="4.342"/><use xlink:href="#6" y="6.513"/><use xlink:href="#8" y="8.684"/><use xlink:href="#10" y="10.855"/><use xlink:href="#12" y="13.026"/><use xlink:href="#13" y="15.197"/><use xlink:href="#14" y="17.368"/><use xlink:href="#15" y="19.539"/><use xlink:href="#16" y="21.71"/><use xlink:href="#1" y="23.881"/><text y="27.722" class="g">exit</text></svg></svg></g></g></svg></svg>