<svg xmlns="http://www.w3.org/2000/svg" xmlns:xlink="http://www.w3.org/1999/xlink" width="840" height="125.13"><rect width="840" height="125.13" rx="5" ry="5" class="a"/><svg y="0%" x="0%"><circle cx="20" cy="20" r="6" fill="#ff5f58"/><circle cx="40" cy="20" r="6" fill="#ffbd2e"/><circle cx="60" cy="20" r="6" fill="#18c132"/></svg><svg height="65.13" viewBox="0 0 80 6.513" width="800" x="15" xmlns="http://www.w3.org/2000/svg" xmlns:xlink="http://www.w3.org/1999/xlink" y="50"><style>@keyframes k{0%{transform:translateX(0)}.1%{transform:translateX(-80px)}12.1%{transform:translateX(-160px)}21.7%{transform:translateX(-240px)}25%{transform:translateX(-320px)}27.5%{transform:translateX(-400px)}30.2%{transform:translateX(-480px)}39.5%{transform:translateX(-560px)}44.3%{transform:translateX(-640px)}46.4%{transform:translateX(-720px)}49%{transform:translateX(-800px)}51.7%{transform:translateX(-880px)}53.8%{transform:translateX(-960px)}65.4%{transform:translateX(-1040px)}70.7%{transform:translateX(-1120px)}83.2%{transform:translateX(-1200px)}94.5%{transform:translateX(-1360px)}to{transform:translateX(-1440px)}}.a{fill:#282d35}.f,.g,.h{white-space:pre}.f{fill:#a8cc8c;font-weight:700}.g,.h{fill:#b9c0cb}.h{fill:#71bef2;font-weight:700}</style><g font-family="Monaco,Consolas,Menlo,'Bitstream Vera Sans Mono','Powerline Symbols',monospace" font-size="1.67"><defs><symbol id="1"><text y="1.67" class="f">sagar@itsFOSS</text><text x="13.026" y="1.67" class="g">:</text><text x="14.028" y="1.67" class="h">~</text><text x="15.03" y="1.67" class="g">$</text></symbol><symbol id="2"><text y="1.67" class="f">sagar@itsFOSS</text><text x="13.026" y="1.67" class="g">:</text><text x="14.028" y="1.67" class="h">~</text><text x="15.03" y="1.67" class="g">$</text><text x="17.034" y="1.67" class="g">A</text><text x="19.038" y="1.67" class="g">sample</text><text x="26.052" y="1.67" class="g">text</text><text x="31.062" y="1.67" class="g">prompt</text></symbol><symbol id="3"><text y="1.67" class="f">sagar@itsFOSS</text><text x="13.026" y="1.67" class="g">:</text><text x="14.028" y="1.67" class="h">~</text><text x="15.03" y="1.67" class="g">$</text><text x="17.034" y="1.67" class="g">A</text><text x="19.038" y="1.67" class="g">sample</text><text x="26.052" y="1.67" class="g">text</text><text x="31.062" y="1.67" class="g">mpt</text></symbol><symbol id="4"><text y="1.67" class="f">sagar@itsFOSS</text><text x="13.026" y="1.67" class="g">:</text><text x="14.028" y="1.67" class="h">~</text><text x="15.03" y="1.67" class="g">$</text><text x="17.034" y="1.67" class="g">A</text><text x="19.038" y="1.67" class="g">text</text><text x="24.048" y="1.67" class="g">mpt</text></symbol><symbol id="5"><text y="1.67" class="f">sagar@itsFOSS</text><text x="13.026" y="1.67" class="g">:</text><text x="14.028" y="1.67" class="h">~</text><text x="15.03" y="1.67" class="g">$</text><text x="17.034" y="1.67" class="g">^Cext</text><text x="23.046" y="1.67" class="g">mpt</text></symbol><symbol id="a"><path fill="transparent" d="M0 0h80v3H0z"/></symbol><symbol id="b"><path fill="#6f7683" d="M0 0h1.102v2.171H0z"/></symbol></defs><path class="a" d="M0 0h80v6.513H0z"/><g style="animation-duration:7.109049s;animation-iteration-count:infinite;animation-name:k;animation-timing-function:steps(1,end)"><svg width="1520"><svg><use xlink:href="#a"/><use xlink:href="#b" x="-.004"/></svg><svg x="80"><use xlink:href="#a"/><use xlink:href="#b" x="16.996"/><use xlink:href="#1"/></svg><svg x="160"><use xlink:href="#a"/><use xlink:href="#b" x="36.996"/><text y="1.67" class="f">sagar@itsFOSS</text><text x="13.026" y="1.67" class="g">:</text><text x="14.028" y="1.67" class="h">~</text><text x="15.03" y="1.67" class="g">$</text><path fill="#b9c0cb" d="M17.034 0h20v2.171h-20z"/><text x="17.034" y="1.67" style="white-space:pre" fill="#282d35">A sample text prompt</text></svg><svg x="240"><use xlink:href="#a"/><use xlink:href="#b" x="36.996"/><use xlink:href="#2"/></svg><svg x="320"><use xlink:href="#a"/><use xlink:href="#b" x="35.996"/><use xlink:href="#2"/></svg><svg x="400"><use xlink:href="#a"/><use xlink:href="#b" x="34.996"/><use xlink:href="#2"/></svg><svg x="480"><use xlink:href="#a"/><use xlink:href="#b" x="33.996"/><use xlink:href="#2"/></svg><svg x="560"><use xlink:href="#a"/><use xlink:href="#b" x="30.996"/><use xlink:href="#3"/></svg><svg x="640"><use xlink:href="#a"/><use xlink:href="#b" x="29.996"/><use xlink:href="#3"/></svg><svg x="720"><use xlink:href="#a"/><use xlink:href="#b" x="28.996"/><use xlink:href="#3"/></svg><svg x="800"><use xlink:href="#a"/><use xlink:href="#b" x="27.996"/><use xlink:href="#3"/></svg><svg x="880"><use xlink:href="#a"/><use xlink:href="#b" x="26.996"/><use xlink:href="#3"/></svg><svg x="960"><use xlink:href="#a"/><use xlink:href="#b" x="25.996"/><use xlink:href="#3"/></svg><svg x="1040"><use xlink:href="#a"/><use xlink:href="#b" x="18.996"/><use xlink:href="#4"/></svg><svg x="1120"><use xlink:href="#a"/><use xlink:href="#b" x="17.996"/><use xlink:href="#4"/></svg><svg x="1200"><use xlink:href="#a"/><use xlink:href="#b" x="16.996"/><text y="1.67" class="f">sagar@itsFOSS</text><text x="13.026" y="1.67" class="g">:</text><text x="14.028" y="1.67" class="h">~</text><text x="15.03" y="1.67" class="g">$</text><text x="18.036" y="1.67" class="g">text</text><text x="23.046" y="1.67" class="g">mpt</text></svg><svg x="1280"><use xlink:href="#a"/><use xlink:href="#b" x="-.004"/><use xlink:href="#5"/></svg><svg x="1360"><use xlink:href="#a"/><use xlink:href="#b" x="16.996" y="2.146"/><use xlink:href="#5"/><use xlink:href="#1" y="2.171"/></svg><svg x="1440"><use xlink:href="#a"/><use xlink:href="#b" x="-.004" y="4.317"/><use xlink:href="#1"/><text y="3.841" class="g">exit</text></svg></svg></g></g></svg></svg>