<svg xmlns="http://www.w3.org/2000/svg" xmlns:xlink="http://www.w3.org/1999/xlink" width="840" height="146.84"><rect width="840" height="146.84" rx="5" ry="5" class="a"/><svg y="0%" x="0%"><circle cx="20" cy="20" r="6" fill="#ff5f58"/><circle cx="40" cy="20" r="6" fill="#ffbd2e"/><circle cx="60" cy="20" r="6" fill="#18c132"/></svg><svg height="86.84" viewBox="0 0 80 8.684" width="800" x="15" xmlns="http://www.w3.org/2000/svg" xmlns:xlink="http://www.w3.org/1999/xlink" y="50"><style>@keyframes k{0%{transform:translateX(0)}.3%{transform:translateX(-80px)}13.3%{transform:translateX(-160px)}29.1%{transform:translateX(-240px)}46.2%{transform:translateX(-320px)}63.5%{transform:translateX(-400px)}85.1%{transform:translateX(-560px)}to{transform:translateX(-720px)}}.a{fill:#282d35}.f,.g,.h{white-space:pre}.f{fill:#a8cc8c;font-weight:700}.g,.h{fill:#b9c0cb}.h{fill:#71bef2;font-weight:700}</style><g font-family="Monaco,Consolas,Menlo,'Bitstream Vera Sans Mono','Powerline Symbols',monospace" font-size="1.67"><defs><symbol id="1"><text y="1.67" class="f">sagar@itsFOSS</text><text x="13.026" y="1.67" class="g">:</text><text x="14.028" y="1.67" class="h">~</text><text x="15.03" y="1.67" class="g">$</text></symbol><symbol id="2"><text y="1.67" class="f">sagar@itsFOSS</text><text x="13.026" y="1.67" class="g">:</text><text x="14.028" y="1.67" class="h">~</text><text x="15.03" y="1.67" class="g">$</text><text x="17.034" y="1.67" class="g">sudo</text><text x="22.044" y="1.67" class="g">apt</text><text x="26.052" y="1.67" class="g">update</text></symbol><symbol id="3"><text y="1.67" class="f">sagar@itsFOSS</text><text x="13.026" y="1.67" class="g">:</text><text x="14.028" y="1.67" class="h">~</text><text x="15.03" y="1.67" class="g">$</text><text x="17.034" y="1.67" class="g">asciinema</text><text x="27.054" y="1.67" class="g">rec</text><text x="31.062" y="1.67" class="g">Ctrl+Z.cast^C</text></symbol><symbol id="a"><path fill="transparent" d="M0 0h80v4H0z"/></symbol><symbol id="b"><path fill="#6f7683" d="M0 0h1.102v2.171H0z"/></symbol></defs><path class="a" d="M0 0h80v8.684H0z"/><g style="animation-duration:3.603285s;animation-iteration-count:infinite;animation-name:k;animation-timing-function:steps(1,end)"><svg width="800"><svg><use xlink:href="#a"/><use xlink:href="#b" x="-.004"/></svg><svg x="80"><use xlink:href="#a"/><use xlink:href="#b" x="16.996"/><use xlink:href="#1"/></svg><svg x="160"><use xlink:href="#a"/><use xlink:href="#b" x="31.996"/><use xlink:href="#2"/></svg><svg x="240"><use xlink:href="#a"/><use xlink:href="#b" x="49.996"/><text y="1.67" class="f">sagar@itsFOSS</text><text x="13.026" y="1.67" class="g">:</text><text x="14.028" y="1.67" class="h">~</text><text x="15.03" y="1.67" class="g">$</text><text x="17.034" y="1.67" class="g">systemctl</text><text x="27.054" y="1.67" class="g">reboot</text><text x="34.068" y="1.67" class="g">--firmware-setup</text></svg><svg x="320"><use xlink:href="#a"/><use xlink:href="#b" x="31.996"/><use xlink:href="#2"/></svg><svg x="400"><use xlink:href="#a"/><use xlink:href="#b" x="41.996"/><text y="1.67" class="f">sagar@itsFOSS</text><text x="13.026" y="1.67" class="g">:</text><text x="14.028" y="1.67" class="h">~</text><text x="15.03" y="1.67" class="g">$</text><text x="17.034" y="1.67" class="g">asciinema</text><text x="27.054" y="1.67" class="g">rec</text><text x="31.062" y="1.67" class="g">Ctrl+Z.cast</text></svg><svg x="480"><use xlink:href="#a"/><use xlink:href="#b" x="-.004"/><use xlink:href="#3"/></svg><svg x="560"><use xlink:href="#a"/><use xlink:href="#b" x="16.996" y="2.146"/><use xlink:href="#3"/><use xlink:href="#1" y="2.171"/></svg><svg x="640"><use xlink:href="#a"/><use xlink:href="#b" x="-.004" y="4.317"/><use xlink:href="#3"/><use xlink:href="#1" y="2.171"/></svg><svg x="720"><use xlink:href="#a"/><use xlink:href="#b" x="-.004" y="6.488"/><use xlink:href="#3"/><use xlink:href="#1" y="2.171"/><text y="6.012" class="g">exit</text></svg></svg></g></g></svg></svg>