<svg xmlns="http://www.w3.org/2000/svg" xmlns:xlink="http://www.w3.org/1999/xlink" width="890" height="277.1"><rect width="890" height="277.1" rx="5" ry="5" class="a"/><svg y="0%" x="0%"><circle cx="20" cy="20" r="6" fill="#ff5f58"/><circle cx="40" cy="20" r="6" fill="#ffbd2e"/><circle cx="60" cy="20" r="6" fill="#18c132"/></svg><svg height="217.1" viewBox="0 0 85 21.71" width="850" x="15" xmlns="http://www.w3.org/2000/svg" xmlns:xlink="http://www.w3.org/1999/xlink" y="50"><style>@keyframes k{0%{transform:translateX(0)}.2%{transform:translateX(-85px)}15.8%{transform:translateX(-170px)}31.6%{transform:translateX(-255px)}31.7%{transform:translateX(-340px)}32.4%{transform:translateX(-425px)}57.8%{transform:translateX(-510px)}79.4%{transform:translateX(-850px)}to{transform:translateX(-935px)}}.a{fill:#282d35}.f,.g,.h{white-space:pre}.f{fill:#a8cc8c;font-weight:700}.g,.h{fill:#b9c0cb}.h{fill:#71bef2;font-weight:700}</style><g font-family="Monaco,Consolas,Menlo,'Bitstream Vera Sans Mono','Powerline Symbols',monospace" font-size="1.67"><defs><symbol id="1"><text y="1.67" class="f">sagar@itsFOSS</text><text x="13.026" y="1.67" class="g">:</text><text x="14.028" y="1.67" class="h">~</text><text x="15.03" y="1.67" class="g">$</text></symbol><symbol id="2"><text y="1.67" class="f">sagar@itsFOSS</text><text x="13.026" y="1.67" class="g">:</text><text x="14.028" y="1.67" class="h">~</text><text x="15.03" y="1.67" class="g">$</text><text x="17.034" y="1.67" class="g">ping</text><text x="22.044" y="1.67" class="g">itsfoss.com</text></symbol><symbol id="3"><text y="1.67" class="g">PING</text><text x="5.01" y="1.67" class="g">itsfoss.com</text><text x="17.034" y="1.67" class="g">(104.21.19.243)</text><text x="33.066" y="1.67" class="g">56(84)</text><text x="40.08" y="1.67" class="g">bytes</text><text x="46.092" y="1.67" class="g">of</text><text x="49.098" y="1.67" class="g">data.</text></symbol><symbol id="4"><text y="1.67" class="g">64</text><text x="3.006" y="1.67" class="g">bytes</text><text x="9.018" y="1.67" class="g">from</text><text x="14.028" y="1.67" class="g">104.21.19.243</text><text x="28.056" y="1.67" class="g">(104.21.19.243):</text><text x="45.09" y="1.67" class="g">icmp_seq=1</text><text x="56.112" y="1.67" class="g">ttl=60</text><text x="63.126" y="1.67" class="g">time=5.18</text><text x="73.146" y="1.67" class="g">ms</text></symbol><symbol id="5"><text y="1.67" class="g">64</text><text x="3.006" y="1.67" class="g">bytes</text><text x="9.018" y="1.67" class="g">from</text><text x="14.028" y="1.67" class="g">104.21.19.243</text><text x="28.056" y="1.67" class="g">(104.21.19.243):</text><text x="45.09" y="1.67" class="g">icmp_seq=2</text><text x="56.112" y="1.67" class="g">ttl=60</text><text x="63.126" y="1.67" class="g">time=4.61</text><text x="73.146" y="1.67" class="g">ms</text></symbol><symbol id="6"><text y="1.67" class="g">^C</text></symbol><symbol id="7"><text y="1.67" class="g">---</text><text x="4.008" y="1.67" class="g">itsfoss.com</text><text x="16.032" y="1.67" class="g">ping</text><text x="21.042" y="1.67" class="g">statistics</text><text x="32.064" y="1.67" class="g">---</text></symbol><symbol id="8"><text y="1.67" class="g">2</text><text x="2.004" y="1.67" class="g">packets</text><text x="10.02" y="1.67" class="g">transmitted,</text><text x="23.046" y="1.67" class="g">2</text><text x="25.05" y="1.67" class="g">received,</text><text x="35.07" y="1.67" class="g">0%</text><text x="38.076" y="1.67" class="g">packet</text><text x="45.09" y="1.67" class="g">loss,</text><text x="51.102" y="1.67" class="g">time</text><text x="56.112" y="1.67" class="g">1001ms</text></symbol><symbol id="9"><text y="1.67" class="g">rtt</text><text x="4.008" y="1.67" class="g">min/avg/max/mdev</text><text x="21.042" y="1.67" class="g">=</text><text x="23.046" y="1.67" class="g">4.612/4.897/5.183/0.285</text><text x="47.094" y="1.67" class="g">ms</text></symbol><symbol id="a"><path fill="transparent" d="M0 0h85v10H0z"/></symbol><symbol id="b"><path fill="#6f7683" d="M0 0h1.102v2.171H0z"/></symbol></defs><path class="a" d="M0 0h85v21.71H0z"/><g style="animation-duration:3.88183s;animation-iteration-count:infinite;animation-name:k;animation-timing-function:steps(1,end)"><svg width="1020"><svg><use xlink:href="#a"/><use xlink:href="#b" x="-.004"/></svg><svg x="85"><use xlink:href="#a"/><use xlink:href="#b" x="16.996"/><use xlink:href="#1"/></svg><svg x="170"><use xlink:href="#a"/><use xlink:href="#b" x="32.996"/><text y="1.67" class="f">sagar@itsFOSS</text><text x="13.026" y="1.67" class="g">:</text><text x="14.028" y="1.67" class="h">~</text><text x="15.03" y="1.67" class="g">$</text><path fill="#b9c0cb" d="M17.034 0h16v2.171h-16z"/><text x="17.034" y="1.67" style="white-space:pre" fill="#282d35">ping itsfoss.com</text></svg><svg x="255"><use xlink:href="#a"/><use xlink:href="#b" x="-.004" y="2.146"/><use xlink:href="#2"/></svg><svg x="340"><use xlink:href="#a"/><use xlink:href="#b" x="-.004" y="4.317"/><use xlink:href="#2"/><use xlink:href="#3" y="2.171"/></svg><svg x="425"><use xlink:href="#a"/><use xlink:href="#b" x="-.004" y="6.488"/><use xlink:href="#2"/><use xlink:href="#3" y="2.171"/><use xlink:href="#4" y="4.342"/></svg><svg x="510"><use xlink:href="#a"/><use xlink:href="#b" x="-.004" y="8.659"/><use xlink:href="#2"/><use xlink:href="#3" y="2.171"/><use xlink:href="#4" y="4.342"/><use xlink:href="#5" y="6.513"/></svg><svg x="595"><use xlink:href="#a"/><use xlink:href="#b" x="1.996" y="8.659"/><use xlink:href="#2"/><use xlink:href="#3" y="2.171"/><use xlink:href="#4" y="4.342"/><use xlink:href="#5" y="6.513"/><use xlink:href="#6" y="8.684"/></svg><svg x="680"><use xlink:href="#a"/><use xlink:href="#b" x="-.004" y="13.001"/><use xlink:href="#2"/><use xlink:href="#3" y="2.171"/><use xlink:href="#4" y="4.342"/><use xlink:href="#5" y="6.513"/><use xlink:href="#6" y="8.684"/><use xlink:href="#7" y="10.855"/></svg><svg x="765"><use xlink:href="#a"/><use xlink:href="#b" x="-.004" y="17.343"/><use xlink:href="#2"/><use xlink:href="#3" y="2.171"/><use xlink:href="#4" y="4.342"/><use xlink:href="#5" y="6.513"/><use xlink:href="#6" y="8.684"/><use xlink:href="#7" y="10.855"/><use xlink:href="#8" y="13.026"/><use xlink:href="#9" y="15.197"/></svg><svg x="850"><use xlink:href="#a"/><use xlink:href="#b" x="16.996" y="17.343"/><use xlink:href="#2"/><use xlink:href="#3" y="2.171"/><use xlink:href="#4" y="4.342"/><use xlink:href="#5" y="6.513"/><use xlink:href="#6" y="8.684"/><use xlink:href="#7" y="10.855"/><use xlink:href="#8" y="13.026"/><use xlink:href="#9" y="15.197"/><use xlink:href="#1" y="17.368"/></svg><svg x="935"><use xlink:href="#a"/><use xlink:href="#b" x="-.004" y="19.514"/><use xlink:href="#3"/><use xlink:href="#4" y="2.171"/><use xlink:href="#5" y="4.342"/><use xlink:href="#6" y="6.513"/><use xlink:href="#7" y="8.684"/><use xlink:href="#8" y="10.855"/><use xlink:href="#9" y="13.026"/><use xlink:href="#1" y="15.197"/><text y="19.038" class="g">exit</text></svg></svg></g></g></svg></svg>