<svg xmlns="http://www.w3.org/2000/svg" xmlns:xlink="http://www.w3.org/1999/xlink" width="860" height="233.68"><rect width="860" height="233.68" rx="5" ry="5" class="a"/><svg y="0%" x="0%"><circle cx="20" cy="20" r="6" fill="#ff5f58"/><circle cx="40" cy="20" r="6" fill="#ffbd2e"/><circle cx="60" cy="20" r="6" fill="#18c132"/></svg><svg height="173.68" viewBox="0 0 82 17.368" width="820" x="15" xmlns="http://www.w3.org/2000/svg" xmlns:xlink="http://www.w3.org/1999/xlink" y="50"><style>@keyframes k{0%{transform:translateX(0)}.1%{transform:translateX(-82px)}3.8%{transform:translateX(-164px)}5.8%{transform:translateX(-246px)}7.5%{transform:translateX(-328px)}8.6%{transform:translateX(-410px)}11.5%{transform:translateX(-492px)}13.6%{transform:translateX(-574px)}18.6%{transform:translateX(-656px)}25.3%{transform:translateX(-738px)}27.1%{transform:translateX(-820px)}31.6%{transform:translateX(-902px)}34.2%{transform:translateX(-984px)}42.3%{transform:translateX(-1066px)}44.1%{transform:translateX(-1148px)}57.3%{transform:translateX(-1230px)}61.3%{transform:translateX(-1312px)}64.7%{transform:translateX(-1394px)}83.8%{transform:translateX(-1476px)}84.3%{transform:translateX(-1558px)}91.5%{transform:translateX(-1804px)}to{transform:translateX(-1886px)}}.a{fill:#282d35}.f,.g,.h{white-space:pre}.f{fill:#a8cc8c;font-weight:700}.g,.h{fill:#b9c0cb}.h{fill:#71bef2;font-weight:700}</style><g font-family="Monaco,Consolas,Menlo,'Bitstream Vera Sans Mono','Powerline Symbols',monospace" font-size="1.67"><defs><symbol id="1"><text y="1.67" class="f">sagar@itsFOSS</text><text x="13.026" y="1.67" class="g">:</text><text x="14.028" y="1.67" class="h">~</text><text x="15.03" y="1.67" class="g">$</text></symbol><symbol id="2"><text y="1.67" class="f">sagar@itsFOSS</text><text x="13.026" y="1.67" class="g">:</text><text x="14.028" y="1.67" class="h">~</text><text x="15.03" y="1.67" class="g">$</text><text x="17.034" y="1.67" class="g">sudo</text></symbol><symbol id="3"><text y="1.67" class="f">sagar@itsFOSS</text><text x="13.026" y="1.67" class="g">:</text><text x="14.028" y="1.67" class="h">~</text><text x="15.03" y="1.67" class="g">$</text><text x="17.034" y="1.67" class="g">sudo</text><text x="22.044" y="1.67" class="g">apt</text></symbol><symbol id="4"><text y="1.67" class="f">sagar@itsFOSS</text><text x="13.026" y="1.67" class="g">:</text><text x="14.028" y="1.67" class="h">~</text><text x="15.03" y="1.67" class="g">$</text><text x="17.034" y="1.67" class="g">sudo</text><text x="22.044" y="1.67" class="g">apt</text><text x="26.052" y="1.67" class="g">up</text></symbol><symbol id="5"><text y="1.67" class="g">update</text><text x="9.018" y="1.67" class="g">upgrade</text></symbol><symbol id="6"><text y="1.67" class="f">sagar@itsFOSS</text><text x="13.026" y="1.67" class="g">:</text><text x="14.028" y="1.67" class="h">~</text><text x="15.03" y="1.67" class="g">$</text><text x="17.034" y="1.67" class="g">sudo</text><text x="22.044" y="1.67" class="g">apt</text><text x="26.052" y="1.67" class="g">upgrade</text></symbol><symbol id="7"><text y="1.67" class="g">[sudo]</text><text x="7.014" y="1.67" class="g">password</text><text x="16.032" y="1.67" class="g">for</text><text x="20.04" y="1.67" class="g">sagar:</text></symbol><symbol id="8"><text y="1.67" class="g">sudo:</text><text x="6.012" y="1.67" class="g">a</text><text x="8.016" y="1.67" class="g">password</text><text x="17.034" y="1.67" class="g">is</text><text x="20.04" y="1.67" class="g">required</text></symbol><symbol id="a"><path fill="transparent" d="M0 0h82v8H0z"/></symbol><symbol id="b"><path fill="#6f7683" d="M0 0h1.102v2.171H0z"/></symbol></defs><path class="a" d="M0 0h82v17.368H0z"/><g style="animation-duration:8.234534s;animation-iteration-count:infinite;animation-name:k;animation-timing-function:steps(1,end)"><svg width="1968"><svg><use xlink:href="#a"/><use xlink:href="#b" x="-.004"/></svg><svg x="82"><use xlink:href="#a"/><use xlink:href="#b" x="16.996"/><use xlink:href="#1"/></svg><svg x="164"><use xlink:href="#a"/><use xlink:href="#b" x="17.996"/><text y="1.67" class="f">sagar@itsFOSS</text><text x="13.026" y="1.67" class="g">:</text><text x="14.028" y="1.67" class="h">~</text><text x="15.03" y="1.67" class="g">$</text><text x="17.034" y="1.67" class="g">s</text></svg><svg x="246"><use xlink:href="#a"/><use xlink:href="#b" x="18.996"/><text y="1.67" class="f">sagar@itsFOSS</text><text x="13.026" y="1.67" class="g">:</text><text x="14.028" y="1.67" class="h">~</text><text x="15.03" y="1.67" class="g">$</text><text x="17.034" y="1.67" class="g">su</text></svg><svg x="328"><use xlink:href="#a"/><use xlink:href="#b" x="19.996"/><text y="1.67" class="f">sagar@itsFOSS</text><text x="13.026" y="1.67" class="g">:</text><text x="14.028" y="1.67" class="h">~</text><text x="15.03" y="1.67" class="g">$</text><text x="17.034" y="1.67" class="g">sud</text></svg><svg x="410"><use xlink:href="#a"/><use xlink:href="#b" x="20.996"/><use xlink:href="#2"/></svg><svg x="492"><use xlink:href="#a"/><use xlink:href="#b" x="21.996"/><use xlink:href="#2"/></svg><svg x="574"><use xlink:href="#a"/><use xlink:href="#b" x="22.996"/><text y="1.67" class="f">sagar@itsFOSS</text><text x="13.026" y="1.67" class="g">:</text><text x="14.028" y="1.67" class="h">~</text><text x="15.03" y="1.67" class="g">$</text><text x="17.034" y="1.67" class="g">sudo</text><text x="22.044" y="1.67" class="g">a</text></svg><svg x="656"><use xlink:href="#a"/><use xlink:href="#b" x="23.996"/><text y="1.67" class="f">sagar@itsFOSS</text><text x="13.026" y="1.67" class="g">:</text><text x="14.028" y="1.67" class="h">~</text><text x="15.03" y="1.67" class="g">$</text><text x="17.034" y="1.67" class="g">sudo</text><text x="22.044" y="1.67" class="g">ap</text></svg><svg x="738"><use xlink:href="#a"/><use xlink:href="#b" x="24.996"/><use xlink:href="#3"/></svg><svg x="820"><use xlink:href="#a"/><use xlink:href="#b" x="25.996"/><use xlink:href="#3"/></svg><svg x="902"><use xlink:href="#a"/><use xlink:href="#b" x="26.996"/><text y="1.67" class="f">sagar@itsFOSS</text><text x="13.026" y="1.67" class="g">:</text><text x="14.028" y="1.67" class="h">~</text><text x="15.03" y="1.67" class="g">$</text><text x="17.034" y="1.67" class="g">sudo</text><text x="22.044" y="1.67" class="g">apt</text><text x="26.052" y="1.67" class="g">u</text></svg><svg x="984"><use xlink:href="#a"/><use xlink:href="#b" x="27.996"/><use xlink:href="#4"/></svg><svg x="1066"><use xlink:href="#a"/><use xlink:href="#b" x="27.996"/><use xlink:href="#4"/></svg><svg x="1148"><use xlink:href="#a"/><use xlink:href="#b" x="27.996" y="4.317"/><use xlink:href="#4"/><use xlink:href="#5" y="2.171"/><use xlink:href="#4" y="4.342"/></svg><svg x="1230"><use xlink:href="#a"/><use xlink:href="#b" x="28.996" y="4.317"/><use xlink:href="#4"/><use xlink:href="#5" y="2.171"/><text y="6.012" class="f">sagar@itsFOSS</text><text x="13.026" y="6.012" class="g">:</text><text x="14.028" y="6.012" class="h">~</text><text x="15.03" y="6.012" class="g">$</text><text x="17.034" y="6.012" class="g">sudo</text><text x="22.044" y="6.012" class="g">apt</text><text x="26.052" y="6.012" class="g">upg</text></svg><svg x="1312"><use xlink:href="#a"/><use xlink:href="#b" x="29.996" y="4.317"/><use xlink:href="#4"/><use xlink:href="#5" y="2.171"/><text y="6.012" class="f">sagar@itsFOSS</text><text x="13.026" y="6.012" class="g">:</text><text x="14.028" y="6.012" class="h">~</text><text x="15.03" y="6.012" class="g">$</text><text x="17.034" y="6.012" class="g">sudo</text><text x="22.044" y="6.012" class="g">apt</text><text x="26.052" y="6.012" class="g">upgr</text></svg><svg x="1394"><use xlink:href="#a"/><use xlink:href="#b" x="33.996" y="4.317"/><use xlink:href="#4"/><use xlink:href="#5" y="2.171"/><use xlink:href="#6" y="4.342"/></svg><svg x="1476"><use xlink:href="#a"/><use xlink:href="#b" x="-.004" y="6.488"/><use xlink:href="#4"/><use xlink:href="#5" y="2.171"/><use xlink:href="#6" y="4.342"/></svg><svg x="1558"><use xlink:href="#a"/><use xlink:href="#b" x="26.996" y="6.488"/><use xlink:href="#4"/><use xlink:href="#5" y="2.171"/><use xlink:href="#6" y="4.342"/><use xlink:href="#7" y="6.513"/></svg><svg x="1640"><use xlink:href="#a"/><use xlink:href="#b" x="-.004" y="8.659"/><use xlink:href="#4"/><use xlink:href="#5" y="2.171"/><use xlink:href="#6" y="4.342"/><use xlink:href="#7" y="6.513"/></svg><svg x="1722"><use xlink:href="#a"/><use xlink:href="#b" x="-.004" y="10.83"/><use xlink:href="#4"/><use xlink:href="#5" y="2.171"/><use xlink:href="#6" y="4.342"/><use xlink:href="#7" y="6.513"/><use xlink:href="#8" y="8.684"/></svg><svg x="1804"><use xlink:href="#a"/><use xlink:href="#b" x="16.996" y="10.83"/><use xlink:href="#4"/><use xlink:href="#5" y="2.171"/><use xlink:href="#6" y="4.342"/><use xlink:href="#7" y="6.513"/><use xlink:href="#8" y="8.684"/><use xlink:href="#1" y="10.855"/></svg><svg x="1886"><use xlink:href="#a"/><use xlink:href="#b" x="-.004" y="15.172"/><use xlink:href="#4"/><use xlink:href="#5" y="2.171"/><use xlink:href="#6" y="4.342"/><use xlink:href="#7" y="6.513"/><use xlink:href="#8" y="8.684"/><use xlink:href="#1" y="10.855"/><text y="14.696" class="g">exit</text></svg></svg></g></g></svg></svg>