<svg xmlns="http://www.w3.org/2000/svg" xmlns:xlink="http://www.w3.org/1999/xlink" width="840" height="537.6199999999999"><rect width="840" height="537.6199999999999" rx="5" ry="5" class="a"></rect><svg y="0%" x="0%"><circle cx="20" cy="20" r="6" class="b"></circle><circle cx="40" cy="20" r="6" class="c"></circle><circle cx="60" cy="20" r="6" class="d"></circle></svg><svg height="477.61999999999995" viewBox="0 0 80 47.76199999999999" width="800" x="15" xmlns="http://www.w3.org/2000/svg" xmlns:xlink="http://www.w3.org/1999/xlink" y="50"><style>.a{fill:rgb(40,45,53)}.b{fill:#ff5f58}.c{fill:#ffbd2e}.d{fill:#18c132}.e{font-family:Monaco,Consolas,Menlo,'Bitstream Vera Sans Mono','Powerline Symbols',monospace}.f{fill:rgb(168,204,140);font-weight:bold;white-space:pre}.g{fill:rgb(185,192,203);white-space:pre}.h{fill:rgb(113,190,242);font-weight:bold;white-space:pre}.i{fill:transparent}.j{fill:rgb(111,118,131)}.l{animation-duration:41.135029s;animation-iteration-count:infinite;animation-name:k;animation-timing-function:steps(1,end)}@keyframes k{0%{transform:translateX(-0px)}0.03%{transform:translateX(-80px)}3.18%{transform:translateX(-160px)}3.77%{transform:translateX(-240px)}4.23%{transform:translateX(-320px)}4.74%{transform:translateX(-400px)}5.01%{transform:translateX(-480px)}5.55%{transform:translateX(-560px)}9%{transform:translateX(-640px)}9.4%{transform:translateX(-720px)}9.84%{transform:translateX(-800px)}10.13%{transform:translateX(-880px)}13.56%{transform:translateX(-960px)}19.68%{transform:translateX(-1040px)}21.54%{transform:translateX(-1120px)}22.55%{transform:translateX(-1200px)}22.96%{transform:translateX(-1280px)}26.85%{transform:translateX(-1360px)}28.41%{transform:translateX(-1440px)}30.65%{transform:translateX(-1520px)}30.68%{transform:translateX(-1600px)}32.39%{transform:translateX(-1680px)}32.69%{transform:translateX(-1760px)}33.81%{transform:translateX(-1840px)}33.84%{transform:translateX(-1920px)}44.38%{transform:translateX(-2000px)}44.99%{transform:translateX(-2080px)}45.45%{transform:translateX(-2160px)}46.48%{transform:translateX(-2240px)}47.65%{transform:translateX(-2320px)}48.56%{transform:translateX(-2400px)}50.61%{transform:translateX(-2480px)}50.99%{transform:translateX(-2560px)}51.42%{transform:translateX(-2640px)}51.69%{transform:translateX(-2720px)}53.3%{transform:translateX(-2800px)}56.62%{transform:translateX(-2880px)}62.64%{transform:translateX(-2960px)}62.73%{transform:translateX(-3040px)}66.95%{transform:translateX(-3120px)}68%{transform:translateX(-3200px)}68%{transform:translateX(-3280px)}70.06%{transform:translateX(-3360px)}70.82%{transform:translateX(-3440px)}70.82%{transform:translateX(-3520px)}73.03%{transform:translateX(-3600px)}73.82%{transform:translateX(-3680px)}73.82%{transform:translateX(-3760px)}75.53%{transform:translateX(-3840px)}76.42%{transform:translateX(-3920px)}76.42%{transform:translateX(-4000px)}78.01%{transform:translateX(-4080px)}78.83%{transform:translateX(-4160px)}78.83%{transform:translateX(-4240px)}80.48%{transform:translateX(-4320px)}81.38%{transform:translateX(-4400px)}81.38%{transform:translateX(-4480px)}82.57%{transform:translateX(-4560px)}83.46%{transform:translateX(-4640px)}83.46%{transform:translateX(-4720px)}85.45%{transform:translateX(-4800px)}86.29%{transform:translateX(-4880px)}86.29%{transform:translateX(-4960px)}87.77%{transform:translateX(-5040px)}88.66%{transform:translateX(-5120px)}88.66%{transform:translateX(-5200px)}90.91%{transform:translateX(-5280px)}91.22%{transform:translateX(-5360px)}94.74%{transform:translateX(-5440px)}94.74%{transform:translateX(-5520px)}94.74%{transform:translateX(-5600px)}100%{transform:translateX(-5680px)}}</style><g font-family="Monaco, Consolas, Menlo, &#x27;Bitstream Vera Sans Mono&#x27;, &#x27;Powerline Symbols&#x27;, monospace" font-size="1.67" class="e"><defs><symbol id="1"><text x="0" y="1.67" class="f">abhishek@itsfoss</text><text x="16.032" y="1.67" class="g">:</text><text x="17.034" y="1.67" class="h">~/practice_delete</text><text x="34.068" y="1.67" class="g">$</text></symbol><symbol id="2"><text x="0" y="1.67" class="f">abhishek@itsfoss</text><text x="16.032" y="1.67" class="g">:</text><text x="17.034" y="1.67" class="h">~/practice_delete</text><text x="34.068" y="1.67" class="g">$</text><text x="36.071999999999996" y="1.67" class="g">touch</text></symbol><symbol id="3"><text x="0" y="1.67" class="f">abhishek@itsfoss</text><text x="16.032" y="1.67" class="g">:</text><text x="17.034" y="1.67" class="h">~/practice_delete</text><text x="34.068" y="1.67" class="g">$</text><text x="36.071999999999996" y="1.67" class="g">touch</text><text x="42.083999999999996" y="1.67" class="g">file_{1..9}</text></symbol><symbol id="4"><text x="0" y="1.67" class="f">abhishek@itsfoss</text><text x="16.032" y="1.67" class="g">:</text><text x="17.034" y="1.67" class="h">~/practice_delete</text><text x="34.068" y="1.67" class="g">$</text><text x="36.071999999999996" y="1.67" class="g">l</text></symbol><symbol id="5"><text x="0" y="1.67" class="f">abhishek@itsfoss</text><text x="16.032" y="1.67" class="g">:</text><text x="17.034" y="1.67" class="h">~/practice_delete</text><text x="34.068" y="1.67" class="g">$</text><text x="36.071999999999996" y="1.67" class="g">ls</text></symbol><symbol id="6"><text x="0" y="1.67" class="g">file_1</text><text x="8.016" y="1.67" class="g">file_2</text><text x="16.032" y="1.67" class="g">file_3</text><text x="24.048" y="1.67" class="g">file_4</text><text x="32.064" y="1.67" class="g">file_5</text><text x="40.08" y="1.67" class="g">file_6</text><text x="48.096" y="1.67" class="g">file_7</text><text x="56.111999999999995" y="1.67" class="g">file_8</text><text x="64.128" y="1.67" class="g">file_9</text></symbol><symbol id="7"><text x="0" y="1.67" class="f">abhishek@itsfoss</text><text x="16.032" y="1.67" class="g">:</text><text x="17.034" y="1.67" class="h">~/practice_delete</text><text x="34.068" y="1.67" class="g">$</text><text x="36.071999999999996" y="1.67" class="g">rm</text></symbol><symbol id="8"><text x="0" y="1.67" class="f">abhishek@itsfoss</text><text x="16.032" y="1.67" class="g">:</text><text x="17.034" y="1.67" class="h">~/practice_delete</text><text x="34.068" y="1.67" class="g">$</text><text x="36.071999999999996" y="1.67" class="g">rm</text><text x="39.077999999999996" y="1.67" class="g">-i</text></symbol><symbol id="9"><text x="0" y="1.67" class="f">abhishek@itsfoss</text><text x="16.032" y="1.67" class="g">:</text><text x="17.034" y="1.67" class="h">~/practice_delete</text><text x="34.068" y="1.67" class="g">$</text><text x="36.071999999999996" y="1.67" class="g">rm</text><text x="39.077999999999996" y="1.67" class="g">-i</text><text x="42.083999999999996" y="1.67" class="g">file_*</text></symbol><symbol id="10"><text x="0" y="1.67" class="g">rm:</text><text x="4.008" y="1.67" class="g">remove</text><text x="11.021999999999998" y="1.67" class="g">regular</text><text x="19.037999999999997" y="1.67" class="g">empty</text><text x="25.05" y="1.67" class="g">file</text><text x="30.059999999999995" y="1.67" class="g">&#x27;file_1&#x27;?</text><text x="40.08" y="1.67" class="g">y</text></symbol><symbol id="11"><text x="0" y="1.67" class="g">rm:</text><text x="4.008" y="1.67" class="g">remove</text><text x="11.021999999999998" y="1.67" class="g">regular</text><text x="19.037999999999997" y="1.67" class="g">empty</text><text x="25.05" y="1.67" class="g">file</text><text x="30.059999999999995" y="1.67" class="g">&#x27;file_2&#x27;?</text><text x="40.08" y="1.67" class="g">n</text></symbol><symbol id="12"><text x="0" y="1.67" class="g">rm:</text><text x="4.008" y="1.67" class="g">remove</text><text x="11.021999999999998" y="1.67" class="g">regular</text><text x="19.037999999999997" y="1.67" class="g">empty</text><text x="25.05" y="1.67" class="g">file</text><text x="30.059999999999995" y="1.67" class="g">&#x27;file_3&#x27;?</text><text x="40.08" y="1.67" class="g">n</text></symbol><symbol id="13"><text x="0" y="1.67" class="g">rm:</text><text x="4.008" y="1.67" class="g">remove</text><text x="11.021999999999998" y="1.67" class="g">regular</text><text x="19.037999999999997" y="1.67" class="g">empty</text><text x="25.05" y="1.67" class="g">file</text><text x="30.059999999999995" y="1.67" class="g">&#x27;file_4&#x27;?</text><text x="40.08" y="1.67" class="g">y</text></symbol><symbol id="14"><text x="0" y="1.67" class="g">rm:</text><text x="4.008" y="1.67" class="g">remove</text><text x="11.021999999999998" y="1.67" class="g">regular</text><text x="19.037999999999997" y="1.67" class="g">empty</text><text x="25.05" y="1.67" class="g">file</text><text x="30.059999999999995" y="1.67" class="g">&#x27;file_5&#x27;?</text><text x="40.08" y="1.67" class="g">n</text></symbol><symbol id="15"><text x="0" y="1.67" class="g">rm:</text><text x="4.008" y="1.67" class="g">remove</text><text x="11.021999999999998" y="1.67" class="g">regular</text><text x="19.037999999999997" y="1.67" class="g">empty</text><text x="25.05" y="1.67" class="g">file</text><text x="30.059999999999995" y="1.67" class="g">&#x27;file_6&#x27;?</text><text x="40.08" y="1.67" class="g">y</text></symbol><symbol id="16"><text x="0" y="1.67" class="g">rm:</text><text x="4.008" y="1.67" class="g">remove</text><text x="11.021999999999998" y="1.67" class="g">regular</text><text x="19.037999999999997" y="1.67" class="g">empty</text><text x="25.05" y="1.67" class="g">file</text><text x="30.059999999999995" y="1.67" class="g">&#x27;file_7&#x27;?</text><text x="40.08" y="1.67" class="g">y</text></symbol><symbol id="17"><text x="0" y="1.67" class="g">rm:</text><text x="4.008" y="1.67" class="g">remove</text><text x="11.021999999999998" y="1.67" class="g">regular</text><text x="19.037999999999997" y="1.67" class="g">empty</text><text x="25.05" y="1.67" class="g">file</text><text x="30.059999999999995" y="1.67" class="g">&#x27;file_8&#x27;?</text><text x="40.08" y="1.67" class="g">y</text></symbol><symbol id="18"><text x="0" y="1.67" class="g">rm:</text><text x="4.008" y="1.67" class="g">remove</text><text x="11.021999999999998" y="1.67" class="g">regular</text><text x="19.037999999999997" y="1.67" class="g">empty</text><text x="25.05" y="1.67" class="g">file</text><text x="30.059999999999995" y="1.67" class="g">&#x27;file_9&#x27;?</text><text x="40.08" y="1.67" class="g">n</text></symbol><symbol id="19"><text x="0" y="1.67" class="g">file_2</text><text x="8.016" y="1.67" class="g">file_3</text><text x="16.032" y="1.67" class="g">file_5</text><text x="24.048" y="1.67" class="g">file_9</text></symbol><symbol id="a"><rect height="23" width="80" x="0" y="0" class="i"></rect></symbol><symbol id="b"><rect height="2.171" width="1.1022" class="j"></rect></symbol></defs><rect height="47.76199999999999" width="80" class="a"></rect><g class="l"><svg x="0" y="0" width="5760"><svg x="0"><use xlink:href="#a"></use><use xlink:href="#b" x="-0.0040000000000000036" y="0"></use></svg><svg x="80"><use xlink:href="#a"></use><use xlink:href="#b" x="35.996" y="0"></use><use xlink:href="#1" y="0"></use></svg><svg x="160"><use xlink:href="#a"></use><use xlink:href="#b" x="36.996" y="0"></use><text x="0" y="1.67" class="f">abhishek@itsfoss</text><text x="16.032" y="1.67" class="g">:</text><text x="17.034" y="1.67" class="h">~/practice_delete</text><text x="34.068" y="1.67" class="g">$</text><text x="36.071999999999996" y="1.67" class="g">t</text></svg><svg x="240"><use xlink:href="#a"></use><use xlink:href="#b" x="37.996" y="0"></use><text x="0" y="1.67" class="f">abhishek@itsfoss</text><text x="16.032" y="1.67" class="g">:</text><text x="17.034" y="1.67" class="h">~/practice_delete</text><text x="34.068" y="1.67" class="g">$</text><text x="36.071999999999996" y="1.67" class="g">to</text></svg><svg x="320"><use xlink:href="#a"></use><use xlink:href="#b" x="38.996" y="0"></use><text x="0" y="1.67" class="f">abhishek@itsfoss</text><text x="16.032" y="1.67" class="g">:</text><text x="17.034" y="1.67" class="h">~/practice_delete</text><text x="34.068" y="1.67" class="g">$</text><text x="36.071999999999996" y="1.67" class="g">tou</text></svg><svg x="400"><use xlink:href="#a"></use><use xlink:href="#b" x="39.996" y="0"></use><text x="0" y="1.67" class="f">abhishek@itsfoss</text><text x="16.032" y="1.67" class="g">:</text><text x="17.034" y="1.67" class="h">~/practice_delete</text><text x="34.068" y="1.67" class="g">$</text><text x="36.071999999999996" y="1.67" class="g">touc</text></svg><svg x="480"><use xlink:href="#a"></use><use xlink:href="#b" x="40.996" y="0"></use><use xlink:href="#2" y="0"></use></svg><svg x="560"><use xlink:href="#a"></use><use xlink:href="#b" x="41.996" y="0"></use><use xlink:href="#2" y="0"></use></svg><svg x="640"><use xlink:href="#a"></use><use xlink:href="#b" x="42.996" y="0"></use><text x="0" y="1.67" class="f">abhishek@itsfoss</text><text x="16.032" y="1.67" class="g">:</text><text x="17.034" y="1.67" class="h">~/practice_delete</text><text x="34.068" y="1.67" class="g">$</text><text x="36.071999999999996" y="1.67" class="g">touch</text><text x="42.083999999999996" y="1.67" class="g">f</text></svg><svg x="720"><use xlink:href="#a"></use><use xlink:href="#b" x="43.996" y="0"></use><text x="0" y="1.67" class="f">abhishek@itsfoss</text><text x="16.032" y="1.67" class="g">:</text><text x="17.034" y="1.67" class="h">~/practice_delete</text><text x="34.068" y="1.67" class="g">$</text><text x="36.071999999999996" y="1.67" class="g">touch</text><text x="42.083999999999996" y="1.67" class="g">fi</text></svg><svg x="800"><use xlink:href="#a"></use><use xlink:href="#b" x="44.996" y="0"></use><text x="0" y="1.67" class="f">abhishek@itsfoss</text><text x="16.032" y="1.67" class="g">:</text><text x="17.034" y="1.67" class="h">~/practice_delete</text><text x="34.068" y="1.67" class="g">$</text><text x="36.071999999999996" y="1.67" class="g">touch</text><text x="42.083999999999996" y="1.67" class="g">fil</text></svg><svg x="880"><use xlink:href="#a"></use><use xlink:href="#b" x="45.996" y="0"></use><text x="0" y="1.67" class="f">abhishek@itsfoss</text><text x="16.032" y="1.67" class="g">:</text><text x="17.034" y="1.67" class="h">~/practice_delete</text><text x="34.068" y="1.67" class="g">$</text><text x="36.071999999999996" y="1.67" class="g">touch</text><text x="42.083999999999996" y="1.67" class="g">file</text></svg><svg x="960"><use xlink:href="#a"></use><use xlink:href="#b" x="46.996" y="0"></use><text x="0" y="1.67" class="f">abhishek@itsfoss</text><text x="16.032" y="1.67" class="g">:</text><text x="17.034" y="1.67" class="h">~/practice_delete</text><text x="34.068" y="1.67" class="g">$</text><text x="36.071999999999996" y="1.67" class="g">touch</text><text x="42.083999999999996" y="1.67" class="g">file_</text></svg><svg x="1040"><use xlink:href="#a"></use><use xlink:href="#b" x="47.996" y="0"></use><text x="0" y="1.67" class="f">abhishek@itsfoss</text><text x="16.032" y="1.67" class="g">:</text><text x="17.034" y="1.67" class="h">~/practice_delete</text><text x="34.068" y="1.67" class="g">$</text><text x="36.071999999999996" y="1.67" class="g">touch</text><text x="42.083999999999996" y="1.67" class="g">file_{</text></svg><svg x="1120"><use xlink:href="#a"></use><use xlink:href="#b" x="48.996" y="0"></use><text x="0" y="1.67" class="f">abhishek@itsfoss</text><text x="16.032" y="1.67" class="g">:</text><text x="17.034" y="1.67" class="h">~/practice_delete</text><text x="34.068" y="1.67" class="g">$</text><text x="36.071999999999996" y="1.67" class="g">touch</text><text x="42.083999999999996" y="1.67" class="g">file_{1</text></svg><svg x="1200"><use xlink:href="#a"></use><use xlink:href="#b" x="49.996" y="0"></use><text x="0" y="1.67" class="f">abhishek@itsfoss</text><text x="16.032" y="1.67" class="g">:</text><text x="17.034" y="1.67" class="h">~/practice_delete</text><text x="34.068" y="1.67" class="g">$</text><text x="36.071999999999996" y="1.67" class="g">touch</text><text x="42.083999999999996" y="1.67" class="g">file_{1.</text></svg><svg x="1280"><use xlink:href="#a"></use><use xlink:href="#b" x="50.996" y="0"></use><text x="0" y="1.67" class="f">abhishek@itsfoss</text><text x="16.032" y="1.67" class="g">:</text><text x="17.034" y="1.67" class="h">~/practice_delete</text><text x="34.068" y="1.67" class="g">$</text><text x="36.071999999999996" y="1.67" class="g">touch</text><text x="42.083999999999996" y="1.67" class="g">file_{1..</text></svg><svg x="1360"><use xlink:href="#a"></use><use xlink:href="#b" x="51.996" y="0"></use><text x="0" y="1.67" class="f">abhishek@itsfoss</text><text x="16.032" y="1.67" class="g">:</text><text x="17.034" y="1.67" class="h">~/practice_delete</text><text x="34.068" y="1.67" class="g">$</text><text x="36.071999999999996" y="1.67" class="g">touch</text><text x="42.083999999999996" y="1.67" class="g">file_{1..9</text></svg><svg x="1440"><use xlink:href="#a"></use><use xlink:href="#b" x="52.996" y="0"></use><use xlink:href="#3" y="0"></use></svg><svg x="1520"><use xlink:href="#a"></use><use xlink:href="#b" x="-0.0040000000000000036" y="2.146"></use><use xlink:href="#3" y="0"></use></svg><svg x="1600"><use xlink:href="#a"></use><use xlink:href="#b" x="35.996" y="2.146"></use><use xlink:href="#3" y="0"></use><use xlink:href="#1" y="2.171"></use></svg><svg x="1680"><use xlink:href="#a"></use><use xlink:href="#b" x="36.996" y="2.146"></use><use xlink:href="#3" y="0"></use><use xlink:href="#4" y="2.171"></use></svg><svg x="1760"><use xlink:href="#a"></use><use xlink:href="#b" x="37.996" y="2.146"></use><use xlink:href="#3" y="0"></use><use xlink:href="#5" y="2.171"></use></svg><svg x="1840"><use xlink:href="#a"></use><use xlink:href="#b" x="-0.0040000000000000036" y="4.317"></use><use xlink:href="#3" y="0"></use><use xlink:href="#5" y="2.171"></use></svg><svg x="1920"><use xlink:href="#a"></use><use xlink:href="#b" x="35.996" y="6.4879999999999995"></use><use xlink:href="#3" y="0"></use><use xlink:href="#5" y="2.171"></use><use xlink:href="#6" y="4.342"></use><use xlink:href="#1" y="6.513"></use></svg><svg x="2000"><use xlink:href="#a"></use><use xlink:href="#b" x="36.996" y="6.4879999999999995"></use><use xlink:href="#3" y="0"></use><use xlink:href="#5" y="2.171"></use><use xlink:href="#6" y="4.342"></use><text x="0" y="8.183" class="f">abhishek@itsfoss</text><text x="16.032" y="8.183" class="g">:</text><text x="17.034" y="8.183" class="h">~/practice_delete</text><text x="34.068" y="8.183" class="g">$</text><text x="36.071999999999996" y="8.183" class="g">r</text></svg><svg x="2080"><use xlink:href="#a"></use><use xlink:href="#b" x="37.996" y="6.4879999999999995"></use><use xlink:href="#3" y="0"></use><use xlink:href="#5" y="2.171"></use><use xlink:href="#6" y="4.342"></use><use xlink:href="#7" y="6.513"></use></svg><svg x="2160"><use xlink:href="#a"></use><use xlink:href="#b" x="38.996" y="6.4879999999999995"></use><use xlink:href="#3" y="0"></use><use xlink:href="#5" y="2.171"></use><use xlink:href="#6" y="4.342"></use><use xlink:href="#7" y="6.513"></use></svg><svg x="2240"><use xlink:href="#a"></use><use xlink:href="#b" x="39.996" y="6.4879999999999995"></use><use xlink:href="#3" y="0"></use><use xlink:href="#5" y="2.171"></use><use xlink:href="#6" y="4.342"></use><text x="0" y="8.183" class="f">abhishek@itsfoss</text><text x="16.032" y="8.183" class="g">:</text><text x="17.034" y="8.183" class="h">~/practice_delete</text><text x="34.068" y="8.183" class="g">$</text><text x="36.071999999999996" y="8.183" class="g">rm</text><text x="39.077999999999996" y="8.183" class="g">-</text></svg><svg x="2320"><use xlink:href="#a"></use><use xlink:href="#b" x="40.996" y="6.4879999999999995"></use><use xlink:href="#3" y="0"></use><use xlink:href="#5" y="2.171"></use><use xlink:href="#6" y="4.342"></use><use xlink:href="#8" y="6.513"></use></svg><svg x="2400"><use xlink:href="#a"></use><use xlink:href="#b" x="41.996" y="6.4879999999999995"></use><use xlink:href="#3" y="0"></use><use xlink:href="#5" y="2.171"></use><use xlink:href="#6" y="4.342"></use><use xlink:href="#8" y="6.513"></use></svg><svg x="2480"><use xlink:href="#a"></use><use xlink:href="#b" x="42.996" y="6.4879999999999995"></use><use xlink:href="#3" y="0"></use><use xlink:href="#5" y="2.171"></use><use xlink:href="#6" y="4.342"></use><text x="0" y="8.183" class="f">abhishek@itsfoss</text><text x="16.032" y="8.183" class="g">:</text><text x="17.034" y="8.183" class="h">~/practice_delete</text><text x="34.068" y="8.183" class="g">$</text><text x="36.071999999999996" y="8.183" class="g">rm</text><text x="39.077999999999996" y="8.183" class="g">-i</text><text x="42.083999999999996" y="8.183" class="g">f</text></svg><svg x="2560"><use xlink:href="#a"></use><use xlink:href="#b" x="43.996" y="6.4879999999999995"></use><use xlink:href="#3" y="0"></use><use xlink:href="#5" y="2.171"></use><use xlink:href="#6" y="4.342"></use><text x="0" y="8.183" class="f">abhishek@itsfoss</text><text x="16.032" y="8.183" class="g">:</text><text x="17.034" y="8.183" class="h">~/practice_delete</text><text x="34.068" y="8.183" class="g">$</text><text x="36.071999999999996" y="8.183" class="g">rm</text><text x="39.077999999999996" y="8.183" class="g">-i</text><text x="42.083999999999996" y="8.183" class="g">fi</text></svg><svg x="2640"><use xlink:href="#a"></use><use xlink:href="#b" x="44.996" y="6.4879999999999995"></use><use xlink:href="#3" y="0"></use><use xlink:href="#5" y="2.171"></use><use xlink:href="#6" y="4.342"></use><text x="0" y="8.183" class="f">abhishek@itsfoss</text><text x="16.032" y="8.183" class="g">:</text><text x="17.034" y="8.183" class="h">~/practice_delete</text><text x="34.068" y="8.183" class="g">$</text><text x="36.071999999999996" y="8.183" class="g">rm</text><text x="39.077999999999996" y="8.183" class="g">-i</text><text x="42.083999999999996" y="8.183" class="g">fil</text></svg><svg x="2720"><use xlink:href="#a"></use><use xlink:href="#b" x="45.996" y="6.4879999999999995"></use><use xlink:href="#3" y="0"></use><use xlink:href="#5" y="2.171"></use><use xlink:href="#6" y="4.342"></use><text x="0" y="8.183" class="f">abhishek@itsfoss</text><text x="16.032" y="8.183" class="g">:</text><text x="17.034" y="8.183" class="h">~/practice_delete</text><text x="34.068" y="8.183" class="g">$</text><text x="36.071999999999996" y="8.183" class="g">rm</text><text x="39.077999999999996" y="8.183" class="g">-i</text><text x="42.083999999999996" y="8.183" class="g">file</text></svg><svg x="2800"><use xlink:href="#a"></use><use xlink:href="#b" x="46.996" y="6.4879999999999995"></use><use xlink:href="#3" y="0"></use><use xlink:href="#5" y="2.171"></use><use xlink:href="#6" y="4.342"></use><text x="0" y="8.183" class="f">abhishek@itsfoss</text><text x="16.032" y="8.183" class="g">:</text><text x="17.034" y="8.183" class="h">~/practice_delete</text><text x="34.068" y="8.183" class="g">$</text><text x="36.071999999999996" y="8.183" class="g">rm</text><text x="39.077999999999996" y="8.183" class="g">-i</text><text x="42.083999999999996" y="8.183" class="g">file_</text></svg><svg x="2880"><use xlink:href="#a"></use><use xlink:href="#b" x="47.996" y="6.4879999999999995"></use><use xlink:href="#3" y="0"></use><use xlink:href="#5" y="2.171"></use><use xlink:href="#6" y="4.342"></use><use xlink:href="#9" y="6.513"></use></svg><svg x="2960"><use xlink:href="#a"></use><use xlink:href="#b" x="-0.0040000000000000036" y="8.658999999999999"></use><use xlink:href="#3" y="0"></use><use xlink:href="#5" y="2.171"></use><use xlink:href="#6" y="4.342"></use><use xlink:href="#9" y="6.513"></use></svg><svg x="3040"><use xlink:href="#a"></use><use xlink:href="#b" x="39.996" y="8.658999999999999"></use><use xlink:href="#3" y="0"></use><use xlink:href="#5" y="2.171"></use><use xlink:href="#6" y="4.342"></use><use xlink:href="#9" y="6.513"></use><text x="0" y="10.354" class="g">rm:</text><text x="4.008" y="10.354" class="g">remove</text><text x="11.021999999999998" y="10.354" class="g">regular</text><text x="19.037999999999997" y="10.354" class="g">empty</text><text x="25.05" y="10.354" class="g">file</text><text x="30.059999999999995" y="10.354" class="g">&#x27;file_1&#x27;?</text></svg><svg x="3120"><use xlink:href="#a"></use><use xlink:href="#b" x="40.996" y="8.658999999999999"></use><use xlink:href="#3" y="0"></use><use xlink:href="#5" y="2.171"></use><use xlink:href="#6" y="4.342"></use><use xlink:href="#9" y="6.513"></use><use xlink:href="#10" y="8.684"></use></svg><svg x="3200"><use xlink:href="#a"></use><use xlink:href="#b" x="-0.0040000000000000036" y="10.83"></use><use xlink:href="#3" y="0"></use><use xlink:href="#5" y="2.171"></use><use xlink:href="#6" y="4.342"></use><use xlink:href="#9" y="6.513"></use><use xlink:href="#10" y="8.684"></use></svg><svg x="3280"><use xlink:href="#a"></use><use xlink:href="#b" x="39.996" y="10.83"></use><use xlink:href="#3" y="0"></use><use xlink:href="#5" y="2.171"></use><use xlink:href="#6" y="4.342"></use><use xlink:href="#9" y="6.513"></use><use xlink:href="#10" y="8.684"></use><text x="0" y="12.525" class="g">rm:</text><text x="4.008" y="12.525" class="g">remove</text><text x="11.021999999999998" y="12.525" class="g">regular</text><text x="19.037999999999997" y="12.525" class="g">empty</text><text x="25.05" y="12.525" class="g">file</text><text x="30.059999999999995" y="12.525" class="g">&#x27;file_2&#x27;?</text></svg><svg x="3360"><use xlink:href="#a"></use><use xlink:href="#b" x="40.996" y="10.83"></use><use xlink:href="#3" y="0"></use><use xlink:href="#5" y="2.171"></use><use xlink:href="#6" y="4.342"></use><use xlink:href="#9" y="6.513"></use><use xlink:href="#10" y="8.684"></use><use xlink:href="#11" y="10.855"></use></svg><svg x="3440"><use xlink:href="#a"></use><use xlink:href="#b" x="-0.0040000000000000036" y="13.001"></use><use xlink:href="#3" y="0"></use><use xlink:href="#5" y="2.171"></use><use xlink:href="#6" y="4.342"></use><use xlink:href="#9" y="6.513"></use><use xlink:href="#10" y="8.684"></use><use xlink:href="#11" y="10.855"></use></svg><svg x="3520"><use xlink:href="#a"></use><use xlink:href="#b" x="39.996" y="13.001"></use><use xlink:href="#3" y="0"></use><use xlink:href="#5" y="2.171"></use><use xlink:href="#6" y="4.342"></use><use xlink:href="#9" y="6.513"></use><use xlink:href="#10" y="8.684"></use><use xlink:href="#11" y="10.855"></use><text x="0" y="14.696" class="g">rm:</text><text x="4.008" y="14.696" class="g">remove</text><text x="11.021999999999998" y="14.696" class="g">regular</text><text x="19.037999999999997" y="14.696" class="g">empty</text><text x="25.05" y="14.696" class="g">file</text><text x="30.059999999999995" y="14.696" class="g">&#x27;file_3&#x27;?</text></svg><svg x="3600"><use xlink:href="#a"></use><use xlink:href="#b" x="40.996" y="13.001"></use><use xlink:href="#3" y="0"></use><use xlink:href="#5" y="2.171"></use><use xlink:href="#6" y="4.342"></use><use xlink:href="#9" y="6.513"></use><use xlink:href="#10" y="8.684"></use><use xlink:href="#11" y="10.855"></use><use xlink:href="#12" y="13.026"></use></svg><svg x="3680"><use xlink:href="#a"></use><use xlink:href="#b" x="-0.0040000000000000036" y="15.171999999999999"></use><use xlink:href="#3" y="0"></use><use xlink:href="#5" y="2.171"></use><use xlink:href="#6" y="4.342"></use><use xlink:href="#9" y="6.513"></use><use xlink:href="#10" y="8.684"></use><use xlink:href="#11" y="10.855"></use><use xlink:href="#12" y="13.026"></use></svg><svg x="3760"><use xlink:href="#a"></use><use xlink:href="#b" x="39.996" y="15.171999999999999"></use><use xlink:href="#3" y="0"></use><use xlink:href="#5" y="2.171"></use><use xlink:href="#6" y="4.342"></use><use xlink:href="#9" y="6.513"></use><use xlink:href="#10" y="8.684"></use><use xlink:href="#11" y="10.855"></use><use xlink:href="#12" y="13.026"></use><text x="0" y="16.866999999999997" class="g">rm:</text><text x="4.008" y="16.866999999999997" class="g">remove</text><text x="11.021999999999998" y="16.866999999999997" class="g">regular</text><text x="19.037999999999997" y="16.866999999999997" class="g">empty</text><text x="25.05" y="16.866999999999997" class="g">file</text><text x="30.059999999999995" y="16.866999999999997" class="g">&#x27;file_4&#x27;?</text></svg><svg x="3840"><use xlink:href="#a"></use><use xlink:href="#b" x="40.996" y="15.171999999999999"></use><use xlink:href="#3" y="0"></use><use xlink:href="#5" y="2.171"></use><use xlink:href="#6" y="4.342"></use><use xlink:href="#9" y="6.513"></use><use xlink:href="#10" y="8.684"></use><use xlink:href="#11" y="10.855"></use><use xlink:href="#12" y="13.026"></use><use xlink:href="#13" y="15.197"></use></svg><svg x="3920"><use xlink:href="#a"></use><use xlink:href="#b" x="-0.0040000000000000036" y="17.343"></use><use xlink:href="#3" y="0"></use><use xlink:href="#5" y="2.171"></use><use xlink:href="#6" y="4.342"></use><use xlink:href="#9" y="6.513"></use><use xlink:href="#10" y="8.684"></use><use xlink:href="#11" y="10.855"></use><use xlink:href="#12" y="13.026"></use><use xlink:href="#13" y="15.197"></use></svg><svg x="4000"><use xlink:href="#a"></use><use xlink:href="#b" x="39.996" y="17.343"></use><use xlink:href="#3" y="0"></use><use xlink:href="#5" y="2.171"></use><use xlink:href="#6" y="4.342"></use><use xlink:href="#9" y="6.513"></use><use xlink:href="#10" y="8.684"></use><use xlink:href="#11" y="10.855"></use><use xlink:href="#12" y="13.026"></use><use xlink:href="#13" y="15.197"></use><text x="0" y="19.037999999999997" class="g">rm:</text><text x="4.008" y="19.037999999999997" class="g">remove</text><text x="11.021999999999998" y="19.037999999999997" class="g">regular</text><text x="19.037999999999997" y="19.037999999999997" class="g">empty</text><text x="25.05" y="19.037999999999997" class="g">file</text><text x="30.059999999999995" y="19.037999999999997" class="g">&#x27;file_5&#x27;?</text></svg><svg x="4080"><use xlink:href="#a"></use><use xlink:href="#b" x="40.996" y="17.343"></use><use xlink:href="#3" y="0"></use><use xlink:href="#5" y="2.171"></use><use xlink:href="#6" y="4.342"></use><use xlink:href="#9" y="6.513"></use><use xlink:href="#10" y="8.684"></use><use xlink:href="#11" y="10.855"></use><use xlink:href="#12" y="13.026"></use><use xlink:href="#13" y="15.197"></use><use xlink:href="#14" y="17.368"></use></svg><svg x="4160"><use xlink:href="#a"></use><use xlink:href="#b" x="-0.0040000000000000036" y="19.514000000000003"></use><use xlink:href="#3" y="0"></use><use xlink:href="#5" y="2.171"></use><use xlink:href="#6" y="4.342"></use><use xlink:href="#9" y="6.513"></use><use xlink:href="#10" y="8.684"></use><use xlink:href="#11" y="10.855"></use><use xlink:href="#12" y="13.026"></use><use xlink:href="#13" y="15.197"></use><use xlink:href="#14" y="17.368"></use></svg><svg x="4240"><use xlink:href="#a"></use><use xlink:href="#b" x="39.996" y="19.514000000000003"></use><use xlink:href="#3" y="0"></use><use xlink:href="#5" y="2.171"></use><use xlink:href="#6" y="4.342"></use><use xlink:href="#9" y="6.513"></use><use xlink:href="#10" y="8.684"></use><use xlink:href="#11" y="10.855"></use><use xlink:href="#12" y="13.026"></use><use xlink:href="#13" y="15.197"></use><use xlink:href="#14" y="17.368"></use><text x="0" y="21.209000000000003" class="g">rm:</text><text x="4.008" y="21.209000000000003" class="g">remove</text><text x="11.021999999999998" y="21.209000000000003" class="g">regular</text><text x="19.037999999999997" y="21.209000000000003" class="g">empty</text><text x="25.05" y="21.209000000000003" class="g">file</text><text x="30.059999999999995" y="21.209000000000003" class="g">&#x27;file_6&#x27;?</text></svg><svg x="4320"><use xlink:href="#a"></use><use xlink:href="#b" x="40.996" y="19.514000000000003"></use><use xlink:href="#3" y="0"></use><use xlink:href="#5" y="2.171"></use><use xlink:href="#6" y="4.342"></use><use xlink:href="#9" y="6.513"></use><use xlink:href="#10" y="8.684"></use><use xlink:href="#11" y="10.855"></use><use xlink:href="#12" y="13.026"></use><use xlink:href="#13" y="15.197"></use><use xlink:href="#14" y="17.368"></use><use xlink:href="#15" y="19.539"></use></svg><svg x="4400"><use xlink:href="#a"></use><use xlink:href="#b" x="-0.0040000000000000036" y="21.685000000000002"></use><use xlink:href="#3" y="0"></use><use xlink:href="#5" y="2.171"></use><use xlink:href="#6" y="4.342"></use><use xlink:href="#9" y="6.513"></use><use xlink:href="#10" y="8.684"></use><use xlink:href="#11" y="10.855"></use><use xlink:href="#12" y="13.026"></use><use xlink:href="#13" y="15.197"></use><use xlink:href="#14" y="17.368"></use><use xlink:href="#15" y="19.539"></use></svg><svg x="4480"><use xlink:href="#a"></use><use xlink:href="#b" x="39.996" y="21.685000000000002"></use><use xlink:href="#3" y="0"></use><use xlink:href="#5" y="2.171"></use><use xlink:href="#6" y="4.342"></use><use xlink:href="#9" y="6.513"></use><use xlink:href="#10" y="8.684"></use><use xlink:href="#11" y="10.855"></use><use xlink:href="#12" y="13.026"></use><use xlink:href="#13" y="15.197"></use><use xlink:href="#14" y="17.368"></use><use xlink:href="#15" y="19.539"></use><text x="0" y="23.380000000000003" class="g">rm:</text><text x="4.008" y="23.380000000000003" class="g">remove</text><text x="11.021999999999998" y="23.380000000000003" class="g">regular</text><text x="19.037999999999997" y="23.380000000000003" class="g">empty</text><text x="25.05" y="23.380000000000003" class="g">file</text><text x="30.059999999999995" y="23.380000000000003" class="g">&#x27;file_7&#x27;?</text></svg><svg x="4560"><use xlink:href="#a"></use><use xlink:href="#b" x="40.996" y="21.685000000000002"></use><use xlink:href="#3" y="0"></use><use xlink:href="#5" y="2.171"></use><use xlink:href="#6" y="4.342"></use><use xlink:href="#9" y="6.513"></use><use xlink:href="#10" y="8.684"></use><use xlink:href="#11" y="10.855"></use><use xlink:href="#12" y="13.026"></use><use xlink:href="#13" y="15.197"></use><use xlink:href="#14" y="17.368"></use><use xlink:href="#15" y="19.539"></use><use xlink:href="#16" y="21.71"></use></svg><svg x="4640"><use xlink:href="#a"></use><use xlink:href="#b" x="-0.0040000000000000036" y="23.855999999999998"></use><use xlink:href="#3" y="0"></use><use xlink:href="#5" y="2.171"></use><use xlink:href="#6" y="4.342"></use><use xlink:href="#9" y="6.513"></use><use xlink:href="#10" y="8.684"></use><use xlink:href="#11" y="10.855"></use><use xlink:href="#12" y="13.026"></use><use xlink:href="#13" y="15.197"></use><use xlink:href="#14" y="17.368"></use><use xlink:href="#15" y="19.539"></use><use xlink:href="#16" y="21.71"></use></svg><svg x="4720"><use xlink:href="#a"></use><use xlink:href="#b" x="39.996" y="23.855999999999998"></use><use xlink:href="#3" y="0"></use><use xlink:href="#5" y="2.171"></use><use xlink:href="#6" y="4.342"></use><use xlink:href="#9" y="6.513"></use><use xlink:href="#10" y="8.684"></use><use xlink:href="#11" y="10.855"></use><use xlink:href="#12" y="13.026"></use><use xlink:href="#13" y="15.197"></use><use xlink:href="#14" y="17.368"></use><use xlink:href="#15" y="19.539"></use><use xlink:href="#16" y="21.71"></use><text x="0" y="25.550999999999995" class="g">rm:</text><text x="4.008" y="25.550999999999995" class="g">remove</text><text x="11.021999999999998" y="25.550999999999995" class="g">regular</text><text x="19.037999999999997" y="25.550999999999995" class="g">empty</text><text x="25.05" y="25.550999999999995" class="g">file</text><text x="30.059999999999995" y="25.550999999999995" class="g">&#x27;file_8&#x27;?</text></svg><svg x="4800"><use xlink:href="#a"></use><use xlink:href="#b" x="40.996" y="23.855999999999998"></use><use xlink:href="#3" y="0"></use><use xlink:href="#5" y="2.171"></use><use xlink:href="#6" y="4.342"></use><use xlink:href="#9" y="6.513"></use><use xlink:href="#10" y="8.684"></use><use xlink:href="#11" y="10.855"></use><use xlink:href="#12" y="13.026"></use><use xlink:href="#13" y="15.197"></use><use xlink:href="#14" y="17.368"></use><use xlink:href="#15" y="19.539"></use><use xlink:href="#16" y="21.71"></use><use xlink:href="#17" y="23.880999999999997"></use></svg><svg x="4880"><use xlink:href="#a"></use><use xlink:href="#b" x="-0.0040000000000000036" y="26.027"></use><use xlink:href="#3" y="0"></use><use xlink:href="#5" y="2.171"></use><use xlink:href="#6" y="4.342"></use><use xlink:href="#9" y="6.513"></use><use xlink:href="#10" y="8.684"></use><use xlink:href="#11" y="10.855"></use><use xlink:href="#12" y="13.026"></use><use xlink:href="#13" y="15.197"></use><use xlink:href="#14" y="17.368"></use><use xlink:href="#15" y="19.539"></use><use xlink:href="#16" y="21.71"></use><use xlink:href="#17" y="23.880999999999997"></use></svg><svg x="4960"><use xlink:href="#a"></use><use xlink:href="#b" x="39.996" y="26.027"></use><use xlink:href="#3" y="0"></use><use xlink:href="#5" y="2.171"></use><use xlink:href="#6" y="4.342"></use><use xlink:href="#9" y="6.513"></use><use xlink:href="#10" y="8.684"></use><use xlink:href="#11" y="10.855"></use><use xlink:href="#12" y="13.026"></use><use xlink:href="#13" y="15.197"></use><use xlink:href="#14" y="17.368"></use><use xlink:href="#15" y="19.539"></use><use xlink:href="#16" y="21.71"></use><use xlink:href="#17" y="23.880999999999997"></use><text x="0" y="27.722" class="g">rm:</text><text x="4.008" y="27.722" class="g">remove</text><text x="11.021999999999998" y="27.722" class="g">regular</text><text x="19.037999999999997" y="27.722" class="g">empty</text><text x="25.05" y="27.722" class="g">file</text><text x="30.059999999999995" y="27.722" class="g">&#x27;file_9&#x27;?</text></svg><svg x="5040"><use xlink:href="#a"></use><use xlink:href="#b" x="40.996" y="26.027"></use><use xlink:href="#3" y="0"></use><use xlink:href="#5" y="2.171"></use><use xlink:href="#6" y="4.342"></use><use xlink:href="#9" y="6.513"></use><use xlink:href="#10" y="8.684"></use><use xlink:href="#11" y="10.855"></use><use xlink:href="#12" y="13.026"></use><use xlink:href="#13" y="15.197"></use><use xlink:href="#14" y="17.368"></use><use xlink:href="#15" y="19.539"></use><use xlink:href="#16" y="21.71"></use><use xlink:href="#17" y="23.880999999999997"></use><use xlink:href="#18" y="26.052"></use></svg><svg x="5120"><use xlink:href="#a"></use><use xlink:href="#b" x="-0.0040000000000000036" y="28.198000000000004"></use><use xlink:href="#3" y="0"></use><use xlink:href="#5" y="2.171"></use><use xlink:href="#6" y="4.342"></use><use xlink:href="#9" y="6.513"></use><use xlink:href="#10" y="8.684"></use><use xlink:href="#11" y="10.855"></use><use xlink:href="#12" y="13.026"></use><use xlink:href="#13" y="15.197"></use><use xlink:href="#14" y="17.368"></use><use xlink:href="#15" y="19.539"></use><use xlink:href="#16" y="21.71"></use><use xlink:href="#17" y="23.880999999999997"></use><use xlink:href="#18" y="26.052"></use></svg><svg x="5200"><use xlink:href="#a"></use><use xlink:href="#b" x="35.996" y="28.198000000000004"></use><use xlink:href="#3" y="0"></use><use xlink:href="#5" y="2.171"></use><use xlink:href="#6" y="4.342"></use><use xlink:href="#9" y="6.513"></use><use xlink:href="#10" y="8.684"></use><use xlink:href="#11" y="10.855"></use><use xlink:href="#12" y="13.026"></use><use xlink:href="#13" y="15.197"></use><use xlink:href="#14" y="17.368"></use><use xlink:href="#15" y="19.539"></use><use xlink:href="#16" y="21.71"></use><use xlink:href="#17" y="23.880999999999997"></use><use xlink:href="#18" y="26.052"></use><use xlink:href="#1" y="28.223000000000003"></use></svg><svg x="5280"><use xlink:href="#a"></use><use xlink:href="#b" x="36.996" y="28.198000000000004"></use><use xlink:href="#3" y="0"></use><use xlink:href="#5" y="2.171"></use><use xlink:href="#6" y="4.342"></use><use xlink:href="#9" y="6.513"></use><use xlink:href="#10" y="8.684"></use><use xlink:href="#11" y="10.855"></use><use xlink:href="#12" y="13.026"></use><use xlink:href="#13" y="15.197"></use><use xlink:href="#14" y="17.368"></use><use xlink:href="#15" y="19.539"></use><use xlink:href="#16" y="21.71"></use><use xlink:href="#17" y="23.880999999999997"></use><use xlink:href="#18" y="26.052"></use><use xlink:href="#4" y="28.223000000000003"></use></svg><svg x="5360"><use xlink:href="#a"></use><use xlink:href="#b" x="37.996" y="28.198000000000004"></use><use xlink:href="#3" y="0"></use><use xlink:href="#5" y="2.171"></use><use xlink:href="#6" y="4.342"></use><use xlink:href="#9" y="6.513"></use><use xlink:href="#10" y="8.684"></use><use xlink:href="#11" y="10.855"></use><use xlink:href="#12" y="13.026"></use><use xlink:href="#13" y="15.197"></use><use xlink:href="#14" y="17.368"></use><use xlink:href="#15" y="19.539"></use><use xlink:href="#16" y="21.71"></use><use xlink:href="#17" y="23.880999999999997"></use><use xlink:href="#18" y="26.052"></use><use xlink:href="#5" y="28.223000000000003"></use></svg><svg x="5440"><use xlink:href="#a"></use><use xlink:href="#b" x="-0.0040000000000000036" y="30.369"></use><use xlink:href="#3" y="0"></use><use xlink:href="#5" y="2.171"></use><use xlink:href="#6" y="4.342"></use><use xlink:href="#9" y="6.513"></use><use xlink:href="#10" y="8.684"></use><use xlink:href="#11" y="10.855"></use><use xlink:href="#12" y="13.026"></use><use xlink:href="#13" y="15.197"></use><use xlink:href="#14" y="17.368"></use><use xlink:href="#15" y="19.539"></use><use xlink:href="#16" y="21.71"></use><use xlink:href="#17" y="23.880999999999997"></use><use xlink:href="#18" y="26.052"></use><use xlink:href="#5" y="28.223000000000003"></use></svg><svg x="5520"><use xlink:href="#a"></use><use xlink:href="#b" x="-0.0040000000000000036" y="32.54"></use><use xlink:href="#3" y="0"></use><use xlink:href="#5" y="2.171"></use><use xlink:href="#6" y="4.342"></use><use xlink:href="#9" y="6.513"></use><use xlink:href="#10" y="8.684"></use><use xlink:href="#11" y="10.855"></use><use xlink:href="#12" y="13.026"></use><use xlink:href="#13" y="15.197"></use><use xlink:href="#14" y="17.368"></use><use xlink:href="#15" y="19.539"></use><use xlink:href="#16" y="21.71"></use><use xlink:href="#17" y="23.880999999999997"></use><use xlink:href="#18" y="26.052"></use><use xlink:href="#5" y="28.223000000000003"></use><use xlink:href="#19" y="30.394"></use></svg><svg x="5600"><use xlink:href="#a"></use><use xlink:href="#b" x="35.996" y="32.54"></use><use xlink:href="#3" y="0"></use><use xlink:href="#5" y="2.171"></use><use xlink:href="#6" y="4.342"></use><use xlink:href="#9" y="6.513"></use><use xlink:href="#10" y="8.684"></use><use xlink:href="#11" y="10.855"></use><use xlink:href="#12" y="13.026"></use><use xlink:href="#13" y="15.197"></use><use xlink:href="#14" y="17.368"></use><use xlink:href="#15" y="19.539"></use><use xlink:href="#16" y="21.71"></use><use xlink:href="#17" y="23.880999999999997"></use><use xlink:href="#18" y="26.052"></use><use xlink:href="#5" y="28.223000000000003"></use><use xlink:href="#19" y="30.394"></use><use xlink:href="#1" y="32.565"></use></svg><svg x="5680"><use xlink:href="#a"></use><use xlink:href="#b" x="-0.0040000000000000036" y="36.882000000000005"></use><use xlink:href="#3" y="0"></use><use xlink:href="#5" y="2.171"></use><use xlink:href="#6" y="4.342"></use><use xlink:href="#9" y="6.513"></use><use xlink:href="#10" y="8.684"></use><use xlink:href="#11" y="10.855"></use><use xlink:href="#12" y="13.026"></use><use xlink:href="#13" y="15.197"></use><use xlink:href="#14" y="17.368"></use><use xlink:href="#15" y="19.539"></use><use xlink:href="#16" y="21.71"></use><use xlink:href="#17" y="23.880999999999997"></use><use xlink:href="#18" y="26.052"></use><use xlink:href="#5" y="28.223000000000003"></use><use xlink:href="#19" y="30.394"></use><use xlink:href="#1" y="32.565"></use><text x="0" y="36.406" class="g">exit</text></svg></svg></g></g></svg></svg>