<svg xmlns="http://www.w3.org/2000/svg" xmlns:xlink="http://www.w3.org/1999/xlink" width="840" height="537.6199999999999"><rect width="840" height="537.6199999999999" rx="5" ry="5" class="a"></rect><svg y="0%" x="0%"><circle cx="20" cy="20" r="6" class="b"></circle><circle cx="40" cy="20" r="6" class="c"></circle><circle cx="60" cy="20" r="6" class="d"></circle></svg><svg height="477.61999999999995" viewBox="0 0 80 47.76199999999999" width="800" x="15" xmlns="http://www.w3.org/2000/svg" xmlns:xlink="http://www.w3.org/1999/xlink" y="50"><style>.a{fill:rgb(40,45,53)}.b{fill:#ff5f58}.c{fill:#ffbd2e}.d{fill:#18c132}.e{font-family:Monaco,Consolas,Menlo,'Bitstream Vera Sans Mono','Powerline Symbols',monospace}.f{fill:rgb(168,204,140);font-weight:bold;white-space:pre}.g{fill:rgb(185,192,203);white-space:pre}.h{fill:rgb(113,190,242);font-weight:bold;white-space:pre}.i{fill:transparent}.j{fill:rgb(111,118,131)}.l{animation-duration:26.117517s;animation-iteration-count:infinite;animation-name:k;animation-timing-function:steps(1,end)}@keyframes k{0%{transform:translateX(-0px)}0.04%{transform:translateX(-80px)}8.33%{transform:translateX(-160px)}9.27%{transform:translateX(-240px)}15.02%{transform:translateX(-320px)}15.02%{transform:translateX(-400px)}20.03%{transform:translateX(-480px)}28.76%{transform:translateX(-560px)}31.77%{transform:translateX(-640px)}32.52%{transform:translateX(-720px)}33.39%{transform:translateX(-800px)}33.97%{transform:translateX(-880px)}33.97%{transform:translateX(-960px)}33.97%{transform:translateX(-1040px)}37.4%{transform:translateX(-1120px)}37.98%{transform:translateX(-1200px)}40.48%{transform:translateX(-1280px)}40.48%{transform:translateX(-1360px)}40.48%{transform:translateX(-1440px)}40.49%{transform:translateX(-1520px)}46.66%{transform:translateX(-1600px)}47.7%{transform:translateX(-1680px)}48.95%{transform:translateX(-1760px)}49.68%{transform:translateX(-1840px)}50.27%{transform:translateX(-1920px)}51.06%{transform:translateX(-2000px)}54.37%{transform:translateX(-2080px)}56.79%{transform:translateX(-2160px)}57.47%{transform:translateX(-2240px)}58.02%{transform:translateX(-2320px)}58.97%{transform:translateX(-2400px)}59.94%{transform:translateX(-2480px)}60.45%{transform:translateX(-2560px)}61.31%{transform:translateX(-2640px)}63.14%{transform:translateX(-2720px)}63.15%{transform:translateX(-2800px)}68.21%{transform:translateX(-2880px)}68.99%{transform:translateX(-2960px)}69.54%{transform:translateX(-3040px)}72.34%{transform:translateX(-3120px)}73.76%{transform:translateX(-3200px)}74.36%{transform:translateX(-3280px)}74.74%{transform:translateX(-3360px)}75.61%{transform:translateX(-3440px)}76.57%{transform:translateX(-3520px)}77.01%{transform:translateX(-3600px)}77.86%{transform:translateX(-3680px)}83.45%{transform:translateX(-3760px)}83.45%{transform:translateX(-3840px)}83.45%{transform:translateX(-3920px)}89.97%{transform:translateX(-4000px)}90.46%{transform:translateX(-4080px)}91.41%{transform:translateX(-4160px)}92.83%{transform:translateX(-4240px)}92.83%{transform:translateX(-4320px)}100%{transform:translateX(-4400px)}}</style><g font-family="Monaco, Consolas, Menlo, &#x27;Bitstream Vera Sans Mono&#x27;, &#x27;Powerline Symbols&#x27;, monospace" font-size="1.67" class="e"><defs><symbol id="1"><text x="0" y="1.67" class="f">abhishek@itsfoss</text><text x="16.032" y="1.67" class="g">:</text><text x="17.034" y="1.67" class="h">~/Documents</text><text x="28.055999999999997" y="1.67" class="g">$</text><text x="30.059999999999995" y="1.67" class="g">cd</text></symbol><symbol id="2"><text x="0" y="1.67" class="f">abhishek@itsfoss</text><text x="16.032" y="1.67" class="g">:</text><text x="17.034" y="1.67" class="h">~</text><text x="18.035999999999998" y="1.67" class="g">$</text></symbol><symbol id="3"><text x="0" y="1.67" class="f">abhishek@itsfoss</text><text x="16.032" y="1.67" class="g">:</text><text x="17.034" y="1.67" class="h">~</text><text x="18.035999999999998" y="1.67" class="g">$</text><text x="20.04" y="1.67" class="g">l</text></symbol><symbol id="4"><text x="0" y="1.67" class="f">abhishek@itsfoss</text><text x="16.032" y="1.67" class="g">:</text><text x="17.034" y="1.67" class="h">~</text><text x="18.035999999999998" y="1.67" class="g">$</text><text x="20.04" y="1.67" class="g">pwd</text></symbol><symbol id="5"><text x="0" y="1.67" class="g">/home/abhishek</text></symbol><symbol id="6"><text x="0" y="1.67" class="f">abhishek@itsfoss</text><text x="16.032" y="1.67" class="g">:</text><text x="17.034" y="1.67" class="h">~</text><text x="18.035999999999998" y="1.67" class="g">$</text><text x="20.04" y="1.67" class="g">ls</text></symbol><symbol id="7"><text x="0" y="1.67" class="h">Apps</text><text x="9.017999999999999" y="1.67" class="h">dev</text><text x="20.04" y="1.67" class="h">Dropbox</text><text x="36.071999999999996" y="1.67" class="h">Music</text><text x="46.09199999999999" y="1.67" class="h">script</text><text x="57.114" y="1.67" class="h">Videos</text></symbol><symbol id="8"><text x="0" y="1.67" class="h">Audio</text><text x="9.017999999999999" y="1.67" class="h">Documents</text><text x="20.04" y="1.67" class="h">itsfoss-backup</text><text x="36.071999999999996" y="1.67" class="h">Pictures</text><text x="46.09199999999999" y="1.67" class="h">snap</text></symbol><symbol id="9"><text x="0" y="1.67" class="h">Desktop</text><text x="9.017999999999999" y="1.67" class="h">Downloads</text><text x="20.04" y="1.67" class="h">MEGAsync</text><text x="36.071999999999996" y="1.67" class="h">Public</text><text x="46.09199999999999" y="1.67" class="h">Templates</text></symbol><symbol id="10"><text x="0" y="1.67" class="f">abhishek@itsfoss</text><text x="16.032" y="1.67" class="g">:</text><text x="17.034" y="1.67" class="h">~</text><text x="18.035999999999998" y="1.67" class="g">$</text><text x="20.04" y="1.67" class="g">mkdir</text></symbol><symbol id="11"><text x="0" y="1.67" class="f">abhishek@itsfoss</text><text x="16.032" y="1.67" class="g">:</text><text x="17.034" y="1.67" class="h">~</text><text x="18.035999999999998" y="1.67" class="g">$</text><text x="20.04" y="1.67" class="g">mkdir</text><text x="26.052" y="1.67" class="g">practice</text></symbol><symbol id="12"><text x="0" y="1.67" class="f">abhishek@itsfoss</text><text x="16.032" y="1.67" class="g">:</text><text x="17.034" y="1.67" class="h">~</text><text x="18.035999999999998" y="1.67" class="g">$</text><text x="20.04" y="1.67" class="g">cd</text></symbol><symbol id="13"><text x="0" y="1.67" class="f">abhishek@itsfoss</text><text x="16.032" y="1.67" class="g">:</text><text x="17.034" y="1.67" class="h">~</text><text x="18.035999999999998" y="1.67" class="g">$</text><text x="20.04" y="1.67" class="g">cd</text><text x="23.045999999999996" y="1.67" class="g">practice</text></symbol><symbol id="14"><text x="0" y="1.67" class="f">abhishek@itsfoss</text><text x="16.032" y="1.67" class="g">:</text><text x="17.034" y="1.67" class="h">~/practice</text><text x="27.054" y="1.67" class="g">$</text></symbol><symbol id="15"><text x="0" y="1.67" class="f">abhishek@itsfoss</text><text x="16.032" y="1.67" class="g">:</text><text x="17.034" y="1.67" class="h">~/practice</text><text x="27.054" y="1.67" class="g">$</text><text x="29.058" y="1.67" class="g">pwd</text></symbol><symbol id="16"><text x="0" y="1.67" class="g">/home/abhishek/practice</text></symbol><symbol id="a"><rect height="23" width="80" x="0" y="0" class="i"></rect></symbol><symbol id="b"><rect height="2.171" width="1.1022" class="j"></rect></symbol></defs><rect height="47.76199999999999" width="80" class="a"></rect><g class="l"><svg x="0" y="0" width="4480"><svg x="0"><use xlink:href="#a"></use><use xlink:href="#b" x="-0.0040000000000000036" y="0"></use></svg><svg x="80"><use xlink:href="#a"></use><use xlink:href="#b" x="29.996" y="0"></use><text x="0" y="1.67" class="f">abhishek@itsfoss</text><text x="16.032" y="1.67" class="g">:</text><text x="17.034" y="1.67" class="h">~/Documents</text><text x="28.055999999999997" y="1.67" class="g">$</text></svg><svg x="160"><use xlink:href="#a"></use><use xlink:href="#b" x="30.996" y="0"></use><text x="0" y="1.67" class="f">abhishek@itsfoss</text><text x="16.032" y="1.67" class="g">:</text><text x="17.034" y="1.67" class="h">~/Documents</text><text x="28.055999999999997" y="1.67" class="g">$</text><text x="30.059999999999995" y="1.67" class="g">c</text></svg><svg x="240"><use xlink:href="#a"></use><use xlink:href="#b" x="31.996" y="0"></use><use xlink:href="#1" y="0"></use></svg><svg x="320"><use xlink:href="#a"></use><use xlink:href="#b" x="-0.0040000000000000036" y="2.146"></use><use xlink:href="#1" y="0"></use></svg><svg x="400"><use xlink:href="#a"></use><use xlink:href="#b" x="19.996" y="2.146"></use><use xlink:href="#1" y="0"></use><use xlink:href="#2" y="2.171"></use></svg><svg x="480"><use xlink:href="#a"></use><use xlink:href="#b" x="20.996" y="2.146"></use><use xlink:href="#1" y="0"></use><use xlink:href="#3" y="2.171"></use></svg><svg x="560"><use xlink:href="#a"></use><use xlink:href="#b" x="19.996" y="2.146"></use><use xlink:href="#1" y="0"></use><use xlink:href="#2" y="2.171"></use></svg><svg x="640"><use xlink:href="#a"></use><use xlink:href="#b" x="20.996" y="2.146"></use><use xlink:href="#1" y="0"></use><text x="0" y="3.8409999999999997" class="f">abhishek@itsfoss</text><text x="16.032" y="3.8409999999999997" class="g">:</text><text x="17.034" y="3.8409999999999997" class="h">~</text><text x="18.035999999999998" y="3.8409999999999997" class="g">$</text><text x="20.04" y="3.8409999999999997" class="g">p</text></svg><svg x="720"><use xlink:href="#a"></use><use xlink:href="#b" x="21.996" y="2.146"></use><use xlink:href="#1" y="0"></use><text x="0" y="3.8409999999999997" class="f">abhishek@itsfoss</text><text x="16.032" y="3.8409999999999997" class="g">:</text><text x="17.034" y="3.8409999999999997" class="h">~</text><text x="18.035999999999998" y="3.8409999999999997" class="g">$</text><text x="20.04" y="3.8409999999999997" class="g">pw</text></svg><svg x="800"><use xlink:href="#a"></use><use xlink:href="#b" x="22.996" y="2.146"></use><use xlink:href="#1" y="0"></use><use xlink:href="#4" y="2.171"></use></svg><svg x="880"><use xlink:href="#a"></use><use xlink:href="#b" x="-0.0040000000000000036" y="4.317"></use><use xlink:href="#1" y="0"></use><use xlink:href="#4" y="2.171"></use></svg><svg x="960"><use xlink:href="#a"></use><use xlink:href="#b" x="-0.0040000000000000036" y="6.4879999999999995"></use><use xlink:href="#1" y="0"></use><use xlink:href="#4" y="2.171"></use><use xlink:href="#5" y="4.342"></use></svg><svg x="1040"><use xlink:href="#a"></use><use xlink:href="#b" x="19.996" y="6.4879999999999995"></use><use xlink:href="#1" y="0"></use><use xlink:href="#4" y="2.171"></use><use xlink:href="#5" y="4.342"></use><use xlink:href="#2" y="6.513"></use></svg><svg x="1120"><use xlink:href="#a"></use><use xlink:href="#b" x="20.996" y="6.4879999999999995"></use><use xlink:href="#1" y="0"></use><use xlink:href="#4" y="2.171"></use><use xlink:href="#5" y="4.342"></use><use xlink:href="#3" y="6.513"></use></svg><svg x="1200"><use xlink:href="#a"></use><use xlink:href="#b" x="21.996" y="6.4879999999999995"></use><use xlink:href="#1" y="0"></use><use xlink:href="#4" y="2.171"></use><use xlink:href="#5" y="4.342"></use><use xlink:href="#6" y="6.513"></use></svg><svg x="1280"><use xlink:href="#a"></use><use xlink:href="#b" x="-0.0040000000000000036" y="8.658999999999999"></use><use xlink:href="#1" y="0"></use><use xlink:href="#4" y="2.171"></use><use xlink:href="#5" y="4.342"></use><use xlink:href="#6" y="6.513"></use></svg><svg x="1360"><use xlink:href="#a"></use><use xlink:href="#b" x="-0.0040000000000000036" y="8.658999999999999"></use><use xlink:href="#1" y="0"></use><use xlink:href="#4" y="2.171"></use><use xlink:href="#5" y="4.342"></use><use xlink:href="#6" y="6.513"></use></svg><svg x="1440"><use xlink:href="#a"></use><use xlink:href="#b" x="-0.0040000000000000036" y="15.171999999999999"></use><use xlink:href="#1" y="0"></use><use xlink:href="#4" y="2.171"></use><use xlink:href="#5" y="4.342"></use><use xlink:href="#6" y="6.513"></use><use xlink:href="#7" y="8.684"></use><use xlink:href="#8" y="10.855"></use><use xlink:href="#9" y="13.026"></use></svg><svg x="1520"><use xlink:href="#a"></use><use xlink:href="#b" x="19.996" y="15.171999999999999"></use><use xlink:href="#1" y="0"></use><use xlink:href="#4" y="2.171"></use><use xlink:href="#5" y="4.342"></use><use xlink:href="#6" y="6.513"></use><use xlink:href="#7" y="8.684"></use><use xlink:href="#8" y="10.855"></use><use xlink:href="#9" y="13.026"></use><use xlink:href="#2" y="15.197"></use></svg><svg x="1600"><use xlink:href="#a"></use><use xlink:href="#b" x="20.996" y="15.171999999999999"></use><use xlink:href="#1" y="0"></use><use xlink:href="#4" y="2.171"></use><use xlink:href="#5" y="4.342"></use><use xlink:href="#6" y="6.513"></use><use xlink:href="#7" y="8.684"></use><use xlink:href="#8" y="10.855"></use><use xlink:href="#9" y="13.026"></use><text x="0" y="16.866999999999997" class="f">abhishek@itsfoss</text><text x="16.032" y="16.866999999999997" class="g">:</text><text x="17.034" y="16.866999999999997" class="h">~</text><text x="18.035999999999998" y="16.866999999999997" class="g">$</text><text x="20.04" y="16.866999999999997" class="g">m</text></svg><svg x="1680"><use xlink:href="#a"></use><use xlink:href="#b" x="21.996" y="15.171999999999999"></use><use xlink:href="#1" y="0"></use><use xlink:href="#4" y="2.171"></use><use xlink:href="#5" y="4.342"></use><use xlink:href="#6" y="6.513"></use><use xlink:href="#7" y="8.684"></use><use xlink:href="#8" y="10.855"></use><use xlink:href="#9" y="13.026"></use><text x="0" y="16.866999999999997" class="f">abhishek@itsfoss</text><text x="16.032" y="16.866999999999997" class="g">:</text><text x="17.034" y="16.866999999999997" class="h">~</text><text x="18.035999999999998" y="16.866999999999997" class="g">$</text><text x="20.04" y="16.866999999999997" class="g">mk</text></svg><svg x="1760"><use xlink:href="#a"></use><use xlink:href="#b" x="22.996" y="15.171999999999999"></use><use xlink:href="#1" y="0"></use><use xlink:href="#4" y="2.171"></use><use xlink:href="#5" y="4.342"></use><use xlink:href="#6" y="6.513"></use><use xlink:href="#7" y="8.684"></use><use xlink:href="#8" y="10.855"></use><use xlink:href="#9" y="13.026"></use><text x="0" y="16.866999999999997" class="f">abhishek@itsfoss</text><text x="16.032" y="16.866999999999997" class="g">:</text><text x="17.034" y="16.866999999999997" class="h">~</text><text x="18.035999999999998" y="16.866999999999997" class="g">$</text><text x="20.04" y="16.866999999999997" class="g">mkd</text></svg><svg x="1840"><use xlink:href="#a"></use><use xlink:href="#b" x="23.996" y="15.171999999999999"></use><use xlink:href="#1" y="0"></use><use xlink:href="#4" y="2.171"></use><use xlink:href="#5" y="4.342"></use><use xlink:href="#6" y="6.513"></use><use xlink:href="#7" y="8.684"></use><use xlink:href="#8" y="10.855"></use><use xlink:href="#9" y="13.026"></use><text x="0" y="16.866999999999997" class="f">abhishek@itsfoss</text><text x="16.032" y="16.866999999999997" class="g">:</text><text x="17.034" y="16.866999999999997" class="h">~</text><text x="18.035999999999998" y="16.866999999999997" class="g">$</text><text x="20.04" y="16.866999999999997" class="g">mkdi</text></svg><svg x="1920"><use xlink:href="#a"></use><use xlink:href="#b" x="24.996" y="15.171999999999999"></use><use xlink:href="#1" y="0"></use><use xlink:href="#4" y="2.171"></use><use xlink:href="#5" y="4.342"></use><use xlink:href="#6" y="6.513"></use><use xlink:href="#7" y="8.684"></use><use xlink:href="#8" y="10.855"></use><use xlink:href="#9" y="13.026"></use><use xlink:href="#10" y="15.197"></use></svg><svg x="2000"><use xlink:href="#a"></use><use xlink:href="#b" x="25.996" y="15.171999999999999"></use><use xlink:href="#1" y="0"></use><use xlink:href="#4" y="2.171"></use><use xlink:href="#5" y="4.342"></use><use xlink:href="#6" y="6.513"></use><use xlink:href="#7" y="8.684"></use><use xlink:href="#8" y="10.855"></use><use xlink:href="#9" y="13.026"></use><use xlink:href="#10" y="15.197"></use></svg><svg x="2080"><use xlink:href="#a"></use><use xlink:href="#b" x="26.996" y="15.171999999999999"></use><use xlink:href="#1" y="0"></use><use xlink:href="#4" y="2.171"></use><use xlink:href="#5" y="4.342"></use><use xlink:href="#6" y="6.513"></use><use xlink:href="#7" y="8.684"></use><use xlink:href="#8" y="10.855"></use><use xlink:href="#9" y="13.026"></use><text x="0" y="16.866999999999997" class="f">abhishek@itsfoss</text><text x="16.032" y="16.866999999999997" class="g">:</text><text x="17.034" y="16.866999999999997" class="h">~</text><text x="18.035999999999998" y="16.866999999999997" class="g">$</text><text x="20.04" y="16.866999999999997" class="g">mkdir</text><text x="26.052" y="16.866999999999997" class="g">p</text></svg><svg x="2160"><use xlink:href="#a"></use><use xlink:href="#b" x="27.996" y="15.171999999999999"></use><use xlink:href="#1" y="0"></use><use xlink:href="#4" y="2.171"></use><use xlink:href="#5" y="4.342"></use><use xlink:href="#6" y="6.513"></use><use xlink:href="#7" y="8.684"></use><use xlink:href="#8" y="10.855"></use><use xlink:href="#9" y="13.026"></use><text x="0" y="16.866999999999997" class="f">abhishek@itsfoss</text><text x="16.032" y="16.866999999999997" class="g">:</text><text x="17.034" y="16.866999999999997" class="h">~</text><text x="18.035999999999998" y="16.866999999999997" class="g">$</text><text x="20.04" y="16.866999999999997" class="g">mkdir</text><text x="26.052" y="16.866999999999997" class="g">pr</text></svg><svg x="2240"><use xlink:href="#a"></use><use xlink:href="#b" x="28.996" y="15.171999999999999"></use><use xlink:href="#1" y="0"></use><use xlink:href="#4" y="2.171"></use><use xlink:href="#5" y="4.342"></use><use xlink:href="#6" y="6.513"></use><use xlink:href="#7" y="8.684"></use><use xlink:href="#8" y="10.855"></use><use xlink:href="#9" y="13.026"></use><text x="0" y="16.866999999999997" class="f">abhishek@itsfoss</text><text x="16.032" y="16.866999999999997" class="g">:</text><text x="17.034" y="16.866999999999997" class="h">~</text><text x="18.035999999999998" y="16.866999999999997" class="g">$</text><text x="20.04" y="16.866999999999997" class="g">mkdir</text><text x="26.052" y="16.866999999999997" class="g">pra</text></svg><svg x="2320"><use xlink:href="#a"></use><use xlink:href="#b" x="29.996" y="15.171999999999999"></use><use xlink:href="#1" y="0"></use><use xlink:href="#4" y="2.171"></use><use xlink:href="#5" y="4.342"></use><use xlink:href="#6" y="6.513"></use><use xlink:href="#7" y="8.684"></use><use xlink:href="#8" y="10.855"></use><use xlink:href="#9" y="13.026"></use><text x="0" y="16.866999999999997" class="f">abhishek@itsfoss</text><text x="16.032" y="16.866999999999997" class="g">:</text><text x="17.034" y="16.866999999999997" class="h">~</text><text x="18.035999999999998" y="16.866999999999997" class="g">$</text><text x="20.04" y="16.866999999999997" class="g">mkdir</text><text x="26.052" y="16.866999999999997" class="g">prac</text></svg><svg x="2400"><use xlink:href="#a"></use><use xlink:href="#b" x="30.996" y="15.171999999999999"></use><use xlink:href="#1" y="0"></use><use xlink:href="#4" y="2.171"></use><use xlink:href="#5" y="4.342"></use><use xlink:href="#6" y="6.513"></use><use xlink:href="#7" y="8.684"></use><use xlink:href="#8" y="10.855"></use><use xlink:href="#9" y="13.026"></use><text x="0" y="16.866999999999997" class="f">abhishek@itsfoss</text><text x="16.032" y="16.866999999999997" class="g">:</text><text x="17.034" y="16.866999999999997" class="h">~</text><text x="18.035999999999998" y="16.866999999999997" class="g">$</text><text x="20.04" y="16.866999999999997" class="g">mkdir</text><text x="26.052" y="16.866999999999997" class="g">pract</text></svg><svg x="2480"><use xlink:href="#a"></use><use xlink:href="#b" x="31.996" y="15.171999999999999"></use><use xlink:href="#1" y="0"></use><use xlink:href="#4" y="2.171"></use><use xlink:href="#5" y="4.342"></use><use xlink:href="#6" y="6.513"></use><use xlink:href="#7" y="8.684"></use><use xlink:href="#8" y="10.855"></use><use xlink:href="#9" y="13.026"></use><text x="0" y="16.866999999999997" class="f">abhishek@itsfoss</text><text x="16.032" y="16.866999999999997" class="g">:</text><text x="17.034" y="16.866999999999997" class="h">~</text><text x="18.035999999999998" y="16.866999999999997" class="g">$</text><text x="20.04" y="16.866999999999997" class="g">mkdir</text><text x="26.052" y="16.866999999999997" class="g">practi</text></svg><svg x="2560"><use xlink:href="#a"></use><use xlink:href="#b" x="32.996" y="15.171999999999999"></use><use xlink:href="#1" y="0"></use><use xlink:href="#4" y="2.171"></use><use xlink:href="#5" y="4.342"></use><use xlink:href="#6" y="6.513"></use><use xlink:href="#7" y="8.684"></use><use xlink:href="#8" y="10.855"></use><use xlink:href="#9" y="13.026"></use><text x="0" y="16.866999999999997" class="f">abhishek@itsfoss</text><text x="16.032" y="16.866999999999997" class="g">:</text><text x="17.034" y="16.866999999999997" class="h">~</text><text x="18.035999999999998" y="16.866999999999997" class="g">$</text><text x="20.04" y="16.866999999999997" class="g">mkdir</text><text x="26.052" y="16.866999999999997" class="g">practic</text></svg><svg x="2640"><use xlink:href="#a"></use><use xlink:href="#b" x="33.996" y="15.171999999999999"></use><use xlink:href="#1" y="0"></use><use xlink:href="#4" y="2.171"></use><use xlink:href="#5" y="4.342"></use><use xlink:href="#6" y="6.513"></use><use xlink:href="#7" y="8.684"></use><use xlink:href="#8" y="10.855"></use><use xlink:href="#9" y="13.026"></use><use xlink:href="#11" y="15.197"></use></svg><svg x="2720"><use xlink:href="#a"></use><use xlink:href="#b" x="-0.0040000000000000036" y="17.343"></use><use xlink:href="#1" y="0"></use><use xlink:href="#4" y="2.171"></use><use xlink:href="#5" y="4.342"></use><use xlink:href="#6" y="6.513"></use><use xlink:href="#7" y="8.684"></use><use xlink:href="#8" y="10.855"></use><use xlink:href="#9" y="13.026"></use><use xlink:href="#11" y="15.197"></use></svg><svg x="2800"><use xlink:href="#a"></use><use xlink:href="#b" x="19.996" y="17.343"></use><use xlink:href="#1" y="0"></use><use xlink:href="#4" y="2.171"></use><use xlink:href="#5" y="4.342"></use><use xlink:href="#6" y="6.513"></use><use xlink:href="#7" y="8.684"></use><use xlink:href="#8" y="10.855"></use><use xlink:href="#9" y="13.026"></use><use xlink:href="#11" y="15.197"></use><use xlink:href="#2" y="17.368"></use></svg><svg x="2880"><use xlink:href="#a"></use><use xlink:href="#b" x="20.996" y="17.343"></use><use xlink:href="#1" y="0"></use><use xlink:href="#4" y="2.171"></use><use xlink:href="#5" y="4.342"></use><use xlink:href="#6" y="6.513"></use><use xlink:href="#7" y="8.684"></use><use xlink:href="#8" y="10.855"></use><use xlink:href="#9" y="13.026"></use><use xlink:href="#11" y="15.197"></use><text x="0" y="19.037999999999997" class="f">abhishek@itsfoss</text><text x="16.032" y="19.037999999999997" class="g">:</text><text x="17.034" y="19.037999999999997" class="h">~</text><text x="18.035999999999998" y="19.037999999999997" class="g">$</text><text x="20.04" y="19.037999999999997" class="g">c</text></svg><svg x="2960"><use xlink:href="#a"></use><use xlink:href="#b" x="21.996" y="17.343"></use><use xlink:href="#1" y="0"></use><use xlink:href="#4" y="2.171"></use><use xlink:href="#5" y="4.342"></use><use xlink:href="#6" y="6.513"></use><use xlink:href="#7" y="8.684"></use><use xlink:href="#8" y="10.855"></use><use xlink:href="#9" y="13.026"></use><use xlink:href="#11" y="15.197"></use><use xlink:href="#12" y="17.368"></use></svg><svg x="3040"><use xlink:href="#a"></use><use xlink:href="#b" x="22.996" y="17.343"></use><use xlink:href="#1" y="0"></use><use xlink:href="#4" y="2.171"></use><use xlink:href="#5" y="4.342"></use><use xlink:href="#6" y="6.513"></use><use xlink:href="#7" y="8.684"></use><use xlink:href="#8" y="10.855"></use><use xlink:href="#9" y="13.026"></use><use xlink:href="#11" y="15.197"></use><use xlink:href="#12" y="17.368"></use></svg><svg x="3120"><use xlink:href="#a"></use><use xlink:href="#b" x="23.996" y="17.343"></use><use xlink:href="#1" y="0"></use><use xlink:href="#4" y="2.171"></use><use xlink:href="#5" y="4.342"></use><use xlink:href="#6" y="6.513"></use><use xlink:href="#7" y="8.684"></use><use xlink:href="#8" y="10.855"></use><use xlink:href="#9" y="13.026"></use><use xlink:href="#11" y="15.197"></use><text x="0" y="19.037999999999997" class="f">abhishek@itsfoss</text><text x="16.032" y="19.037999999999997" class="g">:</text><text x="17.034" y="19.037999999999997" class="h">~</text><text x="18.035999999999998" y="19.037999999999997" class="g">$</text><text x="20.04" y="19.037999999999997" class="g">cd</text><text x="23.045999999999996" y="19.037999999999997" class="g">p</text></svg><svg x="3200"><use xlink:href="#a"></use><use xlink:href="#b" x="24.996" y="17.343"></use><use xlink:href="#1" y="0"></use><use xlink:href="#4" y="2.171"></use><use xlink:href="#5" y="4.342"></use><use xlink:href="#6" y="6.513"></use><use xlink:href="#7" y="8.684"></use><use xlink:href="#8" y="10.855"></use><use xlink:href="#9" y="13.026"></use><use xlink:href="#11" y="15.197"></use><text x="0" y="19.037999999999997" class="f">abhishek@itsfoss</text><text x="16.032" y="19.037999999999997" class="g">:</text><text x="17.034" y="19.037999999999997" class="h">~</text><text x="18.035999999999998" y="19.037999999999997" class="g">$</text><text x="20.04" y="19.037999999999997" class="g">cd</text><text x="23.045999999999996" y="19.037999999999997" class="g">pr</text></svg><svg x="3280"><use xlink:href="#a"></use><use xlink:href="#b" x="25.996" y="17.343"></use><use xlink:href="#1" y="0"></use><use xlink:href="#4" y="2.171"></use><use xlink:href="#5" y="4.342"></use><use xlink:href="#6" y="6.513"></use><use xlink:href="#7" y="8.684"></use><use xlink:href="#8" y="10.855"></use><use xlink:href="#9" y="13.026"></use><use xlink:href="#11" y="15.197"></use><text x="0" y="19.037999999999997" class="f">abhishek@itsfoss</text><text x="16.032" y="19.037999999999997" class="g">:</text><text x="17.034" y="19.037999999999997" class="h">~</text><text x="18.035999999999998" y="19.037999999999997" class="g">$</text><text x="20.04" y="19.037999999999997" class="g">cd</text><text x="23.045999999999996" y="19.037999999999997" class="g">pra</text></svg><svg x="3360"><use xlink:href="#a"></use><use xlink:href="#b" x="26.996" y="17.343"></use><use xlink:href="#1" y="0"></use><use xlink:href="#4" y="2.171"></use><use xlink:href="#5" y="4.342"></use><use xlink:href="#6" y="6.513"></use><use xlink:href="#7" y="8.684"></use><use xlink:href="#8" y="10.855"></use><use xlink:href="#9" y="13.026"></use><use xlink:href="#11" y="15.197"></use><text x="0" y="19.037999999999997" class="f">abhishek@itsfoss</text><text x="16.032" y="19.037999999999997" class="g">:</text><text x="17.034" y="19.037999999999997" class="h">~</text><text x="18.035999999999998" y="19.037999999999997" class="g">$</text><text x="20.04" y="19.037999999999997" class="g">cd</text><text x="23.045999999999996" y="19.037999999999997" class="g">prac</text></svg><svg x="3440"><use xlink:href="#a"></use><use xlink:href="#b" x="27.996" y="17.343"></use><use xlink:href="#1" y="0"></use><use xlink:href="#4" y="2.171"></use><use xlink:href="#5" y="4.342"></use><use xlink:href="#6" y="6.513"></use><use xlink:href="#7" y="8.684"></use><use xlink:href="#8" y="10.855"></use><use xlink:href="#9" y="13.026"></use><use xlink:href="#11" y="15.197"></use><text x="0" y="19.037999999999997" class="f">abhishek@itsfoss</text><text x="16.032" y="19.037999999999997" class="g">:</text><text x="17.034" y="19.037999999999997" class="h">~</text><text x="18.035999999999998" y="19.037999999999997" class="g">$</text><text x="20.04" y="19.037999999999997" class="g">cd</text><text x="23.045999999999996" y="19.037999999999997" class="g">pract</text></svg><svg x="3520"><use xlink:href="#a"></use><use xlink:href="#b" x="28.996" y="17.343"></use><use xlink:href="#1" y="0"></use><use xlink:href="#4" y="2.171"></use><use xlink:href="#5" y="4.342"></use><use xlink:href="#6" y="6.513"></use><use xlink:href="#7" y="8.684"></use><use xlink:href="#8" y="10.855"></use><use xlink:href="#9" y="13.026"></use><use xlink:href="#11" y="15.197"></use><text x="0" y="19.037999999999997" class="f">abhishek@itsfoss</text><text x="16.032" y="19.037999999999997" class="g">:</text><text x="17.034" y="19.037999999999997" class="h">~</text><text x="18.035999999999998" y="19.037999999999997" class="g">$</text><text x="20.04" y="19.037999999999997" class="g">cd</text><text x="23.045999999999996" y="19.037999999999997" class="g">practi</text></svg><svg x="3600"><use xlink:href="#a"></use><use xlink:href="#b" x="29.996" y="17.343"></use><use xlink:href="#1" y="0"></use><use xlink:href="#4" y="2.171"></use><use xlink:href="#5" y="4.342"></use><use xlink:href="#6" y="6.513"></use><use xlink:href="#7" y="8.684"></use><use xlink:href="#8" y="10.855"></use><use xlink:href="#9" y="13.026"></use><use xlink:href="#11" y="15.197"></use><text x="0" y="19.037999999999997" class="f">abhishek@itsfoss</text><text x="16.032" y="19.037999999999997" class="g">:</text><text x="17.034" y="19.037999999999997" class="h">~</text><text x="18.035999999999998" y="19.037999999999997" class="g">$</text><text x="20.04" y="19.037999999999997" class="g">cd</text><text x="23.045999999999996" y="19.037999999999997" class="g">practic</text></svg><svg x="3680"><use xlink:href="#a"></use><use xlink:href="#b" x="30.996" y="17.343"></use><use xlink:href="#1" y="0"></use><use xlink:href="#4" y="2.171"></use><use xlink:href="#5" y="4.342"></use><use xlink:href="#6" y="6.513"></use><use xlink:href="#7" y="8.684"></use><use xlink:href="#8" y="10.855"></use><use xlink:href="#9" y="13.026"></use><use xlink:href="#11" y="15.197"></use><use xlink:href="#13" y="17.368"></use></svg><svg x="3760"><use xlink:href="#a"></use><use xlink:href="#b" x="-0.0040000000000000036" y="19.514000000000003"></use><use xlink:href="#1" y="0"></use><use xlink:href="#4" y="2.171"></use><use xlink:href="#5" y="4.342"></use><use xlink:href="#6" y="6.513"></use><use xlink:href="#7" y="8.684"></use><use xlink:href="#8" y="10.855"></use><use xlink:href="#9" y="13.026"></use><use xlink:href="#11" y="15.197"></use><use xlink:href="#13" y="17.368"></use></svg><svg x="3840"><use xlink:href="#a"></use><use xlink:href="#b" x="-0.0040000000000000036" y="19.514000000000003"></use><use xlink:href="#1" y="0"></use><use xlink:href="#4" y="2.171"></use><use xlink:href="#5" y="4.342"></use><use xlink:href="#6" y="6.513"></use><use xlink:href="#7" y="8.684"></use><use xlink:href="#8" y="10.855"></use><use xlink:href="#9" y="13.026"></use><use xlink:href="#11" y="15.197"></use><use xlink:href="#13" y="17.368"></use></svg><svg x="3920"><use xlink:href="#a"></use><use xlink:href="#b" x="28.996" y="19.514000000000003"></use><use xlink:href="#1" y="0"></use><use xlink:href="#4" y="2.171"></use><use xlink:href="#5" y="4.342"></use><use xlink:href="#6" y="6.513"></use><use xlink:href="#7" y="8.684"></use><use xlink:href="#8" y="10.855"></use><use xlink:href="#9" y="13.026"></use><use xlink:href="#11" y="15.197"></use><use xlink:href="#13" y="17.368"></use><use xlink:href="#14" y="19.539"></use></svg><svg x="4000"><use xlink:href="#a"></use><use xlink:href="#b" x="29.996" y="19.514000000000003"></use><use xlink:href="#1" y="0"></use><use xlink:href="#4" y="2.171"></use><use xlink:href="#5" y="4.342"></use><use xlink:href="#6" y="6.513"></use><use xlink:href="#7" y="8.684"></use><use xlink:href="#8" y="10.855"></use><use xlink:href="#9" y="13.026"></use><use xlink:href="#11" y="15.197"></use><use xlink:href="#13" y="17.368"></use><text x="0" y="21.209000000000003" class="f">abhishek@itsfoss</text><text x="16.032" y="21.209000000000003" class="g">:</text><text x="17.034" y="21.209000000000003" class="h">~/practice</text><text x="27.054" y="21.209000000000003" class="g">$</text><text x="29.058" y="21.209000000000003" class="g">p</text></svg><svg x="4080"><use xlink:href="#a"></use><use xlink:href="#b" x="30.996" y="19.514000000000003"></use><use xlink:href="#1" y="0"></use><use xlink:href="#4" y="2.171"></use><use xlink:href="#5" y="4.342"></use><use xlink:href="#6" y="6.513"></use><use xlink:href="#7" y="8.684"></use><use xlink:href="#8" y="10.855"></use><use xlink:href="#9" y="13.026"></use><use xlink:href="#11" y="15.197"></use><use xlink:href="#13" y="17.368"></use><text x="0" y="21.209000000000003" class="f">abhishek@itsfoss</text><text x="16.032" y="21.209000000000003" class="g">:</text><text x="17.034" y="21.209000000000003" class="h">~/practice</text><text x="27.054" y="21.209000000000003" class="g">$</text><text x="29.058" y="21.209000000000003" class="g">pw</text></svg><svg x="4160"><use xlink:href="#a"></use><use xlink:href="#b" x="31.996" y="19.514000000000003"></use><use xlink:href="#1" y="0"></use><use xlink:href="#4" y="2.171"></use><use xlink:href="#5" y="4.342"></use><use xlink:href="#6" y="6.513"></use><use xlink:href="#7" y="8.684"></use><use xlink:href="#8" y="10.855"></use><use xlink:href="#9" y="13.026"></use><use xlink:href="#11" y="15.197"></use><use xlink:href="#13" y="17.368"></use><use xlink:href="#15" y="19.539"></use></svg><svg x="4240"><use xlink:href="#a"></use><use xlink:href="#b" x="-0.0040000000000000036" y="23.855999999999998"></use><use xlink:href="#1" y="0"></use><use xlink:href="#4" y="2.171"></use><use xlink:href="#5" y="4.342"></use><use xlink:href="#6" y="6.513"></use><use xlink:href="#7" y="8.684"></use><use xlink:href="#8" y="10.855"></use><use xlink:href="#9" y="13.026"></use><use xlink:href="#11" y="15.197"></use><use xlink:href="#13" y="17.368"></use><use xlink:href="#15" y="19.539"></use><use xlink:href="#16" y="21.71"></use></svg><svg x="4320"><use xlink:href="#a"></use><use xlink:href="#b" x="28.996" y="23.855999999999998"></use><use xlink:href="#1" y="0"></use><use xlink:href="#4" y="2.171"></use><use xlink:href="#5" y="4.342"></use><use xlink:href="#6" y="6.513"></use><use xlink:href="#7" y="8.684"></use><use xlink:href="#8" y="10.855"></use><use xlink:href="#9" y="13.026"></use><use xlink:href="#11" y="15.197"></use><use xlink:href="#13" y="17.368"></use><use xlink:href="#15" y="19.539"></use><use xlink:href="#16" y="21.71"></use><use xlink:href="#14" y="23.880999999999997"></use></svg><svg x="4400"><use xlink:href="#a"></use><use xlink:href="#b" x="-0.0040000000000000036" y="28.198000000000004"></use><use xlink:href="#1" y="0"></use><use xlink:href="#4" y="2.171"></use><use xlink:href="#5" y="4.342"></use><use xlink:href="#6" y="6.513"></use><use xlink:href="#7" y="8.684"></use><use xlink:href="#8" y="10.855"></use><use xlink:href="#9" y="13.026"></use><use xlink:href="#11" y="15.197"></use><use xlink:href="#13" y="17.368"></use><use xlink:href="#15" y="19.539"></use><use xlink:href="#16" y="21.71"></use><use xlink:href="#14" y="23.880999999999997"></use><text x="0" y="27.722" class="g">exit</text></svg></svg></g></g></svg></svg>