<svg xmlns="http://www.w3.org/2000/svg" xmlns:xlink="http://www.w3.org/1999/xlink" width="1290" height="602.75"><rect width="1290" height="602.75" rx="5" ry="5" class="a"></rect><svg y="0%" x="0%"><circle cx="20" cy="20" r="6" class="b"></circle><circle cx="40" cy="20" r="6" class="c"></circle><circle cx="60" cy="20" r="6" class="d"></circle></svg><svg height="542.75" viewBox="0 0 125 54.275" width="1250" x="15" xmlns="http://www.w3.org/2000/svg" xmlns:xlink="http://www.w3.org/1999/xlink" y="50"><style>.a{fill:rgb(40,45,53)}.b{fill:#ff5f58}.c{fill:#ffbd2e}.d{fill:#18c132}.e{font-family:Monaco,Consolas,Menlo,'Bitstream Vera Sans Mono','Powerline Symbols',monospace}.f{fill:rgb(168,204,140);font-weight:bold;white-space:pre}.g{fill:rgb(185,192,203);white-space:pre}.h{fill:rgb(113,190,242);font-weight:bold;white-space:pre}.i{fill:rgb(210,144,228);font-weight:bold;white-space:pre}.j{fill:rgb(219,171,121);white-space:pre}.k{fill:rgb(219,171,121);font-weight:bold;white-space:pre}.l{fill:rgb(185,192,203);font-weight:bold;white-space:pre}.m{fill:rgb(168,204,140);white-space:pre}.n{fill:transparent}.o{fill:rgb(111,118,131)}.q{animation-duration:22.10274s;animation-iteration-count:infinite;animation-name:p;animation-timing-function:steps(1,end)}@keyframes p{0%{transform:translateX(-0px)}0.08%{transform:translateX(-125px)}3.51%{transform:translateX(-250px)}4.09%{transform:translateX(-375px)}4.8%{transform:translateX(-500px)}6.51%{transform:translateX(-625px)}8.75%{transform:translateX(-750px)}12.12%{transform:translateX(-875px)}13.82%{transform:translateX(-1000px)}14.67%{transform:translateX(-1125px)}18.7%{transform:translateX(-1250px)}19.65%{transform:translateX(-1375px)}20.73%{transform:translateX(-1500px)}23.01%{transform:translateX(-1625px)}25.88%{transform:translateX(-1750px)}26.69%{transform:translateX(-1875px)}34.49%{transform:translateX(-2000px)}35.57%{transform:translateX(-2125px)}36.29%{transform:translateX(-2250px)}37.02%{transform:translateX(-2375px)}41.11%{transform:translateX(-2500px)}43.96%{transform:translateX(-2625px)}45.66%{transform:translateX(-2750px)}46.17%{transform:translateX(-2875px)}48.42%{transform:translateX(-3000px)}51.57%{transform:translateX(-3125px)}53.05%{transform:translateX(-3250px)}53.71%{transform:translateX(-3375px)}58.22%{transform:translateX(-3500px)}58.25%{transform:translateX(-3625px)}58.25%{transform:translateX(-3750px)}68.62%{transform:translateX(-3875px)}72.12%{transform:translateX(-4000px)}72.13%{transform:translateX(-4125px)}79.08%{transform:translateX(-4250px)}81.28%{transform:translateX(-4375px)}81.28%{transform:translateX(-4500px)}90.51%{transform:translateX(-4625px)}91.56%{transform:translateX(-4750px)}91.56%{transform:translateX(-4875px)}91.57%{transform:translateX(-5000px)}91.58%{transform:translateX(-5125px)}91.72%{transform:translateX(-5250px)}91.72%{transform:translateX(-5375px)}99.99%{transform:translateX(-5500px)}100%{transform:translateX(-5625px)}}</style><g font-family="Monaco, Consolas, Menlo, &#x27;Bitstream Vera Sans Mono&#x27;, &#x27;Powerline Symbols&#x27;, monospace" font-size="1.67" class="e"><defs><symbol id="1"><text x="0" y="1.67" class="f">team@itsfoss</text><text x="12.024" y="1.67" class="g">:</text><text x="13.026" y="1.67" class="h">~</text><text x="14.027999999999999" y="1.67" class="g">$</text></symbol><symbol id="2"><text x="0" y="1.67" class="f">team@itsfoss</text><text x="12.024" y="1.67" class="g">:</text><text x="13.026" y="1.67" class="h">~</text><text x="14.027999999999999" y="1.67" class="g">$</text><text x="16.032" y="1.67" class="g">shell-genie</text><text x="28.055999999999997" y="1.67" class="g">init</text></symbol><symbol id="3"><text x="0" y="1.67" class="g">Select</text><text x="7.013999999999999" y="1.67" class="g">backend:</text><text x="16.032" y="1.67" class="i">[openai-gpt3/free-genie]</text><text x="40.08" y="1.67" class="g">:</text><text x="42.083999999999996" y="1.67" class="g">free-gen</text></symbol><symbol id="4"><text x="0" y="1.67" class="g">Select</text><text x="7.013999999999999" y="1.67" class="g">backend:</text><text x="16.032" y="1.67" class="i">[openai-gpt3/free-genie]</text><text x="40.08" y="1.67" class="g">:</text><text x="42.083999999999996" y="1.67" class="g">free-genie</text></symbol><symbol id="5"><text x="0" y="1.67" class="j">Note</text><text x="5.01" y="1.67" class="j">that</text><text x="10.02" y="1.67" class="j">this</text><text x="15.029999999999998" y="1.67" class="j">server</text><text x="22.043999999999997" y="1.67" class="j">will</text><text x="27.054" y="1.67" class="j">store</text><text x="33.065999999999995" y="1.67" class="j">the</text><text x="37.074" y="1.67" class="j">requested</text><text x="47.093999999999994" y="1.67" class="j">command,</text><text x="56.111999999999995" y="1.67" class="j">OS,</text><text x="60.11999999999999" y="1.67" class="j">and</text><text x="64.128" y="1.67" class="j">shell</text><text x="70.13999999999999" y="1.67" class="j">version</text><text x="78.15599999999999" y="1.67" class="j">to</text><text x="81.16199999999999" y="1.67" class="j">improve</text><text x="89.178" y="1.67" class="j">the</text><text x="93.18599999999999" y="1.67" class="j">model.</text><text x="100.2" y="1.67" class="j">Also,</text><text x="106.21199999999999" y="1.67" class="j">I</text><text x="108.216" y="1.67" class="j">cannot</text></symbol><symbol id="6"><text x="0" y="1.67" class="j">guarantee</text><text x="10.02" y="1.67" class="j">that</text><text x="15.029999999999998" y="1.67" class="j">the</text><text x="19.037999999999997" y="1.67" class="j">server</text><text x="26.052" y="1.67" class="j">will</text><text x="31.061999999999998" y="1.67" class="j">be</text><text x="34.068" y="1.67" class="j">up</text><text x="37.074" y="1.67" class="j">and</text><text x="41.082" y="1.67" class="j">running</text><text x="49.098" y="1.67" class="k">24</text><text x="51.102" y="1.67" class="j">/</text><text x="52.104" y="1.67" class="k">7</text><text x="53.105999999999995" y="1.67" class="j">.</text></symbol><symbol id="7"><text x="0" y="1.67" class="g">Do</text><text x="3.006" y="1.67" class="g">you</text><text x="7.013999999999999" y="1.67" class="g">want</text><text x="12.024" y="1.67" class="g">to</text><text x="15.029999999999998" y="1.67" class="g">continue?</text><text x="25.05" y="1.67" class="i">[y/n]</text><text x="30.059999999999995" y="1.67" class="g">:</text><text x="32.064" y="1.67" class="g">y</text></symbol><symbol id="8"><text x="0" y="1.67" class="g">Do</text><text x="3.006" y="1.67" class="g">you</text><text x="7.013999999999999" y="1.67" class="g">want</text><text x="12.024" y="1.67" class="g">to</text><text x="15.029999999999998" y="1.67" class="g">provide</text><text x="23.045999999999996" y="1.67" class="g">feedback</text><text x="32.064" y="1.67" class="g">about</text><text x="38.07599999999999" y="1.67" class="g">the</text><text x="42.083999999999996" y="1.67" class="g">generated</text><text x="52.104" y="1.67" class="g">commands</text><text x="61.12199999999999" y="1.67" class="g">to</text><text x="64.128" y="1.67" class="g">improve</text><text x="72.14399999999999" y="1.67" class="g">the</text><text x="76.15199999999999" y="1.67" class="g">models?</text><text x="84.16799999999999" y="1.67" class="i">[y/n]</text><text x="89.178" y="1.67" class="g">:</text><text x="91.182" y="1.67" class="g">y</text></symbol><symbol id="9"><text x="0" y="1.67" class="g">Is</text><text x="3.006" y="1.67" class="g">your</text><text x="8.016" y="1.67" class="g">OS</text><text x="11.021999999999998" y="1.67" class="g">Ubuntu</text><text x="18.035999999999998" y="1.67" class="g">22.04.2</text><text x="26.052" y="1.67" class="g">LTS?</text><text x="31.061999999999998" y="1.67" class="i">[y/n]</text><text x="36.071999999999996" y="1.67" class="g">:</text><text x="38.07599999999999" y="1.67" class="g">y</text></symbol><symbol id="10"><text x="0" y="1.67" class="g">The</text><text x="4.008" y="1.67" class="g">following</text><text x="14.027999999999999" y="1.67" class="g">configuration</text><text x="28.055999999999997" y="1.67" class="g">will</text><text x="33.065999999999995" y="1.67" class="g">be</text><text x="36.071999999999996" y="1.67" class="g">saved:</text></symbol><symbol id="11"><text x="0" y="1.67" class="l">{</text></symbol><symbol id="12"><text x="4.008" y="1.67" class="m">&#x27;backend&#x27;</text><text x="13.026" y="1.67" class="g">:</text><text x="15.029999999999998" y="1.67" class="m">&#x27;free-genie&#x27;</text><text x="27.054" y="1.67" class="g">,</text></symbol><symbol id="13"><text x="4.008" y="1.67" class="m">&#x27;os&#x27;</text><text x="8.016" y="1.67" class="g">:</text><text x="10.02" y="1.67" class="m">&#x27;Linux&#x27;</text><text x="17.034" y="1.67" class="g">,</text></symbol><symbol id="14"><text x="4.008" y="1.67" class="m">&#x27;os_fullname&#x27;</text><text x="17.034" y="1.67" class="g">:</text><text x="19.037999999999997" y="1.67" class="m">&#x27;Ubuntu</text><text x="27.054" y="1.67" class="m">22.04.2</text><text x="35.06999999999999" y="1.67" class="m">LTS&#x27;</text><text x="39.077999999999996" y="1.67" class="g">,</text></symbol><symbol id="15"><text x="4.008" y="1.67" class="m">&#x27;shell&#x27;</text><text x="11.021999999999998" y="1.67" class="g">:</text><text x="13.026" y="1.67" class="m">&#x27;bash&#x27;</text><text x="19.037999999999997" y="1.67" class="g">,</text></symbol><symbol id="16"><text x="4.008" y="1.67" class="m">&#x27;training-feedback&#x27;</text><text x="23.045999999999996" y="1.67" class="g">:</text><text x="25.05" y="1.67" class="m">True</text></symbol><symbol id="17"><text x="0" y="1.67" class="l">}</text></symbol><symbol id="18"><text x="0" y="1.67" class="f">Config</text><text x="7.013999999999999" y="1.67" class="f">file</text><text x="12.024" y="1.67" class="f">saved</text><text x="18.035999999999998" y="1.67" class="f">at</text><text x="21.041999999999998" y="1.67" class="f">/home/team/.config/.shell_genie/config.json</text></symbol><symbol id="a"><rect height="26" width="125" x="0" y="0" class="n"></rect></symbol><symbol id="b"><rect height="2.171" width="1.1022" class="o"></rect></symbol></defs><rect height="54.275" width="125" class="a"></rect><g class="q"><svg x="0" y="0" width="5750"><svg x="0"><use xlink:href="#a"></use><use xlink:href="#b" x="-0.0040000000000000036" y="0"></use></svg><svg x="125"><use xlink:href="#a"></use><use xlink:href="#b" x="15.996" y="0"></use><use xlink:href="#1" y="0"></use></svg><svg x="250"><use xlink:href="#a"></use><use xlink:href="#b" x="16.996" y="0"></use><text x="0" y="1.67" class="f">team@itsfoss</text><text x="12.024" y="1.67" class="g">:</text><text x="13.026" y="1.67" class="h">~</text><text x="14.027999999999999" y="1.67" class="g">$</text><text x="16.032" y="1.67" class="g">s</text></svg><svg x="375"><use xlink:href="#a"></use><use xlink:href="#b" x="17.996" y="0"></use><text x="0" y="1.67" class="f">team@itsfoss</text><text x="12.024" y="1.67" class="g">:</text><text x="13.026" y="1.67" class="h">~</text><text x="14.027999999999999" y="1.67" class="g">$</text><text x="16.032" y="1.67" class="g">sh</text></svg><svg x="500"><use xlink:href="#a"></use><use xlink:href="#b" x="18.996" y="0"></use><text x="0" y="1.67" class="f">team@itsfoss</text><text x="12.024" y="1.67" class="g">:</text><text x="13.026" y="1.67" class="h">~</text><text x="14.027999999999999" y="1.67" class="g">$</text><text x="16.032" y="1.67" class="g">she</text></svg><svg x="625"><use xlink:href="#a"></use><use xlink:href="#b" x="19.996" y="0"></use><text x="0" y="1.67" class="f">team@itsfoss</text><text x="12.024" y="1.67" class="g">:</text><text x="13.026" y="1.67" class="h">~</text><text x="14.027999999999999" y="1.67" class="g">$</text><text x="16.032" y="1.67" class="g">shel</text></svg><svg x="750"><use xlink:href="#a"></use><use xlink:href="#b" x="20.996" y="0"></use><text x="0" y="1.67" class="f">team@itsfoss</text><text x="12.024" y="1.67" class="g">:</text><text x="13.026" y="1.67" class="h">~</text><text x="14.027999999999999" y="1.67" class="g">$</text><text x="16.032" y="1.67" class="g">shell</text></svg><svg x="875"><use xlink:href="#a"></use><use xlink:href="#b" x="21.996" y="0"></use><text x="0" y="1.67" class="f">team@itsfoss</text><text x="12.024" y="1.67" class="g">:</text><text x="13.026" y="1.67" class="h">~</text><text x="14.027999999999999" y="1.67" class="g">$</text><text x="16.032" y="1.67" class="g">shell-</text></svg><svg x="1000"><use xlink:href="#a"></use><use xlink:href="#b" x="22.996" y="0"></use><text x="0" y="1.67" class="f">team@itsfoss</text><text x="12.024" y="1.67" class="g">:</text><text x="13.026" y="1.67" class="h">~</text><text x="14.027999999999999" y="1.67" class="g">$</text><text x="16.032" y="1.67" class="g">shell-g</text></svg><svg x="1125"><use xlink:href="#a"></use><use xlink:href="#b" x="27.996" y="0"></use><text x="0" y="1.67" class="f">team@itsfoss</text><text x="12.024" y="1.67" class="g">:</text><text x="13.026" y="1.67" class="h">~</text><text x="14.027999999999999" y="1.67" class="g">$</text><text x="16.032" y="1.67" class="g">shell-genie</text></svg><svg x="1250"><use xlink:href="#a"></use><use xlink:href="#b" x="28.996" y="0"></use><text x="0" y="1.67" class="f">team@itsfoss</text><text x="12.024" y="1.67" class="g">:</text><text x="13.026" y="1.67" class="h">~</text><text x="14.027999999999999" y="1.67" class="g">$</text><text x="16.032" y="1.67" class="g">shell-genie</text><text x="28.055999999999997" y="1.67" class="g">i</text></svg><svg x="1375"><use xlink:href="#a"></use><use xlink:href="#b" x="29.996" y="0"></use><text x="0" y="1.67" class="f">team@itsfoss</text><text x="12.024" y="1.67" class="g">:</text><text x="13.026" y="1.67" class="h">~</text><text x="14.027999999999999" y="1.67" class="g">$</text><text x="16.032" y="1.67" class="g">shell-genie</text><text x="28.055999999999997" y="1.67" class="g">in</text></svg><svg x="1500"><use xlink:href="#a"></use><use xlink:href="#b" x="30.996" y="0"></use><text x="0" y="1.67" class="f">team@itsfoss</text><text x="12.024" y="1.67" class="g">:</text><text x="13.026" y="1.67" class="h">~</text><text x="14.027999999999999" y="1.67" class="g">$</text><text x="16.032" y="1.67" class="g">shell-genie</text><text x="28.055999999999997" y="1.67" class="g">ini</text></svg><svg x="1625"><use xlink:href="#a"></use><use xlink:href="#b" x="31.996" y="0"></use><use xlink:href="#2" y="0"></use></svg><svg x="1750"><use xlink:href="#a"></use><use xlink:href="#b" x="-0.0040000000000000036" y="2.146"></use><use xlink:href="#2" y="0"></use></svg><svg x="1875"><use xlink:href="#a"></use><use xlink:href="#b" x="41.996" y="2.146"></use><use xlink:href="#2" y="0"></use><text x="0" y="3.8409999999999997" class="g">Select</text><text x="7.013999999999999" y="3.8409999999999997" class="g">backend:</text><text x="16.032" y="3.8409999999999997" class="i">[openai-gpt3/free-genie]</text><text x="40.08" y="3.8409999999999997" class="g">:</text></svg><svg x="2000"><use xlink:href="#a"></use><use xlink:href="#b" x="42.996" y="2.146"></use><use xlink:href="#2" y="0"></use><text x="0" y="3.8409999999999997" class="g">Select</text><text x="7.013999999999999" y="3.8409999999999997" class="g">backend:</text><text x="16.032" y="3.8409999999999997" class="i">[openai-gpt3/free-genie]</text><text x="40.08" y="3.8409999999999997" class="g">:</text><text x="42.083999999999996" y="3.8409999999999997" class="g">f</text></svg><svg x="2125"><use xlink:href="#a"></use><use xlink:href="#b" x="43.996" y="2.146"></use><use xlink:href="#2" y="0"></use><text x="0" y="3.8409999999999997" class="g">Select</text><text x="7.013999999999999" y="3.8409999999999997" class="g">backend:</text><text x="16.032" y="3.8409999999999997" class="i">[openai-gpt3/free-genie]</text><text x="40.08" y="3.8409999999999997" class="g">:</text><text x="42.083999999999996" y="3.8409999999999997" class="g">fr</text></svg><svg x="2250"><use xlink:href="#a"></use><use xlink:href="#b" x="44.996" y="2.146"></use><use xlink:href="#2" y="0"></use><text x="0" y="3.8409999999999997" class="g">Select</text><text x="7.013999999999999" y="3.8409999999999997" class="g">backend:</text><text x="16.032" y="3.8409999999999997" class="i">[openai-gpt3/free-genie]</text><text x="40.08" y="3.8409999999999997" class="g">:</text><text x="42.083999999999996" y="3.8409999999999997" class="g">fre</text></svg><svg x="2375"><use xlink:href="#a"></use><use xlink:href="#b" x="45.996" y="2.146"></use><use xlink:href="#2" y="0"></use><text x="0" y="3.8409999999999997" class="g">Select</text><text x="7.013999999999999" y="3.8409999999999997" class="g">backend:</text><text x="16.032" y="3.8409999999999997" class="i">[openai-gpt3/free-genie]</text><text x="40.08" y="3.8409999999999997" class="g">:</text><text x="42.083999999999996" y="3.8409999999999997" class="g">free</text></svg><svg x="2500"><use xlink:href="#a"></use><use xlink:href="#b" x="46.996" y="2.146"></use><use xlink:href="#2" y="0"></use><text x="0" y="3.8409999999999997" class="g">Select</text><text x="7.013999999999999" y="3.8409999999999997" class="g">backend:</text><text x="16.032" y="3.8409999999999997" class="i">[openai-gpt3/free-genie]</text><text x="40.08" y="3.8409999999999997" class="g">:</text><text x="42.083999999999996" y="3.8409999999999997" class="g">free-</text></svg><svg x="2625"><use xlink:href="#a"></use><use xlink:href="#b" x="47.996" y="2.146"></use><use xlink:href="#2" y="0"></use><text x="0" y="3.8409999999999997" class="g">Select</text><text x="7.013999999999999" y="3.8409999999999997" class="g">backend:</text><text x="16.032" y="3.8409999999999997" class="i">[openai-gpt3/free-genie]</text><text x="40.08" y="3.8409999999999997" class="g">:</text><text x="42.083999999999996" y="3.8409999999999997" class="g">free-g</text></svg><svg x="2750"><use xlink:href="#a"></use><use xlink:href="#b" x="48.996" y="2.146"></use><use xlink:href="#2" y="0"></use><text x="0" y="3.8409999999999997" class="g">Select</text><text x="7.013999999999999" y="3.8409999999999997" class="g">backend:</text><text x="16.032" y="3.8409999999999997" class="i">[openai-gpt3/free-genie]</text><text x="40.08" y="3.8409999999999997" class="g">:</text><text x="42.083999999999996" y="3.8409999999999997" class="g">free-ge</text></svg><svg x="2875"><use xlink:href="#a"></use><use xlink:href="#b" x="49.996" y="2.146"></use><use xlink:href="#2" y="0"></use><use xlink:href="#3" y="2.171"></use></svg><svg x="3000"><use xlink:href="#a"></use><use xlink:href="#b" x="50.996" y="2.146"></use><use xlink:href="#2" y="0"></use><text x="0" y="3.8409999999999997" class="g">Select</text><text x="7.013999999999999" y="3.8409999999999997" class="g">backend:</text><text x="16.032" y="3.8409999999999997" class="i">[openai-gpt3/free-genie]</text><text x="40.08" y="3.8409999999999997" class="g">:</text><text x="42.083999999999996" y="3.8409999999999997" class="g">free-gene</text></svg><svg x="3125"><use xlink:href="#a"></use><use xlink:href="#b" x="49.996" y="2.146"></use><use xlink:href="#2" y="0"></use><use xlink:href="#3" y="2.171"></use></svg><svg x="3250"><use xlink:href="#a"></use><use xlink:href="#b" x="50.996" y="2.146"></use><use xlink:href="#2" y="0"></use><text x="0" y="3.8409999999999997" class="g">Select</text><text x="7.013999999999999" y="3.8409999999999997" class="g">backend:</text><text x="16.032" y="3.8409999999999997" class="i">[openai-gpt3/free-genie]</text><text x="40.08" y="3.8409999999999997" class="g">:</text><text x="42.083999999999996" y="3.8409999999999997" class="g">free-geni</text></svg><svg x="3375"><use xlink:href="#a"></use><use xlink:href="#b" x="51.996" y="2.146"></use><use xlink:href="#2" y="0"></use><use xlink:href="#4" y="2.171"></use></svg><svg x="3500"><use xlink:href="#a"></use><use xlink:href="#b" x="-0.0040000000000000036" y="4.317"></use><use xlink:href="#2" y="0"></use><use xlink:href="#4" y="2.171"></use></svg><svg x="3625"><use xlink:href="#a"></use><use xlink:href="#b" x="-0.0040000000000000036" y="8.658999999999999"></use><use xlink:href="#2" y="0"></use><use xlink:href="#4" y="2.171"></use><use xlink:href="#5" y="4.342"></use><use xlink:href="#6" y="6.513"></use></svg><svg x="3750"><use xlink:href="#a"></use><use xlink:href="#b" x="31.996" y="8.658999999999999"></use><use xlink:href="#2" y="0"></use><use xlink:href="#4" y="2.171"></use><use xlink:href="#5" y="4.342"></use><use xlink:href="#6" y="6.513"></use><text x="0" y="10.354" class="g">Do</text><text x="3.006" y="10.354" class="g">you</text><text x="7.013999999999999" y="10.354" class="g">want</text><text x="12.024" y="10.354" class="g">to</text><text x="15.029999999999998" y="10.354" class="g">continue?</text><text x="25.05" y="10.354" class="i">[y/n]</text><text x="30.059999999999995" y="10.354" class="g">:</text></svg><svg x="3875"><use xlink:href="#a"></use><use xlink:href="#b" x="32.996" y="8.658999999999999"></use><use xlink:href="#2" y="0"></use><use xlink:href="#4" y="2.171"></use><use xlink:href="#5" y="4.342"></use><use xlink:href="#6" y="6.513"></use><use xlink:href="#7" y="8.684"></use></svg><svg x="4000"><use xlink:href="#a"></use><use xlink:href="#b" x="-0.0040000000000000036" y="10.83"></use><use xlink:href="#2" y="0"></use><use xlink:href="#4" y="2.171"></use><use xlink:href="#5" y="4.342"></use><use xlink:href="#6" y="6.513"></use><use xlink:href="#7" y="8.684"></use></svg><svg x="4125"><use xlink:href="#a"></use><use xlink:href="#b" x="90.996" y="10.83"></use><use xlink:href="#2" y="0"></use><use xlink:href="#4" y="2.171"></use><use xlink:href="#5" y="4.342"></use><use xlink:href="#6" y="6.513"></use><use xlink:href="#7" y="8.684"></use><text x="0" y="12.525" class="g">Do</text><text x="3.006" y="12.525" class="g">you</text><text x="7.013999999999999" y="12.525" class="g">want</text><text x="12.024" y="12.525" class="g">to</text><text x="15.029999999999998" y="12.525" class="g">provide</text><text x="23.045999999999996" y="12.525" class="g">feedback</text><text x="32.064" y="12.525" class="g">about</text><text x="38.07599999999999" y="12.525" class="g">the</text><text x="42.083999999999996" y="12.525" class="g">generated</text><text x="52.104" y="12.525" class="g">commands</text><text x="61.12199999999999" y="12.525" class="g">to</text><text x="64.128" y="12.525" class="g">improve</text><text x="72.14399999999999" y="12.525" class="g">the</text><text x="76.15199999999999" y="12.525" class="g">models?</text><text x="84.16799999999999" y="12.525" class="i">[y/n]</text><text x="89.178" y="12.525" class="g">:</text></svg><svg x="4250"><use xlink:href="#a"></use><use xlink:href="#b" x="91.996" y="10.83"></use><use xlink:href="#2" y="0"></use><use xlink:href="#4" y="2.171"></use><use xlink:href="#5" y="4.342"></use><use xlink:href="#6" y="6.513"></use><use xlink:href="#7" y="8.684"></use><use xlink:href="#8" y="10.855"></use></svg><svg x="4375"><use xlink:href="#a"></use><use xlink:href="#b" x="-0.0040000000000000036" y="13.001"></use><use xlink:href="#2" y="0"></use><use xlink:href="#4" y="2.171"></use><use xlink:href="#5" y="4.342"></use><use xlink:href="#6" y="6.513"></use><use xlink:href="#7" y="8.684"></use><use xlink:href="#8" y="10.855"></use></svg><svg x="4500"><use xlink:href="#a"></use><use xlink:href="#b" x="37.996" y="13.001"></use><use xlink:href="#2" y="0"></use><use xlink:href="#4" y="2.171"></use><use xlink:href="#5" y="4.342"></use><use xlink:href="#6" y="6.513"></use><use xlink:href="#7" y="8.684"></use><use xlink:href="#8" y="10.855"></use><text x="0" y="14.696" class="g">Is</text><text x="3.006" y="14.696" class="g">your</text><text x="8.016" y="14.696" class="g">OS</text><text x="11.021999999999998" y="14.696" class="g">Ubuntu</text><text x="18.035999999999998" y="14.696" class="g">22.04.2</text><text x="26.052" y="14.696" class="g">LTS?</text><text x="31.061999999999998" y="14.696" class="i">[y/n]</text><text x="36.071999999999996" y="14.696" class="g">:</text></svg><svg x="4625"><use xlink:href="#a"></use><use xlink:href="#b" x="38.996" y="13.001"></use><use xlink:href="#2" y="0"></use><use xlink:href="#4" y="2.171"></use><use xlink:href="#5" y="4.342"></use><use xlink:href="#6" y="6.513"></use><use xlink:href="#7" y="8.684"></use><use xlink:href="#8" y="10.855"></use><use xlink:href="#9" y="13.026"></use></svg><svg x="4750"><use xlink:href="#a"></use><use xlink:href="#b" x="-0.0040000000000000036" y="15.171999999999999"></use><use xlink:href="#2" y="0"></use><use xlink:href="#4" y="2.171"></use><use xlink:href="#5" y="4.342"></use><use xlink:href="#6" y="6.513"></use><use xlink:href="#7" y="8.684"></use><use xlink:href="#8" y="10.855"></use><use xlink:href="#9" y="13.026"></use></svg><svg x="4875"><use xlink:href="#a"></use><use xlink:href="#b" x="-0.0040000000000000036" y="17.343"></use><use xlink:href="#2" y="0"></use><use xlink:href="#4" y="2.171"></use><use xlink:href="#5" y="4.342"></use><use xlink:href="#6" y="6.513"></use><use xlink:href="#7" y="8.684"></use><use xlink:href="#8" y="10.855"></use><use xlink:href="#9" y="13.026"></use><use xlink:href="#10" y="15.197"></use></svg><svg x="5000"><use xlink:href="#a"></use><use xlink:href="#b" x="-0.0040000000000000036" y="32.54"></use><use xlink:href="#2" y="0"></use><use xlink:href="#4" y="2.171"></use><use xlink:href="#5" y="4.342"></use><use xlink:href="#6" y="6.513"></use><use xlink:href="#7" y="8.684"></use><use xlink:href="#8" y="10.855"></use><use xlink:href="#9" y="13.026"></use><use xlink:href="#10" y="15.197"></use><use xlink:href="#11" y="17.368"></use><use xlink:href="#12" y="19.539"></use><use xlink:href="#13" y="21.71"></use><use xlink:href="#14" y="23.880999999999997"></use><use xlink:href="#15" y="26.052"></use><use xlink:href="#16" y="28.223000000000003"></use><use xlink:href="#17" y="30.394"></use></svg><svg x="5125"><use xlink:href="#a"></use><use xlink:href="#b" x="-0.0040000000000000036" y="34.711"></use><use xlink:href="#2" y="0"></use><use xlink:href="#4" y="2.171"></use><use xlink:href="#5" y="4.342"></use><use xlink:href="#6" y="6.513"></use><use xlink:href="#7" y="8.684"></use><use xlink:href="#8" y="10.855"></use><use xlink:href="#9" y="13.026"></use><use xlink:href="#10" y="15.197"></use><use xlink:href="#11" y="17.368"></use><use xlink:href="#12" y="19.539"></use><use xlink:href="#13" y="21.71"></use><use xlink:href="#14" y="23.880999999999997"></use><use xlink:href="#15" y="26.052"></use><use xlink:href="#16" y="28.223000000000003"></use><use xlink:href="#17" y="30.394"></use><use xlink:href="#18" y="32.565"></use></svg><svg x="5250"><use xlink:href="#a"></use><use xlink:href="#b" x="-0.0040000000000000036" y="34.711"></use><use xlink:href="#2" y="0"></use><use xlink:href="#4" y="2.171"></use><use xlink:href="#5" y="4.342"></use><use xlink:href="#6" y="6.513"></use><use xlink:href="#7" y="8.684"></use><use xlink:href="#8" y="10.855"></use><use xlink:href="#9" y="13.026"></use><use xlink:href="#10" y="15.197"></use><use xlink:href="#11" y="17.368"></use><use xlink:href="#12" y="19.539"></use><use xlink:href="#13" y="21.71"></use><use xlink:href="#14" y="23.880999999999997"></use><use xlink:href="#15" y="26.052"></use><use xlink:href="#16" y="28.223000000000003"></use><use xlink:href="#17" y="30.394"></use><use xlink:href="#18" y="32.565"></use></svg><svg x="5375"><use xlink:href="#a"></use><use xlink:href="#b" x="15.996" y="34.711"></use><use xlink:href="#2" y="0"></use><use xlink:href="#4" y="2.171"></use><use xlink:href="#5" y="4.342"></use><use xlink:href="#6" y="6.513"></use><use xlink:href="#7" y="8.684"></use><use xlink:href="#8" y="10.855"></use><use xlink:href="#9" y="13.026"></use><use xlink:href="#10" y="15.197"></use><use xlink:href="#11" y="17.368"></use><use xlink:href="#12" y="19.539"></use><use xlink:href="#13" y="21.71"></use><use xlink:href="#14" y="23.880999999999997"></use><use xlink:href="#15" y="26.052"></use><use xlink:href="#16" y="28.223000000000003"></use><use xlink:href="#17" y="30.394"></use><use xlink:href="#18" y="32.565"></use><use xlink:href="#1" y="34.736"></use></svg><svg x="5500"><use xlink:href="#a"></use><use xlink:href="#b" x="-0.0040000000000000036" y="36.882000000000005"></use><use xlink:href="#2" y="0"></use><use xlink:href="#4" y="2.171"></use><use xlink:href="#5" y="4.342"></use><use xlink:href="#6" y="6.513"></use><use xlink:href="#7" y="8.684"></use><use xlink:href="#8" y="10.855"></use><use xlink:href="#9" y="13.026"></use><use xlink:href="#10" y="15.197"></use><use xlink:href="#11" y="17.368"></use><use xlink:href="#12" y="19.539"></use><use xlink:href="#13" y="21.71"></use><use xlink:href="#14" y="23.880999999999997"></use><use xlink:href="#15" y="26.052"></use><use xlink:href="#16" y="28.223000000000003"></use><use xlink:href="#17" y="30.394"></use><use xlink:href="#18" y="32.565"></use><use xlink:href="#1" y="34.736"></use></svg><svg x="5625"><use xlink:href="#a"></use><use xlink:href="#b" x="-0.0040000000000000036" y="39.053000000000004"></use><use xlink:href="#2" y="0"></use><use xlink:href="#4" y="2.171"></use><use xlink:href="#5" y="4.342"></use><use xlink:href="#6" y="6.513"></use><use xlink:href="#7" y="8.684"></use><use xlink:href="#8" y="10.855"></use><use xlink:href="#9" y="13.026"></use><use xlink:href="#10" y="15.197"></use><use xlink:href="#11" y="17.368"></use><use xlink:href="#12" y="19.539"></use><use xlink:href="#13" y="21.71"></use><use xlink:href="#14" y="23.880999999999997"></use><use xlink:href="#15" y="26.052"></use><use xlink:href="#16" y="28.223000000000003"></use><use xlink:href="#17" y="30.394"></use><use xlink:href="#18" y="32.565"></use><use xlink:href="#1" y="34.736"></use><text x="0" y="38.577000000000005" class="g">exit</text></svg></svg></g></g></svg></svg>