<svg xmlns="http://www.w3.org/2000/svg" xmlns:xlink="http://www.w3.org/1999/xlink" width="1240" height="602.75"><rect width="1240" height="602.75" rx="5" ry="5" class="a"></rect><svg y="0%" x="0%"><circle cx="20" cy="20" r="6" class="b"></circle><circle cx="40" cy="20" r="6" class="c"></circle><circle cx="60" cy="20" r="6" class="d"></circle></svg><svg height="542.75" viewBox="0 0 120 54.275" width="1200" x="15" xmlns="http://www.w3.org/2000/svg" xmlns:xlink="http://www.w3.org/1999/xlink" y="50"><style>.a{fill:rgb(40,45,53)}.b{fill:#ff5f58}.c{fill:#ffbd2e}.d{fill:#18c132}.e{font-family:Monaco,Consolas,Menlo,'Bitstream Vera Sans Mono','Powerline Symbols',monospace}.f{fill:rgb(168,204,140);font-weight:bold;white-space:pre}.g{fill:rgb(185,192,203);white-space:pre}.h{fill:rgb(113,190,242);font-weight:bold;white-space:pre}.i{fill:rgb(185,192,203);font-weight:bold;white-space:pre}.j{fill:rgb(219,171,121);white-space:pre}.k{fill:rgb(210,144,228);font-weight:bold;white-space:pre}.l{fill:transparent}.m{fill:rgb(111,118,131)}.o{animation-duration:26.330893s;animation-iteration-count:infinite;animation-name:n;animation-timing-function:steps(1,end)}@keyframes n{0%{transform:translateX(-0px)}0.05%{transform:translateX(-120px)}0.05%{transform:translateX(-240px)}2.9%{transform:translateX(-360px)}3.44%{transform:translateX(-480px)}4.66%{transform:translateX(-600px)}5.27%{transform:translateX(-720px)}5.93%{transform:translateX(-840px)}7.03%{transform:translateX(-960px)}8.58%{transform:translateX(-1080px)}9.19%{transform:translateX(-1200px)}12.41%{transform:translateX(-1320px)}13.38%{transform:translateX(-1440px)}14.08%{transform:translateX(-1560px)}15.23%{transform:translateX(-1680px)}18.06%{transform:translateX(-1800px)}18.51%{transform:translateX(-1920px)}20.07%{transform:translateX(-2040px)}22.62%{transform:translateX(-2160px)}23.1%{transform:translateX(-2280px)}23.58%{transform:translateX(-2400px)}24.23%{transform:translateX(-2520px)}24.92%{transform:translateX(-2640px)}25.47%{transform:translateX(-2760px)}26.6%{transform:translateX(-2880px)}27.39%{transform:translateX(-3000px)}28.23%{transform:translateX(-3120px)}30.39%{transform:translateX(-3240px)}31.55%{transform:translateX(-3360px)}32.55%{transform:translateX(-3480px)}33.31%{transform:translateX(-3600px)}34.07%{transform:translateX(-3720px)}34.34%{transform:translateX(-3840px)}35.98%{transform:translateX(-3960px)}36.46%{transform:translateX(-4080px)}37.17%{transform:translateX(-4200px)}37.47%{transform:translateX(-4320px)}38.32%{transform:translateX(-4440px)}39.05%{transform:translateX(-4560px)}39.93%{transform:translateX(-4680px)}40.32%{transform:translateX(-4800px)}43.34%{transform:translateX(-4920px)}44.37%{transform:translateX(-5040px)}44.98%{transform:translateX(-5160px)}45.52%{transform:translateX(-5280px)}45.86%{transform:translateX(-5400px)}46.77%{transform:translateX(-5520px)}47.19%{transform:translateX(-5640px)}47.69%{transform:translateX(-5760px)}49.08%{transform:translateX(-5880px)}50.17%{transform:translateX(-6000px)}50.93%{transform:translateX(-6120px)}51.42%{transform:translateX(-6240px)}52.48%{transform:translateX(-6360px)}53.82%{transform:translateX(-6480px)}54.24%{transform:translateX(-6600px)}54.82%{transform:translateX(-6720px)}55.52%{transform:translateX(-6840px)}57.83%{transform:translateX(-6960px)}59.95%{transform:translateX(-7080px)}73.52%{transform:translateX(-7200px)}73.53%{transform:translateX(-7320px)}79.4%{transform:translateX(-7440px)}81.92%{transform:translateX(-7560px)}81.94%{transform:translateX(-7680px)}81.94%{transform:translateX(-7800px)}91.49%{transform:translateX(-7920px)}92.8%{transform:translateX(-8040px)}95.81%{transform:translateX(-8160px)}100%{transform:translateX(-8280px)}}</style><g font-family="Monaco, Consolas, Menlo, &#x27;Bitstream Vera Sans Mono&#x27;, &#x27;Powerline Symbols&#x27;, monospace" font-size="1.67" class="e"><defs><symbol id="1"><text x="0" y="1.67" class="f">team@itsfoss-work</text><text x="17.034" y="1.67" class="g">:</text><text x="18.035999999999998" y="1.67" class="h">~</text><text x="19.037999999999997" y="1.67" class="g">$</text></symbol><symbol id="2"><text x="0" y="1.67" class="f">team@itsfoss-work</text><text x="17.034" y="1.67" class="g">:</text><text x="18.035999999999998" y="1.67" class="h">~</text><text x="19.037999999999997" y="1.67" class="g">$</text><text x="21.041999999999998" y="1.67" class="g">shell-genie</text><text x="33.065999999999995" y="1.67" class="g">ask</text></symbol><symbol id="3"><text x="0" y="1.67" class="f">team@itsfoss-work</text><text x="17.034" y="1.67" class="g">:</text><text x="18.035999999999998" y="1.67" class="h">~</text><text x="19.037999999999997" y="1.67" class="g">$</text><text x="21.041999999999998" y="1.67" class="g">shell-genie</text><text x="33.065999999999995" y="1.67" class="g">ask</text><text x="37.074" y="1.67" class="g">&quot;&quot;</text></symbol><symbol id="4"><text x="0" y="1.67" class="f">team@itsfoss-work</text><text x="17.034" y="1.67" class="g">:</text><text x="18.035999999999998" y="1.67" class="h">~</text><text x="19.037999999999997" y="1.67" class="g">$</text><text x="21.041999999999998" y="1.67" class="g">shell-genie</text><text x="33.065999999999995" y="1.67" class="g">ask</text><text x="37.074" y="1.67" class="g">&quot;display</text><text x="46.09199999999999" y="1.67" class="g">&quot;</text></symbol><symbol id="5"><text x="0" y="1.67" class="f">team@itsfoss-work</text><text x="17.034" y="1.67" class="g">:</text><text x="18.035999999999998" y="1.67" class="h">~</text><text x="19.037999999999997" y="1.67" class="g">$</text><text x="21.041999999999998" y="1.67" class="g">shell-genie</text><text x="33.065999999999995" y="1.67" class="g">ask</text><text x="37.074" y="1.67" class="g">&quot;display</text><text x="46.09199999999999" y="1.67" class="g">only</text><text x="51.102" y="1.67" class="g">folders</text><text x="59.117999999999995" y="1.67" class="g">in</text><text x="62.123999999999995" y="1.67" class="g">this</text><text x="67.134" y="1.67" class="g">directory&quot;</text></symbol><symbol id="6"><text x="0" y="1.67" class="i">Command:</text><text x="9.017999999999999" y="1.67" class="j">ls</text><text x="12.024" y="1.67" class="j">-d</text><text x="15.029999999999998" y="1.67" class="j">*/</text></symbol><symbol id="7"><text x="0" y="1.67" class="g">Do</text><text x="3.006" y="1.67" class="g">you</text><text x="7.013999999999999" y="1.67" class="g">want</text><text x="12.024" y="1.67" class="g">to</text><text x="15.029999999999998" y="1.67" class="g">run</text><text x="19.037999999999997" y="1.67" class="g">the</text><text x="23.045999999999996" y="1.67" class="g">command?</text><text x="32.064" y="1.67" class="k">[y/n]</text><text x="37.074" y="1.67" class="g">:</text><text x="39.077999999999996" y="1.67" class="g">y</text></symbol><symbol id="8"><text x="0" y="1.67" class="g">Desktop/</text><text x="12.024" y="1.67" class="g">Downloads/</text><text x="24.048" y="1.67" class="g">eclipse-workspace/</text><text x="44.087999999999994" y="1.67" class="g">Pictures/</text><text x="55.10999999999999" y="1.67" class="g">snap/</text><text x="76.15199999999999" y="1.67" class="g">Templates/</text></symbol><symbol id="9"><text x="0" y="1.67" class="g">Documents/</text><text x="12.024" y="1.67" class="g">eclipse/</text><text x="24.048" y="1.67" class="g">Music/</text><text x="44.087999999999994" y="1.67" class="g">Public/</text><text x="55.10999999999999" y="1.67" class="g">svg-create-program/</text><text x="76.15199999999999" y="1.67" class="g">Videos/</text></symbol><symbol id="10"><text x="0" y="1.67" class="g">Did</text><text x="4.008" y="1.67" class="g">the</text><text x="8.016" y="1.67" class="g">command</text><text x="16.032" y="1.67" class="g">work?</text><text x="22.043999999999997" y="1.67" class="k">[y/n]</text><text x="27.054" y="1.67" class="g">:</text><text x="29.058" y="1.67" class="g">y</text></symbol><symbol id="a"><rect height="26" width="120" x="0" y="0" class="l"></rect></symbol><symbol id="b"><rect height="2.171" width="1.1022" class="m"></rect></symbol></defs><rect height="54.275" width="120" class="a"></rect><g class="o"><svg x="0" y="0" width="8400"><svg x="0"><use xlink:href="#a"></use><use xlink:href="#b" x="-0.0040000000000000036" y="0"></use></svg><svg x="120"><use xlink:href="#a"></use><use xlink:href="#b" x="-0.0040000000000000036" y="0"></use></svg><svg x="240"><use xlink:href="#a"></use><use xlink:href="#b" x="20.996" y="0"></use><use xlink:href="#1" y="0"></use></svg><svg x="360"><use xlink:href="#a"></use><use xlink:href="#b" x="21.996" y="0"></use><text x="0" y="1.67" class="f">team@itsfoss-work</text><text x="17.034" y="1.67" class="g">:</text><text x="18.035999999999998" y="1.67" class="h">~</text><text x="19.037999999999997" y="1.67" class="g">$</text><text x="21.041999999999998" y="1.67" class="g">s</text></svg><svg x="480"><use xlink:href="#a"></use><use xlink:href="#b" x="22.996" y="0"></use><text x="0" y="1.67" class="f">team@itsfoss-work</text><text x="17.034" y="1.67" class="g">:</text><text x="18.035999999999998" y="1.67" class="h">~</text><text x="19.037999999999997" y="1.67" class="g">$</text><text x="21.041999999999998" y="1.67" class="g">sh</text></svg><svg x="600"><use xlink:href="#a"></use><use xlink:href="#b" x="23.996" y="0"></use><text x="0" y="1.67" class="f">team@itsfoss-work</text><text x="17.034" y="1.67" class="g">:</text><text x="18.035999999999998" y="1.67" class="h">~</text><text x="19.037999999999997" y="1.67" class="g">$</text><text x="21.041999999999998" y="1.67" class="g">she</text></svg><svg x="720"><use xlink:href="#a"></use><use xlink:href="#b" x="24.996" y="0"></use><text x="0" y="1.67" class="f">team@itsfoss-work</text><text x="17.034" y="1.67" class="g">:</text><text x="18.035999999999998" y="1.67" class="h">~</text><text x="19.037999999999997" y="1.67" class="g">$</text><text x="21.041999999999998" y="1.67" class="g">shel</text></svg><svg x="840"><use xlink:href="#a"></use><use xlink:href="#b" x="25.996" y="0"></use><text x="0" y="1.67" class="f">team@itsfoss-work</text><text x="17.034" y="1.67" class="g">:</text><text x="18.035999999999998" y="1.67" class="h">~</text><text x="19.037999999999997" y="1.67" class="g">$</text><text x="21.041999999999998" y="1.67" class="g">shell</text></svg><svg x="960"><use xlink:href="#a"></use><use xlink:href="#b" x="26.996" y="0"></use><text x="0" y="1.67" class="f">team@itsfoss-work</text><text x="17.034" y="1.67" class="g">:</text><text x="18.035999999999998" y="1.67" class="h">~</text><text x="19.037999999999997" y="1.67" class="g">$</text><text x="21.041999999999998" y="1.67" class="g">shell-</text></svg><svg x="1080"><use xlink:href="#a"></use><use xlink:href="#b" x="27.996" y="0"></use><text x="0" y="1.67" class="f">team@itsfoss-work</text><text x="17.034" y="1.67" class="g">:</text><text x="18.035999999999998" y="1.67" class="h">~</text><text x="19.037999999999997" y="1.67" class="g">$</text><text x="21.041999999999998" y="1.67" class="g">shell-g</text></svg><svg x="1200"><use xlink:href="#a"></use><use xlink:href="#b" x="32.996" y="0"></use><text x="0" y="1.67" class="f">team@itsfoss-work</text><text x="17.034" y="1.67" class="g">:</text><text x="18.035999999999998" y="1.67" class="h">~</text><text x="19.037999999999997" y="1.67" class="g">$</text><text x="21.041999999999998" y="1.67" class="g">shell-genie</text></svg><svg x="1320"><use xlink:href="#a"></use><use xlink:href="#b" x="33.996" y="0"></use><text x="0" y="1.67" class="f">team@itsfoss-work</text><text x="17.034" y="1.67" class="g">:</text><text x="18.035999999999998" y="1.67" class="h">~</text><text x="19.037999999999997" y="1.67" class="g">$</text><text x="21.041999999999998" y="1.67" class="g">shell-genie</text><text x="33.065999999999995" y="1.67" class="g">a</text></svg><svg x="1440"><use xlink:href="#a"></use><use xlink:href="#b" x="34.996" y="0"></use><text x="0" y="1.67" class="f">team@itsfoss-work</text><text x="17.034" y="1.67" class="g">:</text><text x="18.035999999999998" y="1.67" class="h">~</text><text x="19.037999999999997" y="1.67" class="g">$</text><text x="21.041999999999998" y="1.67" class="g">shell-genie</text><text x="33.065999999999995" y="1.67" class="g">as</text></svg><svg x="1560"><use xlink:href="#a"></use><use xlink:href="#b" x="35.996" y="0"></use><use xlink:href="#2" y="0"></use></svg><svg x="1680"><use xlink:href="#a"></use><use xlink:href="#b" x="36.996" y="0"></use><use xlink:href="#2" y="0"></use></svg><svg x="1800"><use xlink:href="#a"></use><use xlink:href="#b" x="37.996" y="0"></use><text x="0" y="1.67" class="f">team@itsfoss-work</text><text x="17.034" y="1.67" class="g">:</text><text x="18.035999999999998" y="1.67" class="h">~</text><text x="19.037999999999997" y="1.67" class="g">$</text><text x="21.041999999999998" y="1.67" class="g">shell-genie</text><text x="33.065999999999995" y="1.67" class="g">ask</text><text x="37.074" y="1.67" class="g">&quot;</text></svg><svg x="1920"><use xlink:href="#a"></use><use xlink:href="#b" x="38.996" y="0"></use><use xlink:href="#3" y="0"></use></svg><svg x="2040"><use xlink:href="#a"></use><use xlink:href="#b" x="37.996" y="0"></use><use xlink:href="#3" y="0"></use></svg><svg x="2160"><use xlink:href="#a"></use><use xlink:href="#b" x="38.996" y="0"></use><text x="0" y="1.67" class="f">team@itsfoss-work</text><text x="17.034" y="1.67" class="g">:</text><text x="18.035999999999998" y="1.67" class="h">~</text><text x="19.037999999999997" y="1.67" class="g">$</text><text x="21.041999999999998" y="1.67" class="g">shell-genie</text><text x="33.065999999999995" y="1.67" class="g">ask</text><text x="37.074" y="1.67" class="g">&quot;d&quot;</text></svg><svg x="2280"><use xlink:href="#a"></use><use xlink:href="#b" x="39.996" y="0"></use><text x="0" y="1.67" class="f">team@itsfoss-work</text><text x="17.034" y="1.67" class="g">:</text><text x="18.035999999999998" y="1.67" class="h">~</text><text x="19.037999999999997" y="1.67" class="g">$</text><text x="21.041999999999998" y="1.67" class="g">shell-genie</text><text x="33.065999999999995" y="1.67" class="g">ask</text><text x="37.074" y="1.67" class="g">&quot;di&quot;</text></svg><svg x="2400"><use xlink:href="#a"></use><use xlink:href="#b" x="40.996" y="0"></use><text x="0" y="1.67" class="f">team@itsfoss-work</text><text x="17.034" y="1.67" class="g">:</text><text x="18.035999999999998" y="1.67" class="h">~</text><text x="19.037999999999997" y="1.67" class="g">$</text><text x="21.041999999999998" y="1.67" class="g">shell-genie</text><text x="33.065999999999995" y="1.67" class="g">ask</text><text x="37.074" y="1.67" class="g">&quot;dis&quot;</text></svg><svg x="2520"><use xlink:href="#a"></use><use xlink:href="#b" x="41.996" y="0"></use><text x="0" y="1.67" class="f">team@itsfoss-work</text><text x="17.034" y="1.67" class="g">:</text><text x="18.035999999999998" y="1.67" class="h">~</text><text x="19.037999999999997" y="1.67" class="g">$</text><text x="21.041999999999998" y="1.67" class="g">shell-genie</text><text x="33.065999999999995" y="1.67" class="g">ask</text><text x="37.074" y="1.67" class="g">&quot;disp&quot;</text></svg><svg x="2640"><use xlink:href="#a"></use><use xlink:href="#b" x="42.996" y="0"></use><text x="0" y="1.67" class="f">team@itsfoss-work</text><text x="17.034" y="1.67" class="g">:</text><text x="18.035999999999998" y="1.67" class="h">~</text><text x="19.037999999999997" y="1.67" class="g">$</text><text x="21.041999999999998" y="1.67" class="g">shell-genie</text><text x="33.065999999999995" y="1.67" class="g">ask</text><text x="37.074" y="1.67" class="g">&quot;displ&quot;</text></svg><svg x="2760"><use xlink:href="#a"></use><use xlink:href="#b" x="43.996" y="0"></use><text x="0" y="1.67" class="f">team@itsfoss-work</text><text x="17.034" y="1.67" class="g">:</text><text x="18.035999999999998" y="1.67" class="h">~</text><text x="19.037999999999997" y="1.67" class="g">$</text><text x="21.041999999999998" y="1.67" class="g">shell-genie</text><text x="33.065999999999995" y="1.67" class="g">ask</text><text x="37.074" y="1.67" class="g">&quot;displa&quot;</text></svg><svg x="2880"><use xlink:href="#a"></use><use xlink:href="#b" x="44.996" y="0"></use><text x="0" y="1.67" class="f">team@itsfoss-work</text><text x="17.034" y="1.67" class="g">:</text><text x="18.035999999999998" y="1.67" class="h">~</text><text x="19.037999999999997" y="1.67" class="g">$</text><text x="21.041999999999998" y="1.67" class="g">shell-genie</text><text x="33.065999999999995" y="1.67" class="g">ask</text><text x="37.074" y="1.67" class="g">&quot;display&quot;</text></svg><svg x="3000"><use xlink:href="#a"></use><use xlink:href="#b" x="45.996" y="0"></use><use xlink:href="#4" y="0"></use></svg><svg x="3120"><use xlink:href="#a"></use><use xlink:href="#b" x="46.996" y="0"></use><text x="0" y="1.67" class="f">team@itsfoss-work</text><text x="17.034" y="1.67" class="g">:</text><text x="18.035999999999998" y="1.67" class="h">~</text><text x="19.037999999999997" y="1.67" class="g">$</text><text x="21.041999999999998" y="1.67" class="g">shell-genie</text><text x="33.065999999999995" y="1.67" class="g">ask</text><text x="37.074" y="1.67" class="g">&quot;display</text><text x="46.09199999999999" y="1.67" class="g">a&quot;</text></svg><svg x="3240"><use xlink:href="#a"></use><use xlink:href="#b" x="45.996" y="0"></use><use xlink:href="#4" y="0"></use></svg><svg x="3360"><use xlink:href="#a"></use><use xlink:href="#b" x="46.996" y="0"></use><text x="0" y="1.67" class="f">team@itsfoss-work</text><text x="17.034" y="1.67" class="g">:</text><text x="18.035999999999998" y="1.67" class="h">~</text><text x="19.037999999999997" y="1.67" class="g">$</text><text x="21.041999999999998" y="1.67" class="g">shell-genie</text><text x="33.065999999999995" y="1.67" class="g">ask</text><text x="37.074" y="1.67" class="g">&quot;display</text><text x="46.09199999999999" y="1.67" class="g">o&quot;</text></svg><svg x="3480"><use xlink:href="#a"></use><use xlink:href="#b" x="47.996" y="0"></use><text x="0" y="1.67" class="f">team@itsfoss-work</text><text x="17.034" y="1.67" class="g">:</text><text x="18.035999999999998" y="1.67" class="h">~</text><text x="19.037999999999997" y="1.67" class="g">$</text><text x="21.041999999999998" y="1.67" class="g">shell-genie</text><text x="33.065999999999995" y="1.67" class="g">ask</text><text x="37.074" y="1.67" class="g">&quot;display</text><text x="46.09199999999999" y="1.67" class="g">on&quot;</text></svg><svg x="3600"><use xlink:href="#a"></use><use xlink:href="#b" x="48.996" y="0"></use><text x="0" y="1.67" class="f">team@itsfoss-work</text><text x="17.034" y="1.67" class="g">:</text><text x="18.035999999999998" y="1.67" class="h">~</text><text x="19.037999999999997" y="1.67" class="g">$</text><text x="21.041999999999998" y="1.67" class="g">shell-genie</text><text x="33.065999999999995" y="1.67" class="g">ask</text><text x="37.074" y="1.67" class="g">&quot;display</text><text x="46.09199999999999" y="1.67" class="g">onl&quot;</text></svg><svg x="3720"><use xlink:href="#a"></use><use xlink:href="#b" x="49.996" y="0"></use><text x="0" y="1.67" class="f">team@itsfoss-work</text><text x="17.034" y="1.67" class="g">:</text><text x="18.035999999999998" y="1.67" class="h">~</text><text x="19.037999999999997" y="1.67" class="g">$</text><text x="21.041999999999998" y="1.67" class="g">shell-genie</text><text x="33.065999999999995" y="1.67" class="g">ask</text><text x="37.074" y="1.67" class="g">&quot;display</text><text x="46.09199999999999" y="1.67" class="g">only&quot;</text></svg><svg x="3840"><use xlink:href="#a"></use><use xlink:href="#b" x="50.996" y="0"></use><text x="0" y="1.67" class="f">team@itsfoss-work</text><text x="17.034" y="1.67" class="g">:</text><text x="18.035999999999998" y="1.67" class="h">~</text><text x="19.037999999999997" y="1.67" class="g">$</text><text x="21.041999999999998" y="1.67" class="g">shell-genie</text><text x="33.065999999999995" y="1.67" class="g">ask</text><text x="37.074" y="1.67" class="g">&quot;display</text><text x="46.09199999999999" y="1.67" class="g">only</text><text x="51.102" y="1.67" class="g">&quot;</text></svg><svg x="3960"><use xlink:href="#a"></use><use xlink:href="#b" x="51.996" y="0"></use><text x="0" y="1.67" class="f">team@itsfoss-work</text><text x="17.034" y="1.67" class="g">:</text><text x="18.035999999999998" y="1.67" class="h">~</text><text x="19.037999999999997" y="1.67" class="g">$</text><text x="21.041999999999998" y="1.67" class="g">shell-genie</text><text x="33.065999999999995" y="1.67" class="g">ask</text><text x="37.074" y="1.67" class="g">&quot;display</text><text x="46.09199999999999" y="1.67" class="g">only</text><text x="51.102" y="1.67" class="g">f&quot;</text></svg><svg x="4080"><use xlink:href="#a"></use><use xlink:href="#b" x="52.996" y="0"></use><text x="0" y="1.67" class="f">team@itsfoss-work</text><text x="17.034" y="1.67" class="g">:</text><text x="18.035999999999998" y="1.67" class="h">~</text><text x="19.037999999999997" y="1.67" class="g">$</text><text x="21.041999999999998" y="1.67" class="g">shell-genie</text><text x="33.065999999999995" y="1.67" class="g">ask</text><text x="37.074" y="1.67" class="g">&quot;display</text><text x="46.09199999999999" y="1.67" class="g">only</text><text x="51.102" y="1.67" class="g">fo&quot;</text></svg><svg x="4200"><use xlink:href="#a"></use><use xlink:href="#b" x="53.996" y="0"></use><text x="0" y="1.67" class="f">team@itsfoss-work</text><text x="17.034" y="1.67" class="g">:</text><text x="18.035999999999998" y="1.67" class="h">~</text><text x="19.037999999999997" y="1.67" class="g">$</text><text x="21.041999999999998" y="1.67" class="g">shell-genie</text><text x="33.065999999999995" y="1.67" class="g">ask</text><text x="37.074" y="1.67" class="g">&quot;display</text><text x="46.09199999999999" y="1.67" class="g">only</text><text x="51.102" y="1.67" class="g">fol&quot;</text></svg><svg x="4320"><use xlink:href="#a"></use><use xlink:href="#b" x="54.996" y="0"></use><text x="0" y="1.67" class="f">team@itsfoss-work</text><text x="17.034" y="1.67" class="g">:</text><text x="18.035999999999998" y="1.67" class="h">~</text><text x="19.037999999999997" y="1.67" class="g">$</text><text x="21.041999999999998" y="1.67" class="g">shell-genie</text><text x="33.065999999999995" y="1.67" class="g">ask</text><text x="37.074" y="1.67" class="g">&quot;display</text><text x="46.09199999999999" y="1.67" class="g">only</text><text x="51.102" y="1.67" class="g">fold&quot;</text></svg><svg x="4440"><use xlink:href="#a"></use><use xlink:href="#b" x="55.996" y="0"></use><text x="0" y="1.67" class="f">team@itsfoss-work</text><text x="17.034" y="1.67" class="g">:</text><text x="18.035999999999998" y="1.67" class="h">~</text><text x="19.037999999999997" y="1.67" class="g">$</text><text x="21.041999999999998" y="1.67" class="g">shell-genie</text><text x="33.065999999999995" y="1.67" class="g">ask</text><text x="37.074" y="1.67" class="g">&quot;display</text><text x="46.09199999999999" y="1.67" class="g">only</text><text x="51.102" y="1.67" class="g">folde&quot;</text></svg><svg x="4560"><use xlink:href="#a"></use><use xlink:href="#b" x="56.996" y="0"></use><text x="0" y="1.67" class="f">team@itsfoss-work</text><text x="17.034" y="1.67" class="g">:</text><text x="18.035999999999998" y="1.67" class="h">~</text><text x="19.037999999999997" y="1.67" class="g">$</text><text x="21.041999999999998" y="1.67" class="g">shell-genie</text><text x="33.065999999999995" y="1.67" class="g">ask</text><text x="37.074" y="1.67" class="g">&quot;display</text><text x="46.09199999999999" y="1.67" class="g">only</text><text x="51.102" y="1.67" class="g">folder&quot;</text></svg><svg x="4680"><use xlink:href="#a"></use><use xlink:href="#b" x="57.996" y="0"></use><text x="0" y="1.67" class="f">team@itsfoss-work</text><text x="17.034" y="1.67" class="g">:</text><text x="18.035999999999998" y="1.67" class="h">~</text><text x="19.037999999999997" y="1.67" class="g">$</text><text x="21.041999999999998" y="1.67" class="g">shell-genie</text><text x="33.065999999999995" y="1.67" class="g">ask</text><text x="37.074" y="1.67" class="g">&quot;display</text><text x="46.09199999999999" y="1.67" class="g">only</text><text x="51.102" y="1.67" class="g">folders&quot;</text></svg><svg x="4800"><use xlink:href="#a"></use><use xlink:href="#b" x="58.996" y="0"></use><text x="0" y="1.67" class="f">team@itsfoss-work</text><text x="17.034" y="1.67" class="g">:</text><text x="18.035999999999998" y="1.67" class="h">~</text><text x="19.037999999999997" y="1.67" class="g">$</text><text x="21.041999999999998" y="1.67" class="g">shell-genie</text><text x="33.065999999999995" y="1.67" class="g">ask</text><text x="37.074" y="1.67" class="g">&quot;display</text><text x="46.09199999999999" y="1.67" class="g">only</text><text x="51.102" y="1.67" class="g">folders</text><text x="59.117999999999995" y="1.67" class="g">&quot;</text></svg><svg x="4920"><use xlink:href="#a"></use><use xlink:href="#b" x="59.996" y="0"></use><text x="0" y="1.67" class="f">team@itsfoss-work</text><text x="17.034" y="1.67" class="g">:</text><text x="18.035999999999998" y="1.67" class="h">~</text><text x="19.037999999999997" y="1.67" class="g">$</text><text x="21.041999999999998" y="1.67" class="g">shell-genie</text><text x="33.065999999999995" y="1.67" class="g">ask</text><text x="37.074" y="1.67" class="g">&quot;display</text><text x="46.09199999999999" y="1.67" class="g">only</text><text x="51.102" y="1.67" class="g">folders</text><text x="59.117999999999995" y="1.67" class="g">i&quot;</text></svg><svg x="5040"><use xlink:href="#a"></use><use xlink:href="#b" x="60.996" y="0"></use><text x="0" y="1.67" class="f">team@itsfoss-work</text><text x="17.034" y="1.67" class="g">:</text><text x="18.035999999999998" y="1.67" class="h">~</text><text x="19.037999999999997" y="1.67" class="g">$</text><text x="21.041999999999998" y="1.67" class="g">shell-genie</text><text x="33.065999999999995" y="1.67" class="g">ask</text><text x="37.074" y="1.67" class="g">&quot;display</text><text x="46.09199999999999" y="1.67" class="g">only</text><text x="51.102" y="1.67" class="g">folders</text><text x="59.117999999999995" y="1.67" class="g">in&quot;</text></svg><svg x="5160"><use xlink:href="#a"></use><use xlink:href="#b" x="61.996" y="0"></use><text x="0" y="1.67" class="f">team@itsfoss-work</text><text x="17.034" y="1.67" class="g">:</text><text x="18.035999999999998" y="1.67" class="h">~</text><text x="19.037999999999997" y="1.67" class="g">$</text><text x="21.041999999999998" y="1.67" class="g">shell-genie</text><text x="33.065999999999995" y="1.67" class="g">ask</text><text x="37.074" y="1.67" class="g">&quot;display</text><text x="46.09199999999999" y="1.67" class="g">only</text><text x="51.102" y="1.67" class="g">folders</text><text x="59.117999999999995" y="1.67" class="g">in</text><text x="62.123999999999995" y="1.67" class="g">&quot;</text></svg><svg x="5280"><use xlink:href="#a"></use><use xlink:href="#b" x="62.996" y="0"></use><text x="0" y="1.67" class="f">team@itsfoss-work</text><text x="17.034" y="1.67" class="g">:</text><text x="18.035999999999998" y="1.67" class="h">~</text><text x="19.037999999999997" y="1.67" class="g">$</text><text x="21.041999999999998" y="1.67" class="g">shell-genie</text><text x="33.065999999999995" y="1.67" class="g">ask</text><text x="37.074" y="1.67" class="g">&quot;display</text><text x="46.09199999999999" y="1.67" class="g">only</text><text x="51.102" y="1.67" class="g">folders</text><text x="59.117999999999995" y="1.67" class="g">in</text><text x="62.123999999999995" y="1.67" class="g">t&quot;</text></svg><svg x="5400"><use xlink:href="#a"></use><use xlink:href="#b" x="63.996" y="0"></use><text x="0" y="1.67" class="f">team@itsfoss-work</text><text x="17.034" y="1.67" class="g">:</text><text x="18.035999999999998" y="1.67" class="h">~</text><text x="19.037999999999997" y="1.67" class="g">$</text><text x="21.041999999999998" y="1.67" class="g">shell-genie</text><text x="33.065999999999995" y="1.67" class="g">ask</text><text x="37.074" y="1.67" class="g">&quot;display</text><text x="46.09199999999999" y="1.67" class="g">only</text><text x="51.102" y="1.67" class="g">folders</text><text x="59.117999999999995" y="1.67" class="g">in</text><text x="62.123999999999995" y="1.67" class="g">th&quot;</text></svg><svg x="5520"><use xlink:href="#a"></use><use xlink:href="#b" x="64.996" y="0"></use><text x="0" y="1.67" class="f">team@itsfoss-work</text><text x="17.034" y="1.67" class="g">:</text><text x="18.035999999999998" y="1.67" class="h">~</text><text x="19.037999999999997" y="1.67" class="g">$</text><text x="21.041999999999998" y="1.67" class="g">shell-genie</text><text x="33.065999999999995" y="1.67" class="g">ask</text><text x="37.074" y="1.67" class="g">&quot;display</text><text x="46.09199999999999" y="1.67" class="g">only</text><text x="51.102" y="1.67" class="g">folders</text><text x="59.117999999999995" y="1.67" class="g">in</text><text x="62.123999999999995" y="1.67" class="g">thi&quot;</text></svg><svg x="5640"><use xlink:href="#a"></use><use xlink:href="#b" x="65.996" y="0"></use><text x="0" y="1.67" class="f">team@itsfoss-work</text><text x="17.034" y="1.67" class="g">:</text><text x="18.035999999999998" y="1.67" class="h">~</text><text x="19.037999999999997" y="1.67" class="g">$</text><text x="21.041999999999998" y="1.67" class="g">shell-genie</text><text x="33.065999999999995" y="1.67" class="g">ask</text><text x="37.074" y="1.67" class="g">&quot;display</text><text x="46.09199999999999" y="1.67" class="g">only</text><text x="51.102" y="1.67" class="g">folders</text><text x="59.117999999999995" y="1.67" class="g">in</text><text x="62.123999999999995" y="1.67" class="g">this&quot;</text></svg><svg x="5760"><use xlink:href="#a"></use><use xlink:href="#b" x="66.996" y="0"></use><text x="0" y="1.67" class="f">team@itsfoss-work</text><text x="17.034" y="1.67" class="g">:</text><text x="18.035999999999998" y="1.67" class="h">~</text><text x="19.037999999999997" y="1.67" class="g">$</text><text x="21.041999999999998" y="1.67" class="g">shell-genie</text><text x="33.065999999999995" y="1.67" class="g">ask</text><text x="37.074" y="1.67" class="g">&quot;display</text><text x="46.09199999999999" y="1.67" class="g">only</text><text x="51.102" y="1.67" class="g">folders</text><text x="59.117999999999995" y="1.67" class="g">in</text><text x="62.123999999999995" y="1.67" class="g">this</text><text x="67.134" y="1.67" class="g">&quot;</text></svg><svg x="5880"><use xlink:href="#a"></use><use xlink:href="#b" x="67.996" y="0"></use><text x="0" y="1.67" class="f">team@itsfoss-work</text><text x="17.034" y="1.67" class="g">:</text><text x="18.035999999999998" y="1.67" class="h">~</text><text x="19.037999999999997" y="1.67" class="g">$</text><text x="21.041999999999998" y="1.67" class="g">shell-genie</text><text x="33.065999999999995" y="1.67" class="g">ask</text><text x="37.074" y="1.67" class="g">&quot;display</text><text x="46.09199999999999" y="1.67" class="g">only</text><text x="51.102" y="1.67" class="g">folders</text><text x="59.117999999999995" y="1.67" class="g">in</text><text x="62.123999999999995" y="1.67" class="g">this</text><text x="67.134" y="1.67" class="g">d&quot;</text></svg><svg x="6000"><use xlink:href="#a"></use><use xlink:href="#b" x="68.996" y="0"></use><text x="0" y="1.67" class="f">team@itsfoss-work</text><text x="17.034" y="1.67" class="g">:</text><text x="18.035999999999998" y="1.67" class="h">~</text><text x="19.037999999999997" y="1.67" class="g">$</text><text x="21.041999999999998" y="1.67" class="g">shell-genie</text><text x="33.065999999999995" y="1.67" class="g">ask</text><text x="37.074" y="1.67" class="g">&quot;display</text><text x="46.09199999999999" y="1.67" class="g">only</text><text x="51.102" y="1.67" class="g">folders</text><text x="59.117999999999995" y="1.67" class="g">in</text><text x="62.123999999999995" y="1.67" class="g">this</text><text x="67.134" y="1.67" class="g">di&quot;</text></svg><svg x="6120"><use xlink:href="#a"></use><use xlink:href="#b" x="69.996" y="0"></use><text x="0" y="1.67" class="f">team@itsfoss-work</text><text x="17.034" y="1.67" class="g">:</text><text x="18.035999999999998" y="1.67" class="h">~</text><text x="19.037999999999997" y="1.67" class="g">$</text><text x="21.041999999999998" y="1.67" class="g">shell-genie</text><text x="33.065999999999995" y="1.67" class="g">ask</text><text x="37.074" y="1.67" class="g">&quot;display</text><text x="46.09199999999999" y="1.67" class="g">only</text><text x="51.102" y="1.67" class="g">folders</text><text x="59.117999999999995" y="1.67" class="g">in</text><text x="62.123999999999995" y="1.67" class="g">this</text><text x="67.134" y="1.67" class="g">dir&quot;</text></svg><svg x="6240"><use xlink:href="#a"></use><use xlink:href="#b" x="70.996" y="0"></use><text x="0" y="1.67" class="f">team@itsfoss-work</text><text x="17.034" y="1.67" class="g">:</text><text x="18.035999999999998" y="1.67" class="h">~</text><text x="19.037999999999997" y="1.67" class="g">$</text><text x="21.041999999999998" y="1.67" class="g">shell-genie</text><text x="33.065999999999995" y="1.67" class="g">ask</text><text x="37.074" y="1.67" class="g">&quot;display</text><text x="46.09199999999999" y="1.67" class="g">only</text><text x="51.102" y="1.67" class="g">folders</text><text x="59.117999999999995" y="1.67" class="g">in</text><text x="62.123999999999995" y="1.67" class="g">this</text><text x="67.134" y="1.67" class="g">dire&quot;</text></svg><svg x="6360"><use xlink:href="#a"></use><use xlink:href="#b" x="71.996" y="0"></use><text x="0" y="1.67" class="f">team@itsfoss-work</text><text x="17.034" y="1.67" class="g">:</text><text x="18.035999999999998" y="1.67" class="h">~</text><text x="19.037999999999997" y="1.67" class="g">$</text><text x="21.041999999999998" y="1.67" class="g">shell-genie</text><text x="33.065999999999995" y="1.67" class="g">ask</text><text x="37.074" y="1.67" class="g">&quot;display</text><text x="46.09199999999999" y="1.67" class="g">only</text><text x="51.102" y="1.67" class="g">folders</text><text x="59.117999999999995" y="1.67" class="g">in</text><text x="62.123999999999995" y="1.67" class="g">this</text><text x="67.134" y="1.67" class="g">direc&quot;</text></svg><svg x="6480"><use xlink:href="#a"></use><use xlink:href="#b" x="72.996" y="0"></use><text x="0" y="1.67" class="f">team@itsfoss-work</text><text x="17.034" y="1.67" class="g">:</text><text x="18.035999999999998" y="1.67" class="h">~</text><text x="19.037999999999997" y="1.67" class="g">$</text><text x="21.041999999999998" y="1.67" class="g">shell-genie</text><text x="33.065999999999995" y="1.67" class="g">ask</text><text x="37.074" y="1.67" class="g">&quot;display</text><text x="46.09199999999999" y="1.67" class="g">only</text><text x="51.102" y="1.67" class="g">folders</text><text x="59.117999999999995" y="1.67" class="g">in</text><text x="62.123999999999995" y="1.67" class="g">this</text><text x="67.134" y="1.67" class="g">direct&quot;</text></svg><svg x="6600"><use xlink:href="#a"></use><use xlink:href="#b" x="73.996" y="0"></use><text x="0" y="1.67" class="f">team@itsfoss-work</text><text x="17.034" y="1.67" class="g">:</text><text x="18.035999999999998" y="1.67" class="h">~</text><text x="19.037999999999997" y="1.67" class="g">$</text><text x="21.041999999999998" y="1.67" class="g">shell-genie</text><text x="33.065999999999995" y="1.67" class="g">ask</text><text x="37.074" y="1.67" class="g">&quot;display</text><text x="46.09199999999999" y="1.67" class="g">only</text><text x="51.102" y="1.67" class="g">folders</text><text x="59.117999999999995" y="1.67" class="g">in</text><text x="62.123999999999995" y="1.67" class="g">this</text><text x="67.134" y="1.67" class="g">directo&quot;</text></svg><svg x="6720"><use xlink:href="#a"></use><use xlink:href="#b" x="74.996" y="0"></use><text x="0" y="1.67" class="f">team@itsfoss-work</text><text x="17.034" y="1.67" class="g">:</text><text x="18.035999999999998" y="1.67" class="h">~</text><text x="19.037999999999997" y="1.67" class="g">$</text><text x="21.041999999999998" y="1.67" class="g">shell-genie</text><text x="33.065999999999995" y="1.67" class="g">ask</text><text x="37.074" y="1.67" class="g">&quot;display</text><text x="46.09199999999999" y="1.67" class="g">only</text><text x="51.102" y="1.67" class="g">folders</text><text x="59.117999999999995" y="1.67" class="g">in</text><text x="62.123999999999995" y="1.67" class="g">this</text><text x="67.134" y="1.67" class="g">director&quot;</text></svg><svg x="6840"><use xlink:href="#a"></use><use xlink:href="#b" x="75.996" y="0"></use><use xlink:href="#5" y="0"></use></svg><svg x="6960"><use xlink:href="#a"></use><use xlink:href="#b" x="76.996" y="0"></use><use xlink:href="#5" y="0"></use></svg><svg x="7080"><use xlink:href="#a"></use><use xlink:href="#b" x="-0.0040000000000000036" y="2.146"></use><use xlink:href="#5" y="0"></use></svg><svg x="7200"><use xlink:href="#a"></use><use xlink:href="#b" x="-0.0040000000000000036" y="4.317"></use><use xlink:href="#5" y="0"></use><use xlink:href="#6" y="2.171"></use></svg><svg x="7320"><use xlink:href="#a"></use><use xlink:href="#b" x="38.996" y="4.317"></use><use xlink:href="#5" y="0"></use><use xlink:href="#6" y="2.171"></use><text x="0" y="6.012" class="g">Do</text><text x="3.006" y="6.012" class="g">you</text><text x="7.013999999999999" y="6.012" class="g">want</text><text x="12.024" y="6.012" class="g">to</text><text x="15.029999999999998" y="6.012" class="g">run</text><text x="19.037999999999997" y="6.012" class="g">the</text><text x="23.045999999999996" y="6.012" class="g">command?</text><text x="32.064" y="6.012" class="k">[y/n]</text><text x="37.074" y="6.012" class="g">:</text></svg><svg x="7440"><use xlink:href="#a"></use><use xlink:href="#b" x="39.996" y="4.317"></use><use xlink:href="#5" y="0"></use><use xlink:href="#6" y="2.171"></use><use xlink:href="#7" y="4.342"></use></svg><svg x="7560"><use xlink:href="#a"></use><use xlink:href="#b" x="-0.0040000000000000036" y="6.4879999999999995"></use><use xlink:href="#5" y="0"></use><use xlink:href="#6" y="2.171"></use><use xlink:href="#7" y="4.342"></use></svg><svg x="7680"><use xlink:href="#a"></use><use xlink:href="#b" x="-0.0040000000000000036" y="10.83"></use><use xlink:href="#5" y="0"></use><use xlink:href="#6" y="2.171"></use><use xlink:href="#7" y="4.342"></use><use xlink:href="#8" y="6.513"></use><use xlink:href="#9" y="8.684"></use></svg><svg x="7800"><use xlink:href="#a"></use><use xlink:href="#b" x="28.996" y="10.83"></use><use xlink:href="#5" y="0"></use><use xlink:href="#6" y="2.171"></use><use xlink:href="#7" y="4.342"></use><use xlink:href="#8" y="6.513"></use><use xlink:href="#9" y="8.684"></use><text x="0" y="12.525" class="g">Did</text><text x="4.008" y="12.525" class="g">the</text><text x="8.016" y="12.525" class="g">command</text><text x="16.032" y="12.525" class="g">work?</text><text x="22.043999999999997" y="12.525" class="k">[y/n]</text><text x="27.054" y="12.525" class="g">:</text></svg><svg x="7920"><use xlink:href="#a"></use><use xlink:href="#b" x="29.996" y="10.83"></use><use xlink:href="#5" y="0"></use><use xlink:href="#6" y="2.171"></use><use xlink:href="#7" y="4.342"></use><use xlink:href="#8" y="6.513"></use><use xlink:href="#9" y="8.684"></use><use xlink:href="#10" y="10.855"></use></svg><svg x="8040"><use xlink:href="#a"></use><use xlink:href="#b" x="-0.0040000000000000036" y="13.001"></use><use xlink:href="#5" y="0"></use><use xlink:href="#6" y="2.171"></use><use xlink:href="#7" y="4.342"></use><use xlink:href="#8" y="6.513"></use><use xlink:href="#9" y="8.684"></use><use xlink:href="#10" y="10.855"></use></svg><svg x="8160"><use xlink:href="#a"></use><use xlink:href="#b" x="20.996" y="13.001"></use><use xlink:href="#5" y="0"></use><use xlink:href="#6" y="2.171"></use><use xlink:href="#7" y="4.342"></use><use xlink:href="#8" y="6.513"></use><use xlink:href="#9" y="8.684"></use><use xlink:href="#10" y="10.855"></use><use xlink:href="#1" y="13.026"></use></svg><svg x="8280"><use xlink:href="#a"></use><use xlink:href="#b" x="-0.0040000000000000036" y="17.343"></use><use xlink:href="#5" y="0"></use><use xlink:href="#6" y="2.171"></use><use xlink:href="#7" y="4.342"></use><use xlink:href="#8" y="6.513"></use><use xlink:href="#9" y="8.684"></use><use xlink:href="#10" y="10.855"></use><use xlink:href="#1" y="13.026"></use><text x="0" y="16.866999999999997" class="g">exit</text></svg></svg></g></g></svg></svg>