<svg xmlns="http://www.w3.org/2000/svg" xmlns:xlink="http://www.w3.org/1999/xlink" width="840" height="537.6199999999999"><rect width="840" height="537.6199999999999" rx="5" ry="5" class="a"></rect><svg y="0%" x="0%"><circle cx="20" cy="20" r="6" class="b"></circle><circle cx="40" cy="20" r="6" class="c"></circle><circle cx="60" cy="20" r="6" class="d"></circle></svg><svg height="477.61999999999995" viewBox="0 0 80 47.76199999999999" width="800" x="15" xmlns="http://www.w3.org/2000/svg" xmlns:xlink="http://www.w3.org/1999/xlink" y="50"><style>.a{fill:rgb(40,45,53)}.b{fill:#ff5f58}.c{fill:#ffbd2e}.d{fill:#18c132}.e{font-family:Monaco,Consolas,Menlo,'Bitstream Vera Sans Mono','Powerline Symbols',monospace}.f{fill:rgb(168,204,140);font-weight:bold;white-space:pre}.g{fill:rgb(185,192,203);white-space:pre}.h{fill:rgb(113,190,242);font-weight:bold;white-space:pre}.i{fill:transparent}.j{fill:rgb(111,118,131)}.l{animation-duration:19.006775s;animation-iteration-count:infinite;animation-name:k;animation-timing-function:steps(1,end)}.m{fill:rgb(185,192,203)}.n{fill:rgb(40,45,53);white-space:pre}@keyframes k{0%{transform:translateX(-0px)}0.12%{transform:translateX(-80px)}10.41%{transform:translateX(-160px)}15.77%{transform:translateX(-240px)}21.9%{transform:translateX(-320px)}21.92%{transform:translateX(-400px)}38.2%{transform:translateX(-480px)}40.52%{transform:translateX(-560px)}46.58%{transform:translateX(-640px)}47.47%{transform:translateX(-720px)}48.43%{transform:translateX(-800px)}49.55%{transform:translateX(-880px)}50.8%{transform:translateX(-960px)}51.5%{transform:translateX(-1040px)}53.13%{transform:translateX(-1120px)}55.28%{transform:translateX(-1200px)}61.7%{transform:translateX(-1280px)}64.01%{transform:translateX(-1360px)}65.07%{transform:translateX(-1440px)}66.03%{transform:translateX(-1520px)}66.84%{transform:translateX(-1600px)}71.98%{transform:translateX(-1680px)}71.99%{transform:translateX(-1760px)}77.08%{transform:translateX(-1840px)}77.67%{transform:translateX(-1920px)}78.42%{transform:translateX(-2000px)}80.05%{transform:translateX(-2080px)}81.29%{transform:translateX(-2160px)}84.29%{transform:translateX(-2240px)}84.3%{transform:translateX(-2320px)}84.3%{transform:translateX(-2400px)}100%{transform:translateX(-2480px)}100%{transform:translateX(-2560px)}}</style><g font-family="Monaco, Consolas, Menlo, &#x27;Bitstream Vera Sans Mono&#x27;, &#x27;Powerline Symbols&#x27;, monospace" font-size="1.67" class="e"><defs><symbol id="1"><text x="0" y="1.67" class="f">abhishek@itsfoss</text><text x="16.032" y="1.67" class="g">:</text><text x="17.034" y="1.67" class="h">~</text><text x="18.035999999999998" y="1.67" class="g">$</text><text x="20.04" y="1.67" class="g">mkdir</text><text x="26.052" y="1.67" class="g">practice_files</text><text x="41.082" y="1.67" class="g">&amp;&amp;</text><text x="44.087999999999994" y="1.67" class="g">cd</text><text x="47.093999999999994" y="1.67" class="g">practice_files</text></symbol><symbol id="2"><text x="0" y="1.67" class="f">abhishek@itsfoss</text><text x="16.032" y="1.67" class="g">:</text><text x="17.034" y="1.67" class="h">~/practice_files</text><text x="33.065999999999995" y="1.67" class="g">$</text></symbol><symbol id="3"><text x="0" y="1.67" class="f">abhishek@itsfoss</text><text x="16.032" y="1.67" class="g">:</text><text x="17.034" y="1.67" class="h">~/practice_files</text><text x="33.065999999999995" y="1.67" class="g">$</text><text x="35.06999999999999" y="1.67" class="g">touch</text></symbol><symbol id="4"><text x="0" y="1.67" class="f">abhishek@itsfoss</text><text x="16.032" y="1.67" class="g">:</text><text x="17.034" y="1.67" class="h">~/practice_files</text><text x="33.065999999999995" y="1.67" class="g">$</text><text x="35.06999999999999" y="1.67" class="g">touch</text><text x="41.082" y="1.67" class="g">new</text></symbol><symbol id="5"><text x="0" y="1.67" class="f">abhishek@itsfoss</text><text x="16.032" y="1.67" class="g">:</text><text x="17.034" y="1.67" class="h">~/practice_files</text><text x="33.065999999999995" y="1.67" class="g">$</text><text x="35.06999999999999" y="1.67" class="g">touch</text><text x="41.082" y="1.67" class="g">new_file</text></symbol><symbol id="6"><text x="0" y="1.67" class="f">abhishek@itsfoss</text><text x="16.032" y="1.67" class="g">:</text><text x="17.034" y="1.67" class="h">~/practice_files</text><text x="33.065999999999995" y="1.67" class="g">$</text><text x="35.06999999999999" y="1.67" class="g">ls</text></symbol><symbol id="7"><text x="0" y="1.67" class="f">abhishek@itsfoss</text><text x="16.032" y="1.67" class="g">:</text><text x="17.034" y="1.67" class="h">~/practice_files</text><text x="33.065999999999995" y="1.67" class="g">$</text><text x="35.06999999999999" y="1.67" class="g">ls</text><text x="38.07599999999999" y="1.67" class="g">-l</text></symbol><symbol id="8"><text x="0" y="1.67" class="g">total</text><text x="6.012" y="1.67" class="g">0</text></symbol><symbol id="9"><text x="0" y="1.67" class="g">-rw-rw-r--</text><text x="11.021999999999998" y="1.67" class="g">1</text><text x="13.026" y="1.67" class="g">abhishek</text><text x="22.043999999999997" y="1.67" class="g">abhishek</text><text x="31.061999999999998" y="1.67" class="g">0</text><text x="33.065999999999995" y="1.67" class="g">Mar</text><text x="38.07599999999999" y="1.67" class="g">7</text><text x="40.08" y="1.67" class="g">13:54</text><text x="46.09199999999999" y="1.67" class="g">new_file</text></symbol><symbol id="a"><rect height="23" width="80" x="0" y="0" class="i"></rect></symbol><symbol id="b"><rect height="2.171" width="1.1022" class="j"></rect></symbol></defs><rect height="47.76199999999999" width="80" class="a"></rect><g class="l"><svg x="0" y="0" width="2640"><svg x="0"><use xlink:href="#a"></use><use xlink:href="#b" x="-0.0040000000000000036" y="0"></use></svg><svg x="80"><use xlink:href="#a"></use><use xlink:href="#b" x="19.996" y="0"></use><text x="0" y="1.67" class="f">abhishek@itsfoss</text><text x="16.032" y="1.67" class="g">:</text><text x="17.034" y="1.67" class="h">~</text><text x="18.035999999999998" y="1.67" class="g">$</text></svg><svg x="160"><use xlink:href="#a"></use><use xlink:href="#b" x="60.996" y="0"></use><text x="0" y="1.67" class="f">abhishek@itsfoss</text><text x="16.032" y="1.67" class="g">:</text><text x="17.034" y="1.67" class="h">~</text><text x="18.035999999999998" y="1.67" class="g">$</text><rect height="2.171" width="41" x="20.04" y="0" class="m"></rect><text x="20.04" y="1.67" class="n">mkdir practice_files &amp;&amp; cd practice_files</text></svg><svg x="240"><use xlink:href="#a"></use><use xlink:href="#b" x="60.996" y="0"></use><use xlink:href="#1" y="0"></use></svg><svg x="320"><use xlink:href="#a"></use><use xlink:href="#b" x="-0.0040000000000000036" y="2.146"></use><use xlink:href="#1" y="0"></use></svg><svg x="400"><use xlink:href="#a"></use><use xlink:href="#b" x="34.996" y="2.146"></use><use xlink:href="#1" y="0"></use><use xlink:href="#2" y="2.171"></use></svg><svg x="480"><use xlink:href="#a"></use><use xlink:href="#b" x="35.996" y="2.146"></use><use xlink:href="#1" y="0"></use><text x="0" y="3.8409999999999997" class="f">abhishek@itsfoss</text><text x="16.032" y="3.8409999999999997" class="g">:</text><text x="17.034" y="3.8409999999999997" class="h">~/practice_files</text><text x="33.065999999999995" y="3.8409999999999997" class="g">$</text><text x="35.06999999999999" y="3.8409999999999997" class="g">t</text></svg><svg x="560"><use xlink:href="#a"></use><use xlink:href="#b" x="36.996" y="2.146"></use><use xlink:href="#1" y="0"></use><text x="0" y="3.8409999999999997" class="f">abhishek@itsfoss</text><text x="16.032" y="3.8409999999999997" class="g">:</text><text x="17.034" y="3.8409999999999997" class="h">~/practice_files</text><text x="33.065999999999995" y="3.8409999999999997" class="g">$</text><text x="35.06999999999999" y="3.8409999999999997" class="g">to</text></svg><svg x="640"><use xlink:href="#a"></use><use xlink:href="#b" x="37.996" y="2.146"></use><use xlink:href="#1" y="0"></use><text x="0" y="3.8409999999999997" class="f">abhishek@itsfoss</text><text x="16.032" y="3.8409999999999997" class="g">:</text><text x="17.034" y="3.8409999999999997" class="h">~/practice_files</text><text x="33.065999999999995" y="3.8409999999999997" class="g">$</text><text x="35.06999999999999" y="3.8409999999999997" class="g">tou</text></svg><svg x="720"><use xlink:href="#a"></use><use xlink:href="#b" x="38.996" y="2.146"></use><use xlink:href="#1" y="0"></use><text x="0" y="3.8409999999999997" class="f">abhishek@itsfoss</text><text x="16.032" y="3.8409999999999997" class="g">:</text><text x="17.034" y="3.8409999999999997" class="h">~/practice_files</text><text x="33.065999999999995" y="3.8409999999999997" class="g">$</text><text x="35.06999999999999" y="3.8409999999999997" class="g">touc</text></svg><svg x="800"><use xlink:href="#a"></use><use xlink:href="#b" x="39.996" y="2.146"></use><use xlink:href="#1" y="0"></use><use xlink:href="#3" y="2.171"></use></svg><svg x="880"><use xlink:href="#a"></use><use xlink:href="#b" x="40.996" y="2.146"></use><use xlink:href="#1" y="0"></use><use xlink:href="#3" y="2.171"></use></svg><svg x="960"><use xlink:href="#a"></use><use xlink:href="#b" x="41.996" y="2.146"></use><use xlink:href="#1" y="0"></use><text x="0" y="3.8409999999999997" class="f">abhishek@itsfoss</text><text x="16.032" y="3.8409999999999997" class="g">:</text><text x="17.034" y="3.8409999999999997" class="h">~/practice_files</text><text x="33.065999999999995" y="3.8409999999999997" class="g">$</text><text x="35.06999999999999" y="3.8409999999999997" class="g">touch</text><text x="41.082" y="3.8409999999999997" class="g">n</text></svg><svg x="1040"><use xlink:href="#a"></use><use xlink:href="#b" x="42.996" y="2.146"></use><use xlink:href="#1" y="0"></use><text x="0" y="3.8409999999999997" class="f">abhishek@itsfoss</text><text x="16.032" y="3.8409999999999997" class="g">:</text><text x="17.034" y="3.8409999999999997" class="h">~/practice_files</text><text x="33.065999999999995" y="3.8409999999999997" class="g">$</text><text x="35.06999999999999" y="3.8409999999999997" class="g">touch</text><text x="41.082" y="3.8409999999999997" class="g">ne</text></svg><svg x="1120"><use xlink:href="#a"></use><use xlink:href="#b" x="43.996" y="2.146"></use><use xlink:href="#1" y="0"></use><use xlink:href="#4" y="2.171"></use></svg><svg x="1200"><use xlink:href="#a"></use><use xlink:href="#b" x="43.996" y="2.146"></use><use xlink:href="#1" y="0"></use><use xlink:href="#4" y="2.171"></use></svg><svg x="1280"><use xlink:href="#a"></use><use xlink:href="#b" x="44.996" y="2.146"></use><use xlink:href="#1" y="0"></use><text x="0" y="3.8409999999999997" class="f">abhishek@itsfoss</text><text x="16.032" y="3.8409999999999997" class="g">:</text><text x="17.034" y="3.8409999999999997" class="h">~/practice_files</text><text x="33.065999999999995" y="3.8409999999999997" class="g">$</text><text x="35.06999999999999" y="3.8409999999999997" class="g">touch</text><text x="41.082" y="3.8409999999999997" class="g">new_</text></svg><svg x="1360"><use xlink:href="#a"></use><use xlink:href="#b" x="45.996" y="2.146"></use><use xlink:href="#1" y="0"></use><text x="0" y="3.8409999999999997" class="f">abhishek@itsfoss</text><text x="16.032" y="3.8409999999999997" class="g">:</text><text x="17.034" y="3.8409999999999997" class="h">~/practice_files</text><text x="33.065999999999995" y="3.8409999999999997" class="g">$</text><text x="35.06999999999999" y="3.8409999999999997" class="g">touch</text><text x="41.082" y="3.8409999999999997" class="g">new_f</text></svg><svg x="1440"><use xlink:href="#a"></use><use xlink:href="#b" x="46.996" y="2.146"></use><use xlink:href="#1" y="0"></use><text x="0" y="3.8409999999999997" class="f">abhishek@itsfoss</text><text x="16.032" y="3.8409999999999997" class="g">:</text><text x="17.034" y="3.8409999999999997" class="h">~/practice_files</text><text x="33.065999999999995" y="3.8409999999999997" class="g">$</text><text x="35.06999999999999" y="3.8409999999999997" class="g">touch</text><text x="41.082" y="3.8409999999999997" class="g">new_fi</text></svg><svg x="1520"><use xlink:href="#a"></use><use xlink:href="#b" x="47.996" y="2.146"></use><use xlink:href="#1" y="0"></use><text x="0" y="3.8409999999999997" class="f">abhishek@itsfoss</text><text x="16.032" y="3.8409999999999997" class="g">:</text><text x="17.034" y="3.8409999999999997" class="h">~/practice_files</text><text x="33.065999999999995" y="3.8409999999999997" class="g">$</text><text x="35.06999999999999" y="3.8409999999999997" class="g">touch</text><text x="41.082" y="3.8409999999999997" class="g">new_fil</text></svg><svg x="1600"><use xlink:href="#a"></use><use xlink:href="#b" x="48.996" y="2.146"></use><use xlink:href="#1" y="0"></use><use xlink:href="#5" y="2.171"></use></svg><svg x="1680"><use xlink:href="#a"></use><use xlink:href="#b" x="-0.0040000000000000036" y="4.317"></use><use xlink:href="#1" y="0"></use><use xlink:href="#5" y="2.171"></use></svg><svg x="1760"><use xlink:href="#a"></use><use xlink:href="#b" x="34.996" y="4.317"></use><use xlink:href="#1" y="0"></use><use xlink:href="#5" y="2.171"></use><use xlink:href="#2" y="4.342"></use></svg><svg x="1840"><use xlink:href="#a"></use><use xlink:href="#b" x="35.996" y="4.317"></use><use xlink:href="#1" y="0"></use><use xlink:href="#5" y="2.171"></use><text x="0" y="6.012" class="f">abhishek@itsfoss</text><text x="16.032" y="6.012" class="g">:</text><text x="17.034" y="6.012" class="h">~/practice_files</text><text x="33.065999999999995" y="6.012" class="g">$</text><text x="35.06999999999999" y="6.012" class="g">l</text></svg><svg x="1920"><use xlink:href="#a"></use><use xlink:href="#b" x="36.996" y="4.317"></use><use xlink:href="#1" y="0"></use><use xlink:href="#5" y="2.171"></use><use xlink:href="#6" y="4.342"></use></svg><svg x="2000"><use xlink:href="#a"></use><use xlink:href="#b" x="37.996" y="4.317"></use><use xlink:href="#1" y="0"></use><use xlink:href="#5" y="2.171"></use><use xlink:href="#6" y="4.342"></use></svg><svg x="2080"><use xlink:href="#a"></use><use xlink:href="#b" x="38.996" y="4.317"></use><use xlink:href="#1" y="0"></use><use xlink:href="#5" y="2.171"></use><text x="0" y="6.012" class="f">abhishek@itsfoss</text><text x="16.032" y="6.012" class="g">:</text><text x="17.034" y="6.012" class="h">~/practice_files</text><text x="33.065999999999995" y="6.012" class="g">$</text><text x="35.06999999999999" y="6.012" class="g">ls</text><text x="38.07599999999999" y="6.012" class="g">-</text></svg><svg x="2160"><use xlink:href="#a"></use><use xlink:href="#b" x="39.996" y="4.317"></use><use xlink:href="#1" y="0"></use><use xlink:href="#5" y="2.171"></use><use xlink:href="#7" y="4.342"></use></svg><svg x="2240"><use xlink:href="#a"></use><use xlink:href="#b" x="-0.0040000000000000036" y="6.4879999999999995"></use><use xlink:href="#1" y="0"></use><use xlink:href="#5" y="2.171"></use><use xlink:href="#7" y="4.342"></use></svg><svg x="2320"><use xlink:href="#a"></use><use xlink:href="#b" x="-0.0040000000000000036" y="10.83"></use><use xlink:href="#1" y="0"></use><use xlink:href="#5" y="2.171"></use><use xlink:href="#7" y="4.342"></use><use xlink:href="#8" y="6.513"></use><use xlink:href="#9" y="8.684"></use></svg><svg x="2400"><use xlink:href="#a"></use><use xlink:href="#b" x="34.996" y="10.83"></use><use xlink:href="#1" y="0"></use><use xlink:href="#5" y="2.171"></use><use xlink:href="#7" y="4.342"></use><use xlink:href="#8" y="6.513"></use><use xlink:href="#9" y="8.684"></use><use xlink:href="#2" y="10.855"></use></svg><svg x="2480"><use xlink:href="#a"></use><use xlink:href="#b" x="-0.0040000000000000036" y="13.001"></use><use xlink:href="#1" y="0"></use><use xlink:href="#5" y="2.171"></use><use xlink:href="#7" y="4.342"></use><use xlink:href="#8" y="6.513"></use><use xlink:href="#9" y="8.684"></use><use xlink:href="#2" y="10.855"></use></svg><svg x="2560"><use xlink:href="#a"></use><use xlink:href="#b" x="-0.0040000000000000036" y="15.171999999999999"></use><use xlink:href="#1" y="0"></use><use xlink:href="#5" y="2.171"></use><use xlink:href="#7" y="4.342"></use><use xlink:href="#8" y="6.513"></use><use xlink:href="#9" y="8.684"></use><use xlink:href="#2" y="10.855"></use><text x="0" y="14.696" class="g">exit</text></svg></svg></g></g></svg></svg>