<svg xmlns="http://www.w3.org/2000/svg" xmlns:xlink="http://www.w3.org/1999/xlink" width="840" height="537.6199999999999"><rect width="840" height="537.6199999999999" rx="5" ry="5" class="a"></rect><svg y="0%" x="0%"><circle cx="20" cy="20" r="6" class="b"></circle><circle cx="40" cy="20" r="6" class="c"></circle><circle cx="60" cy="20" r="6" class="d"></circle></svg><svg height="477.61999999999995" viewBox="0 0 80 47.76199999999999" width="800" x="15" xmlns="http://www.w3.org/2000/svg" xmlns:xlink="http://www.w3.org/1999/xlink" y="50"><style>.a{fill:rgb(40,45,53)}.b{fill:#ff5f58}.c{fill:#ffbd2e}.d{fill:#18c132}.e{font-family:Monaco,Consolas,Menlo,'Bitstream Vera Sans Mono','Powerline Symbols',monospace}.f{fill:rgb(168,204,140);font-weight:bold;white-space:pre}.g{fill:rgb(185,192,203);white-space:pre}.h{fill:rgb(113,190,242);font-weight:bold;white-space:pre}.i{fill:transparent}.j{fill:rgb(111,118,131)}.l{animation-duration:24.523417s;animation-iteration-count:infinite;animation-name:k;animation-timing-function:steps(1,end)}@keyframes k{0%{transform:translateX(-0px)}0.09%{transform:translateX(-80px)}9.3%{transform:translateX(-160px)}10.19%{transform:translateX(-240px)}10.56%{transform:translateX(-320px)}11.46%{transform:translateX(-400px)}12.22%{transform:translateX(-480px)}12.97%{transform:translateX(-560px)}13.6%{transform:translateX(-640px)}14.12%{transform:translateX(-720px)}15.11%{transform:translateX(-800px)}16.1%{transform:translateX(-880px)}16.95%{transform:translateX(-960px)}18.87%{transform:translateX(-1040px)}19.51%{transform:translateX(-1120px)}20.1%{transform:translateX(-1200px)}20.75%{transform:translateX(-1280px)}21.54%{transform:translateX(-1360px)}22.4%{transform:translateX(-1440px)}23.2%{transform:translateX(-1520px)}23.85%{transform:translateX(-1600px)}24.37%{transform:translateX(-1680px)}24.96%{transform:translateX(-1760px)}25.68%{transform:translateX(-1840px)}27.11%{transform:translateX(-1920px)}27.11%{transform:translateX(-2000px)}27.11%{transform:translateX(-2080px)}35.98%{transform:translateX(-2160px)}36.91%{transform:translateX(-2240px)}37.5%{transform:translateX(-2320px)}38.44%{transform:translateX(-2400px)}39.31%{transform:translateX(-2480px)}42.3%{transform:translateX(-2560px)}43.17%{transform:translateX(-2640px)}45.99%{transform:translateX(-2720px)}47.79%{transform:translateX(-2800px)}48.54%{transform:translateX(-2880px)}49.04%{transform:translateX(-2960px)}49.63%{transform:translateX(-3040px)}50.43%{transform:translateX(-3120px)}51.33%{transform:translateX(-3200px)}52.45%{transform:translateX(-3280px)}53.1%{transform:translateX(-3360px)}53.87%{transform:translateX(-3440px)}54.63%{transform:translateX(-3520px)}55.2%{transform:translateX(-3600px)}57.75%{transform:translateX(-3680px)}59.76%{transform:translateX(-3760px)}63.18%{transform:translateX(-3840px)}63.99%{transform:translateX(-3920px)}65.5%{transform:translateX(-4000px)}67.47%{transform:translateX(-4080px)}68.53%{transform:translateX(-4160px)}69.13%{transform:translateX(-4240px)}69.56%{transform:translateX(-4320px)}70.16%{transform:translateX(-4400px)}72.74%{transform:translateX(-4480px)}73.91%{transform:translateX(-4560px)}74.57%{transform:translateX(-4640px)}75.31%{transform:translateX(-4720px)}77.55%{transform:translateX(-4800px)}78.88%{transform:translateX(-4880px)}79.74%{transform:translateX(-4960px)}80.47%{transform:translateX(-5040px)}81.02%{transform:translateX(-5120px)}85.76%{transform:translateX(-5200px)}85.76%{transform:translateX(-5280px)}85.77%{transform:translateX(-5360px)}88.49%{transform:translateX(-5440px)}89.08%{transform:translateX(-5520px)}89.41%{transform:translateX(-5600px)}90.63%{transform:translateX(-5680px)}91.7%{transform:translateX(-5760px)}93.08%{transform:translateX(-5840px)}93.09%{transform:translateX(-5920px)}93.09%{transform:translateX(-6000px)}100%{transform:translateX(-6080px)}100%{transform:translateX(-6160px)}}</style><g font-family="Monaco, Consolas, Menlo, &#x27;Bitstream Vera Sans Mono&#x27;, &#x27;Powerline Symbols&#x27;, monospace" font-size="1.67" class="e"><defs><symbol id="1"><text x="0" y="1.67" class="f">abhishek@itsfoss</text><text x="16.032" y="1.67" class="g">:</text><text x="17.034" y="1.67" class="h">~/practice_files</text><text x="33.065999999999995" y="1.67" class="g">$</text></symbol><symbol id="2"><text x="0" y="1.67" class="f">abhishek@itsfoss</text><text x="16.032" y="1.67" class="g">:</text><text x="17.034" y="1.67" class="h">~/practice_files</text><text x="33.065999999999995" y="1.67" class="g">$</text><text x="35.06999999999999" y="1.67" class="g">e</text></symbol><symbol id="3"><text x="0" y="1.67" class="f">abhishek@itsfoss</text><text x="16.032" y="1.67" class="g">:</text><text x="17.034" y="1.67" class="h">~/practice_files</text><text x="33.065999999999995" y="1.67" class="g">$</text><text x="35.06999999999999" y="1.67" class="g">ec</text></symbol><symbol id="4"><text x="0" y="1.67" class="f">abhishek@itsfoss</text><text x="16.032" y="1.67" class="g">:</text><text x="17.034" y="1.67" class="h">~/practice_files</text><text x="33.065999999999995" y="1.67" class="g">$</text><text x="35.06999999999999" y="1.67" class="g">ech</text></symbol><symbol id="5"><text x="0" y="1.67" class="f">abhishek@itsfoss</text><text x="16.032" y="1.67" class="g">:</text><text x="17.034" y="1.67" class="h">~/practice_files</text><text x="33.065999999999995" y="1.67" class="g">$</text><text x="35.06999999999999" y="1.67" class="g">echo</text></symbol><symbol id="6"><text x="0" y="1.67" class="f">abhishek@itsfoss</text><text x="16.032" y="1.67" class="g">:</text><text x="17.034" y="1.67" class="h">~/practice_files</text><text x="33.065999999999995" y="1.67" class="g">$</text><text x="35.06999999999999" y="1.67" class="g">echo</text><text x="40.08" y="1.67" class="g">hello</text></symbol><symbol id="7"><text x="0" y="1.67" class="f">abhishek@itsfoss</text><text x="16.032" y="1.67" class="g">:</text><text x="17.034" y="1.67" class="h">~/practice_files</text><text x="33.065999999999995" y="1.67" class="g">$</text><text x="35.06999999999999" y="1.67" class="g">echo</text><text x="40.08" y="1.67" class="g">hello</text><text x="46.09199999999999" y="1.67" class="g">hello</text></symbol><symbol id="8"><text x="0" y="1.67" class="f">abhishek@itsfoss</text><text x="16.032" y="1.67" class="g">:</text><text x="17.034" y="1.67" class="h">~/practice_files</text><text x="33.065999999999995" y="1.67" class="g">$</text><text x="35.06999999999999" y="1.67" class="g">echo</text><text x="40.08" y="1.67" class="g">hello</text><text x="46.09199999999999" y="1.67" class="g">hello</text><text x="52.104" y="1.67" class="g">hello</text></symbol><symbol id="9"><text x="0" y="1.67" class="g">hello</text><text x="6.012" y="1.67" class="g">hello</text><text x="12.024" y="1.67" class="g">hello</text></symbol><symbol id="10"><text x="0" y="1.67" class="f">abhishek@itsfoss</text><text x="16.032" y="1.67" class="g">:</text><text x="17.034" y="1.67" class="h">~/practice_files</text><text x="33.065999999999995" y="1.67" class="g">$</text><text x="35.06999999999999" y="1.67" class="g">echo</text><text x="40.08" y="1.67" class="g">&quot;&quot;</text></symbol><symbol id="11"><text x="0" y="1.67" class="f">abhishek@itsfoss</text><text x="16.032" y="1.67" class="g">:</text><text x="17.034" y="1.67" class="h">~/practice_files</text><text x="33.065999999999995" y="1.67" class="g">$</text><text x="35.06999999999999" y="1.67" class="g">echo</text><text x="40.08" y="1.67" class="g">&quot;Hello</text><text x="47.093999999999994" y="1.67" class="g">World&quot;</text></symbol><symbol id="12"><text x="0" y="1.67" class="f">abhishek@itsfoss</text><text x="16.032" y="1.67" class="g">:</text><text x="17.034" y="1.67" class="h">~/practice_files</text><text x="33.065999999999995" y="1.67" class="g">$</text><text x="35.06999999999999" y="1.67" class="g">echo</text><text x="40.08" y="1.67" class="g">&quot;Hello</text><text x="47.093999999999994" y="1.67" class="g">World&quot;</text><text x="54.108" y="1.67" class="g">&gt;&gt;</text></symbol><symbol id="13"><text x="0" y="1.67" class="f">abhishek@itsfoss</text><text x="16.032" y="1.67" class="g">:</text><text x="17.034" y="1.67" class="h">~/practice_files</text><text x="33.065999999999995" y="1.67" class="g">$</text><text x="35.06999999999999" y="1.67" class="g">echo</text><text x="40.08" y="1.67" class="g">&quot;Hello</text><text x="47.093999999999994" y="1.67" class="g">World&quot;</text><text x="54.108" y="1.67" class="g">&gt;&gt;</text><text x="57.114" y="1.67" class="g">other_new_file</text></symbol><symbol id="14"><text x="0" y="1.67" class="f">abhishek@itsfoss</text><text x="16.032" y="1.67" class="g">:</text><text x="17.034" y="1.67" class="h">~/practice_files</text><text x="33.065999999999995" y="1.67" class="g">$</text><text x="35.06999999999999" y="1.67" class="g">ls</text></symbol><symbol id="15"><text x="0" y="1.67" class="f">abhishek@itsfoss</text><text x="16.032" y="1.67" class="g">:</text><text x="17.034" y="1.67" class="h">~/practice_files</text><text x="33.065999999999995" y="1.67" class="g">$</text><text x="35.06999999999999" y="1.67" class="g">ls</text><text x="38.07599999999999" y="1.67" class="g">-l</text></symbol><symbol id="16"><text x="0" y="1.67" class="g">total</text><text x="6.012" y="1.67" class="g">4</text></symbol><symbol id="17"><text x="0" y="1.67" class="g">-rw-rw-r--</text><text x="11.021999999999998" y="1.67" class="g">1</text><text x="13.026" y="1.67" class="g">abhishek</text><text x="22.043999999999997" y="1.67" class="g">abhishek</text><text x="32.064" y="1.67" class="g">0</text><text x="34.068" y="1.67" class="g">Mar</text><text x="39.077999999999996" y="1.67" class="g">7</text><text x="41.082" y="1.67" class="g">13:54</text><text x="47.093999999999994" y="1.67" class="g">new_file</text></symbol><symbol id="18"><text x="0" y="1.67" class="g">-rw-rw-r--</text><text x="11.021999999999998" y="1.67" class="g">1</text><text x="13.026" y="1.67" class="g">abhishek</text><text x="22.043999999999997" y="1.67" class="g">abhishek</text><text x="31.061999999999998" y="1.67" class="g">12</text><text x="34.068" y="1.67" class="g">Mar</text><text x="39.077999999999996" y="1.67" class="g">7</text><text x="41.082" y="1.67" class="g">13:58</text><text x="47.093999999999994" y="1.67" class="g">other_new_file</text></symbol><symbol id="a"><rect height="23" width="80" x="0" y="0" class="i"></rect></symbol><symbol id="b"><rect height="2.171" width="1.1022" class="j"></rect></symbol></defs><rect height="47.76199999999999" width="80" class="a"></rect><g class="l"><svg x="0" y="0" width="6240"><svg x="0"><use xlink:href="#a"></use><use xlink:href="#b" x="-0.0040000000000000036" y="0"></use></svg><svg x="80"><use xlink:href="#a"></use><use xlink:href="#b" x="34.996" y="0"></use><use xlink:href="#1" y="0"></use></svg><svg x="160"><use xlink:href="#a"></use><use xlink:href="#b" x="35.996" y="0"></use><use xlink:href="#2" y="0"></use></svg><svg x="240"><use xlink:href="#a"></use><use xlink:href="#b" x="36.996" y="0"></use><use xlink:href="#3" y="0"></use></svg><svg x="320"><use xlink:href="#a"></use><use xlink:href="#b" x="37.996" y="0"></use><use xlink:href="#4" y="0"></use></svg><svg x="400"><use xlink:href="#a"></use><use xlink:href="#b" x="38.996" y="0"></use><use xlink:href="#5" y="0"></use></svg><svg x="480"><use xlink:href="#a"></use><use xlink:href="#b" x="39.996" y="0"></use><use xlink:href="#5" y="0"></use></svg><svg x="560"><use xlink:href="#a"></use><use xlink:href="#b" x="40.996" y="0"></use><text x="0" y="1.67" class="f">abhishek@itsfoss</text><text x="16.032" y="1.67" class="g">:</text><text x="17.034" y="1.67" class="h">~/practice_files</text><text x="33.065999999999995" y="1.67" class="g">$</text><text x="35.06999999999999" y="1.67" class="g">echo</text><text x="40.08" y="1.67" class="g">h</text></svg><svg x="640"><use xlink:href="#a"></use><use xlink:href="#b" x="41.996" y="0"></use><text x="0" y="1.67" class="f">abhishek@itsfoss</text><text x="16.032" y="1.67" class="g">:</text><text x="17.034" y="1.67" class="h">~/practice_files</text><text x="33.065999999999995" y="1.67" class="g">$</text><text x="35.06999999999999" y="1.67" class="g">echo</text><text x="40.08" y="1.67" class="g">he</text></svg><svg x="720"><use xlink:href="#a"></use><use xlink:href="#b" x="42.996" y="0"></use><text x="0" y="1.67" class="f">abhishek@itsfoss</text><text x="16.032" y="1.67" class="g">:</text><text x="17.034" y="1.67" class="h">~/practice_files</text><text x="33.065999999999995" y="1.67" class="g">$</text><text x="35.06999999999999" y="1.67" class="g">echo</text><text x="40.08" y="1.67" class="g">hel</text></svg><svg x="800"><use xlink:href="#a"></use><use xlink:href="#b" x="43.996" y="0"></use><text x="0" y="1.67" class="f">abhishek@itsfoss</text><text x="16.032" y="1.67" class="g">:</text><text x="17.034" y="1.67" class="h">~/practice_files</text><text x="33.065999999999995" y="1.67" class="g">$</text><text x="35.06999999999999" y="1.67" class="g">echo</text><text x="40.08" y="1.67" class="g">hell</text></svg><svg x="880"><use xlink:href="#a"></use><use xlink:href="#b" x="44.996" y="0"></use><use xlink:href="#6" y="0"></use></svg><svg x="960"><use xlink:href="#a"></use><use xlink:href="#b" x="45.996" y="0"></use><use xlink:href="#6" y="0"></use></svg><svg x="1040"><use xlink:href="#a"></use><use xlink:href="#b" x="46.996" y="0"></use><text x="0" y="1.67" class="f">abhishek@itsfoss</text><text x="16.032" y="1.67" class="g">:</text><text x="17.034" y="1.67" class="h">~/practice_files</text><text x="33.065999999999995" y="1.67" class="g">$</text><text x="35.06999999999999" y="1.67" class="g">echo</text><text x="40.08" y="1.67" class="g">hello</text><text x="46.09199999999999" y="1.67" class="g">h</text></svg><svg x="1120"><use xlink:href="#a"></use><use xlink:href="#b" x="47.996" y="0"></use><text x="0" y="1.67" class="f">abhishek@itsfoss</text><text x="16.032" y="1.67" class="g">:</text><text x="17.034" y="1.67" class="h">~/practice_files</text><text x="33.065999999999995" y="1.67" class="g">$</text><text x="35.06999999999999" y="1.67" class="g">echo</text><text x="40.08" y="1.67" class="g">hello</text><text x="46.09199999999999" y="1.67" class="g">he</text></svg><svg x="1200"><use xlink:href="#a"></use><use xlink:href="#b" x="48.996" y="0"></use><text x="0" y="1.67" class="f">abhishek@itsfoss</text><text x="16.032" y="1.67" class="g">:</text><text x="17.034" y="1.67" class="h">~/practice_files</text><text x="33.065999999999995" y="1.67" class="g">$</text><text x="35.06999999999999" y="1.67" class="g">echo</text><text x="40.08" y="1.67" class="g">hello</text><text x="46.09199999999999" y="1.67" class="g">hel</text></svg><svg x="1280"><use xlink:href="#a"></use><use xlink:href="#b" x="49.996" y="0"></use><text x="0" y="1.67" class="f">abhishek@itsfoss</text><text x="16.032" y="1.67" class="g">:</text><text x="17.034" y="1.67" class="h">~/practice_files</text><text x="33.065999999999995" y="1.67" class="g">$</text><text x="35.06999999999999" y="1.67" class="g">echo</text><text x="40.08" y="1.67" class="g">hello</text><text x="46.09199999999999" y="1.67" class="g">hell</text></svg><svg x="1360"><use xlink:href="#a"></use><use xlink:href="#b" x="50.996" y="0"></use><use xlink:href="#7" y="0"></use></svg><svg x="1440"><use xlink:href="#a"></use><use xlink:href="#b" x="51.996" y="0"></use><use xlink:href="#7" y="0"></use></svg><svg x="1520"><use xlink:href="#a"></use><use xlink:href="#b" x="52.996" y="0"></use><text x="0" y="1.67" class="f">abhishek@itsfoss</text><text x="16.032" y="1.67" class="g">:</text><text x="17.034" y="1.67" class="h">~/practice_files</text><text x="33.065999999999995" y="1.67" class="g">$</text><text x="35.06999999999999" y="1.67" class="g">echo</text><text x="40.08" y="1.67" class="g">hello</text><text x="46.09199999999999" y="1.67" class="g">hello</text><text x="52.104" y="1.67" class="g">h</text></svg><svg x="1600"><use xlink:href="#a"></use><use xlink:href="#b" x="53.996" y="0"></use><text x="0" y="1.67" class="f">abhishek@itsfoss</text><text x="16.032" y="1.67" class="g">:</text><text x="17.034" y="1.67" class="h">~/practice_files</text><text x="33.065999999999995" y="1.67" class="g">$</text><text x="35.06999999999999" y="1.67" class="g">echo</text><text x="40.08" y="1.67" class="g">hello</text><text x="46.09199999999999" y="1.67" class="g">hello</text><text x="52.104" y="1.67" class="g">he</text></svg><svg x="1680"><use xlink:href="#a"></use><use xlink:href="#b" x="54.996" y="0"></use><text x="0" y="1.67" class="f">abhishek@itsfoss</text><text x="16.032" y="1.67" class="g">:</text><text x="17.034" y="1.67" class="h">~/practice_files</text><text x="33.065999999999995" y="1.67" class="g">$</text><text x="35.06999999999999" y="1.67" class="g">echo</text><text x="40.08" y="1.67" class="g">hello</text><text x="46.09199999999999" y="1.67" class="g">hello</text><text x="52.104" y="1.67" class="g">hel</text></svg><svg x="1760"><use xlink:href="#a"></use><use xlink:href="#b" x="55.996" y="0"></use><text x="0" y="1.67" class="f">abhishek@itsfoss</text><text x="16.032" y="1.67" class="g">:</text><text x="17.034" y="1.67" class="h">~/practice_files</text><text x="33.065999999999995" y="1.67" class="g">$</text><text x="35.06999999999999" y="1.67" class="g">echo</text><text x="40.08" y="1.67" class="g">hello</text><text x="46.09199999999999" y="1.67" class="g">hello</text><text x="52.104" y="1.67" class="g">hell</text></svg><svg x="1840"><use xlink:href="#a"></use><use xlink:href="#b" x="56.996" y="0"></use><use xlink:href="#8" y="0"></use></svg><svg x="1920"><use xlink:href="#a"></use><use xlink:href="#b" x="-0.0040000000000000036" y="2.146"></use><use xlink:href="#8" y="0"></use></svg><svg x="2000"><use xlink:href="#a"></use><use xlink:href="#b" x="-0.0040000000000000036" y="4.317"></use><use xlink:href="#8" y="0"></use><use xlink:href="#9" y="2.171"></use></svg><svg x="2080"><use xlink:href="#a"></use><use xlink:href="#b" x="34.996" y="4.317"></use><use xlink:href="#8" y="0"></use><use xlink:href="#9" y="2.171"></use><use xlink:href="#1" y="4.342"></use></svg><svg x="2160"><use xlink:href="#a"></use><use xlink:href="#b" x="35.996" y="4.317"></use><use xlink:href="#8" y="0"></use><use xlink:href="#9" y="2.171"></use><use xlink:href="#2" y="4.342"></use></svg><svg x="2240"><use xlink:href="#a"></use><use xlink:href="#b" x="36.996" y="4.317"></use><use xlink:href="#8" y="0"></use><use xlink:href="#9" y="2.171"></use><use xlink:href="#3" y="4.342"></use></svg><svg x="2320"><use xlink:href="#a"></use><use xlink:href="#b" x="37.996" y="4.317"></use><use xlink:href="#8" y="0"></use><use xlink:href="#9" y="2.171"></use><use xlink:href="#4" y="4.342"></use></svg><svg x="2400"><use xlink:href="#a"></use><use xlink:href="#b" x="38.996" y="4.317"></use><use xlink:href="#8" y="0"></use><use xlink:href="#9" y="2.171"></use><use xlink:href="#5" y="4.342"></use></svg><svg x="2480"><use xlink:href="#a"></use><use xlink:href="#b" x="39.996" y="4.317"></use><use xlink:href="#8" y="0"></use><use xlink:href="#9" y="2.171"></use><use xlink:href="#5" y="4.342"></use></svg><svg x="2560"><use xlink:href="#a"></use><use xlink:href="#b" x="40.996" y="4.317"></use><use xlink:href="#8" y="0"></use><use xlink:href="#9" y="2.171"></use><text x="0" y="6.012" class="f">abhishek@itsfoss</text><text x="16.032" y="6.012" class="g">:</text><text x="17.034" y="6.012" class="h">~/practice_files</text><text x="33.065999999999995" y="6.012" class="g">$</text><text x="35.06999999999999" y="6.012" class="g">echo</text><text x="40.08" y="6.012" class="g">&quot;</text></svg><svg x="2640"><use xlink:href="#a"></use><use xlink:href="#b" x="41.996" y="4.317"></use><use xlink:href="#8" y="0"></use><use xlink:href="#9" y="2.171"></use><use xlink:href="#10" y="4.342"></use></svg><svg x="2720"><use xlink:href="#a"></use><use xlink:href="#b" x="40.996" y="4.317"></use><use xlink:href="#8" y="0"></use><use xlink:href="#9" y="2.171"></use><use xlink:href="#10" y="4.342"></use></svg><svg x="2800"><use xlink:href="#a"></use><use xlink:href="#b" x="41.996" y="4.317"></use><use xlink:href="#8" y="0"></use><use xlink:href="#9" y="2.171"></use><text x="0" y="6.012" class="f">abhishek@itsfoss</text><text x="16.032" y="6.012" class="g">:</text><text x="17.034" y="6.012" class="h">~/practice_files</text><text x="33.065999999999995" y="6.012" class="g">$</text><text x="35.06999999999999" y="6.012" class="g">echo</text><text x="40.08" y="6.012" class="g">&quot;H&quot;</text></svg><svg x="2880"><use xlink:href="#a"></use><use xlink:href="#b" x="42.996" y="4.317"></use><use xlink:href="#8" y="0"></use><use xlink:href="#9" y="2.171"></use><text x="0" y="6.012" class="f">abhishek@itsfoss</text><text x="16.032" y="6.012" class="g">:</text><text x="17.034" y="6.012" class="h">~/practice_files</text><text x="33.065999999999995" y="6.012" class="g">$</text><text x="35.06999999999999" y="6.012" class="g">echo</text><text x="40.08" y="6.012" class="g">&quot;He&quot;</text></svg><svg x="2960"><use xlink:href="#a"></use><use xlink:href="#b" x="43.996" y="4.317"></use><use xlink:href="#8" y="0"></use><use xlink:href="#9" y="2.171"></use><text x="0" y="6.012" class="f">abhishek@itsfoss</text><text x="16.032" y="6.012" class="g">:</text><text x="17.034" y="6.012" class="h">~/practice_files</text><text x="33.065999999999995" y="6.012" class="g">$</text><text x="35.06999999999999" y="6.012" class="g">echo</text><text x="40.08" y="6.012" class="g">&quot;Hel&quot;</text></svg><svg x="3040"><use xlink:href="#a"></use><use xlink:href="#b" x="44.996" y="4.317"></use><use xlink:href="#8" y="0"></use><use xlink:href="#9" y="2.171"></use><text x="0" y="6.012" class="f">abhishek@itsfoss</text><text x="16.032" y="6.012" class="g">:</text><text x="17.034" y="6.012" class="h">~/practice_files</text><text x="33.065999999999995" y="6.012" class="g">$</text><text x="35.06999999999999" y="6.012" class="g">echo</text><text x="40.08" y="6.012" class="g">&quot;Hell&quot;</text></svg><svg x="3120"><use xlink:href="#a"></use><use xlink:href="#b" x="45.996" y="4.317"></use><use xlink:href="#8" y="0"></use><use xlink:href="#9" y="2.171"></use><text x="0" y="6.012" class="f">abhishek@itsfoss</text><text x="16.032" y="6.012" class="g">:</text><text x="17.034" y="6.012" class="h">~/practice_files</text><text x="33.065999999999995" y="6.012" class="g">$</text><text x="35.06999999999999" y="6.012" class="g">echo</text><text x="40.08" y="6.012" class="g">&quot;Hello&quot;</text></svg><svg x="3200"><use xlink:href="#a"></use><use xlink:href="#b" x="46.996" y="4.317"></use><use xlink:href="#8" y="0"></use><use xlink:href="#9" y="2.171"></use><text x="0" y="6.012" class="f">abhishek@itsfoss</text><text x="16.032" y="6.012" class="g">:</text><text x="17.034" y="6.012" class="h">~/practice_files</text><text x="33.065999999999995" y="6.012" class="g">$</text><text x="35.06999999999999" y="6.012" class="g">echo</text><text x="40.08" y="6.012" class="g">&quot;Hello</text><text x="47.093999999999994" y="6.012" class="g">&quot;</text></svg><svg x="3280"><use xlink:href="#a"></use><use xlink:href="#b" x="47.996" y="4.317"></use><use xlink:href="#8" y="0"></use><use xlink:href="#9" y="2.171"></use><text x="0" y="6.012" class="f">abhishek@itsfoss</text><text x="16.032" y="6.012" class="g">:</text><text x="17.034" y="6.012" class="h">~/practice_files</text><text x="33.065999999999995" y="6.012" class="g">$</text><text x="35.06999999999999" y="6.012" class="g">echo</text><text x="40.08" y="6.012" class="g">&quot;Hello</text><text x="47.093999999999994" y="6.012" class="g">W&quot;</text></svg><svg x="3360"><use xlink:href="#a"></use><use xlink:href="#b" x="48.996" y="4.317"></use><use xlink:href="#8" y="0"></use><use xlink:href="#9" y="2.171"></use><text x="0" y="6.012" class="f">abhishek@itsfoss</text><text x="16.032" y="6.012" class="g">:</text><text x="17.034" y="6.012" class="h">~/practice_files</text><text x="33.065999999999995" y="6.012" class="g">$</text><text x="35.06999999999999" y="6.012" class="g">echo</text><text x="40.08" y="6.012" class="g">&quot;Hello</text><text x="47.093999999999994" y="6.012" class="g">Wo&quot;</text></svg><svg x="3440"><use xlink:href="#a"></use><use xlink:href="#b" x="49.996" y="4.317"></use><use xlink:href="#8" y="0"></use><use xlink:href="#9" y="2.171"></use><text x="0" y="6.012" class="f">abhishek@itsfoss</text><text x="16.032" y="6.012" class="g">:</text><text x="17.034" y="6.012" class="h">~/practice_files</text><text x="33.065999999999995" y="6.012" class="g">$</text><text x="35.06999999999999" y="6.012" class="g">echo</text><text x="40.08" y="6.012" class="g">&quot;Hello</text><text x="47.093999999999994" y="6.012" class="g">Wor&quot;</text></svg><svg x="3520"><use xlink:href="#a"></use><use xlink:href="#b" x="50.996" y="4.317"></use><use xlink:href="#8" y="0"></use><use xlink:href="#9" y="2.171"></use><text x="0" y="6.012" class="f">abhishek@itsfoss</text><text x="16.032" y="6.012" class="g">:</text><text x="17.034" y="6.012" class="h">~/practice_files</text><text x="33.065999999999995" y="6.012" class="g">$</text><text x="35.06999999999999" y="6.012" class="g">echo</text><text x="40.08" y="6.012" class="g">&quot;Hello</text><text x="47.093999999999994" y="6.012" class="g">Worl&quot;</text></svg><svg x="3600"><use xlink:href="#a"></use><use xlink:href="#b" x="51.996" y="4.317"></use><use xlink:href="#8" y="0"></use><use xlink:href="#9" y="2.171"></use><use xlink:href="#11" y="4.342"></use></svg><svg x="3680"><use xlink:href="#a"></use><use xlink:href="#b" x="52.996" y="4.317"></use><use xlink:href="#8" y="0"></use><use xlink:href="#9" y="2.171"></use><use xlink:href="#11" y="4.342"></use></svg><svg x="3760"><use xlink:href="#a"></use><use xlink:href="#b" x="53.996" y="4.317"></use><use xlink:href="#8" y="0"></use><use xlink:href="#9" y="2.171"></use><use xlink:href="#11" y="4.342"></use></svg><svg x="3840"><use xlink:href="#a"></use><use xlink:href="#b" x="54.996" y="4.317"></use><use xlink:href="#8" y="0"></use><use xlink:href="#9" y="2.171"></use><text x="0" y="6.012" class="f">abhishek@itsfoss</text><text x="16.032" y="6.012" class="g">:</text><text x="17.034" y="6.012" class="h">~/practice_files</text><text x="33.065999999999995" y="6.012" class="g">$</text><text x="35.06999999999999" y="6.012" class="g">echo</text><text x="40.08" y="6.012" class="g">&quot;Hello</text><text x="47.093999999999994" y="6.012" class="g">World&quot;</text><text x="54.108" y="6.012" class="g">&gt;</text></svg><svg x="3920"><use xlink:href="#a"></use><use xlink:href="#b" x="55.996" y="4.317"></use><use xlink:href="#8" y="0"></use><use xlink:href="#9" y="2.171"></use><use xlink:href="#12" y="4.342"></use></svg><svg x="4000"><use xlink:href="#a"></use><use xlink:href="#b" x="56.996" y="4.317"></use><use xlink:href="#8" y="0"></use><use xlink:href="#9" y="2.171"></use><use xlink:href="#12" y="4.342"></use></svg><svg x="4080"><use xlink:href="#a"></use><use xlink:href="#b" x="57.996" y="4.317"></use><use xlink:href="#8" y="0"></use><use xlink:href="#9" y="2.171"></use><text x="0" y="6.012" class="f">abhishek@itsfoss</text><text x="16.032" y="6.012" class="g">:</text><text x="17.034" y="6.012" class="h">~/practice_files</text><text x="33.065999999999995" y="6.012" class="g">$</text><text x="35.06999999999999" y="6.012" class="g">echo</text><text x="40.08" y="6.012" class="g">&quot;Hello</text><text x="47.093999999999994" y="6.012" class="g">World&quot;</text><text x="54.108" y="6.012" class="g">&gt;&gt;</text><text x="57.114" y="6.012" class="g">o</text></svg><svg x="4160"><use xlink:href="#a"></use><use xlink:href="#b" x="58.996" y="4.317"></use><use xlink:href="#8" y="0"></use><use xlink:href="#9" y="2.171"></use><text x="0" y="6.012" class="f">abhishek@itsfoss</text><text x="16.032" y="6.012" class="g">:</text><text x="17.034" y="6.012" class="h">~/practice_files</text><text x="33.065999999999995" y="6.012" class="g">$</text><text x="35.06999999999999" y="6.012" class="g">echo</text><text x="40.08" y="6.012" class="g">&quot;Hello</text><text x="47.093999999999994" y="6.012" class="g">World&quot;</text><text x="54.108" y="6.012" class="g">&gt;&gt;</text><text x="57.114" y="6.012" class="g">ot</text></svg><svg x="4240"><use xlink:href="#a"></use><use xlink:href="#b" x="59.996" y="4.317"></use><use xlink:href="#8" y="0"></use><use xlink:href="#9" y="2.171"></use><text x="0" y="6.012" class="f">abhishek@itsfoss</text><text x="16.032" y="6.012" class="g">:</text><text x="17.034" y="6.012" class="h">~/practice_files</text><text x="33.065999999999995" y="6.012" class="g">$</text><text x="35.06999999999999" y="6.012" class="g">echo</text><text x="40.08" y="6.012" class="g">&quot;Hello</text><text x="47.093999999999994" y="6.012" class="g">World&quot;</text><text x="54.108" y="6.012" class="g">&gt;&gt;</text><text x="57.114" y="6.012" class="g">oth</text></svg><svg x="4320"><use xlink:href="#a"></use><use xlink:href="#b" x="60.996" y="4.317"></use><use xlink:href="#8" y="0"></use><use xlink:href="#9" y="2.171"></use><text x="0" y="6.012" class="f">abhishek@itsfoss</text><text x="16.032" y="6.012" class="g">:</text><text x="17.034" y="6.012" class="h">~/practice_files</text><text x="33.065999999999995" y="6.012" class="g">$</text><text x="35.06999999999999" y="6.012" class="g">echo</text><text x="40.08" y="6.012" class="g">&quot;Hello</text><text x="47.093999999999994" y="6.012" class="g">World&quot;</text><text x="54.108" y="6.012" class="g">&gt;&gt;</text><text x="57.114" y="6.012" class="g">othe</text></svg><svg x="4400"><use xlink:href="#a"></use><use xlink:href="#b" x="61.996" y="4.317"></use><use xlink:href="#8" y="0"></use><use xlink:href="#9" y="2.171"></use><text x="0" y="6.012" class="f">abhishek@itsfoss</text><text x="16.032" y="6.012" class="g">:</text><text x="17.034" y="6.012" class="h">~/practice_files</text><text x="33.065999999999995" y="6.012" class="g">$</text><text x="35.06999999999999" y="6.012" class="g">echo</text><text x="40.08" y="6.012" class="g">&quot;Hello</text><text x="47.093999999999994" y="6.012" class="g">World&quot;</text><text x="54.108" y="6.012" class="g">&gt;&gt;</text><text x="57.114" y="6.012" class="g">other</text></svg><svg x="4480"><use xlink:href="#a"></use><use xlink:href="#b" x="62.996" y="4.317"></use><use xlink:href="#8" y="0"></use><use xlink:href="#9" y="2.171"></use><text x="0" y="6.012" class="f">abhishek@itsfoss</text><text x="16.032" y="6.012" class="g">:</text><text x="17.034" y="6.012" class="h">~/practice_files</text><text x="33.065999999999995" y="6.012" class="g">$</text><text x="35.06999999999999" y="6.012" class="g">echo</text><text x="40.08" y="6.012" class="g">&quot;Hello</text><text x="47.093999999999994" y="6.012" class="g">World&quot;</text><text x="54.108" y="6.012" class="g">&gt;&gt;</text><text x="57.114" y="6.012" class="g">other_</text></svg><svg x="4560"><use xlink:href="#a"></use><use xlink:href="#b" x="63.996" y="4.317"></use><use xlink:href="#8" y="0"></use><use xlink:href="#9" y="2.171"></use><text x="0" y="6.012" class="f">abhishek@itsfoss</text><text x="16.032" y="6.012" class="g">:</text><text x="17.034" y="6.012" class="h">~/practice_files</text><text x="33.065999999999995" y="6.012" class="g">$</text><text x="35.06999999999999" y="6.012" class="g">echo</text><text x="40.08" y="6.012" class="g">&quot;Hello</text><text x="47.093999999999994" y="6.012" class="g">World&quot;</text><text x="54.108" y="6.012" class="g">&gt;&gt;</text><text x="57.114" y="6.012" class="g">other_n</text></svg><svg x="4640"><use xlink:href="#a"></use><use xlink:href="#b" x="64.996" y="4.317"></use><use xlink:href="#8" y="0"></use><use xlink:href="#9" y="2.171"></use><text x="0" y="6.012" class="f">abhishek@itsfoss</text><text x="16.032" y="6.012" class="g">:</text><text x="17.034" y="6.012" class="h">~/practice_files</text><text x="33.065999999999995" y="6.012" class="g">$</text><text x="35.06999999999999" y="6.012" class="g">echo</text><text x="40.08" y="6.012" class="g">&quot;Hello</text><text x="47.093999999999994" y="6.012" class="g">World&quot;</text><text x="54.108" y="6.012" class="g">&gt;&gt;</text><text x="57.114" y="6.012" class="g">other_ne</text></svg><svg x="4720"><use xlink:href="#a"></use><use xlink:href="#b" x="65.996" y="4.317"></use><use xlink:href="#8" y="0"></use><use xlink:href="#9" y="2.171"></use><text x="0" y="6.012" class="f">abhishek@itsfoss</text><text x="16.032" y="6.012" class="g">:</text><text x="17.034" y="6.012" class="h">~/practice_files</text><text x="33.065999999999995" y="6.012" class="g">$</text><text x="35.06999999999999" y="6.012" class="g">echo</text><text x="40.08" y="6.012" class="g">&quot;Hello</text><text x="47.093999999999994" y="6.012" class="g">World&quot;</text><text x="54.108" y="6.012" class="g">&gt;&gt;</text><text x="57.114" y="6.012" class="g">other_new</text></svg><svg x="4800"><use xlink:href="#a"></use><use xlink:href="#b" x="66.996" y="4.317"></use><use xlink:href="#8" y="0"></use><use xlink:href="#9" y="2.171"></use><text x="0" y="6.012" class="f">abhishek@itsfoss</text><text x="16.032" y="6.012" class="g">:</text><text x="17.034" y="6.012" class="h">~/practice_files</text><text x="33.065999999999995" y="6.012" class="g">$</text><text x="35.06999999999999" y="6.012" class="g">echo</text><text x="40.08" y="6.012" class="g">&quot;Hello</text><text x="47.093999999999994" y="6.012" class="g">World&quot;</text><text x="54.108" y="6.012" class="g">&gt;&gt;</text><text x="57.114" y="6.012" class="g">other_new_</text></svg><svg x="4880"><use xlink:href="#a"></use><use xlink:href="#b" x="67.996" y="4.317"></use><use xlink:href="#8" y="0"></use><use xlink:href="#9" y="2.171"></use><text x="0" y="6.012" class="f">abhishek@itsfoss</text><text x="16.032" y="6.012" class="g">:</text><text x="17.034" y="6.012" class="h">~/practice_files</text><text x="33.065999999999995" y="6.012" class="g">$</text><text x="35.06999999999999" y="6.012" class="g">echo</text><text x="40.08" y="6.012" class="g">&quot;Hello</text><text x="47.093999999999994" y="6.012" class="g">World&quot;</text><text x="54.108" y="6.012" class="g">&gt;&gt;</text><text x="57.114" y="6.012" class="g">other_new_f</text></svg><svg x="4960"><use xlink:href="#a"></use><use xlink:href="#b" x="68.996" y="4.317"></use><use xlink:href="#8" y="0"></use><use xlink:href="#9" y="2.171"></use><text x="0" y="6.012" class="f">abhishek@itsfoss</text><text x="16.032" y="6.012" class="g">:</text><text x="17.034" y="6.012" class="h">~/practice_files</text><text x="33.065999999999995" y="6.012" class="g">$</text><text x="35.06999999999999" y="6.012" class="g">echo</text><text x="40.08" y="6.012" class="g">&quot;Hello</text><text x="47.093999999999994" y="6.012" class="g">World&quot;</text><text x="54.108" y="6.012" class="g">&gt;&gt;</text><text x="57.114" y="6.012" class="g">other_new_fi</text></svg><svg x="5040"><use xlink:href="#a"></use><use xlink:href="#b" x="69.996" y="4.317"></use><use xlink:href="#8" y="0"></use><use xlink:href="#9" y="2.171"></use><text x="0" y="6.012" class="f">abhishek@itsfoss</text><text x="16.032" y="6.012" class="g">:</text><text x="17.034" y="6.012" class="h">~/practice_files</text><text x="33.065999999999995" y="6.012" class="g">$</text><text x="35.06999999999999" y="6.012" class="g">echo</text><text x="40.08" y="6.012" class="g">&quot;Hello</text><text x="47.093999999999994" y="6.012" class="g">World&quot;</text><text x="54.108" y="6.012" class="g">&gt;&gt;</text><text x="57.114" y="6.012" class="g">other_new_fil</text></svg><svg x="5120"><use xlink:href="#a"></use><use xlink:href="#b" x="70.996" y="4.317"></use><use xlink:href="#8" y="0"></use><use xlink:href="#9" y="2.171"></use><use xlink:href="#13" y="4.342"></use></svg><svg x="5200"><use xlink:href="#a"></use><use xlink:href="#b" x="-0.0040000000000000036" y="6.4879999999999995"></use><use xlink:href="#8" y="0"></use><use xlink:href="#9" y="2.171"></use><use xlink:href="#13" y="4.342"></use></svg><svg x="5280"><use xlink:href="#a"></use><use xlink:href="#b" x="-0.0040000000000000036" y="6.4879999999999995"></use><use xlink:href="#8" y="0"></use><use xlink:href="#9" y="2.171"></use><use xlink:href="#13" y="4.342"></use></svg><svg x="5360"><use xlink:href="#a"></use><use xlink:href="#b" x="34.996" y="6.4879999999999995"></use><use xlink:href="#8" y="0"></use><use xlink:href="#9" y="2.171"></use><use xlink:href="#13" y="4.342"></use><use xlink:href="#1" y="6.513"></use></svg><svg x="5440"><use xlink:href="#a"></use><use xlink:href="#b" x="35.996" y="6.4879999999999995"></use><use xlink:href="#8" y="0"></use><use xlink:href="#9" y="2.171"></use><use xlink:href="#13" y="4.342"></use><text x="0" y="8.183" class="f">abhishek@itsfoss</text><text x="16.032" y="8.183" class="g">:</text><text x="17.034" y="8.183" class="h">~/practice_files</text><text x="33.065999999999995" y="8.183" class="g">$</text><text x="35.06999999999999" y="8.183" class="g">l</text></svg><svg x="5520"><use xlink:href="#a"></use><use xlink:href="#b" x="36.996" y="6.4879999999999995"></use><use xlink:href="#8" y="0"></use><use xlink:href="#9" y="2.171"></use><use xlink:href="#13" y="4.342"></use><use xlink:href="#14" y="6.513"></use></svg><svg x="5600"><use xlink:href="#a"></use><use xlink:href="#b" x="37.996" y="6.4879999999999995"></use><use xlink:href="#8" y="0"></use><use xlink:href="#9" y="2.171"></use><use xlink:href="#13" y="4.342"></use><use xlink:href="#14" y="6.513"></use></svg><svg x="5680"><use xlink:href="#a"></use><use xlink:href="#b" x="38.996" y="6.4879999999999995"></use><use xlink:href="#8" y="0"></use><use xlink:href="#9" y="2.171"></use><use xlink:href="#13" y="4.342"></use><text x="0" y="8.183" class="f">abhishek@itsfoss</text><text x="16.032" y="8.183" class="g">:</text><text x="17.034" y="8.183" class="h">~/practice_files</text><text x="33.065999999999995" y="8.183" class="g">$</text><text x="35.06999999999999" y="8.183" class="g">ls</text><text x="38.07599999999999" y="8.183" class="g">-</text></svg><svg x="5760"><use xlink:href="#a"></use><use xlink:href="#b" x="39.996" y="6.4879999999999995"></use><use xlink:href="#8" y="0"></use><use xlink:href="#9" y="2.171"></use><use xlink:href="#13" y="4.342"></use><use xlink:href="#15" y="6.513"></use></svg><svg x="5840"><use xlink:href="#a"></use><use xlink:href="#b" x="-0.0040000000000000036" y="8.658999999999999"></use><use xlink:href="#8" y="0"></use><use xlink:href="#9" y="2.171"></use><use xlink:href="#13" y="4.342"></use><use xlink:href="#15" y="6.513"></use></svg><svg x="5920"><use xlink:href="#a"></use><use xlink:href="#b" x="-0.0040000000000000036" y="15.171999999999999"></use><use xlink:href="#8" y="0"></use><use xlink:href="#9" y="2.171"></use><use xlink:href="#13" y="4.342"></use><use xlink:href="#15" y="6.513"></use><use xlink:href="#16" y="8.684"></use><use xlink:href="#17" y="10.855"></use><use xlink:href="#18" y="13.026"></use></svg><svg x="6000"><use xlink:href="#a"></use><use xlink:href="#b" x="34.996" y="15.171999999999999"></use><use xlink:href="#8" y="0"></use><use xlink:href="#9" y="2.171"></use><use xlink:href="#13" y="4.342"></use><use xlink:href="#15" y="6.513"></use><use xlink:href="#16" y="8.684"></use><use xlink:href="#17" y="10.855"></use><use xlink:href="#18" y="13.026"></use><use xlink:href="#1" y="15.197"></use></svg><svg x="6080"><use xlink:href="#a"></use><use xlink:href="#b" x="-0.0040000000000000036" y="17.343"></use><use xlink:href="#8" y="0"></use><use xlink:href="#9" y="2.171"></use><use xlink:href="#13" y="4.342"></use><use xlink:href="#15" y="6.513"></use><use xlink:href="#16" y="8.684"></use><use xlink:href="#17" y="10.855"></use><use xlink:href="#18" y="13.026"></use><use xlink:href="#1" y="15.197"></use></svg><svg x="6160"><use xlink:href="#a"></use><use xlink:href="#b" x="-0.0040000000000000036" y="19.514000000000003"></use><use xlink:href="#8" y="0"></use><use xlink:href="#9" y="2.171"></use><use xlink:href="#13" y="4.342"></use><use xlink:href="#15" y="6.513"></use><use xlink:href="#16" y="8.684"></use><use xlink:href="#17" y="10.855"></use><use xlink:href="#18" y="13.026"></use><use xlink:href="#1" y="15.197"></use><text x="0" y="19.037999999999997" class="g">exit</text></svg></svg></g></g></svg></svg>