<svg xmlns="http://www.w3.org/2000/svg" xmlns:xlink="http://www.w3.org/1999/xlink" width="1240" height="385.65"><rect width="1240" height="385.65" rx="5" ry="5" class="a"></rect><svg y="0%" x="0%"><circle cx="20" cy="20" r="6" class="b"></circle><circle cx="40" cy="20" r="6" class="c"></circle><circle cx="60" cy="20" r="6" class="d"></circle></svg><svg height="325.65" viewBox="0 0 120 32.565" width="1200" x="15" xmlns="http://www.w3.org/2000/svg" xmlns:xlink="http://www.w3.org/1999/xlink" y="50"><style>.a{fill:rgb(40,45,53)}.b{fill:#ff5f58}.c{fill:#ffbd2e}.d{fill:#18c132}.e{font-family:Monaco,Consolas,Menlo,'Bitstream Vera Sans Mono','Powerline Symbols',monospace}.f{fill:rgb(168,204,140);font-weight:bold;white-space:pre}.g{fill:rgb(185,192,203);white-space:pre}.h{fill:rgb(113,190,242);font-weight:bold;white-space:pre}.i{fill:rgb(189,1,193);white-space:pre}.j{fill:rgb(186,1,196);white-space:pre}.k{fill:rgb(182,1,200);white-space:pre}.l{fill:rgb(178,1,203);white-space:pre}.m{fill:rgb(174,2,207);white-space:pre}.n{fill:rgb(170,3,210);white-space:pre}.o{fill:rgb(166,3,213);white-space:pre}.p{fill:rgb(162,4,216);white-space:pre}.q{fill:rgb(158,6,219);white-space:pre}.r{fill:rgb(150,8,225);white-space:pre}.s{fill:rgb(154,7,222);white-space:pre}.t{fill:rgb(145,10,227);white-space:pre}.u{fill:rgb(141,11,230);white-space:pre}.v{fill:rgb(124,19,239);white-space:pre}.w{fill:rgb(107,29,246);white-space:pre}.x{fill:rgb(103,32,248);white-space:pre}.y{fill:rgb(99,34,249);white-space:pre}.z{fill:rgb(95,37,250);white-space:pre}.A{fill:rgb(91,40,251);white-space:pre}.B{fill:rgb(87,44,252);white-space:pre}.C{fill:rgb(83,47,253);white-space:pre}.D{fill:rgb(79,50,253);white-space:pre}.E{fill:rgb(75,53,254);white-space:pre}.F{fill:rgb(71,57,254);white-space:pre}.G{fill:rgb(68,61,254);white-space:pre}.H{fill:rgb(64,64,254);white-space:pre}.I{fill:rgb(60,68,254);white-space:pre}.J{fill:rgb(57,72,254);white-space:pre}.K{fill:rgb(53,75,254);white-space:pre}.L{fill:rgb(40,91,251);white-space:pre}.M{fill:rgb(37,95,250);white-space:pre}.N{fill:rgb(34,100,249);white-space:pre}.O{fill:rgb(31,104,247);white-space:pre}.P{fill:rgb(50,79,253);white-space:pre}.Q{fill:rgb(46,83,253);white-space:pre}.R{fill:rgb(43,87,252);white-space:pre}.S{fill:rgb(26,112,244);white-space:pre}.T{fill:rgb(24,116,243);white-space:pre}.U{fill:transparent}.V{fill:rgb(111,118,131)}.X{animation-duration:6.902822s;animation-iteration-count:infinite;animation-name:W;animation-timing-function:steps(1,end)}@keyframes W{0%{transform:translateX(-0px)}0.1%{transform:translateX(-120px)}4.8%{transform:translateX(-240px)}6.9%{transform:translateX(-360px)}10.4%{transform:translateX(-480px)}15.1%{transform:translateX(-600px)}16.8%{transform:translateX(-720px)}18.5%{transform:translateX(-840px)}21.9%{transform:translateX(-960px)}27.4%{transform:translateX(-1080px)}29.8%{transform:translateX(-1200px)}32.4%{transform:translateX(-1320px)}34.5%{transform:translateX(-1440px)}37.1%{transform:translateX(-1560px)}39.9%{transform:translateX(-1680px)}48.4%{transform:translateX(-1800px)}52.8%{transform:translateX(-1920px)}57.1%{transform:translateX(-2040px)}60%{transform:translateX(-2160px)}62.5%{transform:translateX(-2280px)}64.9%{transform:translateX(-2400px)}67.2%{transform:translateX(-2520px)}70.3%{transform:translateX(-2640px)}81%{transform:translateX(-2760px)}82%{transform:translateX(-2880px)}82%{transform:translateX(-3000px)}82%{transform:translateX(-3120px)}82%{transform:translateX(-3240px)}82%{transform:translateX(-3360px)}82%{transform:translateX(-3480px)}82%{transform:translateX(-3600px)}82%{transform:translateX(-3720px)}82%{transform:translateX(-3840px)}82%{transform:translateX(-3960px)}82%{transform:translateX(-4080px)}82%{transform:translateX(-4200px)}82%{transform:translateX(-4320px)}82%{transform:translateX(-4440px)}82%{transform:translateX(-4560px)}82%{transform:translateX(-4680px)}82%{transform:translateX(-4800px)}82%{transform:translateX(-4920px)}82%{transform:translateX(-5040px)}82%{transform:translateX(-5160px)}82%{transform:translateX(-5280px)}82%{transform:translateX(-5400px)}82%{transform:translateX(-5520px)}82%{transform:translateX(-5640px)}82%{transform:translateX(-5760px)}82%{transform:translateX(-5880px)}82%{transform:translateX(-6000px)}82%{transform:translateX(-6120px)}82%{transform:translateX(-6240px)}82%{transform:translateX(-6360px)}82%{transform:translateX(-6480px)}82%{transform:translateX(-6600px)}82%{transform:translateX(-6720px)}82%{transform:translateX(-6840px)}82%{transform:translateX(-6960px)}82%{transform:translateX(-7080px)}82%{transform:translateX(-7200px)}82.1%{transform:translateX(-7320px)}82.1%{transform:translateX(-7440px)}82.1%{transform:translateX(-7560px)}82.1%{transform:translateX(-7680px)}82.1%{transform:translateX(-7800px)}82.1%{transform:translateX(-7920px)}82.1%{transform:translateX(-8040px)}82.1%{transform:translateX(-8160px)}82.1%{transform:translateX(-8280px)}82.1%{transform:translateX(-8400px)}82.1%{transform:translateX(-8520px)}82.1%{transform:translateX(-8640px)}100%{transform:translateX(-8760px)}}</style><g font-family="Monaco, Consolas, Menlo, &#x27;Bitstream Vera Sans Mono&#x27;, &#x27;Powerline Symbols&#x27;, monospace" font-size="1.67" class="e"><defs><symbol id="1"><text x="0" y="1.67" class="f">team@itsfoss</text><text x="12.024" y="1.67" class="g">:</text><text x="13.026" y="1.67" class="h">~</text><text x="14.027999999999999" y="1.67" class="g">$</text></symbol><symbol id="2"><text x="0" y="1.67" class="f">team@itsfoss</text><text x="12.024" y="1.67" class="g">:</text><text x="13.026" y="1.67" class="h">~</text><text x="14.027999999999999" y="1.67" class="g">$</text><text x="16.032" y="1.67" class="g">cowsay</text></symbol><symbol id="3"><text x="0" y="1.67" class="f">team@itsfoss</text><text x="12.024" y="1.67" class="g">:</text><text x="13.026" y="1.67" class="h">~</text><text x="14.027999999999999" y="1.67" class="g">$</text><text x="16.032" y="1.67" class="g">cowsay</text><text x="23.045999999999996" y="1.67" class="g">Hello</text></symbol><symbol id="4"><text x="0" y="1.67" class="f">team@itsfoss</text><text x="12.024" y="1.67" class="g">:</text><text x="13.026" y="1.67" class="h">~</text><text x="14.027999999999999" y="1.67" class="g">$</text><text x="16.032" y="1.67" class="g">cowsay</text><text x="23.045999999999996" y="1.67" class="g">Hello</text><text x="29.058" y="1.67" class="g">|</text></symbol><symbol id="5"><text x="0" y="1.67" class="f">team@itsfoss</text><text x="12.024" y="1.67" class="g">:</text><text x="13.026" y="1.67" class="h">~</text><text x="14.027999999999999" y="1.67" class="g">$</text><text x="16.032" y="1.67" class="g">cowsay</text><text x="23.045999999999996" y="1.67" class="g">Hello</text><text x="29.058" y="1.67" class="g">|</text><text x="31.061999999999998" y="1.67" class="g">lolcat</text></symbol><symbol id="6"><text x="1.002" y="1.67" class="i">_</text><text x="2.004" y="1.67" class="j">_</text><text x="3.006" y="1.67" class="k">_</text><text x="4.008" y="1.67" class="l">_</text><text x="5.01" y="1.67" class="m">_</text><text x="6.012" y="1.67" class="n">_</text><text x="7.013999999999999" y="1.67" class="o">_</text></symbol><symbol id="7"><text x="0" y="1.67" class="k">&lt;</text><text x="2.004" y="1.67" class="m">H</text><text x="3.006" y="1.67" class="n">e</text><text x="4.008" y="1.67" class="o">l</text><text x="5.01" y="1.67" class="p">l</text><text x="6.012" y="1.67" class="q">o</text><text x="8.016" y="1.67" class="r">&gt;</text></symbol><symbol id="8"><text x="1.002" y="1.67" class="o">-</text><text x="2.004" y="1.67" class="p">-</text><text x="3.006" y="1.67" class="q">-</text><text x="4.008" y="1.67" class="s">-</text><text x="5.01" y="1.67" class="r">-</text><text x="6.012" y="1.67" class="t">-</text><text x="7.013999999999999" y="1.67" class="u">-</text></symbol><symbol id="9"><text x="8.016" y="1.67" class="v">\</text><text x="12.024" y="1.67" class="w">^</text><text x="13.026" y="1.67" class="x">_</text><text x="14.027999999999999" y="1.67" class="y">_</text><text x="15.029999999999998" y="1.67" class="z">^</text></symbol><symbol id="10"><text x="9.017999999999999" y="1.67" class="w">\</text><text x="12.024" y="1.67" class="z">(</text><text x="13.026" y="1.67" class="A">o</text><text x="14.027999999999999" y="1.67" class="B">o</text><text x="15.029999999999998" y="1.67" class="C">)</text><text x="16.032" y="1.67" class="D">\</text><text x="17.034" y="1.67" class="E">_</text><text x="18.035999999999998" y="1.67" class="F">_</text><text x="19.037999999999997" y="1.67" class="G">_</text><text x="20.04" y="1.67" class="H">_</text><text x="21.041999999999998" y="1.67" class="I">_</text><text x="22.043999999999997" y="1.67" class="J">_</text><text x="23.045999999999996" y="1.67" class="K">_</text></symbol><symbol id="11"><text x="12.024" y="1.67" class="C">(</text><text x="13.026" y="1.67" class="D">_</text><text x="14.027999999999999" y="1.67" class="E">_</text><text x="15.029999999999998" y="1.67" class="F">)</text><text x="16.032" y="1.67" class="G">\</text></symbol><symbol id="12"><text x="12.024" y="1.67" class="C">(</text><text x="13.026" y="1.67" class="D">_</text><text x="14.027999999999999" y="1.67" class="E">_</text><text x="15.029999999999998" y="1.67" class="F">)</text><text x="16.032" y="1.67" class="G">\</text><text x="24.048" y="1.67" class="L">)</text><text x="25.05" y="1.67" class="M">\</text><text x="26.052" y="1.67" class="N">/</text><text x="27.054" y="1.67" class="O">\</text></symbol><symbol id="13"><text x="16.032" y="1.67" class="J">|</text><text x="17.034" y="1.67" class="K">|</text><text x="18.035999999999998" y="1.67" class="P">-</text><text x="19.037999999999997" y="1.67" class="Q">-</text><text x="20.04" y="1.67" class="R">-</text><text x="21.041999999999998" y="1.67" class="L">-</text><text x="22.043999999999997" y="1.67" class="M">w</text></symbol><symbol id="14"><text x="16.032" y="1.67" class="J">|</text><text x="17.034" y="1.67" class="K">|</text><text x="18.035999999999998" y="1.67" class="P">-</text><text x="19.037999999999997" y="1.67" class="Q">-</text><text x="20.04" y="1.67" class="R">-</text><text x="21.041999999999998" y="1.67" class="L">-</text><text x="22.043999999999997" y="1.67" class="M">w</text><text x="24.048" y="1.67" class="O">|</text></symbol><symbol id="15"><text x="16.032" y="1.67" class="Q">|</text><text x="17.034" y="1.67" class="R">|</text></symbol><symbol id="16"><text x="16.032" y="1.67" class="Q">|</text><text x="17.034" y="1.67" class="R">|</text><text x="23.045999999999996" y="1.67" class="S">|</text><text x="24.048" y="1.67" class="T">|</text></symbol><symbol id="a"><rect height="16" width="120" x="0" y="0" class="U"></rect></symbol><symbol id="b"><rect height="2.171" width="1.1022" class="V"></rect></symbol></defs><rect height="32.565" width="120" class="a"></rect><g class="X"><svg x="0" y="0" width="8880"><svg x="0"><use xlink:href="#a"></use><use xlink:href="#b" x="-0.0040000000000000036" y="0"></use></svg><svg x="120"><use xlink:href="#a"></use><use xlink:href="#b" x="15.996" y="0"></use><use xlink:href="#1" y="0"></use></svg><svg x="240"><use xlink:href="#a"></use><use xlink:href="#b" x="16.996" y="0"></use><text x="0" y="1.67" class="f">team@itsfoss</text><text x="12.024" y="1.67" class="g">:</text><text x="13.026" y="1.67" class="h">~</text><text x="14.027999999999999" y="1.67" class="g">$</text><text x="16.032" y="1.67" class="g">c</text></svg><svg x="360"><use xlink:href="#a"></use><use xlink:href="#b" x="17.996" y="0"></use><text x="0" y="1.67" class="f">team@itsfoss</text><text x="12.024" y="1.67" class="g">:</text><text x="13.026" y="1.67" class="h">~</text><text x="14.027999999999999" y="1.67" class="g">$</text><text x="16.032" y="1.67" class="g">co</text></svg><svg x="480"><use xlink:href="#a"></use><use xlink:href="#b" x="18.996" y="0"></use><text x="0" y="1.67" class="f">team@itsfoss</text><text x="12.024" y="1.67" class="g">:</text><text x="13.026" y="1.67" class="h">~</text><text x="14.027999999999999" y="1.67" class="g">$</text><text x="16.032" y="1.67" class="g">cow</text></svg><svg x="600"><use xlink:href="#a"></use><use xlink:href="#b" x="19.996" y="0"></use><text x="0" y="1.67" class="f">team@itsfoss</text><text x="12.024" y="1.67" class="g">:</text><text x="13.026" y="1.67" class="h">~</text><text x="14.027999999999999" y="1.67" class="g">$</text><text x="16.032" y="1.67" class="g">cows</text></svg><svg x="720"><use xlink:href="#a"></use><use xlink:href="#b" x="20.996" y="0"></use><text x="0" y="1.67" class="f">team@itsfoss</text><text x="12.024" y="1.67" class="g">:</text><text x="13.026" y="1.67" class="h">~</text><text x="14.027999999999999" y="1.67" class="g">$</text><text x="16.032" y="1.67" class="g">cowsa</text></svg><svg x="840"><use xlink:href="#a"></use><use xlink:href="#b" x="21.996" y="0"></use><use xlink:href="#2" y="0"></use></svg><svg x="960"><use xlink:href="#a"></use><use xlink:href="#b" x="22.996" y="0"></use><use xlink:href="#2" y="0"></use></svg><svg x="1080"><use xlink:href="#a"></use><use xlink:href="#b" x="23.996" y="0"></use><text x="0" y="1.67" class="f">team@itsfoss</text><text x="12.024" y="1.67" class="g">:</text><text x="13.026" y="1.67" class="h">~</text><text x="14.027999999999999" y="1.67" class="g">$</text><text x="16.032" y="1.67" class="g">cowsay</text><text x="23.045999999999996" y="1.67" class="g">H</text></svg><svg x="1200"><use xlink:href="#a"></use><use xlink:href="#b" x="24.996" y="0"></use><text x="0" y="1.67" class="f">team@itsfoss</text><text x="12.024" y="1.67" class="g">:</text><text x="13.026" y="1.67" class="h">~</text><text x="14.027999999999999" y="1.67" class="g">$</text><text x="16.032" y="1.67" class="g">cowsay</text><text x="23.045999999999996" y="1.67" class="g">He</text></svg><svg x="1320"><use xlink:href="#a"></use><use xlink:href="#b" x="25.996" y="0"></use><text x="0" y="1.67" class="f">team@itsfoss</text><text x="12.024" y="1.67" class="g">:</text><text x="13.026" y="1.67" class="h">~</text><text x="14.027999999999999" y="1.67" class="g">$</text><text x="16.032" y="1.67" class="g">cowsay</text><text x="23.045999999999996" y="1.67" class="g">Hel</text></svg><svg x="1440"><use xlink:href="#a"></use><use xlink:href="#b" x="26.996" y="0"></use><text x="0" y="1.67" class="f">team@itsfoss</text><text x="12.024" y="1.67" class="g">:</text><text x="13.026" y="1.67" class="h">~</text><text x="14.027999999999999" y="1.67" class="g">$</text><text x="16.032" y="1.67" class="g">cowsay</text><text x="23.045999999999996" y="1.67" class="g">Hell</text></svg><svg x="1560"><use xlink:href="#a"></use><use xlink:href="#b" x="27.996" y="0"></use><use xlink:href="#3" y="0"></use></svg><svg x="1680"><use xlink:href="#a"></use><use xlink:href="#b" x="28.996" y="0"></use><use xlink:href="#3" y="0"></use></svg><svg x="1800"><use xlink:href="#a"></use><use xlink:href="#b" x="29.996" y="0"></use><use xlink:href="#4" y="0"></use></svg><svg x="1920"><use xlink:href="#a"></use><use xlink:href="#b" x="30.996" y="0"></use><use xlink:href="#4" y="0"></use></svg><svg x="2040"><use xlink:href="#a"></use><use xlink:href="#b" x="31.996" y="0"></use><text x="0" y="1.67" class="f">team@itsfoss</text><text x="12.024" y="1.67" class="g">:</text><text x="13.026" y="1.67" class="h">~</text><text x="14.027999999999999" y="1.67" class="g">$</text><text x="16.032" y="1.67" class="g">cowsay</text><text x="23.045999999999996" y="1.67" class="g">Hello</text><text x="29.058" y="1.67" class="g">|</text><text x="31.061999999999998" y="1.67" class="g">l</text></svg><svg x="2160"><use xlink:href="#a"></use><use xlink:href="#b" x="32.996" y="0"></use><text x="0" y="1.67" class="f">team@itsfoss</text><text x="12.024" y="1.67" class="g">:</text><text x="13.026" y="1.67" class="h">~</text><text x="14.027999999999999" y="1.67" class="g">$</text><text x="16.032" y="1.67" class="g">cowsay</text><text x="23.045999999999996" y="1.67" class="g">Hello</text><text x="29.058" y="1.67" class="g">|</text><text x="31.061999999999998" y="1.67" class="g">lo</text></svg><svg x="2280"><use xlink:href="#a"></use><use xlink:href="#b" x="33.996" y="0"></use><text x="0" y="1.67" class="f">team@itsfoss</text><text x="12.024" y="1.67" class="g">:</text><text x="13.026" y="1.67" class="h">~</text><text x="14.027999999999999" y="1.67" class="g">$</text><text x="16.032" y="1.67" class="g">cowsay</text><text x="23.045999999999996" y="1.67" class="g">Hello</text><text x="29.058" y="1.67" class="g">|</text><text x="31.061999999999998" y="1.67" class="g">lol</text></svg><svg x="2400"><use xlink:href="#a"></use><use xlink:href="#b" x="34.996" y="0"></use><text x="0" y="1.67" class="f">team@itsfoss</text><text x="12.024" y="1.67" class="g">:</text><text x="13.026" y="1.67" class="h">~</text><text x="14.027999999999999" y="1.67" class="g">$</text><text x="16.032" y="1.67" class="g">cowsay</text><text x="23.045999999999996" y="1.67" class="g">Hello</text><text x="29.058" y="1.67" class="g">|</text><text x="31.061999999999998" y="1.67" class="g">lolc</text></svg><svg x="2520"><use xlink:href="#a"></use><use xlink:href="#b" x="35.996" y="0"></use><text x="0" y="1.67" class="f">team@itsfoss</text><text x="12.024" y="1.67" class="g">:</text><text x="13.026" y="1.67" class="h">~</text><text x="14.027999999999999" y="1.67" class="g">$</text><text x="16.032" y="1.67" class="g">cowsay</text><text x="23.045999999999996" y="1.67" class="g">Hello</text><text x="29.058" y="1.67" class="g">|</text><text x="31.061999999999998" y="1.67" class="g">lolca</text></svg><svg x="2640"><use xlink:href="#a"></use><use xlink:href="#b" x="36.996" y="0"></use><use xlink:href="#5" y="0"></use></svg><svg x="2760"><use xlink:href="#a"></use><use xlink:href="#b" x="-0.0040000000000000036" y="2.146"></use><use xlink:href="#5" y="0"></use></svg><svg x="2880"><use xlink:href="#a"></use><use xlink:href="#b" x="-0.0040000000000000036" y="4.317"></use><use xlink:href="#5" y="0"></use><use xlink:href="#6" y="2.171"></use></svg><svg x="3000"><use xlink:href="#a"></use><use xlink:href="#b" x="3.996" y="4.317"></use><use xlink:href="#5" y="0"></use><use xlink:href="#6" y="2.171"></use><text x="0" y="6.012" class="k">&lt;</text><text x="2.004" y="6.012" class="m">H</text><text x="3.006" y="6.012" class="n">e</text></svg><svg x="3120"><use xlink:href="#a"></use><use xlink:href="#b" x="5.996" y="4.317"></use><use xlink:href="#5" y="0"></use><use xlink:href="#6" y="2.171"></use><text x="0" y="6.012" class="k">&lt;</text><text x="2.004" y="6.012" class="m">H</text><text x="3.006" y="6.012" class="n">e</text><text x="4.008" y="6.012" class="o">l</text><text x="5.01" y="6.012" class="p">l</text></svg><svg x="3240"><use xlink:href="#a"></use><use xlink:href="#b" x="2.996" y="6.4879999999999995"></use><use xlink:href="#5" y="0"></use><use xlink:href="#6" y="2.171"></use><use xlink:href="#7" y="4.342"></use><text x="1.002" y="8.183" class="o">-</text><text x="2.004" y="8.183" class="p">-</text></svg><svg x="3360"><use xlink:href="#a"></use><use xlink:href="#b" x="0.996" y="8.658999999999999"></use><use xlink:href="#5" y="0"></use><use xlink:href="#6" y="2.171"></use><use xlink:href="#7" y="4.342"></use><use xlink:href="#8" y="6.513"></use></svg><svg x="3480"><use xlink:href="#a"></use><use xlink:href="#b" x="4.996" y="8.658999999999999"></use><use xlink:href="#5" y="0"></use><use xlink:href="#6" y="2.171"></use><use xlink:href="#7" y="4.342"></use><use xlink:href="#8" y="6.513"></use></svg><svg x="3600"><use xlink:href="#a"></use><use xlink:href="#b" x="10.996" y="8.658999999999999"></use><use xlink:href="#5" y="0"></use><use xlink:href="#6" y="2.171"></use><use xlink:href="#7" y="4.342"></use><use xlink:href="#8" y="6.513"></use><text x="8.016" y="10.354" class="v">\</text></svg><svg x="3720"><use xlink:href="#a"></use><use xlink:href="#b" x="13.996" y="8.658999999999999"></use><use xlink:href="#5" y="0"></use><use xlink:href="#6" y="2.171"></use><use xlink:href="#7" y="4.342"></use><use xlink:href="#8" y="6.513"></use><text x="8.016" y="10.354" class="v">\</text><text x="12.024" y="10.354" class="w">^</text><text x="13.026" y="10.354" class="x">_</text></svg><svg x="3840"><use xlink:href="#a"></use><use xlink:href="#b" x="15.996" y="8.658999999999999"></use><use xlink:href="#5" y="0"></use><use xlink:href="#6" y="2.171"></use><use xlink:href="#7" y="4.342"></use><use xlink:href="#8" y="6.513"></use><use xlink:href="#9" y="8.684"></use></svg><svg x="3960"><use xlink:href="#a"></use><use xlink:href="#b" x="0.996" y="10.83"></use><use xlink:href="#5" y="0"></use><use xlink:href="#6" y="2.171"></use><use xlink:href="#7" y="4.342"></use><use xlink:href="#8" y="6.513"></use><use xlink:href="#9" y="8.684"></use></svg><svg x="4080"><use xlink:href="#a"></use><use xlink:href="#b" x="3.996" y="10.83"></use><use xlink:href="#5" y="0"></use><use xlink:href="#6" y="2.171"></use><use xlink:href="#7" y="4.342"></use><use xlink:href="#8" y="6.513"></use><use xlink:href="#9" y="8.684"></use></svg><svg x="4200"><use xlink:href="#a"></use><use xlink:href="#b" x="5.996" y="10.83"></use><use xlink:href="#5" y="0"></use><use xlink:href="#6" y="2.171"></use><use xlink:href="#7" y="4.342"></use><use xlink:href="#8" y="6.513"></use><use xlink:href="#9" y="8.684"></use></svg><svg x="4320"><use xlink:href="#a"></use><use xlink:href="#b" x="7.996" y="10.83"></use><use xlink:href="#5" y="0"></use><use xlink:href="#6" y="2.171"></use><use xlink:href="#7" y="4.342"></use><use xlink:href="#8" y="6.513"></use><use xlink:href="#9" y="8.684"></use></svg><svg x="4440"><use xlink:href="#a"></use><use xlink:href="#b" x="7.996" y="10.83"></use><use xlink:href="#5" y="0"></use><use xlink:href="#6" y="2.171"></use><use xlink:href="#7" y="4.342"></use><use xlink:href="#8" y="6.513"></use><use xlink:href="#9" y="8.684"></use></svg><svg x="4560"><use xlink:href="#a"></use><use xlink:href="#b" x="8.996" y="10.83"></use><use xlink:href="#5" y="0"></use><use xlink:href="#6" y="2.171"></use><use xlink:href="#7" y="4.342"></use><use xlink:href="#8" y="6.513"></use><use xlink:href="#9" y="8.684"></use></svg><svg x="4680"><use xlink:href="#a"></use><use xlink:href="#b" x="12.996" y="10.83"></use><use xlink:href="#5" y="0"></use><use xlink:href="#6" y="2.171"></use><use xlink:href="#7" y="4.342"></use><use xlink:href="#8" y="6.513"></use><use xlink:href="#9" y="8.684"></use><text x="9.017999999999999" y="12.525" class="w">\</text><text x="12.024" y="12.525" class="z">(</text></svg><svg x="4800"><use xlink:href="#a"></use><use xlink:href="#b" x="15.996" y="10.83"></use><use xlink:href="#5" y="0"></use><use xlink:href="#6" y="2.171"></use><use xlink:href="#7" y="4.342"></use><use xlink:href="#8" y="6.513"></use><use xlink:href="#9" y="8.684"></use><text x="9.017999999999999" y="12.525" class="w">\</text><text x="12.024" y="12.525" class="z">(</text><text x="13.026" y="12.525" class="A">o</text><text x="14.027999999999999" y="12.525" class="B">o</text><text x="15.029999999999998" y="12.525" class="C">)</text></svg><svg x="4920"><use xlink:href="#a"></use><use xlink:href="#b" x="17.996" y="10.83"></use><use xlink:href="#5" y="0"></use><use xlink:href="#6" y="2.171"></use><use xlink:href="#7" y="4.342"></use><use xlink:href="#8" y="6.513"></use><use xlink:href="#9" y="8.684"></use><text x="9.017999999999999" y="12.525" class="w">\</text><text x="12.024" y="12.525" class="z">(</text><text x="13.026" y="12.525" class="A">o</text><text x="14.027999999999999" y="12.525" class="B">o</text><text x="15.029999999999998" y="12.525" class="C">)</text><text x="16.032" y="12.525" class="D">\</text><text x="17.034" y="12.525" class="E">_</text></svg><svg x="5040"><use xlink:href="#a"></use><use xlink:href="#b" x="18.996" y="10.83"></use><use xlink:href="#5" y="0"></use><use xlink:href="#6" y="2.171"></use><use xlink:href="#7" y="4.342"></use><use xlink:href="#8" y="6.513"></use><use xlink:href="#9" y="8.684"></use><text x="9.017999999999999" y="12.525" class="w">\</text><text x="12.024" y="12.525" class="z">(</text><text x="13.026" y="12.525" class="A">o</text><text x="14.027999999999999" y="12.525" class="B">o</text><text x="15.029999999999998" y="12.525" class="C">)</text><text x="16.032" y="12.525" class="D">\</text><text x="17.034" y="12.525" class="E">_</text><text x="18.035999999999998" y="12.525" class="F">_</text></svg><svg x="5160"><use xlink:href="#a"></use><use xlink:href="#b" x="21.996" y="10.83"></use><use xlink:href="#5" y="0"></use><use xlink:href="#6" y="2.171"></use><use xlink:href="#7" y="4.342"></use><use xlink:href="#8" y="6.513"></use><use xlink:href="#9" y="8.684"></use><text x="9.017999999999999" y="12.525" class="w">\</text><text x="12.024" y="12.525" class="z">(</text><text x="13.026" y="12.525" class="A">o</text><text x="14.027999999999999" y="12.525" class="B">o</text><text x="15.029999999999998" y="12.525" class="C">)</text><text x="16.032" y="12.525" class="D">\</text><text x="17.034" y="12.525" class="E">_</text><text x="18.035999999999998" y="12.525" class="F">_</text><text x="19.037999999999997" y="12.525" class="G">_</text><text x="20.04" y="12.525" class="H">_</text><text x="21.041999999999998" y="12.525" class="I">_</text></svg><svg x="5280"><use xlink:href="#a"></use><use xlink:href="#b" x="22.996" y="10.83"></use><use xlink:href="#5" y="0"></use><use xlink:href="#6" y="2.171"></use><use xlink:href="#7" y="4.342"></use><use xlink:href="#8" y="6.513"></use><use xlink:href="#9" y="8.684"></use><text x="9.017999999999999" y="12.525" class="w">\</text><text x="12.024" y="12.525" class="z">(</text><text x="13.026" y="12.525" class="A">o</text><text x="14.027999999999999" y="12.525" class="B">o</text><text x="15.029999999999998" y="12.525" class="C">)</text><text x="16.032" y="12.525" class="D">\</text><text x="17.034" y="12.525" class="E">_</text><text x="18.035999999999998" y="12.525" class="F">_</text><text x="19.037999999999997" y="12.525" class="G">_</text><text x="20.04" y="12.525" class="H">_</text><text x="21.041999999999998" y="12.525" class="I">_</text><text x="22.043999999999997" y="12.525" class="J">_</text></svg><svg x="5400"><use xlink:href="#a"></use><use xlink:href="#b" x="-0.0040000000000000036" y="13.001"></use><use xlink:href="#5" y="0"></use><use xlink:href="#6" y="2.171"></use><use xlink:href="#7" y="4.342"></use><use xlink:href="#8" y="6.513"></use><use xlink:href="#9" y="8.684"></use><use xlink:href="#10" y="10.855"></use></svg><svg x="5520"><use xlink:href="#a"></use><use xlink:href="#b" x="3.996" y="13.001"></use><use xlink:href="#5" y="0"></use><use xlink:href="#6" y="2.171"></use><use xlink:href="#7" y="4.342"></use><use xlink:href="#8" y="6.513"></use><use xlink:href="#9" y="8.684"></use><use xlink:href="#10" y="10.855"></use></svg><svg x="5640"><use xlink:href="#a"></use><use xlink:href="#b" x="5.996" y="13.001"></use><use xlink:href="#5" y="0"></use><use xlink:href="#6" y="2.171"></use><use xlink:href="#7" y="4.342"></use><use xlink:href="#8" y="6.513"></use><use xlink:href="#9" y="8.684"></use><use xlink:href="#10" y="10.855"></use></svg><svg x="5760"><use xlink:href="#a"></use><use xlink:href="#b" x="6.996" y="13.001"></use><use xlink:href="#5" y="0"></use><use xlink:href="#6" y="2.171"></use><use xlink:href="#7" y="4.342"></use><use xlink:href="#8" y="6.513"></use><use xlink:href="#9" y="8.684"></use><use xlink:href="#10" y="10.855"></use></svg><svg x="5880"><use xlink:href="#a"></use><use xlink:href="#b" x="11.996" y="13.001"></use><use xlink:href="#5" y="0"></use><use xlink:href="#6" y="2.171"></use><use xlink:href="#7" y="4.342"></use><use xlink:href="#8" y="6.513"></use><use xlink:href="#9" y="8.684"></use><use xlink:href="#10" y="10.855"></use></svg><svg x="6000"><use xlink:href="#a"></use><use xlink:href="#b" x="14.996" y="13.001"></use><use xlink:href="#5" y="0"></use><use xlink:href="#6" y="2.171"></use><use xlink:href="#7" y="4.342"></use><use xlink:href="#8" y="6.513"></use><use xlink:href="#9" y="8.684"></use><use xlink:href="#10" y="10.855"></use><text x="12.024" y="14.696" class="C">(</text><text x="13.026" y="14.696" class="D">_</text><text x="14.027999999999999" y="14.696" class="E">_</text></svg><svg x="6120"><use xlink:href="#a"></use><use xlink:href="#b" x="15.996" y="13.001"></use><use xlink:href="#5" y="0"></use><use xlink:href="#6" y="2.171"></use><use xlink:href="#7" y="4.342"></use><use xlink:href="#8" y="6.513"></use><use xlink:href="#9" y="8.684"></use><use xlink:href="#10" y="10.855"></use><text x="12.024" y="14.696" class="C">(</text><text x="13.026" y="14.696" class="D">_</text><text x="14.027999999999999" y="14.696" class="E">_</text><text x="15.029999999999998" y="14.696" class="F">)</text></svg><svg x="6240"><use xlink:href="#a"></use><use xlink:href="#b" x="18.996" y="13.001"></use><use xlink:href="#5" y="0"></use><use xlink:href="#6" y="2.171"></use><use xlink:href="#7" y="4.342"></use><use xlink:href="#8" y="6.513"></use><use xlink:href="#9" y="8.684"></use><use xlink:href="#10" y="10.855"></use><use xlink:href="#11" y="13.026"></use></svg><svg x="6360"><use xlink:href="#a"></use><use xlink:href="#b" x="20.996" y="13.001"></use><use xlink:href="#5" y="0"></use><use xlink:href="#6" y="2.171"></use><use xlink:href="#7" y="4.342"></use><use xlink:href="#8" y="6.513"></use><use xlink:href="#9" y="8.684"></use><use xlink:href="#10" y="10.855"></use><use xlink:href="#11" y="13.026"></use></svg><svg x="6480"><use xlink:href="#a"></use><use xlink:href="#b" x="21.996" y="13.001"></use><use xlink:href="#5" y="0"></use><use xlink:href="#6" y="2.171"></use><use xlink:href="#7" y="4.342"></use><use xlink:href="#8" y="6.513"></use><use xlink:href="#9" y="8.684"></use><use xlink:href="#10" y="10.855"></use><use xlink:href="#11" y="13.026"></use></svg><svg x="6600"><use xlink:href="#a"></use><use xlink:href="#b" x="25.996" y="13.001"></use><use xlink:href="#5" y="0"></use><use xlink:href="#6" y="2.171"></use><use xlink:href="#7" y="4.342"></use><use xlink:href="#8" y="6.513"></use><use xlink:href="#9" y="8.684"></use><use xlink:href="#10" y="10.855"></use><text x="12.024" y="14.696" class="C">(</text><text x="13.026" y="14.696" class="D">_</text><text x="14.027999999999999" y="14.696" class="E">_</text><text x="15.029999999999998" y="14.696" class="F">)</text><text x="16.032" y="14.696" class="G">\</text><text x="24.048" y="14.696" class="L">)</text><text x="25.05" y="14.696" class="M">\</text></svg><svg x="6720"><use xlink:href="#a"></use><use xlink:href="#b" x="26.996" y="13.001"></use><use xlink:href="#5" y="0"></use><use xlink:href="#6" y="2.171"></use><use xlink:href="#7" y="4.342"></use><use xlink:href="#8" y="6.513"></use><use xlink:href="#9" y="8.684"></use><use xlink:href="#10" y="10.855"></use><text x="12.024" y="14.696" class="C">(</text><text x="13.026" y="14.696" class="D">_</text><text x="14.027999999999999" y="14.696" class="E">_</text><text x="15.029999999999998" y="14.696" class="F">)</text><text x="16.032" y="14.696" class="G">\</text><text x="24.048" y="14.696" class="L">)</text><text x="25.05" y="14.696" class="M">\</text><text x="26.052" y="14.696" class="N">/</text></svg><svg x="6840"><use xlink:href="#a"></use><use xlink:href="#b" x="-0.0040000000000000036" y="15.171999999999999"></use><use xlink:href="#5" y="0"></use><use xlink:href="#6" y="2.171"></use><use xlink:href="#7" y="4.342"></use><use xlink:href="#8" y="6.513"></use><use xlink:href="#9" y="8.684"></use><use xlink:href="#10" y="10.855"></use><use xlink:href="#12" y="13.026"></use></svg><svg x="6960"><use xlink:href="#a"></use><use xlink:href="#b" x="0.996" y="15.171999999999999"></use><use xlink:href="#5" y="0"></use><use xlink:href="#6" y="2.171"></use><use xlink:href="#7" y="4.342"></use><use xlink:href="#8" y="6.513"></use><use xlink:href="#9" y="8.684"></use><use xlink:href="#10" y="10.855"></use><use xlink:href="#12" y="13.026"></use></svg><svg x="7080"><use xlink:href="#a"></use><use xlink:href="#b" x="3.996" y="15.171999999999999"></use><use xlink:href="#5" y="0"></use><use xlink:href="#6" y="2.171"></use><use xlink:href="#7" y="4.342"></use><use xlink:href="#8" y="6.513"></use><use xlink:href="#9" y="8.684"></use><use xlink:href="#10" y="10.855"></use><use xlink:href="#12" y="13.026"></use></svg><svg x="7200"><use xlink:href="#a"></use><use xlink:href="#b" x="6.996" y="15.171999999999999"></use><use xlink:href="#5" y="0"></use><use xlink:href="#6" y="2.171"></use><use xlink:href="#7" y="4.342"></use><use xlink:href="#8" y="6.513"></use><use xlink:href="#9" y="8.684"></use><use xlink:href="#10" y="10.855"></use><use xlink:href="#12" y="13.026"></use></svg><svg x="7320"><use xlink:href="#a"></use><use xlink:href="#b" x="16.996" y="15.171999999999999"></use><use xlink:href="#5" y="0"></use><use xlink:href="#6" y="2.171"></use><use xlink:href="#7" y="4.342"></use><use xlink:href="#8" y="6.513"></use><use xlink:href="#9" y="8.684"></use><use xlink:href="#10" y="10.855"></use><use xlink:href="#12" y="13.026"></use><text x="16.032" y="16.866999999999997" class="J">|</text></svg><svg x="7440"><use xlink:href="#a"></use><use xlink:href="#b" x="22.996" y="15.171999999999999"></use><use xlink:href="#5" y="0"></use><use xlink:href="#6" y="2.171"></use><use xlink:href="#7" y="4.342"></use><use xlink:href="#8" y="6.513"></use><use xlink:href="#9" y="8.684"></use><use xlink:href="#10" y="10.855"></use><use xlink:href="#12" y="13.026"></use><use xlink:href="#13" y="15.197"></use></svg><svg x="7560"><use xlink:href="#a"></use><use xlink:href="#b" x="23.996" y="15.171999999999999"></use><use xlink:href="#5" y="0"></use><use xlink:href="#6" y="2.171"></use><use xlink:href="#7" y="4.342"></use><use xlink:href="#8" y="6.513"></use><use xlink:href="#9" y="8.684"></use><use xlink:href="#10" y="10.855"></use><use xlink:href="#12" y="13.026"></use><use xlink:href="#13" y="15.197"></use></svg><svg x="7680"><use xlink:href="#a"></use><use xlink:href="#b" x="11.996" y="17.343"></use><use xlink:href="#5" y="0"></use><use xlink:href="#6" y="2.171"></use><use xlink:href="#7" y="4.342"></use><use xlink:href="#8" y="6.513"></use><use xlink:href="#9" y="8.684"></use><use xlink:href="#10" y="10.855"></use><use xlink:href="#12" y="13.026"></use><use xlink:href="#14" y="15.197"></use></svg><svg x="7800"><use xlink:href="#a"></use><use xlink:href="#b" x="15.996" y="17.343"></use><use xlink:href="#5" y="0"></use><use xlink:href="#6" y="2.171"></use><use xlink:href="#7" y="4.342"></use><use xlink:href="#8" y="6.513"></use><use xlink:href="#9" y="8.684"></use><use xlink:href="#10" y="10.855"></use><use xlink:href="#12" y="13.026"></use><use xlink:href="#14" y="15.197"></use></svg><svg x="7920"><use xlink:href="#a"></use><use xlink:href="#b" x="17.996" y="17.343"></use><use xlink:href="#5" y="0"></use><use xlink:href="#6" y="2.171"></use><use xlink:href="#7" y="4.342"></use><use xlink:href="#8" y="6.513"></use><use xlink:href="#9" y="8.684"></use><use xlink:href="#10" y="10.855"></use><use xlink:href="#12" y="13.026"></use><use xlink:href="#14" y="15.197"></use><use xlink:href="#15" y="17.368"></use></svg><svg x="8040"><use xlink:href="#a"></use><use xlink:href="#b" x="18.996" y="17.343"></use><use xlink:href="#5" y="0"></use><use xlink:href="#6" y="2.171"></use><use xlink:href="#7" y="4.342"></use><use xlink:href="#8" y="6.513"></use><use xlink:href="#9" y="8.684"></use><use xlink:href="#10" y="10.855"></use><use xlink:href="#12" y="13.026"></use><use xlink:href="#14" y="15.197"></use><use xlink:href="#15" y="17.368"></use></svg><svg x="8160"><use xlink:href="#a"></use><use xlink:href="#b" x="20.996" y="17.343"></use><use xlink:href="#5" y="0"></use><use xlink:href="#6" y="2.171"></use><use xlink:href="#7" y="4.342"></use><use xlink:href="#8" y="6.513"></use><use xlink:href="#9" y="8.684"></use><use xlink:href="#10" y="10.855"></use><use xlink:href="#12" y="13.026"></use><use xlink:href="#14" y="15.197"></use><use xlink:href="#15" y="17.368"></use></svg><svg x="8280"><use xlink:href="#a"></use><use xlink:href="#b" x="21.996" y="17.343"></use><use xlink:href="#5" y="0"></use><use xlink:href="#6" y="2.171"></use><use xlink:href="#7" y="4.342"></use><use xlink:href="#8" y="6.513"></use><use xlink:href="#9" y="8.684"></use><use xlink:href="#10" y="10.855"></use><use xlink:href="#12" y="13.026"></use><use xlink:href="#14" y="15.197"></use><use xlink:href="#15" y="17.368"></use></svg><svg x="8400"><use xlink:href="#a"></use><use xlink:href="#b" x="-0.0040000000000000036" y="19.514000000000003"></use><use xlink:href="#5" y="0"></use><use xlink:href="#6" y="2.171"></use><use xlink:href="#7" y="4.342"></use><use xlink:href="#8" y="6.513"></use><use xlink:href="#9" y="8.684"></use><use xlink:href="#10" y="10.855"></use><use xlink:href="#12" y="13.026"></use><use xlink:href="#14" y="15.197"></use><use xlink:href="#16" y="17.368"></use></svg><svg x="8520"><use xlink:href="#a"></use><use xlink:href="#b" x="-0.0040000000000000036" y="19.514000000000003"></use><use xlink:href="#5" y="0"></use><use xlink:href="#6" y="2.171"></use><use xlink:href="#7" y="4.342"></use><use xlink:href="#8" y="6.513"></use><use xlink:href="#9" y="8.684"></use><use xlink:href="#10" y="10.855"></use><use xlink:href="#12" y="13.026"></use><use xlink:href="#14" y="15.197"></use><use xlink:href="#16" y="17.368"></use></svg><svg x="8640"><use xlink:href="#a"></use><use xlink:href="#b" x="15.996" y="19.514000000000003"></use><use xlink:href="#5" y="0"></use><use xlink:href="#6" y="2.171"></use><use xlink:href="#7" y="4.342"></use><use xlink:href="#8" y="6.513"></use><use xlink:href="#9" y="8.684"></use><use xlink:href="#10" y="10.855"></use><use xlink:href="#12" y="13.026"></use><use xlink:href="#14" y="15.197"></use><use xlink:href="#16" y="17.368"></use><use xlink:href="#1" y="19.539"></use></svg><svg x="8760"><use xlink:href="#a"></use><use xlink:href="#b" x="-0.0040000000000000036" y="23.855999999999998"></use><use xlink:href="#5" y="0"></use><use xlink:href="#6" y="2.171"></use><use xlink:href="#7" y="4.342"></use><use xlink:href="#8" y="6.513"></use><use xlink:href="#9" y="8.684"></use><use xlink:href="#10" y="10.855"></use><use xlink:href="#12" y="13.026"></use><use xlink:href="#14" y="15.197"></use><use xlink:href="#16" y="17.368"></use><use xlink:href="#1" y="19.539"></use><text x="0" y="23.380000000000003" class="g">exit</text></svg></svg></g></g></svg></svg>