<svg xmlns="http://www.w3.org/2000/svg" xmlns:xlink="http://www.w3.org/1999/xlink" width="1240" height="602.75"><rect width="1240" height="602.75" rx="5" ry="5" class="a"></rect><svg y="0%" x="0%"><circle cx="20" cy="20" r="6" class="b"></circle><circle cx="40" cy="20" r="6" class="c"></circle><circle cx="60" cy="20" r="6" class="d"></circle></svg><svg height="542.75" viewBox="0 0 120 54.275" width="1200" x="15" xmlns="http://www.w3.org/2000/svg" xmlns:xlink="http://www.w3.org/1999/xlink" y="50"><style>.a{fill:rgb(40,45,53)}.b{fill:#ff5f58}.c{fill:#ffbd2e}.d{fill:#18c132}.e{font-family:Monaco,Consolas,Menlo,'Bitstream Vera Sans Mono','Powerline Symbols',monospace}.f{fill:rgb(168,204,140);font-weight:bold;white-space:pre}.g{fill:rgb(185,192,203);white-space:pre}.h{fill:rgb(113,190,242);font-weight:bold;white-space:pre}.i{fill:transparent}.j{fill:rgb(111,118,131)}.l{animation-duration:17.330392s;animation-iteration-count:infinite;animation-name:k;animation-timing-function:steps(1,end)}@keyframes k{0%{transform:translateX(-0px)}0.06%{transform:translateX(-120px)}2.27%{transform:translateX(-240px)}3.06%{transform:translateX(-360px)}4.68%{transform:translateX(-480px)}6.38%{transform:translateX(-600px)}7.17%{transform:translateX(-720px)}11.18%{transform:translateX(-840px)}12.37%{transform:translateX(-960px)}15.2%{transform:translateX(-1080px)}16.96%{transform:translateX(-1200px)}17.5%{transform:translateX(-1320px)}24.01%{transform:translateX(-1440px)}25.12%{transform:translateX(-1560px)}28.04%{transform:translateX(-1680px)}28.63%{transform:translateX(-1800px)}30.85%{transform:translateX(-1920px)}32.14%{transform:translateX(-2040px)}33.35%{transform:translateX(-2160px)}34.13%{transform:translateX(-2280px)}35.19%{transform:translateX(-2400px)}38.61%{transform:translateX(-2520px)}38.79%{transform:translateX(-2640px)}38.79%{transform:translateX(-2760px)}38.8%{transform:translateX(-2880px)}46.78%{transform:translateX(-3000px)}47.75%{transform:translateX(-3120px)}49.18%{transform:translateX(-3240px)}49.77%{transform:translateX(-3360px)}51.16%{transform:translateX(-3480px)}52.09%{transform:translateX(-3600px)}52.1%{transform:translateX(-3720px)}52.1%{transform:translateX(-3840px)}52.1%{transform:translateX(-3960px)}56.34%{transform:translateX(-4080px)}57.25%{transform:translateX(-4200px)}58.63%{transform:translateX(-4320px)}60.26%{transform:translateX(-4440px)}61.04%{transform:translateX(-4560px)}62.01%{transform:translateX(-4680px)}63.17%{transform:translateX(-4800px)}66.02%{transform:translateX(-4920px)}67.92%{transform:translateX(-5040px)}68.47%{transform:translateX(-5160px)}70.78%{transform:translateX(-5280px)}72.04%{transform:translateX(-5400px)}72.77%{transform:translateX(-5520px)}74.38%{transform:translateX(-5640px)}77.87%{transform:translateX(-5760px)}79.73%{transform:translateX(-5880px)}80.7%{transform:translateX(-6000px)}83.01%{transform:translateX(-6120px)}84.31%{transform:translateX(-6240px)}85.73%{transform:translateX(-6360px)}86.52%{transform:translateX(-6480px)}87.53%{transform:translateX(-6600px)}91.24%{transform:translateX(-6720px)}91.43%{transform:translateX(-6840px)}91.44%{transform:translateX(-6960px)}100%{transform:translateX(-7080px)}}</style><g font-family="Monaco, Consolas, Menlo, &#x27;Bitstream Vera Sans Mono&#x27;, &#x27;Powerline Symbols&#x27;, monospace" font-size="1.67" class="e"><defs><symbol id="1"><text x="0" y="1.67" class="f">team@itsfoss</text><text x="12.024" y="1.67" class="g">:</text><text x="13.026" y="1.67" class="h">~</text><text x="14.027999999999999" y="1.67" class="g">$</text></symbol><symbol id="2"><text x="0" y="1.67" class="f">team@itsfoss</text><text x="12.024" y="1.67" class="g">:</text><text x="13.026" y="1.67" class="h">~</text><text x="14.027999999999999" y="1.67" class="g">$</text><text x="16.032" y="1.67" class="g">c</text></symbol><symbol id="3"><text x="0" y="1.67" class="f">team@itsfoss</text><text x="12.024" y="1.67" class="g">:</text><text x="13.026" y="1.67" class="h">~</text><text x="14.027999999999999" y="1.67" class="g">$</text><text x="16.032" y="1.67" class="g">co</text></symbol><symbol id="4"><text x="0" y="1.67" class="f">team@itsfoss</text><text x="12.024" y="1.67" class="g">:</text><text x="13.026" y="1.67" class="h">~</text><text x="14.027999999999999" y="1.67" class="g">$</text><text x="16.032" y="1.67" class="g">cow</text></symbol><symbol id="5"><text x="0" y="1.67" class="f">team@itsfoss</text><text x="12.024" y="1.67" class="g">:</text><text x="13.026" y="1.67" class="h">~</text><text x="14.027999999999999" y="1.67" class="g">$</text><text x="16.032" y="1.67" class="g">cows</text></symbol><symbol id="6"><text x="0" y="1.67" class="f">team@itsfoss</text><text x="12.024" y="1.67" class="g">:</text><text x="13.026" y="1.67" class="h">~</text><text x="14.027999999999999" y="1.67" class="g">$</text><text x="16.032" y="1.67" class="g">cowsa</text></symbol><symbol id="7"><text x="0" y="1.67" class="f">team@itsfoss</text><text x="12.024" y="1.67" class="g">:</text><text x="13.026" y="1.67" class="h">~</text><text x="14.027999999999999" y="1.67" class="g">$</text><text x="16.032" y="1.67" class="g">cowsay</text></symbol><symbol id="8"><text x="0" y="1.67" class="f">team@itsfoss</text><text x="12.024" y="1.67" class="g">:</text><text x="13.026" y="1.67" class="h">~</text><text x="14.027999999999999" y="1.67" class="g">$</text><text x="16.032" y="1.67" class="g">cowsay</text><text x="23.045999999999996" y="1.67" class="g">-</text></symbol><symbol id="9"><text x="0" y="1.67" class="f">team@itsfoss</text><text x="12.024" y="1.67" class="g">:</text><text x="13.026" y="1.67" class="h">~</text><text x="14.027999999999999" y="1.67" class="g">$</text><text x="16.032" y="1.67" class="g">cowsay</text><text x="23.045999999999996" y="1.67" class="g">-f</text></symbol><symbol id="10"><text x="0" y="1.67" class="f">team@itsfoss</text><text x="12.024" y="1.67" class="g">:</text><text x="13.026" y="1.67" class="h">~</text><text x="14.027999999999999" y="1.67" class="g">$</text><text x="16.032" y="1.67" class="g">cowsay</text><text x="23.045999999999996" y="1.67" class="g">-f</text><text x="26.052" y="1.67" class="g">tux</text></symbol><symbol id="11"><text x="0" y="1.67" class="f">team@itsfoss</text><text x="12.024" y="1.67" class="g">:</text><text x="13.026" y="1.67" class="h">~</text><text x="14.027999999999999" y="1.67" class="g">$</text><text x="16.032" y="1.67" class="g">cowsay</text><text x="23.045999999999996" y="1.67" class="g">-f</text><text x="26.052" y="1.67" class="g">tux</text><text x="30.059999999999995" y="1.67" class="g">Hello</text></symbol><symbol id="12"><text x="1.002" y="1.67" class="g">_______</text></symbol><symbol id="13"><text x="0" y="1.67" class="g">&lt;</text><text x="2.004" y="1.67" class="g">Hello</text><text x="8.016" y="1.67" class="g">&gt;</text></symbol><symbol id="14"><text x="1.002" y="1.67" class="g">-------</text></symbol><symbol id="15"><text x="3.006" y="1.67" class="g">\</text></symbol><symbol id="16"><text x="4.008" y="1.67" class="g">\</text></symbol><symbol id="17"><text x="8.016" y="1.67" class="g">.--.</text></symbol><symbol id="18"><text x="7.013999999999999" y="1.67" class="g">|o_o</text><text x="12.024" y="1.67" class="g">|</text></symbol><symbol id="19"><text x="7.013999999999999" y="1.67" class="g">|:_/</text><text x="12.024" y="1.67" class="g">|</text></symbol><symbol id="20"><text x="6.012" y="1.67" class="g">//</text><text x="11.021999999999998" y="1.67" class="g">\</text><text x="13.026" y="1.67" class="g">\</text></symbol><symbol id="21"><text x="5.01" y="1.67" class="g">(|</text><text x="12.024" y="1.67" class="g">|</text><text x="14.027999999999999" y="1.67" class="g">)</text></symbol><symbol id="22"><text x="4.008" y="1.67" class="g">/&#x27;\_</text><text x="11.021999999999998" y="1.67" class="g">_/`\</text></symbol><symbol id="23"><text x="4.008" y="1.67" class="g">\___)=(___/</text></symbol><symbol id="24"><text x="0" y="1.67" class="f">team@itsfoss</text><text x="12.024" y="1.67" class="g">:</text><text x="13.026" y="1.67" class="h">~</text><text x="14.027999999999999" y="1.67" class="g">$</text><text x="16.032" y="1.67" class="g">clear</text></symbol><symbol id="25"><text x="0" y="1.67" class="f">team@itsfoss</text><text x="12.024" y="1.67" class="g">:</text><text x="13.026" y="1.67" class="h">~</text><text x="14.027999999999999" y="1.67" class="g">$</text><text x="16.032" y="1.67" class="g">cowsay</text><text x="23.045999999999996" y="1.67" class="g">-f</text><text x="26.052" y="1.67" class="g">dragon</text></symbol><symbol id="26"><text x="0" y="1.67" class="f">team@itsfoss</text><text x="12.024" y="1.67" class="g">:</text><text x="13.026" y="1.67" class="h">~</text><text x="14.027999999999999" y="1.67" class="g">$</text><text x="16.032" y="1.67" class="g">cowsay</text><text x="23.045999999999996" y="1.67" class="g">-f</text><text x="26.052" y="1.67" class="g">dragon</text><text x="33.065999999999995" y="1.67" class="g">Hello</text></symbol><symbol id="27"><text x="6.012" y="1.67" class="g">\</text><text x="27.054" y="1.67" class="g">/</text><text x="29.058" y="1.67" class="g">\</text><text x="32.064" y="1.67" class="g">//\</text></symbol><symbol id="28"><text x="7.013999999999999" y="1.67" class="g">\</text><text x="12.024" y="1.67" class="g">|\___/|</text><text x="25.05" y="1.67" class="g">/</text><text x="29.058" y="1.67" class="g">\//</text><text x="34.068" y="1.67" class="g">\\</text></symbol><symbol id="29"><text x="12.024" y="1.67" class="g">/0</text><text x="16.032" y="1.67" class="g">0</text><text x="19.037999999999997" y="1.67" class="g">\__</text><text x="24.048" y="1.67" class="g">/</text><text x="29.058" y="1.67" class="g">//</text><text x="33.065999999999995" y="1.67" class="g">|</text><text x="35.06999999999999" y="1.67" class="g">\</text><text x="37.074" y="1.67" class="g">\</text></symbol><symbol id="30"><text x="11.021999999999998" y="1.67" class="g">/</text><text x="17.034" y="1.67" class="g">/</text><text x="20.04" y="1.67" class="g">\/_/</text><text x="28.055999999999997" y="1.67" class="g">//</text><text x="33.065999999999995" y="1.67" class="g">|</text><text x="36.071999999999996" y="1.67" class="g">\</text><text x="39.077999999999996" y="1.67" class="g">\</text></symbol><symbol id="31"><text x="11.021999999999998" y="1.67" class="g">@_^_@&#x27;/</text><text x="21.041999999999998" y="1.67" class="g">\/_</text><text x="27.054" y="1.67" class="g">//</text><text x="33.065999999999995" y="1.67" class="g">|</text><text x="37.074" y="1.67" class="g">\</text><text x="41.082" y="1.67" class="g">\</text></symbol><symbol id="32"><text x="11.021999999999998" y="1.67" class="g">//_^_/</text><text x="22.043999999999997" y="1.67" class="g">\/_</text><text x="26.052" y="1.67" class="g">//</text><text x="33.065999999999995" y="1.67" class="g">|</text><text x="38.07599999999999" y="1.67" class="g">\</text><text x="43.086" y="1.67" class="g">\</text></symbol><symbol id="33"><text x="8.016" y="1.67" class="g">(</text><text x="10.02" y="1.67" class="g">//)</text><text x="14.027999999999999" y="1.67" class="g">|</text><text x="23.045999999999996" y="1.67" class="g">\///</text><text x="33.065999999999995" y="1.67" class="g">|</text><text x="39.077999999999996" y="1.67" class="g">\</text><text x="45.089999999999996" y="1.67" class="g">\</text></symbol><symbol id="34"><text x="6.012" y="1.67" class="g">(</text><text x="8.016" y="1.67" class="g">/</text><text x="10.02" y="1.67" class="g">/)</text><text x="13.026" y="1.67" class="g">_|_</text><text x="17.034" y="1.67" class="g">/</text><text x="21.041999999999998" y="1.67" class="g">)</text><text x="24.048" y="1.67" class="g">//</text><text x="33.065999999999995" y="1.67" class="g">|</text><text x="40.08" y="1.67" class="g">\</text><text x="46.09199999999999" y="1.67" class="g">_\</text></symbol><symbol id="35"><text x="4.008" y="1.67" class="g">(</text><text x="6.012" y="1.67" class="g">//</text><text x="9.017999999999999" y="1.67" class="g">/)</text><text x="12.024" y="1.67" class="g">&#x27;/,_</text><text x="17.034" y="1.67" class="g">_</text><text x="19.037999999999997" y="1.67" class="g">_/</text><text x="23.045999999999996" y="1.67" class="g">(</text><text x="25.05" y="1.67" class="g">;</text><text x="27.054" y="1.67" class="g">-.</text><text x="33.065999999999995" y="1.67" class="g">|</text><text x="38.07599999999999" y="1.67" class="g">_</text><text x="40.08" y="1.67" class="g">_\.-~</text><text x="53.105999999999995" y="1.67" class="g">.-~~~^-.</text></symbol><symbol id="36"><text x="2.004" y="1.67" class="g">((</text><text x="5.01" y="1.67" class="g">/</text><text x="7.013999999999999" y="1.67" class="g">/</text><text x="9.017999999999999" y="1.67" class="g">))</text><text x="12.024" y="1.67" class="g">,-{</text><text x="23.045999999999996" y="1.67" class="g">_</text><text x="30.059999999999995" y="1.67" class="g">`-.|.-~-.</text><text x="50.1" y="1.67" class="g">.~</text><text x="61.12199999999999" y="1.67" class="g">`.</text></symbol><symbol id="37"><text x="1.002" y="1.67" class="g">((</text><text x="4.008" y="1.67" class="g">//</text><text x="7.013999999999999" y="1.67" class="g">/</text><text x="9.017999999999999" y="1.67" class="g">))</text><text x="13.026" y="1.67" class="g">&#x27;/\</text><text x="22.043999999999997" y="1.67" class="g">/</text><text x="40.08" y="1.67" class="g">~-.</text><text x="44.087999999999994" y="1.67" class="g">_</text><text x="46.09199999999999" y="1.67" class="g">.-~</text><text x="55.10999999999999" y="1.67" class="g">.-~^-.</text><text x="63.12599999999999" y="1.67" class="g">\</text></symbol><symbol id="38"><text x="1.002" y="1.67" class="g">((</text><text x="4.008" y="1.67" class="g">///</text><text x="8.016" y="1.67" class="g">))</text><text x="16.032" y="1.67" class="g">`.</text><text x="21.041999999999998" y="1.67" class="g">{</text><text x="34.068" y="1.67" class="g">}</text><text x="54.108" y="1.67" class="g">/</text><text x="61.12199999999999" y="1.67" class="g">\</text><text x="64.128" y="1.67" class="g">\</text></symbol><symbol id="39"><text x="2.004" y="1.67" class="g">((</text><text x="5.01" y="1.67" class="g">/</text><text x="7.013999999999999" y="1.67" class="g">))</text><text x="14.027999999999999" y="1.67" class="g">.----~-.\</text><text x="31.061999999999998" y="1.67" class="g">\-&#x27;</text><text x="51.102" y="1.67" class="g">.~</text><text x="62.123999999999995" y="1.67" class="g">\</text><text x="65.13" y="1.67" class="g">`.</text><text x="68.136" y="1.67" class="g">\^-.</text></symbol><symbol id="40"><text x="13.026" y="1.67" class="g">///.----..&gt;</text><text x="32.064" y="1.67" class="g">\</text><text x="46.09199999999999" y="1.67" class="g">_</text><text x="48.096" y="1.67" class="g">-~</text><text x="63.12599999999999" y="1.67" class="g">`.</text><text x="67.134" y="1.67" class="g">^-`</text><text x="72.14399999999999" y="1.67" class="g">^-_</text></symbol><symbol id="41"><text x="15.029999999999998" y="1.67" class="g">///-._</text><text x="22.043999999999997" y="1.67" class="g">_</text><text x="24.048" y="1.67" class="g">_</text><text x="26.052" y="1.67" class="g">_</text><text x="28.055999999999997" y="1.67" class="g">_</text><text x="30.059999999999995" y="1.67" class="g">_</text><text x="32.064" y="1.67" class="g">_}^</text><text x="36.071999999999996" y="1.67" class="g">-</text><text x="38.07599999999999" y="1.67" class="g">-</text><text x="40.08" y="1.67" class="g">-</text><text x="42.083999999999996" y="1.67" class="g">-</text><text x="44.087999999999994" y="1.67" class="g">~</text><text x="66.13199999999999" y="1.67" class="g">~--</text><text x="70.13999999999999" y="1.67" class="g">,.-~</text></symbol><symbol id="42"><text x="66.13199999999999" y="1.67" class="g">/.-~</text></symbol><symbol id="a"><rect height="26" width="120" x="0" y="0" class="i"></rect></symbol><symbol id="b"><rect height="2.171" width="1.1022" class="j"></rect></symbol></defs><rect height="54.275" width="120" class="a"></rect><g class="l"><svg x="0" y="0" width="7200"><svg x="0"><use xlink:href="#a"></use><use xlink:href="#b" x="-0.0040000000000000036" y="0"></use></svg><svg x="120"><use xlink:href="#a"></use><use xlink:href="#b" x="15.996" y="0"></use><use xlink:href="#1" y="0"></use></svg><svg x="240"><use xlink:href="#a"></use><use xlink:href="#b" x="16.996" y="0"></use><use xlink:href="#2" y="0"></use></svg><svg x="360"><use xlink:href="#a"></use><use xlink:href="#b" x="17.996" y="0"></use><use xlink:href="#3" y="0"></use></svg><svg x="480"><use xlink:href="#a"></use><use xlink:href="#b" x="18.996" y="0"></use><use xlink:href="#4" y="0"></use></svg><svg x="600"><use xlink:href="#a"></use><use xlink:href="#b" x="19.996" y="0"></use><use xlink:href="#5" y="0"></use></svg><svg x="720"><use xlink:href="#a"></use><use xlink:href="#b" x="20.996" y="0"></use><use xlink:href="#6" y="0"></use></svg><svg x="840"><use xlink:href="#a"></use><use xlink:href="#b" x="21.996" y="0"></use><use xlink:href="#7" y="0"></use></svg><svg x="960"><use xlink:href="#a"></use><use xlink:href="#b" x="22.996" y="0"></use><use xlink:href="#7" y="0"></use></svg><svg x="1080"><use xlink:href="#a"></use><use xlink:href="#b" x="23.996" y="0"></use><use xlink:href="#8" y="0"></use></svg><svg x="1200"><use xlink:href="#a"></use><use xlink:href="#b" x="24.996" y="0"></use><use xlink:href="#9" y="0"></use></svg><svg x="1320"><use xlink:href="#a"></use><use xlink:href="#b" x="25.996" y="0"></use><use xlink:href="#9" y="0"></use></svg><svg x="1440"><use xlink:href="#a"></use><use xlink:href="#b" x="26.996" y="0"></use><text x="0" y="1.67" class="f">team@itsfoss</text><text x="12.024" y="1.67" class="g">:</text><text x="13.026" y="1.67" class="h">~</text><text x="14.027999999999999" y="1.67" class="g">$</text><text x="16.032" y="1.67" class="g">cowsay</text><text x="23.045999999999996" y="1.67" class="g">-f</text><text x="26.052" y="1.67" class="g">t</text></svg><svg x="1560"><use xlink:href="#a"></use><use xlink:href="#b" x="27.996" y="0"></use><text x="0" y="1.67" class="f">team@itsfoss</text><text x="12.024" y="1.67" class="g">:</text><text x="13.026" y="1.67" class="h">~</text><text x="14.027999999999999" y="1.67" class="g">$</text><text x="16.032" y="1.67" class="g">cowsay</text><text x="23.045999999999996" y="1.67" class="g">-f</text><text x="26.052" y="1.67" class="g">tu</text></svg><svg x="1680"><use xlink:href="#a"></use><use xlink:href="#b" x="28.996" y="0"></use><use xlink:href="#10" y="0"></use></svg><svg x="1800"><use xlink:href="#a"></use><use xlink:href="#b" x="29.996" y="0"></use><use xlink:href="#10" y="0"></use></svg><svg x="1920"><use xlink:href="#a"></use><use xlink:href="#b" x="30.996" y="0"></use><text x="0" y="1.67" class="f">team@itsfoss</text><text x="12.024" y="1.67" class="g">:</text><text x="13.026" y="1.67" class="h">~</text><text x="14.027999999999999" y="1.67" class="g">$</text><text x="16.032" y="1.67" class="g">cowsay</text><text x="23.045999999999996" y="1.67" class="g">-f</text><text x="26.052" y="1.67" class="g">tux</text><text x="30.059999999999995" y="1.67" class="g">H</text></svg><svg x="2040"><use xlink:href="#a"></use><use xlink:href="#b" x="31.996" y="0"></use><text x="0" y="1.67" class="f">team@itsfoss</text><text x="12.024" y="1.67" class="g">:</text><text x="13.026" y="1.67" class="h">~</text><text x="14.027999999999999" y="1.67" class="g">$</text><text x="16.032" y="1.67" class="g">cowsay</text><text x="23.045999999999996" y="1.67" class="g">-f</text><text x="26.052" y="1.67" class="g">tux</text><text x="30.059999999999995" y="1.67" class="g">He</text></svg><svg x="2160"><use xlink:href="#a"></use><use xlink:href="#b" x="32.996" y="0"></use><text x="0" y="1.67" class="f">team@itsfoss</text><text x="12.024" y="1.67" class="g">:</text><text x="13.026" y="1.67" class="h">~</text><text x="14.027999999999999" y="1.67" class="g">$</text><text x="16.032" y="1.67" class="g">cowsay</text><text x="23.045999999999996" y="1.67" class="g">-f</text><text x="26.052" y="1.67" class="g">tux</text><text x="30.059999999999995" y="1.67" class="g">Hel</text></svg><svg x="2280"><use xlink:href="#a"></use><use xlink:href="#b" x="33.996" y="0"></use><text x="0" y="1.67" class="f">team@itsfoss</text><text x="12.024" y="1.67" class="g">:</text><text x="13.026" y="1.67" class="h">~</text><text x="14.027999999999999" y="1.67" class="g">$</text><text x="16.032" y="1.67" class="g">cowsay</text><text x="23.045999999999996" y="1.67" class="g">-f</text><text x="26.052" y="1.67" class="g">tux</text><text x="30.059999999999995" y="1.67" class="g">Hell</text></svg><svg x="2400"><use xlink:href="#a"></use><use xlink:href="#b" x="34.996" y="0"></use><use xlink:href="#11" y="0"></use></svg><svg x="2520"><use xlink:href="#a"></use><use xlink:href="#b" x="-0.0040000000000000036" y="2.146"></use><use xlink:href="#11" y="0"></use></svg><svg x="2640"><use xlink:href="#a"></use><use xlink:href="#b" x="-0.0040000000000000036" y="30.369"></use><use xlink:href="#11" y="0"></use><use xlink:href="#12" y="2.171"></use><use xlink:href="#13" y="4.342"></use><use xlink:href="#14" y="6.513"></use><use xlink:href="#15" y="8.684"></use><use xlink:href="#16" y="10.855"></use><use xlink:href="#17" y="13.026"></use><use xlink:href="#18" y="15.197"></use><use xlink:href="#19" y="17.368"></use><use xlink:href="#20" y="19.539"></use><use xlink:href="#21" y="21.71"></use><use xlink:href="#22" y="23.880999999999997"></use><use xlink:href="#23" y="26.052"></use></svg><svg x="2760"><use xlink:href="#a"></use><use xlink:href="#b" x="-0.0040000000000000036" y="30.369"></use><use xlink:href="#11" y="0"></use><use xlink:href="#12" y="2.171"></use><use xlink:href="#13" y="4.342"></use><use xlink:href="#14" y="6.513"></use><use xlink:href="#15" y="8.684"></use><use xlink:href="#16" y="10.855"></use><use xlink:href="#17" y="13.026"></use><use xlink:href="#18" y="15.197"></use><use xlink:href="#19" y="17.368"></use><use xlink:href="#20" y="19.539"></use><use xlink:href="#21" y="21.71"></use><use xlink:href="#22" y="23.880999999999997"></use><use xlink:href="#23" y="26.052"></use></svg><svg x="2880"><use xlink:href="#a"></use><use xlink:href="#b" x="15.996" y="30.369"></use><use xlink:href="#11" y="0"></use><use xlink:href="#12" y="2.171"></use><use xlink:href="#13" y="4.342"></use><use xlink:href="#14" y="6.513"></use><use xlink:href="#15" y="8.684"></use><use xlink:href="#16" y="10.855"></use><use xlink:href="#17" y="13.026"></use><use xlink:href="#18" y="15.197"></use><use xlink:href="#19" y="17.368"></use><use xlink:href="#20" y="19.539"></use><use xlink:href="#21" y="21.71"></use><use xlink:href="#22" y="23.880999999999997"></use><use xlink:href="#23" y="26.052"></use><use xlink:href="#1" y="30.394"></use></svg><svg x="3000"><use xlink:href="#a"></use><use xlink:href="#b" x="16.996" y="30.369"></use><use xlink:href="#11" y="0"></use><use xlink:href="#12" y="2.171"></use><use xlink:href="#13" y="4.342"></use><use xlink:href="#14" y="6.513"></use><use xlink:href="#15" y="8.684"></use><use xlink:href="#16" y="10.855"></use><use xlink:href="#17" y="13.026"></use><use xlink:href="#18" y="15.197"></use><use xlink:href="#19" y="17.368"></use><use xlink:href="#20" y="19.539"></use><use xlink:href="#21" y="21.71"></use><use xlink:href="#22" y="23.880999999999997"></use><use xlink:href="#23" y="26.052"></use><use xlink:href="#2" y="30.394"></use></svg><svg x="3120"><use xlink:href="#a"></use><use xlink:href="#b" x="17.996" y="30.369"></use><use xlink:href="#11" y="0"></use><use xlink:href="#12" y="2.171"></use><use xlink:href="#13" y="4.342"></use><use xlink:href="#14" y="6.513"></use><use xlink:href="#15" y="8.684"></use><use xlink:href="#16" y="10.855"></use><use xlink:href="#17" y="13.026"></use><use xlink:href="#18" y="15.197"></use><use xlink:href="#19" y="17.368"></use><use xlink:href="#20" y="19.539"></use><use xlink:href="#21" y="21.71"></use><use xlink:href="#22" y="23.880999999999997"></use><use xlink:href="#23" y="26.052"></use><text x="0" y="32.064" class="f">team@itsfoss</text><text x="12.024" y="32.064" class="g">:</text><text x="13.026" y="32.064" class="h">~</text><text x="14.027999999999999" y="32.064" class="g">$</text><text x="16.032" y="32.064" class="g">cl</text></svg><svg x="3240"><use xlink:href="#a"></use><use xlink:href="#b" x="18.996" y="30.369"></use><use xlink:href="#11" y="0"></use><use xlink:href="#12" y="2.171"></use><use xlink:href="#13" y="4.342"></use><use xlink:href="#14" y="6.513"></use><use xlink:href="#15" y="8.684"></use><use xlink:href="#16" y="10.855"></use><use xlink:href="#17" y="13.026"></use><use xlink:href="#18" y="15.197"></use><use xlink:href="#19" y="17.368"></use><use xlink:href="#20" y="19.539"></use><use xlink:href="#21" y="21.71"></use><use xlink:href="#22" y="23.880999999999997"></use><use xlink:href="#23" y="26.052"></use><text x="0" y="32.064" class="f">team@itsfoss</text><text x="12.024" y="32.064" class="g">:</text><text x="13.026" y="32.064" class="h">~</text><text x="14.027999999999999" y="32.064" class="g">$</text><text x="16.032" y="32.064" class="g">cle</text></svg><svg x="3360"><use xlink:href="#a"></use><use xlink:href="#b" x="19.996" y="30.369"></use><use xlink:href="#11" y="0"></use><use xlink:href="#12" y="2.171"></use><use xlink:href="#13" y="4.342"></use><use xlink:href="#14" y="6.513"></use><use xlink:href="#15" y="8.684"></use><use xlink:href="#16" y="10.855"></use><use xlink:href="#17" y="13.026"></use><use xlink:href="#18" y="15.197"></use><use xlink:href="#19" y="17.368"></use><use xlink:href="#20" y="19.539"></use><use xlink:href="#21" y="21.71"></use><use xlink:href="#22" y="23.880999999999997"></use><use xlink:href="#23" y="26.052"></use><text x="0" y="32.064" class="f">team@itsfoss</text><text x="12.024" y="32.064" class="g">:</text><text x="13.026" y="32.064" class="h">~</text><text x="14.027999999999999" y="32.064" class="g">$</text><text x="16.032" y="32.064" class="g">clea</text></svg><svg x="3480"><use xlink:href="#a"></use><use xlink:href="#b" x="20.996" y="30.369"></use><use xlink:href="#11" y="0"></use><use xlink:href="#12" y="2.171"></use><use xlink:href="#13" y="4.342"></use><use xlink:href="#14" y="6.513"></use><use xlink:href="#15" y="8.684"></use><use xlink:href="#16" y="10.855"></use><use xlink:href="#17" y="13.026"></use><use xlink:href="#18" y="15.197"></use><use xlink:href="#19" y="17.368"></use><use xlink:href="#20" y="19.539"></use><use xlink:href="#21" y="21.71"></use><use xlink:href="#22" y="23.880999999999997"></use><use xlink:href="#23" y="26.052"></use><use xlink:href="#24" y="30.394"></use></svg><svg x="3600"><use xlink:href="#a"></use><use xlink:href="#b" x="-0.0040000000000000036" y="32.54"></use><use xlink:href="#11" y="0"></use><use xlink:href="#12" y="2.171"></use><use xlink:href="#13" y="4.342"></use><use xlink:href="#14" y="6.513"></use><use xlink:href="#15" y="8.684"></use><use xlink:href="#16" y="10.855"></use><use xlink:href="#17" y="13.026"></use><use xlink:href="#18" y="15.197"></use><use xlink:href="#19" y="17.368"></use><use xlink:href="#20" y="19.539"></use><use xlink:href="#21" y="21.71"></use><use xlink:href="#22" y="23.880999999999997"></use><use xlink:href="#23" y="26.052"></use><use xlink:href="#24" y="30.394"></use></svg><svg x="3720"><use xlink:href="#a"></use><use xlink:href="#b" x="-0.0040000000000000036" y="0"></use></svg><svg x="3840"><use xlink:href="#a"></use><use xlink:href="#b" x="-0.0040000000000000036" y="0"></use></svg><svg x="3960"><use xlink:href="#a"></use><use xlink:href="#b" x="15.996" y="0"></use><use xlink:href="#1" y="0"></use></svg><svg x="4080"><use xlink:href="#a"></use><use xlink:href="#b" x="16.996" y="0"></use><use xlink:href="#2" y="0"></use></svg><svg x="4200"><use xlink:href="#a"></use><use xlink:href="#b" x="17.996" y="0"></use><use xlink:href="#3" y="0"></use></svg><svg x="4320"><use xlink:href="#a"></use><use xlink:href="#b" x="18.996" y="0"></use><use xlink:href="#4" y="0"></use></svg><svg x="4440"><use xlink:href="#a"></use><use xlink:href="#b" x="19.996" y="0"></use><use xlink:href="#5" y="0"></use></svg><svg x="4560"><use xlink:href="#a"></use><use xlink:href="#b" x="20.996" y="0"></use><use xlink:href="#6" y="0"></use></svg><svg x="4680"><use xlink:href="#a"></use><use xlink:href="#b" x="21.996" y="0"></use><use xlink:href="#7" y="0"></use></svg><svg x="4800"><use xlink:href="#a"></use><use xlink:href="#b" x="22.996" y="0"></use><use xlink:href="#7" y="0"></use></svg><svg x="4920"><use xlink:href="#a"></use><use xlink:href="#b" x="23.996" y="0"></use><use xlink:href="#8" y="0"></use></svg><svg x="5040"><use xlink:href="#a"></use><use xlink:href="#b" x="24.996" y="0"></use><use xlink:href="#9" y="0"></use></svg><svg x="5160"><use xlink:href="#a"></use><use xlink:href="#b" x="25.996" y="0"></use><use xlink:href="#9" y="0"></use></svg><svg x="5280"><use xlink:href="#a"></use><use xlink:href="#b" x="26.996" y="0"></use><text x="0" y="1.67" class="f">team@itsfoss</text><text x="12.024" y="1.67" class="g">:</text><text x="13.026" y="1.67" class="h">~</text><text x="14.027999999999999" y="1.67" class="g">$</text><text x="16.032" y="1.67" class="g">cowsay</text><text x="23.045999999999996" y="1.67" class="g">-f</text><text x="26.052" y="1.67" class="g">d</text></svg><svg x="5400"><use xlink:href="#a"></use><use xlink:href="#b" x="27.996" y="0"></use><text x="0" y="1.67" class="f">team@itsfoss</text><text x="12.024" y="1.67" class="g">:</text><text x="13.026" y="1.67" class="h">~</text><text x="14.027999999999999" y="1.67" class="g">$</text><text x="16.032" y="1.67" class="g">cowsay</text><text x="23.045999999999996" y="1.67" class="g">-f</text><text x="26.052" y="1.67" class="g">dr</text></svg><svg x="5520"><use xlink:href="#a"></use><use xlink:href="#b" x="28.996" y="0"></use><text x="0" y="1.67" class="f">team@itsfoss</text><text x="12.024" y="1.67" class="g">:</text><text x="13.026" y="1.67" class="h">~</text><text x="14.027999999999999" y="1.67" class="g">$</text><text x="16.032" y="1.67" class="g">cowsay</text><text x="23.045999999999996" y="1.67" class="g">-f</text><text x="26.052" y="1.67" class="g">dra</text></svg><svg x="5640"><use xlink:href="#a"></use><use xlink:href="#b" x="29.996" y="0"></use><text x="0" y="1.67" class="f">team@itsfoss</text><text x="12.024" y="1.67" class="g">:</text><text x="13.026" y="1.67" class="h">~</text><text x="14.027999999999999" y="1.67" class="g">$</text><text x="16.032" y="1.67" class="g">cowsay</text><text x="23.045999999999996" y="1.67" class="g">-f</text><text x="26.052" y="1.67" class="g">drag</text></svg><svg x="5760"><use xlink:href="#a"></use><use xlink:href="#b" x="30.996" y="0"></use><text x="0" y="1.67" class="f">team@itsfoss</text><text x="12.024" y="1.67" class="g">:</text><text x="13.026" y="1.67" class="h">~</text><text x="14.027999999999999" y="1.67" class="g">$</text><text x="16.032" y="1.67" class="g">cowsay</text><text x="23.045999999999996" y="1.67" class="g">-f</text><text x="26.052" y="1.67" class="g">drago</text></svg><svg x="5880"><use xlink:href="#a"></use><use xlink:href="#b" x="31.996" y="0"></use><use xlink:href="#25" y="0"></use></svg><svg x="6000"><use xlink:href="#a"></use><use xlink:href="#b" x="32.996" y="0"></use><use xlink:href="#25" y="0"></use></svg><svg x="6120"><use xlink:href="#a"></use><use xlink:href="#b" x="33.996" y="0"></use><text x="0" y="1.67" class="f">team@itsfoss</text><text x="12.024" y="1.67" class="g">:</text><text x="13.026" y="1.67" class="h">~</text><text x="14.027999999999999" y="1.67" class="g">$</text><text x="16.032" y="1.67" class="g">cowsay</text><text x="23.045999999999996" y="1.67" class="g">-f</text><text x="26.052" y="1.67" class="g">dragon</text><text x="33.065999999999995" y="1.67" class="g">H</text></svg><svg x="6240"><use xlink:href="#a"></use><use xlink:href="#b" x="34.996" y="0"></use><text x="0" y="1.67" class="f">team@itsfoss</text><text x="12.024" y="1.67" class="g">:</text><text x="13.026" y="1.67" class="h">~</text><text x="14.027999999999999" y="1.67" class="g">$</text><text x="16.032" y="1.67" class="g">cowsay</text><text x="23.045999999999996" y="1.67" class="g">-f</text><text x="26.052" y="1.67" class="g">dragon</text><text x="33.065999999999995" y="1.67" class="g">He</text></svg><svg x="6360"><use xlink:href="#a"></use><use xlink:href="#b" x="35.996" y="0"></use><text x="0" y="1.67" class="f">team@itsfoss</text><text x="12.024" y="1.67" class="g">:</text><text x="13.026" y="1.67" class="h">~</text><text x="14.027999999999999" y="1.67" class="g">$</text><text x="16.032" y="1.67" class="g">cowsay</text><text x="23.045999999999996" y="1.67" class="g">-f</text><text x="26.052" y="1.67" class="g">dragon</text><text x="33.065999999999995" y="1.67" class="g">Hel</text></svg><svg x="6480"><use xlink:href="#a"></use><use xlink:href="#b" x="36.996" y="0"></use><text x="0" y="1.67" class="f">team@itsfoss</text><text x="12.024" y="1.67" class="g">:</text><text x="13.026" y="1.67" class="h">~</text><text x="14.027999999999999" y="1.67" class="g">$</text><text x="16.032" y="1.67" class="g">cowsay</text><text x="23.045999999999996" y="1.67" class="g">-f</text><text x="26.052" y="1.67" class="g">dragon</text><text x="33.065999999999995" y="1.67" class="g">Hell</text></svg><svg x="6600"><use xlink:href="#a"></use><use xlink:href="#b" x="37.996" y="0"></use><use xlink:href="#26" y="0"></use></svg><svg x="6720"><use xlink:href="#a"></use><use xlink:href="#b" x="-0.0040000000000000036" y="2.146"></use><use xlink:href="#26" y="0"></use></svg><svg x="6840"><use xlink:href="#a"></use><use xlink:href="#b" x="-0.0040000000000000036" y="43.395"></use><use xlink:href="#26" y="0"></use><use xlink:href="#12" y="2.171"></use><use xlink:href="#13" y="4.342"></use><use xlink:href="#14" y="6.513"></use><use xlink:href="#27" y="8.684"></use><use xlink:href="#28" y="10.855"></use><use xlink:href="#29" y="13.026"></use><use xlink:href="#30" y="15.197"></use><use xlink:href="#31" y="17.368"></use><use xlink:href="#32" y="19.539"></use><use xlink:href="#33" y="21.71"></use><use xlink:href="#34" y="23.880999999999997"></use><use xlink:href="#35" y="26.052"></use><use xlink:href="#36" y="28.223000000000003"></use><use xlink:href="#37" y="30.394"></use><use xlink:href="#38" y="32.565"></use><use xlink:href="#39" y="34.736"></use><use xlink:href="#40" y="36.907000000000004"></use><use xlink:href="#41" y="39.078"></use><use xlink:href="#42" y="41.248999999999995"></use></svg><svg x="6960"><use xlink:href="#a"></use><use xlink:href="#b" x="15.996" y="43.395"></use><use xlink:href="#26" y="0"></use><use xlink:href="#12" y="2.171"></use><use xlink:href="#13" y="4.342"></use><use xlink:href="#14" y="6.513"></use><use xlink:href="#27" y="8.684"></use><use xlink:href="#28" y="10.855"></use><use xlink:href="#29" y="13.026"></use><use xlink:href="#30" y="15.197"></use><use xlink:href="#31" y="17.368"></use><use xlink:href="#32" y="19.539"></use><use xlink:href="#33" y="21.71"></use><use xlink:href="#34" y="23.880999999999997"></use><use xlink:href="#35" y="26.052"></use><use xlink:href="#36" y="28.223000000000003"></use><use xlink:href="#37" y="30.394"></use><use xlink:href="#38" y="32.565"></use><use xlink:href="#39" y="34.736"></use><use xlink:href="#40" y="36.907000000000004"></use><use xlink:href="#41" y="39.078"></use><use xlink:href="#42" y="41.248999999999995"></use><use xlink:href="#1" y="43.42"></use></svg><svg x="7080"><use xlink:href="#a"></use><use xlink:href="#b" x="-0.0040000000000000036" y="47.736999999999995"></use><use xlink:href="#26" y="0"></use><use xlink:href="#12" y="2.171"></use><use xlink:href="#13" y="4.342"></use><use xlink:href="#14" y="6.513"></use><use xlink:href="#27" y="8.684"></use><use xlink:href="#28" y="10.855"></use><use xlink:href="#29" y="13.026"></use><use xlink:href="#30" y="15.197"></use><use xlink:href="#31" y="17.368"></use><use xlink:href="#32" y="19.539"></use><use xlink:href="#33" y="21.71"></use><use xlink:href="#34" y="23.880999999999997"></use><use xlink:href="#35" y="26.052"></use><use xlink:href="#36" y="28.223000000000003"></use><use xlink:href="#37" y="30.394"></use><use xlink:href="#38" y="32.565"></use><use xlink:href="#39" y="34.736"></use><use xlink:href="#40" y="36.907000000000004"></use><use xlink:href="#41" y="39.078"></use><use xlink:href="#42" y="41.248999999999995"></use><use xlink:href="#1" y="43.42"></use><text x="0" y="47.261" class="g">exit</text></svg></svg></g></g></svg></svg>