<svg xmlns="http://www.w3.org/2000/svg" xmlns:xlink="http://www.w3.org/1999/xlink" width="1240" height="385.65"><rect width="1240" height="385.65" rx="5" ry="5" class="a"></rect><svg y="0%" x="0%"><circle cx="20" cy="20" r="6" class="b"></circle><circle cx="40" cy="20" r="6" class="c"></circle><circle cx="60" cy="20" r="6" class="d"></circle></svg><svg height="325.65" viewBox="0 0 120 32.565" width="1200" x="15" xmlns="http://www.w3.org/2000/svg" xmlns:xlink="http://www.w3.org/1999/xlink" y="50"><style>.a{fill:rgb(40,45,53)}.b{fill:#ff5f58}.c{fill:#ffbd2e}.d{fill:#18c132}.e{font-family:Monaco,Consolas,Menlo,'Bitstream Vera Sans Mono','Powerline Symbols',monospace}.f{fill:rgb(168,204,140);font-weight:bold;white-space:pre}.g{fill:rgb(185,192,203);white-space:pre}.h{fill:rgb(113,190,242);font-weight:bold;white-space:pre}.i{fill:transparent}.j{fill:rgb(111,118,131)}.l{animation-duration:9.884597s;animation-iteration-count:infinite;animation-name:k;animation-timing-function:steps(1,end)}@keyframes k{0%{transform:translateX(-0px)}0.1%{transform:translateX(-120px)}7%{transform:translateX(-240px)}8.1%{transform:translateX(-360px)}9.5%{transform:translateX(-480px)}11.7%{transform:translateX(-600px)}13%{transform:translateX(-720px)}15.3%{transform:translateX(-840px)}16.8%{transform:translateX(-960px)}17.7%{transform:translateX(-1080px)}30.4%{transform:translateX(-1200px)}33.3%{transform:translateX(-1320px)}44.9%{transform:translateX(-1440px)}46.5%{transform:translateX(-1560px)}48.4%{transform:translateX(-1680px)}51.6%{transform:translateX(-1800px)}52.6%{transform:translateX(-1920px)}54.6%{transform:translateX(-2040px)}63.1%{transform:translateX(-2160px)}63.3%{transform:translateX(-2280px)}63.3%{transform:translateX(-2400px)}100%{transform:translateX(-2520px)}}</style><g font-family="Monaco, Consolas, Menlo, &#x27;Bitstream Vera Sans Mono&#x27;, &#x27;Powerline Symbols&#x27;, monospace" font-size="1.67" class="e"><defs><symbol id="1"><text x="0" y="1.67" class="f">team@itsfoss</text><text x="12.024" y="1.67" class="g">:</text><text x="13.026" y="1.67" class="h">~</text><text x="14.027999999999999" y="1.67" class="g">$</text></symbol><symbol id="2"><text x="0" y="1.67" class="f">team@itsfoss</text><text x="12.024" y="1.67" class="g">:</text><text x="13.026" y="1.67" class="h">~</text><text x="14.027999999999999" y="1.67" class="g">$</text><text x="16.032" y="1.67" class="g">fortune</text></symbol><symbol id="3"><text x="0" y="1.67" class="f">team@itsfoss</text><text x="12.024" y="1.67" class="g">:</text><text x="13.026" y="1.67" class="h">~</text><text x="14.027999999999999" y="1.67" class="g">$</text><text x="16.032" y="1.67" class="g">fortune</text><text x="24.048" y="1.67" class="g">|</text></symbol><symbol id="4"><text x="0" y="1.67" class="f">team@itsfoss</text><text x="12.024" y="1.67" class="g">:</text><text x="13.026" y="1.67" class="h">~</text><text x="14.027999999999999" y="1.67" class="g">$</text><text x="16.032" y="1.67" class="g">fortune</text><text x="24.048" y="1.67" class="g">|</text><text x="26.052" y="1.67" class="g">cowsay</text></symbol><symbol id="5"><text x="1.002" y="1.67" class="g">_______________________________________</text></symbol><symbol id="6"><text x="0" y="1.67" class="g">/</text><text x="2.004" y="1.67" class="g">The</text><text x="6.012" y="1.67" class="g">lunatic,</text><text x="15.029999999999998" y="1.67" class="g">the</text><text x="19.037999999999997" y="1.67" class="g">lover,</text><text x="26.052" y="1.67" class="g">and</text><text x="30.059999999999995" y="1.67" class="g">the</text><text x="34.068" y="1.67" class="g">poet,</text><text x="40.08" y="1.67" class="g">\</text></symbol><symbol id="7"><text x="0" y="1.67" class="g">|</text><text x="2.004" y="1.67" class="g">Are</text><text x="6.012" y="1.67" class="g">of</text><text x="9.017999999999999" y="1.67" class="g">imagination</text><text x="21.041999999999998" y="1.67" class="g">all</text><text x="25.05" y="1.67" class="g">compact...</text><text x="40.08" y="1.67" class="g">|</text></symbol><symbol id="8"><text x="0" y="1.67" class="g">|</text><text x="40.08" y="1.67" class="g">|</text></symbol><symbol id="9"><text x="0" y="1.67" class="g">|</text><text x="2.004" y="1.67" class="g">--</text><text x="5.01" y="1.67" class="g">Wm.</text><text x="9.017999999999999" y="1.67" class="g">Shakespeare,</text><text x="22.043999999999997" y="1.67" class="g">&quot;A</text><text x="25.05" y="1.67" class="g">Midsummer</text><text x="40.08" y="1.67" class="g">|</text></symbol><symbol id="10"><text x="0" y="1.67" class="g">\</text><text x="2.004" y="1.67" class="g">Night&#x27;s</text><text x="10.02" y="1.67" class="g">Dream&quot;</text><text x="40.08" y="1.67" class="g">/</text></symbol><symbol id="11"><text x="1.002" y="1.67" class="g">---------------------------------------</text></symbol><symbol id="12"><text x="8.016" y="1.67" class="g">\</text><text x="12.024" y="1.67" class="g">^__^</text></symbol><symbol id="13"><text x="9.017999999999999" y="1.67" class="g">\</text><text x="12.024" y="1.67" class="g">(oo)\_______</text></symbol><symbol id="14"><text x="12.024" y="1.67" class="g">(__)\</text><text x="24.048" y="1.67" class="g">)\/\</text></symbol><symbol id="15"><text x="16.032" y="1.67" class="g">||----w</text><text x="24.048" y="1.67" class="g">|</text></symbol><symbol id="16"><text x="16.032" y="1.67" class="g">||</text><text x="23.045999999999996" y="1.67" class="g">||</text></symbol><symbol id="a"><rect height="16" width="120" x="0" y="0" class="i"></rect></symbol><symbol id="b"><rect height="2.171" width="1.1022" class="j"></rect></symbol></defs><rect height="32.565" width="120" class="a"></rect><g class="l"><svg x="0" y="0" width="2640"><svg x="0"><use xlink:href="#a"></use><use xlink:href="#b" x="-0.0040000000000000036" y="0"></use></svg><svg x="120"><use xlink:href="#a"></use><use xlink:href="#b" x="15.996" y="0"></use><use xlink:href="#1" y="0"></use></svg><svg x="240"><use xlink:href="#a"></use><use xlink:href="#b" x="16.996" y="0"></use><text x="0" y="1.67" class="f">team@itsfoss</text><text x="12.024" y="1.67" class="g">:</text><text x="13.026" y="1.67" class="h">~</text><text x="14.027999999999999" y="1.67" class="g">$</text><text x="16.032" y="1.67" class="g">f</text></svg><svg x="360"><use xlink:href="#a"></use><use xlink:href="#b" x="17.996" y="0"></use><text x="0" y="1.67" class="f">team@itsfoss</text><text x="12.024" y="1.67" class="g">:</text><text x="13.026" y="1.67" class="h">~</text><text x="14.027999999999999" y="1.67" class="g">$</text><text x="16.032" y="1.67" class="g">fo</text></svg><svg x="480"><use xlink:href="#a"></use><use xlink:href="#b" x="18.996" y="0"></use><text x="0" y="1.67" class="f">team@itsfoss</text><text x="12.024" y="1.67" class="g">:</text><text x="13.026" y="1.67" class="h">~</text><text x="14.027999999999999" y="1.67" class="g">$</text><text x="16.032" y="1.67" class="g">for</text></svg><svg x="600"><use xlink:href="#a"></use><use xlink:href="#b" x="19.996" y="0"></use><text x="0" y="1.67" class="f">team@itsfoss</text><text x="12.024" y="1.67" class="g">:</text><text x="13.026" y="1.67" class="h">~</text><text x="14.027999999999999" y="1.67" class="g">$</text><text x="16.032" y="1.67" class="g">fort</text></svg><svg x="720"><use xlink:href="#a"></use><use xlink:href="#b" x="20.996" y="0"></use><text x="0" y="1.67" class="f">team@itsfoss</text><text x="12.024" y="1.67" class="g">:</text><text x="13.026" y="1.67" class="h">~</text><text x="14.027999999999999" y="1.67" class="g">$</text><text x="16.032" y="1.67" class="g">fortu</text></svg><svg x="840"><use xlink:href="#a"></use><use xlink:href="#b" x="21.996" y="0"></use><text x="0" y="1.67" class="f">team@itsfoss</text><text x="12.024" y="1.67" class="g">:</text><text x="13.026" y="1.67" class="h">~</text><text x="14.027999999999999" y="1.67" class="g">$</text><text x="16.032" y="1.67" class="g">fortun</text></svg><svg x="960"><use xlink:href="#a"></use><use xlink:href="#b" x="22.996" y="0"></use><use xlink:href="#2" y="0"></use></svg><svg x="1080"><use xlink:href="#a"></use><use xlink:href="#b" x="23.996" y="0"></use><use xlink:href="#2" y="0"></use></svg><svg x="1200"><use xlink:href="#a"></use><use xlink:href="#b" x="24.996" y="0"></use><use xlink:href="#3" y="0"></use></svg><svg x="1320"><use xlink:href="#a"></use><use xlink:href="#b" x="25.996" y="0"></use><use xlink:href="#3" y="0"></use></svg><svg x="1440"><use xlink:href="#a"></use><use xlink:href="#b" x="26.996" y="0"></use><text x="0" y="1.67" class="f">team@itsfoss</text><text x="12.024" y="1.67" class="g">:</text><text x="13.026" y="1.67" class="h">~</text><text x="14.027999999999999" y="1.67" class="g">$</text><text x="16.032" y="1.67" class="g">fortune</text><text x="24.048" y="1.67" class="g">|</text><text x="26.052" y="1.67" class="g">c</text></svg><svg x="1560"><use xlink:href="#a"></use><use xlink:href="#b" x="27.996" y="0"></use><text x="0" y="1.67" class="f">team@itsfoss</text><text x="12.024" y="1.67" class="g">:</text><text x="13.026" y="1.67" class="h">~</text><text x="14.027999999999999" y="1.67" class="g">$</text><text x="16.032" y="1.67" class="g">fortune</text><text x="24.048" y="1.67" class="g">|</text><text x="26.052" y="1.67" class="g">co</text></svg><svg x="1680"><use xlink:href="#a"></use><use xlink:href="#b" x="28.996" y="0"></use><text x="0" y="1.67" class="f">team@itsfoss</text><text x="12.024" y="1.67" class="g">:</text><text x="13.026" y="1.67" class="h">~</text><text x="14.027999999999999" y="1.67" class="g">$</text><text x="16.032" y="1.67" class="g">fortune</text><text x="24.048" y="1.67" class="g">|</text><text x="26.052" y="1.67" class="g">cow</text></svg><svg x="1800"><use xlink:href="#a"></use><use xlink:href="#b" x="29.996" y="0"></use><text x="0" y="1.67" class="f">team@itsfoss</text><text x="12.024" y="1.67" class="g">:</text><text x="13.026" y="1.67" class="h">~</text><text x="14.027999999999999" y="1.67" class="g">$</text><text x="16.032" y="1.67" class="g">fortune</text><text x="24.048" y="1.67" class="g">|</text><text x="26.052" y="1.67" class="g">cows</text></svg><svg x="1920"><use xlink:href="#a"></use><use xlink:href="#b" x="30.996" y="0"></use><text x="0" y="1.67" class="f">team@itsfoss</text><text x="12.024" y="1.67" class="g">:</text><text x="13.026" y="1.67" class="h">~</text><text x="14.027999999999999" y="1.67" class="g">$</text><text x="16.032" y="1.67" class="g">fortune</text><text x="24.048" y="1.67" class="g">|</text><text x="26.052" y="1.67" class="g">cowsa</text></svg><svg x="2040"><use xlink:href="#a"></use><use xlink:href="#b" x="31.996" y="0"></use><use xlink:href="#4" y="0"></use></svg><svg x="2160"><use xlink:href="#a"></use><use xlink:href="#b" x="-0.0040000000000000036" y="2.146"></use><use xlink:href="#4" y="0"></use></svg><svg x="2280"><use xlink:href="#a"></use><use xlink:href="#b" x="-0.0040000000000000036" y="28.198000000000004"></use><use xlink:href="#4" y="0"></use><use xlink:href="#5" y="2.171"></use><use xlink:href="#6" y="4.342"></use><use xlink:href="#7" y="6.513"></use><use xlink:href="#8" y="8.684"></use><use xlink:href="#9" y="10.855"></use><use xlink:href="#10" y="13.026"></use><use xlink:href="#11" y="15.197"></use><use xlink:href="#12" y="17.368"></use><use xlink:href="#13" y="19.539"></use><use xlink:href="#14" y="21.71"></use><use xlink:href="#15" y="23.880999999999997"></use><use xlink:href="#16" y="26.052"></use></svg><svg x="2400"><use xlink:href="#a"></use><use xlink:href="#b" x="15.996" y="28.198000000000004"></use><use xlink:href="#4" y="0"></use><use xlink:href="#5" y="2.171"></use><use xlink:href="#6" y="4.342"></use><use xlink:href="#7" y="6.513"></use><use xlink:href="#8" y="8.684"></use><use xlink:href="#9" y="10.855"></use><use xlink:href="#10" y="13.026"></use><use xlink:href="#11" y="15.197"></use><use xlink:href="#12" y="17.368"></use><use xlink:href="#13" y="19.539"></use><use xlink:href="#14" y="21.71"></use><use xlink:href="#15" y="23.880999999999997"></use><use xlink:href="#16" y="26.052"></use><use xlink:href="#1" y="28.223000000000003"></use></svg><svg x="2520"><use xlink:href="#a"></use><use xlink:href="#b" x="-0.0040000000000000036" y="32.54"></use><use xlink:href="#4" y="0"></use><use xlink:href="#5" y="2.171"></use><use xlink:href="#6" y="4.342"></use><use xlink:href="#7" y="6.513"></use><use xlink:href="#8" y="8.684"></use><use xlink:href="#9" y="10.855"></use><use xlink:href="#10" y="13.026"></use><use xlink:href="#11" y="15.197"></use><use xlink:href="#12" y="17.368"></use><use xlink:href="#13" y="19.539"></use><use xlink:href="#14" y="21.71"></use><use xlink:href="#15" y="23.880999999999997"></use><use xlink:href="#16" y="26.052"></use><use xlink:href="#1" y="28.223000000000003"></use><text x="0" y="32.064" class="g">exit</text></svg></svg></g></g></svg></svg>