<svg xmlns="http://www.w3.org/2000/svg" xmlns:xlink="http://www.w3.org/1999/xlink" width="1240" height="277.1"><rect width="1240" height="277.1" rx="5" ry="5" class="a"></rect><svg y="0%" x="0%"><circle cx="20" cy="20" r="6" class="b"></circle><circle cx="40" cy="20" r="6" class="c"></circle><circle cx="60" cy="20" r="6" class="d"></circle></svg><svg height="217.10000000000002" viewBox="0 0 120 21.71" width="1200" x="15" xmlns="http://www.w3.org/2000/svg" xmlns:xlink="http://www.w3.org/1999/xlink" y="50"><style>.a{fill:rgb(40,45,53)}.b{fill:#ff5f58}.c{fill:#ffbd2e}.d{fill:#18c132}.e{font-family:Monaco,Consolas,Menlo,'Bitstream Vera Sans Mono','Powerline Symbols',monospace}.f{fill:rgb(185,192,203);white-space:pre}.g{fill:rgb(168,204,140);white-space:pre}.h{fill:rgb(113,190,242);white-space:pre}.i{fill:rgb(102,194,205);white-space:pre}.j{fill:transparent}.k{fill:rgb(111,118,131)}.m{animation-duration:18.389718s;animation-iteration-count:infinite;animation-name:l;animation-timing-function:steps(1,end)}.n{fill:rgb(232,131,136);white-space:pre}.o{fill:rgb(85,85,85);white-space:pre}@keyframes l{0%{transform:translateX(-0px)}0.08%{transform:translateX(-120px)}0.09%{transform:translateX(-240px)}0.09%{transform:translateX(-360px)}0.11%{transform:translateX(-480px)}0.11%{transform:translateX(-600px)}2.81%{transform:translateX(-720px)}2.82%{transform:translateX(-840px)}2.84%{transform:translateX(-960px)}4.25%{transform:translateX(-1080px)}4.29%{transform:translateX(-1200px)}5.16%{transform:translateX(-1320px)}5.2%{transform:translateX(-1440px)}9.58%{transform:translateX(-1560px)}9.58%{transform:translateX(-1680px)}13.39%{transform:translateX(-1800px)}13.41%{transform:translateX(-1920px)}13.41%{transform:translateX(-2040px)}13.41%{transform:translateX(-2160px)}13.41%{transform:translateX(-2280px)}13.42%{transform:translateX(-2400px)}13.42%{transform:translateX(-2520px)}26%{transform:translateX(-2640px)}26%{transform:translateX(-2760px)}26.01%{transform:translateX(-2880px)}29.32%{transform:translateX(-3000px)}29.32%{transform:translateX(-3120px)}29.33%{transform:translateX(-3240px)}31.53%{transform:translateX(-3360px)}31.53%{transform:translateX(-3480px)}32.96%{transform:translateX(-3600px)}33.88%{transform:translateX(-3720px)}34.88%{transform:translateX(-3840px)}37.36%{transform:translateX(-3960px)}37.36%{transform:translateX(-4080px)}40.14%{transform:translateX(-4200px)}40.15%{transform:translateX(-4320px)}40.16%{transform:translateX(-4440px)}40.16%{transform:translateX(-4560px)}40.16%{transform:translateX(-4680px)}40.17%{transform:translateX(-4800px)}48.01%{transform:translateX(-4920px)}48.02%{transform:translateX(-5040px)}48.02%{transform:translateX(-5160px)}50.15%{transform:translateX(-5280px)}50.79%{transform:translateX(-5400px)}52.41%{transform:translateX(-5520px)}52.41%{transform:translateX(-5640px)}57.59%{transform:translateX(-5760px)}57.59%{transform:translateX(-5880px)}59.67%{transform:translateX(-6000px)}59.67%{transform:translateX(-6120px)}60.76%{transform:translateX(-6240px)}60.76%{transform:translateX(-6360px)}66.03%{transform:translateX(-6480px)}66.11%{transform:translateX(-6600px)}71.12%{transform:translateX(-6720px)}71.13%{transform:translateX(-6840px)}71.14%{transform:translateX(-6960px)}71.14%{transform:translateX(-7080px)}71.14%{transform:translateX(-7200px)}71.17%{transform:translateX(-7320px)}80.12%{transform:translateX(-7440px)}80.12%{transform:translateX(-7560px)}80.73%{transform:translateX(-7680px)}82.16%{transform:translateX(-7800px)}82.18%{transform:translateX(-7920px)}82.19%{transform:translateX(-8040px)}82.19%{transform:translateX(-8160px)}82.19%{transform:translateX(-8280px)}82.22%{transform:translateX(-8400px)}89.25%{transform:translateX(-8520px)}89.25%{transform:translateX(-8640px)}90.25%{transform:translateX(-8760px)}91.43%{transform:translateX(-8880px)}91.95%{transform:translateX(-9000px)}93.21%{transform:translateX(-9120px)}93.21%{transform:translateX(-9240px)}94.39%{transform:translateX(-9360px)}94.4%{transform:translateX(-9480px)}94.42%{transform:translateX(-9600px)}94.42%{transform:translateX(-9720px)}94.42%{transform:translateX(-9840px)}94.46%{transform:translateX(-9960px)}94.46%{transform:translateX(-10080px)}100%{transform:translateX(-10200px)}}</style><g font-family="Monaco, Consolas, Menlo, &#x27;Bitstream Vera Sans Mono&#x27;, &#x27;Powerline Symbols&#x27;, monospace" font-size="1.67" class="e"><defs><symbol id="1"><text x="0" y="1.67" class="f">Welcome</text><text x="8.016" y="1.67" class="f">to</text><text x="11.021999999999998" y="1.67" class="f">fish,</text><text x="17.034" y="1.67" class="f">the</text><text x="21.041999999999998" y="1.67" class="f">friendly</text><text x="30.059999999999995" y="1.67" class="f">interactive</text><text x="42.083999999999996" y="1.67" class="f">shell</text></symbol><symbol id="2"><text x="0" y="1.67" class="f">Type</text><text x="5.01" y="1.67" class="g">help</text><text x="10.02" y="1.67" class="f">for</text><text x="14.027999999999999" y="1.67" class="f">instructions</text><text x="27.054" y="1.67" class="f">on</text><text x="30.059999999999995" y="1.67" class="f">how</text><text x="34.068" y="1.67" class="f">to</text><text x="37.074" y="1.67" class="f">use</text><text x="41.082" y="1.67" class="f">fish</text></symbol><symbol id="3"><text x="0" y="1.67" class="g">team</text><text x="4.008" y="1.67" class="f">@itsfoss</text><text x="13.026" y="1.67" class="g">~</text><text x="14.027999999999999" y="1.67" class="f">&gt;</text></symbol><symbol id="4"><text x="0" y="1.67" class="g">team</text><text x="4.008" y="1.67" class="f">@itsfoss</text><text x="13.026" y="1.67" class="g">~</text><text x="14.027999999999999" y="1.67" class="f">&gt;</text><text x="16.032" y="1.67" class="h">Downloads/</text></symbol><symbol id="5"><text x="0" y="1.67" class="g">team</text><text x="4.008" y="1.67" class="f">@itsfoss</text><text x="13.026" y="1.67" class="g">~/Downloads</text><text x="24.048" y="1.67" class="f">&gt;</text><text x="26.052" y="1.67" class="i">~</text><text x="27.054" y="1.67" class="h">/Desktop/</text></symbol><symbol id="6"><text x="0" y="1.67" class="g">team</text><text x="4.008" y="1.67" class="f">@itsfoss</text><text x="13.026" y="1.67" class="g">~/Desktop</text><text x="22.043999999999997" y="1.67" class="f">&gt;</text><text x="24.048" y="1.67" class="h">/usr/share/</text></symbol><symbol id="7"><text x="0" y="1.67" class="g">team</text><text x="4.008" y="1.67" class="f">@itsfoss</text><text x="13.026" y="1.67" class="g">/u/share</text><text x="21.041999999999998" y="1.67" class="f">&gt;</text><text x="23.045999999999996" y="1.67" class="h">cd</text></symbol><symbol id="8"><text x="0" y="1.67" class="g">team</text><text x="4.008" y="1.67" class="f">@itsfoss</text><text x="13.026" y="1.67" class="g">~</text><text x="14.027999999999999" y="1.67" class="f">&gt;</text><text x="16.032" y="1.67" class="h">clear</text></symbol><symbol id="a"><rect height="11" width="120" x="0" y="0" class="j"></rect></symbol><symbol id="b"><rect height="2.171" width="1.1022" class="k"></rect></symbol></defs><rect height="21.71" width="120" class="a"></rect><g class="m"><svg x="0" y="0" width="10320"><svg x="0"><use xlink:href="#a"></use><use xlink:href="#b" x="-0.0040000000000000036" y="0"></use></svg><svg x="120"><use xlink:href="#a"></use><use xlink:href="#b" x="-0.0040000000000000036" y="4.317"></use><use xlink:href="#1" y="0"></use><use xlink:href="#2" y="2.171"></use></svg><svg x="240"><use xlink:href="#a"></use><use xlink:href="#b" x="-0.0040000000000000036" y="4.317"></use><use xlink:href="#1" y="0"></use><use xlink:href="#2" y="2.171"></use></svg><svg x="360"><use xlink:href="#a"></use><use xlink:href="#b" x="-0.0040000000000000036" y="4.317"></use><use xlink:href="#1" y="0"></use><use xlink:href="#2" y="2.171"></use></svg><svg x="480"><use xlink:href="#a"></use><use xlink:href="#b" x="-0.0040000000000000036" y="4.317"></use><use xlink:href="#1" y="0"></use><use xlink:href="#2" y="2.171"></use></svg><svg x="600"><use xlink:href="#a"></use><use xlink:href="#b" x="15.996" y="4.317"></use><use xlink:href="#1" y="0"></use><use xlink:href="#2" y="2.171"></use><use xlink:href="#3" y="4.342"></use></svg><svg x="720"><use xlink:href="#a"></use><use xlink:href="#b" x="16.996" y="4.317"></use><use xlink:href="#1" y="0"></use><use xlink:href="#2" y="2.171"></use><text x="0" y="6.012" class="g">team</text><text x="4.008" y="6.012" class="f">@itsfoss</text><text x="13.026" y="6.012" class="g">~</text><text x="14.027999999999999" y="6.012" class="f">&gt;</text><text x="16.032" y="6.012" class="f">D</text></svg><svg x="840"><use xlink:href="#a"></use><use xlink:href="#b" x="16.996" y="4.317"></use><use xlink:href="#1" y="0"></use><use xlink:href="#2" y="2.171"></use><text x="0" y="6.012" class="g">team</text><text x="4.008" y="6.012" class="f">@itsfoss</text><text x="13.026" y="6.012" class="g">~</text><text x="14.027999999999999" y="6.012" class="f">&gt;</text><text x="16.032" y="6.012" class="n">D</text></svg><svg x="960"><use xlink:href="#a"></use><use xlink:href="#b" x="16.996" y="4.317"></use><use xlink:href="#1" y="0"></use><use xlink:href="#2" y="2.171"></use><text x="0" y="6.012" class="g">team</text><text x="4.008" y="6.012" class="f">@itsfoss</text><text x="13.026" y="6.012" class="g">~</text><text x="14.027999999999999" y="6.012" class="f">&gt;</text><text x="16.032" y="6.012" class="n">D</text><text x="17.034" y="6.012" class="o">esktop/</text></svg><svg x="1080"><use xlink:href="#a"></use><use xlink:href="#b" x="17.996" y="4.317"></use><use xlink:href="#1" y="0"></use><use xlink:href="#2" y="2.171"></use><text x="0" y="6.012" class="g">team</text><text x="4.008" y="6.012" class="f">@itsfoss</text><text x="13.026" y="6.012" class="g">~</text><text x="14.027999999999999" y="6.012" class="f">&gt;</text><text x="16.032" y="6.012" class="n">Do</text></svg><svg x="1200"><use xlink:href="#a"></use><use xlink:href="#b" x="17.996" y="4.317"></use><use xlink:href="#1" y="0"></use><use xlink:href="#2" y="2.171"></use><text x="0" y="6.012" class="g">team</text><text x="4.008" y="6.012" class="f">@itsfoss</text><text x="13.026" y="6.012" class="g">~</text><text x="14.027999999999999" y="6.012" class="f">&gt;</text><text x="16.032" y="6.012" class="n">Do</text><text x="18.035999999999998" y="6.012" class="o">cuments/</text></svg><svg x="1320"><use xlink:href="#a"></use><use xlink:href="#b" x="18.996" y="4.317"></use><use xlink:href="#1" y="0"></use><use xlink:href="#2" y="2.171"></use><text x="0" y="6.012" class="g">team</text><text x="4.008" y="6.012" class="f">@itsfoss</text><text x="13.026" y="6.012" class="g">~</text><text x="14.027999999999999" y="6.012" class="f">&gt;</text><text x="16.032" y="6.012" class="n">Dow</text></svg><svg x="1440"><use xlink:href="#a"></use><use xlink:href="#b" x="18.996" y="4.317"></use><use xlink:href="#1" y="0"></use><use xlink:href="#2" y="2.171"></use><text x="0" y="6.012" class="g">team</text><text x="4.008" y="6.012" class="f">@itsfoss</text><text x="13.026" y="6.012" class="g">~</text><text x="14.027999999999999" y="6.012" class="f">&gt;</text><text x="16.032" y="6.012" class="n">Dow</text><text x="19.037999999999997" y="6.012" class="o">nloads/</text></svg><svg x="1560"><use xlink:href="#a"></use><use xlink:href="#b" x="25.996" y="4.317"></use><use xlink:href="#1" y="0"></use><use xlink:href="#2" y="2.171"></use><text x="0" y="6.012" class="g">team</text><text x="4.008" y="6.012" class="f">@itsfoss</text><text x="13.026" y="6.012" class="g">~</text><text x="14.027999999999999" y="6.012" class="f">&gt;</text><text x="16.032" y="6.012" class="f">Downloads/</text></svg><svg x="1680"><use xlink:href="#a"></use><use xlink:href="#b" x="25.996" y="4.317"></use><use xlink:href="#1" y="0"></use><use xlink:href="#2" y="2.171"></use><text x="0" y="6.012" class="g">team</text><text x="4.008" y="6.012" class="f">@itsfoss</text><text x="13.026" y="6.012" class="g">~</text><text x="14.027999999999999" y="6.012" class="f">&gt;</text><text x="16.032" y="6.012" class="h">Downloads/</text><text x="26.052" y="6.012" class="o">agg</text></svg><svg x="1800"><use xlink:href="#a"></use><use xlink:href="#b" x="-0.0040000000000000036" y="6.4879999999999995"></use><use xlink:href="#1" y="0"></use><use xlink:href="#2" y="2.171"></use><use xlink:href="#4" y="4.342"></use></svg><svg x="1920"><use xlink:href="#a"></use><use xlink:href="#b" x="-0.0040000000000000036" y="6.4879999999999995"></use><use xlink:href="#1" y="0"></use><use xlink:href="#2" y="2.171"></use><use xlink:href="#4" y="4.342"></use></svg><svg x="2040"><use xlink:href="#a"></use><use xlink:href="#b" x="-0.0040000000000000036" y="6.4879999999999995"></use><use xlink:href="#1" y="0"></use><use xlink:href="#2" y="2.171"></use><use xlink:href="#4" y="4.342"></use></svg><svg x="2160"><use xlink:href="#a"></use><use xlink:href="#b" x="-0.0040000000000000036" y="6.4879999999999995"></use><use xlink:href="#1" y="0"></use><use xlink:href="#2" y="2.171"></use><use xlink:href="#4" y="4.342"></use></svg><svg x="2280"><use xlink:href="#a"></use><use xlink:href="#b" x="-0.0040000000000000036" y="6.4879999999999995"></use><use xlink:href="#1" y="0"></use><use xlink:href="#2" y="2.171"></use><use xlink:href="#4" y="4.342"></use></svg><svg x="2400"><use xlink:href="#a"></use><use xlink:href="#b" x="-0.0040000000000000036" y="6.4879999999999995"></use><use xlink:href="#1" y="0"></use><use xlink:href="#2" y="2.171"></use><use xlink:href="#4" y="4.342"></use></svg><svg x="2520"><use xlink:href="#a"></use><use xlink:href="#b" x="25.996" y="6.4879999999999995"></use><use xlink:href="#1" y="0"></use><use xlink:href="#2" y="2.171"></use><use xlink:href="#4" y="4.342"></use><text x="0" y="8.183" class="g">team</text><text x="4.008" y="8.183" class="f">@itsfoss</text><text x="13.026" y="8.183" class="g">~/Downloads</text><text x="24.048" y="8.183" class="f">&gt;</text></svg><svg x="2640"><use xlink:href="#a"></use><use xlink:href="#b" x="26.996" y="6.4879999999999995"></use><use xlink:href="#1" y="0"></use><use xlink:href="#2" y="2.171"></use><use xlink:href="#4" y="4.342"></use><text x="0" y="8.183" class="g">team</text><text x="4.008" y="8.183" class="f">@itsfoss</text><text x="13.026" y="8.183" class="g">~/Downloads</text><text x="24.048" y="8.183" class="f">&gt;</text><text x="26.052" y="8.183" class="f">~</text></svg><svg x="2760"><use xlink:href="#a"></use><use xlink:href="#b" x="26.996" y="6.4879999999999995"></use><use xlink:href="#1" y="0"></use><use xlink:href="#2" y="2.171"></use><use xlink:href="#4" y="4.342"></use><text x="0" y="8.183" class="g">team</text><text x="4.008" y="8.183" class="f">@itsfoss</text><text x="13.026" y="8.183" class="g">~/Downloads</text><text x="24.048" y="8.183" class="f">&gt;</text><text x="26.052" y="8.183" class="i">~</text></svg><svg x="2880"><use xlink:href="#a"></use><use xlink:href="#b" x="26.996" y="6.4879999999999995"></use><use xlink:href="#1" y="0"></use><use xlink:href="#2" y="2.171"></use><use xlink:href="#4" y="4.342"></use><text x="0" y="8.183" class="g">team</text><text x="4.008" y="8.183" class="f">@itsfoss</text><text x="13.026" y="8.183" class="g">~/Downloads</text><text x="24.048" y="8.183" class="f">&gt;</text><text x="26.052" y="8.183" class="i">~</text><text x="27.054" y="8.183" class="o">avahi</text></svg><svg x="3000"><use xlink:href="#a"></use><use xlink:href="#b" x="27.996" y="6.4879999999999995"></use><use xlink:href="#1" y="0"></use><use xlink:href="#2" y="2.171"></use><use xlink:href="#4" y="4.342"></use><text x="0" y="8.183" class="g">team</text><text x="4.008" y="8.183" class="f">@itsfoss</text><text x="13.026" y="8.183" class="g">~/Downloads</text><text x="24.048" y="8.183" class="f">&gt;</text><text x="26.052" y="8.183" class="i">~/</text></svg><svg x="3120"><use xlink:href="#a"></use><use xlink:href="#b" x="27.996" y="6.4879999999999995"></use><use xlink:href="#1" y="0"></use><use xlink:href="#2" y="2.171"></use><use xlink:href="#4" y="4.342"></use><text x="0" y="8.183" class="g">team</text><text x="4.008" y="8.183" class="f">@itsfoss</text><text x="13.026" y="8.183" class="g">~/Downloads</text><text x="24.048" y="8.183" class="f">&gt;</text><text x="26.052" y="8.183" class="i">~</text><text x="27.054" y="8.183" class="h">/</text></svg><svg x="3240"><use xlink:href="#a"></use><use xlink:href="#b" x="27.996" y="6.4879999999999995"></use><use xlink:href="#1" y="0"></use><use xlink:href="#2" y="2.171"></use><use xlink:href="#4" y="4.342"></use><text x="0" y="8.183" class="g">team</text><text x="4.008" y="8.183" class="f">@itsfoss</text><text x="13.026" y="8.183" class="g">~/Downloads</text><text x="24.048" y="8.183" class="f">&gt;</text><text x="26.052" y="8.183" class="i">~</text><text x="27.054" y="8.183" class="h">/</text><text x="28.055999999999997" y="8.183" class="o">Desktop/</text></svg><svg x="3360"><use xlink:href="#a"></use><use xlink:href="#b" x="28.996" y="6.4879999999999995"></use><use xlink:href="#1" y="0"></use><use xlink:href="#2" y="2.171"></use><use xlink:href="#4" y="4.342"></use><text x="0" y="8.183" class="g">team</text><text x="4.008" y="8.183" class="f">@itsfoss</text><text x="13.026" y="8.183" class="g">~/Downloads</text><text x="24.048" y="8.183" class="f">&gt;</text><text x="26.052" y="8.183" class="i">~</text><text x="27.054" y="8.183" class="h">/D</text><text x="29.058" y="8.183" class="o">esktop/</text></svg><svg x="3480"><use xlink:href="#a"></use><use xlink:href="#b" x="28.996" y="6.4879999999999995"></use><use xlink:href="#1" y="0"></use><use xlink:href="#2" y="2.171"></use><use xlink:href="#4" y="4.342"></use><text x="0" y="8.183" class="g">team</text><text x="4.008" y="8.183" class="f">@itsfoss</text><text x="13.026" y="8.183" class="g">~/Downloads</text><text x="24.048" y="8.183" class="f">&gt;</text><text x="26.052" y="8.183" class="n">~/D</text><text x="29.058" y="8.183" class="o">esktop/</text></svg><svg x="3600"><use xlink:href="#a"></use><use xlink:href="#b" x="29.996" y="6.4879999999999995"></use><use xlink:href="#1" y="0"></use><use xlink:href="#2" y="2.171"></use><use xlink:href="#4" y="4.342"></use><text x="0" y="8.183" class="g">team</text><text x="4.008" y="8.183" class="f">@itsfoss</text><text x="13.026" y="8.183" class="g">~/Downloads</text><text x="24.048" y="8.183" class="f">&gt;</text><text x="26.052" y="8.183" class="n">~/De</text><text x="30.059999999999995" y="8.183" class="o">sktop/</text></svg><svg x="3720"><use xlink:href="#a"></use><use xlink:href="#b" x="30.996" y="6.4879999999999995"></use><use xlink:href="#1" y="0"></use><use xlink:href="#2" y="2.171"></use><use xlink:href="#4" y="4.342"></use><text x="0" y="8.183" class="g">team</text><text x="4.008" y="8.183" class="f">@itsfoss</text><text x="13.026" y="8.183" class="g">~/Downloads</text><text x="24.048" y="8.183" class="f">&gt;</text><text x="26.052" y="8.183" class="n">~/Des</text><text x="31.061999999999998" y="8.183" class="o">ktop/</text></svg><svg x="3840"><use xlink:href="#a"></use><use xlink:href="#b" x="31.996" y="6.4879999999999995"></use><use xlink:href="#1" y="0"></use><use xlink:href="#2" y="2.171"></use><use xlink:href="#4" y="4.342"></use><text x="0" y="8.183" class="g">team</text><text x="4.008" y="8.183" class="f">@itsfoss</text><text x="13.026" y="8.183" class="g">~/Downloads</text><text x="24.048" y="8.183" class="f">&gt;</text><text x="26.052" y="8.183" class="n">~/Desk</text><text x="32.064" y="8.183" class="o">top/</text></svg><svg x="3960"><use xlink:href="#a"></use><use xlink:href="#b" x="35.996" y="6.4879999999999995"></use><use xlink:href="#1" y="0"></use><use xlink:href="#2" y="2.171"></use><use xlink:href="#4" y="4.342"></use><text x="0" y="8.183" class="g">team</text><text x="4.008" y="8.183" class="f">@itsfoss</text><text x="13.026" y="8.183" class="g">~/Downloads</text><text x="24.048" y="8.183" class="f">&gt;</text><text x="26.052" y="8.183" class="f">~/Desktop/</text></svg><svg x="4080"><use xlink:href="#a"></use><use xlink:href="#b" x="35.996" y="6.4879999999999995"></use><use xlink:href="#1" y="0"></use><use xlink:href="#2" y="2.171"></use><use xlink:href="#4" y="4.342"></use><use xlink:href="#5" y="6.513"></use></svg><svg x="4200"><use xlink:href="#a"></use><use xlink:href="#b" x="-0.0040000000000000036" y="8.658999999999999"></use><use xlink:href="#1" y="0"></use><use xlink:href="#2" y="2.171"></use><use xlink:href="#4" y="4.342"></use><use xlink:href="#5" y="6.513"></use></svg><svg x="4320"><use xlink:href="#a"></use><use xlink:href="#b" x="-0.0040000000000000036" y="8.658999999999999"></use><use xlink:href="#1" y="0"></use><use xlink:href="#2" y="2.171"></use><use xlink:href="#4" y="4.342"></use><use xlink:href="#5" y="6.513"></use></svg><svg x="4440"><use xlink:href="#a"></use><use xlink:href="#b" x="-0.0040000000000000036" y="8.658999999999999"></use><use xlink:href="#1" y="0"></use><use xlink:href="#2" y="2.171"></use><use xlink:href="#4" y="4.342"></use><use xlink:href="#5" y="6.513"></use></svg><svg x="4560"><use xlink:href="#a"></use><use xlink:href="#b" x="-0.0040000000000000036" y="8.658999999999999"></use><use xlink:href="#1" y="0"></use><use xlink:href="#2" y="2.171"></use><use xlink:href="#4" y="4.342"></use><use xlink:href="#5" y="6.513"></use></svg><svg x="4680"><use xlink:href="#a"></use><use xlink:href="#b" x="-0.0040000000000000036" y="8.658999999999999"></use><use xlink:href="#1" y="0"></use><use xlink:href="#2" y="2.171"></use><use xlink:href="#4" y="4.342"></use><use xlink:href="#5" y="6.513"></use></svg><svg x="4800"><use xlink:href="#a"></use><use xlink:href="#b" x="23.996" y="8.658999999999999"></use><use xlink:href="#1" y="0"></use><use xlink:href="#2" y="2.171"></use><use xlink:href="#4" y="4.342"></use><use xlink:href="#5" y="6.513"></use><text x="0" y="10.354" class="g">team</text><text x="4.008" y="10.354" class="f">@itsfoss</text><text x="13.026" y="10.354" class="g">~/Desktop</text><text x="22.043999999999997" y="10.354" class="f">&gt;</text></svg><svg x="4920"><use xlink:href="#a"></use><use xlink:href="#b" x="24.996" y="8.658999999999999"></use><use xlink:href="#1" y="0"></use><use xlink:href="#2" y="2.171"></use><use xlink:href="#4" y="4.342"></use><use xlink:href="#5" y="6.513"></use><text x="0" y="10.354" class="g">team</text><text x="4.008" y="10.354" class="f">@itsfoss</text><text x="13.026" y="10.354" class="g">~/Desktop</text><text x="22.043999999999997" y="10.354" class="f">&gt;</text><text x="24.048" y="10.354" class="f">/</text></svg><svg x="5040"><use xlink:href="#a"></use><use xlink:href="#b" x="24.996" y="8.658999999999999"></use><use xlink:href="#1" y="0"></use><use xlink:href="#2" y="2.171"></use><use xlink:href="#4" y="4.342"></use><use xlink:href="#5" y="6.513"></use><text x="0" y="10.354" class="g">team</text><text x="4.008" y="10.354" class="f">@itsfoss</text><text x="13.026" y="10.354" class="g">~/Desktop</text><text x="22.043999999999997" y="10.354" class="f">&gt;</text><text x="24.048" y="10.354" class="h">/</text></svg><svg x="5160"><use xlink:href="#a"></use><use xlink:href="#b" x="24.996" y="8.658999999999999"></use><use xlink:href="#1" y="0"></use><use xlink:href="#2" y="2.171"></use><use xlink:href="#4" y="4.342"></use><use xlink:href="#5" y="6.513"></use><text x="0" y="10.354" class="g">team</text><text x="4.008" y="10.354" class="f">@itsfoss</text><text x="13.026" y="10.354" class="g">~/Desktop</text><text x="22.043999999999997" y="10.354" class="f">&gt;</text><text x="24.048" y="10.354" class="h">/</text><text x="25.05" y="10.354" class="o">bin/</text></svg><svg x="5280"><use xlink:href="#a"></use><use xlink:href="#b" x="25.996" y="8.658999999999999"></use><use xlink:href="#1" y="0"></use><use xlink:href="#2" y="2.171"></use><use xlink:href="#4" y="4.342"></use><use xlink:href="#5" y="6.513"></use><text x="0" y="10.354" class="g">team</text><text x="4.008" y="10.354" class="f">@itsfoss</text><text x="13.026" y="10.354" class="g">~/Desktop</text><text x="22.043999999999997" y="10.354" class="f">&gt;</text><text x="24.048" y="10.354" class="n">/u</text><text x="26.052" y="10.354" class="o">sr/</text></svg><svg x="5400"><use xlink:href="#a"></use><use xlink:href="#b" x="26.996" y="8.658999999999999"></use><use xlink:href="#1" y="0"></use><use xlink:href="#2" y="2.171"></use><use xlink:href="#4" y="4.342"></use><use xlink:href="#5" y="6.513"></use><text x="0" y="10.354" class="g">team</text><text x="4.008" y="10.354" class="f">@itsfoss</text><text x="13.026" y="10.354" class="g">~/Desktop</text><text x="22.043999999999997" y="10.354" class="f">&gt;</text><text x="24.048" y="10.354" class="n">/us</text><text x="27.054" y="10.354" class="o">r/</text></svg><svg x="5520"><use xlink:href="#a"></use><use xlink:href="#b" x="27.996" y="8.658999999999999"></use><use xlink:href="#1" y="0"></use><use xlink:href="#2" y="2.171"></use><use xlink:href="#4" y="4.342"></use><use xlink:href="#5" y="6.513"></use><text x="0" y="10.354" class="g">team</text><text x="4.008" y="10.354" class="f">@itsfoss</text><text x="13.026" y="10.354" class="g">~/Desktop</text><text x="22.043999999999997" y="10.354" class="f">&gt;</text><text x="24.048" y="10.354" class="n">/usr</text><text x="28.055999999999997" y="10.354" class="o">/</text></svg><svg x="5640"><use xlink:href="#a"></use><use xlink:href="#b" x="27.996" y="8.658999999999999"></use><use xlink:href="#1" y="0"></use><use xlink:href="#2" y="2.171"></use><use xlink:href="#4" y="4.342"></use><use xlink:href="#5" y="6.513"></use><text x="0" y="10.354" class="g">team</text><text x="4.008" y="10.354" class="f">@itsfoss</text><text x="13.026" y="10.354" class="g">~/Desktop</text><text x="22.043999999999997" y="10.354" class="f">&gt;</text><text x="24.048" y="10.354" class="h">/usr</text><text x="28.055999999999997" y="10.354" class="o">/</text></svg><svg x="5760"><use xlink:href="#a"></use><use xlink:href="#b" x="28.996" y="8.658999999999999"></use><use xlink:href="#1" y="0"></use><use xlink:href="#2" y="2.171"></use><use xlink:href="#4" y="4.342"></use><use xlink:href="#5" y="6.513"></use><text x="0" y="10.354" class="g">team</text><text x="4.008" y="10.354" class="f">@itsfoss</text><text x="13.026" y="10.354" class="g">~/Desktop</text><text x="22.043999999999997" y="10.354" class="f">&gt;</text><text x="24.048" y="10.354" class="h">/usr/</text></svg><svg x="5880"><use xlink:href="#a"></use><use xlink:href="#b" x="28.996" y="8.658999999999999"></use><use xlink:href="#1" y="0"></use><use xlink:href="#2" y="2.171"></use><use xlink:href="#4" y="4.342"></use><use xlink:href="#5" y="6.513"></use><text x="0" y="10.354" class="g">team</text><text x="4.008" y="10.354" class="f">@itsfoss</text><text x="13.026" y="10.354" class="g">~/Desktop</text><text x="22.043999999999997" y="10.354" class="f">&gt;</text><text x="24.048" y="10.354" class="h">/usr/</text><text x="29.058" y="10.354" class="o">bin/</text></svg><svg x="6000"><use xlink:href="#a"></use><use xlink:href="#b" x="29.996" y="8.658999999999999"></use><use xlink:href="#1" y="0"></use><use xlink:href="#2" y="2.171"></use><use xlink:href="#4" y="4.342"></use><use xlink:href="#5" y="6.513"></use><text x="0" y="10.354" class="g">team</text><text x="4.008" y="10.354" class="f">@itsfoss</text><text x="13.026" y="10.354" class="g">~/Desktop</text><text x="22.043999999999997" y="10.354" class="f">&gt;</text><text x="24.048" y="10.354" class="n">/usr/s</text></svg><svg x="6120"><use xlink:href="#a"></use><use xlink:href="#b" x="29.996" y="8.658999999999999"></use><use xlink:href="#1" y="0"></use><use xlink:href="#2" y="2.171"></use><use xlink:href="#4" y="4.342"></use><use xlink:href="#5" y="6.513"></use><text x="0" y="10.354" class="g">team</text><text x="4.008" y="10.354" class="f">@itsfoss</text><text x="13.026" y="10.354" class="g">~/Desktop</text><text x="22.043999999999997" y="10.354" class="f">&gt;</text><text x="24.048" y="10.354" class="n">/usr/s</text><text x="30.059999999999995" y="10.354" class="o">bin/</text></svg><svg x="6240"><use xlink:href="#a"></use><use xlink:href="#b" x="30.996" y="8.658999999999999"></use><use xlink:href="#1" y="0"></use><use xlink:href="#2" y="2.171"></use><use xlink:href="#4" y="4.342"></use><use xlink:href="#5" y="6.513"></use><text x="0" y="10.354" class="g">team</text><text x="4.008" y="10.354" class="f">@itsfoss</text><text x="13.026" y="10.354" class="g">~/Desktop</text><text x="22.043999999999997" y="10.354" class="f">&gt;</text><text x="24.048" y="10.354" class="n">/usr/sh</text></svg><svg x="6360"><use xlink:href="#a"></use><use xlink:href="#b" x="30.996" y="8.658999999999999"></use><use xlink:href="#1" y="0"></use><use xlink:href="#2" y="2.171"></use><use xlink:href="#4" y="4.342"></use><use xlink:href="#5" y="6.513"></use><text x="0" y="10.354" class="g">team</text><text x="4.008" y="10.354" class="f">@itsfoss</text><text x="13.026" y="10.354" class="g">~/Desktop</text><text x="22.043999999999997" y="10.354" class="f">&gt;</text><text x="24.048" y="10.354" class="n">/usr/sh</text><text x="31.061999999999998" y="10.354" class="o">are/</text></svg><svg x="6480"><use xlink:href="#a"></use><use xlink:href="#b" x="34.996" y="8.658999999999999"></use><use xlink:href="#1" y="0"></use><use xlink:href="#2" y="2.171"></use><use xlink:href="#4" y="4.342"></use><use xlink:href="#5" y="6.513"></use><use xlink:href="#6" y="8.684"></use></svg><svg x="6600"><use xlink:href="#a"></use><use xlink:href="#b" x="34.996" y="8.658999999999999"></use><use xlink:href="#1" y="0"></use><use xlink:href="#2" y="2.171"></use><use xlink:href="#4" y="4.342"></use><use xlink:href="#5" y="6.513"></use><text x="0" y="10.354" class="g">team</text><text x="4.008" y="10.354" class="f">@itsfoss</text><text x="13.026" y="10.354" class="g">~/Desktop</text><text x="22.043999999999997" y="10.354" class="f">&gt;</text><text x="24.048" y="10.354" class="h">/usr/share/</text><text x="35.06999999999999" y="10.354" class="o">accountsservice/</text></svg><svg x="6720"><use xlink:href="#a"></use><use xlink:href="#b" x="-0.0040000000000000036" y="10.83"></use><use xlink:href="#1" y="0"></use><use xlink:href="#2" y="2.171"></use><use xlink:href="#4" y="4.342"></use><use xlink:href="#5" y="6.513"></use><use xlink:href="#6" y="8.684"></use></svg><svg x="6840"><use xlink:href="#a"></use><use xlink:href="#b" x="-0.0040000000000000036" y="10.83"></use><use xlink:href="#1" y="0"></use><use xlink:href="#2" y="2.171"></use><use xlink:href="#4" y="4.342"></use><use xlink:href="#5" y="6.513"></use><use xlink:href="#6" y="8.684"></use></svg><svg x="6960"><use xlink:href="#a"></use><use xlink:href="#b" x="-0.0040000000000000036" y="10.83"></use><use xlink:href="#1" y="0"></use><use xlink:href="#2" y="2.171"></use><use xlink:href="#4" y="4.342"></use><use xlink:href="#5" y="6.513"></use><use xlink:href="#6" y="8.684"></use></svg><svg x="7080"><use xlink:href="#a"></use><use xlink:href="#b" x="-0.0040000000000000036" y="10.83"></use><use xlink:href="#1" y="0"></use><use xlink:href="#2" y="2.171"></use><use xlink:href="#4" y="4.342"></use><use xlink:href="#5" y="6.513"></use><use xlink:href="#6" y="8.684"></use></svg><svg x="7200"><use xlink:href="#a"></use><use xlink:href="#b" x="-0.0040000000000000036" y="10.83"></use><use xlink:href="#1" y="0"></use><use xlink:href="#2" y="2.171"></use><use xlink:href="#4" y="4.342"></use><use xlink:href="#5" y="6.513"></use><use xlink:href="#6" y="8.684"></use></svg><svg x="7320"><use xlink:href="#a"></use><use xlink:href="#b" x="22.996" y="10.83"></use><use xlink:href="#1" y="0"></use><use xlink:href="#2" y="2.171"></use><use xlink:href="#4" y="4.342"></use><use xlink:href="#5" y="6.513"></use><use xlink:href="#6" y="8.684"></use><text x="0" y="12.525" class="g">team</text><text x="4.008" y="12.525" class="f">@itsfoss</text><text x="13.026" y="12.525" class="g">/u/share</text><text x="21.041999999999998" y="12.525" class="f">&gt;</text></svg><svg x="7440"><use xlink:href="#a"></use><use xlink:href="#b" x="23.996" y="10.83"></use><use xlink:href="#1" y="0"></use><use xlink:href="#2" y="2.171"></use><use xlink:href="#4" y="4.342"></use><use xlink:href="#5" y="6.513"></use><use xlink:href="#6" y="8.684"></use><text x="0" y="12.525" class="g">team</text><text x="4.008" y="12.525" class="f">@itsfoss</text><text x="13.026" y="12.525" class="g">/u/share</text><text x="21.041999999999998" y="12.525" class="f">&gt;</text><text x="23.045999999999996" y="12.525" class="f">c</text></svg><svg x="7560"><use xlink:href="#a"></use><use xlink:href="#b" x="23.996" y="10.83"></use><use xlink:href="#1" y="0"></use><use xlink:href="#2" y="2.171"></use><use xlink:href="#4" y="4.342"></use><use xlink:href="#5" y="6.513"></use><use xlink:href="#6" y="8.684"></use><text x="0" y="12.525" class="g">team</text><text x="4.008" y="12.525" class="f">@itsfoss</text><text x="13.026" y="12.525" class="g">/u/share</text><text x="21.041999999999998" y="12.525" class="f">&gt;</text><text x="23.045999999999996" y="12.525" class="n">c</text><text x="24.048" y="12.525" class="o">lear</text></svg><svg x="7680"><use xlink:href="#a"></use><use xlink:href="#b" x="24.996" y="10.83"></use><use xlink:href="#1" y="0"></use><use xlink:href="#2" y="2.171"></use><use xlink:href="#4" y="4.342"></use><use xlink:href="#5" y="6.513"></use><use xlink:href="#6" y="8.684"></use><use xlink:href="#7" y="10.855"></use></svg><svg x="7800"><use xlink:href="#a"></use><use xlink:href="#b" x="-0.0040000000000000036" y="13.001"></use><use xlink:href="#1" y="0"></use><use xlink:href="#2" y="2.171"></use><use xlink:href="#4" y="4.342"></use><use xlink:href="#5" y="6.513"></use><use xlink:href="#6" y="8.684"></use><use xlink:href="#7" y="10.855"></use></svg><svg x="7920"><use xlink:href="#a"></use><use xlink:href="#b" x="-0.0040000000000000036" y="13.001"></use><use xlink:href="#1" y="0"></use><use xlink:href="#2" y="2.171"></use><use xlink:href="#4" y="4.342"></use><use xlink:href="#5" y="6.513"></use><use xlink:href="#6" y="8.684"></use><use xlink:href="#7" y="10.855"></use></svg><svg x="8040"><use xlink:href="#a"></use><use xlink:href="#b" x="-0.0040000000000000036" y="13.001"></use><use xlink:href="#1" y="0"></use><use xlink:href="#2" y="2.171"></use><use xlink:href="#4" y="4.342"></use><use xlink:href="#5" y="6.513"></use><use xlink:href="#6" y="8.684"></use><use xlink:href="#7" y="10.855"></use></svg><svg x="8160"><use xlink:href="#a"></use><use xlink:href="#b" x="-0.0040000000000000036" y="13.001"></use><use xlink:href="#1" y="0"></use><use xlink:href="#2" y="2.171"></use><use xlink:href="#4" y="4.342"></use><use xlink:href="#5" y="6.513"></use><use xlink:href="#6" y="8.684"></use><use xlink:href="#7" y="10.855"></use></svg><svg x="8280"><use xlink:href="#a"></use><use xlink:href="#b" x="-0.0040000000000000036" y="13.001"></use><use xlink:href="#1" y="0"></use><use xlink:href="#2" y="2.171"></use><use xlink:href="#4" y="4.342"></use><use xlink:href="#5" y="6.513"></use><use xlink:href="#6" y="8.684"></use><use xlink:href="#7" y="10.855"></use></svg><svg x="8400"><use xlink:href="#a"></use><use xlink:href="#b" x="15.996" y="13.001"></use><use xlink:href="#1" y="0"></use><use xlink:href="#2" y="2.171"></use><use xlink:href="#4" y="4.342"></use><use xlink:href="#5" y="6.513"></use><use xlink:href="#6" y="8.684"></use><use xlink:href="#7" y="10.855"></use><use xlink:href="#3" y="13.026"></use></svg><svg x="8520"><use xlink:href="#a"></use><use xlink:href="#b" x="16.996" y="13.001"></use><use xlink:href="#1" y="0"></use><use xlink:href="#2" y="2.171"></use><use xlink:href="#4" y="4.342"></use><use xlink:href="#5" y="6.513"></use><use xlink:href="#6" y="8.684"></use><use xlink:href="#7" y="10.855"></use><text x="0" y="14.696" class="g">team</text><text x="4.008" y="14.696" class="f">@itsfoss</text><text x="13.026" y="14.696" class="g">~</text><text x="14.027999999999999" y="14.696" class="f">&gt;</text><text x="16.032" y="14.696" class="f">c</text><text x="17.034" y="14.696" class="o">d</text></svg><svg x="8640"><use xlink:href="#a"></use><use xlink:href="#b" x="16.996" y="13.001"></use><use xlink:href="#1" y="0"></use><use xlink:href="#2" y="2.171"></use><use xlink:href="#4" y="4.342"></use><use xlink:href="#5" y="6.513"></use><use xlink:href="#6" y="8.684"></use><use xlink:href="#7" y="10.855"></use><text x="0" y="14.696" class="g">team</text><text x="4.008" y="14.696" class="f">@itsfoss</text><text x="13.026" y="14.696" class="g">~</text><text x="14.027999999999999" y="14.696" class="f">&gt;</text><text x="16.032" y="14.696" class="n">c</text><text x="17.034" y="14.696" class="o">d</text></svg><svg x="8760"><use xlink:href="#a"></use><use xlink:href="#b" x="17.996" y="13.001"></use><use xlink:href="#1" y="0"></use><use xlink:href="#2" y="2.171"></use><use xlink:href="#4" y="4.342"></use><use xlink:href="#5" y="6.513"></use><use xlink:href="#6" y="8.684"></use><use xlink:href="#7" y="10.855"></use><text x="0" y="14.696" class="g">team</text><text x="4.008" y="14.696" class="f">@itsfoss</text><text x="13.026" y="14.696" class="g">~</text><text x="14.027999999999999" y="14.696" class="f">&gt;</text><text x="16.032" y="14.696" class="n">cl</text><text x="18.035999999999998" y="14.696" class="o">ear</text></svg><svg x="8880"><use xlink:href="#a"></use><use xlink:href="#b" x="18.996" y="13.001"></use><use xlink:href="#1" y="0"></use><use xlink:href="#2" y="2.171"></use><use xlink:href="#4" y="4.342"></use><use xlink:href="#5" y="6.513"></use><use xlink:href="#6" y="8.684"></use><use xlink:href="#7" y="10.855"></use><text x="0" y="14.696" class="g">team</text><text x="4.008" y="14.696" class="f">@itsfoss</text><text x="13.026" y="14.696" class="g">~</text><text x="14.027999999999999" y="14.696" class="f">&gt;</text><text x="16.032" y="14.696" class="n">cle</text><text x="19.037999999999997" y="14.696" class="o">ar</text></svg><svg x="9000"><use xlink:href="#a"></use><use xlink:href="#b" x="19.996" y="13.001"></use><use xlink:href="#1" y="0"></use><use xlink:href="#2" y="2.171"></use><use xlink:href="#4" y="4.342"></use><use xlink:href="#5" y="6.513"></use><use xlink:href="#6" y="8.684"></use><use xlink:href="#7" y="10.855"></use><text x="0" y="14.696" class="g">team</text><text x="4.008" y="14.696" class="f">@itsfoss</text><text x="13.026" y="14.696" class="g">~</text><text x="14.027999999999999" y="14.696" class="f">&gt;</text><text x="16.032" y="14.696" class="n">clea</text><text x="20.04" y="14.696" class="o">r</text></svg><svg x="9120"><use xlink:href="#a"></use><use xlink:href="#b" x="20.996" y="13.001"></use><use xlink:href="#1" y="0"></use><use xlink:href="#2" y="2.171"></use><use xlink:href="#4" y="4.342"></use><use xlink:href="#5" y="6.513"></use><use xlink:href="#6" y="8.684"></use><use xlink:href="#7" y="10.855"></use><text x="0" y="14.696" class="g">team</text><text x="4.008" y="14.696" class="f">@itsfoss</text><text x="13.026" y="14.696" class="g">~</text><text x="14.027999999999999" y="14.696" class="f">&gt;</text><text x="16.032" y="14.696" class="n">clear</text></svg><svg x="9240"><use xlink:href="#a"></use><use xlink:href="#b" x="20.996" y="13.001"></use><use xlink:href="#1" y="0"></use><use xlink:href="#2" y="2.171"></use><use xlink:href="#4" y="4.342"></use><use xlink:href="#5" y="6.513"></use><use xlink:href="#6" y="8.684"></use><use xlink:href="#7" y="10.855"></use><use xlink:href="#8" y="13.026"></use></svg><svg x="9360"><use xlink:href="#a"></use><use xlink:href="#b" x="-0.0040000000000000036" y="15.171999999999999"></use><use xlink:href="#1" y="0"></use><use xlink:href="#2" y="2.171"></use><use xlink:href="#4" y="4.342"></use><use xlink:href="#5" y="6.513"></use><use xlink:href="#6" y="8.684"></use><use xlink:href="#7" y="10.855"></use><use xlink:href="#8" y="13.026"></use></svg><svg x="9480"><use xlink:href="#a"></use><use xlink:href="#b" x="-0.0040000000000000036" y="15.171999999999999"></use><use xlink:href="#1" y="0"></use><use xlink:href="#2" y="2.171"></use><use xlink:href="#4" y="4.342"></use><use xlink:href="#5" y="6.513"></use><use xlink:href="#6" y="8.684"></use><use xlink:href="#7" y="10.855"></use><use xlink:href="#8" y="13.026"></use></svg><svg x="9600"><use xlink:href="#a"></use><use xlink:href="#b" x="-0.0040000000000000036" y="0"></use></svg><svg x="9720"><use xlink:href="#a"></use><use xlink:href="#b" x="-0.0040000000000000036" y="0"></use></svg><svg x="9840"><use xlink:href="#a"></use><use xlink:href="#b" x="-0.0040000000000000036" y="0"></use></svg><svg x="9960"><use xlink:href="#a"></use><use xlink:href="#b" x="-0.0040000000000000036" y="0"></use></svg><svg x="10080"><use xlink:href="#a"></use><use xlink:href="#b" x="15.996" y="0"></use><use xlink:href="#3" y="0"></use></svg><svg x="10200"><use xlink:href="#a"></use><use xlink:href="#b" x="-0.0040000000000000036" y="2.146"></use><use xlink:href="#3" y="0"></use></svg></svg></g></g></svg></svg>