<svg xmlns="http://www.w3.org/2000/svg" xmlns:xlink="http://www.w3.org/1999/xlink" width="1240" height="494.20000000000005"><rect width="1240" height="494.20000000000005" rx="5" ry="5" class="a"></rect><svg y="0%" x="0%"><circle cx="20" cy="20" r="6" class="b"></circle><circle cx="40" cy="20" r="6" class="c"></circle><circle cx="60" cy="20" r="6" class="d"></circle></svg><svg height="434.20000000000005" viewBox="0 0 120 43.42" width="1200" x="15" xmlns="http://www.w3.org/2000/svg" xmlns:xlink="http://www.w3.org/1999/xlink" y="50"><style>.a{fill:rgb(40,45,53)}.b{fill:#ff5f58}.c{fill:#ffbd2e}.d{fill:#18c132}.e{font-family:Monaco,Consolas,Menlo,'Bitstream Vera Sans Mono','Powerline Symbols',monospace}.f{fill:rgb(185,192,203);white-space:pre}.g{fill:rgb(168,204,140);white-space:pre}.h{fill:rgb(113,190,242);white-space:pre}.i{fill:rgb(102,194,205);white-space:pre}.j{fill:rgb(102,194,205);text-decoration:underline;white-space:pre}.k{fill:rgb(185,192,203)}.l{fill:rgb(40,45,53);white-space:pre}.m{fill:rgb(219,171,121);white-space:pre}.n{fill:rgb(102,194,205)}.o{fill:rgb(255,255,255);font-weight:bold;white-space:pre}.p{fill:rgb(185,192,203);text-decoration:underline;white-space:pre}.q{fill:rgb(113,190,242);font-weight:bold;white-space:pre}.r{fill:rgb(210,144,228);font-weight:bold;white-space:pre}.s{fill:transparent}.t{fill:rgb(111,118,131)}.v{animation-duration:16.815134s;animation-iteration-count:infinite;animation-name:u;animation-timing-function:steps(1,end)}.w{fill:rgb(232,131,136);white-space:pre}@keyframes u{0%{transform:translateX(-0px)}0.09%{transform:translateX(-120px)}0.1%{transform:translateX(-240px)}0.1%{transform:translateX(-360px)}0.13%{transform:translateX(-480px)}9.84%{transform:translateX(-600px)}9.85%{transform:translateX(-720px)}20.88%{transform:translateX(-840px)}20.89%{transform:translateX(-960px)}21.5%{transform:translateX(-1080px)}21.5%{transform:translateX(-1200px)}21.5%{transform:translateX(-1320px)}22.97%{transform:translateX(-1440px)}22.98%{transform:translateX(-1560px)}22.98%{transform:translateX(-1680px)}30.12%{transform:translateX(-1800px)}30.13%{transform:translateX(-1920px)}34.87%{transform:translateX(-2040px)}34.87%{transform:translateX(-2160px)}40.62%{transform:translateX(-2280px)}50.76%{transform:translateX(-2400px)}53.73%{transform:translateX(-2520px)}53.91%{transform:translateX(-2640px)}54.09%{transform:translateX(-2760px)}54.27%{transform:translateX(-2880px)}54.28%{transform:translateX(-3000px)}54.45%{transform:translateX(-3120px)}54.62%{transform:translateX(-3240px)}61.84%{transform:translateX(-3360px)}61.84%{transform:translateX(-3480px)}61.85%{transform:translateX(-3600px)}67.65%{transform:translateX(-3720px)}67.67%{transform:translateX(-3840px)}67.67%{transform:translateX(-3960px)}68.36%{transform:translateX(-4080px)}68.37%{transform:translateX(-4200px)}81.4%{transform:translateX(-4320px)}87.87%{transform:translateX(-4440px)}87.89%{transform:translateX(-4560px)}87.92%{transform:translateX(-4680px)}87.92%{transform:translateX(-4800px)}87.92%{transform:translateX(-4920px)}87.97%{transform:translateX(-5040px)}87.97%{transform:translateX(-5160px)}100%{transform:translateX(-5280px)}100%{transform:translateX(-5400px)}}</style><g font-family="Monaco, Consolas, Menlo, &#x27;Bitstream Vera Sans Mono&#x27;, &#x27;Powerline Symbols&#x27;, monospace" font-size="1.67" class="e"><defs><symbol id="1"><text x="0" y="1.67" class="f">Welcome</text><text x="8.016" y="1.67" class="f">to</text><text x="11.021999999999998" y="1.67" class="f">fish,</text><text x="17.034" y="1.67" class="f">the</text><text x="21.041999999999998" y="1.67" class="f">friendly</text><text x="30.059999999999995" y="1.67" class="f">interactive</text><text x="42.083999999999996" y="1.67" class="f">shell</text></symbol><symbol id="2"><text x="0" y="1.67" class="f">Type</text><text x="5.01" y="1.67" class="g">help</text><text x="10.02" y="1.67" class="f">for</text><text x="14.027999999999999" y="1.67" class="f">instructions</text><text x="27.054" y="1.67" class="f">on</text><text x="30.059999999999995" y="1.67" class="f">how</text><text x="34.068" y="1.67" class="f">to</text><text x="37.074" y="1.67" class="f">use</text><text x="41.082" y="1.67" class="f">fish</text></symbol><symbol id="3"><text x="0" y="1.67" class="g">team</text><text x="4.008" y="1.67" class="f">@itsfoss</text><text x="13.026" y="1.67" class="g">~</text><text x="14.027999999999999" y="1.67" class="f">&gt;</text></symbol><symbol id="4"><text x="0" y="1.67" class="g">team</text><text x="4.008" y="1.67" class="f">@itsfoss</text><text x="13.026" y="1.67" class="g">~</text><text x="14.027999999999999" y="1.67" class="f">&gt;</text><text x="16.032" y="1.67" class="h">asciinema</text><text x="26.052" y="1.67" class="i">rec</text><text x="30.059999999999995" y="1.67" class="j">fish-interactive-history.cast</text></symbol><symbol id="5"><text x="0" y="1.67" class="f">search:</text></symbol><symbol id="6"><rect height="2.171" width="48" x="0" y="0" class="k"></rect><text x="0" y="1.67" class="l">► asciinema rec fish-interactive-history.cast   </text><text x="50.1" y="1.67" class="f">►</text><text x="52.104" y="1.67" class="h">less</text><text x="57.114" y="1.67" class="i">.config/fish/config.fish</text><text x="83.16599999999998" y="1.67" class="f">►</text><text x="85.16999999999999" y="1.67" class="h">man</text><text x="89.178" y="1.67" class="i">man</text></symbol><symbol id="7"><text x="0" y="1.67" class="f">►</text><text x="2.004" y="1.67" class="h">clear</text><text x="50.1" y="1.67" class="f">►</text><text x="52.104" y="1.67" class="h">cleear</text><text x="83.16599999999998" y="1.67" class="f">►</text><text x="85.16999999999999" y="1.67" class="h">sudo</text><text x="90.17999999999999" y="1.67" class="i">pacman</text><text x="97.19399999999999" y="1.67" class="i">-Syu</text></symbol><symbol id="8"><text x="0" y="1.67" class="f">►</text><text x="2.004" y="1.67" class="h">ls</text><text x="50.1" y="1.67" class="f">►</text><text x="52.104" y="1.67" class="h">du</text><text x="83.16599999999998" y="1.67" class="f">►</text><text x="85.16999999999999" y="1.67" class="h">ls</text><text x="88.17599999999999" y="1.67" class="i">-la</text></symbol><symbol id="9"><text x="0" y="1.67" class="f">►</text><text x="2.004" y="1.67" class="h">less</text><text x="7.013999999999999" y="1.67" class="i">.config/fish/config.fish</text><text x="32.064" y="1.67" class="g">|</text><text x="34.068" y="1.67" class="h">grep</text><text x="39.077999999999996" y="1.67" class="i">-E</text><text x="42.083999999999996" y="1.67" class="m">&quot;fish&quot;</text><text x="50.1" y="1.67" class="f">►</text><text x="52.104" y="1.67" class="h">df</text><text x="83.16599999999998" y="1.67" class="f">►</text><text x="85.16999999999999" y="1.67" class="h">rm</text><text x="88.17599999999999" y="1.67" class="i">fish-interactive-history.cast</text></symbol><symbol id="10"><rect height="2.171" width="29" x="0" y="0" class="n"></rect><text x="0" y="1.67" class="o">Search again for more results</text></symbol><symbol id="11"><text x="0" y="1.67" class="f">search:</text><text x="8.016" y="1.67" class="p">m</text></symbol><symbol id="12"><rect height="2.171" width="117" x="0" y="0" class="k"></rect><text x="0" y="1.67" class="l">► asciinema rec fish-interactive-history.cast                                                                        </text></symbol><symbol id="13"><text x="0" y="1.67" class="f">►</text><text x="2.004" y="1.67" class="h">man</text><text x="6.012" y="1.67" class="i">man</text></symbol><symbol id="14"><text x="0" y="1.67" class="f">►</text><text x="2.004" y="1.67" class="h">sudo</text><text x="7.013999999999999" y="1.67" class="i">pacman</text><text x="14.027999999999999" y="1.67" class="i">-Syu</text></symbol><symbol id="15"><text x="0" y="1.67" class="f">►</text><text x="2.004" y="1.67" class="h">rm</text><text x="5.01" y="1.67" class="i">fish-interactive-history.cast</text></symbol><symbol id="16"><text x="0" y="1.67" class="f">►</text><text x="2.004" y="1.67" class="h">svg-term</text><text x="11.021999999999998" y="1.67" class="i">--in</text><text x="16.032" y="1.67" class="i">fish-private-mode.cast</text><text x="39.077999999999996" y="1.67" class="i">--out</text><text x="45.089999999999996" y="1.67" class="i">fish-private-mode.svg</text><text x="67.134" y="1.67" class="i">--window</text><text x="76.15199999999999" y="1.67" class="i">--width</text><text x="84.16799999999999" y="1.67" class="i">120</text><text x="88.17599999999999" y="1.67" class="i">--height</text><text x="97.19399999999999" y="1.67" class="i">15</text><text x="100.2" y="1.67" class="i">--no-optimize</text></symbol><symbol id="17"><text x="0" y="1.67" class="f">►</text><text x="2.004" y="1.67" class="h">asciinema</text><text x="12.024" y="1.67" class="i">rec</text><text x="16.032" y="1.67" class="i">fish-private-mode.cast</text></symbol><symbol id="18"><text x="0" y="1.67" class="f">►</text><text x="2.004" y="1.67" class="h">rm</text><text x="5.01" y="1.67" class="i">fish-private-mode.cast</text></symbol><symbol id="19"><text x="0" y="1.67" class="f">►</text><text x="2.004" y="1.67" class="h">svg-term</text><text x="11.021999999999998" y="1.67" class="i">--in</text><text x="16.032" y="1.67" class="i">fish-navigation-cdh.cast</text><text x="41.082" y="1.67" class="i">--out</text><text x="47.093999999999994" y="1.67" class="i">fish-navigation-cdh.svg</text><text x="71.142" y="1.67" class="i">--window</text><text x="80.16" y="1.67" class="i">--width</text><text x="88.17599999999999" y="1.67" class="i">120</text><text x="92.18399999999998" y="1.67" class="i">--height</text><text x="101.20199999999998" y="1.67" class="i">10</text><text x="104.208" y="1.67" class="i">--no-optimize</text></symbol><symbol id="20"><rect height="2.171" width="47" x="0" y="0" class="n"></rect><text x="0" y="1.67" class="o">…and 4 more rows. Search again for more results</text></symbol><symbol id="21"><text x="0" y="1.67" class="f">search:</text><text x="8.016" y="1.67" class="p">ma</text></symbol><symbol id="22"><rect height="2.171" width="113" x="0" y="0" class="k"></rect><text x="0" y="1.67" class="l">► asciinema rec fish-interactive-history.cast                                                                    </text></symbol><symbol id="23"><text x="0" y="1.67" class="f">►</text><text x="2.004" y="1.67" class="h">asciinema</text><text x="12.024" y="1.67" class="i">rec</text><text x="16.032" y="1.67" class="i">fish-navigation-cdh.cast</text></symbol><symbol id="24"><text x="0" y="1.67" class="f">►</text><text x="2.004" y="1.67" class="h">asciinema</text><text x="12.024" y="1.67" class="i">rec</text><text x="16.032" y="1.67" class="i">fish-navigation.cast</text></symbol><symbol id="25"><text x="0" y="1.67" class="f">►</text><text x="2.004" y="1.67" class="h">svg-term</text><text x="11.021999999999998" y="1.67" class="i">--in</text><text x="16.032" y="1.67" class="i">fish-automatic-cd.cast</text><text x="39.077999999999996" y="1.67" class="i">--out</text><text x="45.089999999999996" y="1.67" class="i">fish-automatic-cd.svg</text><text x="67.134" y="1.67" class="i">--window</text><text x="76.15199999999999" y="1.67" class="i">--width</text><text x="84.16799999999999" y="1.67" class="i">120</text><text x="88.17599999999999" y="1.67" class="i">--height</text><text x="97.19399999999999" y="1.67" class="i">10</text><text x="100.2" y="1.67" class="i">--no-optimize</text></symbol><symbol id="26"><text x="0" y="1.67" class="f">►</text><text x="2.004" y="1.67" class="h">svg-term</text><text x="11.021999999999998" y="1.67" class="i">--in</text><text x="16.032" y="1.67" class="i">fish-automatic-cd.cast</text><text x="39.077999999999996" y="1.67" class="i">--out</text><text x="45.089999999999996" y="1.67" class="i">fish-automatic-cd.svg</text><text x="67.134" y="1.67" class="i">--window</text><text x="76.15199999999999" y="1.67" class="i">width</text><text x="82.164" y="1.67" class="i">120</text><text x="86.172" y="1.67" class="i">height</text><text x="93.18599999999999" y="1.67" class="i">10</text><text x="96.192" y="1.67" class="i">--no-optimize</text></symbol><symbol id="27"><text x="0" y="1.67" class="f">search:</text><text x="8.016" y="1.67" class="p">man</text></symbol><symbol id="28"><text x="0" y="1.67" class="g">team</text><text x="4.008" y="1.67" class="f">@itsfoss</text><text x="13.026" y="1.67" class="g">~</text><text x="14.027999999999999" y="1.67" class="f">&gt;</text><text x="16.032" y="1.67" class="h">man</text><text x="20.04" y="1.67" class="i">man</text></symbol><symbol id="29"><rect height="2.171" width="120" x="0" y="0" class="k"></rect><text x="0" y="1.67" class="l">► man man                                                                                                               </text></symbol><symbol id="30"><text x="0" y="1.67" class="f">►</text><text x="2.004" y="1.67" class="h">svg-term</text><text x="11.021999999999998" y="1.67" class="i">--in</text><text x="16.032" y="1.67" class="i">fish-man-page-completion.cast</text><text x="46.09199999999999" y="1.67" class="i">--out</text><text x="52.104" y="1.67" class="i">fish-man-page-completion.svg</text><text x="81.16199999999999" y="1.67" class="i">--window</text><text x="90.17999999999999" y="1.67" class="i">--width</text><text x="98.196" y="1.67" class="i">120</text><text x="102.204" y="1.67" class="i">--height</text><text x="111.222" y="1.67" class="i">25</text><text x="114.228" y="1.67" class="i">--no-…</text></symbol><symbol id="31"><text x="0" y="1.67" class="f">►</text><text x="2.004" y="1.67" class="h">asciinema</text><text x="12.024" y="1.67" class="i">rec</text><text x="16.032" y="1.67" class="i">fish-man-page-completion.cast</text></symbol><symbol id="32"><text x="0" y="1.67" class="f">►</text><text x="2.004" y="1.67" class="h">asciinema</text><text x="12.024" y="1.67" class="i">fish-man-page-completion</text></symbol><symbol id="33"><text x="0" y="1.67" class="f">►</text><text x="2.004" y="1.67" class="h">pacman</text><text x="9.017999999999999" y="1.67" class="i">-Ss</text><text x="13.026" y="1.67" class="i">asciinema</text></symbol><symbol id="34"><text x="0" y="1.67" class="f">►</text><text x="2.004" y="1.67" class="h">abbr</text><text x="7.013999999999999" y="1.67" class="i">-a</text><text x="10.02" y="1.67" class="i">sch</text><text x="14.027999999999999" y="1.67" class="i">pacman</text><text x="21.041999999999998" y="1.67" class="i">-Ss</text></symbol><symbol id="35"><text x="0" y="1.67" class="f">►</text><text x="2.004" y="1.67" class="h">abbr</text><text x="7.013999999999999" y="1.67" class="i">-a</text><text x="10.02" y="1.67" class="i">pacman</text><text x="17.034" y="1.67" class="i">-Ss</text></symbol><symbol id="36"><rect height="2.171" width="120" x="0" y="0" class="k"></rect><text x="0" y="1.67" class="l">► sudo pacman -Syu                                                                                                      </text></symbol><symbol id="37"><text x="0" y="1.67" class="g">team</text><text x="4.008" y="1.67" class="f">@itsfoss</text><text x="13.026" y="1.67" class="g">~</text><text x="14.027999999999999" y="1.67" class="f">&gt;</text><text x="16.032" y="1.67" class="h">sudo</text><text x="21.041999999999998" y="1.67" class="i">pacman</text><text x="28.055999999999997" y="1.67" class="i">-Syu</text></symbol><symbol id="38"><text x="0" y="1.67" class="g">team</text><text x="4.008" y="1.67" class="f">@itsfoss</text><text x="13.026" y="1.67" class="g">~</text><text x="14.027999999999999" y="1.67" class="f">&gt;</text><text x="16.032" y="1.67" class="h">man</text></symbol><symbol id="39"><text x="0" y="1.67" class="f">search:</text><text x="8.016" y="1.67" class="p">l</text></symbol><symbol id="40"><rect height="2.171" width="120" x="0" y="0" class="k"></rect><text x="0" y="1.67" class="l">► clear                                                                                                                 </text></symbol><symbol id="41"><text x="0" y="1.67" class="f">►</text><text x="2.004" y="1.67" class="h">ls</text></symbol><symbol id="42"><text x="0" y="1.67" class="f">►</text><text x="2.004" y="1.67" class="h">less</text><text x="7.013999999999999" y="1.67" class="i">.config/fish/config.fish</text><text x="32.064" y="1.67" class="g">|</text><text x="34.068" y="1.67" class="h">grep</text><text x="39.077999999999996" y="1.67" class="i">-E</text><text x="42.083999999999996" y="1.67" class="m">&quot;fish&quot;</text></symbol><symbol id="43"><text x="0" y="1.67" class="f">►</text><text x="2.004" y="1.67" class="h">less</text><text x="7.013999999999999" y="1.67" class="i">.config/fish/config.fish</text></symbol><symbol id="44"><text x="0" y="1.67" class="f">►</text><text x="2.004" y="1.67" class="h">cleear</text></symbol><symbol id="45"><text x="0" y="1.67" class="f">►</text><text x="2.004" y="1.67" class="h">ls</text><text x="5.01" y="1.67" class="i">-la</text></symbol><symbol id="46"><text x="0" y="1.67" class="f">►</text><text x="2.004" y="1.67" class="h">cllear</text></symbol><symbol id="47"><text x="0" y="1.67" class="f">►</text><text x="2.004" y="1.67" class="h">Downloads/</text></symbol><symbol id="48"><text x="0" y="1.67" class="g">team</text><text x="4.008" y="1.67" class="f">@itsfoss</text><text x="13.026" y="1.67" class="g">~</text><text x="14.027999999999999" y="1.67" class="f">&gt;</text><text x="16.032" y="1.67" class="h">clear</text></symbol><symbol id="49"><text x="0" y="1.67" class="f">search:</text><text x="8.016" y="1.67" class="p">ls</text></symbol><symbol id="50"><text x="0" y="1.67" class="g">team</text><text x="4.008" y="1.67" class="f">@itsfoss</text><text x="13.026" y="1.67" class="g">~</text><text x="14.027999999999999" y="1.67" class="f">&gt;</text><text x="16.032" y="1.67" class="h">ls</text></symbol><symbol id="51"><text x="0" y="1.67" class="q">Desktop</text><text x="7.013999999999999" y="1.67" class="f">/</text><text x="12.024" y="1.67" class="f">fish-interactive-history.cast</text><text x="43.086" y="1.67" class="r">fish-navigation-cdh.svg</text><text x="68.136" y="1.67" class="q">Pictures</text><text x="76.15199999999999" y="1.67" class="f">/</text><text x="82.164" y="1.67" class="q">Templates</text><text x="91.182" y="1.67" class="f">/</text></symbol><symbol id="52"><text x="0" y="1.67" class="q">Documents</text><text x="9.017999999999999" y="1.67" class="f">/</text><text x="12.024" y="1.67" class="f">fish-navigation.cast</text><text x="43.086" y="1.67" class="r">fish-navigation.svg</text><text x="68.136" y="1.67" class="q">Public</text><text x="74.148" y="1.67" class="f">/</text><text x="82.164" y="1.67" class="q">Videos</text><text x="88.17599999999999" y="1.67" class="f">/</text></symbol><symbol id="53"><text x="0" y="1.67" class="q">Downloads</text><text x="9.017999999999999" y="1.67" class="f">/</text><text x="12.024" y="1.67" class="f">fish-navigation-cdh.cast</text><text x="43.086" y="1.67" class="q">Music</text><text x="48.096" y="1.67" class="f">/</text><text x="68.136" y="1.67" class="q">Screenshots</text><text x="79.158" y="1.67" class="f">/</text></symbol><symbol id="a"><rect height="21" width="120" x="0" y="0" class="s"></rect></symbol><symbol id="b"><rect height="2.171" width="1.1022" class="t"></rect></symbol></defs><rect height="43.42" width="120" class="a"></rect><g class="v"><svg x="0" y="0" width="5520"><svg x="0"><use xlink:href="#a"></use><use xlink:href="#b" x="-0.0040000000000000036" y="0"></use></svg><svg x="120"><use xlink:href="#a"></use><use xlink:href="#b" x="-0.0040000000000000036" y="4.317"></use><use xlink:href="#1" y="0"></use><use xlink:href="#2" y="2.171"></use></svg><svg x="240"><use xlink:href="#a"></use><use xlink:href="#b" x="-0.0040000000000000036" y="4.317"></use><use xlink:href="#1" y="0"></use><use xlink:href="#2" y="2.171"></use></svg><svg x="360"><use xlink:href="#a"></use><use xlink:href="#b" x="-0.0040000000000000036" y="4.317"></use><use xlink:href="#1" y="0"></use><use xlink:href="#2" y="2.171"></use></svg><svg x="480"><use xlink:href="#a"></use><use xlink:href="#b" x="15.996" y="4.317"></use><use xlink:href="#1" y="0"></use><use xlink:href="#2" y="2.171"></use><use xlink:href="#3" y="4.342"></use></svg><svg x="600"><use xlink:href="#a"></use><use xlink:href="#b" x="7.996" y="6.4879999999999995"></use><use xlink:href="#1" y="0"></use><use xlink:href="#2" y="2.171"></use><use xlink:href="#3" y="4.342"></use></svg><svg x="720"><use xlink:href="#a"></use><use xlink:href="#b" x="7.996" y="6.4879999999999995"></use><use xlink:href="#1" y="0"></use><use xlink:href="#2" y="2.171"></use><use xlink:href="#4" y="4.342"></use><use xlink:href="#5" y="6.513"></use><use xlink:href="#6" y="8.684"></use><use xlink:href="#7" y="10.855"></use><use xlink:href="#8" y="13.026"></use><use xlink:href="#9" y="15.197"></use><use xlink:href="#10" y="17.368"></use></svg><svg x="840"><use xlink:href="#a"></use><use xlink:href="#b" x="8.996" y="6.4879999999999995"></use><use xlink:href="#1" y="0"></use><use xlink:href="#2" y="2.171"></use><use xlink:href="#4" y="4.342"></use><use xlink:href="#11" y="6.513"></use><use xlink:href="#6" y="8.684"></use><use xlink:href="#7" y="10.855"></use><use xlink:href="#8" y="13.026"></use><use xlink:href="#9" y="15.197"></use><use xlink:href="#10" y="17.368"></use></svg><svg x="960"><use xlink:href="#a"></use><use xlink:href="#b" x="8.996" y="6.4879999999999995"></use><use xlink:href="#1" y="0"></use><use xlink:href="#2" y="2.171"></use><use xlink:href="#4" y="4.342"></use><use xlink:href="#11" y="6.513"></use><use xlink:href="#12" y="8.684"></use><use xlink:href="#13" y="10.855"></use><use xlink:href="#14" y="13.026"></use><use xlink:href="#15" y="15.197"></use><use xlink:href="#16" y="17.368"></use><use xlink:href="#17" y="19.539"></use><use xlink:href="#18" y="21.71"></use><use xlink:href="#19" y="23.880999999999997"></use><use xlink:href="#20" y="26.052"></use></svg><svg x="1080"><use xlink:href="#a"></use><use xlink:href="#b" x="9.996" y="6.4879999999999995"></use><use xlink:href="#1" y="0"></use><use xlink:href="#2" y="2.171"></use><use xlink:href="#4" y="4.342"></use><use xlink:href="#21" y="6.513"></use><use xlink:href="#12" y="8.684"></use><use xlink:href="#13" y="10.855"></use><use xlink:href="#14" y="13.026"></use><use xlink:href="#15" y="15.197"></use><use xlink:href="#16" y="17.368"></use><use xlink:href="#17" y="19.539"></use><use xlink:href="#18" y="21.71"></use><use xlink:href="#19" y="23.880999999999997"></use><use xlink:href="#20" y="26.052"></use></svg><svg x="1200"><use xlink:href="#a"></use><use xlink:href="#b" x="-0.0040000000000000036" y="19.514000000000003"></use><use xlink:href="#1" y="0"></use><use xlink:href="#2" y="2.171"></use><use xlink:href="#4" y="4.342"></use><use xlink:href="#21" y="6.513"></use><use xlink:href="#22" y="8.684"></use><use xlink:href="#13" y="10.855"></use><use xlink:href="#14" y="13.026"></use><use xlink:href="#17" y="15.197"></use><use xlink:href="#23" y="17.368"></use><use xlink:href="#17" y="19.539"></use><use xlink:href="#18" y="21.71"></use><use xlink:href="#19" y="23.880999999999997"></use><use xlink:href="#20" y="26.052"></use></svg><svg x="1320"><use xlink:href="#a"></use><use xlink:href="#b" x="9.996" y="6.4879999999999995"></use><use xlink:href="#1" y="0"></use><use xlink:href="#2" y="2.171"></use><use xlink:href="#4" y="4.342"></use><use xlink:href="#21" y="6.513"></use><use xlink:href="#22" y="8.684"></use><use xlink:href="#13" y="10.855"></use><use xlink:href="#14" y="13.026"></use><use xlink:href="#17" y="15.197"></use><use xlink:href="#23" y="17.368"></use><use xlink:href="#24" y="19.539"></use><use xlink:href="#25" y="21.71"></use><use xlink:href="#26" y="23.880999999999997"></use><use xlink:href="#20" y="26.052"></use></svg><svg x="1440"><use xlink:href="#a"></use><use xlink:href="#b" x="10.996" y="6.4879999999999995"></use><use xlink:href="#1" y="0"></use><use xlink:href="#2" y="2.171"></use><use xlink:href="#4" y="4.342"></use><use xlink:href="#27" y="6.513"></use><use xlink:href="#22" y="8.684"></use><use xlink:href="#13" y="10.855"></use><use xlink:href="#14" y="13.026"></use><use xlink:href="#17" y="15.197"></use><use xlink:href="#23" y="17.368"></use><use xlink:href="#24" y="19.539"></use><use xlink:href="#25" y="21.71"></use><use xlink:href="#26" y="23.880999999999997"></use><use xlink:href="#20" y="26.052"></use></svg><svg x="1560"><use xlink:href="#a"></use><use xlink:href="#b" x="10.996" y="6.4879999999999995"></use><use xlink:href="#1" y="0"></use><use xlink:href="#2" y="2.171"></use><use xlink:href="#4" y="4.342"></use><use xlink:href="#27" y="6.513"></use><use xlink:href="#22" y="8.684"></use><use xlink:href="#13" y="10.855"></use><use xlink:href="#14" y="13.026"></use><use xlink:href="#17" y="15.197"></use><use xlink:href="#23" y="17.368"></use><use xlink:href="#24" y="19.539"></use><use xlink:href="#25" y="21.71"></use><use xlink:href="#26" y="23.880999999999997"></use><use xlink:href="#20" y="26.052"></use></svg><svg x="1680"><use xlink:href="#a"></use><use xlink:href="#b" x="10.996" y="6.4879999999999995"></use><use xlink:href="#1" y="0"></use><use xlink:href="#2" y="2.171"></use><use xlink:href="#28" y="4.342"></use><use xlink:href="#27" y="6.513"></use><use xlink:href="#29" y="8.684"></use><use xlink:href="#14" y="10.855"></use><use xlink:href="#30" y="13.026"></use><use xlink:href="#31" y="15.197"></use><use xlink:href="#32" y="17.368"></use><use xlink:href="#33" y="19.539"></use><use xlink:href="#34" y="21.71"></use><use xlink:href="#35" y="23.880999999999997"></use><use xlink:href="#20" y="26.052"></use></svg><svg x="1800"><use xlink:href="#a"></use><use xlink:href="#b" x="10.996" y="6.4879999999999995"></use><use xlink:href="#1" y="0"></use><use xlink:href="#2" y="2.171"></use><text x="0" y="6.012" class="g">team</text><text x="4.008" y="6.012" class="f">@itsfoss</text><text x="13.026" y="6.012" class="g">~</text><text x="14.027999999999999" y="6.012" class="f">&gt;</text><text x="16.032" y="6.012" class="f">sudo</text><text x="21.041999999999998" y="6.012" class="f">pacman</text><text x="28.055999999999997" y="6.012" class="f">-Syu</text><use xlink:href="#27" y="6.513"></use><use xlink:href="#13" y="8.684"></use><use xlink:href="#36" y="10.855"></use><use xlink:href="#30" y="13.026"></use><use xlink:href="#31" y="15.197"></use><use xlink:href="#32" y="17.368"></use><use xlink:href="#33" y="19.539"></use><use xlink:href="#34" y="21.71"></use><use xlink:href="#35" y="23.880999999999997"></use><use xlink:href="#20" y="26.052"></use></svg><svg x="1920"><use xlink:href="#a"></use><use xlink:href="#b" x="10.996" y="6.4879999999999995"></use><use xlink:href="#1" y="0"></use><use xlink:href="#2" y="2.171"></use><use xlink:href="#37" y="4.342"></use><use xlink:href="#27" y="6.513"></use><use xlink:href="#13" y="8.684"></use><use xlink:href="#36" y="10.855"></use><use xlink:href="#30" y="13.026"></use><use xlink:href="#31" y="15.197"></use><use xlink:href="#32" y="17.368"></use><use xlink:href="#33" y="19.539"></use><use xlink:href="#34" y="21.71"></use><use xlink:href="#35" y="23.880999999999997"></use><use xlink:href="#20" y="26.052"></use></svg><svg x="2040"><use xlink:href="#a"></use><use xlink:href="#b" x="10.996" y="6.4879999999999995"></use><use xlink:href="#1" y="0"></use><use xlink:href="#2" y="2.171"></use><use xlink:href="#37" y="4.342"></use><use xlink:href="#27" y="6.513"></use><use xlink:href="#13" y="8.684"></use><use xlink:href="#36" y="10.855"></use><use xlink:href="#30" y="13.026"></use><use xlink:href="#31" y="15.197"></use><use xlink:href="#32" y="17.368"></use><use xlink:href="#33" y="19.539"></use><use xlink:href="#34" y="21.71"></use><use xlink:href="#35" y="23.880999999999997"></use><use xlink:href="#20" y="26.052"></use></svg><svg x="2160"><use xlink:href="#a"></use><use xlink:href="#b" x="10.996" y="6.4879999999999995"></use><use xlink:href="#1" y="0"></use><use xlink:href="#2" y="2.171"></use><use xlink:href="#28" y="4.342"></use><use xlink:href="#27" y="6.513"></use><use xlink:href="#29" y="8.684"></use><use xlink:href="#14" y="10.855"></use><use xlink:href="#30" y="13.026"></use><use xlink:href="#31" y="15.197"></use><use xlink:href="#32" y="17.368"></use><use xlink:href="#33" y="19.539"></use><use xlink:href="#34" y="21.71"></use><use xlink:href="#35" y="23.880999999999997"></use><use xlink:href="#20" y="26.052"></use></svg><svg x="2280"><use xlink:href="#a"></use><use xlink:href="#b" x="22.996" y="4.317"></use><use xlink:href="#1" y="0"></use><use xlink:href="#2" y="2.171"></use><use xlink:href="#28" y="4.342"></use></svg><svg x="2400"><use xlink:href="#a"></use><use xlink:href="#b" x="21.996" y="4.317"></use><use xlink:href="#1" y="0"></use><use xlink:href="#2" y="2.171"></use><text x="0" y="6.012" class="g">team</text><text x="4.008" y="6.012" class="f">@itsfoss</text><text x="13.026" y="6.012" class="g">~</text><text x="14.027999999999999" y="6.012" class="f">&gt;</text><text x="16.032" y="6.012" class="h">man</text><text x="20.04" y="6.012" class="i">ma</text></svg><svg x="2520"><use xlink:href="#a"></use><use xlink:href="#b" x="20.996" y="4.317"></use><use xlink:href="#1" y="0"></use><use xlink:href="#2" y="2.171"></use><text x="0" y="6.012" class="g">team</text><text x="4.008" y="6.012" class="f">@itsfoss</text><text x="13.026" y="6.012" class="g">~</text><text x="14.027999999999999" y="6.012" class="f">&gt;</text><text x="16.032" y="6.012" class="h">man</text><text x="20.04" y="6.012" class="i">m</text></svg><svg x="2640"><use xlink:href="#a"></use><use xlink:href="#b" x="19.996" y="4.317"></use><use xlink:href="#1" y="0"></use><use xlink:href="#2" y="2.171"></use><use xlink:href="#38" y="4.342"></use></svg><svg x="2760"><use xlink:href="#a"></use><use xlink:href="#b" x="18.996" y="4.317"></use><use xlink:href="#1" y="0"></use><use xlink:href="#2" y="2.171"></use><use xlink:href="#38" y="4.342"></use></svg><svg x="2880"><use xlink:href="#a"></use><use xlink:href="#b" x="17.996" y="4.317"></use><use xlink:href="#1" y="0"></use><use xlink:href="#2" y="2.171"></use><text x="0" y="6.012" class="g">team</text><text x="4.008" y="6.012" class="f">@itsfoss</text><text x="13.026" y="6.012" class="g">~</text><text x="14.027999999999999" y="6.012" class="f">&gt;</text><text x="16.032" y="6.012" class="h">ma</text></svg><svg x="3000"><use xlink:href="#a"></use><use xlink:href="#b" x="17.996" y="4.317"></use><use xlink:href="#1" y="0"></use><use xlink:href="#2" y="2.171"></use><text x="0" y="6.012" class="g">team</text><text x="4.008" y="6.012" class="f">@itsfoss</text><text x="13.026" y="6.012" class="g">~</text><text x="14.027999999999999" y="6.012" class="f">&gt;</text><text x="16.032" y="6.012" class="w">ma</text></svg><svg x="3120"><use xlink:href="#a"></use><use xlink:href="#b" x="16.996" y="4.317"></use><use xlink:href="#1" y="0"></use><use xlink:href="#2" y="2.171"></use><text x="0" y="6.012" class="g">team</text><text x="4.008" y="6.012" class="f">@itsfoss</text><text x="13.026" y="6.012" class="g">~</text><text x="14.027999999999999" y="6.012" class="f">&gt;</text><text x="16.032" y="6.012" class="w">m</text></svg><svg x="3240"><use xlink:href="#a"></use><use xlink:href="#b" x="15.996" y="4.317"></use><use xlink:href="#1" y="0"></use><use xlink:href="#2" y="2.171"></use><use xlink:href="#3" y="4.342"></use></svg><svg x="3360"><use xlink:href="#a"></use><use xlink:href="#b" x="7.996" y="6.4879999999999995"></use><use xlink:href="#1" y="0"></use><use xlink:href="#2" y="2.171"></use><use xlink:href="#3" y="4.342"></use></svg><svg x="3480"><use xlink:href="#a"></use><use xlink:href="#b" x="7.996" y="6.4879999999999995"></use><use xlink:href="#1" y="0"></use><use xlink:href="#2" y="2.171"></use><text x="0" y="6.012" class="g">team</text><text x="4.008" y="6.012" class="f">@itsfoss</text><text x="13.026" y="6.012" class="g">~</text><text x="14.027999999999999" y="6.012" class="f">&gt;</text><text x="16.032" y="6.012" class="f">asciinema</text><text x="26.052" y="6.012" class="f">rec</text><text x="30.059999999999995" y="6.012" class="f">fish-interactive-history.cast</text><use xlink:href="#5" y="6.513"></use><use xlink:href="#6" y="8.684"></use><use xlink:href="#7" y="10.855"></use><use xlink:href="#8" y="13.026"></use><use xlink:href="#9" y="15.197"></use><use xlink:href="#10" y="17.368"></use></svg><svg x="3600"><use xlink:href="#a"></use><use xlink:href="#b" x="7.996" y="6.4879999999999995"></use><use xlink:href="#1" y="0"></use><use xlink:href="#2" y="2.171"></use><use xlink:href="#4" y="4.342"></use><use xlink:href="#5" y="6.513"></use><use xlink:href="#6" y="8.684"></use><use xlink:href="#7" y="10.855"></use><use xlink:href="#8" y="13.026"></use><use xlink:href="#9" y="15.197"></use><use xlink:href="#10" y="17.368"></use></svg><svg x="3720"><use xlink:href="#a"></use><use xlink:href="#b" x="8.996" y="6.4879999999999995"></use><use xlink:href="#1" y="0"></use><use xlink:href="#2" y="2.171"></use><use xlink:href="#4" y="4.342"></use><use xlink:href="#39" y="6.513"></use><use xlink:href="#6" y="8.684"></use><use xlink:href="#7" y="10.855"></use><use xlink:href="#8" y="13.026"></use><use xlink:href="#9" y="15.197"></use><use xlink:href="#10" y="17.368"></use></svg><svg x="3840"><use xlink:href="#a"></use><use xlink:href="#b" x="8.996" y="6.4879999999999995"></use><use xlink:href="#1" y="0"></use><use xlink:href="#2" y="2.171"></use><text x="0" y="6.012" class="g">team</text><text x="4.008" y="6.012" class="f">@itsfoss</text><text x="13.026" y="6.012" class="g">~</text><text x="14.027999999999999" y="6.012" class="f">&gt;</text><text x="16.032" y="6.012" class="f">clear</text><use xlink:href="#39" y="6.513"></use><use xlink:href="#40" y="8.684"></use><use xlink:href="#41" y="10.855"></use><use xlink:href="#42" y="13.026"></use><use xlink:href="#43" y="15.197"></use><use xlink:href="#44" y="17.368"></use><use xlink:href="#45" y="19.539"></use><use xlink:href="#46" y="21.71"></use><use xlink:href="#47" y="23.880999999999997"></use><use xlink:href="#20" y="26.052"></use></svg><svg x="3960"><use xlink:href="#a"></use><use xlink:href="#b" x="8.996" y="6.4879999999999995"></use><use xlink:href="#1" y="0"></use><use xlink:href="#2" y="2.171"></use><use xlink:href="#48" y="4.342"></use><use xlink:href="#39" y="6.513"></use><use xlink:href="#40" y="8.684"></use><use xlink:href="#41" y="10.855"></use><use xlink:href="#42" y="13.026"></use><use xlink:href="#43" y="15.197"></use><use xlink:href="#44" y="17.368"></use><use xlink:href="#45" y="19.539"></use><use xlink:href="#46" y="21.71"></use><use xlink:href="#47" y="23.880999999999997"></use><use xlink:href="#20" y="26.052"></use></svg><svg x="4080"><use xlink:href="#a"></use><use xlink:href="#b" x="9.996" y="6.4879999999999995"></use><use xlink:href="#1" y="0"></use><use xlink:href="#2" y="2.171"></use><use xlink:href="#48" y="4.342"></use><use xlink:href="#49" y="6.513"></use><use xlink:href="#40" y="8.684"></use><use xlink:href="#41" y="10.855"></use><use xlink:href="#42" y="13.026"></use><use xlink:href="#43" y="15.197"></use><use xlink:href="#44" y="17.368"></use><use xlink:href="#45" y="19.539"></use><use xlink:href="#46" y="21.71"></use><use xlink:href="#47" y="23.880999999999997"></use><use xlink:href="#20" y="26.052"></use></svg><svg x="4200"><use xlink:href="#a"></use><use xlink:href="#b" x="9.996" y="6.4879999999999995"></use><use xlink:href="#1" y="0"></use><use xlink:href="#2" y="2.171"></use><use xlink:href="#50" y="4.342"></use><use xlink:href="#49" y="6.513"></use><rect height="2.171" width="4" x="0" y="8.684" class="k"></rect><text x="0" y="10.354" class="l">► ls</text><text x="6.012" y="10.354" class="f">►</text><text x="8.016" y="10.354" class="h">ls</text><text x="11.021999999999998" y="10.354" class="i">-la</text><text x="16.032" y="10.354" class="f">►</text><text x="18.035999999999998" y="10.354" class="h">ls</text><text x="21.041999999999998" y="10.354" class="i">/home/team/</text><text x="32.064" y="10.354" class="g">␤</text><text x="33.065999999999995" y="10.354" class="i">and</text><text x="37.074" y="10.354" class="h">cd</text><text x="40.08" y="10.354" class="i">Downloads/</text><text x="50.1" y="10.354" class="g">␤</text><text x="51.102" y="10.354" class="i">and</text><text x="55.10999999999999" y="10.354" class="h">cd</text><text x="58.116" y="10.354" class="i">~</text><text x="59.117999999999995" y="10.354" class="i">/Documents/</text><text x="72.14399999999999" y="10.354" class="f">►</text><text x="74.148" y="10.354" class="h">ls</text><text x="76.15199999999999" y="10.354" class="g">␤</text><text x="77.154" y="10.354" class="h">/home/team/</text><text x="90.17999999999999" y="10.354" class="f">►</text><text x="92.18399999999998" y="10.354" class="h">ls</text><text x="94.18799999999999" y="10.354" class="g">␤</text><text x="95.19" y="10.354" class="i">~</text><text x="96.192" y="10.354" class="h">/Downloads/</text><text x="109.218" y="10.354" class="f">►</text><text x="111.222" y="10.354" class="h">ls</text><text x="113.22599999999998" y="10.354" class="g">␤</text><text x="114.228" y="10.354" class="h">-la</text></svg><svg x="4320"><use xlink:href="#a"></use><use xlink:href="#b" x="17.996" y="4.317"></use><use xlink:href="#1" y="0"></use><use xlink:href="#2" y="2.171"></use><use xlink:href="#50" y="4.342"></use></svg><svg x="4440"><use xlink:href="#a"></use><use xlink:href="#b" x="-0.0040000000000000036" y="6.4879999999999995"></use><use xlink:href="#1" y="0"></use><use xlink:href="#2" y="2.171"></use><use xlink:href="#50" y="4.342"></use></svg><svg x="4560"><use xlink:href="#a"></use><use xlink:href="#b" x="-0.0040000000000000036" y="6.4879999999999995"></use><use xlink:href="#1" y="0"></use><use xlink:href="#2" y="2.171"></use><use xlink:href="#50" y="4.342"></use></svg><svg x="4680"><use xlink:href="#a"></use><use xlink:href="#b" x="-0.0040000000000000036" y="13.001"></use><use xlink:href="#1" y="0"></use><use xlink:href="#2" y="2.171"></use><use xlink:href="#50" y="4.342"></use><use xlink:href="#51" y="6.513"></use><use xlink:href="#52" y="8.684"></use><use xlink:href="#53" y="10.855"></use></svg><svg x="4800"><use xlink:href="#a"></use><use xlink:href="#b" x="-0.0040000000000000036" y="13.001"></use><use xlink:href="#1" y="0"></use><use xlink:href="#2" y="2.171"></use><use xlink:href="#50" y="4.342"></use><use xlink:href="#51" y="6.513"></use><use xlink:href="#52" y="8.684"></use><use xlink:href="#53" y="10.855"></use></svg><svg x="4920"><use xlink:href="#a"></use><use xlink:href="#b" x="-0.0040000000000000036" y="13.001"></use><use xlink:href="#1" y="0"></use><use xlink:href="#2" y="2.171"></use><use xlink:href="#50" y="4.342"></use><use xlink:href="#51" y="6.513"></use><use xlink:href="#52" y="8.684"></use><use xlink:href="#53" y="10.855"></use></svg><svg x="5040"><use xlink:href="#a"></use><use xlink:href="#b" x="-0.0040000000000000036" y="13.001"></use><use xlink:href="#1" y="0"></use><use xlink:href="#2" y="2.171"></use><use xlink:href="#50" y="4.342"></use><use xlink:href="#51" y="6.513"></use><use xlink:href="#52" y="8.684"></use><use xlink:href="#53" y="10.855"></use></svg><svg x="5160"><use xlink:href="#a"></use><use xlink:href="#b" x="15.996" y="13.001"></use><use xlink:href="#1" y="0"></use><use xlink:href="#2" y="2.171"></use><use xlink:href="#50" y="4.342"></use><use xlink:href="#51" y="6.513"></use><use xlink:href="#52" y="8.684"></use><use xlink:href="#53" y="10.855"></use><use xlink:href="#3" y="13.026"></use></svg><svg x="5280"><use xlink:href="#a"></use><use xlink:href="#b" x="-0.0040000000000000036" y="15.171999999999999"></use><use xlink:href="#1" y="0"></use><use xlink:href="#2" y="2.171"></use><use xlink:href="#50" y="4.342"></use><use xlink:href="#51" y="6.513"></use><use xlink:href="#52" y="8.684"></use><use xlink:href="#53" y="10.855"></use><use xlink:href="#3" y="13.026"></use></svg><svg x="5400"><use xlink:href="#a"></use><use xlink:href="#b" x="-0.0040000000000000036" y="15.171999999999999"></use><use xlink:href="#1" y="0"></use><use xlink:href="#2" y="2.171"></use><use xlink:href="#50" y="4.342"></use><use xlink:href="#51" y="6.513"></use><use xlink:href="#52" y="8.684"></use><use xlink:href="#53" y="10.855"></use><use xlink:href="#3" y="13.026"></use></svg></svg></g></g></svg></svg>