<svg xmlns="http://www.w3.org/2000/svg" xmlns:xlink="http://www.w3.org/1999/xlink" width="1240" height="385.65"><rect width="1240" height="385.65" rx="5" ry="5" class="a"></rect><svg y="0%" x="0%"><circle cx="20" cy="20" r="6" class="b"></circle><circle cx="40" cy="20" r="6" class="c"></circle><circle cx="60" cy="20" r="6" class="d"></circle></svg><svg height="325.65" viewBox="0 0 120 32.565" width="1200" x="15" xmlns="http://www.w3.org/2000/svg" xmlns:xlink="http://www.w3.org/1999/xlink" y="50"><style>.a{fill:rgb(40,45,53)}.b{fill:#ff5f58}.c{fill:#ffbd2e}.d{fill:#18c132}.e{font-family:Monaco,Consolas,Menlo,'Bitstream Vera Sans Mono','Powerline Symbols',monospace}.f{fill:rgb(185,192,203);white-space:pre}.g{fill:rgb(168,204,140);white-space:pre}.h{fill:rgb(113,190,242);white-space:pre}.i{fill:rgb(85,85,85);white-space:pre}.j{fill:rgb(102,194,205);white-space:pre}.k{fill:transparent}.l{fill:rgb(111,118,131)}.n{animation-duration:9.801095s;animation-iteration-count:infinite;animation-name:m;animation-timing-function:steps(1,end)}.o{fill:rgb(232,131,136);white-space:pre}@keyframes m{0%{transform:translateX(-0px)}0.2%{transform:translateX(-120px)}0.2%{transform:translateX(-240px)}0.2%{transform:translateX(-360px)}12.1%{transform:translateX(-480px)}12.1%{transform:translateX(-600px)}13.2%{transform:translateX(-720px)}14.5%{transform:translateX(-840px)}22.8%{transform:translateX(-960px)}22.8%{transform:translateX(-1080px)}24.9%{transform:translateX(-1200px)}24.9%{transform:translateX(-1320px)}29.7%{transform:translateX(-1440px)}29.7%{transform:translateX(-1560px)}32.7%{transform:translateX(-1680px)}32.7%{transform:translateX(-1800px)}39.1%{transform:translateX(-1920px)}39.3%{transform:translateX(-2040px)}39.3%{transform:translateX(-2160px)}39.3%{transform:translateX(-2280px)}39.4%{transform:translateX(-2400px)}39.4%{transform:translateX(-2520px)}64.5%{transform:translateX(-2640px)}64.5%{transform:translateX(-2760px)}64.6%{transform:translateX(-2880px)}70%{transform:translateX(-3000px)}70%{transform:translateX(-3120px)}70.9%{transform:translateX(-3240px)}71%{transform:translateX(-3360px)}75.8%{transform:translateX(-3480px)}82.9%{transform:translateX(-3600px)}82.9%{transform:translateX(-3720px)}82.9%{transform:translateX(-3840px)}82.9%{transform:translateX(-3960px)}82.9%{transform:translateX(-4080px)}100%{transform:translateX(-4200px)}100%{transform:translateX(-4320px)}100%{transform:translateX(-4440px)}}</style><g font-family="Monaco, Consolas, Menlo, &#x27;Bitstream Vera Sans Mono&#x27;, &#x27;Powerline Symbols&#x27;, monospace" font-size="1.67" class="e"><defs><symbol id="1"><text x="0" y="1.67" class="f">Welcome</text><text x="8.016" y="1.67" class="f">to</text><text x="11.021999999999998" y="1.67" class="f">fish,</text><text x="17.034" y="1.67" class="f">the</text><text x="21.041999999999998" y="1.67" class="f">friendly</text><text x="30.059999999999995" y="1.67" class="f">interactive</text><text x="42.083999999999996" y="1.67" class="f">shell</text></symbol><symbol id="2"><text x="0" y="1.67" class="f">Type</text><text x="5.01" y="1.67" class="g">help</text><text x="10.02" y="1.67" class="f">for</text><text x="14.027999999999999" y="1.67" class="f">instructions</text><text x="27.054" y="1.67" class="f">on</text><text x="30.059999999999995" y="1.67" class="f">how</text><text x="34.068" y="1.67" class="f">to</text><text x="37.074" y="1.67" class="f">use</text><text x="41.082" y="1.67" class="f">fish</text></symbol><symbol id="3"><text x="0" y="1.67" class="g">team</text><text x="4.008" y="1.67" class="f">@itsfoss</text><text x="13.026" y="1.67" class="g">~/Downloads</text><text x="24.048" y="1.67" class="f">&gt;</text></symbol><symbol id="4"><text x="0" y="1.67" class="g">team</text><text x="4.008" y="1.67" class="f">@itsfoss</text><text x="13.026" y="1.67" class="g">~/Downloads</text><text x="24.048" y="1.67" class="f">&gt;</text><text x="26.052" y="1.67" class="h">fish</text><text x="31.061999999999998" y="1.67" class="i">-P</text></symbol><symbol id="5"><text x="0" y="1.67" class="g">team</text><text x="4.008" y="1.67" class="f">@itsfoss</text><text x="13.026" y="1.67" class="g">~/Downloads</text><text x="24.048" y="1.67" class="f">&gt;</text><text x="26.052" y="1.67" class="h">fish</text><text x="31.061999999999998" y="1.67" class="j">-P</text></symbol><symbol id="6"><text x="0" y="1.67" class="f">fish</text><text x="5.01" y="1.67" class="f">is</text><text x="8.016" y="1.67" class="f">running</text><text x="16.032" y="1.67" class="f">in</text><text x="19.037999999999997" y="1.67" class="f">private</text><text x="27.054" y="1.67" class="f">mode,</text><text x="33.065999999999995" y="1.67" class="f">history</text><text x="41.082" y="1.67" class="f">will</text><text x="46.09199999999999" y="1.67" class="f">not</text><text x="50.1" y="1.67" class="f">be</text><text x="53.105999999999995" y="1.67" class="f">persisted.</text></symbol><symbol id="7"><text x="0" y="1.67" class="g">team</text><text x="4.008" y="1.67" class="f">@itsfoss</text><text x="13.026" y="1.67" class="g">~/Downloads</text><text x="24.048" y="1.67" class="f">&gt;</text><text x="26.052" y="1.67" class="h">exit</text></symbol><symbol id="a"><rect height="16" width="120" x="0" y="0" class="k"></rect></symbol><symbol id="b"><rect height="2.171" width="1.1022" class="l"></rect></symbol></defs><rect height="32.565" width="120" class="a"></rect><g class="n"><svg x="0" y="0" width="4560"><svg x="0"><use xlink:href="#a"></use><use xlink:href="#b" x="-0.0040000000000000036" y="0"></use></svg><svg x="120"><use xlink:href="#a"></use><use xlink:href="#b" x="-0.0040000000000000036" y="4.317"></use><use xlink:href="#1" y="0"></use><use xlink:href="#2" y="2.171"></use></svg><svg x="240"><use xlink:href="#a"></use><use xlink:href="#b" x="-0.0040000000000000036" y="4.317"></use><use xlink:href="#1" y="0"></use><use xlink:href="#2" y="2.171"></use></svg><svg x="360"><use xlink:href="#a"></use><use xlink:href="#b" x="25.996" y="4.317"></use><use xlink:href="#1" y="0"></use><use xlink:href="#2" y="2.171"></use><use xlink:href="#3" y="4.342"></use></svg><svg x="480"><use xlink:href="#a"></use><use xlink:href="#b" x="26.996" y="4.317"></use><use xlink:href="#1" y="0"></use><use xlink:href="#2" y="2.171"></use><text x="0" y="6.012" class="g">team</text><text x="4.008" y="6.012" class="f">@itsfoss</text><text x="13.026" y="6.012" class="g">~/Downloads</text><text x="24.048" y="6.012" class="f">&gt;</text><text x="26.052" y="6.012" class="f">f</text></svg><svg x="600"><use xlink:href="#a"></use><use xlink:href="#b" x="26.996" y="4.317"></use><use xlink:href="#1" y="0"></use><use xlink:href="#2" y="2.171"></use><text x="0" y="6.012" class="g">team</text><text x="4.008" y="6.012" class="f">@itsfoss</text><text x="13.026" y="6.012" class="g">~/Downloads</text><text x="24.048" y="6.012" class="f">&gt;</text><text x="26.052" y="6.012" class="o">f</text><text x="27.054" y="6.012" class="i">ish</text><text x="31.061999999999998" y="6.012" class="i">-P</text></svg><svg x="720"><use xlink:href="#a"></use><use xlink:href="#b" x="27.996" y="4.317"></use><use xlink:href="#1" y="0"></use><use xlink:href="#2" y="2.171"></use><text x="0" y="6.012" class="g">team</text><text x="4.008" y="6.012" class="f">@itsfoss</text><text x="13.026" y="6.012" class="g">~/Downloads</text><text x="24.048" y="6.012" class="f">&gt;</text><text x="26.052" y="6.012" class="o">fi</text><text x="28.055999999999997" y="6.012" class="i">sh</text><text x="31.061999999999998" y="6.012" class="i">-P</text></svg><svg x="840"><use xlink:href="#a"></use><use xlink:href="#b" x="28.996" y="4.317"></use><use xlink:href="#1" y="0"></use><use xlink:href="#2" y="2.171"></use><text x="0" y="6.012" class="g">team</text><text x="4.008" y="6.012" class="f">@itsfoss</text><text x="13.026" y="6.012" class="g">~/Downloads</text><text x="24.048" y="6.012" class="f">&gt;</text><text x="26.052" y="6.012" class="o">fis</text><text x="29.058" y="6.012" class="i">h</text><text x="31.061999999999998" y="6.012" class="i">-P</text></svg><svg x="960"><use xlink:href="#a"></use><use xlink:href="#b" x="29.996" y="4.317"></use><use xlink:href="#1" y="0"></use><use xlink:href="#2" y="2.171"></use><text x="0" y="6.012" class="g">team</text><text x="4.008" y="6.012" class="f">@itsfoss</text><text x="13.026" y="6.012" class="g">~/Downloads</text><text x="24.048" y="6.012" class="f">&gt;</text><text x="26.052" y="6.012" class="o">fish</text><text x="31.061999999999998" y="6.012" class="i">-P</text></svg><svg x="1080"><use xlink:href="#a"></use><use xlink:href="#b" x="29.996" y="4.317"></use><use xlink:href="#1" y="0"></use><use xlink:href="#2" y="2.171"></use><use xlink:href="#4" y="4.342"></use></svg><svg x="1200"><use xlink:href="#a"></use><use xlink:href="#b" x="30.996" y="4.317"></use><use xlink:href="#1" y="0"></use><use xlink:href="#2" y="2.171"></use><use xlink:href="#4" y="4.342"></use></svg><svg x="1320"><use xlink:href="#a"></use><use xlink:href="#b" x="30.996" y="4.317"></use><use xlink:href="#1" y="0"></use><use xlink:href="#2" y="2.171"></use><use xlink:href="#4" y="4.342"></use></svg><svg x="1440"><use xlink:href="#a"></use><use xlink:href="#b" x="31.996" y="4.317"></use><use xlink:href="#1" y="0"></use><use xlink:href="#2" y="2.171"></use><text x="0" y="6.012" class="g">team</text><text x="4.008" y="6.012" class="f">@itsfoss</text><text x="13.026" y="6.012" class="g">~/Downloads</text><text x="24.048" y="6.012" class="f">&gt;</text><text x="26.052" y="6.012" class="h">fish</text><text x="31.061999999999998" y="6.012" class="f">-</text><text x="32.064" y="6.012" class="i">P</text></svg><svg x="1560"><use xlink:href="#a"></use><use xlink:href="#b" x="31.996" y="4.317"></use><use xlink:href="#1" y="0"></use><use xlink:href="#2" y="2.171"></use><text x="0" y="6.012" class="g">team</text><text x="4.008" y="6.012" class="f">@itsfoss</text><text x="13.026" y="6.012" class="g">~/Downloads</text><text x="24.048" y="6.012" class="f">&gt;</text><text x="26.052" y="6.012" class="h">fish</text><text x="31.061999999999998" y="6.012" class="j">-</text><text x="32.064" y="6.012" class="i">P</text></svg><svg x="1680"><use xlink:href="#a"></use><use xlink:href="#b" x="32.996" y="4.317"></use><use xlink:href="#1" y="0"></use><use xlink:href="#2" y="2.171"></use><use xlink:href="#5" y="4.342"></use></svg><svg x="1800"><use xlink:href="#a"></use><use xlink:href="#b" x="32.996" y="4.317"></use><use xlink:href="#1" y="0"></use><use xlink:href="#2" y="2.171"></use><use xlink:href="#5" y="4.342"></use></svg><svg x="1920"><use xlink:href="#a"></use><use xlink:href="#b" x="-0.0040000000000000036" y="6.4879999999999995"></use><use xlink:href="#1" y="0"></use><use xlink:href="#2" y="2.171"></use><use xlink:href="#5" y="4.342"></use></svg><svg x="2040"><use xlink:href="#a"></use><use xlink:href="#b" x="-0.0040000000000000036" y="13.001"></use><use xlink:href="#1" y="0"></use><use xlink:href="#2" y="2.171"></use><use xlink:href="#5" y="4.342"></use><use xlink:href="#1" y="6.513"></use><use xlink:href="#2" y="8.684"></use><use xlink:href="#6" y="10.855"></use></svg><svg x="2160"><use xlink:href="#a"></use><use xlink:href="#b" x="-0.0040000000000000036" y="13.001"></use><use xlink:href="#1" y="0"></use><use xlink:href="#2" y="2.171"></use><use xlink:href="#5" y="4.342"></use><use xlink:href="#1" y="6.513"></use><use xlink:href="#2" y="8.684"></use><use xlink:href="#6" y="10.855"></use></svg><svg x="2280"><use xlink:href="#a"></use><use xlink:href="#b" x="-0.0040000000000000036" y="13.001"></use><use xlink:href="#1" y="0"></use><use xlink:href="#2" y="2.171"></use><use xlink:href="#5" y="4.342"></use><use xlink:href="#1" y="6.513"></use><use xlink:href="#2" y="8.684"></use><use xlink:href="#6" y="10.855"></use></svg><svg x="2400"><use xlink:href="#a"></use><use xlink:href="#b" x="-0.0040000000000000036" y="13.001"></use><use xlink:href="#1" y="0"></use><use xlink:href="#2" y="2.171"></use><use xlink:href="#5" y="4.342"></use><use xlink:href="#1" y="6.513"></use><use xlink:href="#2" y="8.684"></use><use xlink:href="#6" y="10.855"></use></svg><svg x="2520"><use xlink:href="#a"></use><use xlink:href="#b" x="25.996" y="13.001"></use><use xlink:href="#1" y="0"></use><use xlink:href="#2" y="2.171"></use><use xlink:href="#5" y="4.342"></use><use xlink:href="#1" y="6.513"></use><use xlink:href="#2" y="8.684"></use><use xlink:href="#6" y="10.855"></use><use xlink:href="#3" y="13.026"></use></svg><svg x="2640"><use xlink:href="#a"></use><use xlink:href="#b" x="26.996" y="13.001"></use><use xlink:href="#1" y="0"></use><use xlink:href="#2" y="2.171"></use><use xlink:href="#5" y="4.342"></use><use xlink:href="#1" y="6.513"></use><use xlink:href="#2" y="8.684"></use><use xlink:href="#6" y="10.855"></use><text x="0" y="14.696" class="g">team</text><text x="4.008" y="14.696" class="f">@itsfoss</text><text x="13.026" y="14.696" class="g">~/Downloads</text><text x="24.048" y="14.696" class="f">&gt;</text><text x="26.052" y="14.696" class="f">e</text></svg><svg x="2760"><use xlink:href="#a"></use><use xlink:href="#b" x="26.996" y="13.001"></use><use xlink:href="#1" y="0"></use><use xlink:href="#2" y="2.171"></use><use xlink:href="#5" y="4.342"></use><use xlink:href="#1" y="6.513"></use><use xlink:href="#2" y="8.684"></use><use xlink:href="#6" y="10.855"></use><text x="0" y="14.696" class="g">team</text><text x="4.008" y="14.696" class="f">@itsfoss</text><text x="13.026" y="14.696" class="g">~/Downloads</text><text x="24.048" y="14.696" class="f">&gt;</text><text x="26.052" y="14.696" class="o">e</text></svg><svg x="2880"><use xlink:href="#a"></use><use xlink:href="#b" x="26.996" y="13.001"></use><use xlink:href="#1" y="0"></use><use xlink:href="#2" y="2.171"></use><use xlink:href="#5" y="4.342"></use><use xlink:href="#1" y="6.513"></use><use xlink:href="#2" y="8.684"></use><use xlink:href="#6" y="10.855"></use><text x="0" y="14.696" class="g">team</text><text x="4.008" y="14.696" class="f">@itsfoss</text><text x="13.026" y="14.696" class="g">~/Downloads</text><text x="24.048" y="14.696" class="f">&gt;</text><text x="26.052" y="14.696" class="o">e</text><text x="27.054" y="14.696" class="i">2freefrag</text></svg><svg x="3000"><use xlink:href="#a"></use><use xlink:href="#b" x="27.996" y="13.001"></use><use xlink:href="#1" y="0"></use><use xlink:href="#2" y="2.171"></use><use xlink:href="#5" y="4.342"></use><use xlink:href="#1" y="6.513"></use><use xlink:href="#2" y="8.684"></use><use xlink:href="#6" y="10.855"></use><text x="0" y="14.696" class="g">team</text><text x="4.008" y="14.696" class="f">@itsfoss</text><text x="13.026" y="14.696" class="g">~/Downloads</text><text x="24.048" y="14.696" class="f">&gt;</text><text x="26.052" y="14.696" class="o">ex</text></svg><svg x="3120"><use xlink:href="#a"></use><use xlink:href="#b" x="27.996" y="13.001"></use><use xlink:href="#1" y="0"></use><use xlink:href="#2" y="2.171"></use><use xlink:href="#5" y="4.342"></use><use xlink:href="#1" y="6.513"></use><use xlink:href="#2" y="8.684"></use><use xlink:href="#6" y="10.855"></use><text x="0" y="14.696" class="g">team</text><text x="4.008" y="14.696" class="f">@itsfoss</text><text x="13.026" y="14.696" class="g">~/Downloads</text><text x="24.048" y="14.696" class="f">&gt;</text><text x="26.052" y="14.696" class="o">ex</text><text x="28.055999999999997" y="14.696" class="i">ec</text></svg><svg x="3240"><use xlink:href="#a"></use><use xlink:href="#b" x="28.996" y="13.001"></use><use xlink:href="#1" y="0"></use><use xlink:href="#2" y="2.171"></use><use xlink:href="#5" y="4.342"></use><use xlink:href="#1" y="6.513"></use><use xlink:href="#2" y="8.684"></use><use xlink:href="#6" y="10.855"></use><text x="0" y="14.696" class="g">team</text><text x="4.008" y="14.696" class="f">@itsfoss</text><text x="13.026" y="14.696" class="g">~/Downloads</text><text x="24.048" y="14.696" class="f">&gt;</text><text x="26.052" y="14.696" class="o">exi</text></svg><svg x="3360"><use xlink:href="#a"></use><use xlink:href="#b" x="28.996" y="13.001"></use><use xlink:href="#1" y="0"></use><use xlink:href="#2" y="2.171"></use><use xlink:href="#5" y="4.342"></use><use xlink:href="#1" y="6.513"></use><use xlink:href="#2" y="8.684"></use><use xlink:href="#6" y="10.855"></use><text x="0" y="14.696" class="g">team</text><text x="4.008" y="14.696" class="f">@itsfoss</text><text x="13.026" y="14.696" class="g">~/Downloads</text><text x="24.048" y="14.696" class="f">&gt;</text><text x="26.052" y="14.696" class="o">exi</text><text x="29.058" y="14.696" class="i">t</text></svg><svg x="3480"><use xlink:href="#a"></use><use xlink:href="#b" x="29.996" y="13.001"></use><use xlink:href="#1" y="0"></use><use xlink:href="#2" y="2.171"></use><use xlink:href="#5" y="4.342"></use><use xlink:href="#1" y="6.513"></use><use xlink:href="#2" y="8.684"></use><use xlink:href="#6" y="10.855"></use><use xlink:href="#7" y="13.026"></use></svg><svg x="3600"><use xlink:href="#a"></use><use xlink:href="#b" x="-0.0040000000000000036" y="15.171999999999999"></use><use xlink:href="#1" y="0"></use><use xlink:href="#2" y="2.171"></use><use xlink:href="#5" y="4.342"></use><use xlink:href="#1" y="6.513"></use><use xlink:href="#2" y="8.684"></use><use xlink:href="#6" y="10.855"></use><use xlink:href="#7" y="13.026"></use></svg><svg x="3720"><use xlink:href="#a"></use><use xlink:href="#b" x="-0.0040000000000000036" y="15.171999999999999"></use><use xlink:href="#1" y="0"></use><use xlink:href="#2" y="2.171"></use><use xlink:href="#5" y="4.342"></use><use xlink:href="#1" y="6.513"></use><use xlink:href="#2" y="8.684"></use><use xlink:href="#6" y="10.855"></use><use xlink:href="#7" y="13.026"></use></svg><svg x="3840"><use xlink:href="#a"></use><use xlink:href="#b" x="-0.0040000000000000036" y="15.171999999999999"></use><use xlink:href="#1" y="0"></use><use xlink:href="#2" y="2.171"></use><use xlink:href="#5" y="4.342"></use><use xlink:href="#1" y="6.513"></use><use xlink:href="#2" y="8.684"></use><use xlink:href="#6" y="10.855"></use><use xlink:href="#7" y="13.026"></use></svg><svg x="3960"><use xlink:href="#a"></use><use xlink:href="#b" x="-0.0040000000000000036" y="15.171999999999999"></use><use xlink:href="#1" y="0"></use><use xlink:href="#2" y="2.171"></use><use xlink:href="#5" y="4.342"></use><use xlink:href="#1" y="6.513"></use><use xlink:href="#2" y="8.684"></use><use xlink:href="#6" y="10.855"></use><use xlink:href="#7" y="13.026"></use></svg><svg x="4080"><use xlink:href="#a"></use><use xlink:href="#b" x="25.996" y="15.171999999999999"></use><use xlink:href="#1" y="0"></use><use xlink:href="#2" y="2.171"></use><use xlink:href="#5" y="4.342"></use><use xlink:href="#1" y="6.513"></use><use xlink:href="#2" y="8.684"></use><use xlink:href="#6" y="10.855"></use><use xlink:href="#7" y="13.026"></use><use xlink:href="#3" y="15.197"></use></svg><svg x="4200"><use xlink:href="#a"></use><use xlink:href="#b" x="-0.0040000000000000036" y="17.343"></use><use xlink:href="#1" y="0"></use><use xlink:href="#2" y="2.171"></use><use xlink:href="#5" y="4.342"></use><use xlink:href="#1" y="6.513"></use><use xlink:href="#2" y="8.684"></use><use xlink:href="#6" y="10.855"></use><use xlink:href="#7" y="13.026"></use><use xlink:href="#3" y="15.197"></use></svg><svg x="4320"><use xlink:href="#a"></use><use xlink:href="#b" x="-0.0040000000000000036" y="17.343"></use><use xlink:href="#1" y="0"></use><use xlink:href="#2" y="2.171"></use><use xlink:href="#5" y="4.342"></use><use xlink:href="#1" y="6.513"></use><use xlink:href="#2" y="8.684"></use><use xlink:href="#6" y="10.855"></use><use xlink:href="#7" y="13.026"></use><use xlink:href="#3" y="15.197"></use></svg><svg x="4440"><use xlink:href="#a"></use><use xlink:href="#b" x="-0.0040000000000000036" y="17.343"></use><use xlink:href="#1" y="0"></use><use xlink:href="#2" y="2.171"></use><use xlink:href="#5" y="4.342"></use><use xlink:href="#1" y="6.513"></use><use xlink:href="#2" y="8.684"></use><use xlink:href="#6" y="10.855"></use><use xlink:href="#7" y="13.026"></use><use xlink:href="#3" y="15.197"></use></svg></svg></g></g></svg></svg>