<svg xmlns="http://www.w3.org/2000/svg" xmlns:xlink="http://www.w3.org/1999/xlink" width="1240" height="277.1"><rect width="1240" height="277.1" rx="5" ry="5" class="a"></rect><svg y="0%" x="0%"><circle cx="20" cy="20" r="6" class="b"></circle><circle cx="40" cy="20" r="6" class="c"></circle><circle cx="60" cy="20" r="6" class="d"></circle></svg><svg height="217.10000000000002" viewBox="0 0 120 21.71" width="1200" x="15" xmlns="http://www.w3.org/2000/svg" xmlns:xlink="http://www.w3.org/1999/xlink" y="50"><style>.a{fill:rgb(40,45,53)}.b{fill:#ff5f58}.c{fill:#ffbd2e}.d{fill:#18c132}.e{font-family:Monaco,Consolas,Menlo,'Bitstream Vera Sans Mono','Powerline Symbols',monospace}.f{fill:rgb(185,192,203);white-space:pre}.g{fill:rgb(168,204,140);white-space:pre}.h{fill:rgb(113,190,242);white-space:pre}.i{fill:rgb(85,85,85);white-space:pre}.j{fill:rgb(185,192,203);font-weight:bold;text-decoration:underline;white-space:pre}.k{fill:rgb(102,194,205);text-decoration:underline;white-space:pre}.l{fill:rgb(102,194,205);white-space:pre}.m{fill:rgb(219,171,121);white-space:pre}.n{fill:rgb(232,131,136);font-weight:bold;white-space:pre}.o{fill:transparent}.p{fill:rgb(111,118,131)}.r{animation-duration:12.393396s;animation-iteration-count:infinite;animation-name:q;animation-timing-function:steps(1,end)}.s{fill:rgb(232,131,136);white-space:pre}@keyframes q{0%{transform:translateX(-0px)}0.1%{transform:translateX(-120px)}0.2%{transform:translateX(-240px)}0.2%{transform:translateX(-360px)}0.2%{transform:translateX(-480px)}0.2%{transform:translateX(-600px)}5%{transform:translateX(-720px)}5%{transform:translateX(-840px)}6.4%{transform:translateX(-960px)}6.8%{transform:translateX(-1080px)}8.5%{transform:translateX(-1200px)}8.5%{transform:translateX(-1320px)}11.1%{transform:translateX(-1440px)}11.1%{transform:translateX(-1560px)}11.4%{transform:translateX(-1680px)}11.4%{transform:translateX(-1800px)}11.4%{transform:translateX(-1920px)}11.4%{transform:translateX(-2040px)}11.4%{transform:translateX(-2160px)}27.4%{transform:translateX(-2280px)}27.4%{transform:translateX(-2400px)}27.4%{transform:translateX(-2520px)}28.3%{transform:translateX(-2640px)}30.2%{transform:translateX(-2760px)}31.4%{transform:translateX(-2880px)}31.5%{transform:translateX(-3000px)}35.1%{transform:translateX(-3120px)}42.4%{transform:translateX(-3240px)}42.4%{transform:translateX(-3360px)}49.1%{transform:translateX(-3480px)}50%{transform:translateX(-3600px)}51.1%{transform:translateX(-3720px)}54.9%{transform:translateX(-3840px)}54.9%{transform:translateX(-3960px)}66.2%{transform:translateX(-4080px)}66.2%{transform:translateX(-4200px)}66.2%{transform:translateX(-4320px)}82.9%{transform:translateX(-4440px)}82.9%{transform:translateX(-4560px)}83%{transform:translateX(-4680px)}83.1%{transform:translateX(-4800px)}83.1%{transform:translateX(-4920px)}83.1%{transform:translateX(-5040px)}97.8%{transform:translateX(-5160px)}97.8%{transform:translateX(-5280px)}97.8%{transform:translateX(-5400px)}100%{transform:translateX(-5520px)}}</style><g font-family="Monaco, Consolas, Menlo, &#x27;Bitstream Vera Sans Mono&#x27;, &#x27;Powerline Symbols&#x27;, monospace" font-size="1.67" class="e"><defs><symbol id="1"><text x="0" y="1.67" class="f">Welcome</text><text x="8.016" y="1.67" class="f">to</text><text x="11.021999999999998" y="1.67" class="f">fish,</text><text x="17.034" y="1.67" class="f">the</text><text x="21.041999999999998" y="1.67" class="f">friendly</text><text x="30.059999999999995" y="1.67" class="f">interactive</text><text x="42.083999999999996" y="1.67" class="f">shell</text></symbol><symbol id="2"><text x="0" y="1.67" class="f">Type</text><text x="5.01" y="1.67" class="g">help</text><text x="10.02" y="1.67" class="f">for</text><text x="14.027999999999999" y="1.67" class="f">instructions</text><text x="27.054" y="1.67" class="f">on</text><text x="30.059999999999995" y="1.67" class="f">how</text><text x="34.068" y="1.67" class="f">to</text><text x="37.074" y="1.67" class="f">use</text><text x="41.082" y="1.67" class="f">fish</text></symbol><symbol id="3"><text x="0" y="1.67" class="g">team</text><text x="4.008" y="1.67" class="f">@itsfoss</text><text x="13.026" y="1.67" class="g">~</text><text x="14.027999999999999" y="1.67" class="f">&gt;</text></symbol><symbol id="4"><text x="0" y="1.67" class="g">team</text><text x="4.008" y="1.67" class="f">@itsfoss</text><text x="13.026" y="1.67" class="g">~</text><text x="14.027999999999999" y="1.67" class="f">&gt;</text><text x="16.032" y="1.67" class="h">fish</text></symbol><symbol id="5"><text x="0" y="1.67" class="g">team</text><text x="4.008" y="1.67" class="f">@itsfoss</text><text x="13.026" y="1.67" class="g">~</text><text x="14.027999999999999" y="1.67" class="f">&gt;</text><text x="16.032" y="1.67" class="h">less</text><text x="21.041999999999998" y="1.67" class="i">.bashrc</text><text x="29.058" y="1.67" class="i">|</text><text x="31.061999999999998" y="1.67" class="i">grep</text><text x="36.071999999999996" y="1.67" class="i">-E</text><text x="39.077999999999996" y="1.67" class="i">&quot;bash&quot;</text></symbol><symbol id="6"><text x="0" y="1.67" class="j">.bash</text><text x="5.01" y="1.67" class="f">rc</text><text x="9.017999999999999" y="1.67" class="j">.bash</text><text x="14.027999999999999" y="1.67" class="f">_history</text><text x="24.048" y="1.67" class="j">.bash</text><text x="29.058" y="1.67" class="f">_logout</text><text x="38.07599999999999" y="1.67" class="j">.bash</text><text x="43.086" y="1.67" class="f">_profile</text></symbol><symbol id="7"><text x="0" y="1.67" class="g">team</text><text x="4.008" y="1.67" class="f">@itsfoss</text><text x="13.026" y="1.67" class="g">~</text><text x="14.027999999999999" y="1.67" class="f">&gt;</text><text x="16.032" y="1.67" class="f">less</text><text x="21.041999999999998" y="1.67" class="f">.bashrc</text><text x="29.058" y="1.67" class="f">|</text><text x="31.061999999999998" y="1.67" class="f">grep</text><text x="36.071999999999996" y="1.67" class="f">-E</text><text x="39.077999999999996" y="1.67" class="f">&quot;bash&quot;</text></symbol><symbol id="8"><text x="0" y="1.67" class="g">team</text><text x="4.008" y="1.67" class="f">@itsfoss</text><text x="13.026" y="1.67" class="g">~</text><text x="14.027999999999999" y="1.67" class="f">&gt;</text><text x="16.032" y="1.67" class="h">less</text><text x="21.041999999999998" y="1.67" class="k">.bashrc</text><text x="29.058" y="1.67" class="g">|</text><text x="31.061999999999998" y="1.67" class="h">grep</text><text x="36.071999999999996" y="1.67" class="l">-E</text><text x="39.077999999999996" y="1.67" class="m">&quot;bash&quot;</text></symbol><symbol id="9"><text x="0" y="1.67" class="f">#</text><text x="2.004" y="1.67" class="f">~/.</text><text x="5.01" y="1.67" class="n">bash</text><text x="9.017999999999999" y="1.67" class="f">rc</text></symbol><symbol id="a"><rect height="11" width="120" x="0" y="0" class="o"></rect></symbol><symbol id="b"><rect height="2.171" width="1.1022" class="p"></rect></symbol></defs><rect height="21.71" width="120" class="a"></rect><g class="r"><svg x="0" y="0" width="5640"><svg x="0"><use xlink:href="#a"></use><use xlink:href="#b" x="-0.0040000000000000036" y="0"></use></svg><svg x="120"><use xlink:href="#a"></use><use xlink:href="#b" x="-0.0040000000000000036" y="4.317"></use><use xlink:href="#1" y="0"></use><use xlink:href="#2" y="2.171"></use></svg><svg x="240"><use xlink:href="#a"></use><use xlink:href="#b" x="-0.0040000000000000036" y="4.317"></use><use xlink:href="#1" y="0"></use><use xlink:href="#2" y="2.171"></use></svg><svg x="360"><use xlink:href="#a"></use><use xlink:href="#b" x="-0.0040000000000000036" y="4.317"></use><use xlink:href="#1" y="0"></use><use xlink:href="#2" y="2.171"></use></svg><svg x="480"><use xlink:href="#a"></use><use xlink:href="#b" x="-0.0040000000000000036" y="4.317"></use><use xlink:href="#1" y="0"></use><use xlink:href="#2" y="2.171"></use></svg><svg x="600"><use xlink:href="#a"></use><use xlink:href="#b" x="15.996" y="4.317"></use><use xlink:href="#1" y="0"></use><use xlink:href="#2" y="2.171"></use><use xlink:href="#3" y="4.342"></use></svg><svg x="720"><use xlink:href="#a"></use><use xlink:href="#b" x="16.996" y="4.317"></use><use xlink:href="#1" y="0"></use><use xlink:href="#2" y="2.171"></use><text x="0" y="6.012" class="g">team</text><text x="4.008" y="6.012" class="f">@itsfoss</text><text x="13.026" y="6.012" class="g">~</text><text x="14.027999999999999" y="6.012" class="f">&gt;</text><text x="16.032" y="6.012" class="s">f</text></svg><svg x="840"><use xlink:href="#a"></use><use xlink:href="#b" x="16.996" y="4.317"></use><use xlink:href="#1" y="0"></use><use xlink:href="#2" y="2.171"></use><text x="0" y="6.012" class="g">team</text><text x="4.008" y="6.012" class="f">@itsfoss</text><text x="13.026" y="6.012" class="g">~</text><text x="14.027999999999999" y="6.012" class="f">&gt;</text><text x="16.032" y="6.012" class="s">f</text><text x="17.034" y="6.012" class="i">ish_update_completions</text></svg><svg x="960"><use xlink:href="#a"></use><use xlink:href="#b" x="17.996" y="4.317"></use><use xlink:href="#1" y="0"></use><use xlink:href="#2" y="2.171"></use><text x="0" y="6.012" class="g">team</text><text x="4.008" y="6.012" class="f">@itsfoss</text><text x="13.026" y="6.012" class="g">~</text><text x="14.027999999999999" y="6.012" class="f">&gt;</text><text x="16.032" y="6.012" class="s">fi</text><text x="18.035999999999998" y="6.012" class="i">sh_update_completions</text></svg><svg x="1080"><use xlink:href="#a"></use><use xlink:href="#b" x="18.996" y="4.317"></use><use xlink:href="#1" y="0"></use><use xlink:href="#2" y="2.171"></use><text x="0" y="6.012" class="g">team</text><text x="4.008" y="6.012" class="f">@itsfoss</text><text x="13.026" y="6.012" class="g">~</text><text x="14.027999999999999" y="6.012" class="f">&gt;</text><text x="16.032" y="6.012" class="s">fis</text><text x="19.037999999999997" y="6.012" class="i">h_update_completions</text></svg><svg x="1200"><use xlink:href="#a"></use><use xlink:href="#b" x="19.996" y="4.317"></use><use xlink:href="#1" y="0"></use><use xlink:href="#2" y="2.171"></use><text x="0" y="6.012" class="g">team</text><text x="4.008" y="6.012" class="f">@itsfoss</text><text x="13.026" y="6.012" class="g">~</text><text x="14.027999999999999" y="6.012" class="f">&gt;</text><text x="16.032" y="6.012" class="s">fish</text><text x="20.04" y="6.012" class="i">_update_completions</text></svg><svg x="1320"><use xlink:href="#a"></use><use xlink:href="#b" x="19.996" y="4.317"></use><use xlink:href="#1" y="0"></use><use xlink:href="#2" y="2.171"></use><text x="0" y="6.012" class="g">team</text><text x="4.008" y="6.012" class="f">@itsfoss</text><text x="13.026" y="6.012" class="g">~</text><text x="14.027999999999999" y="6.012" class="f">&gt;</text><text x="16.032" y="6.012" class="h">fish</text><text x="20.04" y="6.012" class="i">_update_completions</text></svg><svg x="1440"><use xlink:href="#a"></use><use xlink:href="#b" x="-0.0040000000000000036" y="6.4879999999999995"></use><use xlink:href="#1" y="0"></use><use xlink:href="#2" y="2.171"></use><use xlink:href="#4" y="4.342"></use></svg><svg x="1560"><use xlink:href="#a"></use><use xlink:href="#b" x="-0.0040000000000000036" y="6.4879999999999995"></use><use xlink:href="#1" y="0"></use><use xlink:href="#2" y="2.171"></use><use xlink:href="#4" y="4.342"></use></svg><svg x="1680"><use xlink:href="#a"></use><use xlink:href="#b" x="-0.0040000000000000036" y="10.83"></use><use xlink:href="#1" y="0"></use><use xlink:href="#2" y="2.171"></use><use xlink:href="#4" y="4.342"></use><use xlink:href="#1" y="6.513"></use><use xlink:href="#2" y="8.684"></use></svg><svg x="1800"><use xlink:href="#a"></use><use xlink:href="#b" x="-0.0040000000000000036" y="10.83"></use><use xlink:href="#1" y="0"></use><use xlink:href="#2" y="2.171"></use><use xlink:href="#4" y="4.342"></use><use xlink:href="#1" y="6.513"></use><use xlink:href="#2" y="8.684"></use></svg><svg x="1920"><use xlink:href="#a"></use><use xlink:href="#b" x="-0.0040000000000000036" y="10.83"></use><use xlink:href="#1" y="0"></use><use xlink:href="#2" y="2.171"></use><use xlink:href="#4" y="4.342"></use><use xlink:href="#1" y="6.513"></use><use xlink:href="#2" y="8.684"></use></svg><svg x="2040"><use xlink:href="#a"></use><use xlink:href="#b" x="-0.0040000000000000036" y="10.83"></use><use xlink:href="#1" y="0"></use><use xlink:href="#2" y="2.171"></use><use xlink:href="#4" y="4.342"></use><use xlink:href="#1" y="6.513"></use><use xlink:href="#2" y="8.684"></use></svg><svg x="2160"><use xlink:href="#a"></use><use xlink:href="#b" x="15.996" y="10.83"></use><use xlink:href="#1" y="0"></use><use xlink:href="#2" y="2.171"></use><use xlink:href="#4" y="4.342"></use><use xlink:href="#1" y="6.513"></use><use xlink:href="#2" y="8.684"></use><use xlink:href="#3" y="10.855"></use></svg><svg x="2280"><use xlink:href="#a"></use><use xlink:href="#b" x="16.996" y="10.83"></use><use xlink:href="#1" y="0"></use><use xlink:href="#2" y="2.171"></use><use xlink:href="#4" y="4.342"></use><use xlink:href="#1" y="6.513"></use><use xlink:href="#2" y="8.684"></use><text x="0" y="12.525" class="g">team</text><text x="4.008" y="12.525" class="f">@itsfoss</text><text x="13.026" y="12.525" class="g">~</text><text x="14.027999999999999" y="12.525" class="f">&gt;</text><text x="16.032" y="12.525" class="f">l</text></svg><svg x="2400"><use xlink:href="#a"></use><use xlink:href="#b" x="16.996" y="10.83"></use><use xlink:href="#1" y="0"></use><use xlink:href="#2" y="2.171"></use><use xlink:href="#4" y="4.342"></use><use xlink:href="#1" y="6.513"></use><use xlink:href="#2" y="8.684"></use><text x="0" y="12.525" class="g">team</text><text x="4.008" y="12.525" class="f">@itsfoss</text><text x="13.026" y="12.525" class="g">~</text><text x="14.027999999999999" y="12.525" class="f">&gt;</text><text x="16.032" y="12.525" class="s">l</text></svg><svg x="2520"><use xlink:href="#a"></use><use xlink:href="#b" x="16.996" y="10.83"></use><use xlink:href="#1" y="0"></use><use xlink:href="#2" y="2.171"></use><use xlink:href="#4" y="4.342"></use><use xlink:href="#1" y="6.513"></use><use xlink:href="#2" y="8.684"></use><text x="0" y="12.525" class="g">team</text><text x="4.008" y="12.525" class="f">@itsfoss</text><text x="13.026" y="12.525" class="g">~</text><text x="14.027999999999999" y="12.525" class="f">&gt;</text><text x="16.032" y="12.525" class="s">l</text><text x="17.034" y="12.525" class="i">ess</text><text x="21.041999999999998" y="12.525" class="i">.bashrc</text><text x="29.058" y="12.525" class="i">|</text><text x="31.061999999999998" y="12.525" class="i">grep</text><text x="36.071999999999996" y="12.525" class="i">-E</text><text x="39.077999999999996" y="12.525" class="i">&quot;bash&quot;</text></svg><svg x="2640"><use xlink:href="#a"></use><use xlink:href="#b" x="17.996" y="10.83"></use><use xlink:href="#1" y="0"></use><use xlink:href="#2" y="2.171"></use><use xlink:href="#4" y="4.342"></use><use xlink:href="#1" y="6.513"></use><use xlink:href="#2" y="8.684"></use><text x="0" y="12.525" class="g">team</text><text x="4.008" y="12.525" class="f">@itsfoss</text><text x="13.026" y="12.525" class="g">~</text><text x="14.027999999999999" y="12.525" class="f">&gt;</text><text x="16.032" y="12.525" class="s">le</text><text x="18.035999999999998" y="12.525" class="i">ss</text><text x="21.041999999999998" y="12.525" class="i">.bashrc</text><text x="29.058" y="12.525" class="i">|</text><text x="31.061999999999998" y="12.525" class="i">grep</text><text x="36.071999999999996" y="12.525" class="i">-E</text><text x="39.077999999999996" y="12.525" class="i">&quot;bash&quot;</text></svg><svg x="2760"><use xlink:href="#a"></use><use xlink:href="#b" x="18.996" y="10.83"></use><use xlink:href="#1" y="0"></use><use xlink:href="#2" y="2.171"></use><use xlink:href="#4" y="4.342"></use><use xlink:href="#1" y="6.513"></use><use xlink:href="#2" y="8.684"></use><text x="0" y="12.525" class="g">team</text><text x="4.008" y="12.525" class="f">@itsfoss</text><text x="13.026" y="12.525" class="g">~</text><text x="14.027999999999999" y="12.525" class="f">&gt;</text><text x="16.032" y="12.525" class="s">les</text><text x="19.037999999999997" y="12.525" class="i">s</text><text x="21.041999999999998" y="12.525" class="i">.bashrc</text><text x="29.058" y="12.525" class="i">|</text><text x="31.061999999999998" y="12.525" class="i">grep</text><text x="36.071999999999996" y="12.525" class="i">-E</text><text x="39.077999999999996" y="12.525" class="i">&quot;bash&quot;</text></svg><svg x="2880"><use xlink:href="#a"></use><use xlink:href="#b" x="19.996" y="10.83"></use><use xlink:href="#1" y="0"></use><use xlink:href="#2" y="2.171"></use><use xlink:href="#4" y="4.342"></use><use xlink:href="#1" y="6.513"></use><use xlink:href="#2" y="8.684"></use><text x="0" y="12.525" class="g">team</text><text x="4.008" y="12.525" class="f">@itsfoss</text><text x="13.026" y="12.525" class="g">~</text><text x="14.027999999999999" y="12.525" class="f">&gt;</text><text x="16.032" y="12.525" class="s">less</text><text x="21.041999999999998" y="12.525" class="i">.bashrc</text><text x="29.058" y="12.525" class="i">|</text><text x="31.061999999999998" y="12.525" class="i">grep</text><text x="36.071999999999996" y="12.525" class="i">-E</text><text x="39.077999999999996" y="12.525" class="i">&quot;bash&quot;</text></svg><svg x="3000"><use xlink:href="#a"></use><use xlink:href="#b" x="19.996" y="10.83"></use><use xlink:href="#1" y="0"></use><use xlink:href="#2" y="2.171"></use><use xlink:href="#4" y="4.342"></use><use xlink:href="#1" y="6.513"></use><use xlink:href="#2" y="8.684"></use><use xlink:href="#5" y="10.855"></use></svg><svg x="3120"><use xlink:href="#a"></use><use xlink:href="#b" x="20.996" y="10.83"></use><use xlink:href="#1" y="0"></use><use xlink:href="#2" y="2.171"></use><use xlink:href="#4" y="4.342"></use><use xlink:href="#1" y="6.513"></use><use xlink:href="#2" y="8.684"></use><use xlink:href="#5" y="10.855"></use></svg><svg x="3240"><use xlink:href="#a"></use><use xlink:href="#b" x="21.996" y="10.83"></use><use xlink:href="#1" y="0"></use><use xlink:href="#2" y="2.171"></use><use xlink:href="#4" y="4.342"></use><use xlink:href="#1" y="6.513"></use><use xlink:href="#2" y="8.684"></use><text x="0" y="12.525" class="g">team</text><text x="4.008" y="12.525" class="f">@itsfoss</text><text x="13.026" y="12.525" class="g">~</text><text x="14.027999999999999" y="12.525" class="f">&gt;</text><text x="16.032" y="12.525" class="h">less</text><text x="21.041999999999998" y="12.525" class="f">.</text><text x="22.043999999999997" y="12.525" class="i">bashrc</text><text x="29.058" y="12.525" class="i">|</text><text x="31.061999999999998" y="12.525" class="i">grep</text><text x="36.071999999999996" y="12.525" class="i">-E</text><text x="39.077999999999996" y="12.525" class="i">&quot;bash&quot;</text></svg><svg x="3360"><use xlink:href="#a"></use><use xlink:href="#b" x="21.996" y="10.83"></use><use xlink:href="#1" y="0"></use><use xlink:href="#2" y="2.171"></use><use xlink:href="#4" y="4.342"></use><use xlink:href="#1" y="6.513"></use><use xlink:href="#2" y="8.684"></use><text x="0" y="12.525" class="g">team</text><text x="4.008" y="12.525" class="f">@itsfoss</text><text x="13.026" y="12.525" class="g">~</text><text x="14.027999999999999" y="12.525" class="f">&gt;</text><text x="16.032" y="12.525" class="h">less</text><text x="21.041999999999998" y="12.525" class="k">.</text><text x="22.043999999999997" y="12.525" class="i">bashrc</text><text x="29.058" y="12.525" class="i">|</text><text x="31.061999999999998" y="12.525" class="i">grep</text><text x="36.071999999999996" y="12.525" class="i">-E</text><text x="39.077999999999996" y="12.525" class="i">&quot;bash&quot;</text></svg><svg x="3480"><use xlink:href="#a"></use><use xlink:href="#b" x="22.996" y="10.83"></use><use xlink:href="#1" y="0"></use><use xlink:href="#2" y="2.171"></use><use xlink:href="#4" y="4.342"></use><use xlink:href="#1" y="6.513"></use><use xlink:href="#2" y="8.684"></use><text x="0" y="12.525" class="g">team</text><text x="4.008" y="12.525" class="f">@itsfoss</text><text x="13.026" y="12.525" class="g">~</text><text x="14.027999999999999" y="12.525" class="f">&gt;</text><text x="16.032" y="12.525" class="h">less</text><text x="21.041999999999998" y="12.525" class="k">.b</text><text x="23.045999999999996" y="12.525" class="i">ashrc</text><text x="29.058" y="12.525" class="i">|</text><text x="31.061999999999998" y="12.525" class="i">grep</text><text x="36.071999999999996" y="12.525" class="i">-E</text><text x="39.077999999999996" y="12.525" class="i">&quot;bash&quot;</text></svg><svg x="3600"><use xlink:href="#a"></use><use xlink:href="#b" x="23.996" y="10.83"></use><use xlink:href="#1" y="0"></use><use xlink:href="#2" y="2.171"></use><use xlink:href="#4" y="4.342"></use><use xlink:href="#1" y="6.513"></use><use xlink:href="#2" y="8.684"></use><text x="0" y="12.525" class="g">team</text><text x="4.008" y="12.525" class="f">@itsfoss</text><text x="13.026" y="12.525" class="g">~</text><text x="14.027999999999999" y="12.525" class="f">&gt;</text><text x="16.032" y="12.525" class="h">less</text><text x="21.041999999999998" y="12.525" class="k">.ba</text><text x="24.048" y="12.525" class="i">shrc</text><text x="29.058" y="12.525" class="i">|</text><text x="31.061999999999998" y="12.525" class="i">grep</text><text x="36.071999999999996" y="12.525" class="i">-E</text><text x="39.077999999999996" y="12.525" class="i">&quot;bash&quot;</text></svg><svg x="3720"><use xlink:href="#a"></use><use xlink:href="#b" x="24.996" y="10.83"></use><use xlink:href="#1" y="0"></use><use xlink:href="#2" y="2.171"></use><use xlink:href="#4" y="4.342"></use><use xlink:href="#1" y="6.513"></use><use xlink:href="#2" y="8.684"></use><text x="0" y="12.525" class="g">team</text><text x="4.008" y="12.525" class="f">@itsfoss</text><text x="13.026" y="12.525" class="g">~</text><text x="14.027999999999999" y="12.525" class="f">&gt;</text><text x="16.032" y="12.525" class="h">less</text><text x="21.041999999999998" y="12.525" class="k">.bas</text><text x="25.05" y="12.525" class="i">hrc</text><text x="29.058" y="12.525" class="i">|</text><text x="31.061999999999998" y="12.525" class="i">grep</text><text x="36.071999999999996" y="12.525" class="i">-E</text><text x="39.077999999999996" y="12.525" class="i">&quot;bash&quot;</text></svg><svg x="3840"><use xlink:href="#a"></use><use xlink:href="#b" x="25.996" y="10.83"></use><use xlink:href="#1" y="0"></use><use xlink:href="#2" y="2.171"></use><use xlink:href="#4" y="4.342"></use><use xlink:href="#1" y="6.513"></use><use xlink:href="#2" y="8.684"></use><text x="0" y="12.525" class="g">team</text><text x="4.008" y="12.525" class="f">@itsfoss</text><text x="13.026" y="12.525" class="g">~</text><text x="14.027999999999999" y="12.525" class="f">&gt;</text><text x="16.032" y="12.525" class="f">less</text><text x="21.041999999999998" y="12.525" class="f">.bash</text><text x="26.052" y="12.525" class="i">rc</text><text x="29.058" y="12.525" class="i">|</text><text x="31.061999999999998" y="12.525" class="i">grep</text><text x="36.071999999999996" y="12.525" class="i">-E</text><text x="39.077999999999996" y="12.525" class="i">&quot;bash&quot;</text><use xlink:href="#6" y="13.026"></use></svg><svg x="3960"><use xlink:href="#a"></use><use xlink:href="#b" x="25.996" y="10.83"></use><use xlink:href="#1" y="0"></use><use xlink:href="#2" y="2.171"></use><use xlink:href="#4" y="4.342"></use><use xlink:href="#1" y="6.513"></use><use xlink:href="#2" y="8.684"></use><text x="0" y="12.525" class="g">team</text><text x="4.008" y="12.525" class="f">@itsfoss</text><text x="13.026" y="12.525" class="g">~</text><text x="14.027999999999999" y="12.525" class="f">&gt;</text><text x="16.032" y="12.525" class="h">less</text><text x="21.041999999999998" y="12.525" class="k">.bash</text><text x="26.052" y="12.525" class="i">rc</text><text x="29.058" y="12.525" class="i">|</text><text x="31.061999999999998" y="12.525" class="i">grep</text><text x="36.071999999999996" y="12.525" class="i">-E</text><text x="39.077999999999996" y="12.525" class="i">&quot;bash&quot;</text><use xlink:href="#6" y="13.026"></use></svg><svg x="4080"><use xlink:href="#a"></use><use xlink:href="#b" x="44.996" y="10.83"></use><use xlink:href="#1" y="0"></use><use xlink:href="#2" y="2.171"></use><use xlink:href="#4" y="4.342"></use><use xlink:href="#1" y="6.513"></use><use xlink:href="#2" y="8.684"></use><use xlink:href="#7" y="10.855"></use></svg><svg x="4200"><use xlink:href="#a"></use><use xlink:href="#b" x="44.996" y="10.83"></use><use xlink:href="#1" y="0"></use><use xlink:href="#2" y="2.171"></use><use xlink:href="#4" y="4.342"></use><use xlink:href="#1" y="6.513"></use><use xlink:href="#2" y="8.684"></use><use xlink:href="#7" y="10.855"></use></svg><svg x="4320"><use xlink:href="#a"></use><use xlink:href="#b" x="44.996" y="10.83"></use><use xlink:href="#1" y="0"></use><use xlink:href="#2" y="2.171"></use><use xlink:href="#4" y="4.342"></use><use xlink:href="#1" y="6.513"></use><use xlink:href="#2" y="8.684"></use><use xlink:href="#8" y="10.855"></use></svg><svg x="4440"><use xlink:href="#a"></use><use xlink:href="#b" x="-0.0040000000000000036" y="13.001"></use><use xlink:href="#1" y="0"></use><use xlink:href="#2" y="2.171"></use><use xlink:href="#4" y="4.342"></use><use xlink:href="#1" y="6.513"></use><use xlink:href="#2" y="8.684"></use><use xlink:href="#8" y="10.855"></use></svg><svg x="4560"><use xlink:href="#a"></use><use xlink:href="#b" x="-0.0040000000000000036" y="13.001"></use><use xlink:href="#1" y="0"></use><use xlink:href="#2" y="2.171"></use><use xlink:href="#4" y="4.342"></use><use xlink:href="#1" y="6.513"></use><use xlink:href="#2" y="8.684"></use><use xlink:href="#8" y="10.855"></use></svg><svg x="4680"><use xlink:href="#a"></use><use xlink:href="#b" x="-0.0040000000000000036" y="15.171999999999999"></use><use xlink:href="#1" y="0"></use><use xlink:href="#2" y="2.171"></use><use xlink:href="#4" y="4.342"></use><use xlink:href="#1" y="6.513"></use><use xlink:href="#2" y="8.684"></use><use xlink:href="#8" y="10.855"></use><use xlink:href="#9" y="13.026"></use></svg><svg x="4800"><use xlink:href="#a"></use><use xlink:href="#b" x="-0.0040000000000000036" y="15.171999999999999"></use><use xlink:href="#1" y="0"></use><use xlink:href="#2" y="2.171"></use><use xlink:href="#4" y="4.342"></use><use xlink:href="#1" y="6.513"></use><use xlink:href="#2" y="8.684"></use><use xlink:href="#8" y="10.855"></use><use xlink:href="#9" y="13.026"></use></svg><svg x="4920"><use xlink:href="#a"></use><use xlink:href="#b" x="-0.0040000000000000036" y="15.171999999999999"></use><use xlink:href="#1" y="0"></use><use xlink:href="#2" y="2.171"></use><use xlink:href="#4" y="4.342"></use><use xlink:href="#1" y="6.513"></use><use xlink:href="#2" y="8.684"></use><use xlink:href="#8" y="10.855"></use><use xlink:href="#9" y="13.026"></use></svg><svg x="5040"><use xlink:href="#a"></use><use xlink:href="#b" x="15.996" y="15.171999999999999"></use><use xlink:href="#1" y="0"></use><use xlink:href="#2" y="2.171"></use><use xlink:href="#4" y="4.342"></use><use xlink:href="#1" y="6.513"></use><use xlink:href="#2" y="8.684"></use><use xlink:href="#8" y="10.855"></use><use xlink:href="#9" y="13.026"></use><use xlink:href="#3" y="15.197"></use></svg><svg x="5160"><use xlink:href="#a"></use><use xlink:href="#b" x="-0.0040000000000000036" y="17.343"></use><use xlink:href="#1" y="0"></use><use xlink:href="#2" y="2.171"></use><use xlink:href="#4" y="4.342"></use><use xlink:href="#1" y="6.513"></use><use xlink:href="#2" y="8.684"></use><use xlink:href="#8" y="10.855"></use><use xlink:href="#9" y="13.026"></use><use xlink:href="#3" y="15.197"></use></svg><svg x="5280"><use xlink:href="#a"></use><use xlink:href="#b" x="-0.0040000000000000036" y="17.343"></use><use xlink:href="#1" y="0"></use><use xlink:href="#2" y="2.171"></use><use xlink:href="#4" y="4.342"></use><use xlink:href="#1" y="6.513"></use><use xlink:href="#2" y="8.684"></use><use xlink:href="#8" y="10.855"></use><use xlink:href="#9" y="13.026"></use><use xlink:href="#3" y="15.197"></use></svg><svg x="5400"><use xlink:href="#a"></use><use xlink:href="#b" x="15.996" y="17.343"></use><use xlink:href="#1" y="0"></use><use xlink:href="#2" y="2.171"></use><use xlink:href="#4" y="4.342"></use><use xlink:href="#1" y="6.513"></use><use xlink:href="#2" y="8.684"></use><use xlink:href="#8" y="10.855"></use><use xlink:href="#9" y="13.026"></use><use xlink:href="#3" y="15.197"></use><use xlink:href="#3" y="17.368"></use></svg><svg x="5520"><use xlink:href="#a"></use><use xlink:href="#b" x="-0.0040000000000000036" y="19.514000000000003"></use><use xlink:href="#1" y="0"></use><use xlink:href="#2" y="2.171"></use><use xlink:href="#4" y="4.342"></use><use xlink:href="#1" y="6.513"></use><use xlink:href="#2" y="8.684"></use><use xlink:href="#8" y="10.855"></use><use xlink:href="#9" y="13.026"></use><use xlink:href="#3" y="15.197"></use><use xlink:href="#3" y="17.368"></use></svg></svg></g></g></svg></svg>