<svg xmlns="http://www.w3.org/2000/svg" xmlns:xlink="http://www.w3.org/1999/xlink" width="1240" height="277.1"><rect width="1240" height="277.1" rx="5" ry="5" class="a"></rect><svg y="0%" x="0%"><circle cx="20" cy="20" r="6" class="b"></circle><circle cx="40" cy="20" r="6" class="c"></circle><circle cx="60" cy="20" r="6" class="d"></circle></svg><svg height="217.10000000000002" viewBox="0 0 120 21.71" width="1200" x="15" xmlns="http://www.w3.org/2000/svg" xmlns:xlink="http://www.w3.org/1999/xlink" y="50"><style>.a{fill:rgb(40,45,53)}.b{fill:#ff5f58}.c{fill:#ffbd2e}.d{fill:#18c132}.e{font-family:Monaco,Consolas,Menlo,'Bitstream Vera Sans Mono','Powerline Symbols',monospace}.f{fill:rgb(185,192,203);white-space:pre}.g{fill:rgb(168,204,140);white-space:pre}.h{fill:rgb(113,190,242);white-space:pre}.i{fill:rgb(102,194,205);white-space:pre}.j{fill:transparent}.k{fill:rgb(111,118,131)}.m{animation-duration:22.774423s;animation-iteration-count:infinite;animation-name:l;animation-timing-function:steps(1,end)}.n{fill:rgb(232,131,136);white-space:pre}.o{fill:rgb(85,85,85);white-space:pre}@keyframes l{0%{transform:translateX(-0px)}0.07%{transform:translateX(-120px)}0.08%{transform:translateX(-240px)}0.08%{transform:translateX(-360px)}0.09%{transform:translateX(-480px)}0.09%{transform:translateX(-600px)}3.44%{transform:translateX(-720px)}3.44%{transform:translateX(-840px)}3.47%{transform:translateX(-960px)}5.06%{transform:translateX(-1080px)}5.09%{transform:translateX(-1200px)}5.76%{transform:translateX(-1320px)}5.79%{transform:translateX(-1440px)}8.69%{transform:translateX(-1560px)}8.69%{transform:translateX(-1680px)}10.5%{transform:translateX(-1800px)}10.51%{transform:translateX(-1920px)}10.52%{transform:translateX(-2040px)}10.52%{transform:translateX(-2160px)}10.53%{transform:translateX(-2280px)}15.49%{transform:translateX(-2400px)}15.49%{transform:translateX(-2520px)}15.5%{transform:translateX(-2640px)}17.28%{transform:translateX(-2760px)}17.28%{transform:translateX(-2880px)}17.28%{transform:translateX(-3000px)}19.07%{transform:translateX(-3120px)}20.27%{transform:translateX(-3240px)}20.27%{transform:translateX(-3360px)}21%{transform:translateX(-3480px)}23.32%{transform:translateX(-3600px)}23.32%{transform:translateX(-3720px)}25.36%{transform:translateX(-3840px)}25.37%{transform:translateX(-3960px)}25.37%{transform:translateX(-4080px)}25.37%{transform:translateX(-4200px)}25.37%{transform:translateX(-4320px)}25.39%{transform:translateX(-4440px)}32.28%{transform:translateX(-4560px)}32.28%{transform:translateX(-4680px)}32.29%{transform:translateX(-4800px)}34.98%{transform:translateX(-4920px)}39.8%{transform:translateX(-5040px)}41.65%{transform:translateX(-5160px)}41.66%{transform:translateX(-5280px)}45.91%{transform:translateX(-5400px)}47%{transform:translateX(-5520px)}47.81%{transform:translateX(-5640px)}48.58%{transform:translateX(-5760px)}50.34%{transform:translateX(-5880px)}50.34%{transform:translateX(-6000px)}51.81%{transform:translateX(-6120px)}51.82%{transform:translateX(-6240px)}51.83%{transform:translateX(-6360px)}51.83%{transform:translateX(-6480px)}51.85%{transform:translateX(-6600px)}61.78%{transform:translateX(-6720px)}61.78%{transform:translateX(-6840px)}61.8%{transform:translateX(-6960px)}66.86%{transform:translateX(-7080px)}66.87%{transform:translateX(-7200px)}70.21%{transform:translateX(-7320px)}70.21%{transform:translateX(-7440px)}70.23%{transform:translateX(-7560px)}72.66%{transform:translateX(-7680px)}72.66%{transform:translateX(-7800px)}72.69%{transform:translateX(-7920px)}77.89%{transform:translateX(-8040px)}77.92%{transform:translateX(-8160px)}80.8%{transform:translateX(-8280px)}80.81%{transform:translateX(-8400px)}80.81%{transform:translateX(-8520px)}80.83%{transform:translateX(-8640px)}83.22%{transform:translateX(-8760px)}83.22%{transform:translateX(-8880px)}83.25%{transform:translateX(-9000px)}85.12%{transform:translateX(-9120px)}85.12%{transform:translateX(-9240px)}85.14%{transform:translateX(-9360px)}87.83%{transform:translateX(-9480px)}87.83%{transform:translateX(-9600px)}87.85%{transform:translateX(-9720px)}89.58%{transform:translateX(-9840px)}89.58%{transform:translateX(-9960px)}89.61%{transform:translateX(-10080px)}91.62%{transform:translateX(-10200px)}91.62%{transform:translateX(-10320px)}91.64%{transform:translateX(-10440px)}91.65%{transform:translateX(-10560px)}93.59%{transform:translateX(-10680px)}93.59%{transform:translateX(-10800px)}93.61%{transform:translateX(-10920px)}100%{transform:translateX(-11040px)}100%{transform:translateX(-11160px)}}</style><g font-family="Monaco, Consolas, Menlo, &#x27;Bitstream Vera Sans Mono&#x27;, &#x27;Powerline Symbols&#x27;, monospace" font-size="1.67" class="e"><defs><symbol id="1"><text x="0" y="1.67" class="f">Welcome</text><text x="8.016" y="1.67" class="f">to</text><text x="11.021999999999998" y="1.67" class="f">fish,</text><text x="17.034" y="1.67" class="f">the</text><text x="21.041999999999998" y="1.67" class="f">friendly</text><text x="30.059999999999995" y="1.67" class="f">interactive</text><text x="42.083999999999996" y="1.67" class="f">shell</text></symbol><symbol id="2"><text x="0" y="1.67" class="f">Type</text><text x="5.01" y="1.67" class="g">help</text><text x="10.02" y="1.67" class="f">for</text><text x="14.027999999999999" y="1.67" class="f">instructions</text><text x="27.054" y="1.67" class="f">on</text><text x="30.059999999999995" y="1.67" class="f">how</text><text x="34.068" y="1.67" class="f">to</text><text x="37.074" y="1.67" class="f">use</text><text x="41.082" y="1.67" class="f">fish</text></symbol><symbol id="3"><text x="0" y="1.67" class="g">team</text><text x="4.008" y="1.67" class="f">@itsfoss</text><text x="13.026" y="1.67" class="g">~</text><text x="14.027999999999999" y="1.67" class="f">&gt;</text></symbol><symbol id="4"><text x="0" y="1.67" class="g">team</text><text x="4.008" y="1.67" class="f">@itsfoss</text><text x="13.026" y="1.67" class="g">~</text><text x="14.027999999999999" y="1.67" class="f">&gt;</text><text x="16.032" y="1.67" class="h">Downloads/</text></symbol><symbol id="5"><text x="0" y="1.67" class="g">team</text><text x="4.008" y="1.67" class="f">@itsfoss</text><text x="13.026" y="1.67" class="g">~/Downloads</text><text x="24.048" y="1.67" class="f">&gt;</text></symbol><symbol id="6"><text x="0" y="1.67" class="g">team</text><text x="4.008" y="1.67" class="f">@itsfoss</text><text x="13.026" y="1.67" class="g">~/Downloads</text><text x="24.048" y="1.67" class="f">&gt;</text><text x="26.052" y="1.67" class="i">~</text><text x="27.054" y="1.67" class="h">/Documents/</text></symbol><symbol id="7"><text x="0" y="1.67" class="g">team</text><text x="4.008" y="1.67" class="f">@itsfoss</text><text x="13.026" y="1.67" class="g">~/Documents</text><text x="24.048" y="1.67" class="f">&gt;</text></symbol><symbol id="8"><text x="0" y="1.67" class="g">team</text><text x="4.008" y="1.67" class="f">@itsfoss</text><text x="13.026" y="1.67" class="g">~/Documents</text><text x="24.048" y="1.67" class="f">&gt;</text><text x="26.052" y="1.67" class="i">~</text></symbol><symbol id="9"><text x="0" y="1.67" class="g">team</text><text x="4.008" y="1.67" class="f">@itsfoss</text><text x="13.026" y="1.67" class="g">~/Documents</text><text x="24.048" y="1.67" class="f">&gt;</text><text x="26.052" y="1.67" class="i">~</text><text x="27.054" y="1.67" class="h">/Desktop/</text></symbol><symbol id="10"><text x="0" y="1.67" class="g">team</text><text x="4.008" y="1.67" class="f">@itsfoss</text><text x="13.026" y="1.67" class="g">~/Desktop</text><text x="22.043999999999997" y="1.67" class="f">&gt;</text></symbol><symbol id="a"><rect height="11" width="120" x="0" y="0" class="j"></rect></symbol><symbol id="b"><rect height="2.171" width="1.1022" class="k"></rect></symbol></defs><rect height="21.71" width="120" class="a"></rect><g class="m"><svg x="0" y="0" width="11280"><svg x="0"><use xlink:href="#a"></use><use xlink:href="#b" x="-0.0040000000000000036" y="0"></use></svg><svg x="120"><use xlink:href="#a"></use><use xlink:href="#b" x="-0.0040000000000000036" y="4.317"></use><use xlink:href="#1" y="0"></use><use xlink:href="#2" y="2.171"></use></svg><svg x="240"><use xlink:href="#a"></use><use xlink:href="#b" x="-0.0040000000000000036" y="4.317"></use><use xlink:href="#1" y="0"></use><use xlink:href="#2" y="2.171"></use></svg><svg x="360"><use xlink:href="#a"></use><use xlink:href="#b" x="-0.0040000000000000036" y="4.317"></use><use xlink:href="#1" y="0"></use><use xlink:href="#2" y="2.171"></use></svg><svg x="480"><use xlink:href="#a"></use><use xlink:href="#b" x="-0.0040000000000000036" y="4.317"></use><use xlink:href="#1" y="0"></use><use xlink:href="#2" y="2.171"></use></svg><svg x="600"><use xlink:href="#a"></use><use xlink:href="#b" x="15.996" y="4.317"></use><use xlink:href="#1" y="0"></use><use xlink:href="#2" y="2.171"></use><use xlink:href="#3" y="4.342"></use></svg><svg x="720"><use xlink:href="#a"></use><use xlink:href="#b" x="16.996" y="4.317"></use><use xlink:href="#1" y="0"></use><use xlink:href="#2" y="2.171"></use><text x="0" y="6.012" class="g">team</text><text x="4.008" y="6.012" class="f">@itsfoss</text><text x="13.026" y="6.012" class="g">~</text><text x="14.027999999999999" y="6.012" class="f">&gt;</text><text x="16.032" y="6.012" class="f">D</text></svg><svg x="840"><use xlink:href="#a"></use><use xlink:href="#b" x="16.996" y="4.317"></use><use xlink:href="#1" y="0"></use><use xlink:href="#2" y="2.171"></use><text x="0" y="6.012" class="g">team</text><text x="4.008" y="6.012" class="f">@itsfoss</text><text x="13.026" y="6.012" class="g">~</text><text x="14.027999999999999" y="6.012" class="f">&gt;</text><text x="16.032" y="6.012" class="n">D</text></svg><svg x="960"><use xlink:href="#a"></use><use xlink:href="#b" x="16.996" y="4.317"></use><use xlink:href="#1" y="0"></use><use xlink:href="#2" y="2.171"></use><text x="0" y="6.012" class="g">team</text><text x="4.008" y="6.012" class="f">@itsfoss</text><text x="13.026" y="6.012" class="g">~</text><text x="14.027999999999999" y="6.012" class="f">&gt;</text><text x="16.032" y="6.012" class="n">D</text><text x="17.034" y="6.012" class="o">esktop/</text></svg><svg x="1080"><use xlink:href="#a"></use><use xlink:href="#b" x="17.996" y="4.317"></use><use xlink:href="#1" y="0"></use><use xlink:href="#2" y="2.171"></use><text x="0" y="6.012" class="g">team</text><text x="4.008" y="6.012" class="f">@itsfoss</text><text x="13.026" y="6.012" class="g">~</text><text x="14.027999999999999" y="6.012" class="f">&gt;</text><text x="16.032" y="6.012" class="n">Do</text></svg><svg x="1200"><use xlink:href="#a"></use><use xlink:href="#b" x="17.996" y="4.317"></use><use xlink:href="#1" y="0"></use><use xlink:href="#2" y="2.171"></use><text x="0" y="6.012" class="g">team</text><text x="4.008" y="6.012" class="f">@itsfoss</text><text x="13.026" y="6.012" class="g">~</text><text x="14.027999999999999" y="6.012" class="f">&gt;</text><text x="16.032" y="6.012" class="n">Do</text><text x="18.035999999999998" y="6.012" class="o">cuments/</text></svg><svg x="1320"><use xlink:href="#a"></use><use xlink:href="#b" x="18.996" y="4.317"></use><use xlink:href="#1" y="0"></use><use xlink:href="#2" y="2.171"></use><text x="0" y="6.012" class="g">team</text><text x="4.008" y="6.012" class="f">@itsfoss</text><text x="13.026" y="6.012" class="g">~</text><text x="14.027999999999999" y="6.012" class="f">&gt;</text><text x="16.032" y="6.012" class="n">Dow</text></svg><svg x="1440"><use xlink:href="#a"></use><use xlink:href="#b" x="18.996" y="4.317"></use><use xlink:href="#1" y="0"></use><use xlink:href="#2" y="2.171"></use><text x="0" y="6.012" class="g">team</text><text x="4.008" y="6.012" class="f">@itsfoss</text><text x="13.026" y="6.012" class="g">~</text><text x="14.027999999999999" y="6.012" class="f">&gt;</text><text x="16.032" y="6.012" class="n">Dow</text><text x="19.037999999999997" y="6.012" class="o">nloads/</text></svg><svg x="1560"><use xlink:href="#a"></use><use xlink:href="#b" x="25.996" y="4.317"></use><use xlink:href="#1" y="0"></use><use xlink:href="#2" y="2.171"></use><text x="0" y="6.012" class="g">team</text><text x="4.008" y="6.012" class="f">@itsfoss</text><text x="13.026" y="6.012" class="g">~</text><text x="14.027999999999999" y="6.012" class="f">&gt;</text><text x="16.032" y="6.012" class="f">Downloads/</text></svg><svg x="1680"><use xlink:href="#a"></use><use xlink:href="#b" x="25.996" y="4.317"></use><use xlink:href="#1" y="0"></use><use xlink:href="#2" y="2.171"></use><text x="0" y="6.012" class="g">team</text><text x="4.008" y="6.012" class="f">@itsfoss</text><text x="13.026" y="6.012" class="g">~</text><text x="14.027999999999999" y="6.012" class="f">&gt;</text><text x="16.032" y="6.012" class="h">Downloads/</text><text x="26.052" y="6.012" class="o">agg</text></svg><svg x="1800"><use xlink:href="#a"></use><use xlink:href="#b" x="-0.0040000000000000036" y="6.4879999999999995"></use><use xlink:href="#1" y="0"></use><use xlink:href="#2" y="2.171"></use><use xlink:href="#4" y="4.342"></use></svg><svg x="1920"><use xlink:href="#a"></use><use xlink:href="#b" x="-0.0040000000000000036" y="6.4879999999999995"></use><use xlink:href="#1" y="0"></use><use xlink:href="#2" y="2.171"></use><use xlink:href="#4" y="4.342"></use></svg><svg x="2040"><use xlink:href="#a"></use><use xlink:href="#b" x="-0.0040000000000000036" y="6.4879999999999995"></use><use xlink:href="#1" y="0"></use><use xlink:href="#2" y="2.171"></use><use xlink:href="#4" y="4.342"></use></svg><svg x="2160"><use xlink:href="#a"></use><use xlink:href="#b" x="-0.0040000000000000036" y="6.4879999999999995"></use><use xlink:href="#1" y="0"></use><use xlink:href="#2" y="2.171"></use><use xlink:href="#4" y="4.342"></use></svg><svg x="2280"><use xlink:href="#a"></use><use xlink:href="#b" x="25.996" y="6.4879999999999995"></use><use xlink:href="#1" y="0"></use><use xlink:href="#2" y="2.171"></use><use xlink:href="#4" y="4.342"></use><use xlink:href="#5" y="6.513"></use></svg><svg x="2400"><use xlink:href="#a"></use><use xlink:href="#b" x="26.996" y="6.4879999999999995"></use><use xlink:href="#1" y="0"></use><use xlink:href="#2" y="2.171"></use><use xlink:href="#4" y="4.342"></use><text x="0" y="8.183" class="g">team</text><text x="4.008" y="8.183" class="f">@itsfoss</text><text x="13.026" y="8.183" class="g">~/Downloads</text><text x="24.048" y="8.183" class="f">&gt;</text><text x="26.052" y="8.183" class="f">~</text></svg><svg x="2520"><use xlink:href="#a"></use><use xlink:href="#b" x="26.996" y="6.4879999999999995"></use><use xlink:href="#1" y="0"></use><use xlink:href="#2" y="2.171"></use><use xlink:href="#4" y="4.342"></use><text x="0" y="8.183" class="g">team</text><text x="4.008" y="8.183" class="f">@itsfoss</text><text x="13.026" y="8.183" class="g">~/Downloads</text><text x="24.048" y="8.183" class="f">&gt;</text><text x="26.052" y="8.183" class="i">~</text></svg><svg x="2640"><use xlink:href="#a"></use><use xlink:href="#b" x="26.996" y="6.4879999999999995"></use><use xlink:href="#1" y="0"></use><use xlink:href="#2" y="2.171"></use><use xlink:href="#4" y="4.342"></use><text x="0" y="8.183" class="g">team</text><text x="4.008" y="8.183" class="f">@itsfoss</text><text x="13.026" y="8.183" class="g">~/Downloads</text><text x="24.048" y="8.183" class="f">&gt;</text><text x="26.052" y="8.183" class="i">~</text><text x="27.054" y="8.183" class="o">avahi</text></svg><svg x="2760"><use xlink:href="#a"></use><use xlink:href="#b" x="27.996" y="6.4879999999999995"></use><use xlink:href="#1" y="0"></use><use xlink:href="#2" y="2.171"></use><use xlink:href="#4" y="4.342"></use><text x="0" y="8.183" class="g">team</text><text x="4.008" y="8.183" class="f">@itsfoss</text><text x="13.026" y="8.183" class="g">~/Downloads</text><text x="24.048" y="8.183" class="f">&gt;</text><text x="26.052" y="8.183" class="i">~/</text></svg><svg x="2880"><use xlink:href="#a"></use><use xlink:href="#b" x="27.996" y="6.4879999999999995"></use><use xlink:href="#1" y="0"></use><use xlink:href="#2" y="2.171"></use><use xlink:href="#4" y="4.342"></use><text x="0" y="8.183" class="g">team</text><text x="4.008" y="8.183" class="f">@itsfoss</text><text x="13.026" y="8.183" class="g">~/Downloads</text><text x="24.048" y="8.183" class="f">&gt;</text><text x="26.052" y="8.183" class="i">~</text><text x="27.054" y="8.183" class="h">/</text></svg><svg x="3000"><use xlink:href="#a"></use><use xlink:href="#b" x="27.996" y="6.4879999999999995"></use><use xlink:href="#1" y="0"></use><use xlink:href="#2" y="2.171"></use><use xlink:href="#4" y="4.342"></use><text x="0" y="8.183" class="g">team</text><text x="4.008" y="8.183" class="f">@itsfoss</text><text x="13.026" y="8.183" class="g">~/Downloads</text><text x="24.048" y="8.183" class="f">&gt;</text><text x="26.052" y="8.183" class="i">~</text><text x="27.054" y="8.183" class="h">/</text><text x="28.055999999999997" y="8.183" class="o">Desktop/</text></svg><svg x="3120"><use xlink:href="#a"></use><use xlink:href="#b" x="28.996" y="6.4879999999999995"></use><use xlink:href="#1" y="0"></use><use xlink:href="#2" y="2.171"></use><use xlink:href="#4" y="4.342"></use><text x="0" y="8.183" class="g">team</text><text x="4.008" y="8.183" class="f">@itsfoss</text><text x="13.026" y="8.183" class="g">~/Downloads</text><text x="24.048" y="8.183" class="f">&gt;</text><text x="26.052" y="8.183" class="n">~/D</text><text x="29.058" y="8.183" class="o">esktop/</text></svg><svg x="3240"><use xlink:href="#a"></use><use xlink:href="#b" x="29.996" y="6.4879999999999995"></use><use xlink:href="#1" y="0"></use><use xlink:href="#2" y="2.171"></use><use xlink:href="#4" y="4.342"></use><text x="0" y="8.183" class="g">team</text><text x="4.008" y="8.183" class="f">@itsfoss</text><text x="13.026" y="8.183" class="g">~/Downloads</text><text x="24.048" y="8.183" class="f">&gt;</text><text x="26.052" y="8.183" class="n">~/Do</text></svg><svg x="3360"><use xlink:href="#a"></use><use xlink:href="#b" x="29.996" y="6.4879999999999995"></use><use xlink:href="#1" y="0"></use><use xlink:href="#2" y="2.171"></use><use xlink:href="#4" y="4.342"></use><text x="0" y="8.183" class="g">team</text><text x="4.008" y="8.183" class="f">@itsfoss</text><text x="13.026" y="8.183" class="g">~/Downloads</text><text x="24.048" y="8.183" class="f">&gt;</text><text x="26.052" y="8.183" class="n">~/Do</text><text x="30.059999999999995" y="8.183" class="o">cuments/</text></svg><svg x="3480"><use xlink:href="#a"></use><use xlink:href="#b" x="30.996" y="6.4879999999999995"></use><use xlink:href="#1" y="0"></use><use xlink:href="#2" y="2.171"></use><use xlink:href="#4" y="4.342"></use><text x="0" y="8.183" class="g">team</text><text x="4.008" y="8.183" class="f">@itsfoss</text><text x="13.026" y="8.183" class="g">~/Downloads</text><text x="24.048" y="8.183" class="f">&gt;</text><text x="26.052" y="8.183" class="n">~/Doc</text><text x="31.061999999999998" y="8.183" class="o">uments/</text></svg><svg x="3600"><use xlink:href="#a"></use><use xlink:href="#b" x="37.996" y="6.4879999999999995"></use><use xlink:href="#1" y="0"></use><use xlink:href="#2" y="2.171"></use><use xlink:href="#4" y="4.342"></use><text x="0" y="8.183" class="g">team</text><text x="4.008" y="8.183" class="f">@itsfoss</text><text x="13.026" y="8.183" class="g">~/Downloads</text><text x="24.048" y="8.183" class="f">&gt;</text><text x="26.052" y="8.183" class="f">~/Documents/</text></svg><svg x="3720"><use xlink:href="#a"></use><use xlink:href="#b" x="37.996" y="6.4879999999999995"></use><use xlink:href="#1" y="0"></use><use xlink:href="#2" y="2.171"></use><use xlink:href="#4" y="4.342"></use><use xlink:href="#6" y="6.513"></use></svg><svg x="3840"><use xlink:href="#a"></use><use xlink:href="#b" x="-0.0040000000000000036" y="8.658999999999999"></use><use xlink:href="#1" y="0"></use><use xlink:href="#2" y="2.171"></use><use xlink:href="#4" y="4.342"></use><use xlink:href="#6" y="6.513"></use></svg><svg x="3960"><use xlink:href="#a"></use><use xlink:href="#b" x="-0.0040000000000000036" y="8.658999999999999"></use><use xlink:href="#1" y="0"></use><use xlink:href="#2" y="2.171"></use><use xlink:href="#4" y="4.342"></use><use xlink:href="#6" y="6.513"></use></svg><svg x="4080"><use xlink:href="#a"></use><use xlink:href="#b" x="-0.0040000000000000036" y="8.658999999999999"></use><use xlink:href="#1" y="0"></use><use xlink:href="#2" y="2.171"></use><use xlink:href="#4" y="4.342"></use><use xlink:href="#6" y="6.513"></use></svg><svg x="4200"><use xlink:href="#a"></use><use xlink:href="#b" x="-0.0040000000000000036" y="8.658999999999999"></use><use xlink:href="#1" y="0"></use><use xlink:href="#2" y="2.171"></use><use xlink:href="#4" y="4.342"></use><use xlink:href="#6" y="6.513"></use></svg><svg x="4320"><use xlink:href="#a"></use><use xlink:href="#b" x="-0.0040000000000000036" y="8.658999999999999"></use><use xlink:href="#1" y="0"></use><use xlink:href="#2" y="2.171"></use><use xlink:href="#4" y="4.342"></use><use xlink:href="#6" y="6.513"></use></svg><svg x="4440"><use xlink:href="#a"></use><use xlink:href="#b" x="25.996" y="8.658999999999999"></use><use xlink:href="#1" y="0"></use><use xlink:href="#2" y="2.171"></use><use xlink:href="#4" y="4.342"></use><use xlink:href="#6" y="6.513"></use><use xlink:href="#7" y="8.684"></use></svg><svg x="4560"><use xlink:href="#a"></use><use xlink:href="#b" x="26.996" y="8.658999999999999"></use><use xlink:href="#1" y="0"></use><use xlink:href="#2" y="2.171"></use><use xlink:href="#4" y="4.342"></use><use xlink:href="#6" y="6.513"></use><text x="0" y="10.354" class="g">team</text><text x="4.008" y="10.354" class="f">@itsfoss</text><text x="13.026" y="10.354" class="g">~/Documents</text><text x="24.048" y="10.354" class="f">&gt;</text><text x="26.052" y="10.354" class="f">~</text></svg><svg x="4680"><use xlink:href="#a"></use><use xlink:href="#b" x="26.996" y="8.658999999999999"></use><use xlink:href="#1" y="0"></use><use xlink:href="#2" y="2.171"></use><use xlink:href="#4" y="4.342"></use><use xlink:href="#6" y="6.513"></use><use xlink:href="#8" y="8.684"></use></svg><svg x="4800"><use xlink:href="#a"></use><use xlink:href="#b" x="26.996" y="8.658999999999999"></use><use xlink:href="#1" y="0"></use><use xlink:href="#2" y="2.171"></use><use xlink:href="#4" y="4.342"></use><use xlink:href="#6" y="6.513"></use><text x="0" y="10.354" class="g">team</text><text x="4.008" y="10.354" class="f">@itsfoss</text><text x="13.026" y="10.354" class="g">~/Documents</text><text x="24.048" y="10.354" class="f">&gt;</text><text x="26.052" y="10.354" class="i">~</text><text x="27.054" y="10.354" class="o">avahi</text></svg><svg x="4920"><use xlink:href="#a"></use><use xlink:href="#b" x="27.996" y="8.658999999999999"></use><use xlink:href="#1" y="0"></use><use xlink:href="#2" y="2.171"></use><use xlink:href="#4" y="4.342"></use><use xlink:href="#6" y="6.513"></use><text x="0" y="10.354" class="g">team</text><text x="4.008" y="10.354" class="f">@itsfoss</text><text x="13.026" y="10.354" class="g">~/Documents</text><text x="24.048" y="10.354" class="f">&gt;</text><text x="26.052" y="10.354" class="n">~?</text></svg><svg x="5040"><use xlink:href="#a"></use><use xlink:href="#b" x="26.996" y="8.658999999999999"></use><use xlink:href="#1" y="0"></use><use xlink:href="#2" y="2.171"></use><use xlink:href="#4" y="4.342"></use><use xlink:href="#6" y="6.513"></use><use xlink:href="#8" y="8.684"></use></svg><svg x="5160"><use xlink:href="#a"></use><use xlink:href="#b" x="27.996" y="8.658999999999999"></use><use xlink:href="#1" y="0"></use><use xlink:href="#2" y="2.171"></use><use xlink:href="#4" y="4.342"></use><use xlink:href="#6" y="6.513"></use><text x="0" y="10.354" class="g">team</text><text x="4.008" y="10.354" class="f">@itsfoss</text><text x="13.026" y="10.354" class="g">~/Documents</text><text x="24.048" y="10.354" class="f">&gt;</text><text x="26.052" y="10.354" class="i">~/</text></svg><svg x="5280"><use xlink:href="#a"></use><use xlink:href="#b" x="27.996" y="8.658999999999999"></use><use xlink:href="#1" y="0"></use><use xlink:href="#2" y="2.171"></use><use xlink:href="#4" y="4.342"></use><use xlink:href="#6" y="6.513"></use><text x="0" y="10.354" class="g">team</text><text x="4.008" y="10.354" class="f">@itsfoss</text><text x="13.026" y="10.354" class="g">~/Documents</text><text x="24.048" y="10.354" class="f">&gt;</text><text x="26.052" y="10.354" class="i">~</text><text x="27.054" y="10.354" class="h">/</text><text x="28.055999999999997" y="10.354" class="o">Desktop/</text></svg><svg x="5400"><use xlink:href="#a"></use><use xlink:href="#b" x="28.996" y="8.658999999999999"></use><use xlink:href="#1" y="0"></use><use xlink:href="#2" y="2.171"></use><use xlink:href="#4" y="4.342"></use><use xlink:href="#6" y="6.513"></use><text x="0" y="10.354" class="g">team</text><text x="4.008" y="10.354" class="f">@itsfoss</text><text x="13.026" y="10.354" class="g">~/Documents</text><text x="24.048" y="10.354" class="f">&gt;</text><text x="26.052" y="10.354" class="n">~/D</text><text x="29.058" y="10.354" class="o">esktop/</text></svg><svg x="5520"><use xlink:href="#a"></use><use xlink:href="#b" x="29.996" y="8.658999999999999"></use><use xlink:href="#1" y="0"></use><use xlink:href="#2" y="2.171"></use><use xlink:href="#4" y="4.342"></use><use xlink:href="#6" y="6.513"></use><text x="0" y="10.354" class="g">team</text><text x="4.008" y="10.354" class="f">@itsfoss</text><text x="13.026" y="10.354" class="g">~/Documents</text><text x="24.048" y="10.354" class="f">&gt;</text><text x="26.052" y="10.354" class="n">~/De</text><text x="30.059999999999995" y="10.354" class="o">sktop/</text></svg><svg x="5640"><use xlink:href="#a"></use><use xlink:href="#b" x="30.996" y="8.658999999999999"></use><use xlink:href="#1" y="0"></use><use xlink:href="#2" y="2.171"></use><use xlink:href="#4" y="4.342"></use><use xlink:href="#6" y="6.513"></use><text x="0" y="10.354" class="g">team</text><text x="4.008" y="10.354" class="f">@itsfoss</text><text x="13.026" y="10.354" class="g">~/Documents</text><text x="24.048" y="10.354" class="f">&gt;</text><text x="26.052" y="10.354" class="n">~/Des</text><text x="31.061999999999998" y="10.354" class="o">ktop/</text></svg><svg x="5760"><use xlink:href="#a"></use><use xlink:href="#b" x="31.996" y="8.658999999999999"></use><use xlink:href="#1" y="0"></use><use xlink:href="#2" y="2.171"></use><use xlink:href="#4" y="4.342"></use><use xlink:href="#6" y="6.513"></use><text x="0" y="10.354" class="g">team</text><text x="4.008" y="10.354" class="f">@itsfoss</text><text x="13.026" y="10.354" class="g">~/Documents</text><text x="24.048" y="10.354" class="f">&gt;</text><text x="26.052" y="10.354" class="n">~/Desk</text><text x="32.064" y="10.354" class="o">top/</text></svg><svg x="5880"><use xlink:href="#a"></use><use xlink:href="#b" x="35.996" y="8.658999999999999"></use><use xlink:href="#1" y="0"></use><use xlink:href="#2" y="2.171"></use><use xlink:href="#4" y="4.342"></use><use xlink:href="#6" y="6.513"></use><text x="0" y="10.354" class="g">team</text><text x="4.008" y="10.354" class="f">@itsfoss</text><text x="13.026" y="10.354" class="g">~/Documents</text><text x="24.048" y="10.354" class="f">&gt;</text><text x="26.052" y="10.354" class="f">~/Desktop/</text></svg><svg x="6000"><use xlink:href="#a"></use><use xlink:href="#b" x="35.996" y="8.658999999999999"></use><use xlink:href="#1" y="0"></use><use xlink:href="#2" y="2.171"></use><use xlink:href="#4" y="4.342"></use><use xlink:href="#6" y="6.513"></use><use xlink:href="#9" y="8.684"></use></svg><svg x="6120"><use xlink:href="#a"></use><use xlink:href="#b" x="-0.0040000000000000036" y="10.83"></use><use xlink:href="#1" y="0"></use><use xlink:href="#2" y="2.171"></use><use xlink:href="#4" y="4.342"></use><use xlink:href="#6" y="6.513"></use><use xlink:href="#9" y="8.684"></use></svg><svg x="6240"><use xlink:href="#a"></use><use xlink:href="#b" x="-0.0040000000000000036" y="10.83"></use><use xlink:href="#1" y="0"></use><use xlink:href="#2" y="2.171"></use><use xlink:href="#4" y="4.342"></use><use xlink:href="#6" y="6.513"></use><use xlink:href="#9" y="8.684"></use></svg><svg x="6360"><use xlink:href="#a"></use><use xlink:href="#b" x="-0.0040000000000000036" y="10.83"></use><use xlink:href="#1" y="0"></use><use xlink:href="#2" y="2.171"></use><use xlink:href="#4" y="4.342"></use><use xlink:href="#6" y="6.513"></use><use xlink:href="#9" y="8.684"></use></svg><svg x="6480"><use xlink:href="#a"></use><use xlink:href="#b" x="-0.0040000000000000036" y="10.83"></use><use xlink:href="#1" y="0"></use><use xlink:href="#2" y="2.171"></use><use xlink:href="#4" y="4.342"></use><use xlink:href="#6" y="6.513"></use><use xlink:href="#9" y="8.684"></use></svg><svg x="6600"><use xlink:href="#a"></use><use xlink:href="#b" x="23.996" y="10.83"></use><use xlink:href="#1" y="0"></use><use xlink:href="#2" y="2.171"></use><use xlink:href="#4" y="4.342"></use><use xlink:href="#6" y="6.513"></use><use xlink:href="#9" y="8.684"></use><use xlink:href="#10" y="10.855"></use></svg><svg x="6720"><use xlink:href="#a"></use><use xlink:href="#b" x="23.996" y="10.83"></use><use xlink:href="#1" y="0"></use><use xlink:href="#2" y="2.171"></use><use xlink:href="#4" y="4.342"></use><use xlink:href="#6" y="6.513"></use><use xlink:href="#9" y="8.684"></use><use xlink:href="#10" y="10.855"></use></svg><svg x="6840"><use xlink:href="#a"></use><use xlink:href="#b" x="23.996" y="10.83"></use><use xlink:href="#1" y="0"></use><use xlink:href="#2" y="2.171"></use><use xlink:href="#4" y="4.342"></use><use xlink:href="#6" y="6.513"></use><use xlink:href="#9" y="8.684"></use><use xlink:href="#10" y="10.855"></use></svg><svg x="6960"><use xlink:href="#a"></use><use xlink:href="#b" x="25.996" y="10.83"></use><use xlink:href="#1" y="0"></use><use xlink:href="#2" y="2.171"></use><use xlink:href="#4" y="4.342"></use><use xlink:href="#6" y="6.513"></use><use xlink:href="#9" y="8.684"></use><use xlink:href="#7" y="10.855"></use></svg><svg x="7080"><use xlink:href="#a"></use><use xlink:href="#b" x="25.996" y="10.83"></use><use xlink:href="#1" y="0"></use><use xlink:href="#2" y="2.171"></use><use xlink:href="#4" y="4.342"></use><use xlink:href="#6" y="6.513"></use><use xlink:href="#9" y="8.684"></use><use xlink:href="#7" y="10.855"></use></svg><svg x="7200"><use xlink:href="#a"></use><use xlink:href="#b" x="25.996" y="10.83"></use><use xlink:href="#1" y="0"></use><use xlink:href="#2" y="2.171"></use><use xlink:href="#4" y="4.342"></use><use xlink:href="#6" y="6.513"></use><use xlink:href="#9" y="8.684"></use><use xlink:href="#5" y="10.855"></use></svg><svg x="7320"><use xlink:href="#a"></use><use xlink:href="#b" x="25.996" y="10.83"></use><use xlink:href="#1" y="0"></use><use xlink:href="#2" y="2.171"></use><use xlink:href="#4" y="4.342"></use><use xlink:href="#6" y="6.513"></use><use xlink:href="#9" y="8.684"></use><use xlink:href="#5" y="10.855"></use></svg><svg x="7440"><use xlink:href="#a"></use><use xlink:href="#b" x="25.996" y="10.83"></use><use xlink:href="#1" y="0"></use><use xlink:href="#2" y="2.171"></use><use xlink:href="#4" y="4.342"></use><use xlink:href="#6" y="6.513"></use><use xlink:href="#9" y="8.684"></use><use xlink:href="#5" y="10.855"></use></svg><svg x="7560"><use xlink:href="#a"></use><use xlink:href="#b" x="25.996" y="10.83"></use><use xlink:href="#1" y="0"></use><use xlink:href="#2" y="2.171"></use><use xlink:href="#4" y="4.342"></use><use xlink:href="#6" y="6.513"></use><use xlink:href="#9" y="8.684"></use><use xlink:href="#7" y="10.855"></use></svg><svg x="7680"><use xlink:href="#a"></use><use xlink:href="#b" x="25.996" y="10.83"></use><use xlink:href="#1" y="0"></use><use xlink:href="#2" y="2.171"></use><use xlink:href="#4" y="4.342"></use><use xlink:href="#6" y="6.513"></use><use xlink:href="#9" y="8.684"></use><use xlink:href="#7" y="10.855"></use></svg><svg x="7800"><use xlink:href="#a"></use><use xlink:href="#b" x="25.996" y="10.83"></use><use xlink:href="#1" y="0"></use><use xlink:href="#2" y="2.171"></use><use xlink:href="#4" y="4.342"></use><use xlink:href="#6" y="6.513"></use><use xlink:href="#9" y="8.684"></use><use xlink:href="#7" y="10.855"></use></svg><svg x="7920"><use xlink:href="#a"></use><use xlink:href="#b" x="23.996" y="10.83"></use><use xlink:href="#1" y="0"></use><use xlink:href="#2" y="2.171"></use><use xlink:href="#4" y="4.342"></use><use xlink:href="#6" y="6.513"></use><use xlink:href="#9" y="8.684"></use><use xlink:href="#10" y="10.855"></use></svg><svg x="8040"><use xlink:href="#a"></use><use xlink:href="#b" x="23.996" y="10.83"></use><use xlink:href="#1" y="0"></use><use xlink:href="#2" y="2.171"></use><use xlink:href="#4" y="4.342"></use><use xlink:href="#6" y="6.513"></use><use xlink:href="#9" y="8.684"></use><use xlink:href="#10" y="10.855"></use></svg><svg x="8160"><use xlink:href="#a"></use><use xlink:href="#b" x="23.996" y="10.83"></use><use xlink:href="#1" y="0"></use><use xlink:href="#2" y="2.171"></use><use xlink:href="#4" y="4.342"></use><use xlink:href="#6" y="6.513"></use><use xlink:href="#9" y="8.684"></use><use xlink:href="#10" y="10.855"></use></svg><svg x="8280"><use xlink:href="#a"></use><use xlink:href="#b" x="23.996" y="10.83"></use><use xlink:href="#1" y="0"></use><use xlink:href="#2" y="2.171"></use><use xlink:href="#4" y="4.342"></use><use xlink:href="#6" y="6.513"></use><use xlink:href="#9" y="8.684"></use><use xlink:href="#10" y="10.855"></use></svg><svg x="8400"><use xlink:href="#a"></use><use xlink:href="#b" x="-0.0040000000000000036" y="10.83"></use><use xlink:href="#1" y="0"></use><use xlink:href="#2" y="2.171"></use><use xlink:href="#4" y="4.342"></use><use xlink:href="#6" y="6.513"></use><use xlink:href="#9" y="8.684"></use><use xlink:href="#10" y="10.855"></use></svg><svg x="8520"><use xlink:href="#a"></use><use xlink:href="#b" x="23.996" y="10.83"></use><use xlink:href="#1" y="0"></use><use xlink:href="#2" y="2.171"></use><use xlink:href="#4" y="4.342"></use><use xlink:href="#6" y="6.513"></use><use xlink:href="#9" y="8.684"></use><use xlink:href="#10" y="10.855"></use></svg><svg x="8640"><use xlink:href="#a"></use><use xlink:href="#b" x="25.996" y="10.83"></use><use xlink:href="#1" y="0"></use><use xlink:href="#2" y="2.171"></use><use xlink:href="#4" y="4.342"></use><use xlink:href="#6" y="6.513"></use><use xlink:href="#9" y="8.684"></use><use xlink:href="#7" y="10.855"></use></svg><svg x="8760"><use xlink:href="#a"></use><use xlink:href="#b" x="25.996" y="10.83"></use><use xlink:href="#1" y="0"></use><use xlink:href="#2" y="2.171"></use><use xlink:href="#4" y="4.342"></use><use xlink:href="#6" y="6.513"></use><use xlink:href="#9" y="8.684"></use><use xlink:href="#7" y="10.855"></use></svg><svg x="8880"><use xlink:href="#a"></use><use xlink:href="#b" x="25.996" y="10.83"></use><use xlink:href="#1" y="0"></use><use xlink:href="#2" y="2.171"></use><use xlink:href="#4" y="4.342"></use><use xlink:href="#6" y="6.513"></use><use xlink:href="#9" y="8.684"></use><use xlink:href="#7" y="10.855"></use></svg><svg x="9000"><use xlink:href="#a"></use><use xlink:href="#b" x="25.996" y="10.83"></use><use xlink:href="#1" y="0"></use><use xlink:href="#2" y="2.171"></use><use xlink:href="#4" y="4.342"></use><use xlink:href="#6" y="6.513"></use><use xlink:href="#9" y="8.684"></use><use xlink:href="#5" y="10.855"></use></svg><svg x="9120"><use xlink:href="#a"></use><use xlink:href="#b" x="25.996" y="10.83"></use><use xlink:href="#1" y="0"></use><use xlink:href="#2" y="2.171"></use><use xlink:href="#4" y="4.342"></use><use xlink:href="#6" y="6.513"></use><use xlink:href="#9" y="8.684"></use><use xlink:href="#5" y="10.855"></use></svg><svg x="9240"><use xlink:href="#a"></use><use xlink:href="#b" x="25.996" y="10.83"></use><use xlink:href="#1" y="0"></use><use xlink:href="#2" y="2.171"></use><use xlink:href="#4" y="4.342"></use><use xlink:href="#6" y="6.513"></use><use xlink:href="#9" y="8.684"></use><use xlink:href="#5" y="10.855"></use></svg><svg x="9360"><use xlink:href="#a"></use><use xlink:href="#b" x="15.996" y="10.83"></use><use xlink:href="#1" y="0"></use><use xlink:href="#2" y="2.171"></use><use xlink:href="#4" y="4.342"></use><use xlink:href="#6" y="6.513"></use><use xlink:href="#9" y="8.684"></use><use xlink:href="#3" y="10.855"></use></svg><svg x="9480"><use xlink:href="#a"></use><use xlink:href="#b" x="15.996" y="10.83"></use><use xlink:href="#1" y="0"></use><use xlink:href="#2" y="2.171"></use><use xlink:href="#4" y="4.342"></use><use xlink:href="#6" y="6.513"></use><use xlink:href="#9" y="8.684"></use><use xlink:href="#3" y="10.855"></use></svg><svg x="9600"><use xlink:href="#a"></use><use xlink:href="#b" x="15.996" y="10.83"></use><use xlink:href="#1" y="0"></use><use xlink:href="#2" y="2.171"></use><use xlink:href="#4" y="4.342"></use><use xlink:href="#6" y="6.513"></use><use xlink:href="#9" y="8.684"></use><use xlink:href="#3" y="10.855"></use></svg><svg x="9720"><use xlink:href="#a"></use><use xlink:href="#b" x="15.996" y="10.83"></use><use xlink:href="#1" y="0"></use><use xlink:href="#2" y="2.171"></use><use xlink:href="#4" y="4.342"></use><use xlink:href="#6" y="6.513"></use><use xlink:href="#9" y="8.684"></use><use xlink:href="#3" y="10.855"></use></svg><svg x="9840"><use xlink:href="#a"></use><use xlink:href="#b" x="15.996" y="10.83"></use><use xlink:href="#1" y="0"></use><use xlink:href="#2" y="2.171"></use><use xlink:href="#4" y="4.342"></use><use xlink:href="#6" y="6.513"></use><use xlink:href="#9" y="8.684"></use><use xlink:href="#3" y="10.855"></use></svg><svg x="9960"><use xlink:href="#a"></use><use xlink:href="#b" x="15.996" y="10.83"></use><use xlink:href="#1" y="0"></use><use xlink:href="#2" y="2.171"></use><use xlink:href="#4" y="4.342"></use><use xlink:href="#6" y="6.513"></use><use xlink:href="#9" y="8.684"></use><use xlink:href="#3" y="10.855"></use></svg><svg x="10080"><use xlink:href="#a"></use><use xlink:href="#b" x="25.996" y="10.83"></use><use xlink:href="#1" y="0"></use><use xlink:href="#2" y="2.171"></use><use xlink:href="#4" y="4.342"></use><use xlink:href="#6" y="6.513"></use><use xlink:href="#9" y="8.684"></use><use xlink:href="#5" y="10.855"></use></svg><svg x="10200"><use xlink:href="#a"></use><use xlink:href="#b" x="25.996" y="10.83"></use><use xlink:href="#1" y="0"></use><use xlink:href="#2" y="2.171"></use><use xlink:href="#4" y="4.342"></use><use xlink:href="#6" y="6.513"></use><use xlink:href="#9" y="8.684"></use><use xlink:href="#5" y="10.855"></use></svg><svg x="10320"><use xlink:href="#a"></use><use xlink:href="#b" x="25.996" y="10.83"></use><use xlink:href="#1" y="0"></use><use xlink:href="#2" y="2.171"></use><use xlink:href="#4" y="4.342"></use><use xlink:href="#6" y="6.513"></use><use xlink:href="#9" y="8.684"></use><use xlink:href="#5" y="10.855"></use></svg><svg x="10440"><use xlink:href="#a"></use><use xlink:href="#b" x="-0.0040000000000000036" y="10.83"></use><use xlink:href="#1" y="0"></use><use xlink:href="#2" y="2.171"></use><use xlink:href="#4" y="4.342"></use><use xlink:href="#6" y="6.513"></use><use xlink:href="#9" y="8.684"></use><use xlink:href="#5" y="10.855"></use></svg><svg x="10560"><use xlink:href="#a"></use><use xlink:href="#b" x="25.996" y="10.83"></use><use xlink:href="#1" y="0"></use><use xlink:href="#2" y="2.171"></use><use xlink:href="#4" y="4.342"></use><use xlink:href="#6" y="6.513"></use><use xlink:href="#9" y="8.684"></use><use xlink:href="#7" y="10.855"></use></svg><svg x="10680"><use xlink:href="#a"></use><use xlink:href="#b" x="25.996" y="10.83"></use><use xlink:href="#1" y="0"></use><use xlink:href="#2" y="2.171"></use><use xlink:href="#4" y="4.342"></use><use xlink:href="#6" y="6.513"></use><use xlink:href="#9" y="8.684"></use><use xlink:href="#7" y="10.855"></use></svg><svg x="10800"><use xlink:href="#a"></use><use xlink:href="#b" x="25.996" y="10.83"></use><use xlink:href="#1" y="0"></use><use xlink:href="#2" y="2.171"></use><use xlink:href="#4" y="4.342"></use><use xlink:href="#6" y="6.513"></use><use xlink:href="#9" y="8.684"></use><use xlink:href="#7" y="10.855"></use></svg><svg x="10920"><use xlink:href="#a"></use><use xlink:href="#b" x="23.996" y="10.83"></use><use xlink:href="#1" y="0"></use><use xlink:href="#2" y="2.171"></use><use xlink:href="#4" y="4.342"></use><use xlink:href="#6" y="6.513"></use><use xlink:href="#9" y="8.684"></use><use xlink:href="#10" y="10.855"></use></svg><svg x="11040"><use xlink:href="#a"></use><use xlink:href="#b" x="-0.0040000000000000036" y="13.001"></use><use xlink:href="#1" y="0"></use><use xlink:href="#2" y="2.171"></use><use xlink:href="#4" y="4.342"></use><use xlink:href="#6" y="6.513"></use><use xlink:href="#9" y="8.684"></use><use xlink:href="#10" y="10.855"></use></svg><svg x="11160"><use xlink:href="#a"></use><use xlink:href="#b" x="-0.0040000000000000036" y="13.001"></use><use xlink:href="#1" y="0"></use><use xlink:href="#2" y="2.171"></use><use xlink:href="#4" y="4.342"></use><use xlink:href="#6" y="6.513"></use><use xlink:href="#9" y="8.684"></use><use xlink:href="#10" y="10.855"></use></svg></svg></g></g></svg></svg>