<svg xmlns="http://www.w3.org/2000/svg" xmlns:xlink="http://www.w3.org/1999/xlink" width="1240" height="494.20000000000005"><rect width="1240" height="494.20000000000005" rx="5" ry="5" class="a"></rect><svg y="0%" x="0%"><circle cx="20" cy="20" r="6" class="b"></circle><circle cx="40" cy="20" r="6" class="c"></circle><circle cx="60" cy="20" r="6" class="d"></circle></svg><svg height="434.20000000000005" viewBox="0 0 120 43.42" width="1200" x="15" xmlns="http://www.w3.org/2000/svg" xmlns:xlink="http://www.w3.org/1999/xlink" y="50"><style>.a{fill:rgb(40,45,53)}.b{fill:#ff5f58}.c{fill:#ffbd2e}.d{fill:#18c132}.e{font-family:Monaco,Consolas,Menlo,'Bitstream Vera Sans Mono','Powerline Symbols',monospace}.f{fill:rgb(168,204,140);font-weight:bold;white-space:pre}.g{fill:rgb(185,192,203);white-space:pre}.h{fill:rgb(113,190,242);font-weight:bold;white-space:pre}.i{fill:rgb(185,192,203)}.j{fill:rgb(40,45,53);white-space:pre}.k{fill:rgb(219,171,121)}.l{fill:rgb(219,171,121);white-space:pre}.m{fill:transparent}.n{fill:rgb(111,118,131)}.p{animation-duration:19.615382s;animation-iteration-count:infinite;animation-name:o;animation-timing-function:steps(1,end)}@keyframes o{0%{transform:translateX(-0px)}0.1%{transform:translateX(-120px)}2.34%{transform:translateX(-240px)}3.32%{transform:translateX(-360px)}4.38%{transform:translateX(-480px)}7.36%{transform:translateX(-600px)}12.69%{transform:translateX(-720px)}13.71%{transform:translateX(-840px)}16.43%{transform:translateX(-960px)}20.14%{transform:translateX(-1080px)}20.81%{transform:translateX(-1200px)}22.08%{transform:translateX(-1320px)}23.24%{transform:translateX(-1440px)}25.49%{transform:translateX(-1560px)}31.65%{transform:translateX(-1680px)}33.82%{transform:translateX(-1800px)}35.93%{transform:translateX(-1920px)}36.56%{transform:translateX(-2040px)}40.02%{transform:translateX(-2160px)}40.73%{transform:translateX(-2280px)}42.88%{transform:translateX(-2400px)}45.77%{transform:translateX(-2520px)}47.64%{transform:translateX(-2640px)}49.2%{transform:translateX(-2760px)}51.44%{transform:translateX(-2880px)}54.54%{transform:translateX(-3000px)}57.15%{transform:translateX(-3120px)}60.19%{transform:translateX(-3240px)}62.6%{transform:translateX(-3360px)}62.64%{transform:translateX(-3480px)}71.34%{transform:translateX(-3600px)}71.35%{transform:translateX(-3720px)}72.44%{transform:translateX(-3840px)}72.44%{transform:translateX(-3960px)}75.5%{transform:translateX(-4080px)}75.51%{transform:translateX(-4200px)}76.63%{transform:translateX(-4320px)}76.63%{transform:translateX(-4440px)}78.36%{transform:translateX(-4560px)}78.36%{transform:translateX(-4680px)}82.42%{transform:translateX(-4800px)}82.43%{transform:translateX(-4920px)}100%{transform:translateX(-5040px)}}</style><g font-family="Monaco, Consolas, Menlo, &#x27;Bitstream Vera Sans Mono&#x27;, &#x27;Powerline Symbols&#x27;, monospace" font-size="1.67" class="e"><defs><symbol id="1"><text x="0" y="1.67" class="f">team@itsfoss</text><text x="12.024" y="1.67" class="g">:</text><text x="13.026" y="1.67" class="h">~</text><text x="14.027999999999999" y="1.67" class="g">$</text><text x="16.032" y="1.67" class="g">cd</text></symbol><symbol id="2"><text x="0" y="1.67" class="f">team@itsfoss</text><text x="12.024" y="1.67" class="g">:</text><text x="13.026" y="1.67" class="h">~</text><text x="14.027999999999999" y="1.67" class="g">$</text><text x="16.032" y="1.67" class="g">cd</text><text x="19.037999999999997" y="1.67" class="g">$()</text></symbol><symbol id="3"><text x="0" y="1.67" class="f">team@itsfoss</text><text x="12.024" y="1.67" class="g">:</text><text x="13.026" y="1.67" class="h">~</text><text x="14.027999999999999" y="1.67" class="g">$</text><text x="16.032" y="1.67" class="g">cd</text><text x="19.037999999999997" y="1.67" class="g">$(find</text><text x="26.052" y="1.67" class="g">-type</text><text x="32.064" y="1.67" class="g">d</text><text x="34.068" y="1.67" class="g">|</text><text x="36.071999999999996" y="1.67" class="g">fzy)</text></symbol><symbol id="4"><rect height="2.171" width="1" x="0" y="0" class="i"></rect><text x="0" y="1.67" class="j">.</text></symbol><symbol id="5"><text x="0" y="1.67" class="g">./snap</text></symbol><symbol id="6"><text x="0" y="1.67" class="g">./snap/snapd-desktop-integration</text></symbol><symbol id="7"><text x="0" y="1.67" class="g">./snap/snapd-desktop-integration/83</text></symbol><symbol id="8"><text x="0" y="1.67" class="g">./snap/snapd-desktop-integration/83/.local</text></symbol><symbol id="9"><text x="0" y="1.67" class="g">./snap/snapd-desktop-integration/83/.local/share</text></symbol><symbol id="10"><text x="0" y="1.67" class="g">./snap/snapd-desktop-integration/83/.local/share/icons</text></symbol><symbol id="11"><text x="0" y="1.67" class="g">./snap/snapd-desktop-integration/83/.local/share/glib-2.0</text></symbol><symbol id="12"><text x="0" y="1.67" class="g">./snap/snapd-desktop-integration/83/.local/share/glib-2.0/schemas</text></symbol><symbol id="13"><text x="0" y="1.67" class="g">./snap/snapd-desktop-integration/83/.config</text></symbol><symbol id="14"><text x="0" y="1.67" class="g">&gt;</text><text x="2.004" y="1.67" class="g">D</text></symbol><symbol id="15"><rect height="2.171" width="2" x="0" y="0" class="i"></rect><text x="0" y="1.67" class="j">./</text><rect height="2.171" width="1" x="2.004" y="0" class="k"></rect><text x="2.004" y="1.67" class="j">D</text><rect height="2.171" width="6" x="3.006" y="0" class="i"></rect><text x="3.006" y="1.67" class="j">esktop</text></symbol><symbol id="16"><text x="0" y="1.67" class="g">./</text><text x="2.004" y="1.67" class="l">D</text><text x="3.006" y="1.67" class="g">ocuments</text></symbol><symbol id="17"><text x="0" y="1.67" class="g">./</text><text x="2.004" y="1.67" class="l">D</text><text x="3.006" y="1.67" class="g">ownloads</text></symbol><symbol id="18"><text x="0" y="1.67" class="g">./</text><text x="2.004" y="1.67" class="l">D</text><text x="3.006" y="1.67" class="g">ownloads/monaco-cufonfonts</text></symbol><symbol id="19"><text x="0" y="1.67" class="g">./</text><text x="2.004" y="1.67" class="l">D</text><text x="3.006" y="1.67" class="g">ownloads/TermRecorder-0.0.2</text></symbol><symbol id="20"><text x="0" y="1.67" class="g">./</text><text x="2.004" y="1.67" class="l">D</text><text x="3.006" y="1.67" class="g">ocuments/clipboard-linux-amd64</text></symbol><symbol id="21"><text x="0" y="1.67" class="g">./</text><text x="2.004" y="1.67" class="l">D</text><text x="3.006" y="1.67" class="g">ocuments/clipboard-linux-amd64/bin</text></symbol><symbol id="22"><text x="0" y="1.67" class="g">./</text><text x="2.004" y="1.67" class="l">D</text><text x="3.006" y="1.67" class="g">ocuments/clipboard-linux-amd64/lib</text></symbol><symbol id="23"><text x="0" y="1.67" class="g">&gt;</text><text x="2.004" y="1.67" class="g">Do</text></symbol><symbol id="24"><rect height="2.171" width="2" x="0" y="0" class="i"></rect><text x="0" y="1.67" class="j">./</text><rect height="2.171" width="2" x="2.004" y="0" class="k"></rect><text x="2.004" y="1.67" class="j">Do</text><rect height="2.171" width="7" x="4.008" y="0" class="i"></rect><text x="4.008" y="1.67" class="j">cuments</text></symbol><symbol id="25"><text x="0" y="1.67" class="g">./</text><text x="2.004" y="1.67" class="l">Do</text><text x="4.008" y="1.67" class="g">wnloads</text></symbol><symbol id="26"><text x="0" y="1.67" class="g">./</text><text x="2.004" y="1.67" class="l">Do</text><text x="4.008" y="1.67" class="g">wnloads/monaco-cufonfonts</text></symbol><symbol id="27"><text x="0" y="1.67" class="g">./</text><text x="2.004" y="1.67" class="l">Do</text><text x="4.008" y="1.67" class="g">wnloads/TermRecorder-0.0.2</text></symbol><symbol id="28"><text x="0" y="1.67" class="g">./</text><text x="2.004" y="1.67" class="l">Do</text><text x="4.008" y="1.67" class="g">cuments/clipboard-linux-amd64</text></symbol><symbol id="29"><text x="0" y="1.67" class="g">./</text><text x="2.004" y="1.67" class="l">Do</text><text x="4.008" y="1.67" class="g">cuments/clipboard-linux-amd64/bin</text></symbol><symbol id="30"><text x="0" y="1.67" class="g">./</text><text x="2.004" y="1.67" class="l">Do</text><text x="4.008" y="1.67" class="g">cuments/clipboard-linux-amd64/lib</text></symbol><symbol id="31"><text x="0" y="1.67" class="g">./</text><text x="2.004" y="1.67" class="l">D</text><text x="3.006" y="1.67" class="g">eskt</text><text x="7.013999999999999" y="1.67" class="l">o</text><text x="8.016" y="1.67" class="g">p</text></symbol><symbol id="32"><text x="0" y="1.67" class="g">&gt;</text><text x="2.004" y="1.67" class="g">Doc</text></symbol><symbol id="33"><rect height="2.171" width="2" x="0" y="0" class="i"></rect><text x="0" y="1.67" class="j">./</text><rect height="2.171" width="3" x="2.004" y="0" class="k"></rect><text x="2.004" y="1.67" class="j">Doc</text><rect height="2.171" width="6" x="5.01" y="0" class="i"></rect><text x="5.01" y="1.67" class="j">uments</text></symbol><symbol id="34"><text x="0" y="1.67" class="g">./</text><text x="2.004" y="1.67" class="l">Doc</text><text x="5.01" y="1.67" class="g">uments/clipboard-linux-amd64</text></symbol><symbol id="35"><text x="0" y="1.67" class="g">./</text><text x="2.004" y="1.67" class="l">Doc</text><text x="5.01" y="1.67" class="g">uments/clipboard-linux-amd64/bin</text></symbol><symbol id="36"><text x="0" y="1.67" class="g">./</text><text x="2.004" y="1.67" class="l">Doc</text><text x="5.01" y="1.67" class="g">uments/clipboard-linux-amd64/lib</text></symbol><symbol id="37"><text x="0" y="1.67" class="g">./</text><text x="2.004" y="1.67" class="l">Do</text><text x="4.008" y="1.67" class="g">wnloads/monaco-</text><text x="19.037999999999997" y="1.67" class="l">c</text><text x="20.04" y="1.67" class="g">ufonfonts</text></symbol><symbol id="38"><text x="0" y="1.67" class="g">./</text><text x="2.004" y="1.67" class="l">Do</text><text x="4.008" y="1.67" class="g">wnloads/TermRe</text><text x="18.035999999999998" y="1.67" class="l">c</text><text x="19.037999999999997" y="1.67" class="g">order-0.0.2</text></symbol><symbol id="39"><text x="0" y="1.67" class="g">&gt;</text><text x="2.004" y="1.67" class="g">Docu</text></symbol><symbol id="40"><rect height="2.171" width="2" x="0" y="0" class="i"></rect><text x="0" y="1.67" class="j">./</text><rect height="2.171" width="4" x="2.004" y="0" class="k"></rect><text x="2.004" y="1.67" class="j">Docu</text><rect height="2.171" width="5" x="6.012" y="0" class="i"></rect><text x="6.012" y="1.67" class="j">ments</text></symbol><symbol id="41"><text x="0" y="1.67" class="g">./</text><text x="2.004" y="1.67" class="l">Docu</text><text x="6.012" y="1.67" class="g">ments/clipboard-linux-amd64</text></symbol><symbol id="42"><text x="0" y="1.67" class="g">./</text><text x="2.004" y="1.67" class="l">Docu</text><text x="6.012" y="1.67" class="g">ments/clipboard-linux-amd64/bin</text></symbol><symbol id="43"><text x="0" y="1.67" class="g">./</text><text x="2.004" y="1.67" class="l">Docu</text><text x="6.012" y="1.67" class="g">ments/clipboard-linux-amd64/lib</text></symbol><symbol id="44"><text x="0" y="1.67" class="g">./</text><text x="2.004" y="1.67" class="l">Do</text><text x="4.008" y="1.67" class="g">wnloads/monaco-</text><text x="19.037999999999997" y="1.67" class="l">cu</text><text x="21.041999999999998" y="1.67" class="g">fonfonts</text></symbol><symbol id="45"><text x="0" y="1.67" class="g">&gt;</text><text x="2.004" y="1.67" class="g">Docum</text></symbol><symbol id="46"><text x="0" y="1.67" class="f">team@itsfoss</text><text x="12.024" y="1.67" class="g">:</text><text x="13.026" y="1.67" class="h">~/Documents</text><text x="24.048" y="1.67" class="g">$</text></symbol><symbol id="a"><rect height="21" width="120" x="0" y="0" class="m"></rect></symbol><symbol id="b"><rect height="2.171" width="1.1022" class="n"></rect></symbol></defs><rect height="43.42" width="120" class="a"></rect><g class="p"><svg x="0" y="0" width="5160"><svg x="0"><use xlink:href="#a"></use><use xlink:href="#b" x="-0.0040000000000000036" y="0"></use></svg><svg x="120"><use xlink:href="#a"></use><use xlink:href="#b" x="15.996" y="0"></use><text x="0" y="1.67" class="f">team@itsfoss</text><text x="12.024" y="1.67" class="g">:</text><text x="13.026" y="1.67" class="h">~</text><text x="14.027999999999999" y="1.67" class="g">$</text></svg><svg x="240"><use xlink:href="#a"></use><use xlink:href="#b" x="16.996" y="0"></use><text x="0" y="1.67" class="f">team@itsfoss</text><text x="12.024" y="1.67" class="g">:</text><text x="13.026" y="1.67" class="h">~</text><text x="14.027999999999999" y="1.67" class="g">$</text><text x="16.032" y="1.67" class="g">c</text></svg><svg x="360"><use xlink:href="#a"></use><use xlink:href="#b" x="17.996" y="0"></use><use xlink:href="#1" y="0"></use></svg><svg x="480"><use xlink:href="#a"></use><use xlink:href="#b" x="18.996" y="0"></use><use xlink:href="#1" y="0"></use></svg><svg x="600"><use xlink:href="#a"></use><use xlink:href="#b" x="19.996" y="0"></use><text x="0" y="1.67" class="f">team@itsfoss</text><text x="12.024" y="1.67" class="g">:</text><text x="13.026" y="1.67" class="h">~</text><text x="14.027999999999999" y="1.67" class="g">$</text><text x="16.032" y="1.67" class="g">cd</text><text x="19.037999999999997" y="1.67" class="g">$</text></svg><svg x="720"><use xlink:href="#a"></use><use xlink:href="#b" x="20.996" y="0"></use><text x="0" y="1.67" class="f">team@itsfoss</text><text x="12.024" y="1.67" class="g">:</text><text x="13.026" y="1.67" class="h">~</text><text x="14.027999999999999" y="1.67" class="g">$</text><text x="16.032" y="1.67" class="g">cd</text><text x="19.037999999999997" y="1.67" class="g">$(</text></svg><svg x="840"><use xlink:href="#a"></use><use xlink:href="#b" x="21.996" y="0"></use><use xlink:href="#2" y="0"></use></svg><svg x="960"><use xlink:href="#a"></use><use xlink:href="#b" x="20.996" y="0"></use><use xlink:href="#2" y="0"></use></svg><svg x="1080"><use xlink:href="#a"></use><use xlink:href="#b" x="21.996" y="0"></use><text x="0" y="1.67" class="f">team@itsfoss</text><text x="12.024" y="1.67" class="g">:</text><text x="13.026" y="1.67" class="h">~</text><text x="14.027999999999999" y="1.67" class="g">$</text><text x="16.032" y="1.67" class="g">cd</text><text x="19.037999999999997" y="1.67" class="g">$(f)</text></svg><svg x="1200"><use xlink:href="#a"></use><use xlink:href="#b" x="22.996" y="0"></use><text x="0" y="1.67" class="f">team@itsfoss</text><text x="12.024" y="1.67" class="g">:</text><text x="13.026" y="1.67" class="h">~</text><text x="14.027999999999999" y="1.67" class="g">$</text><text x="16.032" y="1.67" class="g">cd</text><text x="19.037999999999997" y="1.67" class="g">$(fi)</text></svg><svg x="1320"><use xlink:href="#a"></use><use xlink:href="#b" x="23.996" y="0"></use><text x="0" y="1.67" class="f">team@itsfoss</text><text x="12.024" y="1.67" class="g">:</text><text x="13.026" y="1.67" class="h">~</text><text x="14.027999999999999" y="1.67" class="g">$</text><text x="16.032" y="1.67" class="g">cd</text><text x="19.037999999999997" y="1.67" class="g">$(fin)</text></svg><svg x="1440"><use xlink:href="#a"></use><use xlink:href="#b" x="24.996" y="0"></use><text x="0" y="1.67" class="f">team@itsfoss</text><text x="12.024" y="1.67" class="g">:</text><text x="13.026" y="1.67" class="h">~</text><text x="14.027999999999999" y="1.67" class="g">$</text><text x="16.032" y="1.67" class="g">cd</text><text x="19.037999999999997" y="1.67" class="g">$(find)</text></svg><svg x="1560"><use xlink:href="#a"></use><use xlink:href="#b" x="25.996" y="0"></use><text x="0" y="1.67" class="f">team@itsfoss</text><text x="12.024" y="1.67" class="g">:</text><text x="13.026" y="1.67" class="h">~</text><text x="14.027999999999999" y="1.67" class="g">$</text><text x="16.032" y="1.67" class="g">cd</text><text x="19.037999999999997" y="1.67" class="g">$(find</text><text x="26.052" y="1.67" class="g">)</text></svg><svg x="1680"><use xlink:href="#a"></use><use xlink:href="#b" x="26.996" y="0"></use><text x="0" y="1.67" class="f">team@itsfoss</text><text x="12.024" y="1.67" class="g">:</text><text x="13.026" y="1.67" class="h">~</text><text x="14.027999999999999" y="1.67" class="g">$</text><text x="16.032" y="1.67" class="g">cd</text><text x="19.037999999999997" y="1.67" class="g">$(find</text><text x="26.052" y="1.67" class="g">-)</text></svg><svg x="1800"><use xlink:href="#a"></use><use xlink:href="#b" x="27.996" y="0"></use><text x="0" y="1.67" class="f">team@itsfoss</text><text x="12.024" y="1.67" class="g">:</text><text x="13.026" y="1.67" class="h">~</text><text x="14.027999999999999" y="1.67" class="g">$</text><text x="16.032" y="1.67" class="g">cd</text><text x="19.037999999999997" y="1.67" class="g">$(find</text><text x="26.052" y="1.67" class="g">-t)</text></svg><svg x="1920"><use xlink:href="#a"></use><use xlink:href="#b" x="28.996" y="0"></use><text x="0" y="1.67" class="f">team@itsfoss</text><text x="12.024" y="1.67" class="g">:</text><text x="13.026" y="1.67" class="h">~</text><text x="14.027999999999999" y="1.67" class="g">$</text><text x="16.032" y="1.67" class="g">cd</text><text x="19.037999999999997" y="1.67" class="g">$(find</text><text x="26.052" y="1.67" class="g">-ty)</text></svg><svg x="2040"><use xlink:href="#a"></use><use xlink:href="#b" x="29.996" y="0"></use><text x="0" y="1.67" class="f">team@itsfoss</text><text x="12.024" y="1.67" class="g">:</text><text x="13.026" y="1.67" class="h">~</text><text x="14.027999999999999" y="1.67" class="g">$</text><text x="16.032" y="1.67" class="g">cd</text><text x="19.037999999999997" y="1.67" class="g">$(find</text><text x="26.052" y="1.67" class="g">-typ)</text></svg><svg x="2160"><use xlink:href="#a"></use><use xlink:href="#b" x="30.996" y="0"></use><text x="0" y="1.67" class="f">team@itsfoss</text><text x="12.024" y="1.67" class="g">:</text><text x="13.026" y="1.67" class="h">~</text><text x="14.027999999999999" y="1.67" class="g">$</text><text x="16.032" y="1.67" class="g">cd</text><text x="19.037999999999997" y="1.67" class="g">$(find</text><text x="26.052" y="1.67" class="g">-type)</text></svg><svg x="2280"><use xlink:href="#a"></use><use xlink:href="#b" x="31.996" y="0"></use><text x="0" y="1.67" class="f">team@itsfoss</text><text x="12.024" y="1.67" class="g">:</text><text x="13.026" y="1.67" class="h">~</text><text x="14.027999999999999" y="1.67" class="g">$</text><text x="16.032" y="1.67" class="g">cd</text><text x="19.037999999999997" y="1.67" class="g">$(find</text><text x="26.052" y="1.67" class="g">-type</text><text x="32.064" y="1.67" class="g">)</text></svg><svg x="2400"><use xlink:href="#a"></use><use xlink:href="#b" x="32.996" y="0"></use><text x="0" y="1.67" class="f">team@itsfoss</text><text x="12.024" y="1.67" class="g">:</text><text x="13.026" y="1.67" class="h">~</text><text x="14.027999999999999" y="1.67" class="g">$</text><text x="16.032" y="1.67" class="g">cd</text><text x="19.037999999999997" y="1.67" class="g">$(find</text><text x="26.052" y="1.67" class="g">-type</text><text x="32.064" y="1.67" class="g">d)</text></svg><svg x="2520"><use xlink:href="#a"></use><use xlink:href="#b" x="33.996" y="0"></use><text x="0" y="1.67" class="f">team@itsfoss</text><text x="12.024" y="1.67" class="g">:</text><text x="13.026" y="1.67" class="h">~</text><text x="14.027999999999999" y="1.67" class="g">$</text><text x="16.032" y="1.67" class="g">cd</text><text x="19.037999999999997" y="1.67" class="g">$(find</text><text x="26.052" y="1.67" class="g">-type</text><text x="32.064" y="1.67" class="g">d</text><text x="34.068" y="1.67" class="g">)</text></svg><svg x="2640"><use xlink:href="#a"></use><use xlink:href="#b" x="34.996" y="0"></use><text x="0" y="1.67" class="f">team@itsfoss</text><text x="12.024" y="1.67" class="g">:</text><text x="13.026" y="1.67" class="h">~</text><text x="14.027999999999999" y="1.67" class="g">$</text><text x="16.032" y="1.67" class="g">cd</text><text x="19.037999999999997" y="1.67" class="g">$(find</text><text x="26.052" y="1.67" class="g">-type</text><text x="32.064" y="1.67" class="g">d</text><text x="34.068" y="1.67" class="g">|)</text></svg><svg x="2760"><use xlink:href="#a"></use><use xlink:href="#b" x="35.996" y="0"></use><text x="0" y="1.67" class="f">team@itsfoss</text><text x="12.024" y="1.67" class="g">:</text><text x="13.026" y="1.67" class="h">~</text><text x="14.027999999999999" y="1.67" class="g">$</text><text x="16.032" y="1.67" class="g">cd</text><text x="19.037999999999997" y="1.67" class="g">$(find</text><text x="26.052" y="1.67" class="g">-type</text><text x="32.064" y="1.67" class="g">d</text><text x="34.068" y="1.67" class="g">|</text><text x="36.071999999999996" y="1.67" class="g">)</text></svg><svg x="2880"><use xlink:href="#a"></use><use xlink:href="#b" x="36.996" y="0"></use><text x="0" y="1.67" class="f">team@itsfoss</text><text x="12.024" y="1.67" class="g">:</text><text x="13.026" y="1.67" class="h">~</text><text x="14.027999999999999" y="1.67" class="g">$</text><text x="16.032" y="1.67" class="g">cd</text><text x="19.037999999999997" y="1.67" class="g">$(find</text><text x="26.052" y="1.67" class="g">-type</text><text x="32.064" y="1.67" class="g">d</text><text x="34.068" y="1.67" class="g">|</text><text x="36.071999999999996" y="1.67" class="g">f)</text></svg><svg x="3000"><use xlink:href="#a"></use><use xlink:href="#b" x="37.996" y="0"></use><text x="0" y="1.67" class="f">team@itsfoss</text><text x="12.024" y="1.67" class="g">:</text><text x="13.026" y="1.67" class="h">~</text><text x="14.027999999999999" y="1.67" class="g">$</text><text x="16.032" y="1.67" class="g">cd</text><text x="19.037999999999997" y="1.67" class="g">$(find</text><text x="26.052" y="1.67" class="g">-type</text><text x="32.064" y="1.67" class="g">d</text><text x="34.068" y="1.67" class="g">|</text><text x="36.071999999999996" y="1.67" class="g">fz)</text></svg><svg x="3120"><use xlink:href="#a"></use><use xlink:href="#b" x="38.996" y="0"></use><use xlink:href="#3" y="0"></use></svg><svg x="3240"><use xlink:href="#a"></use><use xlink:href="#b" x="39.996" y="0"></use><use xlink:href="#3" y="0"></use></svg><svg x="3360"><use xlink:href="#a"></use><use xlink:href="#b" x="-0.0040000000000000036" y="2.146"></use><use xlink:href="#3" y="0"></use></svg><svg x="3480"><use xlink:href="#a"></use><use xlink:href="#b" x="1.996" y="2.146"></use><use xlink:href="#3" y="0"></use><text x="0" y="3.8409999999999997" class="g">&gt;</text><use xlink:href="#4" y="4.342"></use><use xlink:href="#5" y="6.513"></use><use xlink:href="#6" y="8.684"></use><use xlink:href="#7" y="10.855"></use><use xlink:href="#8" y="13.026"></use><use xlink:href="#9" y="15.197"></use><use xlink:href="#10" y="17.368"></use><use xlink:href="#11" y="19.539"></use><use xlink:href="#12" y="21.71"></use><use xlink:href="#13" y="23.880999999999997"></use></svg><svg x="3600"><use xlink:href="#a"></use><use xlink:href="#b" x="2.996" y="2.146"></use><use xlink:href="#3" y="0"></use><use xlink:href="#14" y="2.171"></use><use xlink:href="#4" y="4.342"></use><use xlink:href="#5" y="6.513"></use><use xlink:href="#6" y="8.684"></use><use xlink:href="#7" y="10.855"></use><use xlink:href="#8" y="13.026"></use><use xlink:href="#9" y="15.197"></use><use xlink:href="#10" y="17.368"></use><use xlink:href="#11" y="19.539"></use><use xlink:href="#12" y="21.71"></use><use xlink:href="#13" y="23.880999999999997"></use></svg><svg x="3720"><use xlink:href="#a"></use><use xlink:href="#b" x="2.996" y="2.146"></use><use xlink:href="#3" y="0"></use><use xlink:href="#14" y="2.171"></use><use xlink:href="#15" y="4.342"></use><use xlink:href="#16" y="6.513"></use><use xlink:href="#17" y="8.684"></use><use xlink:href="#18" y="10.855"></use><use xlink:href="#19" y="13.026"></use><use xlink:href="#20" y="15.197"></use><use xlink:href="#21" y="17.368"></use><use xlink:href="#22" y="19.539"></use></svg><svg x="3840"><use xlink:href="#a"></use><use xlink:href="#b" x="3.996" y="2.146"></use><use xlink:href="#3" y="0"></use><use xlink:href="#23" y="2.171"></use><use xlink:href="#15" y="4.342"></use><use xlink:href="#16" y="6.513"></use><use xlink:href="#17" y="8.684"></use><use xlink:href="#18" y="10.855"></use><use xlink:href="#19" y="13.026"></use><use xlink:href="#20" y="15.197"></use><use xlink:href="#21" y="17.368"></use><use xlink:href="#22" y="19.539"></use></svg><svg x="3960"><use xlink:href="#a"></use><use xlink:href="#b" x="3.996" y="2.146"></use><use xlink:href="#3" y="0"></use><use xlink:href="#23" y="2.171"></use><use xlink:href="#24" y="4.342"></use><use xlink:href="#25" y="6.513"></use><use xlink:href="#26" y="8.684"></use><use xlink:href="#27" y="10.855"></use><use xlink:href="#28" y="13.026"></use><use xlink:href="#29" y="15.197"></use><use xlink:href="#30" y="17.368"></use><use xlink:href="#31" y="19.539"></use></svg><svg x="4080"><use xlink:href="#a"></use><use xlink:href="#b" x="4.996" y="2.146"></use><use xlink:href="#3" y="0"></use><use xlink:href="#32" y="2.171"></use><use xlink:href="#24" y="4.342"></use><use xlink:href="#25" y="6.513"></use><use xlink:href="#26" y="8.684"></use><use xlink:href="#27" y="10.855"></use><use xlink:href="#28" y="13.026"></use><use xlink:href="#29" y="15.197"></use><use xlink:href="#30" y="17.368"></use><use xlink:href="#31" y="19.539"></use></svg><svg x="4200"><use xlink:href="#a"></use><use xlink:href="#b" x="4.996" y="2.146"></use><use xlink:href="#3" y="0"></use><use xlink:href="#32" y="2.171"></use><use xlink:href="#33" y="4.342"></use><use xlink:href="#34" y="6.513"></use><use xlink:href="#35" y="8.684"></use><use xlink:href="#36" y="10.855"></use><use xlink:href="#37" y="13.026"></use><use xlink:href="#38" y="15.197"></use></svg><svg x="4320"><use xlink:href="#a"></use><use xlink:href="#b" x="5.996" y="2.146"></use><use xlink:href="#3" y="0"></use><use xlink:href="#39" y="2.171"></use><use xlink:href="#33" y="4.342"></use><use xlink:href="#34" y="6.513"></use><use xlink:href="#35" y="8.684"></use><use xlink:href="#36" y="10.855"></use><use xlink:href="#37" y="13.026"></use><use xlink:href="#38" y="15.197"></use></svg><svg x="4440"><use xlink:href="#a"></use><use xlink:href="#b" x="5.996" y="2.146"></use><use xlink:href="#3" y="0"></use><use xlink:href="#39" y="2.171"></use><use xlink:href="#40" y="4.342"></use><use xlink:href="#41" y="6.513"></use><use xlink:href="#42" y="8.684"></use><use xlink:href="#43" y="10.855"></use><use xlink:href="#44" y="13.026"></use></svg><svg x="4560"><use xlink:href="#a"></use><use xlink:href="#b" x="6.996" y="2.146"></use><use xlink:href="#3" y="0"></use><use xlink:href="#45" y="2.171"></use><use xlink:href="#40" y="4.342"></use><use xlink:href="#41" y="6.513"></use><use xlink:href="#42" y="8.684"></use><use xlink:href="#43" y="10.855"></use><use xlink:href="#44" y="13.026"></use></svg><svg x="4680"><use xlink:href="#a"></use><use xlink:href="#b" x="6.996" y="2.146"></use><use xlink:href="#3" y="0"></use><use xlink:href="#45" y="2.171"></use><rect height="2.171" width="2" x="0" y="4.342" class="i"></rect><text x="0" y="6.012" class="j">./</text><rect height="2.171" width="5" x="2.004" y="4.342" class="k"></rect><text x="2.004" y="6.012" class="j">Docum</text><rect height="2.171" width="4" x="7.013999999999999" y="4.342" class="i"></rect><text x="7.013999999999999" y="6.012" class="j">ents</text><text x="0" y="8.183" class="g">./</text><text x="2.004" y="8.183" class="l">Docum</text><text x="7.013999999999999" y="8.183" class="g">ents/clipboard-linux-amd64</text><text x="0" y="10.354" class="g">./</text><text x="2.004" y="10.354" class="l">Docum</text><text x="7.013999999999999" y="10.354" class="g">ents/clipboard-linux-amd64/bin</text><text x="0" y="12.525" class="g">./</text><text x="2.004" y="12.525" class="l">Docum</text><text x="7.013999999999999" y="12.525" class="g">ents/clipboard-linux-amd64/lib</text></svg><svg x="4800"><use xlink:href="#a"></use><use xlink:href="#b" x="-0.0040000000000000036" y="2.146"></use><use xlink:href="#3" y="0"></use></svg><svg x="4920"><use xlink:href="#a"></use><use xlink:href="#b" x="25.996" y="2.146"></use><use xlink:href="#3" y="0"></use><use xlink:href="#46" y="2.171"></use></svg><svg x="5040"><use xlink:href="#a"></use><use xlink:href="#b" x="-0.0040000000000000036" y="6.4879999999999995"></use><use xlink:href="#3" y="0"></use><use xlink:href="#46" y="2.171"></use><text x="0" y="6.012" class="g">exit</text></svg></svg></g></g></svg></svg>