<svg xmlns="http://www.w3.org/2000/svg" xmlns:xlink="http://www.w3.org/1999/xlink" width="1240" height="494.20000000000005"><rect width="1240" height="494.20000000000005" rx="5" ry="5" class="a"></rect><svg y="0%" x="0%"><circle cx="20" cy="20" r="6" class="b"></circle><circle cx="40" cy="20" r="6" class="c"></circle><circle cx="60" cy="20" r="6" class="d"></circle></svg><svg height="434.20000000000005" viewBox="0 0 120 43.42" width="1200" x="15" xmlns="http://www.w3.org/2000/svg" xmlns:xlink="http://www.w3.org/1999/xlink" y="50"><style>.a{fill:rgb(40,45,53)}.b{fill:#ff5f58}.c{fill:#ffbd2e}.d{fill:#18c132}.e{font-family:Monaco,Consolas,Menlo,'Bitstream Vera Sans Mono','Powerline Symbols',monospace}.f{fill:rgb(168,204,140);font-weight:bold;white-space:pre}.g{fill:rgb(185,192,203);white-space:pre}.h{fill:rgb(113,190,242);font-weight:bold;white-space:pre}.i{fill:rgb(185,192,203)}.j{fill:rgb(40,45,53);white-space:pre}.k{fill:rgb(219,171,121)}.l{fill:rgb(219,171,121);white-space:pre}.m{fill:transparent}.n{fill:rgb(111,118,131)}.p{animation-duration:14.04541s;animation-iteration-count:infinite;animation-name:o;animation-timing-function:steps(1,end)}.q{fill:rgb(102,194,205);white-space:pre}.r{fill:rgb(168,204,140);white-space:pre}.s{fill:rgb(232,131,136);font-weight:bold;white-space:pre}.t{fill:rgb(210,144,228);font-weight:bold;white-space:pre}@keyframes o{0%{transform:translateX(-0px)}0.1%{transform:translateX(-120px)}5.6%{transform:translateX(-240px)}6%{transform:translateX(-360px)}6.8%{transform:translateX(-480px)}11.1%{transform:translateX(-600px)}13.1%{transform:translateX(-720px)}21.1%{transform:translateX(-840px)}25.7%{transform:translateX(-960px)}34.9%{transform:translateX(-1080px)}35%{transform:translateX(-1200px)}44.4%{transform:translateX(-1320px)}44.4%{transform:translateX(-1440px)}44.4%{transform:translateX(-1560px)}45.7%{transform:translateX(-1680px)}45.7%{transform:translateX(-1800px)}45.7%{transform:translateX(-1920px)}48.7%{transform:translateX(-2040px)}48.7%{transform:translateX(-2160px)}48.8%{transform:translateX(-2280px)}50%{transform:translateX(-2400px)}50%{transform:translateX(-2520px)}50%{transform:translateX(-2640px)}51.3%{transform:translateX(-2760px)}51.3%{transform:translateX(-2880px)}51.3%{transform:translateX(-3000px)}61.2%{transform:translateX(-3120px)}61.2%{transform:translateX(-3240px)}62%{transform:translateX(-3360px)}62%{transform:translateX(-3480px)}62.9%{transform:translateX(-3600px)}62.9%{transform:translateX(-3720px)}62.9%{transform:translateX(-3840px)}68.9%{transform:translateX(-3960px)}68.9%{transform:translateX(-4080px)}68.9%{transform:translateX(-4200px)}68.9%{transform:translateX(-4320px)}75.2%{transform:translateX(-4440px)}75.2%{transform:translateX(-4560px)}75.2%{transform:translateX(-4680px)}75.2%{transform:translateX(-4800px)}75.2%{transform:translateX(-4920px)}75.2%{transform:translateX(-5040px)}89.3%{transform:translateX(-5160px)}89.3%{transform:translateX(-5280px)}100%{transform:translateX(-5400px)}}</style><g font-family="Monaco, Consolas, Menlo, &#x27;Bitstream Vera Sans Mono&#x27;, &#x27;Powerline Symbols&#x27;, monospace" font-size="1.67" class="e"><defs><symbol id="1"><text x="0" y="1.67" class="f">team@itsfoss</text><text x="12.024" y="1.67" class="g">:</text><text x="13.026" y="1.67" class="h">~</text><text x="14.027999999999999" y="1.67" class="g">$</text></symbol><symbol id="2"><text x="0" y="1.67" class="f">team@itsfoss</text><text x="12.024" y="1.67" class="g">:</text><text x="13.026" y="1.67" class="h">~</text><text x="14.027999999999999" y="1.67" class="g">$</text><text x="16.032" y="1.67" class="g">nano</text></symbol><symbol id="3"><text x="0" y="1.67" class="f">team@itsfoss</text><text x="12.024" y="1.67" class="g">:</text><text x="13.026" y="1.67" class="h">~</text><text x="14.027999999999999" y="1.67" class="g">$</text><text x="16.032" y="1.67" class="g">nano</text><text x="21.041999999999998" y="1.67" class="g">$(find</text><text x="28.055999999999997" y="1.67" class="g">-type</text><text x="34.068" y="1.67" class="g">f</text><text x="36.071999999999996" y="1.67" class="g">|</text><text x="38.07599999999999" y="1.67" class="g">fzy)</text></symbol><symbol id="4"><text x="0" y="1.67" class="g">&gt;</text></symbol><symbol id="5"><rect height="2.171" width="65" x="0" y="0" class="i"></rect><text x="0" y="1.67" class="j">./snap/snapd-desktop-integration/83/.config/fontconfig/fonts.conf</text></symbol><symbol id="6"><text x="0" y="1.67" class="g">./snap/snapd-desktop-integration/83/.config/user-dirs.dirs.md5sum</text></symbol><symbol id="7"><text x="0" y="1.67" class="g">./snap/snapd-desktop-integration/83/.config/user-dirs.locale.md5sum</text></symbol><symbol id="8"><text x="0" y="1.67" class="g">./snap/snapd-desktop-integration/83/.config/user-dirs.locale</text></symbol><symbol id="9"><text x="0" y="1.67" class="g">./snap/snapd-desktop-integration/83/.config/user-dirs.dirs</text></symbol><symbol id="10"><text x="0" y="1.67" class="g">./snap/snapd-desktop-integration/83/.last_revision</text></symbol><symbol id="11"><text x="0" y="1.67" class="g">./snap/snapd-desktop-integration/49/.config/fontconfig/fonts.conf</text></symbol><symbol id="12"><text x="0" y="1.67" class="g">./snap/snapd-desktop-integration/49/.config/user-dirs.dirs.md5sum</text></symbol><symbol id="13"><text x="0" y="1.67" class="g">./snap/snapd-desktop-integration/49/.config/user-dirs.locale.md5sum</text></symbol><symbol id="14"><text x="0" y="1.67" class="g">./snap/snapd-desktop-integration/49/.config/user-dirs.locale</text></symbol><symbol id="15"><text x="0" y="1.67" class="g">./snap/snapd-desktop-integration/83/.config/fontconfig/fonts.conf</text></symbol><symbol id="16"><rect height="2.171" width="65" x="0" y="0" class="i"></rect><text x="0" y="1.67" class="j">./snap/snapd-desktop-integration/83/.config/user-dirs.dirs.md5sum</text></symbol><symbol id="17"><text x="0" y="1.67" class="g">./snap/snapd-desktop</text></symbol><symbol id="18"><rect height="2.171" width="67" x="0" y="0" class="i"></rect><text x="0" y="1.67" class="j">./snap/snapd-desktop-integration/83/.config/user-dirs.locale.md5sum</text></symbol><symbol id="19"><rect height="2.171" width="60" x="0" y="0" class="i"></rect><text x="0" y="1.67" class="j">./snap/snapd-desktop-integration/83/.config/user-dirs.locale</text></symbol><symbol id="20"><text x="0" y="1.67" class="g">.</text></symbol><symbol id="21"><rect height="2.171" width="58" x="0" y="0" class="i"></rect><text x="0" y="1.67" class="j">./snap/snapd-desktop-integration/83/.config/user-dirs.dirs</text></symbol><symbol id="22"><rect height="2.171" width="50" x="0" y="0" class="i"></rect><text x="0" y="1.67" class="j">./snap/snapd-desktop-integration/83/.last_revision</text></symbol><symbol id="23"><text x="0" y="1.67" class="g">&gt;</text><text x="2.004" y="1.67" class="g">b</text></symbol><symbol id="24"><rect height="2.171" width="9" x="0" y="0" class="i"></rect><text x="0" y="1.67" class="j">./.local/</text><rect height="2.171" width="1" x="9.017999999999999" y="0" class="k"></rect><text x="9.017999999999999" y="1.67" class="j">b</text><rect height="2.171" width="5" x="10.02" y="0" class="i"></rect><text x="10.02" y="1.67" class="j">in/cb</text></symbol><symbol id="25"><text x="0" y="1.67" class="g">./.cache/ibus/</text><text x="14.027999999999999" y="1.67" class="l">b</text><text x="15.029999999999998" y="1.67" class="g">us/registry</text></symbol><symbol id="26"><text x="0" y="1.67" class="g">./.config/gtk-3.0/</text><text x="18.035999999999998" y="1.67" class="l">b</text><text x="19.037999999999997" y="1.67" class="g">ookmarks</text></symbol><symbol id="27"><text x="0" y="1.67" class="g">./Documents/clipboard-linux-amd64/</text><text x="34.068" y="1.67" class="l">b</text><text x="35.06999999999999" y="1.67" class="g">in/cb</text></symbol><symbol id="28"><text x="0" y="1.67" class="g">./.config/evolution/sources/</text><text x="28.055999999999997" y="1.67" class="l">b</text><text x="29.058" y="1.67" class="g">irthdays.source</text></symbol><symbol id="29"><text x="0" y="1.67" class="g">./Pictures/terminal_SVG/FZF/</text><text x="28.055999999999997" y="1.67" class="l">b</text><text x="29.058" y="1.67" class="g">ashrc-preview-in-fzf.png</text></symbol><symbol id="30"><text x="0" y="1.67" class="g">./Pictures/terminal_SVG/fzf-</text><text x="28.055999999999997" y="1.67" class="l">b</text><text x="29.058" y="1.67" class="g">order.gif</text></symbol><symbol id="31"><text x="0" y="1.67" class="g">./.config/ibus/</text><text x="15.029999999999998" y="1.67" class="l">b</text><text x="16.032" y="1.67" class="g">us/12dffe6037ff47bd823d84868d1b7129-unix-0</text></symbol><symbol id="32"><text x="0" y="1.67" class="g">./Pictures/terminal_SVG/FZF/fzf-</text><text x="32.064" y="1.67" class="l">b</text><text x="33.065999999999995" y="1.67" class="g">order.svg</text></symbol><symbol id="33"><text x="0" y="1.67" class="g">./.cache/thumbnails/large/</text><text x="26.052" y="1.67" class="l">b</text><text x="27.054" y="1.67" class="g">76a7dc333ca917f7f88c2a2ee1e3f75.png</text></symbol><symbol id="34"><text x="0" y="1.67" class="g">&gt;</text><text x="2.004" y="1.67" class="g">ba</text></symbol><symbol id="35"><rect height="2.171" width="28" x="0" y="0" class="i"></rect><text x="0" y="1.67" class="j">./Pictures/terminal_SVG/FZF/</text><rect height="2.171" width="2" x="28.055999999999997" y="0" class="k"></rect><text x="28.055999999999997" y="1.67" class="j">ba</text><rect height="2.171" width="23" x="30.059999999999995" y="0" class="i"></rect><text x="30.059999999999995" y="1.67" class="j">shrc-preview-in-fzf.png</text></symbol><symbol id="36"><text x="0" y="1.67" class="g">./Videos/Screencasts/05-edit-config-</text><text x="36.071999999999996" y="1.67" class="l">ba</text><text x="38.07599999999999" y="1.67" class="g">ck.webm</text></symbol><symbol id="37"><text x="0" y="1.67" class="g">./.cache/mesa_shader_cache/</text><text x="27.054" y="1.67" class="l">ba</text><text x="29.058" y="1.67" class="g">/bd8e09323f8641bc4eb22389b9dc42add4b642</text></symbol><symbol id="38"><text x="0" y="1.67" class="g">./.cache/mesa_shader_cache/</text><text x="27.054" y="1.67" class="l">ba</text><text x="29.058" y="1.67" class="g">/f94af6ce2794391e6546d188851721c52f1dee</text></symbol><symbol id="39"><text x="0" y="1.67" class="g">./.cache/mesa_shader_cache/</text><text x="27.054" y="1.67" class="l">ba</text><text x="29.058" y="1.67" class="g">/8af9cc4ecdc628840e1f084fe1a07cb8f18dce</text></symbol><symbol id="40"><text x="0" y="1.67" class="g">./.</text><text x="3.006" y="1.67" class="l">ba</text><text x="5.01" y="1.67" class="g">shrc</text></symbol><symbol id="41"><text x="0" y="1.67" class="g">./.</text><text x="3.006" y="1.67" class="l">ba</text><text x="5.01" y="1.67" class="g">sh_logout</text></symbol><symbol id="42"><text x="0" y="1.67" class="g">./.</text><text x="3.006" y="1.67" class="l">ba</text><text x="5.01" y="1.67" class="g">sh_history</text></symbol><symbol id="43"><text x="0" y="1.67" class="g">./Pictures/terminal_SVG/FZF/search-within-</text><text x="42.083999999999996" y="1.67" class="l">ba</text><text x="44.087999999999994" y="1.67" class="g">sh-history.svg</text></symbol><symbol id="44"><text x="0" y="1.67" class="g">./.cache/mesa_shader_cache/</text><text x="27.054" y="1.67" class="l">b</text><text x="28.055999999999997" y="1.67" class="g">8/</text><text x="30.059999999999995" y="1.67" class="l">a</text><text x="31.061999999999998" y="1.67" class="g">7c2996eab117a33f6b875798b4a0524403548</text></symbol><symbol id="45"><text x="0" y="1.67" class="g">&gt;</text><text x="2.004" y="1.67" class="g">bas</text></symbol><symbol id="46"><rect height="2.171" width="28" x="0" y="0" class="i"></rect><text x="0" y="1.67" class="j">./Pictures/terminal_SVG/FZF/</text><rect height="2.171" width="3" x="28.055999999999997" y="0" class="k"></rect><text x="28.055999999999997" y="1.67" class="j">bas</text><rect height="2.171" width="22" x="31.061999999999998" y="0" class="i"></rect><text x="31.061999999999998" y="1.67" class="j">hrc-preview-in-fzf.png</text></symbol><symbol id="47"><text x="0" y="1.67" class="g">./.</text><text x="3.006" y="1.67" class="l">bas</text><text x="6.012" y="1.67" class="g">hrc</text></symbol><symbol id="48"><text x="0" y="1.67" class="g">./.</text><text x="3.006" y="1.67" class="l">bas</text><text x="6.012" y="1.67" class="g">h_logout</text></symbol><symbol id="49"><text x="0" y="1.67" class="g">./.</text><text x="3.006" y="1.67" class="l">bas</text><text x="6.012" y="1.67" class="g">h_history</text></symbol><symbol id="50"><text x="0" y="1.67" class="g">./Pictures/terminal_SVG/FZF/search-within-</text><text x="42.083999999999996" y="1.67" class="l">bas</text><text x="45.089999999999996" y="1.67" class="g">h-history.svg</text></symbol><symbol id="51"><text x="0" y="1.67" class="g">./snap/firefox/common/.cache/mozilla/firefox/w7byir35.default/safebrowsing/</text><text x="75.14999999999999" y="1.67" class="l">bas</text><text x="78.15599999999999" y="1.67" class="g">e-email-track-digest256.vlpset</text></symbol><symbol id="52"><text x="0" y="1.67" class="g">./snap/firefox/common/.cache/mozilla/firefox/w7byir35.default/safebrowsing/</text><text x="75.14999999999999" y="1.67" class="l">bas</text><text x="78.15599999999999" y="1.67" class="g">e-email-track-digest256.sbstore</text></symbol><symbol id="53"><text x="0" y="1.67" class="g">./snap/firefox/common/.cache/mozilla/firefox/w7byir35.default/safebrowsing/</text><text x="75.14999999999999" y="1.67" class="l">bas</text><text x="78.15599999999999" y="1.67" class="g">e-cryptomining-track-digest256.vlpset</text></symbol><symbol id="54"><text x="0" y="1.67" class="g">./snap/firefox/common/.cache/mozilla/firefox/w7byir35.default/safebrowsing/</text><text x="75.14999999999999" y="1.67" class="l">bas</text><text x="78.15599999999999" y="1.67" class="g">e-cryptomining-track-digest256.sbstore</text></symbol><symbol id="55"><text x="0" y="1.67" class="g">./snap/firefox/common/.cache/mozilla/firefox/w7byir35.default/safebrowsing/</text><text x="75.14999999999999" y="1.67" class="l">bas</text><text x="78.15599999999999" y="1.67" class="g">e-fingerprinting-track-digest256.vlpset</text></symbol><symbol id="56"><text x="0" y="1.67" class="g">./Pictures/terminal_SVG/FZF/</text><text x="28.055999999999997" y="1.67" class="l">bas</text><text x="31.061999999999998" y="1.67" class="g">hrc-preview-in-fzf.png</text></symbol><symbol id="57"><rect height="2.171" width="3" x="0" y="0" class="i"></rect><text x="0" y="1.67" class="j">./.</text><rect height="2.171" width="3" x="3.006" y="0" class="k"></rect><text x="3.006" y="1.67" class="j">bas</text><rect height="2.171" width="3" x="6.012" y="0" class="i"></rect><text x="6.012" y="1.67" class="j">hrc</text></symbol><symbol id="58"><rect height="2.171" width="18" x="51.102" y="0" class="i"></rect><text x="51.102" y="1.67" class="j">[ Read 127 lines ]</text></symbol><symbol id="59"><rect height="2.171" width="120" x="0" y="0" class="i"></rect><text x="0" y="1.67" class="j">  GNU nano 6.2                                            ./.bashrc                                                     </text></symbol><symbol id="60"><rect height="2.171" width="2" x="0" y="0" class="i"></rect><text x="0" y="1.67" class="j">^G</text><text x="3.006" y="1.67" class="g">Help</text><rect height="2.171" width="2" x="15.029999999999998" y="0" class="i"></rect><text x="15.029999999999998" y="1.67" class="j">^O</text><text x="18.035999999999998" y="1.67" class="g">Write</text><text x="24.048" y="1.67" class="g">Out</text><rect height="2.171" width="2" x="30.059999999999995" y="0" class="i"></rect><text x="30.059999999999995" y="1.67" class="j">^W</text><text x="33.065999999999995" y="1.67" class="g">Where</text><text x="39.077999999999996" y="1.67" class="g">Is</text><rect height="2.171" width="2" x="45.089999999999996" y="0" class="i"></rect><text x="45.089999999999996" y="1.67" class="j">^K</text><text x="48.096" y="1.67" class="g">Cut</text><rect height="2.171" width="2" x="60.11999999999999" y="0" class="i"></rect><text x="60.11999999999999" y="1.67" class="j">^T</text><text x="63.12599999999999" y="1.67" class="g">Execute</text><rect height="2.171" width="2" x="75.14999999999999" y="0" class="i"></rect><text x="75.14999999999999" y="1.67" class="j">^C</text><text x="78.15599999999999" y="1.67" class="g">Location</text><rect height="2.171" width="3" x="90.17999999999999" y="0" class="i"></rect><text x="90.17999999999999" y="1.67" class="j">M-U</text><text x="94.18799999999999" y="1.67" class="g">Undo</text><rect height="2.171" width="3" x="105.21" y="0" class="i"></rect><text x="105.21" y="1.67" class="j">M-A</text><text x="109.218" y="1.67" class="g">Set</text><text x="113.22599999999998" y="1.67" class="g">Mark</text></symbol><symbol id="61"><rect height="2.171" width="2" x="0" y="0" class="i"></rect><text x="0" y="1.67" class="j">^X</text><text x="3.006" y="1.67" class="g">Exit</text><rect height="2.171" width="2" x="15.029999999999998" y="0" class="i"></rect><text x="15.029999999999998" y="1.67" class="j">^R</text><text x="18.035999999999998" y="1.67" class="g">Read</text><text x="23.045999999999996" y="1.67" class="g">File</text><rect height="2.171" width="2" x="30.059999999999995" y="0" class="i"></rect><text x="30.059999999999995" y="1.67" class="j">^\</text><text x="33.065999999999995" y="1.67" class="g">Replace</text><rect height="2.171" width="2" x="45.089999999999996" y="0" class="i"></rect><text x="45.089999999999996" y="1.67" class="j">^U</text><text x="48.096" y="1.67" class="g">Paste</text><rect height="2.171" width="2" x="60.11999999999999" y="0" class="i"></rect><text x="60.11999999999999" y="1.67" class="j">^J</text><text x="63.12599999999999" y="1.67" class="g">Justify</text><rect height="2.171" width="2" x="75.14999999999999" y="0" class="i"></rect><text x="75.14999999999999" y="1.67" class="j">^/</text><text x="78.15599999999999" y="1.67" class="g">Go</text><text x="81.16199999999999" y="1.67" class="g">To</text><text x="84.16799999999999" y="1.67" class="g">Line</text><rect height="2.171" width="3" x="90.17999999999999" y="0" class="i"></rect><text x="90.17999999999999" y="1.67" class="j">M-E</text><text x="94.18799999999999" y="1.67" class="g">Redo</text><rect height="2.171" width="3" x="105.21" y="0" class="i"></rect><text x="105.21" y="1.67" class="j">M-6</text><text x="109.218" y="1.67" class="g">Copy</text></symbol><symbol id="a"><rect height="21" width="120" x="0" y="0" class="m"></rect></symbol><symbol id="b"><rect height="2.171" width="1.1022" class="n"></rect></symbol></defs><rect height="43.42" width="120" class="a"></rect><g class="p"><svg x="0" y="0" width="5520"><svg x="0"><use xlink:href="#a"></use><use xlink:href="#b" x="-0.0040000000000000036" y="0"></use></svg><svg x="120"><use xlink:href="#a"></use><use xlink:href="#b" x="15.996" y="0"></use><use xlink:href="#1" y="0"></use></svg><svg x="240"><use xlink:href="#a"></use><use xlink:href="#b" x="16.996" y="0"></use><text x="0" y="1.67" class="f">team@itsfoss</text><text x="12.024" y="1.67" class="g">:</text><text x="13.026" y="1.67" class="h">~</text><text x="14.027999999999999" y="1.67" class="g">$</text><text x="16.032" y="1.67" class="g">n</text></svg><svg x="360"><use xlink:href="#a"></use><use xlink:href="#b" x="17.996" y="0"></use><text x="0" y="1.67" class="f">team@itsfoss</text><text x="12.024" y="1.67" class="g">:</text><text x="13.026" y="1.67" class="h">~</text><text x="14.027999999999999" y="1.67" class="g">$</text><text x="16.032" y="1.67" class="g">na</text></svg><svg x="480"><use xlink:href="#a"></use><use xlink:href="#b" x="18.996" y="0"></use><text x="0" y="1.67" class="f">team@itsfoss</text><text x="12.024" y="1.67" class="g">:</text><text x="13.026" y="1.67" class="h">~</text><text x="14.027999999999999" y="1.67" class="g">$</text><text x="16.032" y="1.67" class="g">nan</text></svg><svg x="600"><use xlink:href="#a"></use><use xlink:href="#b" x="19.996" y="0"></use><use xlink:href="#2" y="0"></use></svg><svg x="720"><use xlink:href="#a"></use><use xlink:href="#b" x="20.996" y="0"></use><use xlink:href="#2" y="0"></use></svg><svg x="840"><use xlink:href="#a"></use><use xlink:href="#b" x="41.996" y="0"></use><text x="0" y="1.67" class="f">team@itsfoss</text><text x="12.024" y="1.67" class="g">:</text><text x="13.026" y="1.67" class="h">~</text><text x="14.027999999999999" y="1.67" class="g">$</text><text x="16.032" y="1.67" class="g">nano</text><rect height="2.171" width="21" x="21.041999999999998" y="0" class="i"></rect><text x="21.041999999999998" y="1.67" class="j">$(find -type f | fzy)</text></svg><svg x="960"><use xlink:href="#a"></use><use xlink:href="#b" x="41.996" y="0"></use><use xlink:href="#3" y="0"></use></svg><svg x="1080"><use xlink:href="#a"></use><use xlink:href="#b" x="-0.0040000000000000036" y="2.146"></use><use xlink:href="#3" y="0"></use></svg><svg x="1200"><use xlink:href="#a"></use><use xlink:href="#b" x="1.996" y="2.146"></use><use xlink:href="#3" y="0"></use><use xlink:href="#4" y="2.171"></use><use xlink:href="#5" y="4.342"></use><use xlink:href="#6" y="6.513"></use><use xlink:href="#7" y="8.684"></use><use xlink:href="#8" y="10.855"></use><use xlink:href="#9" y="13.026"></use><use xlink:href="#10" y="15.197"></use><use xlink:href="#11" y="17.368"></use><use xlink:href="#12" y="19.539"></use><use xlink:href="#13" y="21.71"></use><use xlink:href="#14" y="23.880999999999997"></use></svg><svg x="1320"><use xlink:href="#a"></use><use xlink:href="#b" x="-0.0040000000000000036" y="8.658999999999999"></use><use xlink:href="#3" y="0"></use><use xlink:href="#4" y="2.171"></use><use xlink:href="#5" y="4.342"></use><use xlink:href="#6" y="6.513"></use><use xlink:href="#8" y="10.855"></use><use xlink:href="#9" y="13.026"></use><use xlink:href="#10" y="15.197"></use><use xlink:href="#11" y="17.368"></use><use xlink:href="#12" y="19.539"></use><use xlink:href="#13" y="21.71"></use><use xlink:href="#14" y="23.880999999999997"></use></svg><svg x="1440"><use xlink:href="#a"></use><use xlink:href="#b" x="19.996" y="13.001"></use><use xlink:href="#3" y="0"></use><use xlink:href="#4" y="2.171"></use><use xlink:href="#15" y="4.342"></use><use xlink:href="#16" y="6.513"></use><use xlink:href="#7" y="8.684"></use><use xlink:href="#8" y="10.855"></use><use xlink:href="#17" y="13.026"></use><use xlink:href="#10" y="15.197"></use><use xlink:href="#11" y="17.368"></use><use xlink:href="#12" y="19.539"></use><use xlink:href="#13" y="21.71"></use><use xlink:href="#14" y="23.880999999999997"></use></svg><svg x="1560"><use xlink:href="#a"></use><use xlink:href="#b" x="1.996" y="2.146"></use><use xlink:href="#3" y="0"></use><use xlink:href="#4" y="2.171"></use><use xlink:href="#15" y="4.342"></use><use xlink:href="#16" y="6.513"></use><use xlink:href="#7" y="8.684"></use><use xlink:href="#8" y="10.855"></use><use xlink:href="#9" y="13.026"></use><use xlink:href="#10" y="15.197"></use><use xlink:href="#11" y="17.368"></use><use xlink:href="#12" y="19.539"></use><use xlink:href="#13" y="21.71"></use><use xlink:href="#14" y="23.880999999999997"></use></svg><svg x="1680"><use xlink:href="#a"></use><use xlink:href="#b" x="-0.0040000000000000036" y="8.658999999999999"></use><use xlink:href="#3" y="0"></use><use xlink:href="#4" y="2.171"></use><use xlink:href="#15" y="4.342"></use><use xlink:href="#16" y="6.513"></use><use xlink:href="#8" y="10.855"></use><use xlink:href="#9" y="13.026"></use><use xlink:href="#10" y="15.197"></use><use xlink:href="#11" y="17.368"></use><use xlink:href="#12" y="19.539"></use><use xlink:href="#13" y="21.71"></use><use xlink:href="#14" y="23.880999999999997"></use></svg><svg x="1800"><use xlink:href="#a"></use><use xlink:href="#b" x="19.996" y="13.001"></use><use xlink:href="#3" y="0"></use><use xlink:href="#4" y="2.171"></use><use xlink:href="#15" y="4.342"></use><use xlink:href="#6" y="6.513"></use><use xlink:href="#18" y="8.684"></use><use xlink:href="#8" y="10.855"></use><use xlink:href="#17" y="13.026"></use><use xlink:href="#10" y="15.197"></use><use xlink:href="#11" y="17.368"></use><use xlink:href="#12" y="19.539"></use><use xlink:href="#13" y="21.71"></use><use xlink:href="#14" y="23.880999999999997"></use></svg><svg x="1920"><use xlink:href="#a"></use><use xlink:href="#b" x="1.996" y="2.146"></use><use xlink:href="#3" y="0"></use><use xlink:href="#4" y="2.171"></use><use xlink:href="#15" y="4.342"></use><use xlink:href="#6" y="6.513"></use><use xlink:href="#18" y="8.684"></use><use xlink:href="#8" y="10.855"></use><use xlink:href="#9" y="13.026"></use><use xlink:href="#10" y="15.197"></use><use xlink:href="#11" y="17.368"></use><use xlink:href="#12" y="19.539"></use><use xlink:href="#13" y="21.71"></use><use xlink:href="#14" y="23.880999999999997"></use></svg><svg x="2040"><use xlink:href="#a"></use><use xlink:href="#b" x="-0.0040000000000000036" y="8.658999999999999"></use><use xlink:href="#3" y="0"></use><use xlink:href="#4" y="2.171"></use><use xlink:href="#15" y="4.342"></use><use xlink:href="#6" y="6.513"></use><use xlink:href="#8" y="10.855"></use><use xlink:href="#9" y="13.026"></use><use xlink:href="#10" y="15.197"></use><use xlink:href="#11" y="17.368"></use><use xlink:href="#12" y="19.539"></use><use xlink:href="#13" y="21.71"></use><use xlink:href="#14" y="23.880999999999997"></use></svg><svg x="2160"><use xlink:href="#a"></use><use xlink:href="#b" x="1.996" y="2.146"></use><use xlink:href="#3" y="0"></use><use xlink:href="#4" y="2.171"></use><use xlink:href="#15" y="4.342"></use><use xlink:href="#6" y="6.513"></use><use xlink:href="#18" y="8.684"></use><use xlink:href="#8" y="10.855"></use><use xlink:href="#9" y="13.026"></use><use xlink:href="#10" y="15.197"></use><use xlink:href="#11" y="17.368"></use><use xlink:href="#12" y="19.539"></use><use xlink:href="#13" y="21.71"></use><use xlink:href="#14" y="23.880999999999997"></use></svg><svg x="2280"><use xlink:href="#a"></use><use xlink:href="#b" x="1.996" y="2.146"></use><use xlink:href="#3" y="0"></use><use xlink:href="#4" y="2.171"></use><use xlink:href="#15" y="4.342"></use><use xlink:href="#6" y="6.513"></use><use xlink:href="#7" y="8.684"></use><use xlink:href="#19" y="10.855"></use><use xlink:href="#9" y="13.026"></use><use xlink:href="#10" y="15.197"></use><use xlink:href="#11" y="17.368"></use><use xlink:href="#12" y="19.539"></use><use xlink:href="#13" y="21.71"></use><use xlink:href="#14" y="23.880999999999997"></use></svg><svg x="2400"><use xlink:href="#a"></use><use xlink:href="#b" x="0.996" y="8.658999999999999"></use><use xlink:href="#3" y="0"></use><use xlink:href="#4" y="2.171"></use><use xlink:href="#15" y="4.342"></use><use xlink:href="#6" y="6.513"></use><use xlink:href="#20" y="8.684"></use><use xlink:href="#19" y="10.855"></use><use xlink:href="#9" y="13.026"></use><use xlink:href="#10" y="15.197"></use><use xlink:href="#11" y="17.368"></use><use xlink:href="#12" y="19.539"></use><use xlink:href="#13" y="21.71"></use><use xlink:href="#14" y="23.880999999999997"></use></svg><svg x="2520"><use xlink:href="#a"></use><use xlink:href="#b" x="19.996" y="13.001"></use><use xlink:href="#3" y="0"></use><use xlink:href="#4" y="2.171"></use><use xlink:href="#15" y="4.342"></use><use xlink:href="#6" y="6.513"></use><use xlink:href="#7" y="8.684"></use><use xlink:href="#8" y="10.855"></use><rect height="2.171" width="20" x="0" y="13.026" class="i"></rect><text x="0" y="14.696" class="j">./snap/snapd-desktop</text><use xlink:href="#10" y="15.197"></use><use xlink:href="#11" y="17.368"></use><use xlink:href="#12" y="19.539"></use><use xlink:href="#13" y="21.71"></use><use xlink:href="#14" y="23.880999999999997"></use></svg><svg x="2640"><use xlink:href="#a"></use><use xlink:href="#b" x="1.996" y="2.146"></use><use xlink:href="#3" y="0"></use><use xlink:href="#4" y="2.171"></use><use xlink:href="#15" y="4.342"></use><use xlink:href="#6" y="6.513"></use><use xlink:href="#7" y="8.684"></use><use xlink:href="#8" y="10.855"></use><use xlink:href="#21" y="13.026"></use><use xlink:href="#10" y="15.197"></use><use xlink:href="#11" y="17.368"></use><use xlink:href="#12" y="19.539"></use><use xlink:href="#13" y="21.71"></use><use xlink:href="#14" y="23.880999999999997"></use></svg><svg x="2760"><use xlink:href="#a"></use><use xlink:href="#b" x="0.996" y="8.658999999999999"></use><use xlink:href="#3" y="0"></use><use xlink:href="#4" y="2.171"></use><use xlink:href="#15" y="4.342"></use><use xlink:href="#6" y="6.513"></use><use xlink:href="#20" y="8.684"></use><use xlink:href="#8" y="10.855"></use><use xlink:href="#21" y="13.026"></use><use xlink:href="#10" y="15.197"></use><use xlink:href="#11" y="17.368"></use><use xlink:href="#12" y="19.539"></use><use xlink:href="#13" y="21.71"></use><use xlink:href="#14" y="23.880999999999997"></use></svg><svg x="2880"><use xlink:href="#a"></use><use xlink:href="#b" x="23.996" y="13.001"></use><use xlink:href="#3" y="0"></use><use xlink:href="#4" y="2.171"></use><use xlink:href="#15" y="4.342"></use><use xlink:href="#6" y="6.513"></use><use xlink:href="#7" y="8.684"></use><use xlink:href="#8" y="10.855"></use><text x="0" y="14.696" class="g">./snap/snapd-desktop-int</text><use xlink:href="#10" y="15.197"></use><use xlink:href="#11" y="17.368"></use><use xlink:href="#12" y="19.539"></use><use xlink:href="#13" y="21.71"></use><use xlink:href="#14" y="23.880999999999997"></use></svg><svg x="3000"><use xlink:href="#a"></use><use xlink:href="#b" x="1.996" y="2.146"></use><use xlink:href="#3" y="0"></use><use xlink:href="#4" y="2.171"></use><use xlink:href="#15" y="4.342"></use><use xlink:href="#6" y="6.513"></use><use xlink:href="#7" y="8.684"></use><use xlink:href="#8" y="10.855"></use><use xlink:href="#9" y="13.026"></use><use xlink:href="#22" y="15.197"></use><use xlink:href="#11" y="17.368"></use><use xlink:href="#12" y="19.539"></use><use xlink:href="#13" y="21.71"></use><use xlink:href="#14" y="23.880999999999997"></use></svg><svg x="3120"><use xlink:href="#a"></use><use xlink:href="#b" x="2.996" y="2.146"></use><use xlink:href="#3" y="0"></use><use xlink:href="#23" y="2.171"></use><use xlink:href="#15" y="4.342"></use><use xlink:href="#6" y="6.513"></use><use xlink:href="#7" y="8.684"></use><use xlink:href="#8" y="10.855"></use><use xlink:href="#9" y="13.026"></use><use xlink:href="#22" y="15.197"></use><use xlink:href="#11" y="17.368"></use><use xlink:href="#12" y="19.539"></use><use xlink:href="#13" y="21.71"></use><use xlink:href="#14" y="23.880999999999997"></use></svg><svg x="3240"><use xlink:href="#a"></use><use xlink:href="#b" x="2.996" y="2.146"></use><use xlink:href="#3" y="0"></use><use xlink:href="#23" y="2.171"></use><use xlink:href="#24" y="4.342"></use><use xlink:href="#25" y="6.513"></use><use xlink:href="#26" y="8.684"></use><use xlink:href="#27" y="10.855"></use><use xlink:href="#28" y="13.026"></use><use xlink:href="#29" y="15.197"></use><use xlink:href="#30" y="17.368"></use><use xlink:href="#31" y="19.539"></use><use xlink:href="#32" y="21.71"></use><use xlink:href="#33" y="23.880999999999997"></use></svg><svg x="3360"><use xlink:href="#a"></use><use xlink:href="#b" x="3.996" y="2.146"></use><use xlink:href="#3" y="0"></use><use xlink:href="#34" y="2.171"></use><use xlink:href="#24" y="4.342"></use><use xlink:href="#25" y="6.513"></use><use xlink:href="#26" y="8.684"></use><use xlink:href="#27" y="10.855"></use><use xlink:href="#28" y="13.026"></use><use xlink:href="#29" y="15.197"></use><use xlink:href="#30" y="17.368"></use><use xlink:href="#31" y="19.539"></use><use xlink:href="#32" y="21.71"></use><use xlink:href="#33" y="23.880999999999997"></use></svg><svg x="3480"><use xlink:href="#a"></use><use xlink:href="#b" x="3.996" y="2.146"></use><use xlink:href="#3" y="0"></use><use xlink:href="#34" y="2.171"></use><use xlink:href="#35" y="4.342"></use><use xlink:href="#36" y="6.513"></use><use xlink:href="#37" y="8.684"></use><use xlink:href="#38" y="10.855"></use><use xlink:href="#39" y="13.026"></use><use xlink:href="#40" y="15.197"></use><use xlink:href="#41" y="17.368"></use><use xlink:href="#42" y="19.539"></use><use xlink:href="#43" y="21.71"></use><use xlink:href="#44" y="23.880999999999997"></use></svg><svg x="3600"><use xlink:href="#a"></use><use xlink:href="#b" x="4.996" y="2.146"></use><use xlink:href="#3" y="0"></use><use xlink:href="#45" y="2.171"></use><use xlink:href="#35" y="4.342"></use><use xlink:href="#36" y="6.513"></use><use xlink:href="#37" y="8.684"></use><use xlink:href="#38" y="10.855"></use><use xlink:href="#39" y="13.026"></use><use xlink:href="#40" y="15.197"></use><use xlink:href="#41" y="17.368"></use><use xlink:href="#42" y="19.539"></use><use xlink:href="#43" y="21.71"></use><use xlink:href="#44" y="23.880999999999997"></use></svg><svg x="3720"><use xlink:href="#a"></use><use xlink:href="#b" x="116.996" y="23.855999999999998"></use><use xlink:href="#3" y="0"></use><use xlink:href="#45" y="2.171"></use><use xlink:href="#46" y="4.342"></use><use xlink:href="#47" y="6.513"></use><use xlink:href="#48" y="8.684"></use><use xlink:href="#49" y="10.855"></use><use xlink:href="#50" y="13.026"></use><use xlink:href="#51" y="15.197"></use><use xlink:href="#52" y="17.368"></use><use xlink:href="#53" y="19.539"></use><use xlink:href="#54" y="21.71"></use><use xlink:href="#55" y="23.880999999999997"></use></svg><svg x="3840"><use xlink:href="#a"></use><use xlink:href="#b" x="4.996" y="2.146"></use><use xlink:href="#3" y="0"></use><use xlink:href="#45" y="2.171"></use><use xlink:href="#46" y="4.342"></use><use xlink:href="#47" y="6.513"></use><use xlink:href="#48" y="8.684"></use><use xlink:href="#49" y="10.855"></use><use xlink:href="#50" y="13.026"></use><use xlink:href="#51" y="15.197"></use><use xlink:href="#52" y="17.368"></use><use xlink:href="#53" y="19.539"></use><use xlink:href="#54" y="21.71"></use><use xlink:href="#55" y="23.880999999999997"></use></svg><svg x="3960"><use xlink:href="#a"></use><use xlink:href="#b" x="116.996" y="23.855999999999998"></use><use xlink:href="#3" y="0"></use><use xlink:href="#45" y="2.171"></use><use xlink:href="#46" y="4.342"></use><use xlink:href="#47" y="6.513"></use><use xlink:href="#48" y="8.684"></use><use xlink:href="#49" y="10.855"></use><use xlink:href="#50" y="13.026"></use><use xlink:href="#51" y="15.197"></use><use xlink:href="#52" y="17.368"></use><use xlink:href="#53" y="19.539"></use><use xlink:href="#54" y="21.71"></use><use xlink:href="#55" y="23.880999999999997"></use></svg><svg x="4080"><use xlink:href="#a"></use><use xlink:href="#b" x="-0.0040000000000000036" y="10.83"></use><use xlink:href="#3" y="0"></use><use xlink:href="#45" y="2.171"></use><use xlink:href="#46" y="4.342"></use><use xlink:href="#47" y="6.513"></use><use xlink:href="#48" y="8.684"></use><use xlink:href="#49" y="10.855"></use><use xlink:href="#50" y="13.026"></use><use xlink:href="#51" y="15.197"></use><use xlink:href="#52" y="17.368"></use><use xlink:href="#53" y="19.539"></use><use xlink:href="#54" y="21.71"></use><use xlink:href="#55" y="23.880999999999997"></use></svg><svg x="4200"><use xlink:href="#a"></use><use xlink:href="#b" x="13.996" y="8.658999999999999"></use><use xlink:href="#3" y="0"></use><use xlink:href="#45" y="2.171"></use><use xlink:href="#56" y="4.342"></use><use xlink:href="#57" y="6.513"></use><use xlink:href="#48" y="8.684"></use><use xlink:href="#49" y="10.855"></use><use xlink:href="#50" y="13.026"></use><use xlink:href="#51" y="15.197"></use><use xlink:href="#52" y="17.368"></use><use xlink:href="#53" y="19.539"></use><use xlink:href="#54" y="21.71"></use><use xlink:href="#55" y="23.880999999999997"></use></svg><svg x="4320"><use xlink:href="#a"></use><use xlink:href="#b" x="4.996" y="2.146"></use><use xlink:href="#3" y="0"></use><use xlink:href="#45" y="2.171"></use><use xlink:href="#56" y="4.342"></use><use xlink:href="#57" y="6.513"></use><use xlink:href="#48" y="8.684"></use><use xlink:href="#49" y="10.855"></use><use xlink:href="#50" y="13.026"></use><use xlink:href="#51" y="15.197"></use><use xlink:href="#52" y="17.368"></use><use xlink:href="#53" y="19.539"></use><use xlink:href="#54" y="21.71"></use><use xlink:href="#55" y="23.880999999999997"></use></svg><svg x="4440"><use xlink:href="#a"></use><use xlink:href="#b" x="-0.0040000000000000036" y="2.146"></use><use xlink:href="#3" y="0"></use></svg><svg x="4560"><use xlink:href="#a"></use></svg><svg x="4680"><use xlink:href="#a"></use><use xlink:href="#58" y="36.907000000000004"></use></svg><svg x="4800"><use xlink:href="#a"></use><use xlink:href="#59" y="0"></use><use xlink:href="#58" y="36.907000000000004"></use><use xlink:href="#60" y="39.078"></use><use xlink:href="#61" y="41.248999999999995"></use></svg><svg x="4920"><use xlink:href="#a"></use><use xlink:href="#59" y="0"></use><use xlink:href="#58" y="36.907000000000004"></use><use xlink:href="#60" y="39.078"></use><use xlink:href="#61" y="41.248999999999995"></use></svg><svg x="5040"><use xlink:href="#a"></use><use xlink:href="#b" x="-0.0040000000000000036" y="2.146"></use><use xlink:href="#59" y="0"></use><text x="0" y="3.8409999999999997" class="q">#</text><text x="2.004" y="3.8409999999999997" class="q">~/.bashrc:</text><text x="13.026" y="3.8409999999999997" class="q">executed</text><text x="22.043999999999997" y="3.8409999999999997" class="q">by</text><text x="25.05" y="3.8409999999999997" class="q">bash(1)</text><text x="33.065999999999995" y="3.8409999999999997" class="q">for</text><text x="37.074" y="3.8409999999999997" class="q">non-login</text><text x="47.093999999999994" y="3.8409999999999997" class="q">shells.</text><text x="0" y="6.012" class="q">#</text><text x="2.004" y="6.012" class="q">see</text><text x="6.012" y="6.012" class="q">/usr/share/doc/bash/examples/startup-files</text><text x="49.098" y="6.012" class="q">(in</text><text x="53.105999999999995" y="6.012" class="q">the</text><text x="57.114" y="6.012" class="q">package</text><text x="65.13" y="6.012" class="q">bash-doc)</text><text x="0" y="8.183" class="q">#</text><text x="2.004" y="8.183" class="q">for</text><text x="6.012" y="8.183" class="q">examples</text><text x="0" y="12.525" class="q">#</text><text x="2.004" y="12.525" class="q">If</text><text x="5.01" y="12.525" class="q">not</text><text x="9.017999999999999" y="12.525" class="q">running</text><text x="17.034" y="12.525" class="q">interactively,</text><text x="32.064" y="12.525" class="q">don&#x27;t</text><text x="38.07599999999999" y="12.525" class="q">do</text><text x="41.082" y="12.525" class="q">anything</text><text x="0" y="14.696" class="r">case</text><text x="5.01" y="14.696" class="s">$-</text><text x="8.016" y="14.696" class="r">in</text><text x="4.008" y="16.866999999999997" class="g">*i*</text><text x="7.013999999999999" y="16.866999999999997" class="r">)</text><text x="9.017999999999999" y="16.866999999999997" class="r">;;</text><text x="6.012" y="19.037999999999997" class="g">*</text><text x="7.013999999999999" y="19.037999999999997" class="r">)</text><text x="9.017999999999999" y="19.037999999999997" class="r">return;;</text><text x="0" y="21.209000000000003" class="r">esac</text><text x="0" y="25.550999999999995" class="q">#</text><text x="2.004" y="25.550999999999995" class="q">don&#x27;t</text><text x="8.016" y="25.550999999999995" class="q">put</text><text x="12.024" y="25.550999999999995" class="q">duplicate</text><text x="22.043999999999997" y="25.550999999999995" class="q">lines</text><text x="28.055999999999997" y="25.550999999999995" class="q">or</text><text x="31.061999999999998" y="25.550999999999995" class="q">lines</text><text x="37.074" y="25.550999999999995" class="q">starting</text><text x="46.09199999999999" y="25.550999999999995" class="q">with</text><text x="51.102" y="25.550999999999995" class="q">space</text><text x="57.114" y="25.550999999999995" class="q">in</text><text x="60.11999999999999" y="25.550999999999995" class="q">the</text><text x="64.128" y="25.550999999999995" class="q">history.</text><text x="0" y="27.722" class="q">#</text><text x="2.004" y="27.722" class="q">See</text><text x="6.012" y="27.722" class="q">bash(1)</text><text x="14.027999999999999" y="27.722" class="q">for</text><text x="18.035999999999998" y="27.722" class="q">more</text><text x="23.045999999999996" y="27.722" class="q">options</text><text x="0" y="29.893" class="g">HISTCONTROL</text><text x="11.021999999999998" y="29.893" class="r">=</text><text x="12.024" y="29.893" class="g">ignoreboth</text><text x="0" y="34.235" class="q">#</text><text x="2.004" y="34.235" class="q">append</text><text x="9.017999999999999" y="34.235" class="q">to</text><text x="12.024" y="34.235" class="q">the</text><text x="16.032" y="34.235" class="q">history</text><text x="24.048" y="34.235" class="q">file,</text><text x="30.059999999999995" y="34.235" class="q">don&#x27;t</text><text x="36.071999999999996" y="34.235" class="q">overwrite</text><text x="46.09199999999999" y="34.235" class="q">it</text><text x="0" y="36.406" class="g">shopt</text><text x="6.012" y="36.406" class="t">-s</text><text x="9.017999999999999" y="36.406" class="g">histappend</text><use xlink:href="#58" y="36.907000000000004"></use><use xlink:href="#60" y="39.078"></use><use xlink:href="#61" y="41.248999999999995"></use></svg><svg x="5160"><use xlink:href="#a"></use><use xlink:href="#b" x="-0.0040000000000000036" y="2.146"></use><use xlink:href="#3" y="0"></use></svg><svg x="5280"><use xlink:href="#a"></use><use xlink:href="#b" x="15.996" y="2.146"></use><use xlink:href="#3" y="0"></use><use xlink:href="#1" y="2.171"></use></svg><svg x="5400"><use xlink:href="#a"></use><use xlink:href="#b" x="-0.0040000000000000036" y="6.4879999999999995"></use><use xlink:href="#3" y="0"></use><use xlink:href="#1" y="2.171"></use><text x="0" y="6.012" class="g">exit</text></svg></svg></g></g></svg></svg>