<svg xmlns="http://www.w3.org/2000/svg" xmlns:xlink="http://www.w3.org/1999/xlink" width="1240" height="494.20000000000005"><rect width="1240" height="494.20000000000005" rx="5" ry="5" class="a"></rect><svg y="0%" x="0%"><circle cx="20" cy="20" r="6" class="b"></circle><circle cx="40" cy="20" r="6" class="c"></circle><circle cx="60" cy="20" r="6" class="d"></circle></svg><svg height="434.20000000000005" viewBox="0 0 120 43.42" width="1200" x="15" xmlns="http://www.w3.org/2000/svg" xmlns:xlink="http://www.w3.org/1999/xlink" y="50"><style>.a{fill:rgb(40,45,53)}.b{fill:#ff5f58}.c{fill:#ffbd2e}.d{fill:#18c132}.e{font-family:Monaco,Consolas,Menlo,'Bitstream Vera Sans Mono','Powerline Symbols',monospace}.f{fill:rgb(168,204,140);font-weight:bold;white-space:pre}.g{fill:rgb(185,192,203);white-space:pre}.h{fill:rgb(113,190,242);font-weight:bold;white-space:pre}.i{fill:rgb(185,192,203)}.j{fill:rgb(40,45,53);white-space:pre}.k{fill:transparent}.l{fill:rgb(111,118,131)}.n{animation-duration:12.809495s;animation-iteration-count:infinite;animation-name:m;animation-timing-function:steps(1,end)}@keyframes m{0%{transform:translateX(-0px)}0.2%{transform:translateX(-120px)}6.5%{transform:translateX(-240px)}7.4%{transform:translateX(-360px)}8.4%{transform:translateX(-480px)}12.6%{transform:translateX(-600px)}17%{transform:translateX(-720px)}18%{transform:translateX(-840px)}26.4%{transform:translateX(-960px)}29%{transform:translateX(-1080px)}32.9%{transform:translateX(-1200px)}34.9%{transform:translateX(-1320px)}38.4%{transform:translateX(-1440px)}43.3%{transform:translateX(-1560px)}43.3%{transform:translateX(-1680px)}50.9%{transform:translateX(-1800px)}54.6%{transform:translateX(-1920px)}55.9%{transform:translateX(-2040px)}58.5%{transform:translateX(-2160px)}60.2%{transform:translateX(-2280px)}62.9%{transform:translateX(-2400px)}64.2%{transform:translateX(-2520px)}65.4%{transform:translateX(-2640px)}66.6%{transform:translateX(-2760px)}67.6%{transform:translateX(-2880px)}71.5%{transform:translateX(-3000px)}71.5%{transform:translateX(-3120px)}71.8%{transform:translateX(-3240px)}72%{transform:translateX(-3360px)}72.2%{transform:translateX(-3480px)}72.5%{transform:translateX(-3600px)}73.8%{transform:translateX(-3720px)}75.2%{transform:translateX(-3840px)}76.4%{transform:translateX(-3960px)}78.8%{transform:translateX(-4080px)}82.7%{transform:translateX(-4200px)}83%{transform:translateX(-4320px)}83.2%{transform:translateX(-4440px)}83.5%{transform:translateX(-4560px)}83.7%{transform:translateX(-4680px)}84%{transform:translateX(-4800px)}84.2%{transform:translateX(-4920px)}84.4%{transform:translateX(-5040px)}84.7%{transform:translateX(-5160px)}86.4%{transform:translateX(-5280px)}89.4%{transform:translateX(-5400px)}98.1%{transform:translateX(-5520px)}98.1%{transform:translateX(-5640px)}100%{transform:translateX(-5760px)}}</style><g font-family="Monaco, Consolas, Menlo, &#x27;Bitstream Vera Sans Mono&#x27;, &#x27;Powerline Symbols&#x27;, monospace" font-size="1.67" class="e"><defs><symbol id="1"><text x="0" y="1.67" class="f">team@itsfoss</text><text x="12.024" y="1.67" class="g">:</text><text x="13.026" y="1.67" class="h">~</text><text x="14.027999999999999" y="1.67" class="g">$</text></symbol><symbol id="2"><text x="0" y="1.67" class="f">team@itsfoss</text><text x="12.024" y="1.67" class="g">:</text><text x="13.026" y="1.67" class="h">~</text><text x="14.027999999999999" y="1.67" class="g">$</text><text x="16.032" y="1.67" class="g">ls</text></symbol><symbol id="3"><text x="0" y="1.67" class="f">team@itsfoss</text><text x="12.024" y="1.67" class="g">:</text><text x="13.026" y="1.67" class="h">~</text><text x="14.027999999999999" y="1.67" class="g">$</text><text x="16.032" y="1.67" class="g">ls</text><text x="19.037999999999997" y="1.67" class="g">-a</text></symbol><symbol id="4"><text x="0" y="1.67" class="f">team@itsfoss</text><text x="12.024" y="1.67" class="g">:</text><text x="13.026" y="1.67" class="h">~</text><text x="14.027999999999999" y="1.67" class="g">$</text><text x="16.032" y="1.67" class="g">ls</text><text x="19.037999999999997" y="1.67" class="g">-a</text><text x="22.043999999999997" y="1.67" class="g">|</text></symbol><symbol id="5"><text x="0" y="1.67" class="f">team@itsfoss</text><text x="12.024" y="1.67" class="g">:</text><text x="13.026" y="1.67" class="h">~</text><text x="14.027999999999999" y="1.67" class="g">$</text><text x="16.032" y="1.67" class="g">ls</text><text x="19.037999999999997" y="1.67" class="g">-a</text><text x="22.043999999999997" y="1.67" class="g">|</text><text x="24.048" y="1.67" class="g">fzy</text></symbol><symbol id="6"><text x="0" y="1.67" class="g">&gt;</text></symbol><symbol id="7"><text x="0" y="1.67" class="g">..</text></symbol><symbol id="8"><text x="0" y="1.67" class="g">.bash_history</text></symbol><symbol id="9"><text x="0" y="1.67" class="g">.bash_logout</text></symbol><symbol id="10"><text x="0" y="1.67" class="g">.bashrc</text></symbol><symbol id="11"><text x="0" y="1.67" class="g">.cache</text></symbol><symbol id="12"><text x="0" y="1.67" class="g">.clipboard</text></symbol><symbol id="13"><text x="0" y="1.67" class="g">.config</text></symbol><symbol id="14"><text x="0" y="1.67" class="g">Desktop</text></symbol><symbol id="15"><text x="0" y="1.67" class="g">Documents</text></symbol><symbol id="16"><text x="0" y="1.67" class="g">.</text></symbol><symbol id="17"><rect height="2.171" width="7" x="0" y="0" class="i"></rect><text x="0" y="1.67" class="j">.config</text></symbol><symbol id="18"><rect height="2.171" width="7" x="0" y="0" class="i"></rect><text x="0" y="1.67" class="j">Desktop</text></symbol><symbol id="19"><rect height="2.171" width="9" x="0" y="0" class="i"></rect><text x="0" y="1.67" class="j">Documents</text></symbol><symbol id="20"><text x="0" y="1.67" class="g">Downloads</text></symbol><symbol id="21"><rect height="2.171" width="9" x="0" y="0" class="i"></rect><text x="0" y="1.67" class="j">Downloads</text></symbol><symbol id="22"><text x="0" y="1.67" class="g">fzfscript</text></symbol><symbol id="23"><rect height="2.171" width="9" x="0" y="0" class="i"></rect><text x="0" y="1.67" class="j">fzfscript</text></symbol><symbol id="24"><text x="0" y="1.67" class="g">fzy-ls.cast</text></symbol><symbol id="25"><rect height="2.171" width="11" x="0" y="0" class="i"></rect><text x="0" y="1.67" class="j">fzy-ls.cast</text></symbol><symbol id="26"><text x="0" y="1.67" class="g">.gnupg</text></symbol><symbol id="27"><rect height="2.171" width="6" x="0" y="0" class="i"></rect><text x="0" y="1.67" class="j">.gnupg</text></symbol><symbol id="28"><text x="0" y="1.67" class="g">hello.txt</text></symbol><symbol id="29"><rect height="2.171" width="9" x="0" y="0" class="i"></rect><text x="0" y="1.67" class="j">hello.txt</text></symbol><symbol id="30"><text x="0" y="1.67" class="g">itsfoss.png</text></symbol><symbol id="31"><rect height="2.171" width="11" x="0" y="0" class="i"></rect><text x="0" y="1.67" class="j">itsfoss.png</text></symbol><symbol id="32"><text x="0" y="1.67" class="g">.lesshst</text></symbol><symbol id="33"><rect height="2.171" width="8" x="0" y="0" class="i"></rect><text x="0" y="1.67" class="j">.lesshst</text></symbol><symbol id="34"><text x="0" y="1.67" class="g">.local</text></symbol><symbol id="35"><rect height="2.171" width="6" x="0" y="0" class="i"></rect><text x="0" y="1.67" class="j">.local</text></symbol><symbol id="36"><text x="0" y="1.67" class="g">logo.png</text></symbol><symbol id="a"><rect height="21" width="120" x="0" y="0" class="k"></rect></symbol><symbol id="b"><rect height="2.171" width="1.1022" class="l"></rect></symbol></defs><rect height="43.42" width="120" class="a"></rect><g class="n"><svg x="0" y="0" width="5880"><svg x="0"><use xlink:href="#a"></use><use xlink:href="#b" x="-0.0040000000000000036" y="0"></use></svg><svg x="120"><use xlink:href="#a"></use><use xlink:href="#b" x="15.996" y="0"></use><use xlink:href="#1" y="0"></use></svg><svg x="240"><use xlink:href="#a"></use><use xlink:href="#b" x="16.996" y="0"></use><text x="0" y="1.67" class="f">team@itsfoss</text><text x="12.024" y="1.67" class="g">:</text><text x="13.026" y="1.67" class="h">~</text><text x="14.027999999999999" y="1.67" class="g">$</text><text x="16.032" y="1.67" class="g">l</text></svg><svg x="360"><use xlink:href="#a"></use><use xlink:href="#b" x="17.996" y="0"></use><use xlink:href="#2" y="0"></use></svg><svg x="480"><use xlink:href="#a"></use><use xlink:href="#b" x="18.996" y="0"></use><use xlink:href="#2" y="0"></use></svg><svg x="600"><use xlink:href="#a"></use><use xlink:href="#b" x="19.996" y="0"></use><text x="0" y="1.67" class="f">team@itsfoss</text><text x="12.024" y="1.67" class="g">:</text><text x="13.026" y="1.67" class="h">~</text><text x="14.027999999999999" y="1.67" class="g">$</text><text x="16.032" y="1.67" class="g">ls</text><text x="19.037999999999997" y="1.67" class="g">-</text></svg><svg x="720"><use xlink:href="#a"></use><use xlink:href="#b" x="20.996" y="0"></use><use xlink:href="#3" y="0"></use></svg><svg x="840"><use xlink:href="#a"></use><use xlink:href="#b" x="21.996" y="0"></use><use xlink:href="#3" y="0"></use></svg><svg x="960"><use xlink:href="#a"></use><use xlink:href="#b" x="22.996" y="0"></use><use xlink:href="#4" y="0"></use></svg><svg x="1080"><use xlink:href="#a"></use><use xlink:href="#b" x="23.996" y="0"></use><use xlink:href="#4" y="0"></use></svg><svg x="1200"><use xlink:href="#a"></use><use xlink:href="#b" x="24.996" y="0"></use><text x="0" y="1.67" class="f">team@itsfoss</text><text x="12.024" y="1.67" class="g">:</text><text x="13.026" y="1.67" class="h">~</text><text x="14.027999999999999" y="1.67" class="g">$</text><text x="16.032" y="1.67" class="g">ls</text><text x="19.037999999999997" y="1.67" class="g">-a</text><text x="22.043999999999997" y="1.67" class="g">|</text><text x="24.048" y="1.67" class="g">f</text></svg><svg x="1320"><use xlink:href="#a"></use><use xlink:href="#b" x="25.996" y="0"></use><text x="0" y="1.67" class="f">team@itsfoss</text><text x="12.024" y="1.67" class="g">:</text><text x="13.026" y="1.67" class="h">~</text><text x="14.027999999999999" y="1.67" class="g">$</text><text x="16.032" y="1.67" class="g">ls</text><text x="19.037999999999997" y="1.67" class="g">-a</text><text x="22.043999999999997" y="1.67" class="g">|</text><text x="24.048" y="1.67" class="g">fz</text></svg><svg x="1440"><use xlink:href="#a"></use><use xlink:href="#b" x="26.996" y="0"></use><use xlink:href="#5" y="0"></use></svg><svg x="1560"><use xlink:href="#a"></use><use xlink:href="#b" x="-0.0040000000000000036" y="2.146"></use><use xlink:href="#5" y="0"></use></svg><svg x="1680"><use xlink:href="#a"></use><use xlink:href="#b" x="1.996" y="2.146"></use><use xlink:href="#5" y="0"></use><use xlink:href="#6" y="2.171"></use><rect height="2.171" width="1" x="0" y="4.342" class="i"></rect><text x="0" y="6.012" class="j">.</text><use xlink:href="#7" y="6.513"></use><use xlink:href="#8" y="8.684"></use><use xlink:href="#9" y="10.855"></use><use xlink:href="#10" y="13.026"></use><use xlink:href="#11" y="15.197"></use><use xlink:href="#12" y="17.368"></use><use xlink:href="#13" y="19.539"></use><use xlink:href="#14" y="21.71"></use><use xlink:href="#15" y="23.880999999999997"></use></svg><svg x="1800"><use xlink:href="#a"></use><use xlink:href="#b" x="1.996" y="2.146"></use><use xlink:href="#5" y="0"></use><use xlink:href="#6" y="2.171"></use><use xlink:href="#16" y="4.342"></use><rect height="2.171" width="2" x="0" y="6.513" class="i"></rect><text x="0" y="8.183" class="j">..</text><use xlink:href="#8" y="8.684"></use><use xlink:href="#9" y="10.855"></use><use xlink:href="#10" y="13.026"></use><use xlink:href="#11" y="15.197"></use><use xlink:href="#12" y="17.368"></use><use xlink:href="#13" y="19.539"></use><use xlink:href="#14" y="21.71"></use><use xlink:href="#15" y="23.880999999999997"></use></svg><svg x="1920"><use xlink:href="#a"></use><use xlink:href="#b" x="1.996" y="2.146"></use><use xlink:href="#5" y="0"></use><use xlink:href="#6" y="2.171"></use><use xlink:href="#16" y="4.342"></use><use xlink:href="#7" y="6.513"></use><rect height="2.171" width="13" x="0" y="8.684" class="i"></rect><text x="0" y="10.354" class="j">.bash_history</text><use xlink:href="#9" y="10.855"></use><use xlink:href="#10" y="13.026"></use><use xlink:href="#11" y="15.197"></use><use xlink:href="#12" y="17.368"></use><use xlink:href="#13" y="19.539"></use><use xlink:href="#14" y="21.71"></use><use xlink:href="#15" y="23.880999999999997"></use></svg><svg x="2040"><use xlink:href="#a"></use><use xlink:href="#b" x="1.996" y="2.146"></use><use xlink:href="#5" y="0"></use><use xlink:href="#6" y="2.171"></use><use xlink:href="#16" y="4.342"></use><use xlink:href="#7" y="6.513"></use><use xlink:href="#8" y="8.684"></use><rect height="2.171" width="12" x="0" y="10.855" class="i"></rect><text x="0" y="12.525" class="j">.bash_logout</text><use xlink:href="#10" y="13.026"></use><use xlink:href="#11" y="15.197"></use><use xlink:href="#12" y="17.368"></use><use xlink:href="#13" y="19.539"></use><use xlink:href="#14" y="21.71"></use><use xlink:href="#15" y="23.880999999999997"></use></svg><svg x="2160"><use xlink:href="#a"></use><use xlink:href="#b" x="1.996" y="2.146"></use><use xlink:href="#5" y="0"></use><use xlink:href="#6" y="2.171"></use><use xlink:href="#16" y="4.342"></use><use xlink:href="#7" y="6.513"></use><use xlink:href="#8" y="8.684"></use><use xlink:href="#9" y="10.855"></use><rect height="2.171" width="7" x="0" y="13.026" class="i"></rect><text x="0" y="14.696" class="j">.bashrc</text><use xlink:href="#11" y="15.197"></use><use xlink:href="#12" y="17.368"></use><use xlink:href="#13" y="19.539"></use><use xlink:href="#14" y="21.71"></use><use xlink:href="#15" y="23.880999999999997"></use></svg><svg x="2280"><use xlink:href="#a"></use><use xlink:href="#b" x="1.996" y="2.146"></use><use xlink:href="#5" y="0"></use><use xlink:href="#6" y="2.171"></use><use xlink:href="#16" y="4.342"></use><use xlink:href="#7" y="6.513"></use><use xlink:href="#8" y="8.684"></use><use xlink:href="#9" y="10.855"></use><use xlink:href="#10" y="13.026"></use><rect height="2.171" width="6" x="0" y="15.196999999999997" class="i"></rect><text x="0" y="16.866999999999997" class="j">.cache</text><use xlink:href="#12" y="17.368"></use><use xlink:href="#13" y="19.539"></use><use xlink:href="#14" y="21.71"></use><use xlink:href="#15" y="23.880999999999997"></use></svg><svg x="2400"><use xlink:href="#a"></use><use xlink:href="#b" x="1.996" y="2.146"></use><use xlink:href="#5" y="0"></use><use xlink:href="#6" y="2.171"></use><use xlink:href="#16" y="4.342"></use><use xlink:href="#7" y="6.513"></use><use xlink:href="#8" y="8.684"></use><use xlink:href="#9" y="10.855"></use><use xlink:href="#10" y="13.026"></use><use xlink:href="#11" y="15.197"></use><rect height="2.171" width="10" x="0" y="17.367999999999995" class="i"></rect><text x="0" y="19.037999999999997" class="j">.clipboard</text><use xlink:href="#13" y="19.539"></use><use xlink:href="#14" y="21.71"></use><use xlink:href="#15" y="23.880999999999997"></use></svg><svg x="2520"><use xlink:href="#a"></use><use xlink:href="#b" x="1.996" y="2.146"></use><use xlink:href="#5" y="0"></use><use xlink:href="#6" y="2.171"></use><use xlink:href="#16" y="4.342"></use><use xlink:href="#7" y="6.513"></use><use xlink:href="#8" y="8.684"></use><use xlink:href="#9" y="10.855"></use><use xlink:href="#10" y="13.026"></use><use xlink:href="#11" y="15.197"></use><use xlink:href="#12" y="17.368"></use><use xlink:href="#17" y="19.539"></use><use xlink:href="#14" y="21.71"></use><use xlink:href="#15" y="23.880999999999997"></use></svg><svg x="2640"><use xlink:href="#a"></use><use xlink:href="#b" x="1.996" y="2.146"></use><use xlink:href="#5" y="0"></use><use xlink:href="#6" y="2.171"></use><use xlink:href="#16" y="4.342"></use><use xlink:href="#7" y="6.513"></use><use xlink:href="#8" y="8.684"></use><use xlink:href="#9" y="10.855"></use><use xlink:href="#10" y="13.026"></use><use xlink:href="#11" y="15.197"></use><use xlink:href="#12" y="17.368"></use><use xlink:href="#13" y="19.539"></use><use xlink:href="#18" y="21.71"></use><use xlink:href="#15" y="23.880999999999997"></use></svg><svg x="2760"><use xlink:href="#a"></use><use xlink:href="#b" x="1.996" y="2.146"></use><use xlink:href="#5" y="0"></use><use xlink:href="#6" y="2.171"></use><use xlink:href="#7" y="4.342"></use><use xlink:href="#8" y="6.513"></use><use xlink:href="#9" y="8.684"></use><use xlink:href="#10" y="10.855"></use><use xlink:href="#11" y="13.026"></use><use xlink:href="#12" y="15.197"></use><use xlink:href="#13" y="17.368"></use><use xlink:href="#14" y="19.539"></use><use xlink:href="#19" y="21.71"></use><use xlink:href="#20" y="23.880999999999997"></use></svg><svg x="2880"><use xlink:href="#a"></use><use xlink:href="#b" x="1.996" y="2.146"></use><use xlink:href="#5" y="0"></use><use xlink:href="#6" y="2.171"></use><use xlink:href="#8" y="4.342"></use><use xlink:href="#9" y="6.513"></use><use xlink:href="#10" y="8.684"></use><use xlink:href="#11" y="10.855"></use><use xlink:href="#12" y="13.026"></use><use xlink:href="#13" y="15.197"></use><use xlink:href="#14" y="17.368"></use><use xlink:href="#15" y="19.539"></use><use xlink:href="#21" y="21.71"></use><use xlink:href="#22" y="23.880999999999997"></use></svg><svg x="3000"><use xlink:href="#a"></use><use xlink:href="#b" x="1.996" y="2.146"></use><use xlink:href="#5" y="0"></use><use xlink:href="#6" y="2.171"></use><use xlink:href="#8" y="4.342"></use><use xlink:href="#9" y="6.513"></use><use xlink:href="#10" y="8.684"></use><use xlink:href="#11" y="10.855"></use><use xlink:href="#12" y="13.026"></use><use xlink:href="#13" y="15.197"></use><use xlink:href="#14" y="17.368"></use><use xlink:href="#15" y="19.539"></use><use xlink:href="#21" y="21.71"></use><use xlink:href="#22" y="23.880999999999997"></use></svg><svg x="3120"><use xlink:href="#a"></use><use xlink:href="#b" x="1.996" y="2.146"></use><use xlink:href="#5" y="0"></use><use xlink:href="#6" y="2.171"></use><use xlink:href="#9" y="4.342"></use><use xlink:href="#10" y="6.513"></use><use xlink:href="#11" y="8.684"></use><use xlink:href="#12" y="10.855"></use><use xlink:href="#13" y="13.026"></use><use xlink:href="#14" y="15.197"></use><use xlink:href="#15" y="17.368"></use><use xlink:href="#20" y="19.539"></use><use xlink:href="#23" y="21.71"></use><use xlink:href="#24" y="23.880999999999997"></use></svg><svg x="3240"><use xlink:href="#a"></use><use xlink:href="#b" x="1.996" y="2.146"></use><use xlink:href="#5" y="0"></use><use xlink:href="#6" y="2.171"></use><use xlink:href="#10" y="4.342"></use><use xlink:href="#11" y="6.513"></use><use xlink:href="#12" y="8.684"></use><use xlink:href="#13" y="10.855"></use><use xlink:href="#14" y="13.026"></use><use xlink:href="#15" y="15.197"></use><use xlink:href="#20" y="17.368"></use><use xlink:href="#22" y="19.539"></use><use xlink:href="#25" y="21.71"></use><use xlink:href="#26" y="23.880999999999997"></use></svg><svg x="3360"><use xlink:href="#a"></use><use xlink:href="#b" x="1.996" y="2.146"></use><use xlink:href="#5" y="0"></use><use xlink:href="#6" y="2.171"></use><use xlink:href="#11" y="4.342"></use><use xlink:href="#12" y="6.513"></use><use xlink:href="#13" y="8.684"></use><use xlink:href="#14" y="10.855"></use><use xlink:href="#15" y="13.026"></use><use xlink:href="#20" y="15.197"></use><use xlink:href="#22" y="17.368"></use><use xlink:href="#24" y="19.539"></use><use xlink:href="#27" y="21.71"></use><use xlink:href="#28" y="23.880999999999997"></use></svg><svg x="3480"><use xlink:href="#a"></use><use xlink:href="#b" x="1.996" y="2.146"></use><use xlink:href="#5" y="0"></use><use xlink:href="#6" y="2.171"></use><use xlink:href="#12" y="4.342"></use><use xlink:href="#13" y="6.513"></use><use xlink:href="#14" y="8.684"></use><use xlink:href="#15" y="10.855"></use><use xlink:href="#20" y="13.026"></use><use xlink:href="#22" y="15.197"></use><use xlink:href="#24" y="17.368"></use><use xlink:href="#26" y="19.539"></use><use xlink:href="#29" y="21.71"></use><use xlink:href="#30" y="23.880999999999997"></use></svg><svg x="3600"><use xlink:href="#a"></use><use xlink:href="#b" x="1.996" y="2.146"></use><use xlink:href="#5" y="0"></use><use xlink:href="#6" y="2.171"></use><use xlink:href="#13" y="4.342"></use><use xlink:href="#14" y="6.513"></use><use xlink:href="#15" y="8.684"></use><use xlink:href="#20" y="10.855"></use><use xlink:href="#22" y="13.026"></use><use xlink:href="#24" y="15.197"></use><use xlink:href="#26" y="17.368"></use><use xlink:href="#28" y="19.539"></use><use xlink:href="#31" y="21.71"></use><use xlink:href="#32" y="23.880999999999997"></use></svg><svg x="3720"><use xlink:href="#a"></use><use xlink:href="#b" x="1.996" y="2.146"></use><use xlink:href="#5" y="0"></use><use xlink:href="#6" y="2.171"></use><use xlink:href="#14" y="4.342"></use><use xlink:href="#15" y="6.513"></use><use xlink:href="#20" y="8.684"></use><use xlink:href="#22" y="10.855"></use><use xlink:href="#24" y="13.026"></use><use xlink:href="#26" y="15.197"></use><use xlink:href="#28" y="17.368"></use><use xlink:href="#30" y="19.539"></use><use xlink:href="#33" y="21.71"></use><use xlink:href="#34" y="23.880999999999997"></use></svg><svg x="3840"><use xlink:href="#a"></use><use xlink:href="#b" x="1.996" y="2.146"></use><use xlink:href="#5" y="0"></use><use xlink:href="#6" y="2.171"></use><use xlink:href="#15" y="4.342"></use><use xlink:href="#20" y="6.513"></use><use xlink:href="#22" y="8.684"></use><use xlink:href="#24" y="10.855"></use><use xlink:href="#26" y="13.026"></use><use xlink:href="#28" y="15.197"></use><use xlink:href="#30" y="17.368"></use><use xlink:href="#32" y="19.539"></use><use xlink:href="#35" y="21.71"></use><use xlink:href="#36" y="23.880999999999997"></use></svg><svg x="3960"><use xlink:href="#a"></use><use xlink:href="#b" x="1.996" y="2.146"></use><use xlink:href="#5" y="0"></use><use xlink:href="#6" y="2.171"></use><use xlink:href="#20" y="4.342"></use><use xlink:href="#22" y="6.513"></use><use xlink:href="#24" y="8.684"></use><use xlink:href="#26" y="10.855"></use><use xlink:href="#28" y="13.026"></use><use xlink:href="#30" y="15.197"></use><use xlink:href="#32" y="17.368"></use><use xlink:href="#34" y="19.539"></use><rect height="2.171" width="8" x="0" y="21.71" class="i"></rect><text x="0" y="23.380000000000003" class="j">logo.png</text><text x="0" y="25.550999999999995" class="g">Music</text></svg><svg x="4080"><use xlink:href="#a"></use><use xlink:href="#b" x="1.996" y="2.146"></use><use xlink:href="#5" y="0"></use><use xlink:href="#6" y="2.171"></use><use xlink:href="#15" y="4.342"></use><use xlink:href="#20" y="6.513"></use><use xlink:href="#22" y="8.684"></use><use xlink:href="#24" y="10.855"></use><use xlink:href="#26" y="13.026"></use><use xlink:href="#28" y="15.197"></use><use xlink:href="#30" y="17.368"></use><use xlink:href="#32" y="19.539"></use><use xlink:href="#35" y="21.71"></use><use xlink:href="#36" y="23.880999999999997"></use></svg><svg x="4200"><use xlink:href="#a"></use><use xlink:href="#b" x="1.996" y="2.146"></use><use xlink:href="#5" y="0"></use><use xlink:href="#6" y="2.171"></use><use xlink:href="#14" y="4.342"></use><use xlink:href="#15" y="6.513"></use><use xlink:href="#20" y="8.684"></use><use xlink:href="#22" y="10.855"></use><use xlink:href="#24" y="13.026"></use><use xlink:href="#26" y="15.197"></use><use xlink:href="#28" y="17.368"></use><use xlink:href="#30" y="19.539"></use><use xlink:href="#33" y="21.71"></use><use xlink:href="#34" y="23.880999999999997"></use></svg><svg x="4320"><use xlink:href="#a"></use><use xlink:href="#b" x="1.996" y="2.146"></use><use xlink:href="#5" y="0"></use><use xlink:href="#6" y="2.171"></use><use xlink:href="#13" y="4.342"></use><use xlink:href="#14" y="6.513"></use><use xlink:href="#15" y="8.684"></use><use xlink:href="#20" y="10.855"></use><use xlink:href="#22" y="13.026"></use><use xlink:href="#24" y="15.197"></use><use xlink:href="#26" y="17.368"></use><use xlink:href="#28" y="19.539"></use><use xlink:href="#31" y="21.71"></use><use xlink:href="#32" y="23.880999999999997"></use></svg><svg x="4440"><use xlink:href="#a"></use><use xlink:href="#b" x="1.996" y="2.146"></use><use xlink:href="#5" y="0"></use><use xlink:href="#6" y="2.171"></use><use xlink:href="#12" y="4.342"></use><use xlink:href="#13" y="6.513"></use><use xlink:href="#14" y="8.684"></use><use xlink:href="#15" y="10.855"></use><use xlink:href="#20" y="13.026"></use><use xlink:href="#22" y="15.197"></use><use xlink:href="#24" y="17.368"></use><use xlink:href="#26" y="19.539"></use><use xlink:href="#29" y="21.71"></use><use xlink:href="#30" y="23.880999999999997"></use></svg><svg x="4560"><use xlink:href="#a"></use><use xlink:href="#b" x="1.996" y="2.146"></use><use xlink:href="#5" y="0"></use><use xlink:href="#6" y="2.171"></use><use xlink:href="#11" y="4.342"></use><use xlink:href="#12" y="6.513"></use><use xlink:href="#13" y="8.684"></use><use xlink:href="#14" y="10.855"></use><use xlink:href="#15" y="13.026"></use><use xlink:href="#20" y="15.197"></use><use xlink:href="#22" y="17.368"></use><use xlink:href="#24" y="19.539"></use><use xlink:href="#27" y="21.71"></use><use xlink:href="#28" y="23.880999999999997"></use></svg><svg x="4680"><use xlink:href="#a"></use><use xlink:href="#b" x="1.996" y="2.146"></use><use xlink:href="#5" y="0"></use><use xlink:href="#6" y="2.171"></use><use xlink:href="#10" y="4.342"></use><use xlink:href="#11" y="6.513"></use><use xlink:href="#12" y="8.684"></use><use xlink:href="#13" y="10.855"></use><use xlink:href="#14" y="13.026"></use><use xlink:href="#15" y="15.197"></use><use xlink:href="#20" y="17.368"></use><use xlink:href="#22" y="19.539"></use><use xlink:href="#25" y="21.71"></use><use xlink:href="#26" y="23.880999999999997"></use></svg><svg x="4800"><use xlink:href="#a"></use><use xlink:href="#b" x="1.996" y="2.146"></use><use xlink:href="#5" y="0"></use><use xlink:href="#6" y="2.171"></use><use xlink:href="#9" y="4.342"></use><use xlink:href="#10" y="6.513"></use><use xlink:href="#11" y="8.684"></use><use xlink:href="#12" y="10.855"></use><use xlink:href="#13" y="13.026"></use><use xlink:href="#14" y="15.197"></use><use xlink:href="#15" y="17.368"></use><use xlink:href="#20" y="19.539"></use><use xlink:href="#23" y="21.71"></use><use xlink:href="#24" y="23.880999999999997"></use></svg><svg x="4920"><use xlink:href="#a"></use><use xlink:href="#b" x="1.996" y="2.146"></use><use xlink:href="#5" y="0"></use><use xlink:href="#6" y="2.171"></use><use xlink:href="#8" y="4.342"></use><use xlink:href="#9" y="6.513"></use><use xlink:href="#10" y="8.684"></use><use xlink:href="#11" y="10.855"></use><use xlink:href="#12" y="13.026"></use><use xlink:href="#13" y="15.197"></use><use xlink:href="#14" y="17.368"></use><use xlink:href="#15" y="19.539"></use><use xlink:href="#21" y="21.71"></use><use xlink:href="#22" y="23.880999999999997"></use></svg><svg x="5040"><use xlink:href="#a"></use><use xlink:href="#b" x="1.996" y="2.146"></use><use xlink:href="#5" y="0"></use><use xlink:href="#6" y="2.171"></use><use xlink:href="#7" y="4.342"></use><use xlink:href="#8" y="6.513"></use><use xlink:href="#9" y="8.684"></use><use xlink:href="#10" y="10.855"></use><use xlink:href="#11" y="13.026"></use><use xlink:href="#12" y="15.197"></use><use xlink:href="#13" y="17.368"></use><use xlink:href="#14" y="19.539"></use><use xlink:href="#19" y="21.71"></use><use xlink:href="#20" y="23.880999999999997"></use></svg><svg x="5160"><use xlink:href="#a"></use><use xlink:href="#b" x="1.996" y="2.146"></use><use xlink:href="#5" y="0"></use><use xlink:href="#6" y="2.171"></use><use xlink:href="#16" y="4.342"></use><use xlink:href="#7" y="6.513"></use><use xlink:href="#8" y="8.684"></use><use xlink:href="#9" y="10.855"></use><use xlink:href="#10" y="13.026"></use><use xlink:href="#11" y="15.197"></use><use xlink:href="#12" y="17.368"></use><use xlink:href="#13" y="19.539"></use><use xlink:href="#18" y="21.71"></use><use xlink:href="#15" y="23.880999999999997"></use></svg><svg x="5280"><use xlink:href="#a"></use><use xlink:href="#b" x="1.996" y="2.146"></use><use xlink:href="#5" y="0"></use><use xlink:href="#6" y="2.171"></use><use xlink:href="#16" y="4.342"></use><use xlink:href="#7" y="6.513"></use><use xlink:href="#8" y="8.684"></use><use xlink:href="#9" y="10.855"></use><use xlink:href="#10" y="13.026"></use><use xlink:href="#11" y="15.197"></use><use xlink:href="#12" y="17.368"></use><use xlink:href="#17" y="19.539"></use><use xlink:href="#14" y="21.71"></use><use xlink:href="#15" y="23.880999999999997"></use></svg><svg x="5400"><use xlink:href="#a"></use><use xlink:href="#b" x="1.996" y="2.146"></use><use xlink:href="#5" y="0"></use><use xlink:href="#6" y="2.171"></use><use xlink:href="#16" y="4.342"></use><use xlink:href="#7" y="6.513"></use><use xlink:href="#8" y="8.684"></use><use xlink:href="#9" y="10.855"></use><use xlink:href="#10" y="13.026"></use><use xlink:href="#11" y="15.197"></use><use xlink:href="#12" y="17.368"></use><use xlink:href="#13" y="19.539"></use><use xlink:href="#18" y="21.71"></use><use xlink:href="#15" y="23.880999999999997"></use></svg><svg x="5520"><use xlink:href="#a"></use><use xlink:href="#b" x="-0.0040000000000000036" y="2.146"></use><use xlink:href="#5" y="0"></use></svg><svg x="5640"><use xlink:href="#a"></use><use xlink:href="#b" x="15.996" y="2.146"></use><use xlink:href="#5" y="0"></use><use xlink:href="#1" y="2.171"></use></svg><svg x="5760"><use xlink:href="#a"></use><use xlink:href="#b" x="-0.0040000000000000036" y="6.4879999999999995"></use><use xlink:href="#5" y="0"></use><use xlink:href="#1" y="2.171"></use><text x="0" y="6.012" class="g">exit</text></svg></svg></g></g></svg></svg>