<?xml version="1.0" encoding="UTF-8" standalone="no"?>
<!DOCTYPE svg PUBLIC "-//W3C//DTD SVG 1.1//EN"
 "http://www.w3.org/Graphics/SVG/1.1/DTD/svg11.dtd">
<!-- Generated by graphviz version 2.28.0 (20120830.2015)
 -->
<!-- Title: G Pages: 1 -->
<svg width="394pt" height="404pt"
 viewBox="0.00 0.00 394.00 404.00" xmlns="http://www.w3.org/2000/svg" xmlns:xlink="http://www.w3.org/1999/xlink">
<g id="graph1" class="graph" transform="scale(1 1) rotate(0) translate(4 400)">
<title>G</title>
<polygon fill="white" stroke="white" points="-4,5 -4,-400 391,-400 391,5 -4,5"/>
<!-- Prague -->
<g id="node1" class="node"><title>Prague</title>
<ellipse fill="none" stroke="black" cx="89" cy="-378" rx="37.2809" ry="18"/>
<text text-anchor="middle" x="89" y="-372.4" font-family="Times,serif" font-size="14.00">Prague</text>
</g>
<!-- Helsinki -->
<g id="node3" class="node"><title>Helsinki</title>
<ellipse fill="none" stroke="black" cx="324" cy="-288" rx="43.1445" ry="18"/>
<text text-anchor="middle" x="324" y="-282.4" font-family="Times,serif" font-size="14.00">Helsinki</text>
</g>
<!-- Prague&#45;&#45;Helsinki -->
<g id="edge2" class="edge"><title>Prague&#45;&#45;Helsinki</title>
<path fill="none" stroke="black" d="M117.816,-366.209C162.183,-349.595 246.882,-317.878 292.703,-300.72"/>
<text text-anchor="middle" x="250.945" y="-327.4" font-family="Times,serif" font-size="14.00">1845km</text>
</g>
<!-- London -->
<g id="node5" class="node"><title>London</title>
<ellipse fill="none" stroke="black" cx="145" cy="-18" rx="41.1166" ry="18"/>
<text text-anchor="middle" x="145" y="-12.4" font-family="Times,serif" font-size="14.00">London</text>
</g>
<!-- Prague&#45;&#45;London -->
<g id="edge4" class="edge"><title>Prague&#45;&#45;London</title>
<path fill="none" stroke="black" d="M62.7784,-364.88C36.5256,-350.728 0,-324.636 0,-289 0,-289 0,-289 0,-107 0,-56.9402 63.942,-34.5599 106.903,-25.1726"/>
<text text-anchor="middle" x="22.9448" y="-192.4" font-family="Times,serif" font-size="14.00">1264km</text>
</g>
<!-- Tokyo -->
<g id="node7" class="node"><title>Tokyo</title>
<ellipse fill="none" stroke="black" cx="234" cy="-198" rx="35.362" ry="18"/>
<text text-anchor="middle" x="234" y="-192.4" font-family="Times,serif" font-size="14.00">Tokyo</text>
</g>
<!-- Helsinki&#45;&#45;Tokyo -->
<g id="edge6" class="edge"><title>Helsinki&#45;&#45;Tokyo</title>
<path fill="none" stroke="black" d="M307.91,-271.267C291.427,-255.151 265.97,-230.26 249.649,-214.302"/>
<text text-anchor="middle" x="310.945" y="-237.4" font-family="Times,serif" font-size="14.00">7815km</text>
</g>
<!-- London&#45;&#45;Tokyo -->
<g id="edge8" class="edge"><title>London&#45;&#45;Tokyo</title>
<path fill="none" stroke="black" d="M155.689,-35.4037C170.554,-58.7599 197.599,-103.29 215,-144 220.071,-155.864 224.964,-169.585 228.515,-180.093"/>
<text text-anchor="middle" x="229.945" y="-102.4" font-family="Times,serif" font-size="14.00">9566km</text>
</g>
<!-- New York -->
<g id="node13" class="node"><title>New York</title>
<ellipse fill="none" stroke="black" cx="336" cy="-108" rx="50.3244" ry="18"/>
<text text-anchor="middle" x="336" y="-102.4" font-family="Times,serif" font-size="14.00">New York</text>
</g>
<!-- Tokyo&#45;&#45;New York -->
<g id="edge18" class="edge"><title>Tokyo&#45;&#45;New York</title>
<path fill="none" stroke="black" d="M240.148,-179.948C244.953,-168.584 252.591,-153.961 263.11,-144 273.61,-134.059 287.46,-126.452 300.265,-120.909"/>
<text text-anchor="middle" x="290.445" y="-147.4" font-family="Times,serif" font-size="14.00">10838km</text>
</g>
<!-- Jakarta -->
<g id="node17" class="node"><title>Jakarta</title>
<ellipse fill="none" stroke="black" cx="141" cy="-108" rx="38.0718" ry="18"/>
<text text-anchor="middle" x="141" y="-102.4" font-family="Times,serif" font-size="14.00">Jakarta</text>
</g>
<!-- Tokyo&#45;&#45;Jakarta -->
<g id="edge22" class="edge"><title>Tokyo&#45;&#45;Jakarta</title>
<path fill="none" stroke="black" d="M206.393,-186.499C193.877,-180.71 179.573,-172.536 169.11,-162 158.982,-151.801 151.605,-137.197 146.956,-125.9"/>
<text text-anchor="middle" x="192.945" y="-147.4" font-family="Times,serif" font-size="14.00">5782km</text>
</g>
<!-- Beijing -->
<g id="node9" class="node"><title>Beijing</title>
<ellipse fill="none" stroke="black" cx="184" cy="-288" rx="39.2049" ry="18"/>
<text text-anchor="middle" x="184" y="-282.4" font-family="Times,serif" font-size="14.00">Beijing</text>
</g>
<!-- Beijing&#45;&#45;London -->
<g id="edge10" class="edge"><title>Beijing&#45;&#45;London</title>
<path fill="none" stroke="black" d="M166.032,-271.926C142.108,-250.467 101.174,-208.52 87.1104,-162 81.9244,-144.846 88.5146,-103.94 94,-90 102.281,-68.9572 118.199,-48.3575 130.059,-34.8137"/>
<text text-anchor="middle" x="110.945" y="-147.4" font-family="Times,serif" font-size="14.00">8132km</text>
</g>
<!-- Beijing&#45;&#45;Tokyo -->
<g id="edge12" class="edge"><title>Beijing&#45;&#45;Tokyo</title>
<path fill="none" stroke="black" d="M193.405,-270.448C202.344,-254.715 215.712,-231.186 224.638,-215.478"/>
<text text-anchor="middle" x="236.945" y="-237.4" font-family="Times,serif" font-size="14.00">1303km</text>
</g>
<!-- Beijing&#45;&#45;New York -->
<g id="edge14" class="edge"><title>Beijing&#45;&#45;New York</title>
<path fill="none" stroke="black" d="M216.598,-277.719C231.967,-272.132 249.784,-263.776 263,-252 302.334,-216.954 323.378,-155.712 331.699,-126.056"/>
<text text-anchor="middle" x="338.188" y="-192.4" font-family="Times,serif" font-size="14.00">11550km</text>
</g>
<!-- Beijing&#45;&#45;Jakarta -->
<g id="edge20" class="edge"><title>Beijing&#45;&#45;Jakarta</title>
<path fill="none" stroke="black" d="M171.516,-270.86C161.707,-257.122 148.786,-236.42 143.11,-216 134.552,-185.21 136.541,-147.492 138.768,-126.055"/>
<text text-anchor="middle" x="166.945" y="-192.4" font-family="Times,serif" font-size="14.00">4616km</text>
</g>
<!-- New York&#45;&#45;London -->
<g id="edge16" class="edge"><title>New York&#45;&#45;London</title>
<path fill="none" stroke="black" d="M310.527,-92.407C290.567,-81.2414 261.929,-65.8061 236,-54 216.435,-45.0919 193.887,-36.4085 176.13,-29.9192"/>
<text text-anchor="middle" x="295.945" y="-57.4" font-family="Times,serif" font-size="14.00">5567km</text>
</g>
</g>
</svg>
