<?xml version="1.0" encoding="UTF-8" standalone="no"?>
<!DOCTYPE svg PUBLIC "-//W3C//DTD SVG 1.1//EN"
 "http://www.w3.org/Graphics/SVG/1.1/DTD/svg11.dtd">
<!-- Generated by graphviz version 2.28.0 (20120830.2015)
 -->
<!-- Title: G Pages: 1 -->
<svg width="462pt" height="548pt"
 viewBox="0.00 0.00 461.83 548.00" xmlns="http://www.w3.org/2000/svg" xmlns:xlink="http://www.w3.org/1999/xlink">
<g id="graph1" class="graph" transform="scale(1 1) rotate(0) translate(4 544)">
<title>G</title>
<polygon fill="white" stroke="white" points="-4,5 -4,-544 458.832,-544 458.832,5 -4,5"/>
<!-- algebra -->
<g id="node1" class="node"><title>algebra</title>
<ellipse fill="none" stroke="black" cx="266" cy="-90" rx="42.3032" ry="18"/>
<text text-anchor="middle" x="266" y="-84.0493" font-family="Arial" font-size="14.00">algebra</text>
</g>
<!-- arithmetic -->
<g id="node3" class="node"><title>arithmetic</title>
<ellipse fill="none" stroke="black" cx="266" cy="-18" rx="51.4154" ry="18"/>
<text text-anchor="middle" x="266" y="-12.0493" font-family="Arial" font-size="14.00">arithmetic</text>
</g>
<!-- algebra&#45;&gt;arithmetic -->
<g id="edge2" class="edge"><title>algebra&#45;&gt;arithmetic</title>
<path fill="none" stroke="black" d="M266,-71.6966C266,-63.9827 266,-54.7125 266,-46.1124"/>
<polygon fill="black" stroke="black" points="269.5,-46.1043 266,-36.1043 262.5,-46.1044 269.5,-46.1043"/>
</g>
<!-- trigonometry -->
<g id="node4" class="node"><title>trigonometry</title>
<ellipse fill="none" stroke="black" cx="201" cy="-162" rx="63.2038" ry="18"/>
<text text-anchor="middle" x="201" y="-156.049" font-family="Arial" font-size="14.00">trigonometry</text>
</g>
<!-- trigonometry&#45;&gt;algebra -->
<g id="edge4" class="edge"><title>trigonometry&#45;&gt;algebra</title>
<path fill="none" stroke="black" d="M216.404,-144.411C224.698,-135.479 235.07,-124.31 244.181,-114.498"/>
<polygon fill="black" stroke="black" points="246.914,-116.698 251.154,-106.988 241.785,-111.934 246.914,-116.698"/>
</g>
<!-- calculus -->
<g id="node6" class="node"><title>calculus</title>
<ellipse fill="none" stroke="black" cx="308" cy="-234" rx="44.2182" ry="18"/>
<text text-anchor="middle" x="308" y="-228.049" font-family="Arial" font-size="14.00">calculus</text>
</g>
<!-- calculus&#45;&gt;algebra -->
<g id="edge6" class="edge"><title>calculus&#45;&gt;algebra</title>
<path fill="none" stroke="black" d="M340.343,-221.48C358.756,-213.06 380.238,-199.642 391,-180 398.688,-165.968 399.834,-157.34 391,-144 374.252,-118.707 342.752,-105.45 315.566,-98.5199"/>
<polygon fill="black" stroke="black" points="316.313,-95.1004 305.78,-96.2424 314.726,-101.918 316.313,-95.1004"/>
</g>
<!-- calculus&#45;&gt;trigonometry -->
<g id="edge8" class="edge"><title>calculus&#45;&gt;trigonometry</title>
<path fill="none" stroke="black" d="M285.569,-218.326C270.54,-208.494 250.505,-195.386 233.708,-184.398"/>
<polygon fill="black" stroke="black" points="235.548,-181.419 225.263,-178.873 231.715,-187.277 235.548,-181.419"/>
</g>
<!-- geometry -->
<g id="node9" class="node"><title>geometry</title>
<ellipse fill="none" stroke="black" cx="332" cy="-162" rx="50.0694" ry="18"/>
<text text-anchor="middle" x="332" y="-156.049" font-family="Arial" font-size="14.00">geometry</text>
</g>
<!-- geometry&#45;&gt;algebra -->
<g id="edge10" class="edge"><title>geometry&#45;&gt;algebra</title>
<path fill="none" stroke="black" d="M316.692,-144.765C308.196,-135.753 297.477,-124.385 288.087,-114.426"/>
<polygon fill="black" stroke="black" points="290.631,-112.022 281.225,-107.147 285.538,-116.824 290.631,-112.022"/>
</g>
<!-- mechanics -->
<g id="node11" class="node"><title>mechanics</title>
<ellipse fill="none" stroke="black" cx="224" cy="-306" rx="55.2119" ry="18"/>
<text text-anchor="middle" x="224" y="-300.049" font-family="Arial" font-size="14.00">mechanics</text>
</g>
<!-- mechanics&#45;&gt;trigonometry -->
<g id="edge14" class="edge"><title>mechanics&#45;&gt;trigonometry</title>
<path fill="none" stroke="black" d="M221.226,-287.871C217.306,-263.67 210.105,-219.211 205.437,-190.393"/>
<polygon fill="black" stroke="black" points="208.838,-189.501 203.784,-180.189 201.928,-190.62 208.838,-189.501"/>
</g>
<!-- mechanics&#45;&gt;calculus -->
<g id="edge12" class="edge"><title>mechanics&#45;&gt;calculus</title>
<path fill="none" stroke="black" d="M243.482,-288.765C254.853,-279.289 269.35,-267.209 281.72,-256.9"/>
<polygon fill="black" stroke="black" points="284.046,-259.517 289.488,-250.427 279.565,-254.14 284.046,-259.517"/>
</g>
<!-- atomic_physics -->
<g id="node14" class="node"><title>atomic_physics</title>
<ellipse fill="none" stroke="black" cx="224" cy="-378" rx="75.2715" ry="18"/>
<text text-anchor="middle" x="224" y="-372.049" font-family="Arial" font-size="14.00">atomic_physics</text>
</g>
<!-- atomic_physics&#45;&gt;calculus -->
<g id="edge18" class="edge"><title>atomic_physics&#45;&gt;calculus</title>
<path fill="none" stroke="black" d="M250.686,-360.971C263.833,-351.744 278.799,-339.004 288,-324 299.419,-305.379 304.339,-280.987 306.448,-262.449"/>
<polygon fill="black" stroke="black" points="309.951,-262.58 307.393,-252.298 302.981,-261.931 309.951,-262.58"/>
</g>
<!-- atomic_physics&#45;&gt;mechanics -->
<g id="edge16" class="edge"><title>atomic_physics&#45;&gt;mechanics</title>
<path fill="none" stroke="black" d="M224,-359.697C224,-351.983 224,-342.712 224,-334.112"/>
<polygon fill="black" stroke="black" points="227.5,-334.104 224,-324.104 220.5,-334.104 227.5,-334.104"/>
</g>
<!-- electromagnetism -->
<g id="node17" class="node"><title>electromagnetism</title>
<ellipse fill="none" stroke="black" cx="355" cy="-450" rx="85.1989" ry="18"/>
<text text-anchor="middle" x="355" y="-444.049" font-family="Arial" font-size="14.00">electromagnetism</text>
</g>
<!-- electromagnetism&#45;&gt;calculus -->
<g id="edge20" class="edge"><title>electromagnetism&#45;&gt;calculus</title>
<path fill="none" stroke="black" d="M351.233,-431.849C343.086,-394.753 323.771,-306.81 313.952,-262.103"/>
<polygon fill="black" stroke="black" points="317.348,-261.249 311.785,-252.232 310.511,-262.75 317.348,-261.249"/>
</g>
<!-- electromagnetism&#45;&gt;atomic_physics -->
<g id="edge22" class="edge"><title>electromagnetism&#45;&gt;atomic_physics</title>
<path fill="none" stroke="black" d="M325.274,-433.116C306.682,-423.181 282.544,-410.283 262.497,-399.571"/>
<polygon fill="black" stroke="black" points="264.078,-396.447 253.608,-394.821 260.779,-402.621 264.078,-396.447"/>
</g>
<!-- radioactivity -->
<g id="node20" class="node"><title>radioactivity</title>
<ellipse fill="none" stroke="black" cx="191" cy="-450" rx="60.2767" ry="18"/>
<text text-anchor="middle" x="191" y="-444.049" font-family="Arial" font-size="14.00">radioactivity</text>
</g>
<!-- radioactivity&#45;&gt;algebra -->
<g id="edge24" class="edge"><title>radioactivity&#45;&gt;algebra</title>
<path fill="none" stroke="black" d="M172.125,-432.732C146,-408.298 102,-359.371 102,-307 102,-307 102,-307 102,-233 102,-191.664 100.881,-174.298 129,-144 151.89,-119.336 187.577,-106.017 216.79,-98.9001"/>
<polygon fill="black" stroke="black" points="217.839,-102.251 226.822,-96.633 216.296,-95.4236 217.839,-102.251"/>
</g>
<!-- radioactivity&#45;&gt;atomic_physics -->
<g id="edge26" class="edge"><title>radioactivity&#45;&gt;atomic_physics</title>
<path fill="none" stroke="black" d="M198.988,-432.055C202.743,-424.091 207.306,-414.411 211.503,-405.51"/>
<polygon fill="black" stroke="black" points="214.758,-406.813 215.856,-396.275 208.426,-403.828 214.758,-406.813"/>
</g>
<!-- astrophysics -->
<g id="node23" class="node"><title>astrophysics</title>
<ellipse fill="none" stroke="black" cx="377" cy="-522" rx="63.2038" ry="18"/>
<text text-anchor="middle" x="377" y="-516.049" font-family="Arial" font-size="14.00">astrophysics</text>
</g>
<!-- astrophysics&#45;&gt;calculus -->
<g id="edge30" class="edge"><title>astrophysics&#45;&gt;calculus</title>
<path fill="none" stroke="black" d="M408.88,-506.311C423.977,-497.517 440.526,-484.76 449,-468 456.219,-453.721 453.89,-447.234 449,-432 425.935,-360.145 365.935,-292.238 332.106,-258.044"/>
<polygon fill="black" stroke="black" points="334.464,-255.452 324.907,-250.878 329.525,-260.413 334.464,-255.452"/>
</g>
<!-- astrophysics&#45;&gt;radioactivity -->
<g id="edge28" class="edge"><title>astrophysics&#45;&gt;radioactivity</title>
<path fill="none" stroke="black" d="M340.252,-507.17C310.509,-495.977 268.47,-480.155 236.583,-468.155"/>
<polygon fill="black" stroke="black" points="237.63,-464.809 227.038,-464.563 235.165,-471.361 237.63,-464.809"/>
</g>
<!-- quantumn_mechanics -->
<g id="node26" class="node"><title>quantumn_mechanics</title>
<ellipse fill="none" stroke="black" cx="102" cy="-522" rx="102.435" ry="18"/>
<text text-anchor="middle" x="102" y="-516.049" font-family="Arial" font-size="14.00">quantumn_mechanics</text>
</g>
<!-- quantumn_mechanics&#45;&gt;calculus -->
<g id="edge36" class="edge"><title>quantumn_mechanics&#45;&gt;calculus</title>
<path fill="none" stroke="black" d="M100.554,-503.687C97.9759,-460.482 97.7317,-347.151 159,-288 185.29,-262.619 224.518,-249.303 256.125,-242.368"/>
<polygon fill="black" stroke="black" points="256.995,-245.763 266.093,-240.333 255.595,-238.904 256.995,-245.763"/>
</g>
<!-- quantumn_mechanics&#45;&gt;atomic_physics -->
<g id="edge32" class="edge"><title>quantumn_mechanics&#45;&gt;atomic_physics</title>
<path fill="none" stroke="black" d="M101.48,-503.808C101.769,-484.446 104.97,-452.958 121,-432 133.173,-416.085 151.472,-404.53 169.285,-396.352"/>
<polygon fill="black" stroke="black" points="170.718,-399.546 178.521,-392.378 167.951,-393.116 170.718,-399.546"/>
</g>
<!-- quantumn_mechanics&#45;&gt;radioactivity -->
<g id="edge34" class="edge"><title>quantumn_mechanics&#45;&gt;radioactivity</title>
<path fill="none" stroke="black" d="M123.544,-504.055C135.276,-494.828 149.939,-483.295 162.595,-473.341"/>
<polygon fill="black" stroke="black" points="164.875,-476.001 170.571,-467.068 160.547,-470.499 164.875,-476.001"/>
</g>
</g>
</svg>
