<svg xmlns="http://www.w3.org/2000/svg" xmlns:xlink="http://www.w3.org/1999/xlink" width="840" height="537.6199999999999"><rect width="840" height="537.6199999999999" rx="5" ry="5" class="a"></rect><svg y="0%" x="0%"><circle cx="20" cy="20" r="6" class="b"></circle><circle cx="40" cy="20" r="6" class="c"></circle><circle cx="60" cy="20" r="6" class="d"></circle></svg><svg height="477.61999999999995" viewBox="0 0 80 47.76199999999999" width="800" x="15" xmlns="http://www.w3.org/2000/svg" xmlns:xlink="http://www.w3.org/1999/xlink" y="50"><style>.a{fill:rgb(40,45,53)}.b{fill:#ff5f58}.c{fill:#ffbd2e}.d{fill:#18c132}.e{font-family:Monaco,Consolas,Menlo,'Bitstream Vera Sans Mono','Powerline Symbols',monospace}.f{fill:rgb(168,204,140);font-weight:bold;white-space:pre}.g{fill:rgb(185,192,203);white-space:pre}.h{fill:rgb(113,190,242);font-weight:bold;white-space:pre}.i{fill:rgb(210,144,228);font-weight:bold;white-space:pre}.j{fill:rgb(232,131,136);font-weight:bold;white-space:pre}.k{fill:transparent}.l{fill:rgb(111,118,131)}.n{animation-duration:33.920425s;animation-iteration-count:infinite;animation-name:m;animation-timing-function:steps(1,end)}@keyframes m{0%{transform:translateX(-0px)}0.03%{transform:translateX(-80px)}8.75%{transform:translateX(-160px)}9.13%{transform:translateX(-240px)}9.65%{transform:translateX(-320px)}9.65%{transform:translateX(-400px)}9.65%{transform:translateX(-480px)}19.97%{transform:translateX(-560px)}20.63%{transform:translateX(-640px)}21.12%{transform:translateX(-720px)}22.43%{transform:translateX(-800px)}23.13%{transform:translateX(-880px)}23.59%{transform:translateX(-960px)}24.77%{transform:translateX(-1040px)}26.75%{transform:translateX(-1120px)}26.75%{transform:translateX(-1200px)}29.78%{transform:translateX(-1280px)}30.16%{transform:translateX(-1360px)}30.81%{transform:translateX(-1440px)}30.81%{transform:translateX(-1520px)}30.81%{transform:translateX(-1600px)}38.37%{transform:translateX(-1680px)}38.97%{transform:translateX(-1760px)}39.32%{transform:translateX(-1840px)}42.06%{transform:translateX(-1920px)}43.16%{transform:translateX(-2000px)}43.9%{transform:translateX(-2080px)}44.63%{transform:translateX(-2160px)}45.02%{transform:translateX(-2240px)}48.38%{transform:translateX(-2320px)}51.09%{transform:translateX(-2400px)}51.84%{transform:translateX(-2480px)}52.69%{transform:translateX(-2560px)}56.33%{transform:translateX(-2640px)}57.32%{transform:translateX(-2720px)}61.69%{transform:translateX(-2800px)}61.69%{transform:translateX(-2880px)}64.37%{transform:translateX(-2960px)}65.03%{transform:translateX(-3040px)}65.39%{transform:translateX(-3120px)}68.06%{transform:translateX(-3200px)}68.47%{transform:translateX(-3280px)}69.27%{transform:translateX(-3360px)}71.52%{transform:translateX(-3440px)}72.1%{transform:translateX(-3520px)}72.54%{transform:translateX(-3600px)}73.93%{transform:translateX(-3680px)}75.61%{transform:translateX(-3760px)}77.67%{transform:translateX(-3840px)}77.67%{transform:translateX(-3920px)}98%{transform:translateX(-4000px)}98.67%{transform:translateX(-4080px)}99.04%{transform:translateX(-4160px)}99.56%{transform:translateX(-4240px)}100%{transform:translateX(-4320px)}100%{transform:translateX(-4400px)}}</style><g font-family="Monaco, Consolas, Menlo, &#x27;Bitstream Vera Sans Mono&#x27;, &#x27;Powerline Symbols&#x27;, monospace" font-size="1.67" class="e"><defs><symbol id="1"><text x="0" y="1.67" class="f">abhishek@ituxedo</text><text x="16.032" y="1.67" class="g">:</text><text x="17.034" y="1.67" class="h">~</text><text x="18.035999999999998" y="1.67" class="g">$</text></symbol><symbol id="2"><text x="0" y="1.67" class="f">abhishek@ituxedo</text><text x="16.032" y="1.67" class="g">:</text><text x="17.034" y="1.67" class="h">~</text><text x="18.035999999999998" y="1.67" class="g">$</text><text x="20.04" y="1.67" class="g">ls</text></symbol><symbol id="3"><text x="0" y="1.67" class="h">Desktop</text><text x="11.021999999999998" y="1.67" class="h">Downloads</text><text x="22.043999999999997" y="1.67" class="h">Pictures</text><text x="32.064" y="1.67" class="h">Templates</text><text x="43.086" y="1.67" class="h">VirtualBoxVMs</text></symbol><symbol id="4"><text x="0" y="1.67" class="h">Documents</text><text x="11.021999999999998" y="1.67" class="h">Music</text><text x="22.043999999999997" y="1.67" class="h">Public</text><text x="32.064" y="1.67" class="h">Videos</text></symbol><symbol id="5"><text x="0" y="1.67" class="f">abhishek@ituxedo</text><text x="16.032" y="1.67" class="g">:</text><text x="17.034" y="1.67" class="h">~</text><text x="18.035999999999998" y="1.67" class="g">$</text><text x="20.04" y="1.67" class="g">cd</text></symbol><symbol id="6"><text x="0" y="1.67" class="f">abhishek@ituxedo</text><text x="16.032" y="1.67" class="g">:</text><text x="17.034" y="1.67" class="h">~</text><text x="18.035999999999998" y="1.67" class="g">$</text><text x="20.04" y="1.67" class="g">cd</text><text x="23.045999999999996" y="1.67" class="g">Documents/</text></symbol><symbol id="7"><text x="0" y="1.67" class="f">abhishek@ituxedo</text><text x="16.032" y="1.67" class="g">:</text><text x="17.034" y="1.67" class="h">~/Documents</text><text x="28.055999999999997" y="1.67" class="g">$</text></symbol><symbol id="8"><text x="0" y="1.67" class="f">abhishek@ituxedo</text><text x="16.032" y="1.67" class="g">:</text><text x="17.034" y="1.67" class="h">~/Documents</text><text x="28.055999999999997" y="1.67" class="g">$</text><text x="30.059999999999995" y="1.67" class="g">ls</text></symbol><symbol id="9"><text x="0" y="1.67" class="i">chmod-command.png</text><text x="37.074" y="1.67" class="j">Downloads.zip</text></symbol><symbol id="10"><text x="0" y="1.67" class="g">code-block-example.md</text><text x="37.074" y="1.67" class="i">log4j-ubuntu.png</text></symbol><symbol id="11"><text x="0" y="1.67" class="i">delete-ufw-firewall-rule-ubuntu.png</text><text x="37.074" y="1.67" class="h">some</text></symbol><symbol id="12"><text x="0" y="1.67" class="f">abhishek@ituxedo</text><text x="16.032" y="1.67" class="g">:</text><text x="17.034" y="1.67" class="h">~/Documents</text><text x="28.055999999999997" y="1.67" class="g">$</text><text x="30.059999999999995" y="1.67" class="g">cd</text></symbol><symbol id="13"><text x="0" y="1.67" class="f">abhishek@ituxedo</text><text x="16.032" y="1.67" class="g">:</text><text x="17.034" y="1.67" class="h">~/Documents</text><text x="28.055999999999997" y="1.67" class="g">$</text><text x="30.059999999999995" y="1.67" class="g">cd</text><text x="33.065999999999995" y="1.67" class="g">/home/abhishek/Templates/</text></symbol><symbol id="14"><text x="0" y="1.67" class="f">abhishek@ituxedo</text><text x="16.032" y="1.67" class="g">:</text><text x="17.034" y="1.67" class="h">~/Templates</text><text x="28.055999999999997" y="1.67" class="g">$</text><text x="30.059999999999995" y="1.67" class="g">cd</text></symbol><symbol id="15"><text x="0" y="1.67" class="f">abhishek@ituxedo</text><text x="16.032" y="1.67" class="g">:</text><text x="17.034" y="1.67" class="h">~/Templates</text><text x="28.055999999999997" y="1.67" class="g">$</text><text x="30.059999999999995" y="1.67" class="g">cd</text><text x="33.065999999999995" y="1.67" class="g">../Downloads/</text></symbol><symbol id="16"><text x="0" y="1.67" class="f">abhishek@ituxedo</text><text x="16.032" y="1.67" class="g">:</text><text x="17.034" y="1.67" class="h">~/Downloads</text><text x="28.055999999999997" y="1.67" class="g">$</text><text x="30.059999999999995" y="1.67" class="g">exit</text></symbol><symbol id="a"><rect height="23" width="80" x="0" y="0" class="k"></rect></symbol><symbol id="b"><rect height="2.171" width="1.1022" class="l"></rect></symbol></defs><rect height="47.76199999999999" width="80" class="a"></rect><g class="n"><svg x="0" y="0" width="4480"><svg x="0"><use xlink:href="#a"></use><use xlink:href="#b" x="-0.0040000000000000036" y="0"></use></svg><svg x="80"><use xlink:href="#a"></use><use xlink:href="#b" x="19.996" y="0"></use><use xlink:href="#1" y="0"></use></svg><svg x="160"><use xlink:href="#a"></use><use xlink:href="#b" x="20.996" y="0"></use><text x="0" y="1.67" class="f">abhishek@ituxedo</text><text x="16.032" y="1.67" class="g">:</text><text x="17.034" y="1.67" class="h">~</text><text x="18.035999999999998" y="1.67" class="g">$</text><text x="20.04" y="1.67" class="g">l</text></svg><svg x="240"><use xlink:href="#a"></use><use xlink:href="#b" x="21.996" y="0"></use><use xlink:href="#2" y="0"></use></svg><svg x="320"><use xlink:href="#a"></use><use xlink:href="#b" x="-0.0040000000000000036" y="2.146"></use><use xlink:href="#2" y="0"></use></svg><svg x="400"><use xlink:href="#a"></use><use xlink:href="#b" x="-0.0040000000000000036" y="6.4879999999999995"></use><use xlink:href="#2" y="0"></use><use xlink:href="#3" y="2.171"></use><use xlink:href="#4" y="4.342"></use></svg><svg x="480"><use xlink:href="#a"></use><use xlink:href="#b" x="19.996" y="6.4879999999999995"></use><use xlink:href="#2" y="0"></use><use xlink:href="#3" y="2.171"></use><use xlink:href="#4" y="4.342"></use><use xlink:href="#1" y="6.513"></use></svg><svg x="560"><use xlink:href="#a"></use><use xlink:href="#b" x="20.996" y="6.4879999999999995"></use><use xlink:href="#2" y="0"></use><use xlink:href="#3" y="2.171"></use><use xlink:href="#4" y="4.342"></use><text x="0" y="8.183" class="f">abhishek@ituxedo</text><text x="16.032" y="8.183" class="g">:</text><text x="17.034" y="8.183" class="h">~</text><text x="18.035999999999998" y="8.183" class="g">$</text><text x="20.04" y="8.183" class="g">c</text></svg><svg x="640"><use xlink:href="#a"></use><use xlink:href="#b" x="21.996" y="6.4879999999999995"></use><use xlink:href="#2" y="0"></use><use xlink:href="#3" y="2.171"></use><use xlink:href="#4" y="4.342"></use><use xlink:href="#5" y="6.513"></use></svg><svg x="720"><use xlink:href="#a"></use><use xlink:href="#b" x="22.996" y="6.4879999999999995"></use><use xlink:href="#2" y="0"></use><use xlink:href="#3" y="2.171"></use><use xlink:href="#4" y="4.342"></use><use xlink:href="#5" y="6.513"></use></svg><svg x="800"><use xlink:href="#a"></use><use xlink:href="#b" x="23.996" y="6.4879999999999995"></use><use xlink:href="#2" y="0"></use><use xlink:href="#3" y="2.171"></use><use xlink:href="#4" y="4.342"></use><text x="0" y="8.183" class="f">abhishek@ituxedo</text><text x="16.032" y="8.183" class="g">:</text><text x="17.034" y="8.183" class="h">~</text><text x="18.035999999999998" y="8.183" class="g">$</text><text x="20.04" y="8.183" class="g">cd</text><text x="23.045999999999996" y="8.183" class="g">D</text></svg><svg x="880"><use xlink:href="#a"></use><use xlink:href="#b" x="24.996" y="6.4879999999999995"></use><use xlink:href="#2" y="0"></use><use xlink:href="#3" y="2.171"></use><use xlink:href="#4" y="4.342"></use><text x="0" y="8.183" class="f">abhishek@ituxedo</text><text x="16.032" y="8.183" class="g">:</text><text x="17.034" y="8.183" class="h">~</text><text x="18.035999999999998" y="8.183" class="g">$</text><text x="20.04" y="8.183" class="g">cd</text><text x="23.045999999999996" y="8.183" class="g">Do</text></svg><svg x="960"><use xlink:href="#a"></use><use xlink:href="#b" x="25.996" y="6.4879999999999995"></use><use xlink:href="#2" y="0"></use><use xlink:href="#3" y="2.171"></use><use xlink:href="#4" y="4.342"></use><text x="0" y="8.183" class="f">abhishek@ituxedo</text><text x="16.032" y="8.183" class="g">:</text><text x="17.034" y="8.183" class="h">~</text><text x="18.035999999999998" y="8.183" class="g">$</text><text x="20.04" y="8.183" class="g">cd</text><text x="23.045999999999996" y="8.183" class="g">Doc</text></svg><svg x="1040"><use xlink:href="#a"></use><use xlink:href="#b" x="32.996" y="6.4879999999999995"></use><use xlink:href="#2" y="0"></use><use xlink:href="#3" y="2.171"></use><use xlink:href="#4" y="4.342"></use><use xlink:href="#6" y="6.513"></use></svg><svg x="1120"><use xlink:href="#a"></use><use xlink:href="#b" x="-0.0040000000000000036" y="8.658999999999999"></use><use xlink:href="#2" y="0"></use><use xlink:href="#3" y="2.171"></use><use xlink:href="#4" y="4.342"></use><use xlink:href="#6" y="6.513"></use></svg><svg x="1200"><use xlink:href="#a"></use><use xlink:href="#b" x="29.996" y="8.658999999999999"></use><use xlink:href="#2" y="0"></use><use xlink:href="#3" y="2.171"></use><use xlink:href="#4" y="4.342"></use><use xlink:href="#6" y="6.513"></use><use xlink:href="#7" y="8.684"></use></svg><svg x="1280"><use xlink:href="#a"></use><use xlink:href="#b" x="30.996" y="8.658999999999999"></use><use xlink:href="#2" y="0"></use><use xlink:href="#3" y="2.171"></use><use xlink:href="#4" y="4.342"></use><use xlink:href="#6" y="6.513"></use><text x="0" y="10.354" class="f">abhishek@ituxedo</text><text x="16.032" y="10.354" class="g">:</text><text x="17.034" y="10.354" class="h">~/Documents</text><text x="28.055999999999997" y="10.354" class="g">$</text><text x="30.059999999999995" y="10.354" class="g">l</text></svg><svg x="1360"><use xlink:href="#a"></use><use xlink:href="#b" x="31.996" y="8.658999999999999"></use><use xlink:href="#2" y="0"></use><use xlink:href="#3" y="2.171"></use><use xlink:href="#4" y="4.342"></use><use xlink:href="#6" y="6.513"></use><use xlink:href="#8" y="8.684"></use></svg><svg x="1440"><use xlink:href="#a"></use><use xlink:href="#b" x="-0.0040000000000000036" y="10.83"></use><use xlink:href="#2" y="0"></use><use xlink:href="#3" y="2.171"></use><use xlink:href="#4" y="4.342"></use><use xlink:href="#6" y="6.513"></use><use xlink:href="#8" y="8.684"></use></svg><svg x="1520"><use xlink:href="#a"></use><use xlink:href="#b" x="-0.0040000000000000036" y="17.343"></use><use xlink:href="#2" y="0"></use><use xlink:href="#3" y="2.171"></use><use xlink:href="#4" y="4.342"></use><use xlink:href="#6" y="6.513"></use><use xlink:href="#8" y="8.684"></use><use xlink:href="#9" y="10.855"></use><use xlink:href="#10" y="13.026"></use><use xlink:href="#11" y="15.197"></use></svg><svg x="1600"><use xlink:href="#a"></use><use xlink:href="#b" x="29.996" y="17.343"></use><use xlink:href="#2" y="0"></use><use xlink:href="#3" y="2.171"></use><use xlink:href="#4" y="4.342"></use><use xlink:href="#6" y="6.513"></use><use xlink:href="#8" y="8.684"></use><use xlink:href="#9" y="10.855"></use><use xlink:href="#10" y="13.026"></use><use xlink:href="#11" y="15.197"></use><use xlink:href="#7" y="17.368"></use></svg><svg x="1680"><use xlink:href="#a"></use><use xlink:href="#b" x="30.996" y="17.343"></use><use xlink:href="#2" y="0"></use><use xlink:href="#3" y="2.171"></use><use xlink:href="#4" y="4.342"></use><use xlink:href="#6" y="6.513"></use><use xlink:href="#8" y="8.684"></use><use xlink:href="#9" y="10.855"></use><use xlink:href="#10" y="13.026"></use><use xlink:href="#11" y="15.197"></use><text x="0" y="19.037999999999997" class="f">abhishek@ituxedo</text><text x="16.032" y="19.037999999999997" class="g">:</text><text x="17.034" y="19.037999999999997" class="h">~/Documents</text><text x="28.055999999999997" y="19.037999999999997" class="g">$</text><text x="30.059999999999995" y="19.037999999999997" class="g">c</text></svg><svg x="1760"><use xlink:href="#a"></use><use xlink:href="#b" x="31.996" y="17.343"></use><use xlink:href="#2" y="0"></use><use xlink:href="#3" y="2.171"></use><use xlink:href="#4" y="4.342"></use><use xlink:href="#6" y="6.513"></use><use xlink:href="#8" y="8.684"></use><use xlink:href="#9" y="10.855"></use><use xlink:href="#10" y="13.026"></use><use xlink:href="#11" y="15.197"></use><use xlink:href="#12" y="17.368"></use></svg><svg x="1840"><use xlink:href="#a"></use><use xlink:href="#b" x="32.996" y="17.343"></use><use xlink:href="#2" y="0"></use><use xlink:href="#3" y="2.171"></use><use xlink:href="#4" y="4.342"></use><use xlink:href="#6" y="6.513"></use><use xlink:href="#8" y="8.684"></use><use xlink:href="#9" y="10.855"></use><use xlink:href="#10" y="13.026"></use><use xlink:href="#11" y="15.197"></use><use xlink:href="#12" y="17.368"></use></svg><svg x="1920"><use xlink:href="#a"></use><use xlink:href="#b" x="33.996" y="17.343"></use><use xlink:href="#2" y="0"></use><use xlink:href="#3" y="2.171"></use><use xlink:href="#4" y="4.342"></use><use xlink:href="#6" y="6.513"></use><use xlink:href="#8" y="8.684"></use><use xlink:href="#9" y="10.855"></use><use xlink:href="#10" y="13.026"></use><use xlink:href="#11" y="15.197"></use><text x="0" y="19.037999999999997" class="f">abhishek@ituxedo</text><text x="16.032" y="19.037999999999997" class="g">:</text><text x="17.034" y="19.037999999999997" class="h">~/Documents</text><text x="28.055999999999997" y="19.037999999999997" class="g">$</text><text x="30.059999999999995" y="19.037999999999997" class="g">cd</text><text x="33.065999999999995" y="19.037999999999997" class="g">/</text></svg><svg x="2000"><use xlink:href="#a"></use><use xlink:href="#b" x="34.996" y="17.343"></use><use xlink:href="#2" y="0"></use><use xlink:href="#3" y="2.171"></use><use xlink:href="#4" y="4.342"></use><use xlink:href="#6" y="6.513"></use><use xlink:href="#8" y="8.684"></use><use xlink:href="#9" y="10.855"></use><use xlink:href="#10" y="13.026"></use><use xlink:href="#11" y="15.197"></use><text x="0" y="19.037999999999997" class="f">abhishek@ituxedo</text><text x="16.032" y="19.037999999999997" class="g">:</text><text x="17.034" y="19.037999999999997" class="h">~/Documents</text><text x="28.055999999999997" y="19.037999999999997" class="g">$</text><text x="30.059999999999995" y="19.037999999999997" class="g">cd</text><text x="33.065999999999995" y="19.037999999999997" class="g">/h</text></svg><svg x="2080"><use xlink:href="#a"></use><use xlink:href="#b" x="35.996" y="17.343"></use><use xlink:href="#2" y="0"></use><use xlink:href="#3" y="2.171"></use><use xlink:href="#4" y="4.342"></use><use xlink:href="#6" y="6.513"></use><use xlink:href="#8" y="8.684"></use><use xlink:href="#9" y="10.855"></use><use xlink:href="#10" y="13.026"></use><use xlink:href="#11" y="15.197"></use><text x="0" y="19.037999999999997" class="f">abhishek@ituxedo</text><text x="16.032" y="19.037999999999997" class="g">:</text><text x="17.034" y="19.037999999999997" class="h">~/Documents</text><text x="28.055999999999997" y="19.037999999999997" class="g">$</text><text x="30.059999999999995" y="19.037999999999997" class="g">cd</text><text x="33.065999999999995" y="19.037999999999997" class="g">/ho</text></svg><svg x="2160"><use xlink:href="#a"></use><use xlink:href="#b" x="36.996" y="17.343"></use><use xlink:href="#2" y="0"></use><use xlink:href="#3" y="2.171"></use><use xlink:href="#4" y="4.342"></use><use xlink:href="#6" y="6.513"></use><use xlink:href="#8" y="8.684"></use><use xlink:href="#9" y="10.855"></use><use xlink:href="#10" y="13.026"></use><use xlink:href="#11" y="15.197"></use><text x="0" y="19.037999999999997" class="f">abhishek@ituxedo</text><text x="16.032" y="19.037999999999997" class="g">:</text><text x="17.034" y="19.037999999999997" class="h">~/Documents</text><text x="28.055999999999997" y="19.037999999999997" class="g">$</text><text x="30.059999999999995" y="19.037999999999997" class="g">cd</text><text x="33.065999999999995" y="19.037999999999997" class="g">/hom</text></svg><svg x="2240"><use xlink:href="#a"></use><use xlink:href="#b" x="37.996" y="17.343"></use><use xlink:href="#2" y="0"></use><use xlink:href="#3" y="2.171"></use><use xlink:href="#4" y="4.342"></use><use xlink:href="#6" y="6.513"></use><use xlink:href="#8" y="8.684"></use><use xlink:href="#9" y="10.855"></use><use xlink:href="#10" y="13.026"></use><use xlink:href="#11" y="15.197"></use><text x="0" y="19.037999999999997" class="f">abhishek@ituxedo</text><text x="16.032" y="19.037999999999997" class="g">:</text><text x="17.034" y="19.037999999999997" class="h">~/Documents</text><text x="28.055999999999997" y="19.037999999999997" class="g">$</text><text x="30.059999999999995" y="19.037999999999997" class="g">cd</text><text x="33.065999999999995" y="19.037999999999997" class="g">/home</text></svg><svg x="2320"><use xlink:href="#a"></use><use xlink:href="#b" x="38.996" y="17.343"></use><use xlink:href="#2" y="0"></use><use xlink:href="#3" y="2.171"></use><use xlink:href="#4" y="4.342"></use><use xlink:href="#6" y="6.513"></use><use xlink:href="#8" y="8.684"></use><use xlink:href="#9" y="10.855"></use><use xlink:href="#10" y="13.026"></use><use xlink:href="#11" y="15.197"></use><text x="0" y="19.037999999999997" class="f">abhishek@ituxedo</text><text x="16.032" y="19.037999999999997" class="g">:</text><text x="17.034" y="19.037999999999997" class="h">~/Documents</text><text x="28.055999999999997" y="19.037999999999997" class="g">$</text><text x="30.059999999999995" y="19.037999999999997" class="g">cd</text><text x="33.065999999999995" y="19.037999999999997" class="g">/home/</text></svg><svg x="2400"><use xlink:href="#a"></use><use xlink:href="#b" x="39.996" y="17.343"></use><use xlink:href="#2" y="0"></use><use xlink:href="#3" y="2.171"></use><use xlink:href="#4" y="4.342"></use><use xlink:href="#6" y="6.513"></use><use xlink:href="#8" y="8.684"></use><use xlink:href="#9" y="10.855"></use><use xlink:href="#10" y="13.026"></use><use xlink:href="#11" y="15.197"></use><text x="0" y="19.037999999999997" class="f">abhishek@ituxedo</text><text x="16.032" y="19.037999999999997" class="g">:</text><text x="17.034" y="19.037999999999997" class="h">~/Documents</text><text x="28.055999999999997" y="19.037999999999997" class="g">$</text><text x="30.059999999999995" y="19.037999999999997" class="g">cd</text><text x="33.065999999999995" y="19.037999999999997" class="g">/home/a</text></svg><svg x="2480"><use xlink:href="#a"></use><use xlink:href="#b" x="40.996" y="17.343"></use><use xlink:href="#2" y="0"></use><use xlink:href="#3" y="2.171"></use><use xlink:href="#4" y="4.342"></use><use xlink:href="#6" y="6.513"></use><use xlink:href="#8" y="8.684"></use><use xlink:href="#9" y="10.855"></use><use xlink:href="#10" y="13.026"></use><use xlink:href="#11" y="15.197"></use><text x="0" y="19.037999999999997" class="f">abhishek@ituxedo</text><text x="16.032" y="19.037999999999997" class="g">:</text><text x="17.034" y="19.037999999999997" class="h">~/Documents</text><text x="28.055999999999997" y="19.037999999999997" class="g">$</text><text x="30.059999999999995" y="19.037999999999997" class="g">cd</text><text x="33.065999999999995" y="19.037999999999997" class="g">/home/ab</text></svg><svg x="2560"><use xlink:href="#a"></use><use xlink:href="#b" x="47.996" y="17.343"></use><use xlink:href="#2" y="0"></use><use xlink:href="#3" y="2.171"></use><use xlink:href="#4" y="4.342"></use><use xlink:href="#6" y="6.513"></use><use xlink:href="#8" y="8.684"></use><use xlink:href="#9" y="10.855"></use><use xlink:href="#10" y="13.026"></use><use xlink:href="#11" y="15.197"></use><text x="0" y="19.037999999999997" class="f">abhishek@ituxedo</text><text x="16.032" y="19.037999999999997" class="g">:</text><text x="17.034" y="19.037999999999997" class="h">~/Documents</text><text x="28.055999999999997" y="19.037999999999997" class="g">$</text><text x="30.059999999999995" y="19.037999999999997" class="g">cd</text><text x="33.065999999999995" y="19.037999999999997" class="g">/home/abhishek/</text></svg><svg x="2640"><use xlink:href="#a"></use><use xlink:href="#b" x="48.996" y="17.343"></use><use xlink:href="#2" y="0"></use><use xlink:href="#3" y="2.171"></use><use xlink:href="#4" y="4.342"></use><use xlink:href="#6" y="6.513"></use><use xlink:href="#8" y="8.684"></use><use xlink:href="#9" y="10.855"></use><use xlink:href="#10" y="13.026"></use><use xlink:href="#11" y="15.197"></use><text x="0" y="19.037999999999997" class="f">abhishek@ituxedo</text><text x="16.032" y="19.037999999999997" class="g">:</text><text x="17.034" y="19.037999999999997" class="h">~/Documents</text><text x="28.055999999999997" y="19.037999999999997" class="g">$</text><text x="30.059999999999995" y="19.037999999999997" class="g">cd</text><text x="33.065999999999995" y="19.037999999999997" class="g">/home/abhishek/T</text></svg><svg x="2720"><use xlink:href="#a"></use><use xlink:href="#b" x="57.996" y="17.343"></use><use xlink:href="#2" y="0"></use><use xlink:href="#3" y="2.171"></use><use xlink:href="#4" y="4.342"></use><use xlink:href="#6" y="6.513"></use><use xlink:href="#8" y="8.684"></use><use xlink:href="#9" y="10.855"></use><use xlink:href="#10" y="13.026"></use><use xlink:href="#11" y="15.197"></use><use xlink:href="#13" y="17.368"></use></svg><svg x="2800"><use xlink:href="#a"></use><use xlink:href="#b" x="-0.0040000000000000036" y="19.514000000000003"></use><use xlink:href="#2" y="0"></use><use xlink:href="#3" y="2.171"></use><use xlink:href="#4" y="4.342"></use><use xlink:href="#6" y="6.513"></use><use xlink:href="#8" y="8.684"></use><use xlink:href="#9" y="10.855"></use><use xlink:href="#10" y="13.026"></use><use xlink:href="#11" y="15.197"></use><use xlink:href="#13" y="17.368"></use></svg><svg x="2880"><use xlink:href="#a"></use><use xlink:href="#b" x="29.996" y="19.514000000000003"></use><use xlink:href="#2" y="0"></use><use xlink:href="#3" y="2.171"></use><use xlink:href="#4" y="4.342"></use><use xlink:href="#6" y="6.513"></use><use xlink:href="#8" y="8.684"></use><use xlink:href="#9" y="10.855"></use><use xlink:href="#10" y="13.026"></use><use xlink:href="#11" y="15.197"></use><use xlink:href="#13" y="17.368"></use><text x="0" y="21.209000000000003" class="f">abhishek@ituxedo</text><text x="16.032" y="21.209000000000003" class="g">:</text><text x="17.034" y="21.209000000000003" class="h">~/Templates</text><text x="28.055999999999997" y="21.209000000000003" class="g">$</text></svg><svg x="2960"><use xlink:href="#a"></use><use xlink:href="#b" x="30.996" y="19.514000000000003"></use><use xlink:href="#2" y="0"></use><use xlink:href="#3" y="2.171"></use><use xlink:href="#4" y="4.342"></use><use xlink:href="#6" y="6.513"></use><use xlink:href="#8" y="8.684"></use><use xlink:href="#9" y="10.855"></use><use xlink:href="#10" y="13.026"></use><use xlink:href="#11" y="15.197"></use><use xlink:href="#13" y="17.368"></use><text x="0" y="21.209000000000003" class="f">abhishek@ituxedo</text><text x="16.032" y="21.209000000000003" class="g">:</text><text x="17.034" y="21.209000000000003" class="h">~/Templates</text><text x="28.055999999999997" y="21.209000000000003" class="g">$</text><text x="30.059999999999995" y="21.209000000000003" class="g">c</text></svg><svg x="3040"><use xlink:href="#a"></use><use xlink:href="#b" x="31.996" y="19.514000000000003"></use><use xlink:href="#2" y="0"></use><use xlink:href="#3" y="2.171"></use><use xlink:href="#4" y="4.342"></use><use xlink:href="#6" y="6.513"></use><use xlink:href="#8" y="8.684"></use><use xlink:href="#9" y="10.855"></use><use xlink:href="#10" y="13.026"></use><use xlink:href="#11" y="15.197"></use><use xlink:href="#13" y="17.368"></use><use xlink:href="#14" y="19.539"></use></svg><svg x="3120"><use xlink:href="#a"></use><use xlink:href="#b" x="32.996" y="19.514000000000003"></use><use xlink:href="#2" y="0"></use><use xlink:href="#3" y="2.171"></use><use xlink:href="#4" y="4.342"></use><use xlink:href="#6" y="6.513"></use><use xlink:href="#8" y="8.684"></use><use xlink:href="#9" y="10.855"></use><use xlink:href="#10" y="13.026"></use><use xlink:href="#11" y="15.197"></use><use xlink:href="#13" y="17.368"></use><use xlink:href="#14" y="19.539"></use></svg><svg x="3200"><use xlink:href="#a"></use><use xlink:href="#b" x="33.996" y="19.514000000000003"></use><use xlink:href="#2" y="0"></use><use xlink:href="#3" y="2.171"></use><use xlink:href="#4" y="4.342"></use><use xlink:href="#6" y="6.513"></use><use xlink:href="#8" y="8.684"></use><use xlink:href="#9" y="10.855"></use><use xlink:href="#10" y="13.026"></use><use xlink:href="#11" y="15.197"></use><use xlink:href="#13" y="17.368"></use><text x="0" y="21.209000000000003" class="f">abhishek@ituxedo</text><text x="16.032" y="21.209000000000003" class="g">:</text><text x="17.034" y="21.209000000000003" class="h">~/Templates</text><text x="28.055999999999997" y="21.209000000000003" class="g">$</text><text x="30.059999999999995" y="21.209000000000003" class="g">cd</text><text x="33.065999999999995" y="21.209000000000003" class="g">.</text></svg><svg x="3280"><use xlink:href="#a"></use><use xlink:href="#b" x="34.996" y="19.514000000000003"></use><use xlink:href="#2" y="0"></use><use xlink:href="#3" y="2.171"></use><use xlink:href="#4" y="4.342"></use><use xlink:href="#6" y="6.513"></use><use xlink:href="#8" y="8.684"></use><use xlink:href="#9" y="10.855"></use><use xlink:href="#10" y="13.026"></use><use xlink:href="#11" y="15.197"></use><use xlink:href="#13" y="17.368"></use><text x="0" y="21.209000000000003" class="f">abhishek@ituxedo</text><text x="16.032" y="21.209000000000003" class="g">:</text><text x="17.034" y="21.209000000000003" class="h">~/Templates</text><text x="28.055999999999997" y="21.209000000000003" class="g">$</text><text x="30.059999999999995" y="21.209000000000003" class="g">cd</text><text x="33.065999999999995" y="21.209000000000003" class="g">..</text></svg><svg x="3360"><use xlink:href="#a"></use><use xlink:href="#b" x="35.996" y="19.514000000000003"></use><use xlink:href="#2" y="0"></use><use xlink:href="#3" y="2.171"></use><use xlink:href="#4" y="4.342"></use><use xlink:href="#6" y="6.513"></use><use xlink:href="#8" y="8.684"></use><use xlink:href="#9" y="10.855"></use><use xlink:href="#10" y="13.026"></use><use xlink:href="#11" y="15.197"></use><use xlink:href="#13" y="17.368"></use><text x="0" y="21.209000000000003" class="f">abhishek@ituxedo</text><text x="16.032" y="21.209000000000003" class="g">:</text><text x="17.034" y="21.209000000000003" class="h">~/Templates</text><text x="28.055999999999997" y="21.209000000000003" class="g">$</text><text x="30.059999999999995" y="21.209000000000003" class="g">cd</text><text x="33.065999999999995" y="21.209000000000003" class="g">../</text></svg><svg x="3440"><use xlink:href="#a"></use><use xlink:href="#b" x="36.996" y="19.514000000000003"></use><use xlink:href="#2" y="0"></use><use xlink:href="#3" y="2.171"></use><use xlink:href="#4" y="4.342"></use><use xlink:href="#6" y="6.513"></use><use xlink:href="#8" y="8.684"></use><use xlink:href="#9" y="10.855"></use><use xlink:href="#10" y="13.026"></use><use xlink:href="#11" y="15.197"></use><use xlink:href="#13" y="17.368"></use><text x="0" y="21.209000000000003" class="f">abhishek@ituxedo</text><text x="16.032" y="21.209000000000003" class="g">:</text><text x="17.034" y="21.209000000000003" class="h">~/Templates</text><text x="28.055999999999997" y="21.209000000000003" class="g">$</text><text x="30.059999999999995" y="21.209000000000003" class="g">cd</text><text x="33.065999999999995" y="21.209000000000003" class="g">../D</text></svg><svg x="3520"><use xlink:href="#a"></use><use xlink:href="#b" x="37.996" y="19.514000000000003"></use><use xlink:href="#2" y="0"></use><use xlink:href="#3" y="2.171"></use><use xlink:href="#4" y="4.342"></use><use xlink:href="#6" y="6.513"></use><use xlink:href="#8" y="8.684"></use><use xlink:href="#9" y="10.855"></use><use xlink:href="#10" y="13.026"></use><use xlink:href="#11" y="15.197"></use><use xlink:href="#13" y="17.368"></use><text x="0" y="21.209000000000003" class="f">abhishek@ituxedo</text><text x="16.032" y="21.209000000000003" class="g">:</text><text x="17.034" y="21.209000000000003" class="h">~/Templates</text><text x="28.055999999999997" y="21.209000000000003" class="g">$</text><text x="30.059999999999995" y="21.209000000000003" class="g">cd</text><text x="33.065999999999995" y="21.209000000000003" class="g">../Do</text></svg><svg x="3600"><use xlink:href="#a"></use><use xlink:href="#b" x="38.996" y="19.514000000000003"></use><use xlink:href="#2" y="0"></use><use xlink:href="#3" y="2.171"></use><use xlink:href="#4" y="4.342"></use><use xlink:href="#6" y="6.513"></use><use xlink:href="#8" y="8.684"></use><use xlink:href="#9" y="10.855"></use><use xlink:href="#10" y="13.026"></use><use xlink:href="#11" y="15.197"></use><use xlink:href="#13" y="17.368"></use><text x="0" y="21.209000000000003" class="f">abhishek@ituxedo</text><text x="16.032" y="21.209000000000003" class="g">:</text><text x="17.034" y="21.209000000000003" class="h">~/Templates</text><text x="28.055999999999997" y="21.209000000000003" class="g">$</text><text x="30.059999999999995" y="21.209000000000003" class="g">cd</text><text x="33.065999999999995" y="21.209000000000003" class="g">../Dow</text></svg><svg x="3680"><use xlink:href="#a"></use><use xlink:href="#b" x="39.996" y="19.514000000000003"></use><use xlink:href="#2" y="0"></use><use xlink:href="#3" y="2.171"></use><use xlink:href="#4" y="4.342"></use><use xlink:href="#6" y="6.513"></use><use xlink:href="#8" y="8.684"></use><use xlink:href="#9" y="10.855"></use><use xlink:href="#10" y="13.026"></use><use xlink:href="#11" y="15.197"></use><use xlink:href="#13" y="17.368"></use><text x="0" y="21.209000000000003" class="f">abhishek@ituxedo</text><text x="16.032" y="21.209000000000003" class="g">:</text><text x="17.034" y="21.209000000000003" class="h">~/Templates</text><text x="28.055999999999997" y="21.209000000000003" class="g">$</text><text x="30.059999999999995" y="21.209000000000003" class="g">cd</text><text x="33.065999999999995" y="21.209000000000003" class="g">../Down</text></svg><svg x="3760"><use xlink:href="#a"></use><use xlink:href="#b" x="45.996" y="19.514000000000003"></use><use xlink:href="#2" y="0"></use><use xlink:href="#3" y="2.171"></use><use xlink:href="#4" y="4.342"></use><use xlink:href="#6" y="6.513"></use><use xlink:href="#8" y="8.684"></use><use xlink:href="#9" y="10.855"></use><use xlink:href="#10" y="13.026"></use><use xlink:href="#11" y="15.197"></use><use xlink:href="#13" y="17.368"></use><use xlink:href="#15" y="19.539"></use></svg><svg x="3840"><use xlink:href="#a"></use><use xlink:href="#b" x="-0.0040000000000000036" y="21.685000000000002"></use><use xlink:href="#2" y="0"></use><use xlink:href="#3" y="2.171"></use><use xlink:href="#4" y="4.342"></use><use xlink:href="#6" y="6.513"></use><use xlink:href="#8" y="8.684"></use><use xlink:href="#9" y="10.855"></use><use xlink:href="#10" y="13.026"></use><use xlink:href="#11" y="15.197"></use><use xlink:href="#13" y="17.368"></use><use xlink:href="#15" y="19.539"></use></svg><svg x="3920"><use xlink:href="#a"></use><use xlink:href="#b" x="29.996" y="21.685000000000002"></use><use xlink:href="#2" y="0"></use><use xlink:href="#3" y="2.171"></use><use xlink:href="#4" y="4.342"></use><use xlink:href="#6" y="6.513"></use><use xlink:href="#8" y="8.684"></use><use xlink:href="#9" y="10.855"></use><use xlink:href="#10" y="13.026"></use><use xlink:href="#11" y="15.197"></use><use xlink:href="#13" y="17.368"></use><use xlink:href="#15" y="19.539"></use><text x="0" y="23.380000000000003" class="f">abhishek@ituxedo</text><text x="16.032" y="23.380000000000003" class="g">:</text><text x="17.034" y="23.380000000000003" class="h">~/Downloads</text><text x="28.055999999999997" y="23.380000000000003" class="g">$</text></svg><svg x="4000"><use xlink:href="#a"></use><use xlink:href="#b" x="30.996" y="21.685000000000002"></use><use xlink:href="#2" y="0"></use><use xlink:href="#3" y="2.171"></use><use xlink:href="#4" y="4.342"></use><use xlink:href="#6" y="6.513"></use><use xlink:href="#8" y="8.684"></use><use xlink:href="#9" y="10.855"></use><use xlink:href="#10" y="13.026"></use><use xlink:href="#11" y="15.197"></use><use xlink:href="#13" y="17.368"></use><use xlink:href="#15" y="19.539"></use><text x="0" y="23.380000000000003" class="f">abhishek@ituxedo</text><text x="16.032" y="23.380000000000003" class="g">:</text><text x="17.034" y="23.380000000000003" class="h">~/Downloads</text><text x="28.055999999999997" y="23.380000000000003" class="g">$</text><text x="30.059999999999995" y="23.380000000000003" class="g">e</text></svg><svg x="4080"><use xlink:href="#a"></use><use xlink:href="#b" x="31.996" y="21.685000000000002"></use><use xlink:href="#2" y="0"></use><use xlink:href="#3" y="2.171"></use><use xlink:href="#4" y="4.342"></use><use xlink:href="#6" y="6.513"></use><use xlink:href="#8" y="8.684"></use><use xlink:href="#9" y="10.855"></use><use xlink:href="#10" y="13.026"></use><use xlink:href="#11" y="15.197"></use><use xlink:href="#13" y="17.368"></use><use xlink:href="#15" y="19.539"></use><text x="0" y="23.380000000000003" class="f">abhishek@ituxedo</text><text x="16.032" y="23.380000000000003" class="g">:</text><text x="17.034" y="23.380000000000003" class="h">~/Downloads</text><text x="28.055999999999997" y="23.380000000000003" class="g">$</text><text x="30.059999999999995" y="23.380000000000003" class="g">ex</text></svg><svg x="4160"><use xlink:href="#a"></use><use xlink:href="#b" x="32.996" y="21.685000000000002"></use><use xlink:href="#2" y="0"></use><use xlink:href="#3" y="2.171"></use><use xlink:href="#4" y="4.342"></use><use xlink:href="#6" y="6.513"></use><use xlink:href="#8" y="8.684"></use><use xlink:href="#9" y="10.855"></use><use xlink:href="#10" y="13.026"></use><use xlink:href="#11" y="15.197"></use><use xlink:href="#13" y="17.368"></use><use xlink:href="#15" y="19.539"></use><text x="0" y="23.380000000000003" class="f">abhishek@ituxedo</text><text x="16.032" y="23.380000000000003" class="g">:</text><text x="17.034" y="23.380000000000003" class="h">~/Downloads</text><text x="28.055999999999997" y="23.380000000000003" class="g">$</text><text x="30.059999999999995" y="23.380000000000003" class="g">exi</text></svg><svg x="4240"><use xlink:href="#a"></use><use xlink:href="#b" x="33.996" y="21.685000000000002"></use><use xlink:href="#2" y="0"></use><use xlink:href="#3" y="2.171"></use><use xlink:href="#4" y="4.342"></use><use xlink:href="#6" y="6.513"></use><use xlink:href="#8" y="8.684"></use><use xlink:href="#9" y="10.855"></use><use xlink:href="#10" y="13.026"></use><use xlink:href="#11" y="15.197"></use><use xlink:href="#13" y="17.368"></use><use xlink:href="#15" y="19.539"></use><use xlink:href="#16" y="21.71"></use></svg><svg x="4320"><use xlink:href="#a"></use><use xlink:href="#b" x="-0.0040000000000000036" y="23.855999999999998"></use><use xlink:href="#2" y="0"></use><use xlink:href="#3" y="2.171"></use><use xlink:href="#4" y="4.342"></use><use xlink:href="#6" y="6.513"></use><use xlink:href="#8" y="8.684"></use><use xlink:href="#9" y="10.855"></use><use xlink:href="#10" y="13.026"></use><use xlink:href="#11" y="15.197"></use><use xlink:href="#13" y="17.368"></use><use xlink:href="#15" y="19.539"></use><use xlink:href="#16" y="21.71"></use></svg><svg x="4400"><use xlink:href="#a"></use><use xlink:href="#b" x="-0.0040000000000000036" y="26.027"></use><use xlink:href="#2" y="0"></use><use xlink:href="#3" y="2.171"></use><use xlink:href="#4" y="4.342"></use><use xlink:href="#6" y="6.513"></use><use xlink:href="#8" y="8.684"></use><use xlink:href="#9" y="10.855"></use><use xlink:href="#10" y="13.026"></use><use xlink:href="#11" y="15.197"></use><use xlink:href="#13" y="17.368"></use><use xlink:href="#15" y="19.539"></use><use xlink:href="#16" y="21.71"></use><text x="0" y="25.550999999999995" class="g">exit</text></svg></svg></g></g></svg></svg>